<?xml version="1.0" encoding="utf-8"?>
<!-- Generator: Adobe Illustrator 16.0.0, SVG Export Plug-In . SVG Version: 6.00 Build 0)  -->
<!DOCTYPE svg PUBLIC "-//W3C//DTD SVG 1.1//EN" "http://www.w3.org/Graphics/SVG/1.1/DTD/svg11.dtd">
<svg version="1.1" id="Layer_1" xmlns="http://www.w3.org/2000/svg" xmlns:xlink="http://www.w3.org/1999/xlink" x="0px" y="0px"
	 width="667.321px" height="72.609px" viewBox="0 0 667.321 72.609" enable-background="new 0 0 667.321 72.609"
	 xml:space="preserve">
<line fill="none" stroke="#FFFFFF" stroke-miterlimit="10" x1="26.473" y1="-4" x2="5.68" y2="73.154"/>
<line fill="none" stroke="#FFFFFF" stroke-miterlimit="10" x1="35.362" y1="-4" x2="14.57" y2="73.154"/>
<line fill="none" stroke="#FFFFFF" stroke-miterlimit="10" x1="44.252" y1="-4" x2="23.46" y2="73.154"/>
<line fill="none" stroke="#FFFFFF" stroke-miterlimit="10" x1="53.142" y1="-4" x2="32.35" y2="73.154"/>
<line fill="none" stroke="#FFFFFF" stroke-miterlimit="10" x1="62.032" y1="-4" x2="41.239" y2="73.154"/>
<line fill="none" stroke="#FFFFFF" stroke-miterlimit="10" x1="70.922" y1="-4" x2="50.129" y2="73.154"/>
<line fill="none" stroke="#FFFFFF" stroke-miterlimit="10" x1="79.812" y1="-4" x2="59.02" y2="73.154"/>
<line fill="none" stroke="#FFFFFF" stroke-miterlimit="10" x1="88.702" y1="-4" x2="67.909" y2="73.154"/>
<line fill="none" stroke="#FFFFFF" stroke-miterlimit="10" x1="97.591" y1="-4" x2="76.799" y2="73.154"/>
<line fill="none" stroke="#FFFFFF" stroke-miterlimit="10" x1="106.481" y1="-4" x2="85.689" y2="73.154"/>
<line fill="none" stroke="#FFFFFF" stroke-miterlimit="10" x1="115.371" y1="-4" x2="94.579" y2="73.154"/>
<line fill="none" stroke="#FFFFFF" stroke-miterlimit="10" x1="124.261" y1="-4" x2="103.468" y2="73.154"/>
<line fill="none" stroke="#FFFFFF" stroke-miterlimit="10" x1="133.151" y1="-4" x2="112.358" y2="73.154"/>
<line fill="none" stroke="#FFFFFF" stroke-miterlimit="10" x1="142.041" y1="-4" x2="121.248" y2="73.154"/>
<line fill="none" stroke="#FFFFFF" stroke-miterlimit="10" x1="150.93" y1="-4" x2="130.138" y2="73.154"/>
<line fill="none" stroke="#FFFFFF" stroke-miterlimit="10" x1="159.82" y1="-4" x2="139.028" y2="73.154"/>
<line fill="none" stroke="#FFFFFF" stroke-miterlimit="10" x1="168.709" y1="-4" x2="147.917" y2="73.154"/>
<line fill="none" stroke="#FFFFFF" stroke-miterlimit="10" x1="177.6" y1="-4" x2="156.808" y2="73.154"/>
<line fill="none" stroke="#FFFFFF" stroke-miterlimit="10" x1="186.49" y1="-4" x2="165.697" y2="73.154"/>
<line fill="none" stroke="#FFFFFF" stroke-miterlimit="10" x1="195.379" y1="-4" x2="174.587" y2="73.154"/>
<line fill="none" stroke="#FFFFFF" stroke-miterlimit="10" x1="204.269" y1="-4" x2="183.477" y2="73.154"/>
<line fill="none" stroke="#FFFFFF" stroke-miterlimit="10" x1="213.159" y1="-4" x2="192.367" y2="73.154"/>
<line fill="none" stroke="#FFFFFF" stroke-miterlimit="10" x1="222.049" y1="-4" x2="201.256" y2="73.154"/>
<line fill="none" stroke="#FFFFFF" stroke-miterlimit="10" x1="230.939" y1="-4" x2="210.146" y2="73.154"/>
<line fill="none" stroke="#FFFFFF" stroke-miterlimit="10" x1="239.829" y1="-4" x2="219.036" y2="73.154"/>
<line fill="none" stroke="#FFFFFF" stroke-miterlimit="10" x1="248.718" y1="-4" x2="227.926" y2="73.154"/>
<line fill="none" stroke="#FFFFFF" stroke-miterlimit="10" x1="257.608" y1="-4" x2="236.816" y2="73.154"/>
<line fill="none" stroke="#FFFFFF" stroke-miterlimit="10" x1="266.498" y1="-4" x2="245.706" y2="73.154"/>
<line fill="none" stroke="#FFFFFF" stroke-miterlimit="10" x1="275.388" y1="-4" x2="254.595" y2="73.154"/>
<line fill="none" stroke="#FFFFFF" stroke-miterlimit="10" x1="284.278" y1="-4" x2="263.485" y2="73.154"/>
<line fill="none" stroke="#FFFFFF" stroke-miterlimit="10" x1="293.167" y1="-4" x2="272.375" y2="73.154"/>
<line fill="none" stroke="#FFFFFF" stroke-miterlimit="10" x1="302.057" y1="-4" x2="281.265" y2="73.154"/>
<line fill="none" stroke="#FFFFFF" stroke-miterlimit="10" x1="310.947" y1="-4" x2="290.155" y2="73.154"/>
<line fill="none" stroke="#FFFFFF" stroke-miterlimit="10" x1="319.837" y1="-4" x2="299.044" y2="73.154"/>
<line fill="none" stroke="#FFFFFF" stroke-miterlimit="10" x1="328.727" y1="-4" x2="307.934" y2="73.154"/>
<line fill="none" stroke="#FFFFFF" stroke-miterlimit="10" x1="337.617" y1="-4" x2="316.825" y2="73.154"/>
<line fill="none" stroke="#FFFFFF" stroke-miterlimit="10" x1="346.506" y1="-4" x2="325.714" y2="73.154"/>
<line fill="none" stroke="#FFFFFF" stroke-miterlimit="10" x1="355.397" y1="-4" x2="334.604" y2="73.154"/>
<line fill="none" stroke="#FFFFFF" stroke-miterlimit="10" x1="364.286" y1="-4" x2="343.494" y2="73.154"/>
<line fill="none" stroke="#FFFFFF" stroke-miterlimit="10" x1="373.175" y1="-4" x2="352.383" y2="73.154"/>
<line fill="none" stroke="#FFFFFF" stroke-miterlimit="10" x1="382.066" y1="-4" x2="361.274" y2="73.154"/>
<line fill="none" stroke="#FFFFFF" stroke-miterlimit="10" x1="390.956" y1="-4" x2="370.164" y2="73.154"/>
<line fill="none" stroke="#FFFFFF" stroke-miterlimit="10" x1="399.845" y1="-4" x2="379.053" y2="73.154"/>
<line fill="none" stroke="#FFFFFF" stroke-miterlimit="10" x1="408.735" y1="-4" x2="387.943" y2="73.154"/>
<line fill="none" stroke="#FFFFFF" stroke-miterlimit="10" x1="417.625" y1="-4" x2="396.833" y2="73.154"/>
<line fill="none" stroke="#FFFFFF" stroke-miterlimit="10" x1="426.515" y1="-4" x2="405.722" y2="73.154"/>
<line fill="none" stroke="#FFFFFF" stroke-miterlimit="10" x1="435.405" y1="-4" x2="414.613" y2="73.154"/>
<line fill="none" stroke="#FFFFFF" stroke-miterlimit="10" x1="444.294" y1="-4" x2="423.502" y2="73.154"/>
<line fill="none" stroke="#FFFFFF" stroke-miterlimit="10" x1="453.184" y1="-4" x2="432.392" y2="73.154"/>
<line fill="none" stroke="#FFFFFF" stroke-miterlimit="10" x1="462.074" y1="-4" x2="441.282" y2="73.154"/>
<line fill="none" stroke="#FFFFFF" stroke-miterlimit="10" x1="470.963" y1="-4" x2="450.172" y2="73.154"/>
<line fill="none" stroke="#FFFFFF" stroke-miterlimit="10" x1="479.854" y1="-4" x2="459.061" y2="73.154"/>
<line fill="none" stroke="#FFFFFF" stroke-miterlimit="10" x1="488.744" y1="-4" x2="467.952" y2="73.154"/>
<line fill="none" stroke="#FFFFFF" stroke-miterlimit="10" x1="497.633" y1="-4" x2="476.841" y2="73.154"/>
<line fill="none" stroke="#FFFFFF" stroke-miterlimit="10" x1="506.523" y1="-4" x2="485.731" y2="73.154"/>
<line fill="none" stroke="#FFFFFF" stroke-miterlimit="10" x1="515.413" y1="-4" x2="494.621" y2="73.154"/>
<line fill="none" stroke="#FFFFFF" stroke-miterlimit="10" x1="524.303" y1="-4" x2="503.51" y2="73.154"/>
<line fill="none" stroke="#FFFFFF" stroke-miterlimit="10" x1="533.193" y1="-4" x2="512.401" y2="73.154"/>
<line fill="none" stroke="#FFFFFF" stroke-miterlimit="10" x1="542.083" y1="-4" x2="521.291" y2="73.154"/>
<line fill="none" stroke="#FFFFFF" stroke-miterlimit="10" x1="550.972" y1="-4" x2="530.18" y2="73.154"/>
<line fill="none" stroke="#FFFFFF" stroke-miterlimit="10" x1="559.862" y1="-4" x2="539.07" y2="73.154"/>
<line fill="none" stroke="#FFFFFF" stroke-miterlimit="10" x1="568.752" y1="-4" x2="547.959" y2="73.154"/>
<line fill="none" stroke="#FFFFFF" stroke-miterlimit="10" x1="577.642" y1="-4" x2="556.85" y2="73.154"/>
<line fill="none" stroke="#FFFFFF" stroke-miterlimit="10" x1="586.532" y1="-4" x2="565.74" y2="73.154"/>
<line fill="none" stroke="#FFFFFF" stroke-miterlimit="10" x1="595.421" y1="-4" x2="574.629" y2="73.154"/>
<line fill="none" stroke="#FFFFFF" stroke-miterlimit="10" x1="604.311" y1="-4" x2="583.519" y2="73.154"/>
<line fill="none" stroke="#FFFFFF" stroke-miterlimit="10" x1="613.201" y1="-4" x2="592.409" y2="73.154"/>
<line fill="none" stroke="#FFFFFF" stroke-miterlimit="10" x1="622.091" y1="-4" x2="601.298" y2="73.154"/>
<line fill="none" stroke="#FFFFFF" stroke-miterlimit="10" x1="630.981" y1="-4" x2="610.189" y2="73.154"/>
<line fill="none" stroke="#FFFFFF" stroke-miterlimit="10" x1="639.871" y1="-4" x2="619.079" y2="73.154"/>
<line fill="none" stroke="#FFFFFF" stroke-miterlimit="10" x1="648.76" y1="-4" x2="627.968" y2="73.154"/>
<line fill="none" stroke="#FFFFFF" stroke-miterlimit="10" x1="657.65" y1="-4" x2="636.858" y2="73.154"/>
<line fill="none" stroke="#FFFFFF" stroke-miterlimit="10" x1="666.541" y1="-4" x2="645.749" y2="73.154"/>
</svg>
