<?xml version="1.0" encoding="utf-8"?>
<!-- Generator: Adobe Illustrator 16.0.0, SVG Export Plug-In . SVG Version: 6.00 Build 0)  -->
<!DOCTYPE svg PUBLIC "-//W3C//DTD SVG 1.1//EN" "http://www.w3.org/Graphics/SVG/1.1/DTD/svg11.dtd">
<svg version="1.1" id="Layer_1" xmlns="http://www.w3.org/2000/svg" xmlns:xlink="http://www.w3.org/1999/xlink" x="0px" y="0px"
	 width="992.594px" height="941.637px" viewBox="0 0 992.594 941.637" enable-background="new 0 0 992.594 941.637"
	 xml:space="preserve">
<path fill="#FFFFFF" d="M425.308,459.201v-11.324l7.861,12.63h0.77v-13.808l1.308-1.306h-3.947l1.309,1.306v9.606l-6.81-10.91
	h-3.131l1.283,1.306v12.502l-1.283,1.309h3.952L425.308,459.201L425.308,459.201z M413.633,459.68c-3.023,0-4.064-3.612-4.064-6.737
	c0-3.127,1.047-6.74,4.064-6.74c3.05,0,4.105,3.613,4.105,6.74c0,3.133-1.051,6.738-4.104,6.738 M407.589,452.951
	c0,3.844,2.178,7.889,6.042,7.889c3.893,0,6.071-4.046,6.071-7.889c0-3.842-2.167-7.89-6.071-7.89c-3.861,0-6.046,4.042-6.046,7.888
	 M400.759,459.304v-12.785h2.866l1.615,1.618v-2.74h-10.63v2.734l1.64-1.615h2.843v12.783l-1.18,1.201h4.045l-1.2-1.209
	L400.759,459.304L400.759,459.304z M389.562,453.631v4.865c-0.356,0.363-1.075,1.074-2.481,1.074c-3.358,0-5.041-3.377-5.041-6.632
	c0-3.278,2.124-6.633,5.041-6.633c0.766,0,1.333,0.178,1.845,0.72l1.666,1.635v-2.61c-0.896-0.457-1.795-0.871-3.511-0.871
	c-4.121,0-7.019,3.689-7.019,7.762c0,3.994,2.896,7.76,7.019,7.76c2.334,0,3.332-0.565,4.151-1.113v-5.957l1.177-1.2h-4.045
	l1.188,1.192L389.562,453.631z M367.157,459.201v-11.324l7.949,12.637l0.683-0.007v-13.808l1.306-1.306h-3.944l1.309,1.306v9.606
	l-6.812-10.91h-3.125l1.282,1.306v12.502l-1.282,1.309h3.949L367.157,459.201L367.157,459.201z M356.327,445.389l1.203,1.203v12.705
	l-1.203,1.198h4.066l-1.199-1.198v-12.705l1.199-1.203H356.327L356.327,445.389z M342.901,452.919h6.354v6.384l-1.203,1.199h4.07
	l-1.206-1.199v-12.701l1.206-1.204h-4.07l1.203,1.204v5.194h-6.354v-5.194l1.208-1.204h-4.049l1.181,1.204v12.702l-1.181,1.199
	h4.049l-1.208-1.199V452.919L342.901,452.919z M336.096,456.304c0-1.486-0.692-2.411-1.408-2.898l-3.075-2.229
	c-1.103-0.793-1.666-1.814-1.666-2.589c0-1.583,1.357-2.152,2.179-2.152c0.431,0,0.738,0.178,0.971,0.178l1.328,1.437l1.412-2.1
	l-3-0.565c-0.201-0.049-0.33-0.077-0.711-0.077c-2.641,0-3.845,2.253-3.845,3.717c0,1.15,0.584,2.455,1.942,3.451l3.1,2.231
	c0.842,0.591,1.074,1.462,1.074,2.203c0,1.286-0.794,2.678-2.508,2.678c-0.411,0-0.771-0.079-1.053-0.215l-1.434-1.688l-1.31,2.354
	l2.894,0.566c0,0,0.488,0.098,0.898,0.098c1.81,0.025,4.191-1.509,4.191-4.381 M319.165,448.771l2.076,6.248h-4.229l2.157-6.254
	L319.165,448.771z M315.526,459.348l1.1-3.199h5l1.046,3.199l-1.177,1.183h4.279l-1.205-1.23l-4.71-13.88h-0.771l-4.791,13.88
	l-1.229,1.23h3.636l-1.161-1.183H315.526z M299.457,460.52l3.458-10.936l3.353,10.936h0.771l4.378-13.9l1.23-1.203h-3.635
	l1.181,1.177l-3.2,10.449l-3.103-10.449l1.182-1.177h-4.279l1.206,1.203l0.307,0.994l-2.898,9.429l-3.097-10.451l1.176-1.176h-4.276
	l1.23,1.203l4.252,13.903h0.751L299.457,460.52L299.457,460.52z M277.069,451.461l-0.574,0.555l0.063,0.213h1.767
	c-0.278,1.92-0.529,3.576-0.938,6.263c-0.572,3.976-1.061,5.385-1.468,5.724c-0.129,0.126-0.341,0.188-0.529,0.188
	c-0.256,0-0.66-0.188-0.94-0.317c-0.251-0.133-0.466,0.021-0.592,0.146c-0.171,0.19-0.36,0.489-0.36,0.725
	c0,0.423,0.553,0.64,0.915,0.64c0.402,0,1.426-0.335,2.341-1.464c0.724-0.891,1.698-2.961,2.528-7.77
	c0.151-0.892,0.323-1.784,0.686-4.125l2.167-0.215l0.466-0.553h-2.508c0.635-3.94,1.167-5.132,2.084-5.132
	c0.64,0,1.166,0.252,1.639,0.703c0.151,0.148,0.383,0.148,0.595-0.021c0.169-0.146,0.426-0.489,0.426-0.784
	c0.023-0.429-0.555-0.896-1.28-0.896c-1.235,0-2.528,0.726-3.422,1.785c-0.83,1.003-1.38,2.615-1.682,4.348h-1.38h-0.01
	L277.069,451.461z M267.497,457.039c0-3.146,1.592-4.852,2.256-5.129c0.188-0.086,0.489-0.17,0.701-0.17
	c1.063,0,1.681,0.801,1.681,2.44c0.043,2.769-1.404,5.279-2.295,5.575c-0.171,0.061-0.447,0.147-0.659,0.147
	c-1.2,0-1.686-1.267-1.686-2.87 M271.13,450.953c-0.552,0-1.425,0.254-2.295,0.764c-1.473,0.875-3.067,2.853-3.067,5.831
	c0,1.493,0.701,3.149,2.681,3.149c0.938,0,2.276-0.619,3.173-1.426c1.404-1.274,2.229-3.468,2.229-5.367
	c0.011-1.762-0.928-2.951-2.716-2.951 M246.474,446.621l3.818,6.887v5.815l-1.203,1.199h4.071l-1.203-1.199v-5.815l3.89-6.863
	l1.255-1.229h-3.737l1.18,1.179l-3.176,5.655l-3.025-5.655l1.179-1.179h-4.276l1.228,1.199L246.474,446.621L246.474,446.621z
	 M238.515,459.323v-12.784h2.869l1.613,1.618v-2.739h-10.631v2.734l1.64-1.616h2.84v12.784l-1.177,1.202h4.045l-1.189-1.21
	L238.515,459.323z M224.809,445.41l1.203,1.202v12.706l-1.203,1.196h4.073l-1.203-1.196v-12.703l1.203-1.203h-4.067L224.809,445.41
	L224.809,445.41z M220.428,456.322c0-1.486-0.696-2.41-1.409-2.897l-3.077-2.229c-1.102-0.795-1.665-1.816-1.665-2.589
	c0-1.583,1.36-2.151,2.178-2.151c0.437,0,0.742,0.176,0.975,0.176l1.33,1.438l1.407-2.103l-2.993-0.563
	c-0.207-0.054-0.331-0.078-0.715-0.078c-2.642,0-3.844,2.25-3.844,3.72c0,1.149,0.586,2.454,1.948,3.454l3.097,2.23
	c0.845,0.588,1.076,1.462,1.076,2.204c0,1.28-0.795,2.677-2.51,2.677c-0.409,0-0.767-0.08-1.048-0.218l-1.437-1.688l-1.308,2.362
	l2.895,0.564c0,0,0.487,0.099,0.895,0.099c1.821,0.011,4.203-1.527,4.203-4.396 M201.012,446.548h1.845
	c1.613,0,2.895,1.384,2.895,3.026c0,1.561-1.309,2.792-2.895,2.792h-1.845v-5.821V446.548z M201.012,459.334v-5.838h2.283
	l3.659,7.041h2.51l-1.179-1.191l-3.378-6.199c1.689-0.514,2.84-2.1,2.84-3.534c0-2.558-2.381-4.17-4.892-4.17h-4.686l1.177,1.2
	v12.704l-1.177,1.19h4.042L201.012,459.334L201.012,459.334z M194.225,460.527v-2.764l-1.617,1.637h-4.582v-6.35h3.406l1.205,1.197
	v-3.522l-1.205,1.203h-3.406v-5.381h4.584l1.616,1.621v-2.74h-9.042l1.178,1.199v12.711l-1.178,1.195h9.041V460.527L194.225,460.527
	z M174.631,445.423h-4.278l1.231,1.202l4.25,13.902h0.769l4.379-13.902l1.228-1.202h-3.638l1.182,1.177l-3.203,10.45l-3.094-10.45
	l1.177-1.172v-0.005H174.631L174.631,445.423z M162.901,445.423l1.206,1.202v12.705l-1.206,1.199h4.073l-1.204-1.199v-12.705
	l1.204-1.202H162.901z M148.839,459.234v-11.323l8.108,12.629h0.521v-13.81l1.309-1.306h-3.945l1.308,1.306v9.606l-6.812-10.908
	h-3.125l1.281,1.304v12.504l-1.281,1.309h3.943L148.839,459.234L148.839,459.234z M131.832,456.496c0,2.479,2.104,4.377,4.689,4.377
	c2.457,0,4.891-1.816,4.891-4.377v-9.764l1.282-1.304h-3.945l1.306,1.304v9.764c0,1.738-1.38,3.119-3.125,3.119
	c-1.765,0-3.329-1.357-3.329-3.119v-9.764l1.311-1.304h-4.382l1.305,1.304l-0.001,9.76v0.004H131.832z"/>
<path fill="#FFFFFF" d="M74.406,425.561v11.427h8.03l-8.962,33.382c0,0-10.979-44.188-11.13-44.812h-11.61
	c-0.161,0.605-12.046,44.812-12.046,44.812l-8.254-33.382h8.363v-11.427H5.246v11.427h7.436c0,0,12.822,51.323,12.983,51.944h18.009
	c0.16-0.61,8.595-32.685,8.595-32.685c5.351,21.396,5.085,20.042,8.17,32.685h18.02c0.155-0.61,13.659-51.944,13.659-51.944h7.375
	v-11.427H74.41H74.406L74.406,425.561z"/>
<g>
	<path fill="#6B6B6B" d="M30.452,197.326c0-4.567,3.716-8.282,8.28-8.282c4.567,0,8.282,3.718,8.282,8.282
		c0,4.568-3.717,8.283-8.282,8.283C34.168,205.609,30.452,201.896,30.452,197.326z M32.313,197.326c0,3.54,2.879,6.421,6.427,6.421
		c3.541,0,6.42-2.881,6.42-6.421s-2.879-6.418-6.42-6.418c-3.548,0.001-6.43,2.878-6.43,6.418H32.313z"/>
	
		<rect x="29.258" y="201.483" transform="matrix(-0.7066 -0.7076 0.7076 -0.7066 -93.8007 372.3947)" fill="#6B6B6B" width="2.079" height="8.319"/>
</g>
<line fill="none" stroke="#FFFFFF" stroke-miterlimit="10" x1="151.565" y1="101.604" x2="89.469" y2="296.765"/>
<circle fill="none" stroke="#FFFFFF" stroke-width="3" stroke-miterlimit="10" cx="212.521" cy="204.847" r="39.686"/>
<polygon fill="none" stroke="#FFFFFF" stroke-width="3" stroke-miterlimit="10" points="202.646,188.35 232.771,204.847 
	202.646,221.344 "/>
<g>
	<path fill="#808285" d="M103.108,359.504h12.495c1.187,0,2.152,0.973,2.152,2.158v12.494c0,1.188-0.971,2.156-2.152,2.156h-12.495
		c-1.188,0-2.158-0.973-2.158-2.156v-12.493c0.01-1.188,0.98-2.16,2.17-2.16L103.108,359.504z M113.188,361.374
		c-0.415,0-0.757,0.345-0.757,0.758v1.812c0,0.416,0.343,0.759,0.757,0.759h1.898c0.411,0,0.758-0.343,0.758-0.759v-1.812
		c0-0.413-0.35-0.758-0.758-0.758H113.188z M115.858,366.616h-1.479c0.146,0.456,0.222,0.94,0.222,1.442
		c0,2.795-2.346,5.062-5.229,5.062c-2.881,0-5.222-2.267-5.222-5.062c0-0.502,0.076-0.986,0.217-1.442h-1.544v7.1
		c0,0.369,0.3,0.669,0.668,0.669h11.708c0.368,0,0.668-0.3,0.668-0.669v-7.1h-0.02H115.858z M109.368,364.604
		c-1.861,0-3.375,1.463-3.375,3.271s1.511,3.271,3.375,3.271c1.866,0,3.377-1.465,3.377-3.271c0-1.809-1.528-3.271-3.39-3.271
		H109.368z"/>
	<path fill="#808285" d="M25.324,367.994l0.399-3.096h-3.066v-1.979c0-0.896,0.25-1.509,1.535-1.509l1.639-0.001v-2.771
		c-0.283-0.037-1.256-0.121-2.389-0.121c-2.365,0-3.982,1.441-3.982,4.094v2.283h-2.674v3.097h2.674v7.944h3.198v-7.943
		L25.324,367.994L25.324,367.994z"/>
	<path fill="#808285" d="M70.375,362.635c-0.626,0.274-1.299,0.465-2.004,0.549c0.721-0.433,1.275-1.115,1.535-1.933
		c-0.673,0.397-1.42,0.69-2.216,0.851c-0.638-0.681-1.545-1.104-2.549-1.104c-1.928,0-3.491,1.563-3.491,3.489
		c0,0.275,0.031,0.541,0.09,0.795c-2.901-0.145-5.473-1.534-7.195-3.645c-0.3,0.518-0.472,1.114-0.472,1.756
		c0,1.209,0.616,2.278,1.552,2.903c-0.572-0.019-1.109-0.176-1.581-0.438v0.045c0,1.691,1.203,3.103,2.8,3.423
		c-0.292,0.081-0.603,0.125-0.92,0.125c-0.225,0-0.444-0.021-0.657-0.062c0.445,1.389,1.733,2.396,3.261,2.426
		c-1.193,0.936-2.699,1.494-4.335,1.494c-0.282,0-0.559-0.02-0.832-0.053c1.544,0.992,3.379,1.57,5.352,1.57
		c6.42,0,9.932-5.32,9.932-9.934c0-0.15-0.004-0.305-0.009-0.451c0.679-0.5,1.27-1.109,1.739-1.812V362.635z"/>
	<line fill="none" stroke="#CACCCE" stroke-miterlimit="10" x1="162.386" y1="356.361" x2="156.161" y2="380.766"/>
	<line fill="none" stroke="#FFFFFF" stroke-miterlimit="10" x1="178.292" y1="356.361" x2="172.066" y2="380.766"/>
	<path fill="#808285" d="M137.144,357.857h-1.162l-0.785,3.016l-0.815-3.016h-1.21c0.242,0.711,0.494,1.428,0.737,2.14
		c0.369,1.069,0.599,1.877,0.703,2.429v3.108h1.15v-3.108l1.38-4.57L137.144,357.857z M140.214,363.678v-2.004
		c0-0.611-0.105-1.058-0.321-1.348c-0.288-0.389-0.691-0.586-1.21-0.586c-0.516,0-0.92,0.197-1.208,0.586
		c-0.222,0.29-0.325,0.736-0.325,1.348v2.004c0,0.608,0.103,1.059,0.325,1.346c0.286,0.391,0.691,0.586,1.208,0.586
		c0.52,0,0.922-0.195,1.21-0.586c0.22-0.289,0.33-0.739,0.33-1.35L140.214,363.678z M139.174,363.879
		c0,0.529-0.16,0.794-0.494,0.794c-0.335,0-0.495-0.265-0.495-0.794v-2.406c0-0.529,0.16-0.791,0.495-0.791s0.494,0.262,0.494,0.791
		v2.409V363.879z M144.044,365.527v-5.719h-1.037v4.371c-0.23,0.325-0.447,0.485-0.655,0.485c-0.139,0-0.22-0.083-0.242-0.242
		c-0.014-0.034-0.014-0.161-0.014-0.403v-4.209h-1.033v4.523c0,0.404,0.036,0.678,0.092,0.848c0.103,0.293,0.334,0.428,0.668,0.428
		c0.379,0,0.771-0.23,1.184-0.705v0.625h1.04L144.044,365.527z"/>
	<path fill="#808285" d="M145.115,372.646v-0.521c0-0.522-0.172-0.786-0.511-0.786c-0.345,0-0.515,0.264-0.515,0.786v0.522h1.025
		L145.115,372.646z"/>
	<path fill="#808285" d="M140.798,371.339c-0.168,0-0.34,0.082-0.511,0.25v3.45c0.17,0.171,0.343,0.252,0.511,0.252
		c0.295,0,0.446-0.252,0.446-0.764v-2.414C141.244,371.604,141.093,371.339,140.798,371.339z"/>
	<path fill="#808285" d="M147.108,368.466c-0.206-0.901-0.945-1.569-1.834-1.668c-2.105-0.235-4.235-0.235-6.356-0.235
		s-4.252,0-6.356,0.235c-0.889,0.099-1.627,0.767-1.834,1.668c-0.297,1.286-0.299,2.69-0.299,4.013c0,1.324,0,2.729,0.296,4.014
		c0.206,0.902,0.944,1.568,1.834,1.669c2.105,0.235,4.235,0.237,6.356,0.235c2.12,0,4.251,0,6.356-0.235
		c0.889-0.099,1.627-0.767,1.835-1.669c0.297-1.284,0.298-2.689,0.298-4.014l0.014-0.002
		C147.418,371.146,147.418,369.746,147.108,368.466z M135.274,369.618h-1.229v6.528h-1.141v-6.528h-1.207v-1.068h3.577V369.618
		L135.274,369.618z M138.373,376.148h-1.029v-0.617c-0.406,0.469-0.793,0.697-1.171,0.697c-0.332,0-0.559-0.135-0.661-0.42
		c-0.056-0.172-0.09-0.441-0.09-0.843v-4.478h1.025v4.171c0,0.239,0,0.364,0.01,0.397c0.025,0.16,0.104,0.238,0.24,0.238
		c0.206,0,0.421-0.16,0.648-0.48v-4.326h1.028V376.148L138.373,376.148z M142.264,374.447l-0.004-0.006c0,0.52-0.03,0.899-0.1,1.149
		c-0.137,0.419-0.411,0.636-0.82,0.636c-0.365,0-0.717-0.203-1.06-0.627v0.551h-1.026v-7.6h1.026v2.479
		c0.331-0.407,0.683-0.613,1.06-0.613c0.408,0,0.683,0.215,0.82,0.639c0.069,0.227,0.104,0.602,0.104,1.139V374.447z
		 M146.123,375.001c-0.034,0.228-0.113,0.433-0.238,0.615c-0.284,0.411-0.704,0.614-1.241,0.614s-0.945-0.194-1.242-0.582
		c-0.217-0.281-0.329-0.729-0.329-1.33v-1.983c0-0.604,0.098-1.047,0.316-1.333c0.296-0.389,0.706-0.581,1.229-0.581
		c0.514,0,0.922,0.192,1.21,0.581c0.214,0.285,0.317,0.729,0.317,1.333v1.173h-2.051v1.004c0,0.523,0.171,0.784,0.523,0.784
		c0.252,0,0.399-0.14,0.458-0.414c0.01-0.056,0.022-0.28,0.022-0.694h1.047v0.15l0.009,0.003
		C146.153,374.671,146.133,374.9,146.123,375.001z"/>
	<polygon fill="#FFFFFF" points="199.337,361.488 197.23,363.566 201.529,367.986 197.23,372.41 199.337,374.488 205.699,367.993 
		205.684,367.984 205.699,367.982 	"/>
</g>
<line fill="none" stroke="#FFFFFF" stroke-miterlimit="10" x1="34.545" y1="4.937" x2="8.083" y2="103.696"/>
<polygon fill="#FFFFFF" points="51.664,54.188 39.211,41.729 37.016,43.928 47.274,54.193 37.016,64.457 39.212,66.656 
	51.664,54.196 51.66,54.192 "/>
</svg>
