<?xml version="1.0" encoding="utf-8"?>
<!-- Generator: Adobe Illustrator 16.0.0, SVG Export Plug-In . SVG Version: 6.00 Build 0)  -->
<!DOCTYPE svg PUBLIC "-//W3C//DTD SVG 1.1//EN" "http://www.w3.org/Graphics/SVG/1.1/DTD/svg11.dtd">
<svg version="1.1" id="Layer_1" xmlns="http://www.w3.org/2000/svg" xmlns:xlink="http://www.w3.org/1999/xlink" x="0px" y="0px"
	 width="1059px" height="226px" viewBox="0 0 1059 226" enable-background="new 0 0 1059 226" xml:space="preserve">
<path fill="#FFFFFF" d="M478.676,38.338V25.434l8.957,14.393h0.875V24.091L490,22.605h-4.499l1.492,1.486V35.04l-7.76-12.432h-3.569
	l1.462,1.485v14.249l-1.462,1.49h4.504L478.676,38.338L478.676,38.338z M465.371,38.882c-3.446,0-4.633-4.116-4.633-7.678
	c0-3.562,1.193-7.681,4.633-7.681c3.477,0,4.679,4.119,4.679,7.681c0,3.57-1.197,7.68-4.676,7.68 M458.484,31.216
	c0,4.381,2.481,8.989,6.883,8.989c4.437,0,6.92-4.61,6.92-8.989c0-4.378-2.471-8.989-6.92-8.989c-4.399,0-6.889,4.605-6.889,8.987
	 M450.7,38.455V23.886h3.266l1.842,1.844v-3.124h-12.114v3.118l1.868-1.841h3.241V38.45l-1.345,1.37h4.61L450.7,38.44V38.455
	L450.7,38.455z M437.942,31.99v5.544c-0.407,0.413-1.227,1.223-2.829,1.223c-3.826,0-5.744-3.848-5.744-7.556
	c0-3.735,2.421-7.557,5.744-7.557c0.873,0,1.519,0.202,2.104,0.819l1.897,1.863v-2.975c-1.022-0.521-2.045-0.993-4.001-0.993
	c-4.694,0-7.997,4.205-7.997,8.844c0,4.552,3.3,8.84,7.997,8.84c2.66,0,3.796-0.643,4.73-1.266v-6.79l1.342-1.367h-4.611
	l1.356,1.358L437.942,31.99z M412.411,38.338V25.434l9.059,14.401l0.776-0.008V24.091l1.489-1.486h-4.496l1.491,1.486V35.04
	l-7.763-12.432h-3.562l1.462,1.485v14.249l-1.462,1.49h4.502L412.411,38.338L412.411,38.338z M400.068,22.599l1.37,1.37v14.48
	l-1.37,1.364h4.635l-1.367-1.364v-14.48l1.367-1.37H400.068L400.068,22.599z M384.77,31.179h7.24v7.274l-1.37,1.366h4.638
	l-1.373-1.366V23.98l1.373-1.372h-4.638l1.37,1.372v5.919h-7.24V23.98l1.376-1.372h-4.612l1.343,1.372v14.475l-1.343,1.366h4.612
	l-1.376-1.366V31.179L384.77,31.179z M377.015,35.036c0-1.694-0.788-2.747-1.605-3.303l-3.503-2.541
	c-1.257-0.904-1.897-2.068-1.897-2.95c0-1.804,1.546-2.453,2.481-2.453c0.491,0,0.842,0.201,1.106,0.201l1.512,1.638l1.609-2.393
	l-3.417-0.645c-0.229-0.056-0.376-0.088-0.811-0.088c-3.01,0-4.381,2.567-4.381,4.235c0,1.311,0.665,2.798,2.214,3.933l3.532,2.542
	c0.959,0.674,1.223,1.667,1.223,2.512c0,1.465-0.904,3.05-2.855,3.05c-0.468,0-0.88-0.089-1.201-0.244l-1.634-1.921l-1.49,2.684
	l3.297,0.643c0,0,0.557,0.112,1.023,0.112c2.062,0.031,4.775-1.719,4.775-4.991 M357.721,26.452l2.366,7.121h-4.818l2.459-7.126
	L357.721,26.452z M353.576,38.505l1.253-3.647h5.697l1.192,3.647l-1.342,1.347h4.877l-1.373-1.402l-5.366-15.817h-0.877
	l-5.46,15.817l-1.402,1.402h4.145l-1.325-1.347H353.576z M335.264,39.841l3.941-12.462l3.819,12.462h0.876L348.891,24l1.401-1.372
	h-4.142l1.346,1.341l-3.646,11.908l-3.537-11.908l1.348-1.341h-4.877L338.158,24l0.35,1.132l-3.302,10.744l-3.53-11.908l1.34-1.341
	h-4.872l1.402,1.371l4.846,15.844h0.854H335.264L335.264,39.841z M309.751,29.518l-0.653,0.632l0.071,0.243h2.014
	c-0.317,2.187-0.604,4.074-1.069,7.136c-0.652,4.53-1.209,6.134-1.671,6.521c-0.147,0.143-0.39,0.215-0.604,0.215
	c-0.293,0-0.752-0.215-1.073-0.362c-0.286-0.152-0.529,0.022-0.674,0.167c-0.195,0.218-0.409,0.556-0.409,0.826
	c0,0.48,0.629,0.728,1.041,0.728c0.458,0,1.625-0.383,2.669-1.669c0.823-1.014,1.934-3.373,2.879-8.852
	c0.173-1.016,0.367-2.034,0.782-4.702l2.471-0.245l0.531-0.628h-2.858c0.725-4.492,1.329-5.849,2.376-5.849
	c0.728,0,1.328,0.289,1.867,0.802c0.172,0.169,0.437,0.169,0.677-0.025c0.192-0.167,0.486-0.557,0.486-0.894
	c0.024-0.487-0.634-1.019-1.46-1.019c-1.407,0-2.881,0.825-3.898,2.034c-0.946,1.143-1.573,2.981-1.917,4.954h-1.572h-0.012
	L309.751,29.518z M298.844,35.874c0-3.584,1.815-5.528,2.57-5.845c0.215-0.097,0.558-0.193,0.798-0.193
	c1.212,0,1.917,0.912,1.917,2.782c0.049,3.153-1.601,6.017-2.616,6.353c-0.196,0.066-0.509,0.168-0.75,0.168
	c-1.368,0-1.922-1.443-1.922-3.27 M302.985,28.939c-0.629,0-1.625,0.289-2.616,0.869c-1.678,0.997-3.497,3.25-3.497,6.646
	c0,1.701,0.799,3.589,3.056,3.589c1.068,0,2.593-0.706,3.617-1.625c1.6-1.452,2.539-3.952,2.539-6.117
	c0.011-2.006-1.057-3.362-3.096-3.362 M274.888,24.002l4.352,7.848v6.628l-1.372,1.366h4.639l-1.371-1.366V31.85l4.434-7.82
	l1.43-1.399h-4.258l1.345,1.342l-3.62,6.445l-3.447-6.445l1.344-1.342h-4.873l1.398,1.365V24.002L274.888,24.002z M265.818,38.478
	V23.909h3.269l1.838,1.844v-3.122h-12.114v3.116l1.868-1.841h3.237v14.568l-1.341,1.369h4.609l-1.355-1.38L265.818,38.478z
	 M250.199,22.623l1.371,1.37v14.479l-1.371,1.365h4.642l-1.37-1.365V23.996l1.37-1.37h-4.635L250.199,22.623L250.199,22.623z
	 M245.207,35.058c0-1.693-0.792-2.747-1.604-3.303l-3.507-2.541c-1.255-0.905-1.896-2.069-1.896-2.95
	c0-1.805,1.549-2.451,2.481-2.451c0.498,0,0.846,0.199,1.111,0.199l1.516,1.639l1.603-2.394l-3.41-0.645
	c-0.236-0.06-0.377-0.088-0.814-0.088c-3.01,0-4.381,2.563-4.381,4.239c0,1.31,0.668,2.797,2.221,3.937l3.528,2.541
	c0.964,0.671,1.227,1.667,1.227,2.513c0,1.459-0.906,3.048-2.86,3.048c-0.465,0-0.874-0.091-1.193-0.245l-1.638-1.925l-1.49,2.693
	l3.299,0.643c0,0,0.554,0.111,1.019,0.111c2.076,0.012,4.789-1.741,4.789-5.009 M223.083,23.919h2.102
	c1.837,0,3.298,1.576,3.298,3.448c0,1.778-1.491,3.182-3.298,3.182h-2.102v-6.634V23.919z M223.083,38.49v-6.654h2.601l4.168,8.025
	h2.86l-1.343-1.36l-3.85-7.062c1.925-0.585,3.236-2.393,3.236-4.029c0-2.914-2.713-4.752-5.575-4.752h-5.338l1.341,1.37v14.476
	l-1.341,1.358h4.606L223.083,38.49L223.083,38.49z M215.349,39.85v-3.148l-1.843,1.865h-5.221V31.33h3.881l1.373,1.365V28.68
	l-1.373,1.372h-3.881v-6.131h5.224l1.841,1.846v-3.122h-10.304l1.342,1.366v14.485l-1.342,1.361h10.302V39.85L215.349,39.85z
	 M193.021,22.637h-4.875l1.403,1.37l4.842,15.842h0.876l4.99-15.842l1.399-1.37h-4.145l1.347,1.341l-3.65,11.908l-3.526-11.908
	l1.342-1.336v-0.005H193.021L193.021,22.637z M179.653,22.637l1.374,1.37v14.477l-1.374,1.366h4.642l-1.372-1.366V24.007l1.372-1.37
	H179.653z M163.63,38.376V25.472l9.239,14.392h0.593V24.127l1.492-1.486h-4.495l1.49,1.486v10.948l-7.762-12.43h-3.562l1.459,1.486
	v14.247l-1.459,1.491h4.493L163.63,38.376L163.63,38.376z M144.249,35.255c0,2.826,2.396,4.989,5.344,4.989
	c2.799,0,5.573-2.072,5.573-4.989V24.13l1.461-1.486h-4.497l1.489,1.486v11.125c0,1.981-1.573,3.555-3.562,3.555
	c-2.011,0-3.793-1.546-3.793-3.555V24.13l1.494-1.486h-4.994l1.487,1.486l-0.001,11.121V35.255z"/>
<path fill="#FFFFFF" d="M78.81,0.003v13.02h9.151l-10.213,38.04c0,0-12.511-50.354-12.683-51.062h-13.23
	c-0.184,0.69-13.727,51.062-13.727,51.062l-9.406-38.039h9.531V0.003H0v13.021h8.473c0,0,14.611,58.483,14.795,59.191H43.79
	c0.183-0.694,9.794-37.244,9.794-37.244c6.098,24.381,5.795,22.837,9.31,37.246h20.534c0.176-0.696,15.565-59.193,15.565-59.193
	h8.404V0.003H78.815H78.81L78.81,0.003z"/>
<path fill="#B7A57A" d="M1009.587,38.337V25.433l8.958,14.393h0.876V24.091l1.49-1.486h-4.498l1.491,1.486v10.948l-7.758-12.432
	h-3.568l1.46,1.485V38.34l-1.46,1.49h4.501L1009.587,38.337L1009.587,38.337z M996.284,38.882c-3.448,0-4.634-4.116-4.634-7.678
	c0-3.562,1.192-7.681,4.634-7.681c3.475,0,4.678,4.119,4.678,7.681c0,3.57-1.196,7.68-4.677,7.68 M989.396,31.215
	c0,4.381,2.482,8.988,6.884,8.988c4.437,0,6.921-4.609,6.921-8.988c0-4.378-2.472-8.989-6.921-8.989
	c-4.399,0-6.888,4.605-6.888,8.987 M981.613,38.454V23.885h3.266l1.84,1.844v-3.124h-12.112v3.118l1.867-1.841h3.241v14.567
	l-1.346,1.37h4.61l-1.366-1.379V38.454L981.613,38.454z M968.854,31.99v5.544c-0.407,0.413-1.225,1.223-2.827,1.223
	c-3.829,0-5.745-3.848-5.745-7.556c0-3.735,2.419-7.557,5.745-7.557c0.872,0,1.518,0.201,2.101,0.819l1.898,1.863v-2.975
	c-1.022-0.521-2.046-0.993-3.999-0.993c-4.697,0-7.997,4.205-7.997,8.845c0,4.552,3.298,8.84,7.997,8.84
	c2.66,0,3.795-0.643,4.729-1.266v-6.79l1.342-1.367h-4.611l1.356,1.358L968.854,31.99z M943.322,38.337V25.433l9.06,14.401
	l0.776-0.008V24.091l1.488-1.486h-4.496l1.491,1.486v10.948l-7.763-12.432h-3.562l1.463,1.485V38.34l-1.463,1.49h4.504
	L943.322,38.337L943.322,38.337z M930.982,22.598l1.367,1.37v14.479l-1.367,1.364h4.633l-1.366-1.364V23.968l1.366-1.37H930.982
	L930.982,22.598z M915.682,31.179h7.241v7.274l-1.371,1.366h4.638l-1.373-1.366V23.979l1.373-1.373h-4.638l1.371,1.373v5.919h-7.241
	v-5.919l1.376-1.373h-4.613l1.344,1.373v14.475l-1.344,1.367h4.613l-1.376-1.367V31.179L915.682,31.179z M907.928,35.036
	c0-1.694-0.789-2.747-1.606-3.304l-3.504-2.541c-1.255-0.903-1.897-2.067-1.897-2.949c0-1.805,1.547-2.453,2.484-2.453
	c0.488,0,0.84,0.201,1.105,0.201l1.512,1.638l1.607-2.393l-3.415-0.645c-0.229-0.056-0.377-0.088-0.81-0.088
	c-3.013,0-4.383,2.567-4.383,4.235c0,1.311,0.665,2.798,2.213,3.933l3.533,2.542c0.959,0.673,1.222,1.666,1.222,2.511
	c0,1.465-0.903,3.05-2.854,3.05c-0.468,0-0.88-0.089-1.2-0.244l-1.634-1.921l-1.491,2.684l3.297,0.643c0,0,0.556,0.112,1.022,0.112
	c2.063,0.031,4.777-1.719,4.777-4.991 M888.633,26.451L891,33.572h-4.818l2.457-7.126L888.633,26.451z M884.488,38.504l1.253-3.646
	h5.696l1.193,3.646l-1.341,1.348h4.876l-1.374-1.402l-5.366-15.817h-0.876l-5.46,15.817l-1.402,1.402h4.144l-1.323-1.348H884.488z
	 M866.175,39.841l3.942-12.461l3.819,12.461h0.875l4.992-15.842l1.4-1.372h-4.142l1.344,1.341l-3.645,11.908l-3.537-11.908
	l1.348-1.341h-4.878l1.376,1.372l0.349,1.132l-3.302,10.744l-3.53-11.908l1.343-1.341h-4.874l1.401,1.371l4.846,15.844h0.854
	H866.175L866.175,39.841z M840.665,29.517l-0.655,0.632l0.071,0.243h2.015c-0.318,2.187-0.604,4.074-1.07,7.136
	c-0.651,4.53-1.209,6.134-1.672,6.521c-0.147,0.143-0.39,0.216-0.603,0.216c-0.292,0-0.752-0.216-1.073-0.362
	c-0.284-0.152-0.529,0.022-0.674,0.167c-0.197,0.217-0.41,0.556-0.41,0.825c0,0.481,0.631,0.729,1.042,0.729
	c0.458,0,1.624-0.383,2.668-1.67c0.823-1.014,1.935-3.373,2.88-8.852c0.174-1.016,0.368-2.033,0.782-4.701l2.47-0.245l0.532-0.628
	h-2.858c0.724-4.492,1.33-5.849,2.375-5.849c0.73,0,1.329,0.289,1.867,0.802c0.172,0.169,0.438,0.169,0.677-0.025
	c0.194-0.167,0.487-0.557,0.487-0.894c0.025-0.486-0.634-1.019-1.46-1.019c-1.407,0-2.88,0.825-3.899,2.033
	c-0.945,1.144-1.573,2.981-1.915,4.955h-1.574h-0.012L840.665,29.517z M829.757,35.874c0-3.585,1.813-5.528,2.57-5.845
	c0.215-0.097,0.557-0.192,0.797-0.192c1.213,0,1.916,0.912,1.916,2.782c0.05,3.153-1.601,6.017-2.615,6.353
	c-0.195,0.067-0.51,0.168-0.75,0.168c-1.368,0-1.923-1.443-1.923-3.271 M833.896,28.939c-0.628,0-1.622,0.289-2.615,0.869
	c-1.679,0.997-3.497,3.25-3.497,6.645c0,1.702,0.8,3.59,3.056,3.59c1.069,0,2.596-0.706,3.617-1.625
	c1.6-1.452,2.54-3.952,2.54-6.117c0.011-2.006-1.058-3.362-3.097-3.362 M805.8,24.001l4.351,7.849v6.627l-1.371,1.366h4.64
	l-1.372-1.366V31.85l4.434-7.821l1.432-1.399h-4.261l1.345,1.342l-3.619,6.445l-3.448-6.445l1.346-1.342h-4.873l1.398,1.365V24.001
	L805.8,24.001z M796.73,38.477V23.909H800l1.839,1.844v-3.122h-12.115v3.116l1.867-1.841h3.239v14.569l-1.343,1.369h4.609
	l-1.355-1.38L796.73,38.477z M781.11,22.622l1.371,1.37v14.479l-1.371,1.365h4.643l-1.371-1.365V23.995l1.371-1.371h-4.636
	L781.11,22.622L781.11,22.622z M776.119,35.058c0-1.694-0.793-2.748-1.605-3.303l-3.505-2.541c-1.255-0.905-1.897-2.07-1.897-2.95
	c0-1.804,1.55-2.451,2.482-2.451c0.497,0,0.845,0.2,1.11,0.2l1.516,1.639l1.603-2.394l-3.408-0.645
	c-0.238-0.06-0.38-0.088-0.815-0.088c-3.013,0-4.381,2.563-4.381,4.239c0,1.31,0.669,2.797,2.219,3.936l3.53,2.542
	c0.964,0.671,1.227,1.667,1.227,2.513c0,1.459-0.905,3.048-2.86,3.048c-0.465,0-0.874-0.091-1.192-0.245l-1.639-1.925l-1.491,2.693
	l3.301,0.643c0,0,0.555,0.111,1.02,0.111c2.074,0.012,4.788-1.741,4.788-5.009 M753.995,23.919h2.102
	c1.838,0,3.298,1.576,3.298,3.448c0,1.778-1.49,3.182-3.298,3.182h-2.102v-6.634V23.919z M753.995,38.49v-6.654h2.602l4.17,8.025
	h2.859l-1.344-1.36l-3.849-7.062c1.926-0.585,3.235-2.393,3.235-4.028c0-2.915-2.712-4.753-5.574-4.753h-5.34l1.342,1.37v14.476
	l-1.342,1.358h4.606L753.995,38.49L753.995,38.49z M746.261,39.849v-3.148l-1.843,1.865h-5.222V31.33h3.882l1.373,1.365V28.68
	l-1.373,1.372h-3.882V23.92h5.224l1.842,1.846v-3.122h-10.303l1.342,1.366v14.485l-1.342,1.361h10.302V39.849L746.261,39.849z
	 M723.934,22.637h-4.876l1.404,1.37l4.842,15.842h0.876l4.989-15.842l1.4-1.37h-4.146l1.348,1.341l-3.65,11.908l-3.526-11.908
	l1.341-1.336v-0.005H723.934L723.934,22.637z M710.566,22.637l1.374,1.37v14.477l-1.374,1.366h4.641l-1.371-1.366V24.007l1.371-1.37
	H710.566z M694.542,38.375V25.472l9.24,14.391h0.592V24.126l1.492-1.486h-4.496l1.491,1.486v10.948l-7.762-12.43h-3.562l1.46,1.486
	v14.247l-1.46,1.491h4.493L694.542,38.375L694.542,38.375z M675.16,35.255c0,2.826,2.397,4.989,5.345,4.989
	c2.8,0,5.573-2.072,5.573-4.989V24.13l1.461-1.486h-4.496l1.487,1.486v11.125c0,1.981-1.573,3.554-3.561,3.554
	c-2.013,0-3.795-1.546-3.795-3.554V24.13l1.495-1.486h-4.994l1.486,1.486L675.16,35.25V35.255z"/>
<path fill="#B7A57A" d="M609.722,0.002v13.021h9.151L608.66,51.062c0,0-12.511-50.354-12.683-51.062h-13.23
	c-0.184,0.69-13.727,51.062-13.727,51.062l-9.405-38.039h9.53V0.002h-38.234v13.021h8.474c0,0,14.612,58.483,14.797,59.191h20.521
	c0.182-0.694,9.794-37.243,9.794-37.243c6.098,24.381,5.795,22.837,9.31,37.246h20.534c0.176-0.696,15.564-59.193,15.564-59.193
	h8.403V0.002h-28.581H609.722L609.722,0.002z"/>
<path fill="#FFFFFF" d="M44.029,87.188v7.274h5.112l-5.706,21.252c0,0-6.99-28.131-7.085-28.527h-7.392
	c-0.103,0.385-7.669,28.527-7.669,28.527l-5.254-21.251h5.324v-7.275H0v7.275h4.734c0,0,8.163,32.673,8.266,33.068h11.465
	c0.102-0.388,5.472-20.807,5.472-20.807c3.407,13.621,3.237,12.758,5.201,20.808h11.472c0.099-0.389,8.696-33.07,8.696-33.07H60
	v-7.275H44.032H44.029L44.029,87.188z"/>
</svg>
