<?xml version="1.0" encoding="utf-8"?>
<!-- Generator: Adobe Illustrator 16.0.0, SVG Export Plug-In . SVG Version: 6.00 Build 0)  -->
<!DOCTYPE svg PUBLIC "-//W3C//DTD SVG 1.1//EN" "http://www.w3.org/Graphics/SVG/1.1/DTD/svg11.dtd">
<svg version="1.1" id="Layer_1" xmlns="http://www.w3.org/2000/svg" xmlns:xlink="http://www.w3.org/1999/xlink" x="0px" y="0px"
	 width="740px" height="500px" viewBox="0 0 740 500" enable-background="new 0 0 740 500" xml:space="preserve">
<path fill="#DEC9A4" d="M687.579,72.661c-4.868,0-6.347-7.29-11.61-7.29h-15.881h-22.005c-3.511,0-7.646,0.614-11.117,0
	c-5.381,0-7.064-8.827-12.69-8.82c-6.143,0.007-12.284,0.014-18.427,0.022c-3.959,0.004-9.695,1.191-12.793-1.821
	c-2.24-2.18-4.481-4.36-6.724-6.54c-1.659-1.614-3.896-4.706-6.483-4.706c-5.005-0.83-27.386-1.537-30.179,1.256
	c-7.667,7.666-15.333,15.332-22.999,22.999c-2.996,2.995-12,1.255-15.712,1.255h-7.29c-2.587,0-4.35,2.504-6.005,4.159
	c-1.742,1.742-3.487,4.109-5.515,5.516c-1.745,1.743-5.152,1.162-7.361,1.162h-10.526c-2.209,0-5.615-0.58-7.36,1.163
	c-4.704,3.171-5.786,7.9-12.039,7.9h-9.393c-3.083,0-4.785-2.444-6.794-4.452c-0.887-0.888-2.82-2.331-1.413-3.739
	c0.586-1.155,2.502-2.047,3.69-2.047c0.857-0.166,5.319,0.693,4.345-1.41c-0.579-1.251-2.165-2.371-3.107-3.302
	c-1.88-1.855-3.54-4.182-6.42-4.182c-2.627,0-7.442,0.926-9.532-1.163c-2.095-1.485-2.935-3.921-5.9-3.921h-9.756
	c-4.648,0-6.776,3.263-9.873,6.36c-4.983,4.984-9.967,9.967-14.95,14.949c-3.511,3.511-5.326,5.125-5.326,10.315v8.434
	c0,1.933,3.151,6.265,5.355,6.265c0.994,0.266,2.199-0.261,3.196,0c1.774,0,2.34,2.301,4.206,2.301
	c2.267,0.502,6.606,0.366,8.318-1.345c2.053-2.052,3.45-3.481,3.45-6.501c0-2.722-0.508-5.962,0-8.635
	c0-2.748,3.554-5.198,5.274-6.919c2.14-2.14,4.245-4.831,7.688-3.822c9.557,2.799-3.132,8.83-3.132,13.174
	c0,4.159,1.751,12.682-1.48,15.914c-1.735,1.734-3.438,4.021-5.437,5.435c-1.832,1.83-5.627,1.163-7.934,1.163
	c-4.563,0-10.704-1.347-14.196,2.146c-4.687,4.685-9.371,9.37-14.056,14.055c-1.117,1.117-2.618,2.234-3.531,3.531
	c-2.246,2.246-0.641,5.973-1.163,8.685c0,8.562-11.316,2.255-14.576,5.515c-2.286,1.31-2.506,3.363-2.506,5.67
	c0,1.285-0.806,7.587,0.256,8.419c1.934,1.513,2.692,3.342,5.353,3.342c2.557,0,6.146,0.813,8.104-1.154
	c0.849-0.854,2.235-1.812,2.711-2.965c0.58-1.402-0.378-3.087,0.826-4.291c2.08-2.079,4.159-4.158,6.239-6.238
	c2.354-2.355,5.309-0.586,7.935-2.022c2.356-1.289,3.476-4.805,6.225-2.055c2.261,2.261,4.521,4.521,6.781,6.782
	c0.471,0.47,1.428,2.126,2.302,5.727c0.244,0-0.363,4.488,0.193,4.719c0.617,0.256,3.132-2.89,3.523-3.281
	c1.126-1.126,0.854-3.838,1.572-4.411c0.435-0.346,2.271,0.335,2.271-1.291c0-0.414-1.957-2.324-1.949-2.332
	c0.058-0.059-5.126-5.168-5.401-5.443c-1.336-1.336-5.417-4.07-3.314-6.172c2.89-2.891,4.059-1.142,6.429,1.229
	c2.152,2.152,4.304,4.303,6.454,6.454c2.093,2.093,1.608,4.909,1.608,7.632c0,1.112,3.368,7.164,4.927,5.605
	c2.592-0.736,1.077-5.132,3.846-6.279c1.847-0.764,5.612-1.064,5.612-4.118c0.273-1.047-0.263-2.223,0.17-3.271
	c0.426-1.027,1.646-1.885,2.398-2.638c1.168-1.167,4.062-5.353,5.674-5.674c1.084-1.084,4.807,4.4,7.48,1.727
	c2.467-1.419,2.568-3.459,5.748-3.459c3.332,0,4.197,1.115,6.507,3.424c1.664,1.665,4.056,3.177,4.056,5.708
	c0,2.312-0.075,6.98-3.623,6.98c-2.294,0.621-5.555,0-7.94,0c-2.682,0-3.365-3.645-5.94-3.645c-2.182,0-4.445-0.492-6.094,1.156
	c-2.306,2.306-4.61,4.611-6.916,6.916c-1.301,1.301-1.346,4.712-0.035,6.022c2.344,2.345,4.55,1.827,7.747,1.827
	c7.618,0,7.84,6.484,7.84,12.398c0,3.082-12.833,2.471-15.12,1.22c-2.57-1.406-3.261-3.644-6.618-3.644
	c-2.646,0-6.811-0.796-8.895,1.287c-1.732,1.732-3.741,4.659-6.455,4.659c-2.57,0-7.113,0.873-9.149-1.162
	c-2.025-1.429-3.75-3.75-5.504-5.505c-2.491-2.49-0.469-6.063-2.955-8.551c-1.971-1.971-4.831-1.469-7.371-1.469
	c-2.581,0-6.481-0.73-8.867,0.576c-2.33,1.273-3.536,4.146-5.867,5.417c-2.454,1.336-6.438,0.55-9.109,0.538
	c-4.402-0.019-10.185,6.985-10.185,11.078c0,6.232-4.16,8.801-8.374,13.016c-2.918,2.918-9.02,6.933-9.02,11.506v17.383
	c0,4.107,6.929,8.794,9.465,11.33c2.34,2.341,4.68,4.68,7.02,7.02c1.445,1.445,3.099,3.721,5.365,3.721
	c4.204,0.766,11.785,1.023,14.942-2.134c2.141-2.142,3.594-3.94,6.817-3.94c2.816,0,6.463-0.712,8.633,1.503
	c3.634,3.709,6.639,5.909,6.639,11.227v20.19c0,3.286-1.545,11.523,1.163,14.232c1.344,1.952,3.847,3.117,5.002,5.228
	c0.918,1.678,0.576,3.967,0.576,5.799v20.642c0,5.19,0.433,7.221,4.194,10.982c3.192,3.193,7.002,9.095,11.931,9.095h18.388
	c4.671,0,8.87-6.446,11.886-9.462c1.677-1.676,1.401-3.812,1.401-5.963v-10.746c0-5.323,5.756-8.986,9.244-12.473
	c1.5-1.5,3.738-3.115,3.738-5.465v-9.177c0-2.45,0.269-4.617-1.624-6.51c-2.257-2.256-4.354-3.819-4.354-7.227
	c0-2.469-0.556-5.554,1.368-7.478c2.305-2.306,4.61-4.61,6.915-6.915c1.779-1.78,3.643-4.458,6.416-4.458
	c3.155,0,5.662-3.703,7.668-5.71c2.1-2.101,4.416-3.735,4.416-6.946c0-1.171,0.874-9.026-0.341-9.53
	c-1.131-0.469-5.416,4.935-6.145,5.663c-2.274,2.275-4.892,1.874-7.886,1.874c-4.869,0-9.947-7.671-13.047-10.77
	c-1.473-1.474-3.538-2.985-3.538-5.29v-8.973c0-4.628-7.63-9.682-10.594-12.646c-1.843-1.843-1.63-3.948-1.637-6.348
	c-0.008-2.586-0.921-7.383,1.128-9.471c2.135-2.822,5.113-1.479,6.042,1.686c0.812,2.775,0.174,6.419,0.18,9.273
	c0.015,5.69,5.729,7.576,8.629,11.798c3.928,3.926-1.411,11.825,2.66,15.896c1.74,1.74,3.542,4.307,5.728,5.502
	c2.057,1.124,6.591,1.066,8.806,0.417c1.858-0.543,3.258-2.443,4.568-3.753c2.633-2.633,5.265-5.265,7.897-7.898
	c3.66-3.66,8.398-6.727,7.331-12.576c0-7.369-10.087-4.442-13.506-7.862c-2.223-2.221-4.443-4.443-6.665-6.665
	c-0.818-0.818-2.1-1.977-0.875-3.201c0.543-1.223,3.011-3.101,4.22-1.894c1.907,0.817,3.959,3.959,5.445,5.445
	c1.991,1.992,5.973,1.256,8.494,1.256c2.529,0,5.747-0.584,7.719,1.387c2.373,2.373,4.301,2.378,7.453,2.378h8.656
	c2.773,0,5.077,3.345,6.828,5.096c1.659,1.659,3.859,3.232,3.859,5.814v9.835c0,2.195-0.335,4.502,1.375,6.211
	c2.241,2.242,4.481,4.483,6.723,6.725c1.995,1.995,3.188,3.502,5.631,1.057c2.602-2.6,2.288-5.073,2.288-8.544
	c0-5.303,6.773-9.687,10.202-13.116c1.438-1.438,2.948-3.551,4.774-4.549c2.159-1.18,7.737-1.225,9.551,0.587
	c2.083,1.424,3.876,3.877,5.659,5.659c0.619,0.62,1.254,1.484,1.98,1.981c1.542,1.543,3.117,0.763,4.897,1.163
	c2.347,0,4.125,2.481,5.618,3.974c2.64,2.64,5.28,5.28,7.921,7.92c1.727,1.726,3.084,3.807,5.394,1.498
	c2.046-2.046,3.16-6.763,0.785-9.138c-1.247-1.764-5.423-3.679-2.989-6.113c1.823-1.823,4.215-5.344,7.093-5.344
	c4.899,0,9.751,1.064,13.419-2.603c4.537-4.539,9.076-9.077,13.615-13.615c2.657-2.657,4.008-10.884,1.036-13.854
	c-4.017-4.018-8.035-8.036-12.052-12.054c-2.625-2.624,7.689-12.208,9.577-10.322c1.786,0.819,3.696,3.697,5.069,5.071
	c1.237,1.236,4.182,5.553,6.235,5.553c1.927,0,5.679-4.38,4.076-5.982c-2.111-2.112-4.497-3.656-1.868-6.285
	c1.774-1.775,3.564-4.241,5.645-5.645c2.464-2.462,6.338-0.008,8.877-2.547c2.927-2.927,9.644-7.339,9.644-11.886v-9.142
	c0-2.332,0.693-6.243-1.162-8.097c-1.597-2.257-4.543-3.316-4.543-6.489c0-3.721,0.983-5.224,3.529-7.771
	c1.683-1.682,3.846-4.811,6.51-4.811h7.79c4.888,0,12.434,1.626,16.2-2.142c2.276-2.275,3.762-3.277,7.05-3.277
	c3.824,0,4.619,0.475,4.619,4.345c0,2.776,0.218,4.977-1.885,7.081c-1.827,1.826-5.788,4.524-5.788,7.432
	c-0.898,4.8,0,10.544,0,15.441c0,1.952,3.023,6.359,5.201,4.181c2.286-2.287,4.574-4.574,6.861-6.861
	c1.572-1.573,4.433-3.589,4.433-6.077c0.352-2.105,0-4.57,0-6.697v-10.25c0-2.228-0.406-4.786,1.331-6.524
	c2.134-2.133,3.589-3.272,6.686-3.272c2.567,0,6.896,0.818,8.93-1.218c2.762-2.761,10.291-7.776,10.291-12.086
	c0-1.062,0-6.962-0.126-7.864c-0.053-0.386-5.891-4.918-6.853-4.918h-17.194H687.579z"/>
<path fill="#DEC9A4" d="M184.84,100.313c0.749-0.75,5.644-4.586,4.533-5.696c-0.172-0.86-4.8-5.429-5.696-4.534
	c-0.859,0.172-5.429,4.801-4.534,5.696C179.316,96.639,183.945,101.208,184.84,100.313"/>
<path fill="#DEC9A4" d="M190.888,48.577c1.452-1.452,3.424-2.889,4.58-4.58c1.861-1.861,1.162-5.611,1.162-7.967
	c0-2.669,2.713-4.539,4.419-6.245c2.091-2.091,4.652-0.859,7.172-1.309c2.651,0,4.862-3.218,6.536-4.892
	c1.726-1.726-0.575-1.595-1.852-1.595h-17.602c-3.544,0-7.913-0.887-10.633,1.833c-3.75,3.749-7.5,7.5-11.251,11.249
	c-4.253,4.253,0.186,9.863,3.226,12.903C179.259,50.588,188.005,51.46,190.888,48.577"/>
<path fill="#DEC9A4" d="M151.51,49.216c2.539-2.37,5.078-4.741,7.617-7.111c0.749-0.699,7.805-6.062,7.323-7.286
	c-0.482-1.22-9.215-0.329-10.282-0.329c-3.242,0-6.871-0.715-9.358,1.772c-1.696,1.696-8.151,6.144-5.584,8.711
	C143.678,47.425,147.655,52.815,151.51,49.216"/>
<path fill="#DEC9A4" d="M126.104,64.463c3.536,3.536,5.66,6.654,10.871,6.654h8.616c2.783,0,4.214-1.846,6.033-3.666
	c2.584-2.584-6.172-9.004-8.702-9.004c-3.806,0-12.507,1.732-15.501-1.261c-1.551-1.551-3.084-3.639-4.884-4.883
	c-1.687-1.687-4.795-1.163-6.935-1.163h-8.257c-2.735,0-4.487,2.52-6.246,4.277c-2.221,2.222,1.118,4.344,2.643,5.869
	c1.779,1.778,3.432,2.014,5.808,2.014h9.352C121.086,63.3,124.38,62.739,126.104,64.463"/>
<path fill="#DEC9A4" d="M170.442,49.757c-0.598-0.598-3.007-3.887-4.028-2.865c-0.718,0.184-3.717,3.176-2.865,4.028
	c0.184,0.718,3.176,3.717,4.028,2.865C168.295,53.601,171.294,50.609,170.442,49.757"/>
<path fill="#DEC9A4" d="M153.346,58.721c0.749,0.749,4.586,5.644,5.697,4.534c0.859-0.172,5.428-4.801,4.533-5.697
	c-0.172-0.859-4.801-5.429-5.696-4.534C157.02,53.197,152.451,57.826,153.346,58.721"/>
<path fill="#DEC9A4" d="M223.088,75.622c-3.714-3.714-7.427-7.427-11.141-11.141c-2.481-2.48-6.985-9.131-11.003-9.131h-17.131
	c-2.852,0-11.753,7.222-9.101,9.874c1.905,1.906,3.811,3.811,5.717,5.717c1.962,1.963,5.898,1.24,8.378,1.24
	c2.374,0,6.409-0.729,8.301,1.163c2.637,1.83,3.226,4.248,3.226,7.222c0,2.55-0.75,5.503,1.163,7.415
	c1.671,2.071,3.871,3.871,5.75,5.751c3.786,3.786,8.458,8.786,14.478,5.494c4.752-2.599,2.537-8.619-0.324-11.481
	c-1.444-1.443-1.781-4.137-1.211-6.086C220.667,80.031,224.822,77.355,223.088,75.622"/>
<path fill="#DEC9A4" d="M317.076,53.468c1.951-1.951,3.586-3.789,3.079-6.784c0-1.978-1.436-2.578-2.338-3.982
	c-1.436-1.436-1.162-3.568-1.162-5.403c0-5.571,8.516-7.734,9.983-12.743c0.786-2.684-0.126-4.451-2.814-4.451h-10.29
	c-1.994,0-4.34,0.348-6.311,0c-2.972,0-5.846-4.065-7.639-5.994c-2.774-2.984-10.647-1.918-15.053-1.918
	c-3.884,0-13.621-0.448-15.497,1.443c-3.748,3.778-6.16,7.404-11.702,7.404h-18.73c-4.658,0-9.015,6.652-12.007,9.644
	c-1.952,1.952-3.879,1.972-6.501,1.972c-3.477,0-4.962,1.255-7.345,3.638c-1.859,1.859,2.384,5.509,4.006,6.396
	c2.283,1.249,5.963,0.576,8.426,0.576c6.279,0,10.146-0.481,14.846,4.219c3.449,3.449,8.124,6.862,10.874,10.874
	c1.752,1.753,1.162,5.172,1.162,7.388v9.612c0,2.92,2.447,3.777,3.908,5.837c2.091,2.091,1.163,6.952,1.163,9.574
	c0,5.097,6.833,9.535,10.13,12.832c2.318,2.318,6.51,3.413,9.606,1.72c4.163-2.277,3.704-6.413,3.704-10.454
	c0-3.451,2.185-5.02,4.45-7.285c2.926-2.925,5.852-5.851,8.777-8.777c2.421-2.42,5.775-1.779,8.94-1.779
	c4.191,0,5.991-0.564,8.987-3.56c2.84-2.84,4.185-4.428,4.185-8.513C315.913,62.028,314.721,55.823,317.076,53.468"/>
<path fill="#DEC9A4" d="M348.562,120.607c1.94,1.94,3.336,4.545,2.137,7.44c-0.271,0.656-6.442,6.12-3.807,7.212
	c0.741,0.307,2.741-2.946,4.009-2.946c1.798-0.528,4.034,0.57,5.82-0.17c3.733-1.546,4.444-5.851,1.741-8.452
	c-1.661-1.599-3.323-3.198-4.985-4.797c-2.503-2.409,1.153-2.931,1.153-4.9c0-2.16-3.288-1.603-4.279-2.594
	c-1.181-0.86-1.249-4.481-1.686-4.663c-0.439-0.182-2.229,1.849-2.41,2.169c-0.81,0.81-0.866,3.346-0.582,4.357
	c0,1.48,1.634,1.983,2.137,3.2C348.354,117.775,347.438,119.483,348.562,120.607"/>
<path fill="#DEC9A4" d="M378.891,164.244c-0.551-0.551-2.451-3.216-3.414-2.252c-0.684,0.185-3.05,2.617-2.252,3.415
	c0.186,0.684,2.616,3.05,3.415,2.252C377.324,167.474,379.688,165.042,378.891,164.244"/>
<path fill="#DEC9A4" d="M644.595,169.914c-1.236,1.236-2.98,3.902-4.926,3.902c-2.026,0-4.782-0.636-6.242,1.063
	c-1.213,1.41-10.638,10.538-10.006,11.918c0.339,0.739,5.129,0.182,5.911,0.182c1.634,0,3.007-2.026,4.031-3.052
	c1.775-1.775,3.551-3.55,5.325-5.325c1.574-1.574,3.691-0.329,5.57-0.829c1.827,0,3.873-3.052,5-4.178
	c1.48-1.482,1.384-2.69,1.384-4.703c0-1.57,0.705-5.184-0.581-6.47c-0.322-0.598-4.136-4.714-4.715-4.474
	C643.465,158.728,646.54,167.968,644.595,169.914"/>
<path fill="#DEC9A4" d="M656.097,152.377c-0.628-0.628-3.324-4.25-4.368-3.207c-0.761,0.194-4.299,3.694-3.415,4.578
	c0.21,0.748,3.494,4.081,4.368,3.207C653.442,156.761,656.98,153.26,656.097,152.377"/>
<path fill="#DEC9A4" d="M569.373,259.185c-2.687-2.74-5.373-5.481-8.059-8.221c-0.712-0.726-6.854-8.156-7.838-7.754
	c-1.229,0.501-0.175,7.734,0.845,8.724c3.044,2.958,6.089,5.915,9.133,8.873c2.697,2.62,0.746,5.074,1.699,8.308
	c0,1.441,6.568,8.335,7.407,7.987c1.069-0.442,0.276-7.73-0.664-8.67c-1.368-1.368-1.947-2.139-1.947-4.083
	C569.949,262.984,570.468,260.3,569.373,259.185"/>
<path fill="#DEC9A4" d="M568.837,248.268c0.637,0.637,3.422,4.365,4.476,3.312c0.755-0.201,4.191-3.596,3.312-4.475
	c-0.202-0.755-3.597-4.191-4.476-3.313C571.396,243.994,567.959,247.39,568.837,248.268"/>
<path fill="#DEC9A4" d="M450.641,319.514c-1.334,1.335-0.581,5.104-0.581,6.761c0,2.232,2.187,3.631,3.645,5.089
	c2.775,2.775,10.117-1.21,10.117-4.803c1-3.695,0-9.031,0-12.838c0-1.253,1.062-12.184-0.335-12.749
	c-1.129-0.457-7.86,7.129-8.393,8.446c-0.719,1.776,0.396,3.968-0.338,5.737C454.065,316.825,451.89,318.266,450.641,319.514"/>
<path fill="#DEC9A4" d="M607.655,281.015c1.118-1.117,5.301-3.996,5.301-5.64c0-1.15-5.258-6.277-6.179-5.356
	c-0.884,0.187-5.299,4.609-5.299,5.64C601.479,276.809,606.734,281.936,607.655,281.015"/>
<path fill="#DEC9A4" d="M635.245,274.274c3.58,0,3.879,4.677,3.879,7.078c0,3.498-0.456,6.897,3.164,8.914
	c2.429,2.429,6.854-0.028,8.631-1.806c1.083-1.083,3.192-1.967,4.527-0.632c0.612,0.349,2.584,3.365,3.307,3.066
	c0.688-0.286,0.17-5.118,0.17-5.852c0-1.725-2.281-3.26-3.357-4.337c-1.318-1.318-2.921-3.724-4.703-4.462
	c-1.786-0.74-4.371,0.699-5.857-0.853c-2.574-2.69-4.798-6.582-8.755-6.582c-1.56,0-13.163-1.112-13.737,0.33
	c-0.416,1.047,4.607,5.136,5.771,5.136C630.304,274.815,633.14,274.274,635.245,274.274"/>
<path fill="#DEC9A4" d="M652.917,378.859c0.629,0.628,3.324,4.25,4.368,3.206c0.761-0.193,4.298-3.694,3.415-4.577
	c-0.21-0.749-3.495-4.08-4.369-3.207C655.571,374.475,652.033,377.976,652.917,378.859"/>
<path fill="#DEC9A4" d="M712.479,367.077c0.628,0.628,3.325,4.25,4.369,3.206c0.76-0.193,4.298-3.694,3.415-4.577
	c-0.21-0.749-3.495-4.08-4.369-3.207C715.134,362.693,711.596,366.194,712.479,367.077"/>
<path fill="#DEC9A4" d="M695.165,385.055c0.629,0.628,3.325,4.249,4.369,3.205c1.021-0.225,2.805-2.805,3.521-3.521
	c0.951-0.951,9.757-8.517,8.556-9.718c-0.206-0.749-3.495-4.079-4.368-3.207c-1.021,0.226-2.805,2.806-3.521,3.521
	C702.771,376.287,693.964,383.854,695.165,385.055"/>
<path fill="#DEC9A4" d="M612.48,246.097c-0.883-0.883-4.384,2.654-4.578,3.415c-0.873,0.874,2.457,4.158,3.206,4.368
	c0.883,0.883,4.385-2.655,4.577-3.415C616.729,249.421,613.108,246.725,612.48,246.097"/>
<path fill="#DEC9A4" d="M598.581,290.38c-3.019-3.019-6.037-6.037-9.058-9.056c-0.586-0.587-2.002-2.668-3.007-2.668
	c-0.966,0-4.412,3.433-3.512,4.333c0.195,0.865,2.372,2.371,2.978,2.977c2.026,2.026,4.053,4.053,6.079,6.079
	c0.588,0.587,2.003,2.668,3.01,2.668C596.037,294.713,599.48,291.28,598.581,290.38"/>
<path fill="#DEC9A4" d="M596.233,243.688c0,3.182,0.27,4.924-2.011,7.202c-1.688,1.688-5.053,6.725-7.727,6.725
	c-1.245,0-3.982-0.56-5.065,0c-1.659,0-1.148,1.861-1.148,3.1c0,3.6,1.242,9.058,5.979,9.058c3.205,0,6.195,0.719,8.569-1.655
	c1.73-1.73,6.385-4.797,6.385-7.521v-11.384c0-1.277-4.488-6.82-4.944-6.383C596.235,243.116,596.223,243.402,596.233,243.688"/>
<path fill="#DEC9A4" d="M376.158,114.049c-0.531,0.531-2.942,2.225-2.003,3.165c0.148,0.669,2.399,2.769,3.166,2.003
	C381.888,118.205,377.417,112.79,376.158,114.049"/>
<path fill="#DEC9A4" d="M344.947,126.829c0-1.954,1.015-5.831-1.655-5.831c-2.381,0-6.833,1.21-6.833,4.454
	c-0.536,2.058-0.775,6.227,1.814,6.227C340.583,131.679,344.947,129.769,344.947,126.829"/>
<path fill="#DEC9A4" d="M651.611,307.824c-1.367-1.367-0.139-3.893-0.581-5.513c0-0.964-3.049-4.835-4.071-4.411
	c-1.089,0.451-0.341,6.917-0.341,7.791c0,2.38,0.635,5.424-1.777,6.918c-2.776,2.776-11.064-5.398-11.064-8.105
	c0-2.008-1.225-5.988-3.903-5.988c-2.879-0.738-4.866,2.334-6.595,4.063c-2.255,2.254-2.624,3.059-5.04,0.643
	c-2.462-2.462-4.065,0.802-6.04,2.777c-1.922,1.921-1.437,4.103-1.437,6.693c0,2.891-2.249,4.292-4.188,6.231
	c-3.518,3.517-9.98-0.929-13.357,2.448c-1.665,1.665-3.902,3.077-3.902,5.595c0,2.521-0.712,6.15,0,8.561
	c0,2.341,3.503,3.001,3.503,5.469v9.814c0,2.683,0.281,3.612,2.232,5.563c2.667,2.668,2.936-0.716,5.336-2.03
	c1.812-1.812,5.425,0.649,7.236-1.163c2.029-1.114,2.817-4.173,5.452-4.173c2.343,0,5.53-0.604,7.786,0
	c2.416,0,3.88,3.883,5.754,4.933c1.951,1.952,5.029,0.115,6.487-1.343c2.321-2.321,3.581-5.255,6.343-2.495
	c3.602,3.6-1.309,11.019,2.014,14.342c1.329,1.33,3.6,4.777,5.707,4.777h9.171c1.817,0,4.438-2.565,5.285-4.046
	c1.589-1.589,0.581-6.727,0.581-8.707c0-4.844,6.378-5.996,6.378-10.656v-12.859c0-2.817-3.896-5.343-5.687-7.133
	c-2.268-2.269-6.79-5.252-8.049-8.291c-0.654-1.577-0.171-3.981-0.171-5.647C654.674,310.209,652.675,308.888,651.611,307.824"/>
<path fill="#DEC9A4" d="M237.978,253.476c-5.316,0-6.946-8.506-12.591-8.506h-18.799c-0.74,0-1.485-0.05-2.21,0.155
	c-1.343,0.382-2.715,2.468-4.182,2.093c-1.441-0.369-2.936-2.538-3.918-3.491c-4.986-4.841-9.973-9.682-14.959-14.523
	c-1.208-1.173-2.416-2.346-3.624-3.519c-1.619-1.571-0.238-7.011-2.962-7.011c-4.516,0-13.923,1.484-13.923-5.615
	c0-5.267-1.688-12.853,3.909-15.914c2.021-1.105,5.099-0.576,7.288-0.576h9.469c3.86,0,9.696,11.266,12.648,4.616
	c1.887-1.887-3.516-5.841-4.595-6.92c-2.432-2.432-2.299-4.678-2.299-7.966c0-5.291,7.066-8.251,9.771-12.16
	c2.405-2.405,0.231-6.238,1.739-8.994c1.052-1.925,3.298-3.524,4.816-5.041c2.424-2.425,4.85-4.85,7.275-7.276
	c1.582-1.581,3.732-3.135,3.732-5.603c0-3.056-0.202-5.311,2.089-7.602c2.254-2.255,3.718-3.81,7.055-3.81
	c6.069,0,11.498,0.233,14.856-5.906c1.005-1.838,0.951-5.659,0.576-7.65c0-2.462-2.809-4.452-4.368-6.012
	c-2.402-2.402-4.805-4.805-7.207-7.207c-1.506-1.506-3.179-3.83-5.539-3.83h-15.933c-2.681,0-4.827,3.118-6.525,4.816
	c-2.143,2.143-1.979,4.246-1.979,7.068v8.693c0,1.765-3.763,7.418-5.937,5.346c-1.023-0.441-2.154-2.053-2.945-2.807
	c-2.494-2.377-4.988-4.754-7.482-7.13c-4.383-4.176-8.766-8.353-13.148-12.529c-2.959-2.82-2.58-9.859,0.201-12.639
	c3.481-3.482,10.226-7.823,10.226-13.17c0-2.583,0.589-5.771-1.42-7.78c-2.228-2.228-4.457-4.457-6.686-6.686
	c-2.806-2.806-2.3,1.979-2.3,3.855c0,2.931-2.195,6.937-5.645,6.937c-4.816,0.89-10.629,0-15.513,0h-9.791
	c-1.855,0-4.194,0.354-5.893-0.576c-4.11-2.247-6.35-9.014-11.544-9.014h-18.943c-1.614,0-3.515-0.281-5.112,0
	c-3.605,0-4.876,4.682-8.081,5.621c-6.968,2.041-10.642-2.367-15.048-6.774c-3.574-3.574-7.643-2.684-12.427-2.684H39.537
	c-1.843,0-3.94-0.258-5.426,1.117c-1.892,1.193-5.698,4.459-5.698,6.918c-0.966,5.251,0,11.534,0,16.878
	c0,5.36-5.112,8.587-8.658,12.133c-2.996,2.997,6.127,9.528,8.243,11.643c4.541,4.541,10.393-0.74,13.516-3.862
	c2.851-2.852,7.688-10.108,12.216-10.108h18.222c4.09,0,6.425,3.547,9.113,6.235c5.095,5.095,10.19,10.19,15.285,15.285
	c2.187,2.187,6.772,5.308,6.772,8.775v36.57c0,3.616-0.645,7.9,0,11.474c0,3.864,7.021,8.666,9.364,11.009
	c4.713,4.713,9.426,9.426,14.139,14.139c1.099,1.099,2.521,3.124,4.188,1.458C133.14,203.093,133.2,202,131,199.8
	c-4.358-4.358-8.716-8.716-13.074-13.074c-1.597-1.596,0.985-5.395,3.13-5.395c1.468,0,3.217,2.535,4.08,3.398
	c4.922,4.922,9.844,9.844,14.766,14.767c3.119,3.119,6.593,5.368,6.593,10.054c0,5.684-1.287,11.243,2.95,15.479
	c2.085,2.085,4.169,4.17,6.254,6.255c1.982,1.982,5.215,1.395,7.76,1.395c1.934,0.001,5.534-0.647,7.155,0.675
	c1.39,1.134,2.612,2.535,3.876,3.8c4.949,4.948,9.898,9.897,14.846,14.845c1.537,1.536,3.073,3.073,4.609,4.609
	c2.049,2.05-0.955,4.022-2.35,5.417c-1.697,1.697-5.131,4.071-5.131,6.775c-0.331,1.863,0,4.086,0,5.97v18.744
	c0,4.258,6.776,8.806,9.432,11.462c2.519,2.519,8.789,6.735,8.789,10.777v13.948v35.356c0,2.511-2.308,4.146-3.916,5.754
	c-1.81,1.811-2.126,3.432-2.126,5.85v19.64c0,5.113,5.257,8.459,8.612,11.815c1.548,1.547,3.489,4.287,5.932,4.287
	c1.273,0.248,2.857-0.003,4.146-0.004c1.868-0.001,6.549,0.868,8.117-0.252c1.176-0.84-4.346-5.606-4.847-6.109
	c-1.837-1.847-3.834-3.332-3.834-6.163c0-3.919-1.719-12.464,1.354-15.536c8.186-8.186,16.373-16.373,24.559-24.559
	c3.799-3.799-0.425-10.123,3.106-13.655c4.04-4.04,8.081-8.081,12.121-12.121c1.913-1.913,4.379-1.538,6.86-1.538
	c3.34,0,5.362-0.038,7.819-2.495c1.675-1.675,4.266-3.483,4.266-6.103v-7.896v-10.054c0-2.096-0.389-4.616,1.25-6.255
	c1.94-1.938,3.88-3.879,5.819-5.818c1.898-1.897,1.25-5.501,1.25-7.91c0-2.555,0.718-6.409-0.576-8.774
	c-0.807-1.476-2.465-2.689-3.627-3.851c-5.052-5.053-10.105-10.106-15.158-15.158c-3.531-3.532-5.292-4.676-10.378-4.676H237.978z"
	/>
<path fill="#DEC9A4" d="M322.667,93.959c2.01-2.01,6.409-4.404,3.811-7.003c-1.024-1.024-2.195-2.773-3.805-2.773
	c-1.549,0-4.842-0.664-6.088,0.581c-1.399,0.778-2.708,2.708-3.837,3.838c-1.56,1.559-1.869,1.98-0.222,3.628
	C314.483,94.189,320.143,96.482,322.667,93.959"/>
<path fill="#33006F" d="M498.834,208.025c0-0.75,5.75-5.583,6.167-6.208c0.416-0.625-3.625-2.459-2.5-3.917
	s9.458-11.167,10.5-11.667c1.041-0.5,3.416-0.458,3.916-0.041c0.5,0.416,4.709,5.375,4.75,5.875c0.042,0.5-3.208,3.083-3.166,3.5
	c0.041,0.416,15.875,8.875,17.25,9.166c1.375,0.292,5.333,0.084,6.625-0.041c1.291-0.125,7.333-1.959,7.625-1.459
	c0.291,0.5-3.75,11.792-3.75,11.792s-2.845-1.75-4.084-2.083c-0.208-0.5,0.25-5.667,0.084-5.959c-0.167-0.291-6.084-0.375-6.25,0
	c-0.167,0.375,0.447,6.511,0.041,6.542c-3.25,2.958-11.761,10.438-13.041,12.292c-1.282,1.854-2.167,4.416-2.167,4.416
	s-0.095,5.688-0.375,6.625c-0.281,0.938-1.792,4.459-4.042,4.625c-2.25,0.167-11.416-8.875-11.75-11.291
	c-0.333-2.417-0.083-13.417-0.25-15.417C504.251,212.775,498.834,208.775,498.834,208.025"/>
<path fill="#33006F" d="M423.667,310.775l-0.188,5.687c0,0,0.749,1,0.999,1.688s0,3.563,0,3.563s-1.062,1.187-1.687,1.187
	s-1.438-3.375-1.438-3.375s-0.187-2.125-0.437-2.688c-0.25-0.562-1.063-2.499-1.063-3.499c0-1.001-0.187-3.125-0.187-3.125
	l0.062-3.688c0,0,0.875-1.375,1.25-1.5s1.626,0.813,1.626,0.813s0.875,0.437,1,0.875
	C423.729,307.15,423.667,310.775,423.667,310.775"/>
<path fill="#33006F" d="M364.323,248.556c0.125-0.156-0.073-6.24-0.073-6.24s1.677-0.52,1.854-1.885
	c0.177-1.365-0.354-3.615-0.354-3.615l-2.583-0.916c0,0-2.552,1.146-2.667,2.416c-0.115,1.271,0.823,2.052,0.823,2.052l0.01,2.24
	c0,0-0.635,6.135-0.26,5.979C361.448,248.431,364.198,248.712,364.323,248.556"/>
<path fill="none" stroke="#33006F" stroke-width="0.5" stroke-miterlimit="10" d="M162.167,236.4
	c0.302-0.143,0.603-0.285,0.905-0.426"/>
<path fill="none" stroke="#33006F" stroke-width="0.5" stroke-miterlimit="10" stroke-dasharray="1.992,1.992" d="M164.883,235.141
	c86.145-39.056,182.596-1.827,196.957,4.145"/>
<path fill="none" stroke="#33006F" stroke-width="0.5" stroke-miterlimit="10" d="M362.753,239.671
	c0.603,0.257,0.913,0.396,0.913,0.396"/>
<path fill="none" stroke="#33006F" stroke-width="0.5" stroke-miterlimit="10" d="M282.167,398.9
	c0.334-0.011,0.668-0.022,1.001-0.035"/>
<path fill="none" stroke="#33006F" stroke-width="0.5" stroke-miterlimit="10" stroke-dasharray="2.009,2.009" d="M285.179,398.776
	c84.976-4.29,128.67-74.911,135.527-86.966"/>
<path fill="none" stroke="#33006F" stroke-width="0.5" stroke-miterlimit="10" d="M421.193,310.942
	c0.316-0.572,0.474-0.876,0.474-0.876"/>
<path fill="none" stroke="#33006F" stroke-width="0.5" stroke-miterlimit="10" d="M519.667,216.733c0,0,0.34,0.095,0.939,0.331"/>
<path fill="none" stroke="#33006F" stroke-width="0.5" stroke-miterlimit="10" stroke-dasharray="1.95,1.95" d="M522.38,217.863
	c7.231,3.641,25.945,17.552,18.861,62.083"/>
<path fill="none" stroke="#33006F" stroke-width="0.5" stroke-miterlimit="10" d="M541.084,280.914
	c-0.054,0.327-0.11,0.656-0.167,0.986"/>
<text transform="matrix(1 0 0 1 84.0068 55.4038)"><tspan x="0" y="0" fill="#33006F" font-family="'EncodeSansCondensed-ExtraBold'" font-size="38.8132" letter-spacing="1">D</tspan><tspan x="28.721" y="0" fill="#33006F" font-family="'EncodeSansCondensed-ExtraBold'" font-size="38.8132" letter-spacing="1">E</tspan><tspan x="53.445" y="0" fill="#33006F" font-family="'EncodeSansCondensed-ExtraBold'" font-size="38.8132" letter-spacing="1">W</tspan><tspan x="93.5" y="0" fill="#33006F" font-family="'EncodeSansCondensed-ExtraBold'" font-size="38.8132" letter-spacing="1">ORM 3</tspan><tspan x="219.486" y="0" fill="#33006F" font-family="'EncodeSansCondensed-ExtraBold'" font-size="38.8132" letter-spacing="1"> </tspan><tspan x="227.714" y="0" fill="#33006F" font-family="'EncodeSansCondensed-ExtraBold'" font-size="38.8132" letter-spacing="1">T</tspan><tspan x="252.127" y="0" fill="#33006F" font-family="'EncodeSansCondensed-ExtraBold'" font-size="38.8132" letter-spacing="1">R</tspan><tspan x="279.18" y="0" fill="#33006F" font-family="'EncodeSansCondensed-ExtraBold'" font-size="38.8132" letter-spacing="1">IA</tspan><tspan x="320.671" y="0" fill="#33006F" font-family="'EncodeSansCondensed-ExtraBold'" font-size="38.8132" letter-spacing="1">L</tspan><tspan x="341.513" y="0" fill="#33006F" font-family="'EncodeSansCondensed-ExtraBold'" font-size="38.8132" letter-spacing="1"> </tspan><tspan x="350.518" y="0" fill="#33006F" font-family="'EncodeSansCondensed-ExtraBold'" font-size="38.8132" letter-spacing="1">L</tspan><tspan x="371.554" y="0" fill="#33006F" font-family="'EncodeSansCondensed-ExtraBold'" font-size="38.8132" letter-spacing="1">OC</tspan><tspan x="424.261" y="0" fill="#33006F" font-family="'EncodeSansCondensed-ExtraBold'" font-size="38.8132">A</tspan><tspan x="449.839" y="0" fill="#33006F" font-family="'EncodeSansCondensed-ExtraBold'" font-size="38.8132" letter-spacing="1">T</tspan><tspan x="474.213" y="0" fill="#33006F" font-family="'EncodeSansCondensed-ExtraBold'" font-size="38.8132" letter-spacing="1">ION</tspan><tspan x="547.763" y="0" fill="#33006F" font-family="'EncodeSansCondensed-ExtraBold'" font-size="38.8132">S</tspan></text>
<path fill="#33006F" d="M154.465,254.71h-62.67c-6.6,0-12-5.4-12-12v-16c0-6.6,5.4-12,12-12h62.67c6.6,0,12,5.4,12,12v16
	C166.465,249.311,161.065,254.71,154.465,254.71"/>
<text transform="matrix(1 0 0 1 89.7827 243.2173)" fill="#FFFFFF" font-family="'EncodeSansCondensed-Bold'" font-size="26.1755">Benin</text>
<text transform="matrix(1 0 0 1 89.1606 272.5278)"><tspan x="0" y="0" fill="#33006F" font-family="'EncodeSansCondensed-ExtraBold'" font-size="13">P</tspan><tspan x="7.813" y="0" fill="#33006F" font-family="'EncodeSansCondensed-ExtraBold'" font-size="13">A</tspan><tspan x="16.536" y="0" fill="#33006F" font-family="'EncodeSansCondensed-ExtraBold'" font-size="13">R</tspan><tspan x="24.856" y="0" fill="#33006F" font-family="'EncodeSansCondensed-ExtraBold'" font-size="13">TNERS:</tspan></text>
<text transform="matrix(1 0 0 1 89.1606 288.1279)"><tspan x="0" y="0" fill="#33006F" font-family="'EncodeSansCondensed-Medium'" font-size="13">• Institu</tspan><tspan x="41.82" y="0" fill="#33006F" font-family="'EncodeSansCondensed-Medium'" font-size="13">t</tspan><tspan x="46.513" y="0" fill="#33006F" font-family="'EncodeSansCondensed-Medium'" font-size="13"> de </tspan><tspan x="65.167" y="0" fill="#33006F" font-family="'EncodeSansCondensed-Medium'" font-size="13">R</tspan><tspan x="72.798" y="0" fill="#33006F" font-family="'EncodeSansCondensed-Medium'" font-size="13">eche</tspan><tspan x="98.083" y="0" fill="#33006F" font-family="'EncodeSansCondensed-Medium'" font-size="13">r</tspan><tspan x="102.477" y="0" fill="#33006F" font-family="'EncodeSansCondensed-Medium'" font-size="13">che Clinique du Bénin </tspan><tspan x="220.099" y="0" fill="#33006F" font-family="'EncodeSansCondensed-Medium'" font-size="13">(</tspan><tspan x="223.687" y="0" fill="#33006F" font-family="'EncodeSansCondensed-Medium'" font-size="13">IRC</tspan><tspan x="241.548" y="0" fill="#33006F" font-family="'EncodeSansCondensed-Medium'" font-size="13">B</tspan><tspan x="248.984" y="0" fill="#33006F" font-family="'EncodeSansCondensed-Medium'" font-size="13">)</tspan></text>
<text transform="matrix(1 0 0 1 89.1606 303.728)"><tspan x="0" y="0" fill="#33006F" font-family="'EncodeSansCondensed-Medium'" font-size="13">• Institu</tspan><tspan x="41.82" y="0" fill="#33006F" font-family="'EncodeSansCondensed-Medium'" font-size="13">t</tspan><tspan x="46.513" y="0" fill="#33006F" font-family="'EncodeSansCondensed-Medium'" font-size="13"> de </tspan><tspan x="65.167" y="0" fill="#33006F" font-family="'EncodeSansCondensed-Medium'" font-size="13">R</tspan><tspan x="72.798" y="0" fill="#33006F" font-family="'EncodeSansCondensed-Medium'" font-size="13">eche</tspan><tspan x="98.083" y="0" fill="#33006F" font-family="'EncodeSansCondensed-Medium'" font-size="13">r</tspan><tspan x="102.477" y="0" fill="#33006F" font-family="'EncodeSansCondensed-Medium'" font-size="13">che pou</tspan><tspan x="144.934" y="0" fill="#33006F" font-family="'EncodeSansCondensed-Medium'" font-size="13">r</tspan><tspan x="149.302" y="0" fill="#33006F" font-family="'EncodeSansCondensed-Medium'" font-size="13"> le D</tspan><tspan x="172.338" y="0" fill="#33006F" font-family="'EncodeSansCondensed-Medium'" font-size="13">é</tspan><tspan x="178.617" y="0" fill="#33006F" font-family="'EncodeSansCondensed-Medium'" font-size="13">v</tspan><tspan x="185.104" y="0" fill="#33006F" font-family="'EncodeSansCondensed-Medium'" font-size="13">eloppemen</tspan><tspan x="245.89" y="0" fill="#33006F" font-family="'EncodeSansCondensed-Medium'" font-size="13">t</tspan><tspan x="250.583" y="0" fill="#33006F" font-family="'EncodeSansCondensed-Medium'" font-size="13"> </tspan><tspan x="253.209" y="0" fill="#33006F" font-family="'EncodeSansCondensed-Medium'" font-size="13">(</tspan><tspan x="256.797" y="0" fill="#33006F" font-family="'EncodeSansCondensed-Medium'" font-size="13">IR</tspan><tspan x="267.821" y="0" fill="#33006F" font-family="'EncodeSansCondensed-Medium'" font-size="13">D</tspan><tspan x="275.699" y="0" fill="#33006F" font-family="'EncodeSansCondensed-Medium'" font-size="13">)</tspan></text>
<text transform="matrix(1 0 0 1 191.4966 435.6128)"><tspan x="0" y="0" fill="#33006F" font-family="'EncodeSansCondensed-ExtraBold'" font-size="13">P</tspan><tspan x="7.813" y="0" fill="#33006F" font-family="'EncodeSansCondensed-ExtraBold'" font-size="13">A</tspan><tspan x="16.536" y="0" fill="#33006F" font-family="'EncodeSansCondensed-ExtraBold'" font-size="13">R</tspan><tspan x="24.856" y="0" fill="#33006F" font-family="'EncodeSansCondensed-ExtraBold'" font-size="13">TNERS:</tspan></text>
<text transform="matrix(1 0 0 1 191.4966 451.2124)"><tspan x="0" y="0" fill="#33006F" font-family="'EncodeSansCondensed-Medium'" font-size="13">• Blanty</tspan><tspan x="42.314" y="0" fill="#33006F" font-family="'EncodeSansCondensed-Medium'" font-size="13">r</tspan><tspan x="46.708" y="0" fill="#33006F" font-family="'EncodeSansCondensed-Medium'" font-size="13">e Institute</tspan><tspan x="101.996" y="0" fill="#33006F" font-family="'EncodeSansCondensed-Medium'" font-size="13"> </tspan><tspan x="104.414" y="0" fill="#33006F" font-family="'EncodeSansCondensed-Medium'" font-size="13">f</tspan><tspan x="108.626" y="0" fill="#33006F" font-family="'EncodeSansCondensed-Medium'" font-size="13">o</tspan><tspan x="115.594" y="0" fill="#33006F" font-family="'EncodeSansCondensed-Medium'" font-size="13">r</tspan><tspan x="119.962" y="0" fill="#33006F" font-family="'EncodeSansCondensed-Medium'" font-size="13"> </tspan><tspan x="122.588" y="0" fill="#33006F" font-family="'EncodeSansCondensed-Medium'" font-size="13">C</tspan><tspan x="129.321" y="0" fill="#33006F" font-family="'EncodeSansCondensed-Medium'" font-size="13">ommunit</tspan><tspan x="179.241" y="0" fill="#33006F" font-family="'EncodeSansCondensed-Medium'" font-size="13">y</tspan><tspan x="185.65" y="0" fill="#33006F" font-family="'EncodeSansCondensed-Medium'" font-size="13"> Ophtalmolog</tspan><tspan x="259.67" y="0" fill="#33006F" font-family="'EncodeSansCondensed-Medium'" font-size="13">y</tspan><tspan x="266.08" y="0" fill="#33006F" font-family="'EncodeSansCondensed-Medium'" font-size="13"> </tspan><tspan x="268.706" y="0" fill="#33006F" font-family="'EncodeSansCondensed-Medium'" font-size="13">(</tspan><tspan x="272.293" y="0" fill="#33006F" font-family="'EncodeSansCondensed-Medium'" font-size="13">BI</tspan><tspan x="283.395" y="0" fill="#33006F" font-family="'EncodeSansCondensed-Medium'" font-size="13">C</tspan><tspan x="290.038" y="0" fill="#33006F" font-family="'EncodeSansCondensed-Medium'" font-size="13">O</tspan><tspan x="298.253" y="0" fill="#33006F" font-family="'EncodeSansCondensed-Medium'" font-size="13">)</tspan></text>
<text transform="matrix(1 0 0 1 191.4966 466.8125)"><tspan x="0" y="0" fill="#33006F" font-family="'EncodeSansCondensed-Medium'" font-size="13">• </tspan><tspan x="6.695" y="0" fill="#33006F" font-family="'EncodeSansCondensed-Medium'" font-size="13">L</tspan><tspan x="12.506" y="0" fill="#33006F" font-family="'EncodeSansCondensed-Medium'" font-size="13">ondon School </tspan><tspan x="88.828" y="0" fill="#33006F" font-family="'EncodeSansCondensed-Medium'" font-size="13">o</tspan><tspan x="95.744" y="0" fill="#33006F" font-family="'EncodeSansCondensed-Medium'" font-size="13">f</tspan><tspan x="99.825" y="0" fill="#33006F" font-family="'EncodeSansCondensed-Medium'" font-size="13"> H</tspan><tspan x="111.356" y="0" fill="#33006F" font-family="'EncodeSansCondensed-Medium'" font-size="13">y</tspan><tspan x="117.882" y="0" fill="#33006F" font-family="'EncodeSansCondensed-Medium'" font-size="13">giene and</tspan><tspan x="170.609" y="0" fill="#33006F" font-family="'EncodeSansCondensed-Medium'" font-size="13"> </tspan><tspan x="172.949" y="0" fill="#33006F" font-family="'EncodeSansCondensed-Medium'" font-size="13" letter-spacing="-1">T</tspan><tspan x="178.838" y="0" fill="#33006F" font-family="'EncodeSansCondensed-Medium'" font-size="13">r</tspan><tspan x="183.219" y="0" fill="#33006F" font-family="'EncodeSansCondensed-Medium'" font-size="13">opical </tspan><tspan x="217.655" y="0" fill="#33006F" font-family="'EncodeSansCondensed-Medium'" font-size="13">M</tspan><tspan x="228.796" y="0" fill="#33006F" font-family="'EncodeSansCondensed-Medium'" font-size="13">edicine</tspan></text>
<text transform="matrix(1 0 0 1 501.1572 338.2817)"><tspan x="0" y="0" fill="#33006F" font-family="'EncodeSansCondensed-ExtraBold'" font-size="13">P</tspan><tspan x="7.812" y="0" fill="#33006F" font-family="'EncodeSansCondensed-ExtraBold'" font-size="13">A</tspan><tspan x="16.536" y="0" fill="#33006F" font-family="'EncodeSansCondensed-ExtraBold'" font-size="13">R</tspan><tspan x="24.855" y="0" fill="#33006F" font-family="'EncodeSansCondensed-ExtraBold'" font-size="13">TNERS:</tspan></text>
<text transform="matrix(1 0 0 1 501.1572 353.8818)"><tspan x="0" y="0" fill="#33006F" font-family="'EncodeSansCondensed-Medium'" font-size="13">• Christian </tspan><tspan x="57.238" y="0" fill="#33006F" font-family="'EncodeSansCondensed-Medium'" font-size="13">M</tspan><tspan x="68.379" y="0" fill="#33006F" font-family="'EncodeSansCondensed-Medium'" font-size="13">edical </tspan><tspan x="102.243" y="0" fill="#33006F" font-family="'EncodeSansCondensed-Medium'" font-size="13">C</tspan><tspan x="108.977" y="0" fill="#33006F" font-family="'EncodeSansCondensed-Medium'" font-size="13">ollege </tspan><tspan x="144.349" y="0" fill="#33006F" font-family="'EncodeSansCondensed-Medium'" font-size="13">(</tspan><tspan x="147.638" y="0" fill="#33006F" font-family="'EncodeSansCondensed-Medium'" font-size="13">CM</tspan><tspan x="165.655" y="0" fill="#33006F" font-family="'EncodeSansCondensed-Medium'" font-size="13">C</tspan><tspan x="172.441" y="0" fill="#33006F" font-family="'EncodeSansCondensed-Medium'" font-size="13">)</tspan><tspan x="176.237" y="0" fill="#33006F" font-family="'EncodeSansCondensed-Medium'" font-size="13"> </tspan><tspan x="178.525" y="0" fill="#33006F" font-family="'EncodeSansCondensed-Medium'" font-size="13">V</tspan><tspan x="185.909" y="0" fill="#33006F" font-family="'EncodeSansCondensed-Medium'" font-size="13">ello</tspan><tspan x="205.253" y="0" fill="#33006F" font-family="'EncodeSansCondensed-Medium'" font-size="13">r</tspan><tspan x="209.634" y="0" fill="#33006F" font-family="'EncodeSansCondensed-Medium'" font-size="13">e</tspan></text>
<text transform="matrix(1 0 0 1 501.1572 369.4819)"><tspan x="0" y="0" fill="#33006F" font-family="'EncodeSansCondensed-Medium'" font-size="13">• KEM </tspan><tspan x="35.646" y="0" fill="#33006F" font-family="'EncodeSansCondensed-Medium'" font-size="13">H</tspan><tspan x="44.498" y="0" fill="#33006F" font-family="'EncodeSansCondensed-Medium'" font-size="13">ospital </tspan><tspan x="83.628" y="0" fill="#33006F" font-family="'EncodeSansCondensed-Medium'" font-size="13">R</tspan><tspan x="91.259" y="0" fill="#33006F" font-family="'EncodeSansCondensed-Medium'" font-size="13">esea</tspan><tspan x="115.88" y="0" fill="#33006F" font-family="'EncodeSansCondensed-Medium'" font-size="13">r</tspan><tspan x="120.261" y="0" fill="#33006F" font-family="'EncodeSansCondensed-Medium'" font-size="13">ch </tspan><tspan x="135.38" y="0" fill="#33006F" font-family="'EncodeSansCondensed-Medium'" font-size="13">C</tspan><tspan x="142.113" y="0" fill="#33006F" font-family="'EncodeSansCondensed-Medium'" font-size="13">ent</tspan><tspan x="160.235" y="0" fill="#33006F" font-family="'EncodeSansCondensed-Medium'" font-size="13">r</tspan><tspan x="164.629" y="0" fill="#33006F" font-family="'EncodeSansCondensed-Medium'" font-size="13">e Pune    </tspan></text>
<path fill="#33006F" d="M274.724,417.044h-84.096c-6.6,0-12-5.4-12-12v-16c0-6.6,5.4-12,12-12h84.096c6.6,0,12,5.4,12,12v16
	C286.724,411.644,281.324,417.044,274.724,417.044"/>
<text transform="matrix(1 0 0 1 190.3242 405.5503)"><tspan x="0" y="0" fill="#FFFFFF" font-family="'EncodeSansCondensed-Bold'" font-size="26.1755">M</tspan><tspan x="23.636" y="0" fill="#FFFFFF" font-family="'EncodeSansCondensed-Bold'" font-size="26.1755">al</tspan><tspan x="44.209" y="0" fill="#FFFFFF" font-family="'EncodeSansCondensed-Bold'" font-size="26.1755">a</tspan><tspan x="57.899" y="0" fill="#FFFFFF" font-family="'EncodeSansCondensed-Bold'" font-size="26.1755">wi</tspan></text>
<path fill="#33006F" d="M558.467,319.543h-57.485c-6.6,0-12-5.4-12-12v-16c0-6.6,5.4-12,12-12h57.485c6.6,0,12,5.4,12,12v16
	C570.467,314.144,565.066,319.543,558.467,319.543"/>
<text transform="matrix(1 0 0 1 500.8262 308.0503)" fill="#FFFFFF" font-family="'EncodeSansCondensed-Bold'" font-size="26.1755">India</text>
</svg>
