<?xml version="1.0" encoding="utf-8"?>
<!-- Generator: Adobe Illustrator 16.0.0, SVG Export Plug-In . SVG Version: 6.00 Build 0)  -->
<!DOCTYPE svg PUBLIC "-//W3C//DTD SVG 1.1//EN" "http://www.w3.org/Graphics/SVG/1.1/DTD/svg11.dtd">
<svg version="1.1" id="Layer_1" xmlns="http://www.w3.org/2000/svg" xmlns:xlink="http://www.w3.org/1999/xlink" x="0px" y="0px"
	 width="1500px" height="916px" viewBox="0 0 1500 916" enable-background="new 0 0 1500 916" xml:space="preserve">
<path fill="none" stroke="#FFFFFF" stroke-width="5" stroke-miterlimit="10" d="M308.761,514.144c0,0-0.638,2.808,8.286,3.209
	c8.924,0.4,22.312-1.203,28.685,0.4c6.374,1.604,8.924,2.006,17.21,2.808c8.285,0.802,30.595-0.803,38.882,1.604
	c8.285,2.407,35.692,8.021,35.692,8.021s7.014,3.209,11.476,2.407c4.461-0.803,2.548-1.604,9.562-1.205
	c7.012,0.402,28.683,4.014,33.145,5.615c4.463,1.604,8.924,4.011,17.21,2.809c8.287-1.202,25.496-2.809,28.046-0.401
	c2.55,2.408,9.562,4.812,14.022,6.418c4.462,1.604,14.659,3.208,19.76,3.208c5.1,0,7.649,0.401,12.748,1.203
	c5.101,0.803,11.474,4.812,11.474,4.812s11.474,0.402,22.946,3.208c11.474,2.81,27.408,2.407,37.606,6.819
	c10.198,4.41,16.573,3.609,24.859,4.41c8.286,0.803,14.021,1.204,21.671,1.204s15.937-4.411,17.848-5.614
	c1.911-1.204,13.386-3.208,14.66-1.605c1.275,1.605,0.001,4.813,5.101,6.017c5.099,1.204,10.835,1.604,12.109,4.412
	c1.275,2.809,5.1,10.026,11.473,11.633c6.375,1.603,8.287,4.812,14.661,6.416c6.374,1.603,19.121,4.812,19.76,7.619
	c0.638,2.808,8.925,5.613,21.672,6.016c12.749,0.402,19.122,4.413,26.133,6.418c7.013,2.005,8.288,3.207,15.299,6.016
	c7.012,2.809,21.672,3.609,27.408,4.411c5.737,0.804,11.473,3.209,23.584,6.017c12.11,2.809,14.66,3.208,19.759,3.208
	c5.102,0,13.387,0,19.761,0s14.66-2.004,23.583-0.802c8.924,1.202,14.66,2.808,19.762,4.012c5.099,1.203,10.835,3.208,16.57,4.012
	c5.737,0.8,25.496,0.8,26.771,4.411c1.274,3.606,10.199,9.626,10.199,9.626s7.647,1.202,11.473,2.806
	c3.825,1.604,8.286,0.803,10.837,4.812s17.21,3.609,21.035,4.812c3.824,1.204,4.461,4.011,16.569,6.417
	c12.111,2.407,38.886,8.021,42.707,10.428c3.824,2.406,9.562,7.22,21.673,11.23s8.286,4.812,19.123,5.613
	c10.835,0.803,19.759,3.609,21.034,6.817c1.274,3.21,0.637,11.229,15.298,13.234c14.659,2.008,21.032,3.611,26.132,6.017
	c5.101,2.407,8.287,4.012,13.387,6.818s12.111,4.412,17.21,7.219c5.1,2.809,12.111,3.209,15.298,6.019
	c3.188,2.806,14.022,9.222,12.11,11.229c-1.911,2.006-2.55,3.609-2.55,6.817s-1.274,6.417-3.823,8.824
	c-2.55,2.406-3.189,6.016,0,7.619c3.187,1.604-8.925,4.812-10.837,6.416c-1.912,1.604-5.1,4.813-7.014,5.215
	c-1.91,0.401-6.371,2.006-7.646,4.011c-1.274,2.005-14.023,6.417-17.21,6.417c-3.188,0-4.463-3.208-7.011,2.407
	c-2.551,5.613-5.737,10.024-5.737,10.024s-8.925-3.607-5.101,2.809c3.825,6.417,3.825,6.417,3.825,6.417"/>
<g>
	<path fill="none" stroke="#FFFFFF" stroke-width="5" stroke-miterlimit="10" d="M1259.377,826.684
		c-0.55-2.579-4.976-4.536-9.931-4.638l0,0c-4.951-0.099-9.455,1.669-10.115,4.227l0,0c-0.752,2.911,3.64,5.681,9.9,5.811l0,0
		C1255.496,832.214,1259.997,829.622,1259.377,826.684L1259.377,826.684z"/>
	
		<line fill="none" stroke="#4C2E82" stroke-width="1.9032" stroke-linecap="round" stroke-miterlimit="10" x1="1248.992" y1="778.213" x2="1248.992" y2="826.506"/>
	<polygon fill="#4C2E82" points="1182.854,809.262 1249.24,809.262 1249.24,784.021 1175.56,784.021 	"/>
	<g>
		<path fill="#FFFFFF" d="M1195.322,798.19l-3.099-5.564h2.673l1.233,2.477l0.349,0.896h0.109l0.338-0.896l1.244-2.477h2.651
			l-3.044,5.488v2.586h-2.455V798.19z"/>
		<path fill="#FFFFFF" d="M1199.697,800.58l2.488-7.954h3.644l2.488,7.954v0.12h-2.368l-0.491-1.647h-2.913l-0.479,1.647h-2.368
			V800.58z M1204.924,797.187l-0.338-1.2l-0.48-1.69h-0.196l-0.491,1.713l-0.327,1.178H1204.924z"/>
		<path fill="#FFFFFF" d="M1208.929,792.626h2.454v3.077h0.906l1.571-3.077h2.717l-2.019,3.514l-0.633,0.294v0.099l0.654,0.306
			l2.193,3.862h-2.717l-1.626-3.12h-1.048v3.12h-2.454V792.626z"/>
		<path fill="#FFFFFF" d="M1217.308,792.626h2.454v8.074h-2.454V792.626z"/>
		<path fill="#FFFFFF" d="M1221.104,792.626h3.35l1.2,3.284l0.414,1.626h0.065l0.426-1.626l1.2-3.284h3.339v8.074h-2.16v-5.423
			h-0.099l-0.665,2.183l-1.103,2.913h-1.942l-1.102-2.913l-0.666-2.183h-0.098v5.423h-2.16V792.626z"/>
		<path fill="#FFFFFF" d="M1231.71,800.58l2.488-7.954h3.644l2.488,7.954v0.12h-2.368l-0.491-1.647h-2.913l-0.479,1.647h-2.368
			V800.58z M1236.937,797.187l-0.338-1.2l-0.48-1.69h-0.196l-0.491,1.713l-0.327,1.178H1236.937z"/>
	</g>
	<path fill="none" stroke="#FFFFFF" stroke-width="5" stroke-miterlimit="10" d="M320.875,508.553
		c-0.55-2.579-4.976-4.536-9.931-4.638l0,0c-4.951-0.099-9.455,1.669-10.115,4.227l0,0c-0.752,2.911,3.64,5.681,9.9,5.811l0,0
		C316.995,514.083,321.496,511.491,320.875,508.553L320.875,508.553z"/>
</g>
<g>
	
		<line fill="none" stroke="#4C2E82" stroke-width="1.9032" stroke-linecap="round" stroke-miterlimit="10" x1="310.427" y1="460.49" x2="310.427" y2="508.782"/>
	<polygon fill="#4C2E82" points="386.526,491.538 310.62,491.538 310.62,466.299 393.819,466.299 	"/>
	<g>
		<path fill="#FFFFFF" d="M327.303,483.105c-0.233,0-0.482-0.007-0.748-0.021s-0.538-0.038-0.818-0.071
			c-0.28-0.032-0.558-0.069-0.834-0.109c-0.276-0.039-0.539-0.089-0.786-0.146v-1.965c0.589,0.132,1.124,0.231,1.604,0.301
			s0.927,0.104,1.342,0.104c0.437,0,0.744-0.04,0.922-0.12c0.178-0.08,0.267-0.215,0.267-0.403c0-0.211-0.1-0.366-0.3-0.464
			c-0.2-0.099-0.515-0.177-0.944-0.235c-0.458-0.065-0.864-0.161-1.217-0.289c-0.353-0.127-0.649-0.298-0.889-0.513
			c-0.24-0.214-0.42-0.476-0.54-0.785s-0.18-0.679-0.18-1.107c0-0.786,0.304-1.396,0.911-1.833s1.457-0.655,2.548-0.655
			c0.189,0,0.376,0.006,0.562,0.017c0.185,0.011,0.385,0.029,0.6,0.055c0.214,0.025,0.447,0.058,0.698,0.099
			c0.251,0.04,0.536,0.093,0.856,0.158v1.941c-0.189-0.058-0.389-0.108-0.6-0.152s-0.424-0.082-0.638-0.114
			c-0.215-0.033-0.426-0.059-0.633-0.077c-0.208-0.018-0.398-0.027-0.573-0.027c-0.778,0-1.167,0.179-1.167,0.535
			c0,0.232,0.109,0.411,0.328,0.534c0.218,0.124,0.567,0.226,1.047,0.306c0.458,0.08,0.854,0.184,1.189,0.312
			c0.334,0.127,0.612,0.285,0.834,0.475c0.222,0.188,0.387,0.416,0.497,0.682c0.109,0.266,0.164,0.576,0.164,0.933
			C330.806,482.226,329.638,483.105,327.303,483.105z"/>
		<path fill="#FFFFFF" d="M331.711,474.9h6.329v1.877h-3.874v1.222h3.458v1.877h-3.458v1.211h3.982v1.888h-6.438V474.9z"/>
		<path fill="#FFFFFF" d="M338.454,482.854l2.488-7.954h3.645l2.487,7.954v0.12h-2.368l-0.491-1.647h-2.914l-0.48,1.647h-2.368
			V482.854z M343.681,479.461l-0.338-1.2l-0.48-1.69h-0.196l-0.491,1.713l-0.327,1.178H343.681z"/>
		<path fill="#FFFFFF" d="M348.667,476.788h-2.193V474.9h6.841v1.888h-2.193v6.187h-2.455V476.788z"/>
		<path fill="#FFFFFF" d="M355.944,476.788h-2.193V474.9h6.841v1.888h-2.193v6.187h-2.455V476.788z"/>
		<path fill="#FFFFFF" d="M361.476,474.9h2.455v6.197h3.317v1.877h-5.772V474.9z"/>
		<path fill="#FFFFFF" d="M368.055,474.9h6.329v1.877h-3.874v1.222h3.458v1.877h-3.458v1.211h3.982v1.888h-6.438V474.9z"/>
	</g>
</g>
</svg>
