<?xml version="1.0" encoding="utf-8"?>
<!-- Generator: Adobe Illustrator 16.0.0, SVG Export Plug-In . SVG Version: 6.00 Build 0)  -->
<!DOCTYPE svg PUBLIC "-//W3C//DTD SVG 1.1//EN" "http://www.w3.org/Graphics/SVG/1.1/DTD/svg11.dtd">
<svg version="1.1" id="Layer_1" xmlns="http://www.w3.org/2000/svg" xmlns:xlink="http://www.w3.org/1999/xlink" x="0px" y="0px"
	 width="80px" height="80px" viewBox="0 0 80 80" enable-background="new 0 0 80 80" xml:space="preserve">
<g>
	<polygon fill="#FFFFFF" points="29.737,54.546 23.112,59.358 31.179,65.22 33.708,57.434 	"/>
	<polygon fill="#FFFFFF" points="32.371,66.087 38.994,70.9 45.616,66.087 38.994,61.273 	"/>
	<polygon fill="#FFFFFF" points="35.716,51.216 11.43,33.568 17.099,45.366 25.154,51.216 	"/>
	<polygon fill="#FFFFFF" points="38.259,43.435 4.326,18.78 9.996,30.58 36.238,49.648 	"/>
	<polygon fill="#FFFFFF" points="9.137,9.1 5.136,17.425 17.43,26.357 	"/>
	<polygon fill="#FFFFFF" points="44.279,57.434 46.812,65.22 54.874,59.359 48.25,54.546 	"/>
	<polygon fill="#FFFFFF" points="52.833,51.216 60.888,45.366 66.556,33.568 42.271,51.216 	"/>
	<polygon fill="#FFFFFF" points="39.731,43.435 41.749,49.648 67.992,30.58 73.662,18.78 	"/>
	<polygon fill="#FFFFFF" points="68.85,9.1 60.555,26.357 72.852,17.425 	"/>
	<path fill="#FFFFFF" d="M35.315,55.707c0-2.031,1.647-3.679,3.681-3.679c2.03,0,3.681,1.648,3.681,3.679
		c0,2.034-1.651,3.683-3.681,3.683C36.962,59.388,35.315,57.74,35.315,55.707z"/>
</g>
</svg>
