<?xml version="1.0" encoding="utf-8"?>
<!-- Generator: Adobe Illustrator 16.0.0, SVG Export Plug-In . SVG Version: 6.00 Build 0)  -->
<!DOCTYPE svg PUBLIC "-//W3C//DTD SVG 1.1//EN" "http://www.w3.org/Graphics/SVG/1.1/DTD/svg11.dtd">
<svg version="1.1" id="Layer_1" xmlns="http://www.w3.org/2000/svg" xmlns:xlink="http://www.w3.org/1999/xlink" x="0px" y="0px"
	 width="80px" height="80px" viewBox="0 0 80 80" enable-background="new 0 0 80 80" xml:space="preserve">
<path fill="#FFFFFF" d="M73.431,7.737l-0.107-0.103l-0.108-0.103L73.102,7.43l-0.108-0.091L72.88,7.242l-0.114-0.085l-0.12-0.085
	l-0.113-0.085l-0.119-0.079l-0.119-0.074l-0.12-0.074l-0.119-0.068l-0.125-0.062l-0.125-0.062L71.68,6.503l-0.125-0.051
	l-0.131-0.051L71.294,6.35l-0.13-0.045l-0.131-0.04l-0.136-0.04l-0.13-0.034l-0.137-0.034l-0.143-0.028L70.35,6.105l-0.142-0.022
	l-0.143-0.017l-0.142-0.017l-0.148-0.012l-0.148-0.011L69.481,6.02h-0.148H10.702c-1.608,0-2.984,0.574-4.099,1.717
	c-1.147,1.12-1.722,2.495-1.722,4.104v55.136c0,1.603,0.575,2.978,1.722,4.098c1.114,1.143,2.49,1.688,4.099,1.688h58.631
	c1.603,0,2.95-0.546,4.098-1.688c1.143-1.12,1.688-2.496,1.688-4.098V11.841C75.119,10.232,74.574,8.856,73.431,7.737z
	 M73.29,11.841v55.136c0,1.085-0.404,2.035-1.177,2.808c-0.745,0.773-1.688,1.143-2.779,1.143H10.702
	c-1.12,0-2.035-0.37-2.808-1.143c-0.773-0.772-1.149-1.722-1.149-2.808V11.841c0-1.092,0.375-2.012,1.149-2.814
	c0.772-0.773,1.688-1.148,2.808-1.148h58.631c1.091,0,2.035,0.375,2.779,1.148l0.069,0.08l0.073,0.074l0.068,0.079l0.062,0.074
	l0.063,0.08l0.062,0.079l0.057,0.08l0.057,0.08l0.051,0.085l0.052,0.08l0.051,0.085l0.045,0.08l0.046,0.085l0.045,0.085l0.04,0.085
	l0.04,0.085l0.034,0.091l0.034,0.091l0.028,0.085l0.028,0.091l0.028,0.091l0.022,0.091l0.023,0.096l0.022,0.091l0.017,0.097
	l0.011,0.097l0.017,0.097l0.011,0.097l0.006,0.096l0.005,0.103l0.006,0.102V11.841z"/>
<path fill="#FFFFFF" d="M70.782,10.312l-0.04-0.04l-0.04-0.035l-0.046-0.034l-0.04-0.028l-0.04-0.035l-0.045-0.028l-0.046-0.028
	l-0.04-0.029l-0.045-0.029l-0.045-0.022l-0.041-0.022l-0.045-0.022l-0.045-0.023L70.18,9.914l-0.051-0.017l-0.045-0.018
	l-0.046-0.017l-0.045-0.017l-0.051-0.017l-0.046-0.011l-0.051-0.012l-0.051-0.012l-0.045-0.011l-0.051-0.012l-0.051-0.005
	l-0.051-0.005l-0.051-0.006l-0.052-0.005h-0.05l-0.058-0.006h-0.051H10.702c-0.574,0-1.091,0.205-1.495,0.603
	c-0.398,0.403-0.631,0.921-0.631,1.495v55.136c0,0.568,0.233,1.085,0.631,1.489c0.403,0.398,0.92,0.603,1.495,0.603h58.631
	c0.574,0,1.063-0.205,1.489-0.603c0.403-0.403,0.603-0.92,0.603-1.489V11.841c0-0.574-0.199-1.092-0.603-1.495L70.782,10.312z
	 M57.152,63.822L40.708,51.959L24.542,63.538l6.19-19.002L14.169,32.872h20.258l6.36-18.973l6.253,18.973h20.088L51.082,44.336
	L57.152,63.822z"/>
<path fill="#FFFFFF" d="M45.431,34.765l-4.672-14.216l-4.752,14.216H20.813l12.38,8.742l-4.61,14.21l12.125-8.651l12.289,8.884
	l-4.525-14.591l12.005-8.594H45.431z M49.961,53.938l-9.287-6.708l-9.112,6.531l3.467-10.715l-9.345-6.593h11.465l3.581-10.715
	l3.53,10.715h11.345l-9.083,6.479L49.961,53.938z"/>
</svg>
