<?xml version="1.0" encoding="utf-8"?>
<!-- Generator: Adobe Illustrator 16.0.0, SVG Export Plug-In . SVG Version: 6.00 Build 0)  -->
<!DOCTYPE svg PUBLIC "-//W3C//DTD SVG 1.1//EN" "http://www.w3.org/Graphics/SVG/1.1/DTD/svg11.dtd">
<svg version="1.1" id="Layer_1" xmlns="http://www.w3.org/2000/svg" xmlns:xlink="http://www.w3.org/1999/xlink" x="0px" y="0px"
	 width="80px" height="80px" viewBox="0 0 80 80" enable-background="new 0 0 80 80" xml:space="preserve">
<path fill-rule="evenodd" clip-rule="evenodd" fill="#FFFFFF" d="M40.421,36.764c0.139,0.322,0.277,0.643,0.426,0.989
	c-0.186,0.089-0.348,0.158-0.5,0.245c-0.104,0.06-0.324,0.061-0.191,0.291c0.007,0.012-0.098,0.125-0.147,0.123
	c-0.079-0.003-0.179-0.044-0.229-0.103c-0.455-0.539-1.093-0.782-1.693-1.092c-0.135-0.07-0.283-0.237-0.301-0.375
	c-0.013-0.1,0.158-0.267,0.284-0.334c0.458-0.247,0.932-0.463,1.429-0.794c-0.28-0.085-0.559-0.23-0.842-0.242
	c-0.429-0.019-0.866,0.107-1.294,0.081c-1.3-0.079-2.506,0.375-3.75,0.611c-0.327,0.062-0.389-0.173-0.55-0.325
	c3.478-1.747,9.322-2.033,14.094,1.112c-0.223-0.023-0.357-0.044-0.492-0.05c-0.887-0.038-1.774-0.077-2.662-0.105
	c-0.099-0.003-0.235,0.035-0.292,0.104c-0.16,0.195-0.044,0.379,0.23,0.419c1.186,0.175,2.37,0.368,3.558,0.528
	c0.973,0.131,1.75,0.57,2.362,1.335c0.47,0.587,0.968,1.153,1.509,1.795c-0.883-0.156-1.652-0.338-2.432-0.417
	c-0.949-0.095-1.906-0.107-2.86-0.139c-0.106-0.004-0.273,0.073-0.314,0.159c-0.104,0.214-0.025,0.332,0.245,0.36
	c1.082,0.114,2.169,0.209,3.239,0.396c0.85,0.148,1.68,0.415,2.516,0.641c0.106,0.029,0.242,0.104,0.283,0.194
	c0.408,0.911,0.799,1.829,1.193,2.745c0.011,0.027,0.001,0.062,0.001,0.118c-0.849-0.163-1.68-0.371-2.523-0.471
	c-1.189-0.141-2.388-0.204-3.583-0.288c-0.104-0.008-0.255,0.041-0.312,0.118c-0.155,0.211-0.04,0.367,0.252,0.403
	c1.201,0.151,2.407,0.269,3.598,0.478c0.894,0.158,1.768,0.433,2.647,0.669c0.097,0.026,0.233,0.127,0.247,0.21
	c0.157,0.971,0.294,1.946,0.449,2.999c-0.301-0.057-0.489-0.104-0.68-0.127c-1.199-0.147-2.399-0.292-3.6-0.429
	c-0.196-0.023-0.416-0.049-0.442,0.254c-0.028,0.319,0.228,0.242,0.388,0.275c1.304,0.27,2.607,0.538,3.914,0.794
	c0.258,0.052,0.351,0.167,0.313,0.43c-0.131,0.918-0.249,1.839-0.373,2.771c-0.587-0.059-1.083-0.112-1.578-0.156
	c-0.243-0.022-0.488-0.023-0.732-0.042c-0.203-0.017-0.31,0.062-0.337,0.27c-0.028,0.216,0.123,0.229,0.263,0.262
	c0.572,0.136,1.146,0.271,1.718,0.409c0.106,0.026,0.211,0.06,0.361,0.103c-0.122,0.335-0.215,0.666-0.359,0.971
	c-0.336,0.712-0.7,1.411-1.046,2.119c-0.088,0.181-0.199,0.203-0.397,0.174c-1.076-0.156-2.156-0.286-3.234-0.424
	c-0.066-0.008-0.153-0.031-0.196,0c-0.103,0.074-0.221,0.163-0.259,0.271c-0.017,0.052,0.124,0.217,0.215,0.238
	c0.953,0.215,1.911,0.41,2.866,0.612c0.108,0.023,0.213,0.057,0.361,0.095c-0.089,0.127-0.161,0.235-0.239,0.338
	c-0.699,0.927-1.503,1.752-2.385,2.508c-0.232,0.198-0.441,0.236-0.746,0.197c-1.077-0.14-2.161-0.231-3.244-0.329
	c-0.104-0.009-0.257,0.034-0.316,0.109c-0.15,0.19-0.05,0.363,0.209,0.411c0.852,0.159,1.703,0.317,2.554,0.476
	c0.064,0.012,0.126,0.036,0.265,0.075c-2.403,1.566-4.972,2.387-7.772,2.469c-3.339,0.097-6.37-0.833-9.095-2.824
	c0.609-0.086,1.218-0.176,1.829-0.256c0.462-0.06,0.927-0.105,1.391-0.157c0.155-0.018,0.317-0.015,0.299-0.255
	c-0.016-0.22-0.137-0.268-0.329-0.28c-1.304-0.08-2.6-0.027-3.882,0.226c-0.208,0.041-0.351,0-0.508-0.14
	c-0.921-0.814-1.729-1.727-2.43-2.734c-0.055-0.079-0.099-0.165-0.196-0.327c1.021-0.181,1.985-0.38,2.958-0.516
	c0.714-0.1,1.439-0.113,2.159-0.17c0.163-0.014,0.382,0.04,0.369-0.252c-0.012-0.275-0.198-0.266-0.395-0.279
	c-1.756-0.123-3.484,0.088-5.197,0.445c-0.281,0.059-0.413-0.011-0.542-0.259c-0.502-0.967-0.93-1.962-1.229-3.061
	c0.729-0.171,1.43-0.393,2.149-0.489c1.297-0.175,2.604-0.273,3.906-0.408c0.146-0.015,0.361,0.077,0.377-0.197
	c0.016-0.284-0.167-0.308-0.388-0.323c-1.733-0.124-3.439,0.076-5.136,0.404c-0.358,0.069-0.718,0.128-1.134,0.201
	c-0.084-0.536-0.181-1.045-0.24-1.558c-0.051-0.441-0.053-0.887-0.09-1.33c-0.017-0.201,0.048-0.287,0.251-0.342
	c2.066-0.563,4.154-0.965,6.309-0.932c0.137,0.002,0.305,0.04,0.311-0.192c0.005-0.229-0.109-0.308-0.325-0.321
	c-1.483-0.096-2.954-0.01-4.414,0.267c-0.686,0.13-1.375,0.248-2.135,0.383c0.08-0.635,0.143-1.236,0.235-1.833
	c0.058-0.373,0.169-0.736,0.239-1.107c0.039-0.204,0.136-0.307,0.342-0.337c1.317-0.196,2.632-0.405,3.951-0.592
	c0.251-0.036,0.398-0.111,0.287-0.367c-0.038-0.086-0.202-0.158-0.312-0.165c-1.179-0.066-2.354-0.026-3.52,0.187
	c-0.106,0.019-0.213,0.031-0.432,0.062c0.388-0.81,0.759-1.537,1.085-2.285c0.227-0.52,0.58-0.79,1.148-0.837
	c0.374-0.032,0.745-0.128,1.109-0.226c0.092-0.024,0.229-0.179,0.213-0.244c-0.025-0.105-0.151-0.257-0.245-0.265
	c-0.361-0.031-0.727-0.012-1.189-0.012c0.72-0.97,1.469-1.768,2.388-2.544c0.042,0.593,0.101,1.106,0.101,1.621
	c0,0.152-0.148,0.316-0.255,0.455c-0.371,0.483-0.483,1.013-0.337,1.603c0.042,0.173,0.101,0.347,0.105,0.521
	c0.016,0.806,0.452,1.337,1.043,1.832c0.724,0.604,1.392,1.277,2.065,1.938c0.226,0.222,0.424,0.252,0.71,0.039
	c-0.324-0.539-0.652-1.083-0.986-1.638c0.28-0.188,0.508-0.19,0.717,0.069c0.321,0.398,0.667,0.776,0.967,1.189
	c0.145,0.2,0.23,0.453,0.302,0.694c0.09,0.3,0.239,0.501,0.554,0.601c0.498,0.158,0.981,0.356,1.471,0.536
	c0.265,0.097,0.517,0.249,0.822,0.093c0.08-0.041,0.218,0.009,0.322,0.042c0.285,0.092,0.563,0.204,0.849,0.296
	c0.338,0.11,0.596,0.268,0.598,0.685c0.001,0.254,0.186,0.336,0.419,0.3c0.275-0.042,0.548-0.089,0.821-0.142
	c0.226-0.043,0.375,0.043,0.509,0.226c0.287,0.396,0.406,0.804,0.193,1.275c-0.072,0.161-0.117,0.335-0.163,0.507
	c-0.106,0.397-0.35,0.759-0.179,1.217c0.258,0.693,0.556,1.333,1.277,1.667c0.342,0.159,0.676,0.336,1.01,0.513
	c0.62,0.329,0.784,0.664,0.667,1.362c-0.169,1.008-0.343,2.015-0.514,3.022c-0.013,0.077-0.055,0.167-0.028,0.228
	c0.225,0.53-0.083,1.017-0.11,1.524c-0.013,0.232-0.041,0.466-0.028,0.698c0.019,0.363,0.168,0.543,0.547,0.702
	c0.16-0.229,0.325-0.463,0.488-0.698c0.678-0.977,1.354-1.955,2.035-2.929c0.073-0.104,0.18-0.261,0.273-0.261
	c0.341-0.004,0.478-0.237,0.635-0.468c0.231-0.34,0.464-0.679,0.704-1.012c0.255-0.355,0.468-0.742,0.934-0.905
	c0.189-0.066,0.353-0.27,0.478-0.446c0.655-0.926,1.286-1.867,1.941-2.792c0.171-0.241,0.149-0.424-0.054-0.61
	c-0.394-0.358-0.772-0.738-1.19-1.066c-0.178-0.141-0.451-0.152-0.658-0.265c-0.182-0.101-0.348-0.245-0.49-0.398
	c-0.146-0.157-0.217-0.408-0.387-0.513c-1.133-0.7-2.266-1.403-3.438-2.032c-0.371-0.198-0.859-0.197-1.299-0.239
	c-0.452-0.044-0.911-0.027-1.366-0.042c-0.3-0.01-0.521,0.113-0.641,0.385c-0.115,0.262-0.317,0.386-0.584,0.438
	c-0.261,0.052-0.521,0.109-0.782,0.167c-0.257,0.058-0.437-0.002-0.48-0.295c-0.011-0.077-0.053-0.149-0.061-0.225
	c-0.027-0.258-0.166-0.364-0.422-0.345c-0.309,0.021-0.396-0.135-0.312-0.416c0.05-0.169,0.095-0.339,0.141-0.508
	c-0.47-0.153-0.556-0.118-0.842,0.257c-0.059,0.077-0.175,0.142-0.273,0.154c-0.329,0.044-0.661,0.062-1.052,0.094
	c-0.079-0.359-0.196-0.697-0.22-1.042c-0.034-0.496-0.008-0.997,0.012-1.495c0.004-0.111,0.058-0.276,0.141-0.32
	c0.445-0.24,0.897-0.458,1.441-0.373c0.206,0.031,0.431-0.056,0.646-0.099c0.675-0.136,0.861-0.005,1.138,0.632
	c0.127,0.292,0.351,0.571,0.598,0.774c0.324,0.265,0.546,0.148,0.562-0.266c0.008-0.212-0.037-0.447-0.126-0.638
	c-0.164-0.351-0.384-0.676-0.572-1.016c-0.207-0.372-0.185-0.552,0.098-0.869c0.155-0.174,0.312-0.348,0.479-0.51
	c0.226-0.221,0.377-0.448,0.291-0.795c-0.027-0.11,0.052-0.288,0.141-0.378c0.63-0.643,1.273-1.272,1.917-1.901
	c0.057-0.056,0.146-0.085,0.225-0.111c0.204-0.067,0.41-0.124,0.615-0.186c0.001-0.03,0.001-0.06,0.001-0.089
	c-0.478-0.255-0.956-0.51-1.435-0.764c-0.333-0.176-0.671-0.346-1.002-0.529C40.92,36.632,40.684,36.607,40.421,36.764z"/>
<path fill-rule="evenodd" clip-rule="evenodd" fill="#FFFFFF" d="M30.953,23.1c-0.395-0.411-0.692-0.425-1.065-0.069
	c-0.748,0.713-1.499,1.423-2.244,2.14c-0.36,0.346-0.786,0.554-1.281,0.566c-0.751,0.02-1.503,0.005-2.255,0.005
	c-0.031-0.034-0.062-0.068-0.093-0.103c0.087-0.043,0.19-0.069,0.26-0.132c1.403-1.281,2.804-2.565,4.198-3.856
	c0.092-0.085,0.119-0.241,0.177-0.363c-0.186-0.072-0.373-0.203-0.557-0.201c-0.155,0.002-0.312,0.152-0.458,0.252
	c-1.964,1.339-3.929,2.679-5.888,4.026c-0.324,0.223-0.659,0.346-1.055,0.34c-1.143-0.018-2.288,0.006-3.43-0.04
	c-1.447-0.058-2.606-0.812-3.718-1.649c-0.206-0.155-0.131-0.347,0.002-0.49c0.109-0.118,0.265-0.2,0.411-0.273
	c3.909-1.965,7.821-3.924,11.729-5.892c1.18-0.595,2.347-1.218,3.522-1.82c0.651-0.334,1.283-0.378,1.899,0.116
	c0.345,0.277,0.728,0.51,1.102,0.749c0.166,0.106,0.196,0.224,0.178,0.416c-0.146,1.622-0.067,1.39,1.188,1.747
	c0.501,0.143,1.015,0.242,1.527,0.347c0.466,0.094,0.975,0.105,1.115,0.742c0.275-0.125,0.5-0.214,0.712-0.326
	c0.313-0.165,0.61-0.156,0.918,0.016c0.329,0.184,0.663,0.363,1.008,0.516c0.11,0.049,0.279,0.047,0.39-0.001
	c0.314-0.137,0.62-0.3,0.917-0.474c0.357-0.21,0.703-0.235,1.069-0.025c0.181,0.104,0.38,0.175,0.616,0.281
	c0.219-0.719,0.87-0.645,1.408-0.783c0.677-0.174,1.355-0.346,2.035-0.508c0.325-0.078,0.461-0.29,0.465-0.6
	c0.002-0.255,0.014-0.516-0.034-0.764c-0.061-0.315,0.009-0.517,0.3-0.682c0.356-0.202,0.701-0.434,1.022-0.688
	c0.577-0.456,1.18-0.415,1.78-0.105c2.607,1.342,5.196,2.718,7.812,4.043c2.467,1.249,4.96,2.447,7.441,3.669
	c0.12,0.059,0.244,0.11,0.353,0.186c0.296,0.206,0.295,0.478,0.008,0.688c-0.965,0.707-1.956,1.418-3.183,1.505
	c-1.404,0.098-2.817,0.071-4.227,0.065c-0.209,0-0.438-0.152-0.626-0.28c-1.922-1.303-3.837-2.616-5.755-3.925
	c-0.183-0.125-0.369-0.25-0.562-0.357c-0.27-0.151-0.477-0.001-0.635,0.192c-0.036,0.042,0.047,0.236,0.124,0.308
	c1.016,0.947,2.041,1.884,3.064,2.824c0.457,0.419,0.914,0.837,1.447,1.327c-0.499,0-0.907-0.036-1.308,0.007
	c-1.2,0.13-2.162-0.258-2.96-1.17c-0.482-0.549-1.048-1.025-1.579-1.531c-0.088-0.084-0.177-0.174-0.282-0.231
	c-0.283-0.153-0.533-0.015-0.721,0.17c-0.049,0.049,0.051,0.308,0.139,0.429c0.649,0.901,1.299,1.804,1.979,2.682
	c0.22,0.284,0.137,0.46-0.085,0.641c-0.538,0.438-1.186,0.623-1.852,0.674c-0.841,0.064-1.687,0.057-2.531,0.057
	c-0.098-0.001-0.247-0.13-0.286-0.232c-0.252-0.664-0.473-1.34-0.725-2.005c-0.046-0.12-0.195-0.293-0.285-0.287
	c-0.236,0.018-0.544-0.012-0.634,0.312c-0.263,0.953-0.526,1.905-0.767,2.864c-0.037,0.146,0.005,0.34,0.074,0.481
	c0.174,0.357,0.352,0.72,0.584,1.041c0.957,1.324,1.928,2.637,2.909,3.943c0.167,0.222,0.157,0.378,0.001,0.587
	c-0.646,0.863-0.643,0.865-1.66,0.517c-0.147-0.05-0.293-0.121-0.444-0.141c-0.547-0.072-0.864-0.385-1.102-0.873
	c-0.312-0.637-0.708-1.233-1.041-1.861c-0.139-0.262-0.287-0.313-0.559-0.21c-0.276,0.104-0.396,0.254-0.322,0.552
	c0.125,0.507,0.241,1.016,0.359,1.524c0.018,0.074,0.029,0.15,0.041,0.219c-1.321,0-2.63,0-3.972,0
	c0.125-0.541,0.257-1.11,0.387-1.679c0.095-0.414-0.132-0.703-0.556-0.669c-0.099,0.008-0.218,0.134-0.277,0.236
	c-0.448,0.767-0.876,1.546-1.331,2.31c-0.08,0.134-0.242,0.249-0.392,0.305c-0.477,0.18-0.97,0.318-1.45,0.492
	c-0.256,0.093-0.447,0.036-0.627-0.156c-0.729-0.781-0.731-0.779-0.111-1.622c0.855-1.164,1.712-2.327,2.566-3.492
	c0.111-0.152,0.216-0.309,0.313-0.471c0.292-0.484,0.406-0.97,0.208-1.547c-0.256-0.744-0.431-1.516-0.621-2.281
	c-0.087-0.351-0.368-0.336-0.622-0.389c-0.263-0.055-0.28,0.162-0.337,0.32c-0.238,0.658-0.466,1.319-0.711,1.974
	c-0.035,0.096-0.141,0.238-0.213,0.236c-1.163-0.009-2.341,0.136-3.473-0.241c-0.342-0.114-0.678-0.284-0.973-0.489
	c-0.321-0.223-0.308-0.335-0.076-0.649c0.665-0.903,1.331-1.807,1.995-2.712C30.825,23.298,30.889,23.195,30.953,23.1z"/>
<path fill-rule="evenodd" clip-rule="evenodd" fill="#FFFFFF" d="M30.362,72.172c0.167-0.646,0.319-1.259,0.485-1.869
	c0.073-0.267,0.004-0.367-0.286-0.406c-4.932-0.662-9.431-2.545-13.756-4.91c-0.102-0.056-0.185-0.153-0.267-0.24
	c-0.113-0.121-0.192-0.301-0.329-0.37c-0.445-0.222-0.647-0.598-0.765-1.048c-0.011-0.042-0.03-0.085-0.057-0.121
	c-0.504-0.677-0.887-1.419-1.213-2.196c-0.127-0.302-0.314-0.579-0.439-0.882c-0.125-0.303-0.206-0.625-0.314-0.962
	c0.789,0.015,1.255-0.48,1.69-1.032c0.072-0.092,0.201-0.211,0.294-0.204c0.604,0.043,1.009-0.273,1.367-0.694
	c0.072-0.084,0.148-0.17,0.199-0.267c0.146-0.275,0.326-0.419,0.672-0.476c0.582-0.094,0.883-0.592,1.156-1.073
	c0.076-0.133,0.123-0.344,0.232-0.384c0.232-0.083,0.495-0.092,0.747-0.105c0.3-0.015,0.603-0.003,0.932-0.003
	c-0.153,0.78,0.155,1.505,0.542,2.211c0.021,0.038,0.043,0.083,0.043,0.124c-0.001,0.818,0.421,1.455,0.898,2.083
	c-0.046,0.065-0.09,0.127-0.132,0.188c-0.438,0.63-0.459,1.255,0.082,1.786c0.662,0.651,1.36,1.29,2.129,1.803
	c1.764,1.177,3.565,2.3,5.384,3.392c0.535,0.321,0.765,0.727,0.825,1.301c0.074,0.702,0.081,0.726,0.778,0.713
	c1.22-0.024,2.44-0.073,3.659-0.131c0.204-0.009,0.419-0.084,0.598-0.186c0.126-0.071,0.199-0.236,0.296-0.359
	c-0.025-0.041-0.05-0.081-0.075-0.121c-0.407,0-0.82,0.044-1.221-0.009c-0.99-0.129-1.974-0.299-2.959-0.462
	c-0.099-0.016-0.229-0.078-0.273-0.158c-0.417-0.742-0.665-1.539-0.764-2.458c3.036,1.368,6.014,2.714,9.437,2.896
	c-1.023,1.489-2.32,2.585-3.803,3.48C34.374,72.096,32.453,72.467,30.362,72.172z"/>
<path fill-rule="evenodd" clip-rule="evenodd" fill="#FFFFFF" d="M52.482,35.844c1.198-0.557,2.373-1.103,3.585-1.665
	c0.707,1.517,1.408,3.021,2.11,4.527c0.65-0.195,1.225-0.466,1.648-0.977c0.07-0.085,0.077-0.244,0.072-0.367
	c-0.063-1.505,0.299-2.884,1.195-4.108c0.089-0.123,0.19-0.238,0.311-0.348c-0.207,0.787,0.073,1.458,0.493,2.069
	c0.235,0.341,0.223,0.672,0.182,1.039c-0.047,0.418-0.086,0.838-0.092,1.258c-0.002,0.113,0.1,0.269,0.201,0.334
	c0.875,0.574,1.216,1.356,1.038,2.403c-0.017,0.096-0.011,0.235,0.046,0.3c1.183,1.332,3.027,1.877,4.576,1.092
	c1.304-0.662,2.093-2.168,1.967-3.8c-0.113-1.457-0.734-2.656-1.86-3.597c-0.115-0.096-0.185-0.255-0.253-0.396
	c-0.153-0.318-0.264-0.66-0.449-0.958c-0.125-0.203-0.19-0.375-0.145-0.613c0.043-0.225,0.029-0.461,0.042-0.738
	c0.129,0.041,0.243,0.067,0.35,0.111c2.529,1.036,3.969,2.944,4.329,5.62c0.293,2.174-0.342,4.086-2.047,5.533
	c-1.955,1.658-4.8,1.678-6.983,0.095c-0.358-0.259-0.669-0.583-1.009-0.868c-0.077-0.065-0.197-0.156-0.272-0.137
	c-0.326,0.083-0.529-0.104-0.779-0.255c-0.304-0.185-0.661-0.284-0.994-0.422c-0.088-0.036-0.195-0.059-0.259-0.122
	c-0.38-0.37-0.846-0.559-1.348-0.69c-0.138-0.037-0.281-0.12-0.381-0.223c-0.418-0.43-0.952-0.587-1.517-0.698
	c-0.147-0.029-0.308-0.109-0.413-0.215c-0.449-0.454-1.014-0.653-1.617-0.703c-0.473-0.04-0.73-0.236-0.903-0.671
	C53.068,37.046,52.769,36.463,52.482,35.844z"/>
<path fill-rule="evenodd" clip-rule="evenodd" fill="#FFFFFF" d="M35.583,11.934c-0.269,0.091-0.465,0.019-0.635-0.179
	c-0.731-0.849-1.49-1.676-2.195-2.545c-0.705-0.87-0.332-1.607,0.38-2.069c0.502-0.326,1.102-0.507,1.667-0.727
	c0.101-0.039,0.258,0.028,0.376,0.078c0.688,0.283,1.359,0.614,2.062,0.851c0.475,0.16,0.993,0.263,1.491,0.267
	c3.635,0.023,7.269,0.014,10.903,0.017c0.391,0,0.538,0.145,0.567,0.537c0.007,0.1,0.007,0.2,0.008,0.299
	c0.004,0.458,0.116,0.559,0.567,0.41c0.377-0.125,0.733-0.312,1.099-0.473c0.14-0.062,0.278-0.126,0.412-0.187
	c0.186,0.187,0.168,0.347,0.03,0.521c-0.213,0.27-0.408,0.556-0.63,0.819c-0.13,0.155-0.108,0.268,0.021,0.398
	c0.218,0.223,0.479,0.313,0.786,0.272c0.331-0.044,0.659-0.111,0.991-0.131c0.162-0.01,0.329,0.064,0.498,0.1
	c-0.027,0.106-0.026,0.139-0.039,0.146c-0.904,0.553-1.839,1.035-2.88,1.277c-0.161,0.037-0.331,0.05-0.496,0.052
	c-0.649,0.006-0.856-0.201-0.856-0.838c0-0.143,0-0.286,0-0.461c-0.176-0.01-0.327-0.027-0.478-0.027
	c-3.913-0.001-7.824-0.006-11.737,0.005c-0.45,0.001-0.853-0.079-1.233-0.319c-0.244-0.155-0.505-0.281-0.759-0.419
	c-0.326-0.179-0.7-0.079-0.875,0.258c-0.041,0.077-0.013,0.217,0.032,0.303c0.263,0.514,0.54,1.021,0.812,1.531
	C35.512,11.774,35.545,11.854,35.583,11.934z"/>
<path fill-rule="evenodd" clip-rule="evenodd" fill="#FFFFFF" d="M12.561,56.321c-0.213-0.441-0.169-0.81-0.076-1.199
	c0.927-3.87,2.198-7.61,4.151-11.095c0.292-0.522,0.628-1.021,0.927-1.541c0.22-0.383,0.535-0.549,0.974-0.576
	c1.049-0.065,1.188,0.087,1.421,1.107c0.225,0.984-0.064,1.892-0.226,2.825c-0.278,1.618-0.561,3.236-0.849,4.853
	c-0.022,0.122-0.092,0.242-0.164,0.347c-0.15,0.219-0.374,0.405-0.463,0.644c-0.187,0.498-0.52,0.83-0.93,1.147
	c-0.289,0.223-0.434,0.629-0.721,0.854c-0.287,0.225-0.7,0.285-1.004,0.495c-0.284,0.196-0.493,0.498-0.742,0.746
	c-0.072,0.072-0.162,0.142-0.257,0.174c-0.601,0.199-1.136,0.479-1.525,1.012C12.984,56.244,12.734,56.257,12.561,56.321z"/>
<path fill-rule="evenodd" clip-rule="evenodd" fill="#FFFFFF" d="M15.189,40.546c0.206-0.304,0.354-0.578,0.554-0.807
	c1.799-2.069,4.088-3.267,6.766-3.752c1.252-0.227,2.516-0.26,3.782-0.135c0.053,0.005,0.104,0.021,0.211,0.042
	c-2.077,2.67-3.168,5.78-4.314,8.891c-0.708-0.55-1.236-1.197-1.494-2.05c-0.105-0.35-0.228-0.695-0.361-1.036
	c-0.151-0.385-0.459-0.596-0.862-0.546c-0.512,0.063-1.024,0.167-1.521,0.31c-0.263,0.075-0.484,0.098-0.734-0.016
	C16.564,41.148,15.906,40.863,15.189,40.546z M20.87,37.915c-0.706-0.248-1.543,0.185-1.794,0.878
	c-0.255,0.709,0.113,1.467,0.836,1.719c0.679,0.237,1.49-0.093,1.705-0.722c-0.603,0.113-1.219,0.164-1.472-0.528
	C19.913,38.63,20.366,38.259,20.87,37.915z"/>
<path fill-rule="evenodd" clip-rule="evenodd" fill="#FFFFFF" d="M61.862,46.644c-0.383,0.333-1.127,0.337-0.924,1.188
	c0.348-0.161,0.644-0.299,0.941-0.435c0.182-0.083,0.362-0.169,0.547-0.245c0.203-0.082,0.35-0.051,0.445,0.185
	c0.31,0.767,0.554,0.666-0.41,1.115c-1.117,0.52-2.234,1.039-3.352,1.557c-0.49,0.227-0.52,0.214-0.743-0.271
	c-0.004-0.01-0.008-0.021-0.013-0.03c-0.22-0.48-0.22-0.48,0.193-0.811c-0.787-1.693-1.577-3.39-2.382-5.123
	c-0.752,0.343-1.485,0.675-2.182,0.993c-0.536-1.176-1.066-2.341-1.614-3.545c0.087,0.016,0.201,0.014,0.292,0.059
	c0.375,0.188,0.759,0.299,1.187,0.257c0.114-0.011,0.256,0.05,0.353,0.123c0.399,0.299,0.822,0.521,1.336,0.536
	c0.084,0.003,0.19,0.06,0.245,0.126c0.384,0.457,0.879,0.734,1.423,0.953c0.199,0.08,0.374,0.223,0.558,0.341
	c0.046,0.03,0.084,0.072,0.128,0.106c0.34,0.262,2.536,1.207,2.958,1.251c0.191,0.02,0.294,0.094,0.37,0.267
	C61.425,45.712,61.649,46.182,61.862,46.644z"/>
<path fill-rule="evenodd" clip-rule="evenodd" fill="#FFFFFF" d="M42.122,18.631c-0.381-0.158-0.701-0.28-1.011-0.421
	c-0.295-0.134-0.574-0.126-0.863,0.019c-0.404,0.205-0.816,0.548-1.225,0.548c-0.395,0-0.792-0.355-1.185-0.563
	c-0.299-0.159-0.588-0.159-0.89-0.002c-0.264,0.138-0.538,0.253-0.874,0.409c0.097-0.338,0.172-0.611,0.253-0.882
	c0.223-0.745,0.433-1.494,0.68-2.23c0.09-0.27,0.024-0.391-0.21-0.521c-0.524-0.29-1.025-0.624-1.55-0.913
	c-0.225-0.123-0.486-0.179-0.762-0.278c0.23-0.364,0.486-0.812,0.79-1.222c0.084-0.115,0.314-0.178,0.475-0.173
	c0.533,0.015,1.064,0.063,1.594,0.119c0.084,0.009,0.184,0.107,0.232,0.19c0.168,0.287,0.317,0.583,0.491,0.908
	c0.266-0.08,0.531-0.149,0.788-0.24c0.233-0.082,0.208-0.261,0.067-0.389c-0.178-0.162-0.393-0.284-0.595-0.417
	c-0.118-0.077-0.243-0.144-0.386-0.228c0.427-0.186,0.794-0.25,1.189,0.023c0.373,0.257,0.812,0.42,1.184,0.677
	c0.213,0.147,0.447,0.376,0.512,0.611C41.275,15.28,41.681,16.917,42.122,18.631z"/>
<path fill-rule="evenodd" clip-rule="evenodd" fill="#FFFFFF" d="M54.413,32.187c-0.397,0.188-0.777,0.361-1.151,0.546
	c-0.354,0.176-0.445,0.416-0.305,0.828c0.109-0.04,0.221-0.074,0.326-0.123c0.714-0.33,1.426-0.667,2.143-0.993
	c0.402-0.183,0.437-0.164,0.624,0.234c0.304,0.651,0.306,0.654-0.347,0.958c-1.156,0.54-2.313,1.076-3.471,1.61
	c-0.474,0.218-0.507,0.204-0.72-0.254c-0.051-0.111-0.131-0.218-0.144-0.334c-0.013-0.109,0.005-0.277,0.077-0.331
	c0.438-0.325,0.51-0.777,0.417-1.25c-0.074-0.379,0.03-0.566,0.386-0.7c0.425-0.161,0.827-0.377,1.239-0.569
	C54.04,31.552,54.045,31.554,54.413,32.187z"/>
<path fill-rule="evenodd" clip-rule="evenodd" fill="#FFFFFF" d="M34.98,14.599c0.348,0.12,0.386,0.294,0.349,0.553
	c-0.099,0.69-0.165,1.385-0.244,2.078c-0.013,0.107-0.032,0.213-0.058,0.383c-0.418-0.082-0.809-0.141-1.19-0.238
	c-0.321-0.082-0.458-0.334-0.365-0.64c0.103-0.333,0.219-0.685,0.425-0.957C34.218,15.351,34.621,14.982,34.98,14.599z"/>
<path fill-rule="evenodd" clip-rule="evenodd" fill="#FFFFFF" d="M10.448,60.649c0.112,0.279,0.215,0.558,0.335,0.829
	c0.19,0.431,0.392,0.857,0.601,1.312c-0.123,0-0.292-0.006-0.462,0.001c-0.587,0.027-1.174,0.061-1.762,0.088
	c-0.132,0.006-0.267,0.01-0.397-0.007c-0.232-0.029-0.249-0.188-0.187-0.369c0.021-0.061,0.067-0.117,0.115-0.162
	C9.255,61.795,9.822,61.25,10.448,60.649z"/>
<path fill-rule="evenodd" clip-rule="evenodd" fill="#FFFFFF" d="M25.752,57.706c-0.183,0.082-0.412,0.186-0.595,0.269
	c-0.28-0.34-0.54-0.65-0.791-0.967c-0.042-0.053-0.057-0.14-0.058-0.212c-0.011-0.478-0.132-0.919-0.406-1.316
	c-0.04-0.057-0.062-0.141-0.058-0.21c0.027-0.471,0.062-0.942,0.098-1.413c0.003-0.049,0.036-0.096,0.045-0.117
	C24.568,55.046,25.152,56.358,25.752,57.706z"/>
<path fill-rule="evenodd" clip-rule="evenodd" fill="#FFFFFF" d="M23.865,69.46c0.779-0.183,1.52,0.231,1.786,0.992
	c0.074,0.212,0.262,0.386,0.401,0.574c0.05,0.067,0.111,0.125,0.203,0.229c-0.453,0.211-0.869,0.368-1.335,0.31
	c-0.256-0.032-0.419-0.19-0.476-0.444c-0.043-0.194-0.053-0.399-0.122-0.583C24.187,70.177,24.023,69.829,23.865,69.46z"/>
<path fill-rule="evenodd" clip-rule="evenodd" fill="#FFFFFF" d="M62.375,34.76c-0.156-0.473-0.31-0.849-0.4-1.24
	c-0.076-0.326,0.101-0.549,0.42-0.658c0.252-0.085,0.518-0.15,0.746-0.28c0.259-0.148,0.483-0.357,0.721-0.538
	c0.336,0.625,0.028,1.608-0.617,1.904c-0.27,0.123-0.517,0.254-0.615,0.563C62.611,34.574,62.528,34.615,62.375,34.76z"/>
<path fill-rule="evenodd" clip-rule="evenodd" fill="#FFFFFF" d="M66.41,37.625c-0.438-0.677-0.3-1.519,0.32-2.033
	c0.172-0.144,0.269-0.381,0.397-0.577c0.046-0.07,0.085-0.144,0.149-0.256c0.353,0.337,0.622,0.679,0.74,1.117
	c0.074,0.274-0.015,0.502-0.271,0.651c-0.162,0.096-0.338,0.177-0.479,0.298C66.975,37.075,66.703,37.348,66.41,37.625z"/>
<path fill-rule="evenodd" clip-rule="evenodd" fill="#FFFFFF" d="M64.925,35.704c0.237,0.414,0.466,0.739,0.618,1.098
	c0.148,0.348,0.027,0.579-0.308,0.775c-0.172,0.101-0.366,0.175-0.517,0.3c-0.28,0.231-0.536,0.492-0.798,0.738
	c-0.427-0.669-0.262-1.546,0.37-2.025c0.179-0.136,0.287-0.368,0.425-0.559C64.769,35.957,64.815,35.876,64.925,35.704z"/>
<path fill-rule="evenodd" clip-rule="evenodd" fill="#FFFFFF" d="M68.421,36.627c0.193,0.457,0.377,0.817,0.497,1.198
	c0.1,0.313-0.043,0.561-0.357,0.692c-0.225,0.094-0.466,0.165-0.666,0.298c-0.222,0.147-0.405,0.354-0.606,0.533
	c-0.046,0.042-0.096,0.078-0.147,0.12c-0.382-0.73-0.121-1.612,0.549-2.017c0.193-0.117,0.327-0.333,0.484-0.507
	C68.237,36.876,68.289,36.799,68.421,36.627z"/>
<path fill-rule="evenodd" clip-rule="evenodd" fill="#FFFFFF" d="M20.164,52.951c-0.173,0.416-0.289,0.786-0.473,1.117
	c-0.197,0.352-0.448,0.4-0.823,0.243c-0.174-0.073-0.339-0.176-0.52-0.219c-0.353-0.083-0.713-0.135-1.074-0.2
	c0.114-0.594,1.037-1.167,1.658-0.967c0.309,0.1,0.61,0.208,0.926,0.016C19.902,52.913,19.981,52.942,20.164,52.951z"/>
<path fill-rule="evenodd" clip-rule="evenodd" fill="#FFFFFF" d="M66.124,37.761c0.137,0.445,0.283,0.803,0.352,1.176
	c0.07,0.376-0.092,0.579-0.456,0.697c-0.189,0.061-0.395,0.086-0.57,0.174c-0.324,0.163-0.63,0.359-0.944,0.541
	c-0.288-0.608,0.06-1.574,0.697-1.828c0.283-0.112,0.551-0.229,0.667-0.548C65.892,37.914,65.979,37.879,66.124,37.761z"/>
<path fill-rule="evenodd" clip-rule="evenodd" fill="#FFFFFF" d="M20.064,68.627c0.522,0.181,0.917,0.456,1.185,0.882
	c0.083,0.132,0.135,0.314,0.125,0.469c-0.023,0.384-0.146,0.771,0.146,1.115c0.012,0.014-0.105,0.199-0.17,0.205
	c-0.174,0.014-0.354-0.017-0.528-0.048c-0.771-0.139-0.946-0.412-0.768-1.17c0.101-0.43,0.24-0.863-0.013-1.292
	C20.025,68.761,20.051,68.708,20.064,68.627z"/>
<path fill-rule="evenodd" clip-rule="evenodd" fill="#FFFFFF" d="M19.884,48.855c-0.047-0.497-0.016-1.007,0.292-1.458
	c0.088-0.128,0.241-0.232,0.386-0.293c0.336-0.142,0.702-0.225,0.857-0.619c0.015-0.04,0.087-0.058,0.174-0.111
	c0.227,0.44,0.433,0.874,0.336,1.359c-0.034,0.167-0.23,0.334-0.394,0.432c-0.164,0.097-0.391,0.083-0.572,0.162
	C20.61,48.48,20.27,48.664,19.884,48.855z"/>
<path fill-rule="evenodd" clip-rule="evenodd" fill="#FFFFFF" d="M66.421,31.027c0.332,0.682,0.052,1.542-0.637,1.932
	c-0.196,0.11-0.333,0.326-0.495,0.497c-0.063,0.067-0.116,0.142-0.206,0.253c-0.271-0.418-0.5-0.79-0.529-1.251
	c-0.018-0.276,0.1-0.469,0.357-0.575c0.164-0.066,0.34-0.112,0.491-0.202C65.75,31.473,66.085,31.245,66.421,31.027z"/>
<path fill-rule="evenodd" clip-rule="evenodd" fill="#FFFFFF" d="M23.885,71.601c-0.485,0.087-0.919,0.115-1.346-0.049
	c-0.257-0.099-0.371-0.303-0.356-0.577c0.013-0.221,0.06-0.445,0.037-0.662c-0.038-0.359-0.121-0.714-0.184-1.068
	c0.71-0.039,1.445,0.609,1.469,1.337c0.008,0.281,0.028,0.55,0.264,0.756C23.823,71.386,23.835,71.484,23.885,71.601z"/>
<path fill-rule="evenodd" clip-rule="evenodd" fill="#FFFFFF" d="M61.149,44.375c-0.449-0.025-0.867-0.098-1.238-0.34
	c-0.238-0.155-0.329-0.379-0.239-0.662c0.057-0.179,0.135-0.356,0.161-0.54c0.053-0.378,0.077-0.761,0.114-1.155
	c0.482-0.002,1.241,0.842,1.15,1.396c-0.063,0.384-0.168,0.757,0.073,1.119C61.192,44.227,61.16,44.295,61.149,44.375z"/>
<path fill-rule="evenodd" clip-rule="evenodd" fill="#FFFFFF" d="M53.485,40.925c-0.438-0.1-0.857-0.297-1.163-0.665
	c-0.125-0.15-0.214-0.369-0.228-0.563c-0.026-0.375,0.024-0.757-0.297-1.047c-0.028-0.025-0.009-0.102-0.018-0.254
	c0.437,0.05,0.852,0.064,1.251,0.154c0.302,0.067,0.438,0.317,0.396,0.64c-0.022,0.165-0.062,0.331-0.052,0.494
	C53.397,40.088,53.445,40.489,53.485,40.925z"/>
<path fill-rule="evenodd" clip-rule="evenodd" fill="#FFFFFF" d="M18.482,67.606c0.392,0.262,0.725,0.601,0.881,1.067
	c0.062,0.186,0.059,0.42,0.005,0.611c-0.094,0.341-0.271,0.662-0.077,1.021c0.014,0.025,0.005,0.066-0.002,0.098
	c-0.007,0.031-0.026,0.059-0.082,0.174c-0.361-0.179-0.736-0.331-1.073-0.543c-0.276-0.175-0.324-0.461-0.173-0.764
	c0.084-0.169,0.193-0.331,0.244-0.509C18.311,68.394,18.385,68.018,18.482,67.606z"/>
<path fill-rule="evenodd" clip-rule="evenodd" fill="#FFFFFF" d="M21.276,50.924c-0.088,0.434-0.132,0.827-0.252,1.197
	c-0.113,0.349-0.348,0.444-0.709,0.38c-0.175-0.031-0.346-0.098-0.52-0.103c-0.381-0.011-0.765,0.006-1.152,0.012
	c-0.017-0.513,0.703-1.305,1.253-1.288c0.395,0.013,0.796,0.105,1.136-0.195C21.056,50.905,21.115,50.924,21.276,50.924z"/>
<path fill-rule="evenodd" clip-rule="evenodd" fill="#FFFFFF" d="M21.851,48.681c0,0.454,0.033,0.83-0.009,1.196
	c-0.045,0.396-0.26,0.547-0.659,0.551c-0.177,0.001-0.358-0.036-0.53-0.008c-0.38,0.06-0.755,0.149-1.133,0.227
	c-0.084-0.674,0.546-1.473,1.258-1.524c0.292-0.021,0.571-0.057,0.772-0.312C21.59,48.761,21.681,48.751,21.851,48.681z"/>
<path fill-rule="evenodd" clip-rule="evenodd" fill="#FFFFFF" d="M18.534,54.685c-0.268,0.394-0.464,0.739-0.717,1.036
	c-0.236,0.275-0.489,0.271-0.806,0.075c-0.16-0.1-0.306-0.229-0.478-0.302c-0.333-0.143-0.679-0.256-1.019-0.381
	c0.278-0.594,1.244-0.949,1.853-0.632c0.26,0.136,0.512,0.263,0.821,0.157C18.255,54.613,18.344,54.655,18.534,54.685z"/>
<path fill-rule="evenodd" clip-rule="evenodd" fill="#FFFFFF" d="M16.805,56.178c-0.303,0.368-0.521,0.688-0.794,0.951
	c-0.278,0.268-0.528,0.244-0.836,0.006c-0.149-0.116-0.282-0.259-0.445-0.349c-0.319-0.174-0.653-0.32-0.979-0.476
	c0.396-0.603,1.347-0.821,1.971-0.407c0.229,0.152,0.456,0.27,0.745,0.201C16.531,56.09,16.608,56.133,16.805,56.178z"/>
<path fill-rule="evenodd" clip-rule="evenodd" fill="#FFFFFF" d="M23.427,54.113c-0.088,0.405-0.138,0.823-0.279,1.208
	c-0.071,0.193-0.279,0.388-0.472,0.472c-0.347,0.15-0.72,0.231-0.9,0.618c-0.014,0.03-0.075,0.039-0.154,0.075
	c-0.223-0.434-0.416-0.874-0.29-1.355c0.042-0.161,0.258-0.317,0.431-0.394c0.239-0.105,0.523-0.108,0.769-0.204
	c0.209-0.081,0.393-0.23,0.586-0.351c0.065-0.04,0.127-0.086,0.19-0.13C23.348,54.073,23.388,54.092,23.427,54.113z"/>
<path fill-rule="evenodd" clip-rule="evenodd" fill="#FFFFFF" d="M15.719,64.779c0.631,0.452,0.783,1.237,0.333,1.878
	c-0.188,0.268-0.346,0.539-0.305,0.886c0.008,0.067-0.038,0.139-0.077,0.269c-0.392-0.31-0.755-0.594-0.895-1.038
	c-0.056-0.176,0.03-0.417,0.104-0.607c0.053-0.136,0.215-0.225,0.291-0.357C15.361,65.479,15.531,65.136,15.719,64.779z"/>
<path fill-rule="evenodd" clip-rule="evenodd" fill="#FFFFFF" d="M16.886,66.341c0.798,0.43,1.015,1.125,0.676,1.895
	c-0.11,0.25-0.108,0.548-0.153,0.825c-0.014,0.082-0.013,0.166-0.023,0.333c-0.464-0.278-0.889-0.5-1.088-0.957
	c-0.067-0.152-0.027-0.389,0.042-0.555c0.119-0.284,0.331-0.53,0.443-0.816C16.866,66.854,16.853,66.604,16.886,66.341z"/>
<path fill-rule="evenodd" clip-rule="evenodd" fill="#FFFFFF" d="M54.006,38.909c0.457,0.053,0.893,0.146,1.263,0.436
	c0.192,0.15,0.258,0.348,0.195,0.592c-0.052,0.204-0.114,0.414-0.113,0.62c0.001,0.32,0.051,0.639,0.081,0.961
	c-0.511,0.061-1.273-0.538-1.262-1.072c0.011-0.486,0.104-0.971-0.194-1.411C53.965,39.018,53.99,38.975,54.006,38.909z"/>
<path fill-rule="evenodd" clip-rule="evenodd" fill="#FFFFFF" d="M23.779,52.565c0.113,0.464-0.485,1.236-1.016,1.244
	c-0.428,0.006-0.859-0.087-1.239,0.2c-0.018,0.014-0.062-0.01-0.141-0.025c0-0.448,0.016-0.891,0.26-1.294
	c0.152-0.25,0.39-0.265,0.645-0.219c0.261,0.046,0.522,0.116,0.786,0.135C23.297,52.622,23.526,52.582,23.779,52.565z"/>
<path fill-rule="evenodd" clip-rule="evenodd" fill="#FFFFFF" d="M27.921,61.907c0.256,0.28,0.543,0.539,0.762,0.846
	c0.229,0.321,0.162,0.537-0.125,0.819c-0.327,0.32-0.645,0.652-0.985,0.997c-0.453-0.199-0.709-1-0.365-1.442
	c0.266-0.34,0.576-0.638,0.579-1.109C27.789,61.997,27.835,61.978,27.921,61.907z"/>
<path fill-rule="evenodd" clip-rule="evenodd" fill="#FFFFFF" d="M59.039,43.61c-0.256-0.115-0.455-0.184-0.635-0.288
	c-0.477-0.276-0.587-0.581-0.439-1.117c0.114-0.414,0.304-0.829-0.015-1.243c-0.01-0.013,0.108-0.172,0.142-0.164
	c0.415,0.1,0.833,0.234,1.047,0.635c0.089,0.166,0.082,0.407,0.055,0.605c-0.036,0.261-0.166,0.51-0.197,0.771
	C58.967,43.048,59.018,43.295,59.039,43.61z"/>
<path fill-rule="evenodd" clip-rule="evenodd" fill="#FFFFFF" d="M64.311,33.938c0.096,0.249,0.216,0.488,0.281,0.741
	c0.109,0.422-0.017,0.695-0.386,0.936c-0.167,0.109-0.358,0.195-0.497,0.333c-0.143,0.141-0.237,0.331-0.346,0.504
	c-0.052,0.083-0.089,0.176-0.132,0.264c-0.043,0.004-0.087,0.007-0.13,0.011c-0.126-0.345-0.283-0.683-0.368-1.038
	c-0.069-0.292,0.079-0.542,0.333-0.71c0.157-0.104,0.334-0.184,0.476-0.306C63.793,34.457,64.022,34.217,64.311,33.938z"/>
<path fill-rule="evenodd" clip-rule="evenodd" fill="#FFFFFF" d="M66.782,32.964c0.109,0.275,0.248,0.54,0.317,0.822
	c0.087,0.354-0.038,0.654-0.361,0.857c-0.149,0.094-0.318,0.177-0.433,0.306c-0.154,0.174-0.268,0.387-0.393,0.587
	c-0.046,0.074-0.073,0.161-0.108,0.243c-0.043,0.006-0.086,0.013-0.129,0.02c-0.14-0.338-0.312-0.668-0.411-1.018
	c-0.083-0.288,0.054-0.545,0.299-0.725c0.152-0.111,0.327-0.196,0.463-0.323C66.268,33.51,66.489,33.264,66.782,32.964z"/>
<path fill-rule="evenodd" clip-rule="evenodd" fill="#FFFFFF" d="M24.009,57.55c0.619,0.446,0.749,1.258,0.287,1.845
	c-0.203,0.258-0.376,0.52-0.349,0.871c0.005,0.063-0.05,0.132-0.125,0.316c-0.3-0.396-0.568-0.71-0.787-1.056
	c-0.142-0.224-0.086-0.467,0.118-0.665c0.151-0.146,0.316-0.288,0.426-0.463C23.742,58.135,23.862,57.845,24.009,57.55z"/>
<path fill-rule="evenodd" clip-rule="evenodd" fill="#FFFFFF" d="M22.418,58.744c-0.185-0.455-0.368-0.82-0.472-1.207
	c-0.042-0.155,0.042-0.411,0.161-0.527c0.209-0.204,0.513-0.31,0.734-0.506c0.205-0.181,0.354-0.425,0.527-0.642
	c0.488,0.53,0.423,1.413-0.142,1.83c-0.281,0.208-0.54,0.424-0.609,0.794C22.608,58.542,22.543,58.587,22.418,58.744z"/>
<path fill-rule="evenodd" clip-rule="evenodd" fill="#FFFFFF" d="M26.626,63.259c-0.693-0.359-0.942-1.186-0.562-1.786
	c0.187-0.295,0.352-0.588,0.283-0.959c-0.01-0.054,0.032-0.119,0.066-0.235c0.418,0.28,0.802,0.547,0.957,1.001
	c0.055,0.163-0.023,0.405-0.111,0.574c-0.152,0.292-0.385,0.541-0.536,0.833C26.64,62.848,26.656,63.059,26.626,63.259z"/>
<path fill-rule="evenodd" clip-rule="evenodd" fill="#FFFFFF" d="M11.961,62.397c-0.148-0.212-0.288-0.382-0.396-0.57
	c-0.337-0.591-0.267-0.863,0.3-1.245c0.401-0.27,0.833-0.513,0.958-1.059c0.256,0.422,0.407,0.847,0.31,1.307
	c-0.035,0.167-0.169,0.335-0.303,0.453c-0.313,0.276-0.699,0.485-0.737,0.971C12.09,62.287,12.037,62.316,11.961,62.397z"/>
<path fill-rule="evenodd" clip-rule="evenodd" fill="#FFFFFF" d="M57.155,42.645c-0.302-0.244-0.639-0.46-0.897-0.747
	c-0.125-0.139-0.167-0.419-0.136-0.617c0.069-0.438,0.22-0.866-0.057-1.285c-0.012-0.019,0.014-0.061,0.034-0.138
	c0.443,0.055,0.876,0.141,1.18,0.493c0.104,0.12,0.123,0.347,0.112,0.521c-0.012,0.195-0.127,0.382-0.151,0.577
	C57.195,41.809,57.186,42.173,57.155,42.645z"/>
<path fill-rule="evenodd" clip-rule="evenodd" fill="#FFFFFF" d="M13.706,61.359c0.095,0.275,0.224,0.57,0.298,0.878
	c0.083,0.346-0.007,0.651-0.304,0.891c-0.303,0.244-0.605,0.5-0.606,0.946c0,0.042-0.061,0.084-0.116,0.155
	c-0.308-0.287-0.561-0.585-0.67-0.984c-0.068-0.249,0-0.461,0.204-0.625c0.138-0.112,0.294-0.207,0.413-0.337
	C13.181,62,13.42,61.7,13.706,61.359z"/>
<path fill-rule="evenodd" clip-rule="evenodd" fill="#FFFFFF" d="M13.229,47.273c-0.217,0.412-0.466,0.744-0.847,0.916
	c-0.182,0.083-0.436,0.081-0.636,0.031c-0.401-0.102-0.78-0.345-1.212-0.106c-0.032,0.017-0.097-0.027-0.185-0.055
	c0.083-0.21,0.146-0.409,0.238-0.593c0.317-0.635,0.578-0.716,1.222-0.444C12.318,47.236,12.354,47.387,13.229,47.273z"/>
<path fill-rule="evenodd" clip-rule="evenodd" fill="#FFFFFF" d="M11.344,46.204c0.246-0.29,0.45-0.576,0.701-0.814
	c0.234-0.224,0.52-0.222,0.79-0.021c0.168,0.125,0.33,0.271,0.516,0.364c0.294,0.146,0.608,0.253,0.92,0.38
	c-0.175,0.503-1.076,0.852-1.576,0.549c-0.348-0.21-0.674-0.487-1.132-0.356C11.524,46.317,11.468,46.264,11.344,46.204z"/>
<path fill-rule="evenodd" clip-rule="evenodd" fill="#FFFFFF" d="M15.418,45.015c-0.28,0.679-0.895,0.796-1.453,0.25
	c-0.254-0.249-0.503-0.502-0.9-0.501c-0.063,0-0.127-0.067-0.235-0.128c0.354-0.34,0.687-0.661,1.147-0.735
	c0.179-0.029,0.428,0.079,0.574,0.207C14.856,44.371,15.114,44.69,15.418,45.015z"/>
<path fill-rule="evenodd" clip-rule="evenodd" fill="#FFFFFF" d="M10.951,60.417c-0.106-0.203-0.23-0.399-0.316-0.612
	c-0.239-0.591-0.13-0.86,0.434-1.152c0.429-0.222,0.9-0.396,1.062-0.943c0.467,0.621,0.315,1.459-0.294,1.829
	c-0.304,0.185-0.626,0.352-0.696,0.755c-0.008,0.051-0.05,0.097-0.076,0.146C11.027,60.432,10.989,60.424,10.951,60.417z"/>
<path fill-rule="evenodd" clip-rule="evenodd" fill="#FFFFFF" d="M14.646,63.063c0.137,0.354,0.32,0.697,0.396,1.063
	c0.039,0.194-0.06,0.464-0.185,0.634c-0.26,0.352-0.633,0.631-0.59,1.138c0.002,0.028-0.053,0.062-0.146,0.162
	c-0.239-0.313-0.489-0.587-0.675-0.901c-0.147-0.248-0.081-0.514,0.144-0.721c0.139-0.127,0.291-0.248,0.401-0.396
	C14.204,63.752,14.394,63.444,14.646,63.063z"/>
<path fill-rule="evenodd" clip-rule="evenodd" fill="#FFFFFF" d="M11.815,50.418c0.046,0.94-0.398,1.413-1.228,1.359
	c-0.432-0.028-0.833,0-1.135,0.394c-0.272-0.732,0.28-1.531,0.962-1.511C10.883,50.674,11.364,50.79,11.815,50.418z"/>
<path fill-rule="evenodd" clip-rule="evenodd" fill="#FFFFFF" d="M11.638,52.289c0.188,0.745-0.235,1.369-0.958,1.412
	c-0.422,0.025-0.849,0.016-1.131,0.418c-0.018,0.025-0.079,0.02-0.118,0.028c-0.278-0.778,0.199-1.508,0.994-1.547
	c0.221-0.01,0.447-0.01,0.659-0.063C11.276,52.489,11.453,52.375,11.638,52.289z"/>
<path fill-rule="evenodd" clip-rule="evenodd" fill="#FFFFFF" d="M10.156,58.421c-0.146-0.368-0.287-0.752-0.147-1.144
	c0.074-0.208,0.244-0.434,0.433-0.539c0.444-0.245,0.994-0.305,1.271-0.832c0.371,0.687,0.246,1.531-0.506,1.715
	c-0.387,0.095-0.76,0.269-0.877,0.723c-0.006,0.023-0.048,0.042-0.076,0.056C10.234,58.411,10.21,58.411,10.156,58.421z"/>
<path fill-rule="evenodd" clip-rule="evenodd" fill="#FFFFFF" d="M9.718,50.097c-0.102-0.791,0.511-1.417,1.253-1.295
	c0.229,0.038,0.458,0.105,0.688,0.104c0.209-0.001,0.418-0.076,0.63-0.12c0.009,0.785-0.548,1.277-1.285,1.146
	c-0.408-0.073-0.812-0.159-1.164,0.163C9.817,50.115,9.759,50.097,9.718,50.097z"/>
<path fill-rule="evenodd" clip-rule="evenodd" fill="#FFFFFF" d="M25.189,61.812c-0.64-0.399-0.823-1.079-0.425-1.732
	c0.169-0.277,0.34-0.549,0.234-0.9c-0.014-0.049,0.037-0.117,0.092-0.277c0.315,0.283,0.608,0.51,0.853,0.781
	c0.179,0.199,0.155,0.452-0.006,0.677c-0.122,0.171-0.267,0.332-0.359,0.519C25.431,61.174,25.321,61.489,25.189,61.812z"/>
<path fill-rule="evenodd" clip-rule="evenodd" fill="#FFFFFF" d="M11.64,54.069c-0.021,0.333-0.013,0.66-0.071,0.975
	c-0.054,0.292-0.27,0.47-0.565,0.549c-0.256,0.069-0.527,0.12-0.756,0.243c-0.2,0.108-0.35,0.308-0.519,0.464
	c-0.408-0.624-0.106-1.49,0.603-1.681c0.413-0.111,0.853-0.164,1.135-0.549C11.479,54.056,11.529,54.069,11.64,54.069z"/>
<path fill-rule="evenodd" clip-rule="evenodd" fill="#FFFFFF" d="M63.531,44.773c-0.484,0.104-0.918,0.14-1.349-0.006
	c-0.293-0.099-0.398-0.325-0.384-0.625c0.014-0.31,0.05-0.624,0.011-0.928c-0.032-0.248-0.162-0.483-0.265-0.772
	c0.434,0.322,0.813,0.634,1.223,0.898c0.232,0.15,0.365,0.294,0.377,0.59c0.007,0.188,0.151,0.372,0.236,0.556
	C63.419,44.572,63.466,44.652,63.531,44.773z"/>
<path fill-rule="evenodd" clip-rule="evenodd" fill="#FFFFFF" d="M12.6,56.931c0.437-0.126,0.825-0.141,1.167,0.188
	c0.204,0.196,0.433,0.343,0.743,0.298c0.073-0.011,0.156,0.042,0.36,0.102c-0.359,0.353-0.625,0.676-0.953,0.917
	c-0.334,0.246-0.814,0.056-0.956-0.34C12.829,57.722,12.725,57.337,12.6,56.931z"/>
<path fill-rule="evenodd" clip-rule="evenodd" fill="#FFFFFF" d="M64.353,31.428c-0.201-0.373-0.083-1.04,0.317-1.35
	c0.332-0.257,0.717-0.399,1.149-0.295c0.27,0.065,0.401,0.257,0.422,0.531c0.021,0.285-0.213,0.298-0.391,0.368
	c-0.124,0.047-0.261,0.066-0.376,0.127C65.097,31.007,64.727,31.22,64.353,31.428z"/>
<path fill-rule="evenodd" clip-rule="evenodd" fill="#FFFFFF" d="M61.923,32.399c-0.251-0.476-0.107-1.183,0.342-1.457
	c0.253-0.155,0.572-0.259,0.867-0.271c0.188-0.009,0.446,0.146,0.565,0.306c0.197,0.264,0.091,0.47-0.223,0.582
	c-0.219,0.078-0.458,0.115-0.658,0.225c-0.262,0.144-0.493,0.343-0.738,0.517C62.029,32.336,61.976,32.365,61.923,32.399z"/>
<path fill-rule="evenodd" clip-rule="evenodd" fill="#FFFFFF" d="M62.396,49.198c0.046,0.1,0.053,0.109,0.056,0.12
	c0.149,0.709,0.203,0.56-0.378,0.84c-0.38,0.183-0.764,0.357-1.146,0.534c-0.581,0.269-0.582,0.269-0.956-0.364
	C60.779,49.951,61.58,49.578,62.396,49.198z"/>
<path fill-rule="evenodd" clip-rule="evenodd" fill="#FFFFFF" d="M25.98,69.546c0.793,0.2,1.562,0.394,2.383,0.601
	c-0.324,0.317-0.636,0.583-1.048,0.7c-0.287,0.082-0.521,0-0.683-0.264C26.423,70.244,26.209,69.909,25.98,69.546z"/>
<path fill-rule="evenodd" clip-rule="evenodd" fill="#FFFFFF" d="M23.691,52.094c-0.281-0.105-0.501-0.229-0.733-0.263
	c-0.227-0.034-0.466,0.021-0.757,0.042c0.128-0.489,0.262-0.934,0.645-1.228c0.125-0.097,0.358-0.114,0.519-0.075
	c0.087,0.021,0.159,0.232,0.181,0.367C23.607,51.293,23.639,51.655,23.691,52.094z"/>
<path fill-rule="evenodd" clip-rule="evenodd" fill="#FFFFFF" d="M28.058,64.885c0.43-0.256,0.802-0.523,0.882-1.103
	c0.387,0.396,0.654,0.74,0.712,1.175c0.024,0.181-0.095,0.416-0.222,0.566c-0.05,0.059-0.313-0.018-0.451-0.088
	C28.676,65.279,28.392,65.087,28.058,64.885z"/>
<path fill-rule="evenodd" clip-rule="evenodd" fill="#FFFFFF" d="M20.183,46.602c0.155-0.785,0.299-1.519,0.458-2.325
	c0.335,0.36,0.628,0.677,0.721,1.126c0.052,0.252-0.03,0.455-0.252,0.598C20.822,46.185,20.537,46.372,20.183,46.602z"/>
<path fill-rule="evenodd" clip-rule="evenodd" fill="#FFFFFF" d="M64.988,40.906c0.25-0.395,0.598-0.339,0.902-0.423
	c0.292-0.081,0.561-0.243,0.845-0.372c0.017,0.034,0.041,0.062,0.046,0.092c0.167,1.031,0.198,1.016-0.833,0.937
	C65.631,41.115,65.323,40.99,64.988,40.906z"/>
<path fill-rule="evenodd" clip-rule="evenodd" fill="#FFFFFF" d="M15.769,44.363c-0.306-0.275-0.607-0.544-0.905-0.812
	c0.46-0.519,1.193-0.728,1.603-0.428C16.225,43.551,15.982,43.983,15.769,44.363z"/>
<path fill-rule="evenodd" clip-rule="evenodd" fill="#FFFFFF" d="M68.965,39.094c-0.206,0.798-0.647,1.378-1.396,1.78
	c-0.01-0.47,0.019-0.918,0.336-1.201C68.198,39.412,68.607,39.282,68.965,39.094z"/>
<path fill-rule="evenodd" clip-rule="evenodd" fill="#FFFFFF" d="M65.848,44.448c-0.355,0.259-0.724,0.468-1.165,0.507
	c-0.27,0.023-0.471-0.095-0.576-0.355c-0.083-0.204-0.169-0.407-0.262-0.628C64.516,44.131,65.168,44.286,65.848,44.448z"/>
<path fill-rule="evenodd" clip-rule="evenodd" fill="#FFFFFF" d="M51.386,39.906c-0.472-0.537-0.874-0.994-1.335-1.519
	c0.316,0,0.555-0.021,0.788,0.006c0.255,0.03,0.419,0.199,0.45,0.459C51.328,39.167,51.349,39.487,51.386,39.906z"/>
</svg>
