<?xml version="1.0" encoding="utf-8"?>
<!-- Generator: Adobe Illustrator 16.0.0, SVG Export Plug-In . SVG Version: 6.00 Build 0)  -->
<!DOCTYPE svg PUBLIC "-//W3C//DTD SVG 1.1//EN" "http://www.w3.org/Graphics/SVG/1.1/DTD/svg11.dtd">
<svg version="1.1" id="Layer_1" xmlns="http://www.w3.org/2000/svg" xmlns:xlink="http://www.w3.org/1999/xlink" x="0px" y="0px"
	 width="80px" height="80px" viewBox="0 0 80 80" enable-background="new 0 0 80 80" xml:space="preserve">
<path fill="#FFFFFF" d="M55.133,26.631l-0.175-0.21l-0.747,0.507c-0.411,0.278-1.286,0.917-1.947,1.425
	c-0.661,0.508-1.676,1.305-2.256,1.769c-0.58,0.462-1.668,1.391-2.42,2.061l-1.367,1.219l-0.149,0.358l-0.148,0.358l0.152,0.994
	c0.084,0.546,0.184,1.248,0.217,1.559l0.057,0.563l-0.184,0.351c-0.1,0.192-0.3,0.475-0.445,0.628l-0.263,0.279l-0.926-0.035
	l-0.922-0.034l-0.038-0.67l-0.034-0.67l-0.32-1.524c-0.175-0.838-0.454-2.046-0.621-2.683c-0.167-0.638-0.433-1.444-0.59-1.791
	l-0.286-0.629l-0.317-0.206l-0.316-0.21l-0.763-0.061l-0.762-0.062l-0.461,0.191l-0.457,0.194l-0.251,0.431l-0.255,0.431
	l-0.454,0.123l-0.453,0.122l-0.278,0.292l-0.278,0.294l-0.065,0.484l-0.065,0.484l0.145,0.091l0.145,0.088l0.206-0.179l0.206-0.183
	l0.701-0.083l0.701-0.084v0.503c0,0.276-0.085,0.902-0.187,1.391s-0.374,1.484-0.61,2.214l-0.43,1.326l0.057,0.149l0.058,0.145
	l-0.187,0.072c-0.102,0.04-0.515,0.073-0.917,0.073h-0.732L35.35,38.28l-0.351-0.206l-0.125-0.312l-0.129-0.312l0.244-1.353
	l0.24-1.349l-0.119-0.412l-0.118-0.412l-0.519-0.537c-0.286-0.295-1.04-0.958-1.676-1.474s-1.817-1.426-2.622-2.02
	c-0.804-0.593-1.491-1.115-1.524-1.159c-0.033-0.042-0.252-0.208-0.487-0.369c-0.235-0.161-0.455-0.326-0.488-0.366
	s-0.411-0.315-0.834-0.61l-0.77-0.537l-0.122,0.179c-0.068,0.097-0.257,0.465-0.419,0.819l-0.294,0.644v0.553V29.6l0.138,0.267
	c0.075,0.146,0.232,0.376,0.351,0.51l0.213,0.244l0.057,0.93l0.058,0.934l0.255,0.495l0.259,0.495l-0.072,0.609l-0.073,0.614
	l0.157,0.369l0.152,0.374l0.358,0.255l0.354,0.252l-0.081,0.827l-0.084,0.823l0.442,0.335l0.442,0.335v0.723v0.721l0.598,0.374
	l0.602,0.374l0.137,0.385c0.078,0.211,0.223,0.548,0.32,0.75L30,41.964l0.477,0.148l0.477,0.149l0.16-0.061l0.164-0.062l0.148-0.335
	l0.153-0.332l0.477-0.335c0.261-0.185,0.522-0.334,0.579-0.332c0.056,0.002,0.235,0.115,0.4,0.251l0.301,0.251l-0.278,0.522
	l-0.278,0.526l-0.301,0.137l-0.304,0.137l-0.29-0.072l-0.293-0.073l-0.126,0.077l-0.129,0.08l0.202,0.304l0.202,0.309l0.709,0.358
	c0.389,0.197,0.755,0.358,0.815,0.358h0.11l-0.061-0.85l-0.062-0.854l0.157-0.374l0.156-0.377l0.255,0.038l0.259,0.038l0.061,1.299
	l0.061,1.295l0.244,0.271c0.134,0.148,0.4,0.348,0.59,0.446l0.347,0.179l0.061-0.061l0.061-0.061l-0.32-0.655l-0.32-0.656
	l-0.125-0.773l-0.122-0.773l0.062-0.165l0.064-0.164h0.354h0.358l0.068-0.183l0.068-0.179l-0.209-0.103
	c-0.115-0.057-0.448-0.178-0.743-0.271L34.1,40.87l-0.416-0.388l-0.415-0.393l0.149-0.24l0.148-0.24l-0.454-0.399l-0.453-0.396
	l-0.236-0.465c-0.13-0.255-0.237-0.544-0.237-0.641v-0.171l0.199-0.08l0.202-0.076l-0.248-0.271
	c-0.138-0.149-0.359-0.465-0.491-0.705l-0.245-0.438l-0.083-0.499l-0.084-0.5l0.274-0.042l0.278-0.038l-0.708-0.671
	c-0.389-0.369-0.812-0.82-0.941-1.002l-0.236-0.332l-0.069-0.586l-0.072-0.587l0.172-0.141l0.167-0.141l0.563,0.347l0.56,0.351
	l0.724,0.708c0.397,0.39,0.881,0.923,1.075,1.181l0.351,0.469l0.076,1.685l0.072,1.683l0.175,0.213l0.179,0.214l0.75,0.335
	l0.75,0.335l0.084,0.274l0.088,0.271l0.03,3.357l0.031,3.357l0.449,0.411l0.45,0.416l0.145-0.049l0.148-0.05v-2.64v-2.641h0.515
	h0.511v2.942c0,1.618,0.019,2.951,0.038,2.964c0.019,0.013,0.169,0.116,0.335,0.228l0.301,0.206h0.218h0.217v-3.17v-3.17l0.944,0.02
	l0.945,0.019l-0.457,0.05l-0.458,0.049v3.334v3.338l0.191,0.19l0.19,0.194h-0.777h-0.782l-0.297-0.32l-0.293-0.324l-0.393-0.164
	c-0.216-0.091-0.534-0.167-0.705-0.167c-0.172,0-0.626,0.109-1.01,0.244c-0.384,0.135-0.849,0.356-1.033,0.492l-0.335,0.244
	l-1.981-0.03l-1.981-0.034l-0.038-0.492l-0.035-0.487l0.381-0.571l0.377-0.576l0.416-0.255l0.419-0.259l0.13,0.084l0.133,0.08
	l-0.057,0.153l-0.058,0.152l0.092,0.145l0.087,0.148l0.754-0.567c0.414-0.312,0.833-0.68,0.934-0.823
	c0.101-0.144,0.183-0.3,0.183-0.347s-0.178-0.194-0.396-0.328l-0.396-0.244l-0.58-0.084l-0.579-0.084l-0.442,0.081l-0.442,0.084
	l0.278,0.259l0.278,0.258l-0.232,0.161c-0.128,0.089-0.479,0.343-0.781,0.563l-0.549,0.4l-0.45,0.724L29.89,47.69l-0.278,0.762
	l-0.274,0.763h-0.099h-0.1v0.194v0.194l0.245,0.309l0.244,0.309v0.19c0,0.103,0.217,0.638,0.483,1.188l0.484,1.002l0.766,0.693
	l0.766,0.689l-0.213,0.122L31.7,54.226v0.152v0.152l0.403,0.145l0.404,0.149h0.435c0.238,0,0.611-0.038,0.827-0.081l0.389-0.076
	l0.064-0.164l0.062-0.161l-0.572-0.857l-0.567-0.857h-0.221h-0.221l-0.061,0.244l-0.065,0.244H32.39h-0.183l-0.408-0.431
	c-0.223-0.237-0.527-0.65-0.678-0.919l-0.274-0.487v-0.393l0.004-0.392l0.114-0.183l0.114-0.183l2.767-0.038l2.766-0.038
	l0.106,0.106l0.104,0.103l-0.442,1.273l-0.438,1.269l0.065,0.553c0.037,0.304,0.141,0.767,0.229,1.029l0.16,0.472l0.198,0.126
	l0.195,0.122l0.381-0.271l0.381-0.271l0.126,0.076c0.067,0.042,0.124,0.141,0.125,0.222c0.002,0.079,0.098,0.255,0.213,0.393
	c0.115,0.137,0.302,0.284,0.416,0.328l0.206,0.08l0.457-0.366l0.457-0.362l0.175,0.339c0.096,0.188,0.285,0.467,0.423,0.617
	l0.251,0.274h0.262h0.263l0.248-0.274c0.137-0.15,0.314-0.397,0.393-0.549l0.141-0.274h0.164h0.168l0.069,0.175
	c0.037,0.097,0.209,0.271,0.384,0.385l0.316,0.206l0.457-0.442c0.251-0.245,0.501-0.446,0.561-0.446s0.203,0.081,0.316,0.183
	l0.202,0.187l0.194-0.072l0.191-0.073l0.271-0.571l0.27-0.568l0.003-0.854l0.004-0.853l-0.267-0.95
	c-0.146-0.52-0.263-1.053-0.263-1.188v-0.249l1.859,0.035l1.859,0.034l0.061,2.008l0.061,2.004l0.317,0.179l0.316,0.175l0.202-0.076
	l0.202-0.077v-0.415v-0.416l-0.187-0.156l-0.187-0.156l0.034-1.537l0.034-1.535l0.732-0.062l0.731-0.061l0.038-0.461l0.038-0.457
	l-0.378-0.076l-0.376-0.076l0.324-0.164l0.32-0.167h0.29h0.293l0.256,0.255l0.258,0.259l-0.061,0.533l-0.057,0.537l-0.153,0.183
	l-0.153,0.183h-0.354h-0.358l-0.294-0.194l-0.297-0.195l-0.126,0.08c-0.07,0.043-0.125,0.132-0.125,0.198
	c0,0.066,0.143,0.254,0.32,0.419l0.324,0.301h0.419h0.423l0.335-0.203l0.339-0.198l0.198-0.339l0.202-0.335v-0.446v-0.442
	l-0.183-0.354l-0.183-0.35l-0.271-0.191l-0.274-0.19h-0.503h-0.507l-0.316,0.248l-0.312,0.247l0.072,0.187l0.069,0.19l-0.351-0.042
	l-0.351-0.038l-0.034-1.925L49.25,44.94l-0.309-0.118c-0.17-0.065-0.442-0.118-0.606-0.118h-0.297v0.48v0.477l0.248,0.08
	l0.248,0.081L48.5,47.302l-0.035,1.486l-1.131,0.034l-1.128,0.034l-0.419-0.317l-0.419-0.32l-0.617-0.236l-0.618-0.232H43.71h-0.423
	L42.715,48.3l-0.575,0.549h-0.58h-0.583l0.122-0.35l0.122-0.347l-0.038-3.25l-0.034-3.246h0.64h0.64v3.117v3.121l0.396-0.084
	c0.218-0.047,0.424-0.114,0.458-0.145c0.033-0.031,0.075-1.365,0.095-2.964l0.038-2.907l-0.464-0.057l-0.461-0.054l1.951,0.012
	c1.073,0.007,2.019,0.034,2.104,0.061l0.156,0.05l-0.083,0.625l-0.08,0.629l-0.347,0.815c-0.191,0.449-0.347,0.87-0.347,0.934v0.119
	l0.221-0.062c0.122-0.032,0.444-0.26,0.716-0.506l0.499-0.446l-0.125-1.2l-0.126-1.201l0.187-0.187l0.19-0.186l0.13,0.08
	c0.072,0.045,0.219,0.269,0.328,0.499l0.198,0.419l-0.049,0.522c-0.028,0.287-0.079,0.6-0.106,0.698l-0.05,0.179l0.305,0.022
	l0.304,0.026l0.488-0.217c0.268-0.12,0.612-0.338,0.762-0.484c0.151-0.145,0.274-0.31,0.274-0.37v-0.111l-0.659-0.19l-0.66-0.19
	l-0.376-0.431c-0.209-0.237-0.378-0.481-0.378-0.542c0-0.06,0.085-0.196,0.191-0.301c0.105-0.104,0.26-0.19,0.343-0.19
	s0.258,0.1,0.393,0.224c0.134,0.125,0.507,0.427,0.827,0.671l0.583,0.445h0.338h0.339l0.309-0.244l0.313-0.244l0.19-0.56
	l0.191-0.564l0.431-0.476l0.43-0.472v-0.632v-0.633l0.396-0.328l0.396-0.331l0.008-0.796l0.007-0.801l0.381-0.354l0.381-0.358
	l0.084-0.332l0.083-0.335l-0.068-0.67l-0.069-0.674l0.297-0.279l0.297-0.274l0.126-0.362l0.129-0.366l-0.125-0.766l-0.122-0.766
	l0.309-0.526l0.308-0.53v-0.663V27.9l-0.152-0.53C55.377,27.078,55.23,26.746,55.133,26.631z M26.213,28.925v-0.282v-0.278h0.187
	h0.187l0.94,0.659c0.518,0.364,1.149,0.878,1.402,1.14l0.458,0.473l-0.187,0.45l-0.187,0.449h-0.103
	c-0.057,0-0.318-0.144-0.579-0.32c-0.261-0.176-0.665-0.487-0.899-0.69l-0.427-0.365l-0.396-0.617L26.213,28.925z M32.062,39.971
	c0.135,0.222,0.248,0.464,0.248,0.538v0.133l-0.625,0.202c-0.343,0.111-0.75,0.202-0.906,0.202h-0.287l-0.335-0.29l-0.339-0.293
	l0.728-0.362c0.4-0.2,0.849-0.403,0.998-0.449l0.274-0.083L32.062,39.971z M31.669,38.763c0.083,0.065,0.152,0.163,0.152,0.221
	v0.107l-0.442,0.183l-0.442,0.187l-0.686-0.003l-0.686-0.004l-0.259-0.209c-0.143-0.116-0.325-0.33-0.4-0.477L28.773,38.5
	l0.129-0.083l0.129-0.081l0,0l1.242,0.152l1.242,0.156L31.669,38.763z M31.167,36.935l0.137,0.148l0.076,0.518l0.08,0.519
	l-0.278-0.008c-0.151-0.005-0.521-0.077-0.823-0.16c-0.302-0.083-0.754-0.253-1.006-0.374l-0.457-0.217l-0.366-0.419
	c-0.201-0.229-0.365-0.469-0.365-0.533v-0.118l0,0h0.171c0.096,0,0.74,0.111,1.433,0.247l1.261,0.248L31.167,36.935z M30.393,35.231
	c0.032,0.28,0.099,0.634,0.148,0.785l0.088,0.274h-0.183c-0.101,0-0.627-0.226-1.173-0.5l-0.995-0.495l-0.407-0.423l-0.412-0.423
	l-0.061-0.309l-0.057-0.309l0.167-0.064l0.171-0.069l0.392,0.149c0.217,0.082,0.506,0.194,0.641,0.248
	c0.134,0.054,0.554,0.216,0.934,0.362l0.689,0.267L30.393,35.231z M30.114,34.145c0,0.038-0.071,0.072-0.156,0.072
	c-0.085,0-0.565-0.242-1.067-0.537l-0.911-0.537l-0.384-0.407c-0.212-0.225-0.499-0.613-0.637-0.861l-0.251-0.454l0.126-0.076
	l0.125-0.08l0.754,0.32c0.414,0.177,0.883,0.391,1.044,0.472l0.293,0.149l0.194,0.366c0.108,0.201,0.349,0.62,0.533,0.934
	C29.964,33.819,30.114,34.107,30.114,34.145z M36.395,41.747h-0.488l0.209-0.054c0.059-0.016,0.144-0.022,0.233-0.023
	c0.088,0,0.179,0.004,0.255,0.019l0.278,0.054L36.395,41.747z M36.489,49.215l-0.065,0.244h-0.16c-0.089,0-0.189-0.05-0.225-0.107
	l-0.065-0.103l0.16-0.217l0.16-0.221l0.13,0.08l0.13,0.08L36.489,49.215z M37.739,48.964l0.076-0.126l0.176,0.141
	c0.094,0.079,0.171,0.212,0.171,0.297v0.157l-0.179,0.068l-0.175,0.064l-0.077-0.236l-0.072-0.236L37.739,48.964z M38.059,52.115
	l-0.343,0.708l-0.347,0.709l-0.152,0.045l-0.152,0.045l-0.126-0.335l-0.129-0.335l0.081-0.376c0.044-0.207,0.21-0.791,0.369-1.3
	l0.29-0.926l0.251-0.225l0.248-0.225l0.191,0.195l0.194,0.19L38.246,51.2L38.059,52.115z M39.762,51.768l-0.115,1.334l-0.278,0.495
	l-0.278,0.495h-0.157h-0.16l-0.198-0.385l-0.198-0.384l0.077-0.5c0.042-0.275,0.193-0.966,0.335-1.535
	c0.141-0.57,0.311-1.105,0.377-1.189c0.065-0.084,0.196-0.153,0.286-0.153h0.164l0.13,0.244l0.129,0.245L39.762,51.768z
	 M44.792,48.902l0.072-0.187l0.251,0.137l0.256,0.133l-0.042,0.206l-0.038,0.203l-0.213,0.041l-0.209,0.038l-0.077-0.19l-0.072-0.19
	L44.792,48.902z M43.218,48.975l0.081-0.248h0.106c0.059,0,0.127,0.042,0.152,0.092s0.016,0.251-0.022,0.445l-0.068,0.354
	l-0.165-0.198l-0.16-0.194L43.218,48.975z M43.336,49.97l0.458,0.038l0.282,0.693c0.155,0.381,0.334,0.945,0.4,1.253l0.122,0.56
	l-0.099,0.438c-0.054,0.24-0.15,0.49-0.213,0.553L44.17,53.62l-0.324-0.385l-0.32-0.381l-0.065-0.328
	c-0.036-0.18-0.144-0.598-0.24-0.934c-0.096-0.335-0.21-0.846-0.255-1.135l-0.084-0.53L43.336,49.97z M41.633,50.073l0.081-0.126
	h0.3h0.306l0.163,0.396c0.09,0.218,0.229,0.781,0.309,1.25l0.145,0.854l-0.042,0.903l-0.038,0.907L42.7,54.305l-0.153,0.05
	l-0.167-0.404c-0.093-0.224-0.255-0.765-0.358-1.2c-0.104-0.437-0.251-1.189-0.328-1.672l-0.141-0.881L41.633,50.073z
	 M41.016,50.145c0.042,0.108,0.156,0.699,0.255,1.311c0.099,0.612,0.183,1.387,0.183,1.722v0.61l-0.213,0.427l-0.213,0.426
	l-0.206,0.038l-0.207,0.039l-0.22-0.339l-0.221-0.339l0.022-1.714l0.023-1.715l0.125-0.331l0.125-0.332h0.236h0.232L41.016,50.145z
	 M38.467,32.389h-1.144l-0.068-0.111l-0.068-0.11l0.221-0.271l0.221-0.274l0.628-0.058l0.633-0.061l0.358,0.148l0.358,0.149
	l0.073,0.183l0.068,0.183l-0.068,0.11l-0.069,0.111H38.467z M38.345,41.777c-0.034,0-0.062-0.028-0.062-0.062
	c0-0.033,0.028-0.061,0.062-0.061c0.033,0,0.061,0.028,0.061,0.061C38.406,41.75,38.378,41.777,38.345,41.777z M39.332,37.449
	l-0.202,0.304h-0.16H38.81l-0.202-0.225c-0.111-0.122-0.202-0.275-0.202-0.342c0-0.067,0.127-0.243,0.282-0.389
	c0.156-0.146,0.318-0.263,0.362-0.263c0.045,0,0.172,0.138,0.282,0.305l0.199,0.304L39.332,37.449z M39.686,38.363
	c-0.033,0-0.061-0.027-0.061-0.061s0.028-0.061,0.061-0.061c0.034,0,0.061,0.027,0.061,0.061S39.72,38.363,39.686,38.363z
	 M41.088,37.266v0.202l-0.286,0.267l-0.286,0.267l-0.324-0.3c-0.179-0.167-0.324-0.346-0.324-0.4s0.142-0.254,0.317-0.442
	l0.319-0.343l0.29,0.274l0.294,0.274V37.266z M41.637,38.363c-0.034,0-0.061-0.027-0.061-0.061s0.027-0.061,0.061-0.061
	s0.061,0.027,0.061,0.061S41.671,38.363,41.637,38.363z M42.673,37.266v0.202l-0.282,0.263c-0.156,0.146-0.344,0.267-0.416,0.267
	h-0.13l-0.202-0.312l-0.206-0.308l0.072-0.225c0.04-0.122,0.18-0.317,0.313-0.438l0.24-0.221l0.305,0.286l0.305,0.286V37.266z
	 M42.826,36.306l-0.106,0.107l-0.347-0.362l-0.35-0.366l-0.381,0.442l-0.381,0.442l-0.206-0.209l-0.209-0.209v-0.175v-0.171h-0.145
	c-0.08,0-0.306,0.151-0.499,0.335l-0.351,0.335l-0.293-0.366l-0.294-0.365l-0.258,0.159c-0.142,0.089-0.284,0.133-0.317,0.099
	c-0.033-0.033,0.054-0.527,0.194-1.097l0.256-1.037v-0.422c0-0.234,0.029-0.505,0.064-0.599l0.065-0.171l0.331,0.045l0.332,0.049
	l0.244-0.186l0.244-0.183l-0.213-0.381c-0.117-0.21-0.213-0.434-0.213-0.496v-0.111h0.236h0.237l0.068-0.113l0.073-0.115
	l-0.217-0.069c-0.118-0.038-0.503-0.062-0.857-0.053l-0.644,0.015l-0.088-0.087l-0.087-0.088l0.301-0.244l0.305-0.248l0.758,0.05
	l0.762,0.05l0.32,0.296c0.177,0.165,0.396,0.446,0.488,0.622c0.091,0.176,0.36,1.109,0.598,2.073
	c0.238,0.963,0.493,1.965,0.564,2.225l0.13,0.473L42.826,36.306z M43.222,38.363c-0.034,0-0.061-0.027-0.061-0.061
	s0.027-0.061,0.061-0.061c0.033,0,0.061,0.027,0.061,0.061S43.255,38.363,43.222,38.363z M48.381,38.626l-0.507,0.328l-0.506,0.332
	l-0.031,0.141l-0.026,0.142l0.244,0.075l0.245,0.076l-0.256,0.358l-0.251,0.354l-0.51,0.301c-0.281,0.164-0.656,0.351-0.835,0.419
	l-0.328,0.122l-0.041-0.145c-0.024-0.08-0.043-0.621-0.042-1.2l0.004-1.052l0.304-0.255c0.168-0.14,0.533-0.364,0.815-0.5
	l0.515-0.244l0.126-0.241l0.129-0.236v-1.585v-1.584l0.728-0.838l0.731-0.838l0.777-0.633l0.782-0.633h0.182h0.187l0.072,0.191
	c0.041,0.105,0.076,0.357,0.076,0.556v0.358l-0.255,0.503l-0.259,0.503l-0.686,0.648l-0.69,0.652h0.267l0.267,0.003l0.084,0.133
	l0.083,0.138l-0.16,0.503c-0.088,0.277-0.314,0.733-0.503,1.013c-0.188,0.28-0.343,0.568-0.343,0.641v0.133h0.122h0.122v0.213v0.217
	l-0.316,0.465L48.381,38.626z M51.452,40.299c0,0.067-0.121,0.208-0.271,0.312l-0.27,0.19l-0.492-0.004l-0.492-0.004l-0.503-0.228
	c-0.277-0.126-0.542-0.286-0.586-0.358l-0.08-0.134l0.27-0.369l0.274-0.366v0h0.161c0.089,0,0.257,0.052,0.374,0.119
	c0.117,0.066,0.529,0.258,0.914,0.423l0.701,0.297V40.299z M52.161,38.546l-0.122,0.271l-0.419,0.198l-0.419,0.202l-0.393-0.012
	c-0.215-0.006-0.57-0.062-0.785-0.125c-0.214-0.062-0.42-0.161-0.458-0.221l-0.064-0.107l0.064-0.179l0.069-0.179l0.271-0.117
	l0.266-0.118l0.732-0.023c0.402-0.014,0.834-0.058,0.96-0.096l0.229-0.068l0.095,0.152l0.095,0.157L52.161,38.546z M52.671,36.191
	v0.176l-0.335,0.312c-0.185,0.173-0.555,0.423-0.823,0.557c-0.269,0.133-0.68,0.281-0.915,0.327
	c-0.234,0.047-0.521,0.11-0.632,0.142l-0.202,0.057l-0.072-0.118l-0.073-0.118l0.19-0.484l0.194-0.479l1.182-0.214
	c0.649-0.117,1.25-0.238,1.333-0.27l0.152-0.057V36.191z M53.647,33.612c0,0.137-0.079,0.404-0.175,0.591l-0.176,0.339l-0.506,0.453
	l-0.503,0.458l-0.549,0.236c-0.302,0.129-0.656,0.236-0.785,0.236h-0.232V35.65c0-0.15,0.056-0.472,0.122-0.712l0.122-0.438
	l1.25-0.568c0.687-0.313,1.291-0.573,1.342-0.571l0.091,0.003V33.612z M54.131,31.607l-0.156,0.465l-0.572,0.56l-0.575,0.556
	l-0.792,0.393c-0.438,0.215-0.884,0.393-0.991,0.393h-0.194l0.091-0.213c0.05-0.118,0.246-0.515,0.435-0.884l0.339-0.671
	l0.754-0.446c0.414-0.245,0.933-0.538,1.159-0.651l0.411-0.206l0.122,0.122l0.122,0.122L54.131,31.607z M54.703,28.444l-0.073,0.45
	l-0.343,0.556l-0.343,0.557l-0.724,0.579l-0.72,0.583h-0.259h-0.263l-0.141-0.312c-0.078-0.171-0.141-0.407-0.141-0.526v-0.213
	l0.335-0.309c0.185-0.168,0.693-0.557,1.132-0.864c0.439-0.308,0.872-0.644,0.96-0.751l0.164-0.194h0.244h0.245L54.703,28.444z"/>
<path fill="#FFFFFF" d="M44.898,41.8l-0.518-0.038v2.508v2.507h0.092v-0.004c0.049,0,0.265-0.165,0.48-0.366l0.392-0.365
	l0.073-0.397l0.072-0.392l-0.039-1.707l-0.034-1.707L44.898,41.8z"/>
<polygon fill="#FFFFFF" points="54.958,26.421 54.958,26.421 54.958,26.421 "/>
<path fill="#FFFFFF" d="M75.45,40.638c0.301-0.762,0.292-1.441-0.022-2.058c-0.224-0.438-0.232-0.542-0.091-0.879
	c0.257-0.62,0.201-1.654-0.115-2.165c-0.233-0.377-0.26-0.547-0.194-1.177c0.1-0.953-0.015-1.517-0.396-1.97
	c-0.267-0.318-0.296-0.439-0.224-0.918c0.12-0.798-0.016-1.328-0.496-1.901c-0.369-0.44-0.423-0.588-0.423-1.166
	c0-0.823-0.261-1.478-0.747-1.883c-0.311-0.258-0.388-0.431-0.461-1.036c-0.106-0.875-0.267-1.196-0.884-1.772
	c-0.334-0.312-0.471-0.541-0.473-0.792c-0.004-0.52-0.394-1.295-0.842-1.672c-0.216-0.182-0.44-0.328-0.5-0.328
	c-0.059,0-0.172-0.233-0.248-0.519c-0.222-0.842-0.688-1.531-1.219-1.802c-0.387-0.198-0.548-0.397-0.827-1.006
	c-0.388-0.848-0.615-1.089-1.272-1.364c-0.331-0.138-0.53-0.345-0.747-0.769c-0.373-0.732-0.861-1.196-1.479-1.406
	c-0.35-0.12-0.59-0.323-0.861-0.732c-0.483-0.729-0.854-1.012-1.554-1.188c-0.439-0.111-0.624-0.239-0.827-0.568
	c-0.372-0.601-1.15-1.131-1.657-1.131c-0.33,0-0.547-0.125-1.048-0.594c-0.778-0.729-1.027-0.861-1.742-0.934
	c-0.435-0.044-0.686-0.166-1.116-0.545c-0.607-0.534-1.263-0.775-1.821-0.663c-0.277,0.056-0.449,0.001-0.74-0.244
	c-0.682-0.574-1.425-0.827-2.156-0.736c-0.431,0.054-0.68,0.033-0.736-0.057c-0.046-0.076-0.35-0.272-0.678-0.438
	c-0.622-0.315-1.315-0.391-1.703-0.183c-0.172,0.092-0.412,0.038-0.998-0.24c-0.821-0.389-1.368-0.454-1.989-0.229
	c-0.321,0.116-0.5,0.096-1.083-0.122c-0.473-0.177-0.832-0.258-1.169-0.244c-0.262,0.011-0.514,0.081-0.793,0.206
	C40.656,5.619,40.611,5.618,39.96,5.4c-0.71-0.238-1.39-0.212-1.878,0.068c-0.156,0.09-0.743,0.149-1.479,0.149
	c-1.082,0-1.266,0.03-1.619,0.282c-0.355,0.253-0.482,0.276-1.174,0.202c-0.629-0.068-0.874-0.04-1.307,0.152
	c-0.293,0.13-0.609,0.327-0.701,0.438c-0.128,0.154-0.375,0.206-1.037,0.206c-0.9,0-1.346,0.167-1.901,0.725
	c-0.162,0.161-0.409,0.251-0.705,0.251c-0.761,0.001-1.392,0.243-1.879,0.72c-0.375,0.367-0.614,0.481-1.276,0.613
	c-0.731,0.146-0.886,0.23-1.459,0.804c-0.487,0.487-0.76,0.661-1.135,0.724c-0.632,0.107-1.198,0.49-1.601,1.082
	c-0.239,0.352-0.475,0.519-0.957,0.682c-0.72,0.244-1.252,0.698-1.543,1.312c-0.142,0.299-0.376,0.5-0.842,0.72
	c-0.785,0.372-1.253,0.84-1.467,1.467c-0.127,0.372-0.306,0.557-0.842,0.873c-0.783,0.46-1.22,0.979-1.406,1.672
	c-0.098,0.366-0.272,0.595-0.706,0.915c-0.718,0.531-1.135,1.136-1.135,1.65c0,0.319-0.105,0.479-0.553,0.845
	c-0.647,0.531-1.032,1.216-1.032,1.841c0,0.355-0.098,0.543-0.476,0.922c-0.595,0.595-0.865,1.158-0.865,1.799
	c0,0.38-0.099,0.629-0.416,1.044c-0.525,0.689-0.729,1.3-0.644,1.939c0.054,0.402,0.011,0.575-0.212,0.869
	c-0.595,0.781-0.715,1.157-0.633,1.958c0.068,0.671,0.043,0.816-0.251,1.346c-0.254,0.455-0.328,0.73-0.309,1.204
	c0.013,0.338,0.036,0.81,0.046,1.044c0.01,0.235-0.108,0.735-0.259,1.116c-0.273,0.686-0.276,0.701-0.062,1.383
	c0.205,0.65,0.207,0.726,0.016,1.261c-0.272,0.76-0.255,1.448,0.049,2.016c0.207,0.387,0.229,0.532,0.122,0.838
	c-0.222,0.635-0.162,1.686,0.126,2.157c0.219,0.36,0.248,0.538,0.183,1.219c-0.087,0.909,0.045,1.504,0.431,1.913
	c0.215,0.229,0.262,0.414,0.244,0.968c-0.033,1.016,0.084,1.447,0.545,1.985c0.363,0.424,0.415,0.568,0.415,1.159
	c0,0.853,0.131,1.194,0.667,1.729c0.264,0.264,0.431,0.55,0.431,0.74c0,0.896,0.626,2.074,1.201,2.259
	c0.089,0.029,0.212,0.322,0.274,0.652c0.161,0.86,0.487,1.416,1.052,1.798c0.38,0.257,0.522,0.455,0.625,0.861
	c0.186,0.737,0.6,1.298,1.227,1.665c0.396,0.231,0.58,0.438,0.701,0.789c0.247,0.713,0.743,1.292,1.338,1.555
	c0.396,0.175,0.597,0.365,0.789,0.747c0.374,0.746,0.803,1.153,1.448,1.368c0.445,0.147,0.631,0.291,0.842,0.667
	c0.352,0.626,1.056,1.199,1.597,1.299c0.313,0.058,0.628,0.286,1.162,0.842c0.651,0.678,0.798,0.77,1.341,0.846
	c0.503,0.071,0.716,0.189,1.231,0.675c0.614,0.581,1.408,0.933,1.783,0.789c0.1-0.039,0.464,0.171,0.853,0.491
	c0.754,0.621,1.299,0.83,1.882,0.72c0.321-0.06,0.49,0.004,0.964,0.366c0.685,0.523,1.321,0.714,1.997,0.606
	c0.417-0.067,0.572-0.028,0.975,0.251c0.643,0.444,1.355,0.598,1.955,0.419c0.42-0.126,0.535-0.109,1.113,0.179
	c0.695,0.346,1.469,0.417,2.11,0.19c0.308-0.109,0.475-0.088,0.926,0.114c0.674,0.302,1.473,0.328,2.027,0.065
	c0.386-0.183,0.473-0.183,1.124,0c0.937,0.263,1.156,0.249,1.848-0.099c0.511-0.257,0.655-0.277,1.117-0.171
	c0.737,0.169,1.589,0.067,2.027-0.244c0.306-0.218,0.541-0.263,1.364-0.263c1.021,0,1.286-0.079,1.855-0.552
	c0.268-0.224,0.428-0.261,0.884-0.21c0.695,0.079,1.48-0.206,1.958-0.705c0.275-0.287,0.456-0.366,0.846-0.366
	c0.825-0.001,1.431-0.235,1.894-0.731c0.328-0.352,0.562-0.483,0.979-0.549c0.862-0.135,1.269-0.355,1.765-0.948
	c0.374-0.448,0.561-0.565,0.986-0.629c0.664-0.1,1.235-0.486,1.658-1.116c0.247-0.368,0.468-0.533,0.857-0.648
	c0.738-0.218,1.303-0.683,1.562-1.288c0.147-0.344,0.316-0.543,0.507-0.591c0.812-0.204,1.811-1.22,1.811-1.844
	c0-0.093,0.243-0.283,0.541-0.427c0.624-0.302,1.41-1.117,1.41-1.46c0-0.416,0.136-0.604,0.747-1.043
	c0.69-0.497,1.082-1.064,1.083-1.574c0-0.262,0.141-0.485,0.537-0.854c0.703-0.654,1.047-1.249,1.048-1.806
	c0-0.367,0.092-0.546,0.491-0.941c0.626-0.62,0.996-1.429,0.892-1.951c-0.062-0.31-0.016-0.453,0.232-0.716
	c0.604-0.643,0.823-1.143,0.823-1.894c0-0.583,0.061-0.798,0.351-1.219c0.504-0.734,0.68-1.39,0.522-1.962
	c-0.114-0.414-0.091-0.53,0.221-1.09c0.385-0.691,0.47-1.214,0.324-1.993c-0.079-0.42-0.039-0.663,0.225-1.322
	c0.334-0.837,0.334-1.234,0-1.882C75.241,41.27,75.254,41.135,75.45,40.638z M40.844,74.34C21.871,74.34,6.49,58.96,6.49,39.987
	c0-18.974,15.381-34.354,34.354-34.354c18.974,0,34.354,15.381,34.354,34.354C75.198,58.96,59.818,74.34,40.844,74.34z"/>
<path fill="#FFFFFF" d="M36.043,15.242c1.58-0.373,2.264-1.046,2.264-2.237c0-0.772-0.274-1.354-0.831-1.768
	c-0.288-0.214-0.509-0.255-1.341-0.248c-1.007,0.01-1.909,0.216-1.909,0.434c0,0.411,0.649,3.726,0.754,3.853
	C35.138,15.466,35.092,15.466,36.043,15.242z"/>
<path fill="#FFFFFF" d="M40.844,5.632C21.871,5.632,6.49,21.013,6.49,39.987c0,18.973,15.381,34.354,34.354,34.354
	c18.974,0,34.354-15.38,34.354-34.354C75.198,21.013,59.818,5.632,40.844,5.632z M67.7,29.908c-0.167-0.574-0.255-0.699-0.473-0.701
	c-0.379-0.002-0.598-0.177-0.548-0.431c0.04-0.209,0.697-0.495,1.036-0.503c0.078-0.002,0.139,0.013,0.171,0.046
	c0.061,0.061,0.521,1.532,1.017,3.272c0.682,2.385,0.869,3.201,0.762,3.304c-0.077,0.076-0.333,0.162-0.567,0.194
	c-0.769,0.108-0.933-0.104-0.465-0.602c0.259-0.275,0.26-0.306,0.084-0.983c-0.126-0.485-0.249-0.709-0.4-0.739
	c-0.227-0.044-3.321,0.778-3.616,0.96c-0.092,0.057-0.169,0.285-0.171,0.507c-0.007,0.688-0.343,0.503-0.591-0.328
	c-0.121-0.402-0.33-1.103-0.465-1.555s-0.21-0.877-0.167-0.945c0.128-0.208,0.301-0.138,0.445,0.179
	c0.076,0.167,0.229,0.33,0.335,0.362c0.267,0.08,3.582-0.969,3.711-1.174C67.86,30.674,67.821,30.325,67.7,29.908z M69.83,37.632
	L69.83,37.632L69.83,37.632c0.233-0.019,0.256,0.632,0.179,3.212l-0.092,2.999l-0.316-0.008c-0.789-0.019-1.176-0.533-0.594-0.789
	c0.251-0.11,0.279-0.22,0.335-1.33c0.074-1.458,0.012-1.562-0.899-1.508l-0.625,0.038l-0.038,0.846
	c-0.033,0.756-0.007,0.871,0.232,1.052c0.458,0.344,0.225,0.602-0.549,0.602c-1.134,0-1.313-0.2-0.682-0.754
	c0.313-0.275,0.366-0.409,0.366-0.919c0-0.328-0.068-0.662-0.149-0.743c-0.158-0.159-1.292-0.198-1.513-0.053
	c-0.162,0.106-0.336,1.982-0.202,2.175c0.051,0.074,0.219,0.199,0.369,0.278c0.151,0.08,0.275,0.253,0.275,0.384
	c0,0.206-0.085,0.241-0.595,0.241c-0.356,0-0.652-0.067-0.735-0.168c-0.104-0.125-0.105-0.77-0.008-2.53
	c0.072-1.3,0.158-2.445,0.191-2.542c0.045-0.132,0.139-0.089,0.381,0.172l0.32,0.347l1.89-0.081
	c1.911-0.083,2.214-0.161,2.214-0.572c0-0.122,0.061-0.259,0.134-0.305C69.762,37.651,69.796,37.634,69.83,37.632L69.83,37.632z
	 M67.345,48.354c-0.354,0-0.533,0.208-1.12,1.311c-0.614,1.152-1.226,1.756-1.794,1.772c-0.978,0.027-1.637-0.975-1.513-2.302
	c0.087-0.938,0.689-2.533,1.169-3.101l0.358-0.423l0.587,0.304c0.749,0.388,0.769,0.644,0.057,0.739
	c-0.566,0.076-0.811,0.298-1.189,1.082c-0.337,0.699-0.355,1.357-0.049,1.745c0.489,0.619,0.907,0.36,1.566-0.96
	c0.682-1.366,1.309-1.861,2.149-1.703c0.496,0.093,0.867,0.513,1.047,1.186c0.191,0.706-0.065,1.881-0.708,3.25
	c-0.385,0.819-0.571,0.921-1.147,0.625c-0.524-0.269-0.616-0.383-0.514-0.648c0.047-0.122,0.22-0.194,0.469-0.194
	c0.449,0,0.706-0.23,0.979-0.885C68.055,49.284,67.875,48.354,67.345,48.354z M63.318,59.32l-1.25-1.078
	c-0.053-0.001-0.106,0.011-0.165,0.026l-1.25,0.796l0.572-1.509l-1.178-1.219l1.658,0.133c0.062-0.025,0.115-0.066,0.164-0.122
	l0.506-1.272l0.454,1.516l1.521,0.096l-1.322,0.957L63.318,59.32z M55.747,64.178c-0.458-0.624-0.765-0.757-2.595-1.135
	c-0.717-0.148-1-0.158-1.33-0.05c-0.476,0.158-0.637,0.075-0.449-0.228c0.208-0.335,2.037-1.721,2.278-1.726
	c0.176-0.004,0.214,0.075,0.183,0.385l-0.038,0.389l1.135,0.244c0.954,0.203,1.155,0.213,1.242,0.072
	c0.057-0.093,0.192-0.639,0.297-1.211c0.276-1.503,0.303-1.422-0.388-1.14c-0.092,0.037-0.153-0.034-0.153-0.179
	c0-0.23,0.61-0.812,1.38-1.311c0.146-0.094,0.239-0.141,0.305-0.149c0.065-0.008,0.104,0.027,0.148,0.099
	c0.068,0.11,0.035,0.277-0.088,0.465c-0.216,0.33-0.422,1.17-0.659,2.675c-0.156,0.992-0.15,1.026,0.141,1.562
	c0.434,0.797,0.762,1.072,1.07,0.907c0.136-0.074,0.333-0.13,0.438-0.13c0.48,0,0.08,0.417-1.216,1.269
	c-0.773,0.508-1.487,0.926-1.585,0.926c-0.263,0-0.218-0.336,0.064-0.488C56.284,65.234,56.225,64.83,55.747,64.178z M56.844,55.975
	c-3.111,3.11-6.943,5.17-11.363,6.108c-1.377,0.292-1.875,0.336-4.184,0.366c-1.696,0.021-2.989-0.024-3.665-0.126
	C26.87,60.697,19.12,52.484,18.119,41.644c-0.385-4.172,0.526-8.587,2.542-12.311c4.025-7.437,11.954-12.001,20.157-12.044
	c1.703-0.009,3.42,0.176,5.114,0.571c4.219,0.985,7.666,2.861,10.771,5.861c3.711,3.585,5.854,7.785,6.618,12.985
	c0.359,2.441,0.152,5.952-0.514,8.699C61.868,49.284,59.708,53.111,56.844,55.975z M46.293,67.619c0.115,0,0.385-0.637,0.872-2.065
	c0.438-1.285,0.438-1.349-0.008-1.349c-0.38,0-0.595-0.193-0.415-0.373c0.117-0.117,1.879-0.48,2.328-0.48
	c0.379,0,0.342,0.226-0.095,0.599c-0.288,0.246-0.561,0.82-1.257,2.633c-1.013,2.636-1.124,2.866-1.356,2.866
	c-0.093,0-0.242,0.026-0.332,0.061c-0.265,0.102-0.589-0.196-2.29-2.119c-1.549-1.75-1.891-2.035-2.564-2.114
	c-0.168-0.021-0.305-0.114-0.305-0.21c0-0.199,0.292-0.289,1.829-0.572c1.837-0.337,1.89-0.341,1.89-0.118
	c0,0.109-0.137,0.259-0.305,0.335c-0.167,0.077-0.306,0.201-0.305,0.275C43.982,65.146,46.154,67.619,46.293,67.619z M37.705,68.602
	c-0.106-0.206-0.206-0.375-0.221-0.377c-0.016-0.002-0.466-0.086-1.002-0.184c-1.412-0.255-1.706-0.234-1.939,0.122
	c-0.268,0.41-0.246,0.531,0.11,0.693c0.311,0.142,0.43,0.596,0.153,0.58c-0.67-0.039-2.459-0.445-2.5-0.568
	c-0.052-0.156,0.03-0.202,0.605-0.328c0.244-0.053,0.717-0.564,1.803-1.932c1.736-2.189,1.984-2.517,2.225-2.511
	c0.056,0.001,0.11,0.02,0.183,0.038c0.184,0.045,0.42,0.176,0.525,0.29c0.106,0.113,0.682,1.3,1.281,2.636
	c0.865,1.933,1.157,2.47,1.425,2.622c0.185,0.105,0.323,0.27,0.305,0.37c-0.044,0.24-0.216,0.249-1.372,0.05
	c-0.537-0.092-1.223-0.212-1.524-0.263c-0.376-0.063-0.559-0.159-0.586-0.306c-0.028-0.143,0.034-0.209,0.194-0.209
	C37.786,69.326,37.925,69.028,37.705,68.602z M17.624,30.388c-0.447-0.287-3.222-1.421-3.476-1.421c-0.125,0-0.297,0.11-0.38,0.244
	c-0.175,0.279-0.514,0.327-0.514,0.073c0-0.094,0.186-0.574,0.415-1.067c0.229-0.493,0.527-1.156,0.663-1.475
	c0.168-0.395,0.369-0.606,0.492-0.602c0.095,0.003,0.143,0.137,0.091,0.419c-0.04,0.218-0.029,0.463,0.023,0.545
	c0.129,0.202,3.286,1.62,3.609,1.62c0.142,0,0.323-0.11,0.407-0.244c0.177-0.283,0.519-0.329,0.519-0.069
	c0,0.193-1.07,2.715-1.257,2.964c-0.259,0.345-0.479,0.112-0.381-0.407C17.895,30.642,17.86,30.54,17.624,30.388z M13.894,39.765
	c0.419-0.042,1.084-0.109,1.478-0.148c0.652-0.065,0.728-0.103,0.85-0.427c0.223-0.591,0.512-0.393,0.476,0.328
	c-0.072,1.448-0.165,1.899-0.377,1.86c-0.119-0.022-0.218-0.179-0.241-0.374c-0.021-0.184-0.135-0.384-0.251-0.446
	c-0.191-0.103-3.622,0.044-4.001,0.171c-0.079,0.026-0.161,0.205-0.183,0.392c-0.024,0.208-0.122,0.357-0.251,0.381
	c-0.297,0.057-0.367-0.21-0.221-0.842c0.068-0.296,0.124-0.743,0.125-0.994c0.003-0.509,0.171-0.719,2.587-3.247
	c0.729-0.763,1.305-1.448,1.28-1.524c-0.05-0.15-1.737-0.545-2.377-0.556c-0.341-0.006-0.422,0.048-0.53,0.358
	c-0.07,0.201-0.21,0.365-0.313,0.365c-0.16,0-0.177-0.158-0.103-1.116c0.048-0.614,0.116-1.19,0.153-1.284
	c0.031-0.083,0.078-0.125,0.125-0.134c0.105-0.019,0.226,0.127,0.255,0.37c0.021,0.175,0.103,0.368,0.184,0.431
	c0.08,0.063,1.104,0.269,2.278,0.457c1.174,0.189,2.208,0.411,2.298,0.492c0.317,0.283,0.03,0.89-0.88,1.863
	c-0.479,0.513-1.376,1.474-1.997,2.133c-0.62,0.662-1.128,1.283-1.128,1.384C13.131,39.81,13.264,39.829,13.894,39.765z
	 M21.24,18.199c0.482,0.525,0.494,0.562,0.251,0.762c-0.134,0.111-0.239,0.112-0.442,0.004c-0.236-0.126-0.326-0.084-0.8,0.381
	c-0.294,0.289-0.533,0.619-0.533,0.731c0,0.221,2.724,2.671,2.968,2.671c0.081,0,0.27-0.087,0.419-0.191
	c0.26-0.182,0.515-0.152,0.515,0.061c0,0.056-0.447,0.629-0.991,1.272c-0.544,0.645-1.065,1.174-1.158,1.174
	c-0.194,0-0.229-0.435-0.046-0.549c0.344-0.212,0.05-0.597-1.307-1.703c-0.786-0.641-1.525-1.162-1.642-1.162
	c-0.118,0-0.435,0.273-0.702,0.609c-0.441,0.56-0.469,0.646-0.35,0.987c0.189,0.542-0.018,0.703-0.564,0.441
	c-0.725-0.345-0.755-0.586-0.153-1.264c0.289-0.325,1.256-1.468,2.149-2.542c0.893-1.073,1.699-1.996,1.791-2.05
	c0.014-0.008,0.03-0.013,0.046-0.015l0,0C20.808,17.8,20.988,17.924,21.24,18.199z M26.381,16.248
	c0.407,0.156,1.561-0.684,1.443-1.052c-0.078-0.246,0.226-0.56,0.423-0.438c0.229,0.142,0.839,1.311,0.773,1.482
	c-0.079,0.205-0.332,0.211-0.64,0.019c-0.19-0.119-0.317-0.102-0.678,0.091c-0.245,0.13-0.552,0.337-0.682,0.458
	c-0.224,0.207-0.224,0.239-0.034,0.61c0.278,0.545,0.653,1.062,0.77,1.062c0.054,0,0.521-0.278,1.041-0.617
	c0.848-0.554,0.935-0.648,0.88-0.937c-0.156-0.819,0.362-0.877,0.747-0.084c0.149,0.306,0.239,0.606,0.202,0.666
	c-0.038,0.06-0.599,0.422-1.25,0.804c-0.652,0.382-1.632,0.988-2.176,1.345c-0.544,0.357-1.021,0.651-1.06,0.651
	c-0.163,0-0.21-0.258-0.087-0.487c0.16-0.299,0.143-0.332-1.06-2.153c-1.067-1.617-1.123-1.672-1.532-1.517
	c-0.168,0.064-0.34,0.083-0.381,0.042c-0.189-0.189-0.013-0.401,0.686-0.838c0.417-0.26,1.468-0.924,2.339-1.478
	c0.871-0.553,1.657-1.006,1.742-1.006c0.171,0,0.525,0.613,0.525,0.911c0,0.274-0.334,0.364-0.674,0.182
	c-0.262-0.14-0.377-0.101-1.15,0.358c-0.473,0.281-0.857,0.589-0.857,0.69C25.691,15.308,26.17,16.167,26.381,16.248z
	 M32.759,13.116c-0.057-0.302-0.138-0.755-0.179-1.006c-0.06-0.371-0.136-0.471-0.404-0.53c-0.573-0.125-0.653-0.17-0.602-0.324
	c0.056-0.167,0.069-0.168,2.896-0.709c1.107-0.211,2-0.331,2.724-0.347c0.104-0.002,0.205-0.001,0.302,0
	c1.286,0.027,1.975,0.428,2.347,1.246c0.5,1.103,0.2,2.215-0.85,3.159c-0.798,0.718-1.509,0.981-3.696,1.38
	c-0.958,0.174-1.861,0.346-2.004,0.381c-0.349,0.083-0.428-0.088-0.258-0.538C33.171,15.463,33.13,15.073,32.759,13.116z
	 M46.651,15.657c0.686,0.206,1.156,0.17,1.516-0.114c0.607-0.478,0.324-1.038-0.739-1.456c-1.103-0.434-1.816-0.928-2.054-1.429
	c-0.188-0.398-0.193-0.5-0.041-0.93c0.093-0.265,0.319-0.592,0.503-0.728c0.259-0.193,0.783-0.304,1.364-0.312
	c0.348-0.005,0.717,0.027,1.063,0.099c0.856,0.178,2.18,0.8,2.18,1.025c0,0.095-0.088,0.377-0.19,0.625
	c-0.147,0.352-0.247,0.442-0.458,0.412c-0.205-0.03-0.281-0.141-0.328-0.465c-0.051-0.358-0.148-0.471-0.606-0.701
	c-0.686-0.346-1.586-0.372-1.875-0.053c-0.422,0.466-0.128,0.86,1.018,1.364c1.486,0.654,2.072,1.197,2.072,1.917
	c0,0.49-0.368,1.061-0.834,1.299c-0.363,0.186-1.379,0.318-1.848,0.24c-1.171-0.195-2.845-0.87-2.972-1.201
	c-0.039-0.1,0.038-0.429,0.167-0.731c0.169-0.395,0.306-0.549,0.484-0.549c0.25,0,0.292,0.09,0.255,0.563
	C45.304,14.861,46.015,15.466,46.651,15.657z M62.605,28.159c0.063,0.142,0.09,0.328,0.061,0.412
	c-0.121,0.351-0.289,0.188-1.36-1.311c-0.892-1.249-0.991-1.765-0.247-1.311c0.212,0.13,0.277,0.118,0.426-0.083
	c0.096-0.13,0.175-0.368,0.175-0.526c0-0.316-1.135-2.079-1.406-2.183c-0.094-0.036-0.324-0.013-0.51,0.05
	c-0.301,0.102-0.337,0.166-0.301,0.56c0.029,0.321-0.006,0.446-0.129,0.446c-0.213,0-1.433-1.688-1.433-1.981
	c0-0.262,0.281-0.279,0.488-0.03c0.202,0.244,0.684,0.233,3.433-0.076c1.105-0.125,1.685-0.189,2.016-0.194
	c0.331-0.006,0.415,0.048,0.53,0.151c0.334,0.303,0.303,0.586-0.198,1.769C62.807,27.018,62.491,27.902,62.605,28.159z M63.6,14.766
	c0.031-0.02,0.069-0.029,0.107-0.03c0.267-0.008,0.684,0.41,0.948,0.979c0.247,0.53,0.293,0.822,0.294,1.82
	c0.001,1.099-0.017,1.189-0.236,1.189c-0.331,0-0.873-0.757-0.987-1.375C63.522,16.252,63.454,14.855,63.6,14.766z M61.222,12.902
	c0.024-0.024,0.054-0.038,0.092-0.042c0.013-0.001,0.028,0,0.042,0c0.245,0.009,0.681,0.313,0.956,0.706
	c0.307,0.437,0.377,0.691,0.484,1.741c0.083,0.823,0.085,1.267,0.003,1.349c-0.158,0.158-0.671-0.237-0.998-0.77
	C61.554,15.482,61.081,13.044,61.222,12.902z M58.863,11.043c0.018-0.002,0.038,0,0.058,0c0.266,0,1.023,0.721,1.269,1.208
	c0.211,0.418,0.496,1.743,0.496,2.305c0,0.372-0.282,0.331-0.793-0.119c-0.558-0.49-0.588-0.549-0.968-1.973
	C58.625,11.337,58.604,11.072,58.863,11.043z M56.223,9.572c0.315-0.02,0.988,0.41,1.337,0.945c0.318,0.487,0.866,2.403,0.743,2.603
	c-0.04,0.064-0.113,0.118-0.161,0.118c-0.179,0-0.964-0.604-1.139-0.876c-0.216-0.335-0.953-2.352-0.953-2.606
	C56.051,9.636,56.117,9.579,56.223,9.572z M53.315,8.471c0.051-0.084,0.146-0.122,0.267-0.119c0.363,0.01,0.964,0.375,1.368,0.888
	c0.276,0.352,0.995,2.288,0.903,2.435c-0.146,0.236-0.846-0.099-1.349-0.648C54.174,10.667,53.223,8.621,53.315,8.471z
	 M53.735,18.023c0.378-0.48,1.829-2.907,1.829-3.06c0-0.188-1.039-0.872-1.325-0.872c-0.135,0-0.279,0.055-0.321,0.122
	c-0.12,0.195-0.548,0.141-0.548-0.068c0-0.104,0.079-0.339,0.175-0.526c0.146-0.283,0.228-0.462,0.431-0.472
	c0.336-0.016,1.004,0.439,2.857,1.684c1.763,1.185,2.755,1.923,2.755,2.054c0,0.272-0.795,1.037-0.968,0.93
	c-0.075-0.046-0.123-0.279-0.106-0.515c0.022-0.333-0.042-0.479-0.274-0.656c-0.492-0.373-0.818-0.518-1.006-0.445
	c-0.179,0.068-2.019,2.631-2.183,3.041c-0.059,0.146-0.008,0.301,0.151,0.461c0.133,0.132,0.241,0.326,0.241,0.427
	c0,0.333-0.323,0.192-1.593-0.701c-1.434-1.008-1.633-1.269-0.872-1.147C53.417,18.349,53.502,18.32,53.735,18.023z M50.469,7.412
	c0.058-0.07,0.14-0.104,0.244-0.106c0.23-0.008,0.57,0.143,1.022,0.453c0.419,0.289,0.628,0.572,1.021,1.398
	c0.271,0.57,0.492,1.117,0.492,1.216c0,0.241-0.333,0.222-0.854-0.054c-0.555-0.294-0.709-0.478-1.448-1.711
	C50.465,7.805,50.361,7.542,50.469,7.412z M47.577,6.653c0.055-0.045,0.126-0.069,0.217-0.072c0.273-0.01,0.698,0.162,1.208,0.5
	c0.429,0.283,1.553,1.977,1.558,2.347c0.006,0.369-1.072,0.019-1.612-0.522c-0.152-0.153-0.563-0.689-0.915-1.193
	C47.492,6.934,47.426,6.779,47.577,6.653z M44.811,6.097c0.456-0.002,1.256,0.292,1.696,0.706c0.339,0.318,1.253,1.705,1.253,1.901
	c0,0.23-0.626,0.16-1.185-0.134c-0.495-0.26-2.107-1.997-2.107-2.271C44.468,6.16,44.604,6.098,44.811,6.097z M41.603,5.968
	c0.096-0.072,0.222-0.113,0.37-0.123c0.325-0.02,0.756,0.111,1.215,0.378c0.481,0.28,1.768,1.735,1.768,2
	c0,0.22-0.993,0.15-1.463-0.103c-0.235-0.126-0.811-0.623-1.28-1.101C41.387,6.179,41.367,6.144,41.603,5.968z M38.402,6.124
	c0.026-0.08,0.307-0.159,0.625-0.179c0.049-0.003,0.1-0.008,0.149-0.008l0,0c0.726-0.002,1.335,0.348,2.244,1.266
	c0.644,0.65,0.758,0.82,0.609,0.914c-0.319,0.202-1.24,0.055-1.734-0.278C39.576,7.353,38.359,6.252,38.402,6.124z M36.302,6.196
	c0.076,0.002,0.152,0.009,0.229,0.019c0.632,0.084,1.299,0.462,2.145,1.215c0.398,0.354,0.567,0.583,0.488,0.66
	c-0.201,0.19-0.702,0.247-1.2,0.133c-0.486-0.111-2.461-1.39-2.572-1.665C35.308,6.351,35.774,6.181,36.302,6.196z M33.415,6.787
	L33.415,6.787c0.084,0,0.168,0.002,0.259,0.008c0.643,0.041,0.88,0.128,1.555,0.568c1.025,0.668,1.309,0.968,1.063,1.124
	c-0.267,0.168-1.343,0.129-1.791-0.065c-0.633-0.275-2.104-1.179-2.104-1.292C32.396,6.925,32.825,6.787,33.415,6.787z M30.591,7.53
	L30.591,7.53c0.09-0.001,0.185,0.002,0.282,0.008c0.611,0.035,0.896,0.14,1.745,0.632c0.917,0.533,0.998,0.607,0.827,0.778
	c-0.115,0.115-0.462,0.205-0.892,0.229c-0.614,0.034-0.854-0.029-1.863-0.484c-0.687-0.309-1.159-0.593-1.159-0.697
	C29.531,7.725,29.963,7.541,30.591,7.53z M27.024,8.787c0.216-0.111,0.668-0.183,1.128-0.179c0.634,0.005,0.929,0.085,1.68,0.457
	c0.5,0.249,0.927,0.512,0.948,0.587c0.022,0.074-0.114,0.197-0.301,0.27c-0.741,0.292-1.172,0.271-2.351-0.114
	C26.549,9.292,26.37,9.126,27.024,8.787z M24.49,10.067c0.313-0.142,0.631-0.218,0.983-0.225c0.453-0.008,0.967,0.099,1.619,0.32
	c1.097,0.372,1.219,0.576,0.549,0.91c-0.415,0.208-1.213,0.269-1.585,0.122c-0.101-0.04-0.595-0.164-1.098-0.274
	C23.832,10.674,23.696,10.428,24.49,10.067z M21.465,11.957c0.146-0.379,1.011-0.65,1.844-0.651c0.278,0,0.552,0.03,0.796,0.095
	c0.235,0.062,0.66,0.174,0.945,0.247c0.653,0.17,0.664,0.411,0.034,0.732c-0.554,0.282-1.422,0.306-2.713,0.076
	C21.464,12.295,21.357,12.238,21.465,11.957z M19.099,13.737c0.163-0.305,0.657-0.576,1.314-0.724
	c0.055-0.012,0.136-0.02,0.237-0.022c0.701-0.021,2.328,0.175,2.473,0.32c0.12,0.12-0.202,0.466-0.648,0.697
	c-0.504,0.262-1.027,0.313-2.393,0.241C19.061,14.193,18.899,14.109,19.099,13.737z M18.012,15.014
	c0.314-0.113,0.547-0.163,0.9-0.167c0.211-0.003,0.466,0.011,0.804,0.038c0.726,0.057,1.097,0.134,1.097,0.232
	c0,0.229-0.623,0.768-1.127,0.979c-0.251,0.104-1.032,0.227-1.738,0.271c-1.264,0.077-1.28,0.075-1.28-0.19
	C16.667,15.806,17.279,15.277,18.012,15.014z M14.869,17.909c0.672-0.637,1.141-0.805,2.45-0.869l1.196-0.057l-0.038,0.286
	c-0.051,0.356-0.934,1.042-1.543,1.2c-0.58,0.152-2.328,0.348-2.404,0.271C14.373,18.583,14.511,18.25,14.869,17.909z
	 M13.272,20.062c0.587-0.425,1.049-0.563,2.268-0.678c0.299-0.029,0.496-0.043,0.628-0.042c0.22,0.003,0.255,0.053,0.255,0.175
	c0,0.12-0.228,0.428-0.503,0.682c-0.421,0.389-0.676,0.5-1.616,0.716c-0.614,0.142-1.207,0.287-1.318,0.32
	c-0.111,0.033-0.24-0.003-0.286-0.077C12.535,20.891,12.781,20.418,13.272,20.062z M12.785,21.959
	c0.566-0.168,1.367-0.297,1.733-0.301c0.123-0.001,0.198,0.011,0.198,0.042c0,0.217-0.394,0.805-0.724,1.083
	c-0.201,0.169-0.874,0.479-1.497,0.686c-0.623,0.207-1.201,0.377-1.284,0.377c-0.086,0-0.152-0.152-0.152-0.351
	C11.059,22.994,11.938,22.211,12.785,21.959z M9.76,25.884c0.251-0.603,0.985-1.143,2.027-1.49c0.543-0.181,0.879-0.279,1.078-0.293
	c0.029-0.002,0.053-0.001,0.077,0c0.144,0.008,0.19,0.081,0.19,0.213c0,0.487-0.907,1.289-1.992,1.76
	C9.696,26.701,9.433,26.666,9.76,25.884z M8.556,28.868c0.17-0.678,0.84-1.293,1.939-1.784c0.503-0.224,0.99-0.385,1.173-0.396l0,0
	c0.026-0.002,0.048-0.001,0.061,0.003c0.17,0.066,0.169,0.121-0.004,0.534c-0.282,0.676-0.6,0.954-1.836,1.623
	c-0.613,0.332-1.147,0.605-1.185,0.605C8.55,29.454,8.479,29.176,8.556,28.868z M8.277,30.728c0.386-0.439,1.996-1.395,2.351-1.395
	c0.164,0,0.195,0.065,0.137,0.297c-0.226,0.898-0.45,1.166-1.692,1.997c-1.19,0.797-1.141,0.775-1.307,0.576
	C7.563,31.957,7.805,31.266,8.277,30.728z M7.157,34.389c0.242-0.637,0.743-1.166,1.676-1.775c0.521-0.34,0.812-0.504,0.968-0.507
	c0.122-0.001,0.161,0.095,0.161,0.278c0,0.653-0.412,1.243-1.448,2.077c-0.577,0.464-1.117,0.846-1.2,0.846
	C7.088,35.307,7,34.8,7.157,34.389z M7.039,36.816c0.25-0.515,1.875-1.935,2.214-1.935c0.256,0,0.248,0.345-0.026,1.078
	C9.012,36.533,8.803,36.794,8,37.502c-0.532,0.469-0.984,0.854-1.006,0.854C6.705,38.355,6.73,37.454,7.039,36.816z M6.811,41.194
	c-0.352-0.656-0.032-1.48,0.999-2.564c0.527-0.556,0.874-0.842,1.074-0.873c0.156-0.024,0.225,0.107,0.225,0.384
	c0,0.218-0.059,0.596-0.126,0.839c-0.078,0.282-0.469,0.81-1.079,1.459C6.994,41.41,6.944,41.445,6.811,41.194z M7.294,44.38
	c-0.186,0.115-0.384-0.34-0.373-0.865c0.015-0.739,0.243-1.187,1.071-2.111c0.507-0.566,0.724-0.765,0.861-0.758l0,0
	c0.031,0.001,0.058,0.013,0.083,0.034c0.209,0.174,0.211,0.759,0.004,1.337c-0.085,0.238-0.462,0.851-0.838,1.36
	C7.725,43.887,7.362,44.337,7.294,44.38z M7.767,47.378c-0.372,0-0.524-1.159-0.248-1.886c0.195-0.512,1.338-2.016,1.532-2.016
	c0.256,0,0.349,0.955,0.149,1.536c-0.095,0.273-0.435,0.915-0.754,1.429C8.125,46.955,7.818,47.378,7.767,47.378z M8.548,50.274
	c-0.338,0.095-0.589-0.708-0.469-1.509c0.083-0.556,1.087-2.361,1.364-2.454c0.015-0.004,0.028-0.008,0.042-0.007
	c0.209,0.01,0.379,0.615,0.324,1.208c-0.03,0.331-0.272,1.001-0.591,1.642C8.923,49.75,8.622,50.253,8.548,50.274z M9.538,53.109
	c-0.339,0-0.493-0.4-0.487-1.269c0.005-0.774,0.062-0.974,0.533-1.897l0.526-1.033l0.225,0.274c0.458,0.566,0.425,1.207-0.129,2.626
	C9.921,52.535,9.627,53.109,9.538,53.109z M10.148,54.039c0.266-0.92,0.843-2.271,0.972-2.271c0.238,0,0.548,0.77,0.545,1.357
	c-0.003,0.472-0.471,2.352-0.667,2.667C10.689,56.291,9.942,54.752,10.148,54.039z M12.884,56.706
	c-0.071,0.335-0.159,0.84-0.199,1.125c-0.096,0.686-0.295,0.84-0.625,0.487c-0.401-0.43-0.579-1.333-0.408-2.073
	c0.265-1.148,0.521-1.917,0.637-1.917c0.194,0,0.568,0.728,0.647,1.262C12.979,55.868,12.955,56.371,12.884,56.706z M14.446,59.926
	c-0.086,0.565-0.215,1.047-0.286,1.07c-0.142,0.047-0.566-0.373-0.758-0.754c-0.25-0.497-0.268-1.229-0.057-2.248
	c0.117-0.565,0.278-1.049,0.358-1.075c0.008-0.002,0.016-0.003,0.023-0.004c0.008-0.001,0.015-0.001,0.023,0
	c0.253,0.046,0.752,0.929,0.804,1.463C14.581,58.666,14.532,59.361,14.446,59.926z M16.275,61.9
	c-0.037,1.461-0.132,1.659-0.572,1.219c-0.562-0.562-0.682-0.985-0.651-2.245c0.025-1.065,0.131-1.593,0.343-1.611
	c0.145-0.012,0.34,0.214,0.59,0.674C16.291,60.497,16.308,60.615,16.275,61.9z M15.818,50.915c-0.875,0.356-1.599,0.708-1.608,0.781
	c-0.01,0.073-0.024,0.268-0.031,0.435c-0.008,0.18-0.094,0.319-0.217,0.343c-0.153,0.03-0.242-0.093-0.343-0.484
	c-0.075-0.29-0.275-0.98-0.445-1.536c-0.17-0.555-0.281-1.091-0.244-1.189c0.089-0.232,0.405-0.104,0.483,0.195
	c0.109,0.416,0.4,0.385,1.703-0.183c0.704-0.306,1.337-0.557,1.406-0.557s0.246-0.151,0.393-0.335
	c0.225-0.284,0.255-0.442,0.202-1.041c-0.079-0.881-0.517-1.79-0.999-2.061c-0.35-0.198-0.425-0.19-1.832,0.129
	c-0.808,0.184-1.535,0.373-1.616,0.423c-0.082,0.05-0.149,0.286-0.149,0.522c0,0.333-0.045,0.419-0.202,0.389
	c-0.136-0.027-0.313-0.396-0.545-1.135c-0.19-0.604-0.35-1.139-0.351-1.189c-0.002-0.071,0.045-0.104,0.11-0.106
	c0.144-0.006,0.391,0.133,0.476,0.32c0.174,0.383,0.374,0.383,1.853,0c0.637-0.166,1.446-0.304,1.798-0.305
	c0.562-0.002,0.696,0.05,1.109,0.423c0.919,0.831,1.642,3.17,1.364,4.413c-0.093,0.414-0.248,0.726-0.435,0.873
	C17.541,50.164,16.693,50.559,15.818,50.915z M18.413,65.333c-0.195,0.325-0.732-0.098-1.158-0.911
	c-0.236-0.449-0.272-0.693-0.255-1.726c0.01-0.661,0.044-1.23,0.076-1.261c0.016-0.016,0.039-0.021,0.064-0.022
	c0.178-0.009,0.551,0.331,0.793,0.75c0.229,0.397,0.323,0.813,0.415,1.798C18.415,64.665,18.443,65.282,18.413,65.333z
	 M20.749,67.257c-0.126,0.204-0.385,0.127-0.758-0.221c-0.503-0.469-0.717-0.943-0.812-1.794c-0.045-0.403-0.114-0.965-0.152-1.25
	c-0.062-0.459-0.044-0.518,0.171-0.518c0.262,0,1.057,0.798,1.17,1.174C20.528,65.18,20.814,67.149,20.749,67.257z M20.688,55.917
	c-0.026,0.069-0.184,0.242-0.374,0.412c-0.272,0.243-0.35,0.312-0.294,0.644l0.484,1.333l-1.33-0.788
	c-0.158,0.017-0.326,0.111-0.533,0.286c-0.069,0.058-0.131,0.107-0.187,0.148l-0.015,0.011l-0.606,0.556l0.301-1.584l-1.372-0.995
	l1.669-0.164c0.052-0.051,0.099-0.116,0.137-0.202l0.263-1.284l0.636,1.257c0.057,0.067,0.113,0.115,0.187,0.145l1.402-0.16
	L20.688,55.917z M22.566,68.85c-0.533-0.326-0.867-0.928-1.083-1.951c-0.237-1.13-0.236-1.597-0.003-1.597
	c0.239,0,1.02,0.794,1.181,1.2c0.206,0.514,0.585,2.004,0.587,2.305C23.251,69.143,23.064,69.153,22.566,68.85z M22.395,63.839
	c-0.268-0.137-0.484-0.339-0.484-0.446c0-0.16,0.09-0.179,0.525-0.114l0.53,0.08l1.177-1.574c0.648-0.865,1.181-1.654,1.181-1.752
	c0-0.099-0.11-0.279-0.244-0.4c-0.281-0.253-0.321-0.548-0.076-0.548c0.223,0,1.839,0.939,2.058,1.196
	c0.094,0.111,0.326,0.645,0.514,1.181c0.878,2.502,1.559,4.085,1.756,4.085c0.056,0,0.397-0.573,0.759-1.273l0.659-1.272
	l-0.358-0.373c-0.26-0.272-0.325-0.415-0.229-0.511c0.158-0.158,2.355,1.065,2.355,1.311c0,0.245-0.207,0.302-0.545,0.148
	c-0.244-0.111-0.35-0.114-0.465-0.004c-0.082,0.079-0.615,1.037-1.185,2.126c-0.57,1.088-1.119,1.994-1.219,2.012
	c-0.101,0.017-0.349-0.102-0.552-0.263c-0.299-0.238-0.588-0.84-1.517-3.17c-0.63-1.583-1.212-2.877-1.292-2.877
	c-0.202,0-1.882,2.171-1.882,2.431c0,0.117,0.11,0.313,0.244,0.435c0.277,0.25,0.321,0.549,0.084,0.549
	c-0.087,0-0.416-0.166-0.732-0.366C23.142,64.249,22.662,63.976,22.395,63.839z M24.422,69.604c-0.341-0.519-0.86-2.275-0.755-2.549
	c0.03-0.079,0.057-0.118,0.114-0.118c0.058,0,0.146,0.042,0.294,0.118c0.626,0.324,0.994,0.823,1.429,1.947
	c0.238,0.614,0.431,1.212,0.431,1.33C25.933,70.842,24.912,70.35,24.422,69.604z M28.678,71.639c-0.198,0.32-0.85,0.053-1.417-0.575
	c-0.391-0.434-1.007-1.776-1.104-2.408c-0.021-0.134,0.038-0.209,0.152-0.222c0.016-0.001,0.035-0.001,0.053,0
	c0.19,0.006,0.486,0.137,0.792,0.378C27.615,69.172,28.819,71.41,28.678,71.639z M31.593,72.637
	c-0.035,0.056-0.212,0.101-0.393,0.099c-0.711-0.008-1.358-0.615-1.985-1.856c-0.262-0.518-0.476-1.026-0.476-1.128
	c0-0.122,0.091-0.175,0.236-0.171c0.318,0.007,0.886,0.285,1.242,0.674C30.64,70.718,31.674,72.506,31.593,72.637z M33.178,73.121
	c-0.592-0.433-0.753-0.624-1.311-1.559c-0.529-0.886-0.547-1.018-0.137-1.018c0.643,0,1.263,0.466,2.069,1.559
	c0.431,0.584,0.787,1.131,0.789,1.215C34.595,73.621,33.685,73.492,33.178,73.121z M36.238,73.757
	c-0.533-0.286-0.87-0.619-1.486-1.482c-0.509-0.712-0.601-1.077-0.278-1.094c0.194-0.01,0.54,0.106,1.033,0.347
	c0.531,0.257,1.951,1.835,1.951,2.167C37.457,73.974,36.711,74.011,36.238,73.757z M40.372,74.127
	c-0.682,0.262-1.711-0.262-2.61-1.33c-0.369-0.438-0.67-0.863-0.67-0.945c0-0.116,0.17-0.179,0.408-0.183
	c0.237-0.004,0.542,0.049,0.808,0.16c0.508,0.212,2.26,1.823,2.26,2.077C40.566,73.988,40.478,74.086,40.372,74.127z M43.583,73.837
	c-0.046,0.258-1.13,0.292-1.676,0.054c-0.479-0.209-2.096-1.75-2-1.905c0.035-0.056,0.354-0.099,0.708-0.099
	c0.497,0,0.757,0.074,1.121,0.32C42.718,72.869,43.616,73.661,43.583,73.837z M46.563,73.616c-0.201,0.202-1.145,0.238-1.62,0.062
	c-0.534-0.199-2.208-1.533-2.149-1.711c0.047-0.141,0.314-0.229,0.644-0.24c0.048-0.001,0.096-0.001,0.145,0
	c0.131,0.004,0.268,0.024,0.4,0.054c0.47,0.105,2.45,1.301,2.625,1.584C46.653,73.436,46.632,73.547,46.563,73.616z M49.353,73.102
	c-0.278,0.149-1.302,0.153-1.661,0.007c-0.333-0.134-1.974-1.198-2.058-1.333c-0.134-0.217,0.206-0.367,0.793-0.366
	c0.084,0,0.174,0.005,0.266,0.012c0.635,0.043,0.942,0.155,1.829,0.655c0.587,0.332,1.067,0.669,1.067,0.751
	C49.589,72.909,49.483,73.032,49.353,73.102z M52.214,72.199c-0.358,0.234-1.104,0.325-1.528,0.187
	c-0.532-0.174-2.021-0.958-2.179-1.151c-0.128-0.154-0.105-0.212,0.129-0.339c0.217-0.118,0.469-0.175,0.77-0.171
	c0.5,0.007,1.13,0.185,1.92,0.537c0.653,0.292,1.189,0.575,1.189,0.633C52.516,71.953,52.379,72.091,52.214,72.199z M55.026,71.098
	c-0.169,0.111-0.625,0.225-1.013,0.255c-0.621,0.048-0.832-0.002-1.734-0.408c-0.564-0.254-1.046-0.532-1.074-0.618
	c-0.068-0.205,0.621-0.481,1.219-0.506c0.041-0.002,0.08,0,0.118,0c0.599,0.009,2.678,0.712,2.748,0.93
	C55.315,70.831,55.196,70.987,55.026,71.098z M57.606,69.814c-0.565,0.345-1.726,0.309-2.865-0.084
	c-0.926-0.32-1.09-0.531-0.61-0.789c0.335-0.18,0.729-0.265,1.208-0.259c0.287,0.003,0.604,0.037,0.956,0.106
	C58.107,69.147,58.366,69.351,57.606,69.814z M59.958,68.32c-0.586,0.295-1.432,0.347-2.199,0.134
	c-0.234-0.065-0.632-0.174-0.884-0.24c-0.602-0.157-0.579-0.392,0.069-0.705c0.301-0.146,0.649-0.229,1.086-0.244
	c0.437-0.015,0.964,0.035,1.619,0.149c0.719,0.124,0.853,0.185,0.853,0.388C60.501,67.965,60.325,68.135,59.958,68.32z
	 M61.912,66.746c-0.823,0.247-3.056,0.032-3.056-0.293c0-0.22,0.533-0.621,1.056-0.792c0.141-0.046,0.434-0.071,0.785-0.076
	c0.117-0.002,0.239-0.002,0.366,0c0.842,0.012,1.814,0.103,1.89,0.225C63.072,66.003,62.416,66.596,61.912,66.746z M64.312,64.708
	c-0.517,0.263-1.147,0.334-2.264,0.262c-1.156-0.074-1.183-0.484-0.064-1.01c0.438-0.206,1.349-0.342,2.081-0.365
	c0.071-0.003,0.142-0.004,0.209-0.004c0.47-0.001,0.827,0.053,0.872,0.172C65.247,64.023,64.913,64.401,64.312,64.708z
	 M66.263,62.604c-0.663,0.321-2.8,0.51-2.953,0.263c-0.161-0.261,0.659-0.972,1.334-1.159c0.589-0.163,1.678-0.284,2.221-0.274
	c0.181,0.003,0.302,0.022,0.324,0.057C67.324,61.71,66.792,62.348,66.263,62.604z M67.597,60.539
	c-0.188,0.071-0.806,0.163-1.372,0.206c-0.854,0.066-1.029,0.052-1.029-0.095c0-0.225,0.678-0.875,1.158-1.109
	c0.467-0.229,1.814-0.51,2.381-0.529c0.131-0.005,0.221,0.007,0.248,0.034C69.287,59.349,68.494,60.203,67.597,60.539z
	 M70.615,56.798c-0.216,0.711-1.06,1.261-2.408,1.566c-1.181,0.268-1.148,0.262-1.242,0.111c-0.113-0.184,0.128-0.545,0.667-1.006
	c0.336-0.287,0.833-0.527,1.589-0.758c0.529-0.162,0.887-0.249,1.112-0.259C70.622,56.437,70.689,56.552,70.615,56.798z
	 M71.445,54.915c-0.495,0.493-0.739,0.626-1.677,0.911c-0.603,0.184-1.139,0.333-1.189,0.332c-0.284-0.005,0.247-1.038,0.709-1.38
	c0.359-0.265,2.263-1.066,2.598-1.105l0,0c0.022-0.002,0.038-0.001,0.046,0.004C72.198,53.84,71.986,54.376,71.445,54.915z
	 M71.171,53.166c-1.442,0.598-1.591,0.542-1.101-0.419c0.279-0.547,0.584-0.781,1.798-1.391c0.57-0.285,0.896-0.425,1.072-0.427
	c0.136-0.002,0.182,0.078,0.182,0.232C73.122,51.854,72.302,52.697,71.171,53.166z M72.204,50.393
	c-1.124,0.593-1.279,0.623-1.276,0.248c0.004-0.59,0.531-1.237,1.584-1.947c0.694-0.467,1.07-0.685,1.266-0.682
	c0.152,0.002,0.198,0.136,0.198,0.393C73.976,49.08,73.343,49.791,72.204,50.393z M74.516,45.569
	c-0.008,0.672-0.39,1.247-1.185,1.783c-0.934,0.629-1.39,0.877-1.471,0.797c-0.151-0.151-0.081-0.659,0.156-1.125
	c0.236-0.461,2.056-2.023,2.359-2.023C74.471,45.001,74.521,45.202,74.516,45.569z M73.515,44.681
	c-0.517,0.408-0.983,0.747-1.037,0.747c-0.2,0-0.235-0.393-0.083-0.949c0.125-0.462,0.343-0.76,1.117-1.52
	c0.617-0.606,0.995-0.91,1.208-0.934c0.166-0.019,0.232,0.132,0.232,0.438C74.951,43.233,74.537,43.87,73.515,44.681z
	 M74.943,40.146c-0.115,0.409-0.378,0.797-0.953,1.406c-1.096,1.161-1.358,1.275-1.357,0.591c0.001-0.715,0.282-1.271,1.113-2.214
	c0.469-0.532,0.93-0.964,1.025-0.964C75.038,38.965,75.119,39.519,74.943,40.146z M74.6,35.966c0.109,0.011,0.188,0.129,0.259,0.343
	c0.202,0.606-0.174,1.516-1.021,2.473c-0.416,0.469-0.828,0.87-0.918,0.891c-0.174,0.042-0.223-0.222-0.171-0.952
	c0.038-0.531,0.12-0.689,0.96-1.867c0.419-0.586,0.678-0.869,0.857-0.888C74.578,35.965,74.589,35.965,74.6,35.966z M74.093,32.892
	c0.011-0.001,0.021-0.001,0.031,0c0.037,0.004,0.071,0.026,0.106,0.061c0.223,0.223,0.27,1.157,0.084,1.692
	c-0.095,0.272-0.467,0.89-0.827,1.372c-0.867,1.161-0.976,1.157-0.976-0.039c0-0.688,0.051-0.84,0.618-1.779
	C73.705,33.246,73.935,32.913,74.093,32.892z M73.328,29.969c0.015-0.004,0.027-0.003,0.042-0.003
	c0.217,0.001,0.396,0.509,0.396,1.155c0,0.551-0.087,0.797-0.617,1.714c-0.849,1.469-1.128,1.508-1.12,0.164
	c0.004-0.717,0.066-0.919,0.579-1.894C72.923,30.504,73.248,29.994,73.328,29.969z M72.368,27.149c0.114,0,0.217,0.137,0.327,0.399
	c0.307,0.734,0.229,1.277-0.361,2.492c-0.6,1.233-0.837,1.384-1.037,0.663c-0.204-0.733-0.145-1.119,0.339-2.347
	C71.961,27.533,72.177,27.149,72.368,27.149z M71.015,24.364c0.01-0.003,0.021-0.006,0.034-0.004
	c0.09,0.015,0.243,0.163,0.362,0.358c0.379,0.62,0.327,1.536-0.152,2.712c-0.216,0.532-0.464,0.99-0.549,1.017
	c-0.16,0.052-0.428-0.486-0.564-1.127C70.055,26.895,70.775,24.443,71.015,24.364z M69.411,21.761
	c0.024-0.039,0.056-0.061,0.095-0.064c0.169-0.016,0.452,0.279,0.613,0.682c0.267,0.666,0.246,1.224-0.091,2.381
	c-0.344,1.18-0.575,1.309-0.93,0.526c-0.132-0.291-0.239-0.635-0.24-0.77C68.856,24.212,69.317,21.912,69.411,21.761z
	 M67.631,19.338c0.04-0.064,0.093-0.102,0.149-0.11c0.303-0.047,0.789,0.657,0.903,1.417c0.069,0.461,0.015,0.925-0.271,2.377
	c-0.123,0.626-0.586,0.31-0.911-0.621C67.353,21.973,67.451,19.63,67.631,19.338z M65.856,16.876c0.1,0.005,0.231,0.109,0.399,0.294
	c0.62,0.676,0.778,1.588,0.545,3.136c-0.1,0.665-0.377,0.774-0.72,0.281c-0.391-0.562-0.518-1.109-0.518-2.236
	C65.562,17.316,65.634,16.864,65.856,16.876z"/>
<polygon fill="#FFFFFF" points="69.83,37.632 69.83,37.632 69.83,37.632 "/>
<path fill="#FFFFFF" d="M62.331,22.89L62.331,22.89c-0.4,0.01-0.952,0.091-1.051,0.19c-0.1,0.099,0.414,0.983,0.67,1.154
	c0.069,0.046,0.166,0.055,0.217,0.023c0.111-0.069,0.591-1.123,0.591-1.299C62.758,22.903,62.571,22.883,62.331,22.89z"/>
<path fill="#FFFFFF" d="M62.434,35.063c-1.721-7.703-7.552-14.044-15.027-16.338c-2.481-0.761-3.581-0.91-6.657-0.91
	c-0.306,0-0.583-0.002-0.834,0c-1.759,0.009-2.285,0.063-3.311,0.278c-4.566,0.953-8.246,2.91-11.446,6.085
	c-3.649,3.621-5.83,8.146-6.424,13.325c-0.176,1.534-0.087,4.744,0.172,6.158c1.119,6.104,4.347,11.108,9.408,14.593
	c2.981,2.054,6.675,3.392,10.333,3.746c4.935,0.477,10.068-0.776,14.208-3.475C60.646,53.444,64.455,44.112,62.434,35.063z
	 M43.675,61.385c-3.064,0.379-5.754,0.206-8.497-0.549c-5.025-1.381-9.17-4.271-12.132-8.459c-0.962-1.359-2.247-3.85-2.767-5.365
	c-1.997-5.825-1.4-12.404,1.604-17.741c1.351-2.399,3.667-5.033,5.902-6.71c3.812-2.86,8.146-4.298,12.967-4.302
	c0.321,0,0.645,0.003,0.971,0.015c3.426,0.131,6.154,0.865,9.206,2.477c6.104,3.223,10.407,9.364,11.359,16.202
	c0.196,1.407,0.195,4.441,0,5.853C60.953,52.445,53.175,60.209,43.675,61.385z"/>
<path fill="#FFFFFF" d="M36.433,65.912L36.433,65.912c-0.197,0-1.006,1.128-0.893,1.242c0.057,0.057,0.348,0.151,0.644,0.209
	c0.754,0.148,0.821,0.147,0.907,0.007C37.188,67.215,36.598,65.912,36.433,65.912z"/>
</svg>
