<?xml version="1.0" encoding="utf-8"?>
<!-- Generator: Adobe Illustrator 16.0.0, SVG Export Plug-In . SVG Version: 6.00 Build 0)  -->
<!DOCTYPE svg PUBLIC "-//W3C//DTD SVG 1.1//EN" "http://www.w3.org/Graphics/SVG/1.1/DTD/svg11.dtd">
<svg version="1.1" id="Layer_1" xmlns="http://www.w3.org/2000/svg" xmlns:xlink="http://www.w3.org/1999/xlink" x="0px" y="0px"
	 width="29.772px" height="337.066px" viewBox="0 0 29.772 337.066" enable-background="new 0 0 29.772 337.066"
	 xml:space="preserve">
<g>
	<path fill="#424242" d="M2.987,39.976c0,0.42,0.34,0.76,0.76,0.76h2.344l1.458,16.791c0,0.001,0,0.003,0,0.003
		c0,1.646,1.385,2.973,3.04,2.973c1.414,0,2.604-0.972,2.942-2.281h3.241c0.339,1.31,1.527,2.281,2.941,2.281
		c1.677,0,3.041-1.364,3.041-3.041s-1.364-3.041-3.041-3.041c-1.414,0-2.602,0.972-2.941,2.28H13.53
		c-0.339-1.309-1.527-2.28-2.941-2.28c-0.645,0-1.242,0.203-1.735,0.547l-0.213-2.452c0.016,0.001,0.03,0.005,0.046,0.005
		c0.013,0,0.025,0,0.038,0l15.585-0.761c0.325-0.016,0.604-0.237,0.693-0.551l2.281-7.982c0.065-0.229,0.021-0.476-0.124-0.667
		c-0.144-0.19-0.369-0.303-0.606-0.303H7.75L7.545,39.91c-0.034-0.393-0.363-0.695-0.757-0.695H3.747
		C3.327,39.215,2.987,39.557,2.987,39.976z M19.712,55.94c0.838,0,1.521,0.682,1.521,1.521s-0.682,1.521-1.521,1.521
		c-0.839,0-1.521-0.682-1.521-1.521S18.873,55.94,19.712,55.94z M10.589,55.94c0.838,0,1.521,0.682,1.521,1.521
		s-0.682,1.521-1.521,1.521S9.069,58.3,9.069,57.461S9.751,55.94,10.589,55.94z M25.546,43.776l-1.854,6.49L8.652,51
		c-0.048,0.002-0.095,0.011-0.14,0.021l-0.63-7.245H25.546z"/>
</g>
<g>
	<path fill="#424242" d="M2.987,117.922c0,0.42,0.34,0.76,0.76,0.76h2.344l1.458,16.791c0,0.001,0,0.003,0,0.003
		c0,1.646,1.385,2.973,3.04,2.973c1.414,0,2.604-0.972,2.942-2.281h3.241c0.339,1.31,1.527,2.281,2.941,2.281
		c1.677,0,3.041-1.364,3.041-3.041s-1.364-3.041-3.041-3.041c-1.414,0-2.602,0.972-2.941,2.28H13.53
		c-0.339-1.309-1.527-2.28-2.941-2.28c-0.645,0-1.242,0.203-1.735,0.547l-0.213-2.452c0.016,0.001,0.03,0.005,0.046,0.005
		c0.013,0,0.025,0,0.038,0l15.585-0.761c0.325-0.016,0.604-0.237,0.693-0.551l2.281-7.982c0.065-0.229,0.021-0.476-0.124-0.667
		c-0.144-0.19-0.369-0.303-0.606-0.303H7.75l-0.204-2.346c-0.034-0.393-0.363-0.695-0.757-0.695H3.747
		C3.327,117.161,2.987,117.503,2.987,117.922z M19.712,133.887c0.838,0,1.521,0.682,1.521,1.521s-0.682,1.521-1.521,1.521
		c-0.839,0-1.521-0.682-1.521-1.521S18.873,133.887,19.712,133.887z M10.589,133.887c0.838,0,1.521,0.682,1.521,1.521
		s-0.682,1.521-1.521,1.521s-1.521-0.682-1.521-1.521S9.751,133.887,10.589,133.887z M25.546,121.723l-1.854,6.49l-15.041,0.733
		c-0.048,0.002-0.095,0.011-0.14,0.021l-0.63-7.245H25.546z"/>
</g>
<g>
	<path fill="#424242" d="M26.453,2.538L15.151,4.045L3.848,2.538C3.629,2.508,3.411,2.575,3.247,2.72
		c-0.165,0.144-0.26,0.353-0.26,0.572v18.246c0,0.38,0.282,0.703,0.66,0.753l11.403,1.52c0.034,0.005,0.068,0.007,0.102,0.007
		c0.033,0,0.067-0.002,0.1-0.007l11.403-1.52c0.378-0.05,0.66-0.373,0.66-0.753V3.292c0-0.219-0.096-0.428-0.26-0.572
		C26.89,2.575,26.674,2.511,26.453,2.538z M4.507,4.16l9.884,1.317v16.712l-9.884-1.318V4.16z M25.795,20.872l-9.883,1.318V5.478
		l9.883-1.317V20.872z"/>
	<path fill="#424242" d="M6.693,7.847l6.083,0.76c0.032,0.004,0.064,0.006,0.095,0.006c0.378,0,0.705-0.282,0.753-0.666
		c0.052-0.417-0.244-0.797-0.66-0.849l-6.083-0.76c-0.416-0.053-0.797,0.243-0.849,0.66C5.981,7.415,6.277,7.795,6.693,7.847z"/>
	<path fill="#424242" d="M12.965,10.9l-6.083-0.76c-0.416-0.054-0.797,0.244-0.849,0.66c-0.052,0.417,0.244,0.797,0.66,0.849
		l6.083,0.76c0.032,0.004,0.064,0.006,0.095,0.006c0.378,0,0.705-0.281,0.753-0.666C13.676,11.332,13.381,10.952,12.965,10.9z"/>
	<path fill="#424242" d="M12.965,14.701l-6.083-0.76c-0.416-0.054-0.797,0.243-0.849,0.66c-0.052,0.417,0.244,0.797,0.66,0.849
		l6.083,0.76c0.032,0.004,0.064,0.006,0.095,0.006c0.378,0,0.705-0.281,0.753-0.666C13.676,15.133,13.381,14.753,12.965,14.701z"/>
	<path fill="#424242" d="M12.965,18.502l-6.083-0.76c-0.416-0.053-0.797,0.243-0.849,0.66c-0.052,0.416,0.244,0.796,0.66,0.848
		l6.083,0.76c0.032,0.004,0.064,0.006,0.095,0.006c0.378,0,0.705-0.282,0.753-0.666C13.676,18.935,13.381,18.555,12.965,18.502z"/>
	<path fill="#424242" d="M17.43,8.614c0.032,0,0.064-0.002,0.096-0.006l6.082-0.76c0.417-0.052,0.712-0.432,0.66-0.849
		s-0.437-0.713-0.849-0.66l-6.081,0.76c-0.417,0.052-0.713,0.432-0.66,0.849C16.726,8.332,17.053,8.614,17.43,8.614z"/>
	<path fill="#424242" d="M17.43,12.415c0.032,0,0.064-0.002,0.096-0.006l6.082-0.76c0.417-0.052,0.712-0.432,0.66-0.849
		s-0.437-0.714-0.849-0.66l-6.081,0.76c-0.417,0.052-0.713,0.432-0.66,0.849C16.726,12.133,17.053,12.415,17.43,12.415z"/>
	<path fill="#424242" d="M17.43,16.216c0.032,0,0.064-0.002,0.096-0.006l6.082-0.76c0.417-0.052,0.712-0.432,0.66-0.849
		c-0.052-0.417-0.437-0.714-0.849-0.66l-6.081,0.76c-0.417,0.052-0.713,0.432-0.66,0.849C16.726,15.935,17.053,16.216,17.43,16.216z
		"/>
	<path fill="#424242" d="M23.419,17.742l-6.081,0.76c-0.417,0.053-0.713,0.433-0.66,0.849c0.048,0.384,0.375,0.666,0.752,0.666
		c0.032,0,0.064-0.002,0.096-0.006l6.082-0.76c0.417-0.052,0.712-0.432,0.66-0.848C24.216,17.985,23.832,17.689,23.419,17.742z"/>
</g>
<g>
	<path fill="#424242" d="M6.789,166.253v10.642c0,1.316,0.794,3.802,3.801,3.802h6.082c3.006,0,3.801-2.485,3.801-3.802v-0.76h2.281
		c0.419,0,0.76-0.34,0.76-0.761v-6.08c0-0.421-0.341-0.761-0.76-0.761h-2.281v-2.28c0-0.421-0.341-0.762-0.76-0.762H7.549
		C7.129,165.491,6.789,165.832,6.789,166.253z M21.994,170.054v4.561h-1.521v-4.561H21.994z M8.309,167.014h10.644v9.878
		c-0.004,0.382-0.135,2.284-2.281,2.284h-4.501H10.59c-2.146,0-2.276-1.902-2.281-2.281V167.014z"/>
	<path fill="#424242" d="M9.449,160.932c-0.419,0-0.76,0.339-0.76,0.76v1.521c0,0.419,0.341,0.761,0.76,0.761
		c0.42,0,0.76-0.342,0.76-0.761v-0.76h3.041c0.42,0,0.76-0.342,0.76-0.761v-2.28c0-0.421-0.34-0.761-0.76-0.761h-1.9v-1.521
		c0-0.421-0.34-0.76-0.76-0.76s-0.76,0.339-0.76,0.76v2.281c0,0.418,0.34,0.76,0.76,0.76h1.9v0.761H9.449z"/>
	<path fill="#424242" d="M15.531,160.932c-0.419,0-0.76,0.339-0.76,0.76v1.521c0,0.419,0.341,0.761,0.76,0.761
		c0.42,0,0.76-0.342,0.76-0.761v-0.76h3.041c0.42,0,0.76-0.342,0.76-0.761v-3.041c0-0.421-0.34-0.76-0.76-0.76h-1.9v-0.761
		c0-0.421-0.341-0.76-0.76-0.76c-0.42,0-0.76,0.339-0.76,0.76v1.521c0,0.419,0.34,0.761,0.76,0.761h1.9v1.521H15.531z"/>
</g>
<g>
	<path fill="#424242" d="M26.554,76.071c-0.42,0-0.76,0.341-0.76,0.76v5.534l-0.76,0.253v-5.787c0-0.419-0.341-0.76-0.76-0.76
		c-0.42,0-0.76,0.341-0.76,0.76v5.787l-0.76-0.253v-5.534c0-0.419-0.341-0.76-0.76-0.76c-0.42,0-0.76,0.341-0.76,0.76v6.082
		c0,0.327,0.209,0.618,0.52,0.721l1.761,0.588v15.416c0,0.419,0.34,0.761,0.76,0.761c0.419,0,0.76-0.342,0.76-0.761V84.222
		l1.76-0.588c0.311-0.103,0.521-0.394,0.521-0.721v-6.082C27.314,76.412,26.974,76.071,26.554,76.071z"/>
	<path fill="#424242" d="M21.993,89.375c0-5.239-4.262-9.503-9.503-9.503c-5.24,0-9.503,4.264-9.503,9.503
		c0,5.24,4.263,9.503,9.503,9.503C17.73,98.878,21.993,94.615,21.993,89.375z M4.507,89.375c0-4.401,3.581-7.982,7.982-7.982
		s7.982,3.581,7.982,7.982s-3.581,7.982-7.982,7.982S4.507,93.776,4.507,89.375z"/>
	<path fill="#424242" d="M18.952,89.375c0-3.563-2.898-6.462-6.462-6.462c-3.563,0-6.462,2.898-6.462,6.462s2.899,6.462,6.462,6.462
		C16.053,95.837,18.952,92.938,18.952,89.375z M7.548,89.375c0-2.725,2.216-4.941,4.941-4.941c2.725,0,4.941,2.217,4.941,4.941
		c0,2.724-2.217,4.941-4.941,4.941C9.765,94.316,7.548,92.099,7.548,89.375z"/>
</g>
<path fill="#424242" d="M25.771,199.834h-17c-0.288,0-0.55,0.164-0.675,0.423l-1.825,3.768l-3.03,3.029
	c-0.141,0.141-0.22,0.331-0.22,0.53v6c0,0.414,0.336,0.75,0.75,0.75h3.196c0.333,1.242,1.458,2.164,2.804,2.164
	s2.471-0.922,2.804-2.164h4.642c0.333,1.242,1.458,2.164,2.804,2.164s2.471-0.922,2.804-2.164h2.945c0.414,0,0.75-0.336,0.75-0.75
	v-13C26.521,200.17,26.185,199.834,25.771,199.834z M9.771,214.998c-0.78,0-1.415-0.635-1.415-1.414s0.635-1.414,1.415-1.414
	s1.415,0.635,1.415,1.414S10.55,214.998,9.771,214.998z M20.021,214.998c-0.78,0-1.415-0.635-1.415-1.414s0.635-1.414,1.415-1.414
	s1.415,0.635,1.415,1.414S20.801,214.998,20.021,214.998z M25.021,212.834h-2.195c-0.333-1.242-1.458-2.164-2.804-2.164
	s-2.471,0.922-2.804,2.164h-4.642c-0.333-1.242-1.458-2.164-2.804-2.164s-2.471,0.922-2.804,2.164H4.521v-4.939l2.9-2.899
	c0.059-0.06,0.108-0.128,0.145-0.203l1.676-3.458h15.78V212.834z M16.948,207.834h6.147c0.414,0,0.75-0.336,0.75-0.75v-3.762
	c0-0.414-0.336-0.75-0.75-0.75h-6.147c-0.414,0-0.75,0.336-0.75,0.75v3.762C16.198,207.498,16.534,207.834,16.948,207.834z
	 M17.698,204.072h4.647v2.262h-4.647V204.072z M8.833,207.497c0.139,0.21,0.374,0.337,0.626,0.337h4.347
	c0.414,0,0.75-0.336,0.75-0.75v-3.762c0-0.414-0.336-0.75-0.75-0.75h-2.732c-0.3,0-0.571,0.179-0.689,0.454l-1.615,3.762
	C8.67,207.02,8.694,207.286,8.833,207.497z M11.568,204.072h1.488v2.262h-2.459L11.568,204.072z"/>
<path fill="#424242" d="M26.251,240.251c-0.414,0-0.75,0.336-0.75,0.75v1.447H12.022l-2.647-3.174
	c-0.143-0.171-0.354-0.27-0.576-0.27l-2.841-0.001c0,0,0,0,0,0c-0.163,0-0.322,0.054-0.453,0.152l-0.704,0.532v-2.645
	c0-0.414-0.336-0.75-0.75-0.75s-0.75,0.336-0.75,0.75v15.312c0,0.414,0.336,0.75,0.75,0.75s0.75-0.336,0.75-0.75v-2.767h20.7v2.767
	c0,0.414,0.336,0.75,0.75,0.75s0.75-0.336,0.75-0.75v-11.355C27.001,240.587,26.665,240.251,26.251,240.251z M4.801,248.09v-6.551
	c0.035-0.019,0.074-0.026,0.106-0.051l1.301-0.984l2.239,0.001l2.647,3.174c0.143,0.171,0.354,0.27,0.576,0.27h13.83v4.142H4.801z"
	/>
</svg>
