<?xml version="1.0" encoding="utf-8"?>
<!-- Generator: Adobe Illustrator 16.0.0, SVG Export Plug-In . SVG Version: 6.00 Build 0)  -->
<!DOCTYPE svg PUBLIC "-//W3C//DTD SVG 1.1//EN" "http://www.w3.org/Graphics/SVG/1.1/DTD/svg11.dtd">
<svg version="1.1" id="Layer_1" xmlns="http://www.w3.org/2000/svg" xmlns:xlink="http://www.w3.org/1999/xlink" x="0px" y="0px"
	 width="888.062px" height="50.34px" viewBox="0 0 888.062 50.34" enable-background="new 0 0 888.062 50.34" xml:space="preserve">
<path fill="#A4A3A3" d="M9.639,44.065c0.295,0,0.608-0.074,0.929-0.217l9.011-4.011c0.775-0.345,1.814-1.06,2.414-1.659
	l24.605-24.644c0.474-0.473,0.735-1.105,0.735-1.778c0-0.674-0.261-1.306-0.735-1.779l-4.505-4.513
	c-0.474-0.473-1.105-0.735-1.777-0.735s-1.302,0.262-1.775,0.736L13.307,30.737c-0.608,0.607-1.313,1.667-1.641,2.464l-3.439,8.367
	c-0.374,0.907-0.11,1.521,0.081,1.808C8.6,43.813,9.086,44.065,9.639,44.065z M20.216,36.398L20.216,36.398l-4.505-4.511
	l20.836-20.868l4.505,4.511L20.216,36.398z M40.316,7.243l4.506,4.514l-1.993,1.995L38.324,9.24L40.316,7.243z M13.989,34.158
	c0.037-0.09,0.087-0.191,0.143-0.295l3.902,3.908l-6.769,3.012L13.989,34.158z"/>
<g>
	<g>
		<path fill="#A4A3A3" d="M145.766,11.96c-3.092,0-5.61,2.5-5.61,5.575c0,3.071,2.518,5.572,5.61,5.572
			c3.093,0,5.609-2.5,5.609-5.572C151.375,14.46,148.858,11.96,145.766,11.96z M145.766,20.32c-1.546,0-2.805-1.249-2.805-2.785
			c0-1.538,1.259-2.788,2.805-2.788c1.547,0,2.804,1.25,2.804,2.788C148.569,19.071,147.312,20.32,145.766,20.32z M145.766,1.511
			c-8.891,0-16.124,7.198-16.124,16.047c0,10.873,14.431,27.367,15.046,28.062c0.265,0.302,0.628,0.466,1.054,0.475
			c0.402,0,0.785-0.17,1.051-0.471c0.619-0.697,15.147-17.194,15.097-28.074C161.849,8.707,154.616,1.511,145.766,1.511z
			 M145.744,42.542c-3.311-3.997-13.299-16.738-13.299-24.984c0-7.312,5.976-13.261,13.32-13.261c7.312,0,13.286,5.952,13.32,13.268
			C159.123,25.802,149.073,38.548,145.744,42.542z"/>
	</g>
</g>
<g>
	<g>
		<path fill="#A4A3A3" d="M301.967,17.868h-4.18l-0.734-2.205l3.264-3.267c0.5-0.498,0.5-1.306,0-1.804l-5.098-5.098
			c-0.496-0.499-1.303-0.499-1.801,0l-3.266,3.267l-2.205-0.735V3.846c0-0.703-0.572-1.274-1.275-1.274h-7.646
			c-0.703,0-1.275,0.572-1.275,1.274v4.181l-2.205,0.735l-3.266-3.267c-0.498-0.499-1.305-0.499-1.803,0l-5.098,5.098
			c-0.498,0.498-0.498,1.306,0,1.804l3.268,3.267l-0.736,2.205h-4.18c-0.703,0-1.275,0.571-1.275,1.275v7.647
			c0,0.705,0.572,1.276,1.275,1.276h4.18l0.736,2.205l-3.268,3.267c-0.498,0.498-0.498,1.304,0,1.804l5.098,5.098
			c0.498,0.497,1.305,0.497,1.803,0l3.266-3.268l2.205,0.734v4.182c0,0.703,0.572,1.273,1.275,1.273h7.646
			c0.703,0,1.275-0.571,1.275-1.273v-4.182l2.205-0.734l3.266,3.268c0.498,0.497,1.305,0.497,1.801,0l5.098-5.098
			c0.5-0.5,0.5-1.306,0-1.804l-3.264-3.267l0.734-2.205h4.18c0.703,0,1.273-0.571,1.273-1.276v-7.647
			C303.241,18.439,302.67,17.868,301.967,17.868z M300.692,25.517h-3.824c-0.549,0-1.035,0.35-1.209,0.871l-1.273,3.824
			c-0.154,0.458-0.033,0.963,0.307,1.304l2.924,2.924l-3.297,3.296l-2.922-2.924c-0.342-0.342-0.846-0.46-1.305-0.307l-3.822,1.273
			c-0.521,0.174-0.873,0.661-0.873,1.21v3.824h-5.098v-3.824c0-0.549-0.352-1.036-0.871-1.21l-3.824-1.273
			c-0.455-0.153-0.961-0.033-1.303,0.307l-2.924,2.924l-3.295-3.296l2.922-2.924c0.342-0.341,0.461-0.846,0.309-1.304l-1.275-3.824
			c-0.174-0.521-0.66-0.871-1.209-0.871h-3.822v-5.1h3.822c0.549,0,1.035-0.35,1.209-0.87l1.275-3.825
			c0.152-0.458,0.033-0.963-0.309-1.304l-2.922-2.922l3.295-3.296l2.924,2.922c0.34,0.342,0.846,0.46,1.303,0.308l3.824-1.274
			c0.52-0.174,0.871-0.66,0.871-1.209V5.122h5.098v3.824c0,0.549,0.352,1.035,0.873,1.209l3.822,1.274
			c0.459,0.153,0.963,0.034,1.305-0.308l2.922-2.922l3.297,3.296l-2.924,2.922c-0.34,0.341-0.461,0.846-0.307,1.304l1.273,3.825
			c0.174,0.521,0.66,0.87,1.209,0.87h3.824V25.517z M282.848,17.868c-2.811,0-5.098,2.287-5.098,5.098c0,2.812,2.287,5.1,5.098,5.1
			c2.812,0,5.1-2.288,5.1-5.1C287.948,20.155,285.661,17.868,282.848,17.868z M282.848,25.517c-1.404,0-2.549-1.144-2.549-2.551
			c0-1.405,1.145-2.549,2.549-2.549c1.406,0,2.549,1.145,2.549,2.549C285.397,24.373,284.254,25.517,282.848,25.517z"/>
	</g>
</g>
<g>
	<g>
		<path fill="#A4A3A3" d="M453.613,16.412l-3.881-3.881c-0.566-0.568-1.486-0.568-2.053,0c-0.822,0.822-1.918,1.276-3.082,1.276
			c-2.402,0-4.355-1.956-4.355-4.36c0-1.164,0.453-2.26,1.277-3.083c0.271-0.274,0.424-0.643,0.424-1.028
			c0-0.386-0.152-0.755-0.424-1.028l-3.883-3.882c-0.566-0.568-1.486-0.568-2.053,0l-27.596,27.612
			c-0.271,0.272-0.424,0.642-0.424,1.027c0,0.386,0.152,0.754,0.424,1.028l3.881,3.881c0.566,0.568,1.488,0.568,2.055,0
			c0.822-0.823,1.916-1.275,3.08-1.275c2.402,0,4.357,1.954,4.357,4.358c0,1.166-0.453,2.26-1.277,3.083
			c-0.271,0.274-0.426,0.644-0.426,1.029c0,0.385,0.154,0.754,0.426,1.026l3.881,3.882c0.283,0.284,0.654,0.427,1.027,0.427
			c0.371,0,0.742-0.143,1.027-0.427l27.594-27.61c0.273-0.273,0.426-0.642,0.426-1.028
			C454.039,17.054,453.887,16.686,453.613,16.412z M442.42,25.557l-1.15-1.151c-0.568-0.567-1.488-0.567-2.055,0
			c-0.566,0.568-0.566,1.486,0,2.055l1.15,1.152l-15.373,15.384l-1.928-1.928c0.781-1.179,1.201-2.562,1.201-4.01
			c0-4.006-3.258-7.265-7.262-7.265c-1.447,0-2.828,0.419-4.006,1.203l-1.928-1.93l15.375-15.384l1.15,1.152
			c0.283,0.284,0.656,0.427,1.027,0.427s0.742-0.143,1.027-0.427c0.566-0.568,0.566-1.486,0-2.054l-1.152-1.153l8.113-8.117
			l1.928,1.93c-0.781,1.178-1.203,2.562-1.203,4.008c0,4.006,3.258,7.265,7.262,7.265c1.447,0,2.828-0.42,4.006-1.202l1.928,1.929
			L442.42,25.557z M434.006,17.138l-1.451-1.453c-0.566-0.568-1.488-0.568-2.055,0c-0.566,0.568-0.566,1.487,0,2.055l1.453,1.454
			c0.283,0.282,0.654,0.425,1.027,0.425c0.371,0,0.742-0.143,1.025-0.425C434.574,18.626,434.574,17.706,434.006,17.138z
			 M436.912,20.044c-0.566-0.568-1.488-0.568-2.055,0c-0.568,0.569-0.568,1.488,0,2.055l1.451,1.454
			c0.285,0.285,0.656,0.426,1.027,0.426s0.744-0.141,1.027-0.426c0.568-0.567,0.568-1.487,0-2.055L436.912,20.044z"/>
	</g>
</g>
<g>
	<g>
		<path fill="#A4A3A3" d="M600.659,5.881h-5.451V4.492c0-0.767-0.611-1.389-1.363-1.389h-4.092c-0.754,0-1.363,0.622-1.363,1.389
			v1.389h-16.361V4.492c0-0.767-0.611-1.389-1.363-1.389h-4.09c-0.752,0-1.363,0.622-1.363,1.389v1.389h-5.453
			c-0.754,0-1.363,0.623-1.363,1.39v33.336c0,0.767,0.609,1.39,1.363,1.39h40.9c0.754,0,1.365-0.623,1.365-1.39V7.271
			C602.024,6.504,601.413,5.881,600.659,5.881z M591.116,5.881h1.365V8.66h-1.365V5.881z M567.938,5.881h1.363V8.66h-1.363V5.881z
			 M599.298,39.219H561.12V8.66h4.092v1.389c0,0.767,0.611,1.389,1.363,1.389h4.09c0.752,0,1.363-0.622,1.363-1.389V8.66h16.361
			v1.389c0,0.767,0.609,1.389,1.363,1.389h4.092c0.752,0,1.363-0.622,1.363-1.389V8.66h4.09V39.219z M572.028,16.994h-5.453
			c-0.752,0-1.363,0.622-1.363,1.389v5.556c0,0.767,0.611,1.389,1.363,1.389h5.453c0.752,0,1.363-0.622,1.363-1.389v-5.556
			C573.392,17.616,572.78,16.994,572.028,16.994z M570.665,22.55h-2.727v-2.778h2.727V22.55z M582.937,16.994h-5.453
			c-0.754,0-1.365,0.622-1.365,1.389v5.556c0,0.767,0.611,1.389,1.365,1.389h5.453c0.752,0,1.363-0.622,1.363-1.389v-5.556
			C584.3,17.616,583.688,16.994,582.937,16.994z M581.573,22.55h-2.727v-2.778h2.727V22.55z M593.845,16.994h-5.455
			c-0.754,0-1.363,0.622-1.363,1.389v5.556c0,0.767,0.609,1.389,1.363,1.389h5.455c0.752,0,1.363-0.622,1.363-1.389v-5.556
			C595.208,17.616,594.597,16.994,593.845,16.994z M592.481,22.55h-2.729v-2.778h2.729V22.55z M572.028,28.106h-5.453
			c-0.752,0-1.363,0.623-1.363,1.389v5.556c0,0.767,0.611,1.389,1.363,1.389h5.453c0.752,0,1.363-0.622,1.363-1.389v-5.556
			C573.392,28.729,572.78,28.106,572.028,28.106z M570.665,33.662h-2.727v-2.778h2.727V33.662z M582.937,28.106h-5.453
			c-0.754,0-1.365,0.623-1.365,1.389v5.556c0,0.767,0.611,1.389,1.365,1.389h5.453c0.752,0,1.363-0.622,1.363-1.389v-5.556
			C584.3,28.729,583.688,28.106,582.937,28.106z M581.573,33.662h-2.727v-2.778h2.727V33.662z M593.845,28.106h-5.455
			c-0.754,0-1.363,0.623-1.363,1.389v5.556c0,0.767,0.609,1.389,1.363,1.389h5.455c0.752,0,1.363-0.622,1.363-1.389v-5.556
			C595.208,28.729,594.597,28.106,593.845,28.106z M592.481,33.662h-2.729v-2.778h2.729V33.662z"/>
	</g>
</g>
<g>
	<g>
		<path fill="#A4A3A3" d="M733.199,5.033c-0.297-0.257-0.686-0.374-1.078-0.323L711.85,7.395L691.578,4.71
			c-0.393-0.054-0.783,0.065-1.078,0.323c-0.295,0.257-0.465,0.629-0.465,1.02v32.524c0,0.679,0.506,1.253,1.184,1.343l20.451,2.709
			c0.059,0.008,0.119,0.013,0.18,0.013s0.119-0.004,0.18-0.013l20.451-2.709c0.678-0.09,1.184-0.665,1.184-1.343V6.052
			C733.664,5.662,733.494,5.29,733.199,5.033z M710.486,39.738l-17.725-2.349V7.6l17.725,2.35V39.738z M730.938,37.389
			l-17.725,2.349V9.95l17.725-2.35V37.389z M696.684,14.173l10.906,1.354c0.057,0.007,0.113,0.011,0.172,0.011
			c0.676,0,1.264-0.5,1.35-1.187c0.094-0.743-0.436-1.42-1.182-1.513l-10.908-1.355c-0.746-0.095-1.43,0.434-1.523,1.177
			C695.406,13.402,695.938,14.08,696.684,14.173z M696.684,20.948l10.906,1.355c0.057,0.008,0.113,0.01,0.172,0.01
			c0.676,0,1.264-0.501,1.35-1.187c0.094-0.742-0.436-1.419-1.182-1.512l-10.908-1.356c-0.746-0.097-1.43,0.434-1.523,1.177
			C695.406,20.178,695.938,20.855,696.684,20.948z M696.684,27.724l10.906,1.355c0.057,0.007,0.113,0.011,0.172,0.011
			c0.676,0,1.264-0.502,1.35-1.188c0.094-0.742-0.436-1.42-1.182-1.513l-10.908-1.355c-0.746-0.095-1.43,0.434-1.523,1.176
			C695.406,26.953,695.938,27.631,696.684,27.724z M696.684,34.499l10.906,1.356c0.057,0.007,0.113,0.01,0.172,0.01
			c0.676,0,1.264-0.501,1.35-1.187c0.094-0.743-0.436-1.42-1.182-1.513l-10.908-1.354c-0.746-0.095-1.43,0.434-1.523,1.176
			C695.406,33.73,695.938,34.407,696.684,34.499z M715.938,15.538c0.057,0,0.115-0.003,0.172-0.011l10.908-1.354
			c0.746-0.093,1.275-0.771,1.184-1.513c-0.094-0.743-0.783-1.272-1.523-1.177l-10.906,1.355c-0.748,0.093-1.277,0.77-1.184,1.513
			C714.672,15.037,715.26,15.538,715.938,15.538z M715.938,22.313c0.057,0,0.115-0.002,0.172-0.01l10.908-1.355
			c0.746-0.093,1.275-0.771,1.184-1.513c-0.094-0.743-0.783-1.274-1.523-1.177l-10.906,1.356c-0.748,0.093-1.277,0.77-1.184,1.512
			C714.672,21.812,715.26,22.313,715.938,22.313z M715.938,29.09c0.057,0,0.115-0.003,0.172-0.011l10.908-1.355
			c0.746-0.093,1.275-0.771,1.184-1.513c-0.094-0.743-0.783-1.271-1.523-1.176l-10.906,1.355c-0.748,0.093-1.277,0.771-1.184,1.513
			C714.672,28.588,715.26,29.09,715.938,29.09z M715.938,35.865c0.057,0,0.115-0.003,0.172-0.01l10.908-1.356
			c0.746-0.092,1.275-0.769,1.184-1.512c-0.094-0.743-0.783-1.271-1.523-1.176l-10.906,1.354c-0.748,0.093-1.277,0.771-1.184,1.513
			C714.672,35.364,715.26,35.865,715.938,35.865z"/>
	</g>
</g>
<path fill="#A4A3A3" d="M867.166,4.087c-5.141,0-9.605,2.605-11.818,6.408c-2.213-3.803-6.682-6.408-11.82-6.408
	c-7.76,0-11.82,6.688-11.82,13.296c0,15.434,21.945,28.777,22.879,29.338c0.236,0.139,0.498,0.211,0.762,0.211
	c0.262,0,0.525-0.072,0.76-0.211c0.934-0.562,22.879-13.905,22.879-29.338C878.986,10.775,874.924,4.087,867.166,4.087z
	 M855.348,43.708c-2.461-1.586-10.334-6.957-15.627-13.861h2.914c0.777,0,1.461-0.528,1.656-1.282l2.109-8.141l4.729,14.354
	c0.219,0.669,0.828,1.135,1.533,1.173c0.031,0.001,0.062,0.003,0.092,0.003c0.668,0,1.279-0.39,1.559-1.004l4.4-9.682l2.459,3.851
	c0.314,0.491,0.859,0.791,1.443,0.791h5.637c0.943,0,1.711-0.767,1.711-1.711c0-0.945-0.768-1.712-1.711-1.712h-4.699L859.9,20.77
	c-0.334-0.529-0.934-0.832-1.562-0.786c-0.625,0.043-1.178,0.427-1.438,0.998l-3.893,8.564l-5.178-15.725
	c-0.238-0.72-0.918-1.196-1.682-1.175c-0.76,0.025-1.41,0.546-1.6,1.281l-3.24,12.497h-3.895c-1.674-2.877-2.75-5.937-2.75-9.041
	c0-4.98,2.773-10.342,8.863-10.342c4.977,0,10.342,3.39,10.342,8.865c0,0.817,0.662,1.477,1.479,1.477
	c0.814,0,1.477-0.66,1.477-1.477c0-5.475,5.369-8.865,10.342-8.865c6.092,0,8.863,5.362,8.863,10.342
	C876.029,29.65,859.164,41.244,855.348,43.708z"/>
</svg>
