<?xml version="1.0" encoding="utf-8"?>
<!-- Generator: Adobe Illustrator 16.0.0, SVG Export Plug-In . SVG Version: 6.00 Build 0)  -->
<!DOCTYPE svg PUBLIC "-//W3C//DTD SVG 1.1//EN" "http://www.w3.org/Graphics/SVG/1.1/DTD/svg11.dtd">
<svg version="1.1" id="Layer_1" xmlns="http://www.w3.org/2000/svg" xmlns:xlink="http://www.w3.org/1999/xlink" x="0px" y="0px"
	 width="129.999px" height="94.899px" viewBox="0 0 129.999 94.899" enable-background="new 0 0 129.999 94.899"
	 xml:space="preserve">
<g>
	<path fill="#BABCBE" d="M105.553,0.507c0,0,0.343,1.949,0,4.243c-0.343,2.293,1.604,3.325,3.67,4.701
		c2.065,1.376,3.097,2.753,3.097,2.753s-0.459-2.176,0-4.357c0.458-2.181,0.454-2.868-2.295-4.703S105.553,0.507,105.553,0.507z"/>
	<path fill="#BABCBE" d="M116.57,21.82c0,0,1.325-2.838,0.114-5.159c-1.211-2.319-1.432-4.042,0.696-6.292
		c2.127-2.25,1.816-3.747,2.496-3.388c0.684,0.356,0.123,4.936,0.548,6.667C120.841,15.376,118.562,19.916,116.57,21.82z"/>
	<path fill="#BABCBE" d="M118.125,29.882c0,0,1.837-2.495,1.19-5.07c-0.646-2.577-0.536-4.21,2.033-6.049
		c2.614-1.862,2.565-3.372,3.195-2.86c0.622,0.516-0.707,4.81-0.74,6.802C123.774,24.496,120.579,28.462,118.125,29.882z"/>
	<path fill="#BABCBE" d="M118.125,36.735c0,0,2.308-2.013,2.32-4.717c0.012-2.711,0.434-4.191,3.387-5.481
		c3.053-1.315,3.294-2.786,3.817-2.118c0.535,0.665-1.551,4.511-2.155,6.647C125.006,32.811,120.948,35.954,118.125,36.735z"/>
	<path fill="#BABCBE" d="M117.232,43.791c0,0,2.737-1.303,3.564-3.934c0.844-2.647,1.587-3.885,4.844-4.359
		c3.408-0.5,3.984-1.841,4.328-1.017c0.356,0.823-2.52,3.941-3.874,5.998C125.097,42.004,120.251,43.893,117.232,43.791z"/>
	<path fill="#BABCBE" d="M114.414,50.79c0,0,2.91-0.741,4.333-3.182c1.428-2.454,2.324-3.439,5.691-3.313
		c3.551,0.146,4.333-1.068,4.533-0.164c0.204,0.921-3.044,3.438-5.004,5.316C122.638,50.733,117.446,51.576,114.414,50.79z"/>
	<path fill="#BABCBE" d="M115.965,20.111c0,0-2.766-1.115-3.879-3.709c-1.121-2.616-1.882-3.703-5.203-4.017
		c-3.503-0.323-4.133-1.621-4.436-0.753c-0.303,0.877,2.586,3.791,4.292,5.902C107.893,18.978,112.896,20.486,115.965,20.111z"/>
	<path fill="#BABCBE" d="M118.615,31.419c0,0-2.474-1.472-3.124-4.113c-0.639-2.654-1.199-3.803-4.336-4.595
		c-3.307-0.83-3.69-2.16-4.125-1.38c-0.438,0.793,1.865,3.995,3.153,6.263C111.06,29.141,115.617,31.32,118.615,31.419z"/>
	<path fill="#BABCBE" d="M117.217,41.375c0,0-2.25-1.629-2.614-4.215c-0.368-2.599-0.79-3.744-3.748-4.782
		c-3.117-1.088-3.362-2.391-3.857-1.68c-0.504,0.716,1.406,3.981,2.435,6.269C110.13,38.524,114.315,41.012,117.217,41.375z"/>
	<path fill="#BABCBE" d="M115.185,49.555c0,0-1.892-1.888-1.825-4.385c0.07-2.517-0.147-3.67-2.819-5.105
		c-2.823-1.511-2.853-2.786-3.437-2.191c-0.602,0.604,0.712,3.991,1.325,6.305C108.847,45.765,112.459,48.768,115.185,49.555z"/>
	<path fill="#BABCBE" d="M111.841,57.361c0,0-1.619-2.005-1.26-4.37c0.353-2.384,0.266-3.507-2.151-5.168
		c-2.558-1.75-2.442-2.962-3.081-2.465c-0.646,0.508,0.229,3.87,0.561,6.145C106.13,53.053,109.296,56.306,111.841,57.361z"/>
	<path fill="#BABCBE" d="M106.687,64.185c0,0-1.548-1.942-1.167-4.206c0.385-2.271,0.314-3.347-2.021-4.971
		c-2.467-1.709-2.331-2.868-2.961-2.402c-0.643,0.475,0.168,3.708,0.453,5.884C101.184,59.975,104.223,63.137,106.687,64.185z"/>
	<path fill="#BABCBE" d="M101.834,70.587c0,0-1.686-1.702-1.534-3.878c0.151-2.198-0.013-3.208-2.434-4.534
		c-2.562-1.386-2.545-2.499-3.105-2.005c-0.581,0.52,0.519,3.514,1.006,5.552C96.094,67.117,99.342,69.834,101.834,70.587z"/>
	<path fill="#BABCBE" d="M94.597,75.694c0,0-1.322-1.894-0.79-3.916c0.527-2.029,0.549-3.006-1.543-4.676
		c-2.217-1.759-2.004-2.798-2.625-2.431c-0.642,0.38-0.119,3.385-0.013,5.38C89.699,71.417,92.337,74.535,94.597,75.694z"/>
	<path fill="#BABCBE" d="M88.84,77.154c0,0-1.468-1.677-1.158-3.638c0.312-1.976,0.229-2.908-1.972-4.291
		c-2.323-1.461-2.221-2.467-2.794-2.057c-0.59,0.42,0.229,3.214,0.531,5.102C83.657,73.553,86.533,76.266,88.84,77.154z"/>
	<path fill="#BABCBE" d="M111.341,57.078c0,0,2.958-0.281,4.837-2.488c1.89-2.221,2.852-2.995,6.227-2.381
		c3.617,0.676,4.525-0.425,4.603,0.556c0.069,0.974-3.354,3.008-5.813,4.661C119.63,58.473,114.296,58.441,111.341,57.078z"/>
	<path fill="#BABCBE" d="M107.966,63.288c0,0,2.938,0.152,5.217-1.763c2.303-1.917,3.276-2.49,6.611-1.403
		c3.601,1.182,4.62,0.217,4.554,1.236c-0.062,1.027-3.576,2.602-6.505,3.935C116.096,66.082,110.749,65.188,107.966,63.288z"/>
	<path fill="#BABCBE" d="M102.681,69.954c0,0,2.885,0.418,5.425-1.288c2.562-1.715,3.507-2.131,6.804-0.772
		c3.617,1.505,4.668,0.601,4.529,1.66c-0.151,1.052-3.628,2.406-6.922,3.519C110.658,73.693,105.344,72.219,102.681,69.954z"/>
	<path fill="#BABCBE" d="M96.11,75.371c0,0,2.639,1.187,5.649,0.285c3.044-0.907,3.973-1.039,6.85,1.199
		c3.183,2.475,4.405,1.882,3.972,2.906c-0.437,1.015-4.01,1.484-7.748,1.612C102.832,81.429,98.074,78.426,96.11,75.371z"/>
	<path fill="#BABCBE" d="M90.378,78.356c0,0,2.033,2.018,5.266,2.275c3.262,0.262,4.079,0.47,6.071,3.601
		c2.23,3.502,3.561,3.33,2.779,4.176c-0.787,0.845-4.211,0.223-8-1.088C94.56,86.653,91.139,82.042,90.378,78.356z"/>
	<path fill="#BABCBE" d="M87.474,77.963c0,0,0.151,2.86,2.373,5.229c2.237,2.376,2.7,3.088,2.078,6.741
		c-0.703,4.092,0.394,4.86-0.752,4.963c-1.146,0.09-3.261-2.667-5.192-6.181C84.997,86.923,85.562,81.212,87.474,77.963z"/>
	<path fill="#BABCBE" d="M54.413,87.198c0,0,0,1.607,1.26,2.18c1.26,0.573,1.952-0.687,2.868-1.088
		c0.916-0.399,12.724-5.731,27.178-8.659c16.962-3.438,25.747-16.167,31.728-33.939c5.981-17.777-5.921-36.239-5.921-36.239
		l-0.185,0.917c0,0,12.794,22.383,2.127,41.637c-10.665,19.253-12.956,21.899-31.419,26.482
		C63.584,83.069,54.413,87.198,54.413,87.198z"/>
</g>
<g>
	<path fill="#BABCBE" d="M24.446,0.507c0,0-0.344,1.949,0,4.243c0.343,2.293-1.604,3.325-3.67,4.701
		c-2.066,1.376-3.097,2.753-3.097,2.753s0.459-2.176,0-4.357c-0.458-2.181-0.454-2.868,2.295-4.703
		C22.723,1.309,24.446,0.507,24.446,0.507z"/>
	<path fill="#BABCBE" d="M13.428,21.82c0,0-1.326-2.838-0.114-5.159c1.21-2.319,1.432-4.042-0.695-6.292
		c-2.127-2.25-1.817-3.747-2.496-3.388C9.439,7.337,10,11.917,9.574,13.648C9.157,15.376,11.437,19.916,13.428,21.82z"/>
	<path fill="#BABCBE" d="M11.874,29.882c0,0-1.837-2.495-1.19-5.07c0.647-2.577,0.536-4.21-2.033-6.049
		c-2.614-1.862-2.565-3.372-3.195-2.86c-0.622,0.516,0.707,4.81,0.74,6.802C6.223,24.496,9.418,28.462,11.874,29.882z"/>
	<path fill="#BABCBE" d="M11.874,36.735c0,0-2.307-2.013-2.32-4.717c-0.012-2.711-0.434-4.191-3.388-5.481
		c-3.052-1.315-3.293-2.786-3.817-2.118c-0.537,0.665,1.551,4.511,2.156,6.647C4.992,32.811,9.051,35.954,11.874,36.735z"/>
	<path fill="#BABCBE" d="M12.766,43.791c0,0-2.738-1.303-3.564-3.934c-0.843-2.647-1.587-3.885-4.844-4.359
		c-3.408-0.5-3.984-1.841-4.328-1.017c-0.356,0.823,2.52,3.941,3.875,5.998C4.902,42.004,9.747,43.893,12.766,43.791z"/>
	<path fill="#BABCBE" d="M15.584,50.79c0,0-2.909-0.741-4.333-3.182c-1.428-2.454-2.324-3.439-5.69-3.313
		c-3.551,0.146-4.333-1.068-4.533-0.164c-0.205,0.921,3.044,3.438,5.003,5.316C7.361,50.733,12.553,51.576,15.584,50.79z"/>
	<path fill="#BABCBE" d="M14.034,20.111c0,0,2.766-1.115,3.878-3.709c1.121-2.616,1.881-3.703,5.204-4.017
		c3.502-0.323,4.132-1.621,4.435-0.753c0.303,0.877-2.586,3.791-4.292,5.902C22.105,18.978,17.103,20.486,14.034,20.111z"/>
	<path fill="#BABCBE" d="M11.382,31.419c0,0,2.475-1.472,3.125-4.113c0.638-2.654,1.199-3.803,4.336-4.595
		c3.306-0.83,3.69-2.16,4.125-1.38c0.438,0.793-1.866,3.995-3.154,6.263C18.939,29.141,14.382,31.32,11.382,31.419z"/>
	<path fill="#BABCBE" d="M12.782,41.375c0,0,2.25-1.629,2.615-4.215c0.368-2.599,0.79-3.744,3.748-4.782
		c3.117-1.088,3.362-2.391,3.858-1.68c0.503,0.716-1.407,3.981-2.435,6.269C19.868,38.524,15.682,41.012,12.782,41.375z"/>
	<path fill="#BABCBE" d="M14.815,49.555c0,0,1.89-1.888,1.824-4.385c-0.069-2.517,0.147-3.67,2.819-5.105
		c2.823-1.511,2.852-2.786,3.437-2.191c0.602,0.604-0.712,3.991-1.326,6.305C21.152,45.765,17.54,48.768,14.815,49.555z"/>
	<path fill="#BABCBE" d="M18.158,57.361c0,0,1.621-2.005,1.26-4.37c-0.352-2.384-0.266-3.507,2.152-5.168
		c2.557-1.75,2.442-2.962,3.081-2.465c0.646,0.508-0.229,3.87-0.561,6.145C23.87,53.053,20.703,56.306,18.158,57.361z"/>
	<path fill="#BABCBE" d="M23.312,64.185c0,0,1.546-1.942,1.167-4.206c-0.384-2.271-0.315-3.347,2.021-4.971
		c2.467-1.709,2.332-2.868,2.962-2.402c0.642,0.475-0.168,3.708-0.455,5.884C28.815,59.975,25.775,63.137,23.312,64.185z"/>
	<path fill="#BABCBE" d="M28.165,70.587c0,0,1.686-1.702,1.534-3.878c-0.151-2.198,0.013-3.208,2.435-4.534
		c2.561-1.386,2.544-2.499,3.105-2.005c0.581,0.52-0.519,3.514-1.006,5.552C33.906,67.117,30.656,69.834,28.165,70.587z"/>
	<path fill="#BABCBE" d="M35.402,75.694c0,0,1.321-1.894,0.789-3.916c-0.527-2.029-0.548-3.006,1.543-4.676
		c2.217-1.759,2.004-2.798,2.626-2.431c0.643,0.38,0.119,3.385,0.012,5.38C40.299,71.417,37.661,74.535,35.402,75.694z"/>
	<path fill="#BABCBE" d="M41.159,77.154c0,0,1.468-1.677,1.158-3.638c-0.311-1.976-0.229-2.908,1.971-4.291
		c2.324-1.461,2.222-2.467,2.795-2.057c0.589,0.42-0.229,3.214-0.532,5.102C46.342,73.553,43.467,76.266,41.159,77.154z"/>
	<path fill="#BABCBE" d="M18.657,57.078c0,0-2.958-0.281-4.836-2.488c-1.89-2.221-2.852-2.995-6.227-2.381
		c-3.616,0.676-4.525-0.425-4.603,0.556c-0.069,0.974,3.355,3.008,5.814,4.661C10.369,58.473,15.703,58.441,18.657,57.078z"/>
	<path fill="#BABCBE" d="M22.032,63.288c0,0-2.938,0.152-5.216-1.763c-2.303-1.917-3.277-2.49-6.611-1.403
		c-3.601,1.182-4.619,0.217-4.554,1.236c0.061,1.027,3.576,2.602,6.505,3.935C13.902,66.082,19.25,65.188,22.032,63.288z"/>
	<path fill="#BABCBE" d="M27.318,69.954c0,0-2.885,0.418-5.425-1.288c-2.561-1.715-3.506-2.131-6.804-0.772
		c-3.617,1.505-4.668,0.601-4.529,1.66c0.151,1.052,3.628,2.406,6.922,3.519C19.341,73.693,24.654,72.219,27.318,69.954z"/>
	<path fill="#BABCBE" d="M33.889,75.371c0,0-2.639,1.187-5.65,0.285c-3.044-0.907-3.973-1.039-6.85,1.199
		c-3.182,2.475-4.405,1.882-3.972,2.906c0.438,1.015,4.009,1.484,7.749,1.612C27.167,81.429,31.924,78.426,33.889,75.371z"/>
	<path fill="#BABCBE" d="M39.62,78.356c0,0-2.033,2.018-5.266,2.275c-3.261,0.262-4.078,0.47-6.072,3.601
		c-2.23,3.502-3.559,3.33-2.777,4.176c0.785,0.845,4.21,0.223,7.999-1.088C35.439,86.653,38.859,82.042,39.62,78.356z"/>
	<path fill="#BABCBE" d="M42.524,77.963c0,0-0.151,2.86-2.373,5.229c-2.237,2.376-2.7,3.088-2.078,6.741
		c0.703,4.092-0.393,4.86,0.753,4.963c1.145,0.09,3.261-2.667,5.192-6.181C45,86.923,44.436,81.212,42.524,77.963z"/>
	<path fill="#BABCBE" d="M75.583,87.198c0,0,0,1.607-1.259,2.18c-1.259,0.573-1.947-0.687-2.863-1.088
		c-0.917-0.399-12.728-5.731-27.181-8.659c-16.962-3.438-25.746-16.167-31.728-33.939c-5.981-17.777,5.92-36.239,5.92-36.239
		l0.185,0.917c0,0-12.793,22.383-2.127,41.637c10.667,19.253,12.957,21.899,31.42,26.482C66.411,83.069,75.583,87.198,75.583,87.198
		z"/>
</g>
</svg>
