<?xml version="1.0" encoding="utf-8"?>
<!-- Generator: Adobe Illustrator 16.0.0, SVG Export Plug-In . SVG Version: 6.00 Build 0)  -->
<!DOCTYPE svg PUBLIC "-//W3C//DTD SVG 1.1//EN" "http://www.w3.org/Graphics/SVG/1.1/DTD/svg11.dtd">
<svg version="1.1" id="Layer_1" xmlns="http://www.w3.org/2000/svg" xmlns:xlink="http://www.w3.org/1999/xlink" x="0px" y="0px"
	 width="183px" height="133.384px" viewBox="0 0 183 133.384" enable-background="new 0 0 183 133.384" xml:space="preserve">
<g>
	<path fill="#BABCBE" d="M148.586,0.507c0,0,0.483,2.744,0,5.972s2.258,4.68,5.166,6.617c2.908,1.938,4.359,3.876,4.359,3.876
		s-0.645-3.063,0-6.133c0.646-3.07,0.64-4.037-3.23-6.62S148.586,0.507,148.586,0.507z"/>
	<path fill="#BABCBE" d="M164.096,30.509c0,0,1.865-3.996,0.161-7.262c-1.705-3.265-2.016-5.689,0.979-8.857
		c2.995-3.167,2.558-5.275,3.514-4.769c0.962,0.501,0.173,6.948,0.771,9.385C170.108,21.439,166.9,27.829,164.096,30.509z"/>
	<path fill="#BABCBE" d="M166.284,41.858c0,0,2.586-3.512,1.676-7.137c-0.91-3.627-0.755-5.926,2.862-8.515
		c3.68-2.621,3.611-4.746,4.498-4.026c0.875,0.726-0.996,6.771-1.043,9.576C174.237,34.276,169.739,39.86,166.284,41.858z"/>
	<path fill="#BABCBE" d="M166.284,51.505c0,0,3.248-2.834,3.266-6.641c0.017-3.816,0.61-5.9,4.769-7.715
		c4.296-1.852,4.636-3.922,5.373-2.982c0.754,0.936-2.183,6.35-3.035,9.357C175.971,45.981,170.258,50.405,166.284,51.505z"/>
	<path fill="#BABCBE" d="M165.028,61.437c0,0,3.853-1.834,5.017-5.537c1.187-3.727,2.234-5.469,6.818-6.137
		c4.798-0.703,5.609-2.592,6.094-1.432c0.501,1.158-3.548,5.549-5.454,8.443C176.098,58.923,169.278,61.581,165.028,61.437z"/>
	<path fill="#BABCBE" d="M161.061,71.29c0,0,4.095-1.043,6.099-4.479c2.01-3.455,3.271-4.842,8.011-4.664
		c4.999,0.205,6.1-1.504,6.382-0.23c0.288,1.297-4.285,4.84-7.044,7.484C172.637,71.21,165.328,72.396,161.061,71.29z"/>
	<path fill="#BABCBE" d="M163.243,28.103c0,0-3.894-1.57-5.46-5.221c-1.578-3.683-2.649-5.212-7.325-5.655
		c-4.931-0.455-5.817-2.281-6.243-1.06c-0.427,1.235,3.64,5.336,6.041,8.308C151.88,26.509,158.924,28.632,163.243,28.103z"/>
	<path fill="#BABCBE" d="M166.975,44.022c0,0-3.483-2.072-4.399-5.789c-0.898-3.736-1.688-5.354-6.104-6.469
		c-4.654-1.168-5.195-3.041-5.806-1.943c-0.616,1.117,2.626,5.623,4.44,8.816C156.338,40.815,162.754,43.882,166.975,44.022z"/>
	<path fill="#BABCBE" d="M165.006,58.036c0,0-3.168-2.293-3.681-5.934c-0.519-3.658-1.111-5.27-5.275-6.732
		c-4.389-1.531-4.734-3.365-5.431-2.365c-0.709,1.008,1.98,5.605,3.427,8.824C155.03,54.024,160.922,57.526,165.006,58.036z"/>
	<path fill="#BABCBE" d="M162.144,69.552c0,0-2.661-2.658-2.569-6.174c0.099-3.543-0.207-5.166-3.968-7.186
		c-3.974-2.127-4.015-3.922-4.838-3.084c-0.847,0.85,1.002,5.617,1.866,8.875C153.222,64.216,158.308,68.444,162.144,69.552z"/>
	<path fill="#BABCBE" d="M157.438,80.54c0,0-2.28-2.822-1.773-6.152c0.495-3.357,0.374-4.936-3.029-7.275
		c-3.6-2.463-3.438-4.17-4.337-3.471c-0.91,0.715,0.322,5.449,0.789,8.65C149.398,74.476,153.855,79.054,157.438,80.54z"/>
	<path fill="#BABCBE" d="M150.182,90.146c0,0-2.178-2.734-1.642-5.92c0.541-3.197,0.443-4.711-2.846-6.998
		c-3.473-2.406-3.282-4.037-4.169-3.381c-0.904,0.668,0.236,5.219,0.639,8.283C142.436,84.22,146.714,88.671,150.182,90.146z"/>
	<path fill="#BABCBE" d="M143.351,99.159c0,0-2.372-2.396-2.159-5.459c0.213-3.094-0.018-4.516-3.427-6.383
		c-3.605-1.951-3.582-3.518-4.371-2.822c-0.818,0.732,0.731,4.947,1.416,7.816C135.271,94.274,139.844,98.099,143.351,99.159z"/>
	<path fill="#BABCBE" d="M133.163,106.347c0,0-1.86-2.666-1.111-5.512c0.742-2.857,0.771-4.232-2.172-6.582
		c-3.121-2.477-2.822-3.939-3.697-3.422c-0.904,0.535-0.167,4.764-0.018,7.574C126.27,100.327,129.983,104.716,133.163,106.347z"/>
	<path fill="#BABCBE" d="M125.06,108.403c0,0-2.067-2.361-1.63-5.121c0.438-2.781,0.322-4.094-2.775-6.041
		c-3.271-2.057-3.128-3.473-3.934-2.896c-0.83,0.592,0.322,4.525,0.748,7.182C117.763,103.335,121.812,107.153,125.06,108.403z"/>
	<path fill="#BABCBE" d="M156.735,80.142c0,0,4.164-0.396,6.808-3.502c2.66-3.127,4.014-4.215,8.765-3.352
		c5.092,0.951,6.37-0.598,6.479,0.783c0.098,1.371-4.723,4.234-8.184,6.561C168.403,82.106,160.894,82.06,156.735,80.142z"/>
	<path fill="#BABCBE" d="M151.983,88.884c0,0,4.136,0.213,7.344-2.482c3.242-2.699,4.613-3.506,9.307-1.975
		c5.068,1.664,6.502,0.305,6.41,1.74c-0.087,1.445-5.034,3.662-9.157,5.539C163.428,92.817,155.9,91.558,151.983,88.884z"/>
	<path fill="#BABCBE" d="M144.543,98.267c0,0,4.061,0.588,7.637-1.814c3.605-2.414,4.936-3,9.577-1.088
		c5.092,2.119,6.571,0.846,6.376,2.338c-0.213,1.48-5.108,3.387-9.745,4.953C155.773,103.53,148.292,101.456,144.543,98.267z"/>
	<path fill="#BABCBE" d="M135.294,105.892c0,0,3.715,1.67,7.953,0.402c4.285-1.277,5.592-1.463,9.641,1.688
		c4.481,3.484,6.203,2.65,5.593,4.09c-0.616,1.428-5.645,2.09-10.908,2.27C144.756,114.421,138.059,110.194,135.294,105.892z"/>
	<path fill="#BABCBE" d="M127.225,110.095c0,0,2.862,2.84,7.412,3.203c4.591,0.369,5.742,0.662,8.547,5.068
		c3.139,4.93,5.011,4.688,3.911,5.879c-1.106,1.188-5.927,0.312-11.26-1.531C133.111,121.774,128.296,115.284,127.225,110.095z"/>
	<path fill="#BABCBE" d="M123.136,109.542c0,0,0.214,4.027,3.341,7.361c3.15,3.346,3.801,4.348,2.926,9.49
		c-0.991,5.76,0.553,6.842-1.06,6.986c-1.613,0.127-4.591-3.754-7.309-8.701C119.651,122.155,120.446,114.116,123.136,109.542z"/>
	<path fill="#BABCBE" d="M76.596,122.542c0,0,0,2.262,1.774,3.068c1.773,0.807,2.747-0.967,4.037-1.531s17.911-8.068,38.258-12.191
		c23.878-4.838,36.243-22.756,44.663-47.775c8.42-25.025-8.334-51.013-8.334-51.013l-0.259,1.29c0,0,18.009,31.508,2.994,58.612
		c-15.014,27.102-18.239,30.828-44.23,37.279C89.508,116.729,76.596,122.542,76.596,122.542z"/>
</g>
<g>
	<path fill="#BABCBE" d="M34.413,0.507c0,0-0.484,2.744,0,5.972c0.483,3.228-2.258,4.68-5.166,6.617
		c-2.908,1.938-4.36,3.876-4.36,3.876s0.646-3.063,0-6.133c-0.645-3.07-0.639-4.037,3.231-6.62S34.413,0.507,34.413,0.507z"/>
	<path fill="#BABCBE" d="M18.903,30.509c0,0-1.866-3.996-0.161-7.262c1.704-3.265,2.016-5.689-0.979-8.857
		c-2.994-3.167-2.557-5.275-3.513-4.769c-0.962,0.501-0.173,6.948-0.772,9.385C12.891,21.439,16.099,27.829,18.903,30.509z"/>
	<path fill="#BABCBE" d="M16.715,41.858c0,0-2.586-3.512-1.676-7.137c0.91-3.627,0.754-5.926-2.862-8.515
		c-3.68-2.621-3.611-4.746-4.498-4.026c-0.875,0.726,0.996,6.771,1.042,9.576C8.761,34.276,13.259,39.86,16.715,41.858z"/>
	<path fill="#BABCBE" d="M16.715,51.505c0,0-3.248-2.834-3.266-6.641c-0.017-3.816-0.61-5.9-4.769-7.715
		c-4.296-1.852-4.636-3.922-5.373-2.982c-0.755,0.936,2.183,6.35,3.035,9.357C7.028,45.981,12.741,50.405,16.715,51.505z"/>
	<path fill="#BABCBE" d="M17.971,61.437c0,0-3.854-1.834-5.017-5.537c-1.187-3.727-2.234-5.469-6.819-6.137
		c-4.797-0.703-5.609-2.592-6.093-1.432c-0.501,1.158,3.548,5.549,5.454,8.443C6.901,58.923,13.72,61.581,17.971,61.437z"/>
	<path fill="#BABCBE" d="M21.938,71.29c0,0-4.095-1.043-6.099-4.479c-2.01-3.455-3.271-4.842-8.011-4.664
		c-4.999,0.205-6.099-1.504-6.381-0.23c-0.288,1.297,4.285,4.84,7.043,7.484C10.362,71.21,17.671,72.396,21.938,71.29z"/>
	<path fill="#BABCBE" d="M19.756,28.103c0,0,3.893-1.57,5.46-5.221c1.577-3.683,2.648-5.212,7.325-5.655
		c4.93-0.455,5.816-2.281,6.243-1.06c0.426,1.235-3.64,5.336-6.042,8.308C31.118,26.509,24.075,28.632,19.756,28.103z"/>
	<path fill="#BABCBE" d="M16.023,44.022c0,0,3.484-2.072,4.4-5.789c0.898-3.736,1.688-5.354,6.104-6.469
		c4.653-1.168,5.195-3.041,5.806-1.943c0.616,1.117-2.626,5.623-4.44,8.816C26.661,40.815,20.245,43.882,16.023,44.022z"/>
	<path fill="#BABCBE" d="M17.993,58.036c0,0,3.168-2.293,3.681-5.934c0.518-3.658,1.111-5.27,5.275-6.732
		c4.388-1.531,4.733-3.365,5.431-2.365c0.708,1.008-1.981,5.605-3.427,8.824C27.969,54.024,22.076,57.526,17.993,58.036z"/>
	<path fill="#BABCBE" d="M20.855,69.552c0,0,2.661-2.658,2.568-6.174c-0.098-3.543,0.208-5.166,3.969-7.186
		c3.974-2.127,4.014-3.922,4.838-3.084c0.847,0.85-1.003,5.617-1.866,8.875C29.776,64.216,24.691,68.444,20.855,69.552z"/>
	<path fill="#BABCBE" d="M25.561,80.54c0,0,2.281-2.822,1.774-6.152c-0.495-3.357-0.375-4.936,3.029-7.275
		c3.6-2.463,3.438-4.17,4.337-3.471c0.909,0.715-0.323,5.449-0.789,8.65C33.601,74.476,29.144,79.054,25.561,80.54z"/>
	<path fill="#BABCBE" d="M32.817,90.146c0,0,2.177-2.734,1.642-5.92c-0.541-3.197-0.443-4.711,2.845-6.998
		c3.473-2.406,3.283-4.037,4.17-3.381c0.904,0.668-0.236,5.219-0.64,8.283C40.563,84.22,36.284,88.671,32.817,90.146z"/>
	<path fill="#BABCBE" d="M39.647,99.159c0,0,2.373-2.396,2.16-5.459c-0.213-3.094,0.018-4.516,3.427-6.383
		c3.605-1.951,3.582-3.518,4.371-2.822c0.818,0.732-0.731,4.947-1.417,7.816C47.729,94.274,43.155,98.099,39.647,99.159z"/>
	<path fill="#BABCBE" d="M49.836,106.347c0,0,1.86-2.666,1.111-5.512c-0.743-2.857-0.771-4.232,2.172-6.582
		c3.121-2.477,2.821-3.939,3.697-3.422c0.904,0.535,0.167,4.764,0.017,7.574C56.729,100.327,53.015,104.716,49.836,106.347z"/>
	<path fill="#BABCBE" d="M57.939,108.403c0,0,2.067-2.361,1.63-5.121c-0.438-2.781-0.323-4.094,2.775-6.041
		c3.271-2.057,3.127-3.473,3.934-2.896c0.829,0.592-0.322,4.525-0.749,7.182C65.236,103.335,61.188,107.153,57.939,108.403z"/>
	<path fill="#BABCBE" d="M26.264,80.142c0,0-4.164-0.396-6.808-3.502c-2.66-3.127-4.014-4.215-8.765-3.352
		c-5.091,0.951-6.37-0.598-6.479,0.783c-0.098,1.371,4.723,4.234,8.184,6.561C14.596,82.106,22.105,82.06,26.264,80.142z"/>
	<path fill="#BABCBE" d="M31.015,88.884c0,0-4.135,0.213-7.343-2.482c-3.242-2.699-4.613-3.506-9.307-1.975
		c-5.068,1.664-6.502,0.305-6.41,1.74c0.086,1.445,5.034,3.662,9.157,5.539C19.571,92.817,27.099,91.558,31.015,88.884z"/>
	<path fill="#BABCBE" d="M38.456,98.267c0,0-4.061,0.588-7.637-1.814c-3.605-2.414-4.936-3-9.578-1.088
		c-5.091,2.119-6.571,0.846-6.375,2.338c0.213,1.48,5.108,3.387,9.744,4.953C27.226,103.53,34.706,101.456,38.456,98.267z"/>
	<path fill="#BABCBE" d="M47.705,105.892c0,0-3.715,1.67-7.953,0.402c-4.285-1.277-5.593-1.463-9.642,1.688
		c-4.48,3.484-6.202,2.65-5.592,4.09c0.616,1.428,5.644,2.09,10.908,2.27C38.242,114.421,44.94,110.194,47.705,105.892z"/>
	<path fill="#BABCBE" d="M55.773,110.095c0,0-2.862,2.84-7.412,3.203c-4.59,0.369-5.741,0.662-8.547,5.068
		c-3.139,4.93-5.01,4.688-3.91,5.879c1.105,1.188,5.927,0.312,11.26-1.531C49.888,121.774,54.702,115.284,55.773,110.095z"/>
	<path fill="#BABCBE" d="M59.862,109.542c0,0-0.213,4.027-3.34,7.361c-3.15,3.346-3.801,4.348-2.926,9.49
		c0.99,5.76-0.553,6.842,1.06,6.986c1.612,0.127,4.59-3.754,7.309-8.701C63.347,122.155,62.552,114.116,59.862,109.542z"/>
	<path fill="#BABCBE" d="M106.399,122.542c0,0,0,2.262-1.773,3.068s-2.741-0.967-4.031-1.531s-17.917-8.068-38.262-12.191
		c-23.877-4.838-36.242-22.756-44.662-47.775c-8.42-25.025,8.333-51.013,8.333-51.013l0.26,1.29c0,0-18.009,31.508-2.995,58.612
		c15.015,27.102,18.239,30.828,44.23,37.279C93.487,116.729,106.399,122.542,106.399,122.542z"/>
</g>
</svg>
