<?xml version="1.0" encoding="utf-8"?>
<!-- Generator: Adobe Illustrator 16.0.0, SVG Export Plug-In . SVG Version: 6.00 Build 0)  -->
<!DOCTYPE svg PUBLIC "-//W3C//DTD SVG 1.1//EN" "http://www.w3.org/Graphics/SVG/1.1/DTD/svg11.dtd">
<svg version="1.1" id="Layer_1" xmlns="http://www.w3.org/2000/svg" xmlns:xlink="http://www.w3.org/1999/xlink" x="0px" y="0px"
	 width="338.189px" height="346.276px" viewBox="0 0 338.189 346.276" enable-background="new 0 0 338.189 346.276"
	 xml:space="preserve">
<path fill="#4B2E83" d="M320.317,83.876V71.798l8.379,13.472h0.821V70.541l1.396-1.39h-4.21l1.396,1.39v10.248l-7.267-11.636h-3.336
	l1.368,1.39v13.336l-1.368,1.396h4.211L320.317,83.876L320.317,83.876z M307.867,84.386c-3.227,0-4.342-3.854-4.342-7.187
	c0-3.334,1.119-7.188,4.342-7.188c3.251,0,4.372,3.854,4.372,7.188c0,3.341-1.12,7.189-4.37,7.189 M301.419,77.21
	c0,4.099,2.323,8.414,6.444,8.414c4.147,0,6.477-4.315,6.477-8.414c0-4.097-2.312-8.414-6.477-8.414
	c-4.119,0-6.449,4.311-6.449,8.41 M294.134,83.986V70.348h3.058l1.721,1.726v-2.922h-11.337v2.918l1.748-1.724h3.032v13.636
	l-1.258,1.28h4.316l-1.28-1.289V83.986z M282.193,77.936v5.188c-0.381,0.387-1.146,1.146-2.646,1.146
	c-3.581,0-5.379-3.604-5.379-7.074c0-3.496,2.268-7.073,5.379-7.073c0.816,0,1.42,0.188,1.967,0.766l1.776,1.744v-2.785
	c-0.956-0.487-1.913-0.93-3.743-0.93c-4.398,0-7.486,3.937-7.486,8.278c0,4.261,3.09,8.276,7.486,8.276
	c2.487,0,3.551-0.604,4.426-1.188V77.93l1.254-1.28h-4.314l1.27,1.271L282.193,77.936z M258.294,83.876V71.798l8.479,13.479
	l0.73-0.008V70.541l1.391-1.39h-4.205l1.395,1.39v10.248l-7.266-11.636h-3.334l1.369,1.39v13.336l-1.369,1.396h4.211L258.294,83.876
	L258.294,83.876z M246.744,69.146l1.283,1.282v13.55l-1.283,1.278h4.339l-1.281-1.278v-13.55l1.281-1.282H246.744L246.744,69.146z
	 M232.424,77.176h6.776v6.81l-1.283,1.278h4.343l-1.285-1.278V70.437l1.285-1.283h-4.343l1.283,1.283v5.541h-6.776v-5.541
	l1.287-1.283h-4.318l1.258,1.283v13.549l-1.258,1.278h4.318l-1.287-1.278V77.176L232.424,77.176z M225.164,80.786
	c0-1.586-0.738-2.571-1.502-3.092l-3.28-2.377c-1.175-0.847-1.776-1.937-1.776-2.761c0-1.688,1.449-2.295,2.324-2.295
	c0.461,0,0.789,0.188,1.036,0.188l1.418,1.533l1.503-2.24l-3.197-0.604c-0.217-0.053-0.354-0.082-0.76-0.082
	c-2.816,0-4.101,2.404-4.101,3.964c0,1.227,0.624,2.62,2.073,3.682l3.305,2.38c0.9,0.631,1.146,1.559,1.146,2.352
	c0,1.369-0.846,2.854-2.674,2.854c-0.439,0-0.824-0.084-1.123-0.229l-1.531-1.799l-1.394,2.513l3.086,0.604
	c0,0,0.521,0.104,0.958,0.104c1.932,0.029,4.471-1.609,4.471-4.67 M207.107,72.751l2.213,6.666h-4.51l2.301-6.671L207.107,72.751z
	 M203.227,84.031l1.172-3.414h5.332l1.117,3.414l-1.256,1.261h4.564l-1.285-1.312l-5.025-14.804h-0.818l-5.111,14.804l-1.312,1.312
	h3.879l-1.239-1.261H203.227z M186.087,85.281l3.688-11.662l3.576,11.662h0.819l4.669-14.828l1.312-1.282h-3.877l1.258,1.256
	l-3.414,11.146l-3.309-11.146l1.26-1.256h-4.564l1.285,1.282l0.327,1.062l-3.091,10.056l-3.303-11.146l1.256-1.256h-4.561
	l1.311,1.282l4.535,14.83h0.801H186.087L186.087,85.281z M162.207,75.621l-0.613,0.591l0.068,0.228h1.883
	c-0.295,2.047-0.565,3.813-0.999,6.678c-0.61,4.24-1.133,5.742-1.565,6.104c-0.137,0.134-0.363,0.201-0.565,0.201
	c-0.274,0-0.705-0.201-1.002-0.34c-0.27-0.14-0.497,0.021-0.633,0.157c-0.181,0.205-0.384,0.522-0.384,0.772
	c0,0.451,0.589,0.683,0.976,0.683c0.431,0,1.521-0.358,2.498-1.563c0.77-0.95,1.811-3.157,2.697-8.285
	c0.16-0.952,0.343-1.903,0.73-4.401l2.313-0.229l0.495-0.588h-2.675c0.68-4.203,1.247-5.474,2.224-5.474
	c0.683,0,1.246,0.271,1.748,0.75c0.16,0.16,0.408,0.16,0.634-0.022c0.18-0.157,0.455-0.521,0.455-0.838
	c0.022-0.455-0.593-0.953-1.366-0.953c-1.317,0-2.697,0.771-3.65,1.903c-0.885,1.07-1.474,2.789-1.795,4.636h-1.473h-0.01
	L162.207,75.621z M151.997,81.571c0-3.356,1.699-5.176,2.406-5.471c0.2-0.093,0.521-0.181,0.747-0.181
	c1.135,0,1.794,0.854,1.794,2.604c0.045,2.951-1.499,5.631-2.451,5.946c-0.181,0.062-0.476,0.158-0.7,0.158
	c-1.28,0-1.8-1.351-1.8-3.061 M155.873,75.079c-0.589,0-1.52,0.271-2.45,0.814c-1.568,0.932-3.27,3.041-3.27,6.219
	c0,1.592,0.748,3.36,2.86,3.36c1,0,2.428-0.661,3.383-1.522c1.499-1.36,2.379-3.698,2.379-5.723c0.01-1.881-0.99-3.15-2.9-3.15
	 M129.575,70.458l4.071,7.346v6.203l-1.281,1.278h4.341l-1.281-1.278v-6.203l4.147-7.321l1.339-1.31h-3.987l1.259,1.256
	l-3.389,6.033l-3.225-6.033l1.257-1.256h-4.561l1.31,1.279V70.458z M121.085,84.007V70.37h3.059l1.721,1.726v-2.922h-11.339v2.918
	l1.749-1.724h3.031v13.636l-1.255,1.28h4.314l-1.27-1.29L121.085,84.007z M106.465,69.167l1.284,1.282V84l-1.284,1.278h4.345
	L109.527,84V70.45l1.283-1.282h-4.34L106.465,69.167L106.465,69.167z M101.795,80.807c0-1.587-0.742-2.572-1.503-3.093l-3.281-2.377
	c-1.174-0.847-1.775-1.937-1.775-2.761c0-1.688,1.449-2.295,2.322-2.295c0.465,0,0.792,0.188,1.039,0.188l1.419,1.533l1.501-2.24
	l-3.193-0.604c-0.22-0.055-0.354-0.082-0.762-0.082c-2.817,0-4.099,2.4-4.099,3.966c0,1.226,0.626,2.618,2.077,3.685l3.305,2.379
	c0.901,0.627,1.147,1.557,1.147,2.35c0,1.367-0.848,2.855-2.677,2.855c-0.437,0-0.818-0.086-1.119-0.23l-1.532-1.801L93.27,84.8
	l3.088,0.604c0,0,0.519,0.104,0.954,0.104c1.943,0.011,4.483-1.63,4.483-4.689 M81.086,70.38h1.967c1.721,0,3.088,1.476,3.088,3.228
	c0,1.664-1.395,2.978-3.088,2.978h-1.967v-6.211V70.38z M81.086,84.02v-6.23h2.434l3.904,7.511h2.677l-1.258-1.271l-3.604-6.61
	c1.802-0.55,3.03-2.24,3.03-3.771c0-2.729-2.539-4.451-5.218-4.451h-4.998l1.257,1.283V84.03l-1.257,1.27h4.312L81.086,84.02
	L81.086,84.02z M73.848,85.29v-2.946l-1.724,1.744h-4.888v-6.771h3.632l1.286,1.278v-3.76l-1.286,1.284h-3.632V70.38h4.89
	l1.724,1.729v-2.922h-9.645l1.257,1.278v13.556l-1.257,1.274h9.643V85.29L73.848,85.29z M52.948,69.18h-4.563l1.313,1.283
	l4.533,14.828h0.819l4.669-14.828l1.312-1.283H57.15l1.26,1.255L54.993,81.58l-3.3-11.145l1.255-1.25V69.18z M40.438,69.18
	l1.285,1.283v13.549l-1.285,1.279h4.343l-1.283-1.279V70.463l1.283-1.283H40.438z M25.44,83.91V71.833l8.647,13.471h0.558V70.575
	l1.394-1.389h-4.207l1.394,1.389v10.248l-7.265-11.635h-3.333l1.366,1.389v13.336l-1.366,1.396h4.205L25.44,83.91L25.44,83.91z
	 M7.298,80.99c0,2.646,2.243,4.668,5.001,4.668c2.621,0,5.217-1.938,5.217-4.668V70.576l1.367-1.389h-4.207l1.393,1.389V80.99
	c0,1.854-1.473,3.328-3.333,3.328c-1.884,0-3.552-1.447-3.552-3.328V70.576l1.397-1.389H5.908l1.391,1.389l-0.001,10.41V80.99z"/>
<path fill="#4B2E83" d="M94.826,115.458v14.584h10.25l-11.439,42.607c0,0-14.012-56.399-14.206-57.192H64.615
	c-0.207,0.772-15.375,57.192-15.375,57.192l-10.535-42.606H49.38v-14.584H6.557v14.584h9.49c0,0,16.365,65.506,16.57,66.297h22.986
	c0.204-0.778,10.969-41.715,10.969-41.715c6.83,27.308,6.492,25.58,10.428,41.715h22.998c0.199-0.778,17.432-66.297,17.432-66.297
	h9.413v-14.584H94.832L94.826,115.458L94.826,115.458z"/>
<path fill="#808285" d="M103.108,20.442h12.495c1.187,0,2.152,0.971,2.152,2.158v12.494c0,1.188-0.971,2.156-2.152,2.156h-12.495
	c-1.188,0-2.158-0.971-2.158-2.156V22.601c0.01-1.189,0.98-2.16,2.17-2.16L103.108,20.442z M113.188,22.312
	c-0.415,0-0.757,0.344-0.757,0.758v1.811c0,0.416,0.343,0.758,0.757,0.758h1.898c0.411,0,0.758-0.342,0.758-0.758V23.07
	c0-0.414-0.35-0.758-0.758-0.758H113.188z M115.858,27.554h-1.479c0.146,0.457,0.222,0.94,0.222,1.442
	c0,2.796-2.346,5.062-5.229,5.062c-2.881,0-5.222-2.266-5.222-5.062c0-0.502,0.076-0.985,0.217-1.442h-1.544v7.1
	c0,0.369,0.3,0.668,0.668,0.668h11.708c0.368,0,0.668-0.299,0.668-0.668v-7.1h-0.02H115.858z M109.368,25.542
	c-1.861,0-3.375,1.463-3.375,3.271c0,1.807,1.511,3.271,3.375,3.271c1.866,0,3.377-1.465,3.377-3.271
	c0-1.808-1.528-3.271-3.39-3.271H109.368z"/>
<path fill="#808285" d="M25.324,28.932l0.399-3.096h-3.066v-1.978c0-0.896,0.25-1.509,1.535-1.509l1.639-0.001v-2.77
	c-0.283-0.037-1.256-0.122-2.389-0.122c-2.365,0-3.982,1.443-3.982,4.094v2.283h-2.674v3.097h2.674v7.945h3.198V28.93L25.324,28.932
	L25.324,28.932z"/>
<path fill="#808285" d="M70.375,23.573c-0.626,0.275-1.299,0.465-2.004,0.549c0.721-0.432,1.275-1.115,1.535-1.932
	c-0.673,0.398-1.42,0.691-2.216,0.849c-0.638-0.679-1.545-1.103-2.549-1.103c-1.928,0-3.491,1.564-3.491,3.49
	c0,0.274,0.031,0.541,0.09,0.795c-2.901-0.146-5.473-1.535-7.195-3.647c-0.3,0.519-0.472,1.116-0.472,1.756
	c0,1.21,0.616,2.28,1.552,2.905c-0.572-0.018-1.109-0.176-1.581-0.438v0.045c0,1.69,1.203,3.102,2.8,3.422
	c-0.292,0.082-0.603,0.125-0.92,0.125c-0.225,0-0.444-0.021-0.657-0.062c0.445,1.389,1.733,2.396,3.261,2.426
	c-1.193,0.936-2.699,1.494-4.335,1.494c-0.282,0-0.559-0.018-0.832-0.051c1.544,0.992,3.379,1.57,5.352,1.57
	c6.42,0,9.932-5.32,9.932-9.933c0-0.151-0.004-0.304-0.009-0.452c0.679-0.5,1.27-1.109,1.739-1.811V23.573z"/>
<g>
	<path fill="#4B2E83" d="M26.483,246.417c0-7.387,6.01-13.396,13.392-13.396c7.387,0,13.396,6.012,13.396,13.396
		c0,7.39-6.012,13.399-13.396,13.399C32.493,259.817,26.483,253.808,26.483,246.417z M29.493,246.417
		c0,5.728,4.656,10.386,10.396,10.386c5.726,0,10.384-4.658,10.384-10.386c0-5.726-4.658-10.381-10.384-10.381
		c-5.74,0.002-10.4,4.657-10.4,10.381H29.493z"/>
	
		<rect x="24.56" y="253.113" transform="matrix(-0.7065 -0.7077 0.7077 -0.7065 -139.1044 461.9948)" fill="#4B2E83" width="3.363" height="13.455"/>
</g>
</svg>
