<?xml version="1.0" encoding="utf-8"?>
<!-- Generator: Adobe Illustrator 16.0.0, SVG Export Plug-In . SVG Version: 6.00 Build 0)  -->
<!DOCTYPE svg PUBLIC "-//W3C//DTD SVG 1.1//EN" "http://www.w3.org/Graphics/SVG/1.1/DTD/svg11.dtd">
<svg version="1.1" id="Layer_1" xmlns="http://www.w3.org/2000/svg" xmlns:xlink="http://www.w3.org/1999/xlink" x="0px" y="0px"
	 width="992.595px" height="941.638px" viewBox="0 0 992.595 941.638" enable-background="new 0 0 992.595 941.638"
	 xml:space="preserve">
<path fill="#4B2E83" d="M325.519,97.574v-8.775l6.088,9.787h0.596v-10.7l1.014-1.011h-3.059l1.014,1.011v7.445l-5.279-8.454h-2.424
	l0.994,1.01v9.689l-0.994,1.014h3.061L325.519,97.574L325.519,97.574z M316.472,97.945c-2.344,0-3.154-2.8-3.154-5.222
	s0.812-5.223,3.154-5.223c2.363,0,3.178,2.801,3.178,5.223c0,2.428-0.814,5.223-3.176,5.223 M311.788,92.731
	c0,2.979,1.688,6.113,4.682,6.113c3.012,0,4.705-3.135,4.705-6.113c0-2.977-1.68-6.113-4.705-6.113
	c-2.992,0-4.686,3.132-4.686,6.111 M306.495,97.654v-9.908h2.221L309.968,89v-2.124h-8.238v2.12l1.271-1.252h2.203v9.906
	l-0.914,0.931h3.135l-0.93-0.937V97.654L306.495,97.654z M297.819,93.258v3.77c-0.277,0.281-0.834,0.832-1.924,0.832
	c-2.602,0-3.906-2.617-3.906-5.139c0-2.54,1.646-5.139,3.906-5.139c0.594,0,1.033,0.137,1.43,0.557l1.291,1.267v-2.023
	c-0.695-0.354-1.391-0.675-2.721-0.675c-3.193,0-5.438,2.859-5.438,6.014c0,3.096,2.244,6.013,5.438,6.013
	c1.809,0,2.582-0.438,3.217-0.862v-4.617l0.912-0.93h-3.135l0.922,0.924L297.819,93.258z M280.456,97.574v-8.775l6.16,9.793
	l0.529-0.006v-10.7l1.012-1.011h-3.057l1.014,1.011v7.445l-5.279-8.454h-2.422l0.994,1.01v9.689l-0.994,1.014h3.061L280.456,97.574
	L280.456,97.574z M272.063,86.871l0.932,0.932v9.846l-0.932,0.928h3.152l-0.93-0.928v-9.846l0.93-0.932H272.063L272.063,86.871z
	 M261.659,92.706h4.924v4.947l-0.932,0.929h3.154l-0.934-0.929V87.81l0.934-0.933h-3.154l0.932,0.933v4.026h-4.924V87.81
	l0.936-0.933h-3.137l0.914,0.933v9.844l-0.914,0.929h3.137l-0.936-0.929V92.706L261.659,92.706z M256.386,95.329
	c0-1.152-0.537-1.868-1.092-2.247l-2.383-1.727c-0.854-0.615-1.291-1.407-1.291-2.006c0-1.227,1.053-1.668,1.689-1.668
	c0.334,0,0.572,0.137,0.752,0.137l1.029,1.113l1.094-1.627l-2.324-0.438c-0.156-0.038-0.256-0.06-0.551-0.06
	c-2.047,0-2.98,1.746-2.98,2.88c0,0.892,0.453,1.903,1.506,2.675l2.402,1.729c0.652,0.458,0.832,1.133,0.832,1.708
	c0,0.996-0.615,2.074-1.943,2.074c-0.318,0-0.598-0.061-0.816-0.166l-1.111-1.307l-1.014,1.825l2.242,0.438
	c0,0,0.379,0.076,0.697,0.076c1.402,0.021,3.248-1.169,3.248-3.394 M243.265,89.491l1.609,4.843h-3.277l1.672-4.846L243.265,89.491z
	 M240.446,97.688l0.852-2.48h3.875l0.811,2.48l-0.912,0.916h3.316l-0.934-0.954l-3.65-10.756h-0.596l-3.713,10.756l-0.953,0.954
	h2.818l-0.9-0.916H240.446z M227.993,98.596l2.68-8.474l2.598,8.474h0.596l3.393-10.773l0.953-0.932h-2.816l0.914,0.912l-2.48,8.098
	l-2.404-8.098l0.916-0.912h-3.316l0.934,0.932l0.238,0.771l-2.246,7.306l-2.4-8.098l0.912-0.912h-3.314l0.953,0.932l3.295,10.775
	h0.582H227.993L227.993,98.596z M210.644,91.576l-0.445,0.43l0.049,0.165h1.369c-0.215,1.487-0.41,2.771-0.727,4.853
	c-0.443,3.08-0.822,4.172-1.137,4.435c-0.1,0.097-0.264,0.146-0.41,0.146c-0.199,0-0.512-0.146-0.729-0.246
	c-0.195-0.103-0.361,0.015-0.459,0.113c-0.133,0.148-0.279,0.379-0.279,0.561c0,0.328,0.428,0.496,0.709,0.496
	c0.312,0,1.105-0.26,1.814-1.135c0.561-0.69,1.316-2.294,1.959-6.02c0.117-0.691,0.25-1.383,0.531-3.197l1.68-0.166l0.361-0.428
	h-1.943c0.492-3.054,0.904-3.977,1.615-3.977c0.496,0,0.904,0.196,1.27,0.545c0.117,0.115,0.297,0.115,0.461-0.017
	c0.131-0.114,0.33-0.379,0.33-0.608c0.018-0.331-0.43-0.693-0.992-0.693c-0.957,0-1.959,0.561-2.652,1.383
	c-0.643,0.777-1.07,2.027-1.303,3.369h-1.07h-0.008L210.644,91.576z M203.226,95.899c0-2.438,1.234-3.76,1.748-3.975
	c0.146-0.066,0.379-0.131,0.543-0.131c0.824,0,1.303,0.62,1.303,1.892c0.033,2.144-1.088,4.091-1.779,4.32
	c-0.133,0.046-0.346,0.114-0.51,0.114c-0.93,0-1.307-0.981-1.307-2.224 M206.042,91.183c-0.428,0-1.104,0.196-1.779,0.591
	c-1.141,0.678-2.377,2.21-2.377,4.519c0,1.157,0.543,2.441,2.078,2.441c0.727,0,1.764-0.48,2.459-1.105
	c1.088-0.988,1.727-2.687,1.727-4.159c0.008-1.365-0.719-2.287-2.105-2.287 M186.935,87.825l2.959,5.337v4.507l-0.932,0.929h3.154
	l-0.932-0.929v-4.507l3.014-5.318l0.973-0.952h-2.896l0.914,0.913l-2.461,4.383l-2.344-4.383l0.914-0.913h-3.314l0.951,0.929V87.825
	z M180.767,97.669v-9.907h2.223l1.25,1.254v-2.123h-8.238v2.119l1.271-1.252h2.201v9.907l-0.912,0.931h3.135l-0.922-0.938
	L180.767,97.669z M170.146,86.887l0.932,0.932v9.846l-0.932,0.928h3.156l-0.932-0.928v-9.844l0.932-0.932h-3.152L170.146,86.887
	L170.146,86.887z M166.751,95.344c0-1.152-0.539-1.869-1.092-2.246l-2.384-1.728c-0.854-0.615-1.29-1.407-1.29-2.006
	c0-1.227,1.054-1.667,1.688-1.667c0.338,0,0.575,0.136,0.755,0.136l1.031,1.114l1.09-1.628l-2.319-0.438
	c-0.16-0.041-0.257-0.06-0.554-0.06c-2.047,0-2.979,1.743-2.979,2.882c0,0.891,0.455,1.902,1.51,2.677l2.4,1.728
	c0.655,0.456,0.834,1.133,0.834,1.709c0,0.992-0.616,2.073-1.945,2.073c-0.317,0-0.594-0.062-0.812-0.167l-1.113-1.309l-1.014,1.831
	l2.244,0.438c0,0,0.377,0.076,0.693,0.076c1.412,0.008,3.257-1.184,3.257-3.407 M151.705,87.769h1.43
	c1.25,0,2.243,1.072,2.243,2.345c0,1.209-1.014,2.164-2.243,2.164h-1.43v-4.512V87.769z M151.705,97.678v-4.525h1.769l2.836,5.457
	h1.945l-0.914-0.924l-2.618-4.803c1.309-0.398,2.201-1.627,2.201-2.74c0-1.982-1.845-3.232-3.791-3.232h-3.631l0.912,0.932v9.844
	l-0.912,0.923h3.133L151.705,97.678L151.705,97.678z M146.446,98.602v-2.141l-1.253,1.268h-3.551v-4.92h2.639l0.934,0.928v-2.73
	l-0.934,0.933h-2.639v-4.17h3.553l1.252,1.256v-2.123h-7.007l0.913,0.929v9.85l-0.913,0.926h7.006V98.602L146.446,98.602z
	 M131.262,86.897h-3.315l0.954,0.932l3.293,10.773h0.596l3.393-10.773l0.952-0.932h-2.819l0.916,0.912l-2.482,8.098l-2.398-8.098
	l0.912-0.908V86.897z M122.172,86.897l0.934,0.932v9.845l-0.934,0.929h3.156l-0.933-0.929v-9.845l0.933-0.932H122.172z
	 M111.275,97.6v-8.775l6.283,9.787h0.404V87.91l1.014-1.01h-3.057l1.013,1.01v7.445l-5.278-8.453h-2.422l0.992,1.01v9.689
	l-0.992,1.014h3.055L111.275,97.6L111.275,97.6z M98.095,95.478c0,1.922,1.63,3.392,3.634,3.392c1.904,0,3.79-1.408,3.79-3.392
	v-7.566l0.993-1.01h-3.057l1.012,1.01v7.566c0,1.347-1.07,2.417-2.422,2.417c-1.368,0-2.58-1.051-2.58-2.417v-7.566l1.016-1.01
	h-3.396l1.011,1.01l-0.001,7.563V95.478z"/>
<path fill="#4B2E83" d="M53.594,71.505v8.854h6.223l-6.945,25.869c0,0-8.508-34.243-8.625-34.725H35.25
	c-0.125,0.469-9.335,34.725-9.335,34.725l-6.396-25.868H26v-8.855H0v8.855h5.762c0,0,9.936,39.772,10.061,40.253h13.956
	c0.124-0.473,6.66-25.328,6.66-25.328c4.147,16.581,3.941,15.531,6.331,25.328h13.964c0.12-0.473,10.585-40.253,10.585-40.253h5.715
	v-8.855H53.597L53.594,71.505L53.594,71.505z"/>
<path fill="#808285" d="M103.108,20.442h12.495c1.187,0,2.152,0.972,2.152,2.158v12.494c0,1.188-0.971,2.156-2.152,2.156h-12.495
	c-1.188,0-2.158-0.972-2.158-2.156V22.601c0.01-1.188,0.98-2.16,2.17-2.16L103.108,20.442z M113.188,22.312
	c-0.415,0-0.757,0.345-0.757,0.758v1.812c0,0.416,0.343,0.758,0.757,0.758h1.898c0.411,0,0.758-0.342,0.758-0.758V23.07
	c0-0.413-0.35-0.758-0.758-0.758H113.188z M115.858,27.554h-1.479c0.146,0.457,0.222,0.94,0.222,1.442
	c0,2.796-2.346,5.062-5.229,5.062c-2.881,0-5.222-2.266-5.222-5.062c0-0.502,0.076-0.985,0.217-1.442h-1.544v7.1
	c0,0.369,0.3,0.669,0.668,0.669h11.708c0.368,0,0.668-0.3,0.668-0.669v-7.1h-0.02H115.858z M109.368,25.542
	c-1.861,0-3.375,1.463-3.375,3.271s1.511,3.271,3.375,3.271c1.866,0,3.377-1.465,3.377-3.271c0-1.808-1.528-3.271-3.39-3.271
	H109.368z"/>
<path fill="#808285" d="M25.324,28.932l0.399-3.096h-3.066v-1.979c0-0.896,0.25-1.509,1.535-1.509l1.639-0.001v-2.77
	c-0.283-0.037-1.256-0.122-2.389-0.122c-2.365,0-3.982,1.442-3.982,4.094v2.283h-2.674v3.097h2.674v7.945h3.198V28.93L25.324,28.932
	L25.324,28.932z"/>
<path fill="#808285" d="M70.375,23.573c-0.626,0.274-1.299,0.465-2.004,0.549c0.721-0.433,1.275-1.115,1.535-1.933
	c-0.673,0.398-1.42,0.691-2.216,0.85c-0.638-0.68-1.545-1.104-2.549-1.104c-1.928,0-3.491,1.564-3.491,3.49
	c0,0.274,0.031,0.541,0.09,0.795c-2.901-0.146-5.473-1.535-7.195-3.646c-0.3,0.519-0.472,1.115-0.472,1.756
	c0,1.21,0.616,2.279,1.552,2.904c-0.572-0.018-1.109-0.176-1.581-0.438v0.045c0,1.69,1.203,3.102,2.8,3.422
	c-0.292,0.082-0.603,0.125-0.92,0.125c-0.225,0-0.444-0.021-0.657-0.062c0.445,1.389,1.733,2.396,3.261,2.426
	c-1.193,0.936-2.699,1.494-4.335,1.494c-0.282,0-0.559-0.019-0.832-0.052c1.544,0.992,3.379,1.57,5.352,1.57
	c6.42,0,9.932-5.32,9.932-9.933c0-0.151-0.004-0.305-0.009-0.452c0.679-0.5,1.27-1.109,1.739-1.812V23.573z"/>
<g>
	<path fill="#6B6B6B" d="M30.452,246.503c0-4.567,3.716-8.282,8.28-8.282c4.567,0,8.282,3.718,8.282,8.282
		c0,4.568-3.717,8.283-8.282,8.283C34.168,254.786,30.452,251.072,30.452,246.503z M32.313,246.503c0,3.54,2.879,6.421,6.427,6.421
		c3.541,0,6.42-2.881,6.42-6.421s-2.879-6.418-6.42-6.418c-3.548,0.001-6.43,2.878-6.43,6.418H32.313z"/>
	
		<rect x="29.266" y="250.646" transform="matrix(0.7068 0.7075 -0.7075 0.7068 189.151 53.2806)" fill="#6B6B6B" width="2.079" height="8.318"/>
</g>
<line fill="none" stroke="#808285" stroke-miterlimit="10" x1="162.386" y1="17.299" x2="156.161" y2="41.704"/>
<line fill="none" stroke="#FFFFFF" stroke-miterlimit="10" x1="135.66" y1="148.671" x2="92.112" y2="297.058"/>
</svg>
