<?xml version="1.0" encoding="utf-8"?>
<!-- Generator: Adobe Illustrator 16.0.0, SVG Export Plug-In . SVG Version: 6.00 Build 0)  -->
<!DOCTYPE svg PUBLIC "-//W3C//DTD SVG 1.1//EN" "http://www.w3.org/Graphics/SVG/1.1/DTD/svg11.dtd">
<svg version="1.1" id="Layer_1" xmlns="http://www.w3.org/2000/svg" xmlns:xlink="http://www.w3.org/1999/xlink" x="0px" y="0px"
	 width="992.594px" height="941.637px" viewBox="0 0 992.594 941.637" enable-background="new 0 0 992.594 941.637"
	 xml:space="preserve">
<path fill="#4B2E83" d="M325.519,97.574v-8.775l6.091,9.787h0.596v-10.7l1.014-1.011h-3.059l1.014,1.011v7.445l-5.277-8.454h-2.426
	l0.994,1.01v9.689l-0.994,1.014h3.062L325.519,97.574L325.519,97.574z M316.472,97.945c-2.344,0-3.151-2.8-3.151-5.222
	c0-2.422,0.812-5.223,3.151-5.223c2.363,0,3.181,2.801,3.181,5.223c0,2.428-0.814,5.223-3.179,5.223 M311.788,92.731
	c0,2.979,1.688,6.113,4.682,6.113c3.015,0,4.705-3.135,4.705-6.113c0-2.977-1.68-6.113-4.705-6.113
	c-2.992,0-4.686,3.132-4.686,6.111 M306.495,97.654v-9.908h2.221L309.968,89v-2.124h-8.238v2.12l1.271-1.252h2.203v9.906
	l-0.914,0.931h3.135l-0.93-0.937V97.654L306.495,97.654z M297.819,93.258v3.77c-0.277,0.281-0.834,0.832-1.924,0.832
	c-2.602,0-3.906-2.617-3.906-5.139c0-2.54,1.646-5.139,3.906-5.139c0.594,0,1.033,0.137,1.43,0.557l1.291,1.267v-2.023
	c-0.695-0.354-1.391-0.675-2.721-0.675c-3.193,0-5.438,2.859-5.438,6.014c0,3.096,2.244,6.013,5.438,6.013
	c1.809,0,2.582-0.438,3.217-0.862v-4.617l0.912-0.93h-3.135l0.922,0.924L297.819,93.258z M280.456,97.574v-8.775l6.16,9.793
	l0.529-0.006v-10.7l1.012-1.011H285.1l1.014,1.011v7.445l-5.279-8.454h-2.422l0.994,1.01v9.689l-0.994,1.014h3.061L280.456,97.574
	L280.456,97.574z M272.063,86.871l0.932,0.932v9.846l-0.932,0.928h3.152l-0.93-0.928v-9.846l0.93-0.932H272.063L272.063,86.871z
	 M261.659,92.706h4.924v4.947l-0.932,0.929h3.154l-0.934-0.929V87.81l0.934-0.933h-3.154l0.932,0.933v4.026h-4.924V87.81
	l0.936-0.933h-3.137l0.914,0.933v9.844l-0.914,0.929h3.137l-0.936-0.929V92.706L261.659,92.706z M256.386,95.329
	c0-1.152-0.537-1.868-1.092-2.247l-2.383-1.727c-0.854-0.615-1.291-1.407-1.291-2.006c0-1.227,1.053-1.668,1.689-1.668
	c0.334,0,0.572,0.137,0.752,0.137l1.029,1.113l1.094-1.627l-2.324-0.438c-0.156-0.038-0.256-0.06-0.551-0.06
	c-2.047,0-2.98,1.746-2.98,2.88c0,0.892,0.453,1.903,1.506,2.675l2.402,1.729c0.652,0.458,0.832,1.133,0.832,1.708
	c0,0.996-0.615,2.074-1.943,2.074c-0.318,0-0.598-0.061-0.816-0.166l-1.111-1.307l-1.014,1.825l2.242,0.438
	c0,0,0.379,0.076,0.697,0.076c1.402,0.021,3.248-1.169,3.248-3.394 M243.265,89.491l1.609,4.843h-3.277l1.672-4.846L243.265,89.491z
	 M240.446,97.688l0.852-2.48h3.875l0.811,2.48l-0.912,0.916h3.316l-0.934-0.954l-3.65-10.756h-0.596l-3.713,10.756l-0.953,0.954
	h2.818l-0.9-0.916H240.446z M227.993,98.596l2.68-8.474l2.598,8.474h0.596l3.393-10.773l0.953-0.932h-2.816l0.914,0.912l-2.48,8.098
	l-2.404-8.098l0.916-0.912h-3.316l0.934,0.932l0.238,0.771l-2.246,7.306l-2.4-8.098l0.912-0.912h-3.314l0.953,0.932l3.295,10.775
	h0.582L227.993,98.596L227.993,98.596z M210.644,91.576l-0.445,0.43l0.049,0.165h1.369c-0.215,1.487-0.41,2.771-0.727,4.853
	c-0.443,3.08-0.822,4.172-1.137,4.435c-0.1,0.097-0.264,0.146-0.41,0.146c-0.199,0-0.512-0.146-0.729-0.246
	c-0.195-0.103-0.361,0.015-0.459,0.113c-0.133,0.148-0.279,0.379-0.279,0.561c0,0.328,0.428,0.496,0.709,0.496
	c0.312,0,1.105-0.26,1.814-1.135c0.561-0.69,1.316-2.294,1.959-6.02c0.117-0.691,0.25-1.383,0.531-3.197l1.68-0.166l0.361-0.428
	h-1.943c0.492-3.054,0.904-3.977,1.615-3.977c0.496,0,0.904,0.196,1.27,0.545c0.117,0.115,0.297,0.115,0.461-0.017
	c0.131-0.114,0.33-0.379,0.33-0.608c0.018-0.331-0.43-0.693-0.992-0.693c-0.957,0-1.959,0.561-2.652,1.383
	c-0.643,0.777-1.07,2.027-1.303,3.369h-1.07h-0.008L210.644,91.576z M203.226,95.899c0-2.438,1.234-3.76,1.748-3.975
	c0.146-0.066,0.379-0.131,0.543-0.131c0.824,0,1.303,0.62,1.303,1.892c0.033,2.144-1.088,4.091-1.779,4.32
	c-0.133,0.046-0.346,0.114-0.51,0.114c-0.93,0-1.307-0.981-1.307-2.224 M206.042,91.183c-0.428,0-1.104,0.196-1.779,0.591
	c-1.141,0.678-2.377,2.21-2.377,4.519c0,1.157,0.543,2.441,2.078,2.441c0.727,0,1.764-0.48,2.459-1.105
	c1.088-0.988,1.727-2.687,1.727-4.159c0.008-1.365-0.719-2.287-2.105-2.287 M186.935,87.825l2.959,5.337v4.507l-0.932,0.929h3.154
	l-0.932-0.929v-4.507l3.014-5.318l0.973-0.952h-2.896l0.914,0.913l-2.461,4.383l-2.344-4.383l0.914-0.913h-3.314l0.951,0.929V87.825
	L186.935,87.825z M180.767,97.669v-9.907h2.223l1.25,1.254v-2.123h-8.238v2.119l1.271-1.252h2.201v9.907l-0.912,0.931h3.135
	l-0.922-0.938L180.767,97.669z M170.146,86.887l0.932,0.932v9.846l-0.932,0.928h3.156l-0.932-0.928v-9.844l0.932-0.932h-3.152
	L170.146,86.887L170.146,86.887z M166.751,95.344c0-1.152-0.539-1.869-1.092-2.246l-2.384-1.728c-0.854-0.615-1.29-1.407-1.29-2.006
	c0-1.227,1.054-1.667,1.688-1.667c0.338,0,0.575,0.136,0.755,0.136l1.031,1.114l1.09-1.628l-2.319-0.438
	c-0.16-0.041-0.257-0.06-0.554-0.06c-2.047,0-2.979,1.743-2.979,2.882c0,0.891,0.455,1.902,1.51,2.677l2.4,1.728
	c0.655,0.456,0.834,1.133,0.834,1.709c0,0.992-0.616,2.073-1.945,2.073c-0.317,0-0.594-0.062-0.812-0.167l-1.113-1.309l-1.014,1.831
	l2.244,0.438c0,0,0.377,0.076,0.693,0.076c1.412,0.008,3.257-1.184,3.257-3.407 M151.705,87.769h1.43
	c1.25,0,2.243,1.072,2.243,2.345c0,1.209-1.014,2.164-2.243,2.164h-1.43v-4.512V87.769z M151.705,97.678v-4.525h1.769l2.836,5.457
	h1.945l-0.914-0.924l-2.618-4.803c1.309-0.398,2.201-1.627,2.201-2.74c0-1.982-1.845-3.232-3.791-3.232h-3.631l0.912,0.932v9.844
	l-0.912,0.923h3.133L151.705,97.678L151.705,97.678z M146.446,98.602v-2.141l-1.253,1.268h-3.551v-4.92h2.639l0.934,0.928v-2.73
	l-0.934,0.933h-2.639v-4.17h3.553l1.252,1.256v-2.123h-7.007l0.913,0.929v9.85l-0.913,0.926h7.006V98.602L146.446,98.602z
	 M131.262,86.897h-3.315l0.954,0.932l3.293,10.773h0.596l3.393-10.773l0.952-0.932h-2.819l0.916,0.912l-2.482,8.098l-2.398-8.098
	l0.912-0.908v-0.004H131.262L131.262,86.897z M122.172,86.897l0.934,0.932v9.845l-0.934,0.929h3.156l-0.933-0.929v-9.845
	l0.933-0.932H122.172z M111.275,97.6v-8.775l6.283,9.787h0.404V87.91l1.014-1.01h-3.057l1.013,1.01v7.445l-5.278-8.453h-2.422
	l0.992,1.01v9.689l-0.992,1.014h3.055L111.275,97.6L111.275,97.6z M98.095,95.478c0,1.922,1.63,3.392,3.634,3.392
	c1.904,0,3.79-1.408,3.79-3.392v-7.566l0.993-1.01h-3.057l1.012,1.01v7.566c0,1.347-1.07,2.417-2.422,2.417
	c-1.368,0-2.58-1.051-2.58-2.417v-7.566l1.016-1.01h-3.396l1.011,1.01l-0.001,7.563V95.478z"/>
<path fill="#4B2E83" d="M53.594,71.505v8.854h6.223l-6.945,25.869c0,0-8.508-34.243-8.625-34.725H35.25
	c-0.125,0.469-9.335,34.725-9.335,34.725L19.519,80.36H26v-8.855H0v8.855h5.762c0,0,9.936,39.772,10.061,40.253h13.956
	c0.124-0.473,6.66-25.328,6.66-25.328c4.147,16.581,3.941,15.531,6.331,25.328h13.964c0.12-0.473,10.585-40.253,10.585-40.253h5.715
	v-8.855H53.597H53.594L53.594,71.505z"/>
<path fill="#808285" d="M103.108,20.442h12.495c1.187,0,2.152,0.972,2.152,2.158v12.494c0,1.188-0.971,2.156-2.152,2.156h-12.495
	c-1.188,0-2.158-0.972-2.158-2.156V22.601c0.01-1.188,0.98-2.16,2.17-2.16L103.108,20.442z M113.188,22.312
	c-0.415,0-0.757,0.345-0.757,0.758v1.812c0,0.416,0.343,0.758,0.757,0.758h1.898c0.411,0,0.758-0.342,0.758-0.758V23.07
	c0-0.413-0.35-0.758-0.758-0.758H113.188z M115.858,27.554h-1.479c0.146,0.457,0.222,0.94,0.222,1.442
	c0,2.796-2.346,5.062-5.229,5.062c-2.881,0-5.222-2.266-5.222-5.062c0-0.502,0.076-0.985,0.217-1.442h-1.544v7.1
	c0,0.369,0.3,0.669,0.668,0.669h11.708c0.368,0,0.668-0.3,0.668-0.669v-7.1h-0.02H115.858z M109.368,25.542
	c-1.861,0-3.375,1.463-3.375,3.271s1.511,3.271,3.375,3.271c1.866,0,3.377-1.465,3.377-3.271c0-1.808-1.528-3.271-3.39-3.271
	H109.368z"/>
<path fill="#808285" d="M25.324,28.932l0.399-3.096h-3.066v-1.979c0-0.896,0.25-1.509,1.535-1.509l1.639-0.001v-2.77
	c-0.283-0.037-1.256-0.122-2.389-0.122c-2.365,0-3.982,1.442-3.982,4.094v2.283h-2.674v3.097h2.674v7.945h3.198V28.93L25.324,28.932
	L25.324,28.932z"/>
<path fill="#808285" d="M70.375,23.573c-0.626,0.274-1.299,0.465-2.004,0.549c0.721-0.433,1.275-1.115,1.535-1.933
	c-0.673,0.398-1.42,0.691-2.216,0.85c-0.638-0.68-1.545-1.104-2.549-1.104c-1.928,0-3.491,1.564-3.491,3.49
	c0,0.274,0.031,0.541,0.09,0.795c-2.901-0.146-5.473-1.535-7.195-3.646c-0.3,0.519-0.472,1.115-0.472,1.756
	c0,1.21,0.616,2.279,1.552,2.904c-0.572-0.018-1.109-0.176-1.581-0.438v0.045c0,1.69,1.203,3.102,2.8,3.422
	c-0.292,0.082-0.603,0.125-0.92,0.125c-0.225,0-0.444-0.021-0.657-0.062c0.445,1.389,1.733,2.396,3.261,2.426
	c-1.193,0.936-2.699,1.494-4.335,1.494c-0.282,0-0.559-0.019-0.832-0.052c1.544,0.992,3.379,1.57,5.352,1.57
	c6.42,0,9.932-5.32,9.932-9.933c0-0.151-0.004-0.305-0.009-0.452c0.679-0.5,1.27-1.109,1.739-1.812V23.573z"/>
<g>
	<path fill="#6B6B6B" d="M30.452,246.503c0-4.567,3.716-8.282,8.28-8.282c4.567,0,8.282,3.718,8.282,8.282
		c0,4.568-3.717,8.283-8.282,8.283C34.168,254.786,30.452,251.072,30.452,246.503z M32.313,246.503c0,3.54,2.879,6.421,6.427,6.421
		c3.541,0,6.42-2.881,6.42-6.421s-2.879-6.418-6.42-6.418c-3.548,0.001-6.43,2.878-6.43,6.418H32.313z"/>
	
		<rect x="29.258" y="250.658" transform="matrix(-0.7066 -0.7076 0.7076 -0.7066 -128.5967 456.3187)" fill="#6B6B6B" width="2.079" height="8.319"/>
</g>
<line fill="none" stroke="#CACCCE" stroke-miterlimit="10" x1="162.386" y1="17.299" x2="156.161" y2="41.704"/>
<line fill="none" stroke="#FFFFFF" stroke-miterlimit="10" x1="178.292" y1="17.299" x2="172.066" y2="41.704"/>
<line fill="none" stroke="#FFFFFF" stroke-miterlimit="10" x1="151.565" y1="126.09" x2="89.469" y2="321.251"/>
<line fill="none" stroke="#FFFFFF" stroke-width="2" stroke-miterlimit="10" x1="240.91" y1="365.434" x2="163.667" y2="606.614"/>
<g>
	<path fill="#FFFFFF" d="M57.784,151.259c0,0.322,0.26,0.58,0.58,0.58h17.391c0.32,0,0.58-0.258,0.58-0.58v-10.434
		c0-0.32-0.26-0.579-0.58-0.579H63.581v-1.159c0-0.32-0.26-0.58-0.58-0.58h-2.898c-0.32,0-0.58,0.26-0.58,0.58v1.159h-1.158
		c-0.32,0-0.58,0.259-0.58,0.579L57.784,151.259L57.784,151.259z M60.683,139.666h1.74v0.58h-1.74V139.666z M58.942,141.405h16.232
		v9.276H58.942V141.405z"/>
	<path fill="#FFFFFF" d="M69.378,142.564c-1.918,0-3.479,1.561-3.479,3.479s1.561,3.478,3.479,3.478s3.479-1.56,3.479-3.478
		S71.296,142.564,69.378,142.564z M69.378,148.362c-1.279,0-2.318-1.04-2.318-2.319c0-1.279,1.039-2.319,2.318-2.319
		c1.279,0,2.318,1.04,2.318,2.319C71.696,147.322,70.657,148.362,69.378,148.362z"/>
	<path fill="#FFFFFF" d="M62.423,142.854h-1.74c-0.32,0-0.58,0.26-0.58,0.579c0,0.321,0.26,0.58,0.58,0.58h1.74
		c0.318,0,0.578-0.259,0.578-0.58C63.001,143.114,62.741,142.854,62.423,142.854z"/>
</g>
<g>
	<path fill="#FFFFFF" d="M11.372,137.069c-2.477,0-4.807,0.965-6.558,2.718c-1.752,1.751-2.718,4.08-2.718,6.558
		c0,2.479,0.966,4.807,2.718,6.559c1.751,1.752,4.081,2.717,6.558,2.717c2.479,0,4.807-0.965,6.559-2.717
		c1.752-1.752,2.717-4.082,2.717-6.559c0-2.477-0.965-4.807-2.717-6.558C16.178,138.034,13.85,137.069,11.372,137.069z
		 M17.111,152.083c-1.533,1.533-3.571,2.377-5.739,2.377c-2.167,0-4.205-0.844-5.738-2.377c-1.533-1.533-2.378-3.571-2.378-5.739
		s0.845-4.205,2.378-5.738c1.533-1.533,3.571-2.378,5.738-2.378c2.168,0,4.206,0.845,5.739,2.378
		c1.532,1.533,2.377,3.57,2.377,5.738S18.643,150.55,17.111,152.083z"/>
	<path fill="#FFFFFF" d="M14.338,145.888L10.28,142.7c-0.174-0.138-0.412-0.163-0.612-0.066c-0.199,0.098-0.325,0.3-0.325,0.521
		v6.376c0,0.223,0.126,0.424,0.325,0.521c0.081,0.039,0.168,0.059,0.255,0.059c0.127,0,0.254-0.041,0.357-0.123l4.058-3.188
		c0.141-0.111,0.222-0.279,0.222-0.457C14.56,146.165,14.479,145.999,14.338,145.888z M10.502,148.34v-3.99l2.539,1.995
		L10.502,148.34z"/>
</g>
<g>
	<path fill="#FFFFFF" d="M45.997,139.477c-1.752-1.753-4.08-2.717-6.559-2.716c-2.477,0.001-4.807,0.965-6.558,2.716
		c-1.752,1.752-2.716,4.082-2.716,6.558c-0.001,2.479,0.963,4.806,2.716,6.56c1.751,1.75,4.081,2.717,6.56,2.715
		c2.477,0.002,4.805-0.963,6.557-2.715c1.752-1.752,2.717-4.081,2.717-6.558C48.714,143.558,47.749,141.228,45.997,139.477z
		 M39.44,154.152c-2.169,0-4.208-0.844-5.741-2.377c-1.532-1.531-2.377-3.571-2.376-5.739c0-2.168,0.843-4.206,2.376-5.739
		c1.532-1.532,3.571-2.377,5.739-2.376c2.168-0.001,4.207,0.845,5.738,2.377c1.533,1.532,2.377,3.57,2.379,5.739
		c0,2.167-0.846,4.207-2.377,5.738C43.646,153.308,41.608,154.152,39.44,154.152z"/>
	<path fill="#FFFFFF" d="M41.612,147.904l2.459-5.738c0.094-0.219,0.043-0.471-0.123-0.639c-0.168-0.167-0.42-0.217-0.639-0.123
		l-5.739,2.459c-0.139,0.06-0.245,0.17-0.304,0.307l-0.001-0.002l-2.459,5.738c-0.094,0.219-0.045,0.473,0.122,0.641
		c0.168,0.168,0.421,0.215,0.64,0.121l5.739-2.458h-0.002C41.442,148.149,41.552,148.043,41.612,147.904z M42.435,143.041
		l-1.551,3.619l-2.068-2.068L42.435,143.041z M36.444,149.031l1.551-3.619l2.069,2.068L36.444,149.031z"/>
</g>
<circle fill="none" stroke="#FFFFFF" stroke-width="3" stroke-miterlimit="10" cx="212.521" cy="181.641" r="39.686"/>
<polygon fill="none" stroke="#FFFFFF" stroke-width="3" stroke-miterlimit="10" points="202.646,165.144 232.771,181.641 
	202.646,198.138 "/>
<circle fill="none" stroke="#FFFFFF" stroke-width="2" stroke-miterlimit="10" cx="39.686" cy="418.526" r="27.941"/>
<polygon fill="none" stroke="#FFFFFF" stroke-width="2" stroke-miterlimit="10" points="32.733,406.912 53.943,418.526 
	32.733,430.141 "/>
<circle fill="none" stroke="#FFFFFF" stroke-width="2" stroke-miterlimit="10" cx="37.598" cy="548.195" r="27.941"/>
<circle fill="#FFFFFF" stroke="#000000" stroke-width="5" stroke-miterlimit="10" cx="12.027" cy="177.106" r="5.455"/>
<rect x="12.203" y="662.49" fill="none" stroke="#FFFFFF" stroke-width="2" stroke-miterlimit="10" width="58.125" height="35.024"/>
<circle fill="none" stroke="#FFFFFF" stroke-width="2" stroke-miterlimit="10" cx="51.677" cy="680.003" r="9.656"/>
<line fill="none" stroke="#FFFFFF" stroke-width="2" stroke-miterlimit="10" x1="19.302" y1="669.827" x2="27.443" y2="669.827"/>
<rect x="16.272" y="655.633" fill="none" stroke="#FFFFFF" stroke-width="2" stroke-miterlimit="10" width="13.253" height="6.815"/>
<polygon fill="none" stroke="#FFFFFF" stroke-width="2" stroke-miterlimit="10" points="41.635,552.433 26.57,559.568 
	33.887,544.523 49.149,537.349 "/>
<line fill="none" stroke="#FFFFFF" stroke-width="2" stroke-miterlimit="10" x1="34.385" y1="545.016" x2="41.047" y2="551.82"/>
<path fill="#808285" d="M137.144,18.796h-1.162l-0.785,3.015l-0.815-3.015h-1.21c0.242,0.711,0.494,1.427,0.737,2.139
	c0.369,1.07,0.599,1.877,0.703,2.429v3.108h1.15v-3.108l1.38-4.57L137.144,18.796z M140.214,24.616v-2.004
	c0-0.611-0.105-1.058-0.321-1.348c-0.288-0.389-0.691-0.586-1.21-0.586c-0.516,0-0.92,0.197-1.208,0.586
	c-0.222,0.29-0.325,0.737-0.325,1.348v2.004c0,0.608,0.103,1.059,0.325,1.346c0.286,0.39,0.691,0.586,1.208,0.586
	c0.52,0,0.922-0.196,1.21-0.586c0.22-0.29,0.33-0.74,0.33-1.35L140.214,24.616z M139.174,24.817c0,0.529-0.16,0.794-0.494,0.794
	c-0.335,0-0.495-0.265-0.495-0.794V22.41c0-0.528,0.16-0.791,0.495-0.791s0.494,0.263,0.494,0.791v2.41V24.817z M144.044,26.466
	v-5.72h-1.037v4.372c-0.23,0.325-0.447,0.485-0.655,0.485c-0.139,0-0.22-0.083-0.242-0.242c-0.014-0.034-0.014-0.161-0.014-0.404
	v-4.209h-1.033v4.524c0,0.404,0.036,0.678,0.092,0.848c0.103,0.292,0.334,0.427,0.668,0.427c0.379,0,0.771-0.23,1.184-0.704v0.624
	h1.04L144.044,26.466z"/>
<path fill="#808285" d="M145.115,33.584v-0.52c0-0.522-0.172-0.786-0.511-0.786c-0.345,0-0.515,0.263-0.515,0.786v0.523h1.025
	L145.115,33.584z"/>
<path fill="#808285" d="M140.798,32.277c-0.168,0-0.34,0.082-0.511,0.25v3.45c0.17,0.171,0.343,0.252,0.511,0.252
	c0.295,0,0.446-0.252,0.446-0.763v-2.415C141.244,32.542,141.093,32.277,140.798,32.277z"/>
<path fill="#808285" d="M147.108,29.404c-0.206-0.902-0.945-1.569-1.834-1.668c-2.105-0.235-4.235-0.235-6.356-0.235
	s-4.252,0-6.356,0.235c-0.889,0.099-1.627,0.766-1.834,1.668c-0.297,1.286-0.299,2.69-0.299,4.013s0,2.729,0.296,4.013
	c0.206,0.902,0.944,1.569,1.834,1.669c2.105,0.235,4.235,0.237,6.356,0.235c2.12,0,4.251,0,6.356-0.235
	c0.889-0.099,1.627-0.767,1.835-1.669c0.297-1.284,0.298-2.69,0.298-4.013l0.014-0.003
	C147.418,32.084,147.418,30.684,147.108,29.404z M135.274,30.556h-1.229v6.528h-1.141v-6.528h-1.207v-1.068h3.577V30.556
	L135.274,30.556z M138.373,37.087h-1.029V36.47c-0.406,0.468-0.793,0.696-1.171,0.696c-0.332,0-0.559-0.134-0.661-0.419
	c-0.056-0.172-0.09-0.442-0.09-0.843v-4.477h1.025v4.17c0,0.239,0,0.365,0.01,0.398c0.025,0.16,0.104,0.238,0.24,0.238
	c0.206,0,0.421-0.16,0.648-0.481v-4.326h1.028V37.087L138.373,37.087z M142.264,35.386l-0.004-0.007c0,0.52-0.03,0.9-0.1,1.15
	c-0.137,0.418-0.411,0.635-0.82,0.635c-0.365,0-0.717-0.203-1.06-0.627v0.551h-1.026v-7.599h1.026v2.479
	c0.331-0.408,0.683-0.614,1.06-0.614c0.408,0,0.683,0.215,0.82,0.638c0.069,0.228,0.104,0.603,0.104,1.139V35.386z M146.123,35.939
	c-0.034,0.227-0.113,0.433-0.238,0.615c-0.284,0.411-0.704,0.614-1.241,0.614s-0.945-0.194-1.242-0.582
	c-0.217-0.281-0.329-0.729-0.329-1.329v-1.984c0-0.605,0.098-1.047,0.316-1.333c0.296-0.388,0.706-0.581,1.229-0.581
	c0.514,0,0.922,0.193,1.21,0.581c0.214,0.285,0.317,0.728,0.317,1.333v1.173h-2.051v1.003c0,0.524,0.171,0.785,0.523,0.785
	c0.252,0,0.399-0.14,0.458-0.414c0.01-0.056,0.022-0.28,0.022-0.694h1.047v0.15l0.009,0.003
	C146.153,35.609,146.133,35.839,146.123,35.939z"/>
<polygon fill="#FFFFFF" points="199.337,22.427 197.23,24.505 201.529,28.924 197.23,33.348 199.337,35.426 205.699,28.931 
	205.684,28.923 205.699,28.921 "/>
</svg>
