<?xml version="1.0" encoding="utf-8"?>
<!-- Generator: Adobe Illustrator 16.0.0, SVG Export Plug-In . SVG Version: 6.00 Build 0)  -->
<!DOCTYPE svg PUBLIC "-//W3C//DTD SVG 1.1//EN" "http://www.w3.org/Graphics/SVG/1.1/DTD/svg11.dtd">
<svg version="1.1" id="Layer_1" xmlns="http://www.w3.org/2000/svg" xmlns:xlink="http://www.w3.org/1999/xlink" x="0px" y="0px"
	 width="92.634px" height="123.824px" viewBox="43.975 0 92.634 123.824" enable-background="new 43.975 0 92.634 123.824"
	 xml:space="preserve">
<path fill="#FFFFFF" d="M106.934,96.95h1.738v1.242c0,1.149,0.938,2.086,2.088,2.086h2.981c1.149,0,2.088-0.936,2.088-2.086v-9.639
	c0-1.15-0.939-2.088-2.088-2.088h-2.981c-1.149,0-2.088,0.938-2.088,2.088v1.241h-1.738v-9.918
	c13.606-5.199,23.301-18.382,23.301-33.794c0-19.943-16.226-36.168-36.169-36.168c-19.944,0-36.169,16.225-36.169,36.168
	c0,15.411,9.693,28.594,23.299,33.793V109.1H59.451v7.988h69.229v-7.989h-21.746V96.95z"/>
<g>
	<path fill="#33006F" d="M113.742,100.278h-2.981c-1.149,0-2.088-0.937-2.088-2.086v-9.639c0-1.15,0.938-2.088,2.088-2.088h2.981
		c1.148,0,2.088,0.938,2.088,2.088v9.639C115.83,99.343,114.891,100.278,113.742,100.278 M110.76,87.798
		c-0.417,0-0.756,0.339-0.756,0.757v9.638c0,0.418,0.339,0.756,0.756,0.756h2.981c0.417,0,0.756-0.338,0.756-0.756v-9.638
		c0-0.418-0.339-0.757-0.756-0.757H110.76z"/>
	<path fill="#33006F" d="M128.68,117.088H59.451V109.1h21.745V70.271h25.738v19.524h2.554v7.155h-2.554v12.148h21.746V117.088z
		 M60.782,115.756h66.565v-5.324h-21.744V95.62h2.553v-4.494h-2.553V71.601H82.528v38.831H60.782V115.756z"/>
	<path fill="#FFFFFF" d="M129.569,46.083c0,19.607-15.896,35.502-35.502,35.502c-19.608,0-35.503-15.895-35.503-35.502
		s15.894-35.502,35.503-35.502C113.673,10.581,129.569,26.476,129.569,46.083"/>
	<path fill="#33006F" d="M94.066,82.251c-19.943,0-36.169-16.225-36.169-36.168S74.122,9.915,94.066,9.915
		c19.943,0,36.169,16.225,36.169,36.168S114.009,82.251,94.066,82.251 M94.066,11.246c-19.21,0-34.838,15.628-34.838,34.837
		S74.856,80.92,94.066,80.92c19.209,0,34.837-15.628,34.837-34.837S113.275,11.246,94.066,11.246"/>
	<path fill="#33006F" d="M102.219,46.083c0,4.504-3.649,8.154-8.152,8.154c-4.505,0-8.155-3.65-8.155-8.154
		c0-4.504,3.65-8.154,8.155-8.154C98.57,37.929,102.219,41.579,102.219,46.083"/>
	<path fill="#33006F" d="M94.066,54.904c-4.863,0-8.82-3.957-8.82-8.82c0-4.864,3.957-8.819,8.82-8.819
		c4.862,0,8.819,3.955,8.819,8.819C102.885,50.946,98.928,54.904,94.066,54.904 M94.066,38.594c-4.13,0-7.489,3.359-7.489,7.489
		c0,4.129,3.359,7.488,7.489,7.488s7.488-3.359,7.488-7.488C101.554,41.953,98.196,38.594,94.066,38.594"/>
	<path fill="#FFFFFF" d="M99.364,51.888c-0.516,0.765-1.482,1.012-2.163,0.554c-0.679-0.459-0.812-1.449-0.297-2.213
		c0.516-0.764,1.482-1.011,2.162-0.553S99.879,51.124,99.364,51.888"/>
	<path fill="#33006F" d="M96.747,59.508c0,1.286-1.043,2.329-2.33,2.329s-2.33-1.043-2.33-2.329c0-1.287,1.043-2.33,2.33-2.33
		S96.747,58.221,96.747,59.508"/>
	<path fill="#33006F" d="M94.417,62.502c-1.652,0-2.995-1.343-2.995-2.995c0-1.651,1.343-2.994,2.995-2.994s2.995,1.343,2.995,2.994
		C97.412,61.159,96.07,62.502,94.417,62.502 M94.417,57.843c-0.917,0-1.664,0.746-1.664,1.664s0.747,1.665,1.664,1.665
		s1.664-0.747,1.664-1.665S95.334,57.843,94.417,57.843"/>
</g>
</svg>
