<?xml version="1.0" encoding="utf-8"?>
<!-- Generator: Adobe Illustrator 16.0.0, SVG Export Plug-In . SVG Version: 6.00 Build 0)  -->
<!DOCTYPE svg PUBLIC "-//W3C//DTD SVG 1.1//EN" "http://www.w3.org/Graphics/SVG/1.1/DTD/svg11.dtd">
<svg version="1.1" id="Isolation_Mode" xmlns="http://www.w3.org/2000/svg" xmlns:xlink="http://www.w3.org/1999/xlink" x="0px"
	 y="0px" width="547.333px" height="342.667px" viewBox="0 0 547.333 342.667" enable-background="new 0 0 547.333 342.667"
	 xml:space="preserve">
<path fill="#33006F" d="M314.234,283.294l-6.001-12.251c-0.129-0.264-0.398-0.432-0.692-0.432h-7.858
	c-0.294,0-0.562,0.168-0.691,0.432l-6.065,12.383c-0.117,0.238-0.103,0.521,0.038,0.747c0.142,0.227,0.388,0.363,0.654,0.363h9.223
	v2.442c0,0.015,0.007,0.026,0.008,0.041h-2.508c-0.426,0-0.771,0.346-0.771,0.771v11.243h-1.933c-0.426,0-0.771,0.346-0.771,0.772
	c0,0.426,0.345,0.771,0.771,0.771h12.453c0.426,0,0.772-0.346,0.772-0.771c0-0.427-0.347-0.772-0.772-0.772h-2.304v-11.243
	c0-0.426-0.345-0.771-0.771-0.771h-2.64c0.001-0.015,0.008-0.026,0.008-0.041v-2.442h9.223h0.017c0.427,0,0.771-0.345,0.771-0.771
	C314.394,283.587,314.334,283.425,314.234,283.294 M306.244,299.035h-5.132v-10.472h5.132V299.035z M294.855,282.994l5.31-10.839
	h6.894l5.311,10.839H294.855z"/>
<path fill="#33006F" d="M448.037,291.193l8.175-8.174c0.351-0.352,0.351-0.922,0-1.274c-0.353-0.351-0.922-0.351-1.273,0
	l-6.935,6.936v-8.282c0.07-0.037,0.142-0.071,0.202-0.128l7.984-7.498c0.363-0.341,0.38-0.91,0.041-1.272
	c-0.341-0.362-0.911-0.38-1.273-0.04l-6.954,6.53v-10.4c0-0.497-0.402-0.9-0.899-0.9s-0.9,0.403-0.9,0.9v6.106l-6.697-6.29
	c-0.362-0.34-0.933-0.322-1.273,0.04c-0.339,0.362-0.322,0.932,0.041,1.272l7.93,7.448v8.205l-6.678-6.679
	c-0.352-0.352-0.921-0.352-1.272,0s-0.352,0.922,0,1.273l7.95,7.951v27.534c-3.443,0.351-6.139,3.268-6.139,6.802
	c0,0.497,0.402,0.9,0.899,0.9h11.873c0.498,0,0.899-0.403,0.899-0.9c0-3.394-2.488-6.209-5.733-6.739v-23.299
	C448.015,291.207,448.027,291.203,448.037,291.193 M451.857,320.353h-9.912c0.426-2.349,2.486-4.136,4.956-4.136
	S451.432,318.004,451.857,320.353"/>
<path fill="#33006F" d="M316.666,300.516h-25.154c-0.497,0-0.9,0.403-0.9,0.901v17.379c0,0.498,0.403,0.9,0.9,0.9h2.301v1.521
	c0,0.497,0.403,0.901,0.9,0.901s0.899-0.404,0.899-0.901v-1.521h16.868v1.521c0,0.497,0.403,0.901,0.9,0.901
	s0.899-0.404,0.899-0.901v-1.521h2.386c0.497,0,0.899-0.402,0.899-0.9v-17.379C317.565,300.919,317.163,300.516,316.666,300.516
	 M315.766,302.317v6.938c-0.005,0-0.009-0.003-0.014-0.003h-23.34v-6.935H315.766z M292.412,317.896v-6.844h23.34
	c0.005,0,0.009-0.003,0.014-0.003v6.847H292.412z"/>
<path fill="#33006F" d="M301.345,306.708h5.26c0.497,0,0.9-0.402,0.9-0.899c0-0.498-0.403-0.901-0.9-0.901h-5.26
	c-0.497,0-0.9,0.403-0.9,0.901C300.444,306.305,300.848,306.708,301.345,306.708"/>
<path fill="#33006F" d="M306.604,313.551h-5.26c-0.497,0-0.9,0.403-0.9,0.9s0.403,0.9,0.9,0.9h5.26c0.497,0,0.9-0.403,0.9-0.9
	S307.102,313.551,306.604,313.551"/>
<path fill="#33006F" d="M397.246,249.134h13.581c0.497,0,0.899-0.402,0.899-0.899v-11.389c0-0.497-0.402-0.899-0.899-0.899h-13.581
	c-0.497,0-0.9,0.402-0.9,0.899v11.389C396.346,248.732,396.749,249.134,397.246,249.134 M398.146,237.748h11.781v9.587h-11.781
	V237.748z"/>
<path fill="#33006F" d="M392.383,240.14H382.25c-0.497,0-0.9,0.404-0.9,0.901v7.469c0,0.498,0.403,0.901,0.9,0.901h10.133
	c0.497,0,0.9-0.403,0.9-0.901v-7.469C393.283,240.544,392.88,240.14,392.383,240.14 M391.483,247.611h-8.333v-5.669h8.333V247.611z"
	/>
<path fill="#33006F" d="M420.406,249.612h-5.015v-15.881c0-0.497-0.402-0.9-0.899-0.9h-21.13c-0.497,0-0.9,0.403-0.9,0.9v3.966
	h-12.562c-0.497,0-0.9,0.402-0.9,0.899v11.016h-4.924c-0.497,0-0.9,0.402-0.9,0.899v2.821c0,0.497,0.403,0.9,0.9,0.9h46.331
	c0.497,0,0.899-0.403,0.899-0.9v-2.821C421.306,250.014,420.903,249.612,420.406,249.612 M394.262,234.631h19.33v14.926h-17.958
	v-10.961c0-0.497-0.402-0.899-0.899-0.899h-0.473V234.631z M380.799,239.498h13.035v10.057h-13.035V239.498z M419.506,252.431
	h-44.532v-1.02h44.532V252.431z"/>
<path fill="#33006F" d="M388.648,271.835h7.104c0.497,0,0.9-0.404,0.9-0.901v-9.715c0-0.497-0.403-0.899-0.9-0.899h-7.104
	c-0.497,0-0.9,0.402-0.9,0.899v9.715C387.748,271.431,388.151,271.835,388.648,271.835 M389.548,262.121h5.304v7.914h-5.304V262.121
	z"/>
<path fill="#33006F" d="M416.646,272.019h-8.188v-6.934c0-0.497-0.403-0.901-0.9-0.901h-8.502v-5.681c0-0.497-0.403-0.901-0.9-0.901
	h-12.117c-0.497,0-0.9,0.404-0.9,0.901v5.681h-9.025c-0.497,0-0.899,0.404-0.899,0.901v6.934h-0.395v-15.396
	c0-0.497-0.401-0.901-0.899-0.901h-19.157v-12.158c0-0.496-0.403-0.899-0.9-0.899h-23.506c-0.497,0-0.898,0.403-0.898,0.899v28.455
	h-5.16c-0.497,0-0.899,0.404-0.899,0.901v3.76c0,0.498,0.402,0.901,0.899,0.901h92.35c0.497,0,0.9-0.403,0.9-0.901v-3.76
	C417.546,272.423,417.143,272.019,416.646,272.019 M406.656,271.707h-7.915v-5.356c0.113-0.099,0.199-0.221,0.252-0.364h7.663
	V271.707z M377.012,265.986h8.752v5.721h-8.752V265.986z M386.937,264.241v-4.837h10.318v5.011
	c-0.188,0.165-0.313,0.399-0.313,0.671v6.934h-9.378v-6.934C387.563,264.685,387.298,264.357,386.937,264.241 M373.018,271.916
	h-2.737c0.272-0.155,0.464-0.437,0.464-0.772v-11.177c0-0.497-0.403-0.901-0.9-0.901h-13.371c-0.497,0-0.9,0.404-0.9,0.901v11.177
	c0,0.336,0.191,0.617,0.464,0.772h-2.217v-14.342c0.016,0,0.026,0.008,0.041,0.008c0.102,0,0.194-0.027,0.285-0.059h18.872V271.916z
	 M357.373,260.867h11.571v9.377h-11.571V260.867z M331.255,244.465h21.706v11.257h-0.041c-0.497,0-0.9,0.404-0.9,0.901v15.396
	h-20.765V244.465z M415.746,275.781h-90.551v-1.96h5.159h23.506h61.886V275.781z"/>
<path fill="#33006F" d="M349.924,246.216h-15.774c-0.497,0-0.9,0.403-0.9,0.9v22.772c0,0.497,0.403,0.901,0.9,0.901h15.774
	c0.496,0,0.899-0.404,0.899-0.901v-22.772C350.823,246.62,350.42,246.216,349.924,246.216 M349.024,268.99h-13.976v-20.974h13.976
	V268.99z"/>
<path fill="#33006F" d="M340.402,258.995c0.165,0.131,0.361,0.193,0.558,0.193c0.265,0,0.528-0.116,0.706-0.341l6.484-8.198
	c0.308-0.389,0.241-0.956-0.148-1.264c-0.389-0.309-0.955-0.243-1.264,0.147l-6.484,8.196
	C339.946,258.12,340.012,258.685,340.402,258.995"/>
<path fill="#33006F" d="M345.699,255.416l-3.354,4.173c-0.31,0.387-0.249,0.954,0.138,1.264c0.167,0.134,0.366,0.2,0.564,0.2
	c0.263,0,0.524-0.116,0.702-0.337l3.353-4.173c0.312-0.388,0.25-0.954-0.137-1.266C346.576,254.965,346.011,255.026,345.699,255.416
	"/>
<path fill="#33006F" d="M341.077,261.005l-0.596,0.745c-0.312,0.389-0.248,0.954,0.14,1.266c0.166,0.133,0.365,0.197,0.562,0.197
	c0.264,0,0.524-0.116,0.703-0.338l0.596-0.745c0.311-0.39,0.248-0.955-0.14-1.267C341.955,260.555,341.389,260.618,341.077,261.005"
	/>
<path fill="#33006F" d="M336.265,260.233c0.258,0,0.513-0.11,0.691-0.323l5.633-6.745c0.318-0.382,0.267-0.95-0.115-1.268
	c-0.38-0.319-0.948-0.269-1.267,0.112l-5.632,6.745c-0.319,0.382-0.269,0.95,0.113,1.269
	C335.856,260.164,336.061,260.233,336.265,260.233"/>
<path fill="#33006F" d="M416.405,309.125c0.001-0.019,0.01-0.035,0.01-0.054v-9.359c0-2.267-1.517-4.165-3.592-4.791
	c-0.004-0.021,0.003-0.04-0.002-0.061c-0.996-4.314-4.788-7.328-9.222-7.328h-66.559c-4.44,0-8.278,3.13-9.233,7.394
	c-2.22,0.522-3.884,2.509-3.884,4.886v9.339c-0.006,0.044-0.024,0.082-0.024,0.127v8.89c0,0.497,0.401,0.9,0.899,0.9h1.125v1.885
	c0,0.497,0.403,0.899,0.9,0.899s0.899-0.402,0.899-0.899v-1.885h84.622v1.885c0,0.497,0.403,0.899,0.9,0.899
	s0.899-0.402,0.899-0.899v-1.885h1.39c0.497,0,0.899-0.403,0.899-0.9v-8.89C416.435,309.222,416.414,309.175,416.405,309.125
	 M383.941,305.885h22.397v2.49h-22.397V305.885z M334,305.885h20.859v2.49H334V305.885z M356.659,305.885h25.481v2.49h-25.481
	V305.885z M356.659,289.333h25.481v14.753h-25.481V289.333z M414.616,299.711v8.459h-6.478v-8.459c0-1.781,1.448-3.228,3.248-3.228
	C413.167,296.484,414.616,297.93,414.616,299.711 M410.919,294.728c-2.56,0.231-4.58,2.364-4.58,4.983v4.374h-22.397v-14.753H403.6
	C407.003,289.333,409.936,291.526,410.919,294.728 M337.041,289.333h17.819v14.753H334v-4.274c0-2.521-1.873-4.597-4.312-4.954
	C330.625,291.643,333.609,289.333,337.041,289.333 M325.724,299.811c0-1.779,1.448-3.228,3.248-3.228
	c1.78,0,3.229,1.448,3.229,3.228v8.458h-6.478V299.811z M414.635,317.265h-88.937v-7.089h88.937V317.265z"/>
<path fill="#33006F" d="M395.751,132.242c0-0.497-0.403-0.901-0.9-0.901h-14.852c-0.497,0-0.9,0.404-0.9,0.901
	c0,4.409,3.446,8.018,7.785,8.299c-0.242,2.539-2.362,4.539-4.963,4.539c-2.763,0-5.01-2.248-5.01-5.01v-20.048h5.18
	c0.498,0,0.9-0.403,0.9-0.9c0-0.498-0.402-0.901-0.9-0.901h-11.666c-0.497,0-0.9,0.403-0.9,0.901c0,0.497,0.403,0.9,0.9,0.9h4.673
	v20.048c0,2.762-2.247,5.01-5.01,5.01c-2.604,0-4.725-2.004-4.963-4.547c4.264-0.357,7.626-3.936,7.626-8.291
	c0-0.497-0.403-0.901-0.9-0.901h-14.852c-0.497,0-0.9,0.404-0.9,0.901c0,4.209,3.142,7.689,7.2,8.242
	c0.216,3.561,3.173,6.396,6.789,6.396c2.533,0,4.744-1.393,5.917-3.451c1.173,2.058,3.383,3.451,5.916,3.451
	c3.624,0,6.587-2.848,6.79-6.421C392.692,139.837,395.751,136.396,395.751,132.242 M357.961,133.143h12.928
	c-0.439,3.174-3.171,5.626-6.464,5.626S358.399,136.316,357.961,133.143 M387.425,138.769c-3.293,0-6.025-2.452-6.464-5.626h12.928
	C393.449,136.316,390.718,138.769,387.425,138.769"/>
<path fill="#33006F" d="M415.675,213.294h-64.609c-0.497,0-0.9-0.404-0.9-0.901v-16.23c0-0.497,0.403-0.9,0.9-0.9h64.609
	c0.497,0,0.9,0.403,0.9,0.9v16.23C416.575,212.89,416.172,213.294,415.675,213.294 M351.965,211.494h62.811v-14.431h-62.811V211.494
	z"/>
<path fill="#33006F" d="M411.35,197.063c-0.497,0-0.9-0.403-0.9-0.9v-12.076h-54.158v12.076c0,0.497-0.402,0.9-0.899,0.9
	c-0.498,0-0.9-0.403-0.9-0.9v-12.976c0-0.497,0.402-0.9,0.9-0.9h55.958c0.497,0,0.9,0.403,0.9,0.9v12.976
	C412.25,196.66,411.847,197.063,411.35,197.063"/>
<path fill="#33006F" d="M378.877,196.726h-16.768c-1.652,0-2.997-1.344-2.997-2.996s1.345-2.997,2.997-2.997h16.768
	c1.652,0,2.996,1.345,2.996,2.997S380.529,196.726,378.877,196.726 M362.109,192.534c-0.66,0-1.197,0.536-1.197,1.196
	c0,0.659,0.537,1.196,1.197,1.196h16.768c0.659,0,1.196-0.537,1.196-1.196c0-0.66-0.537-1.196-1.196-1.196H362.109z"/>
<path fill="#33006F" d="M404.158,196.726H387.39c-1.651,0-2.996-1.344-2.996-2.996s1.345-2.997,2.996-2.997h16.769
	c1.652,0,2.997,1.345,2.997,2.997S405.811,196.726,404.158,196.726 M387.39,192.534c-0.659,0-1.196,0.536-1.196,1.196
	c0,0.659,0.537,1.196,1.196,1.196h16.769c0.66,0,1.197-0.537,1.197-1.196c0-0.66-0.537-1.196-1.197-1.196H387.39z"/>
<path fill="#33006F" d="M358.681,207.591c-0.156,0-0.311-0.041-0.446-0.119l-7-4c-0.433-0.246-0.582-0.796-0.335-1.229
	c0.246-0.432,0.796-0.584,1.227-0.335l6.724,3.842l56.351-9.281c0.498-0.086,0.954,0.252,1.035,0.741
	c0.08,0.489-0.252,0.954-0.742,1.033l-56.666,9.335C358.778,207.587,358.729,207.591,358.681,207.591"/>
<path fill="#33006F" d="M451.996,191.227h-25.154c-0.497,0-0.9,0.403-0.9,0.899v17.381c0,0.497,0.403,0.9,0.9,0.9h2.301v1.521
	c0,0.497,0.403,0.9,0.9,0.9s0.899-0.403,0.899-0.9v-1.521h16.868v1.521c0,0.497,0.403,0.9,0.9,0.9s0.898-0.403,0.898-0.9v-1.521
	h2.387c0.497,0,0.899-0.403,0.899-0.9v-17.381C452.896,191.63,452.493,191.227,451.996,191.227 M451.096,193.028v6.938
	c-0.005,0-0.009-0.004-0.014-0.004h-23.34v-6.934H451.096z M427.742,208.607v-6.844h23.34c0.005,0,0.009-0.003,0.014-0.003v6.847
	H427.742z"/>
<path fill="#33006F" d="M436.675,197.418h5.26c0.497,0,0.9-0.403,0.9-0.9s-0.403-0.9-0.9-0.9h-5.26c-0.497,0-0.9,0.403-0.9,0.9
	S436.178,197.418,436.675,197.418"/>
<path fill="#33006F" d="M441.935,204.262h-5.26c-0.497,0-0.9,0.403-0.9,0.9s0.403,0.9,0.9,0.9h5.26c0.497,0,0.9-0.403,0.9-0.9
	S442.432,204.262,441.935,204.262"/>
<path fill="#33006F" d="M335.965,148.055l-11.866-3.23c-0.271-0.073-0.56-0.016-0.783,0.153c-0.223,0.17-0.354,0.435-0.354,0.715
	v2.467h-38.738c-0.498,0-0.899,0.403-0.899,0.901v59.988c0,0.497,0.401,0.9,0.899,0.9h3.058v2.042c0,0.497,0.402,0.899,0.899,0.899
	s0.9-0.402,0.9-0.899v-2.042h33.881v2.675c0,0.28,0.131,0.545,0.354,0.715c0.158,0.121,0.352,0.185,0.547,0.185
	c0.078,0,0.158-0.01,0.236-0.031l6.82-1.856v0.602c0,0.497,0.403,0.9,0.9,0.9c0.496,0,0.899-0.403,0.899-0.9v-1.092l3.246-0.883
	c0.392-0.106,0.664-0.462,0.664-0.869v-60.471C336.629,148.517,336.356,148.162,335.965,148.055 M322.962,164.198h-11.594v-2.365
	h11.594V164.198z M320.11,169.741v20.893h-0.779v-20.893c0-0.162,0.115-0.294,0.304-0.335c0.03,0.002,0.055,0.017,0.086,0.017
	c0.037,0,0.069-0.017,0.106-0.022C319.987,169.437,320.11,169.571,320.11,169.741 M314.778,169.846v20.893h-0.779v-20.893
	c0-0.163,0.115-0.294,0.304-0.336c0.029,0.003,0.056,0.017,0.086,0.017c0.038,0,0.07-0.017,0.106-0.021
	C314.655,169.541,314.778,169.676,314.778,169.846 M319.942,197.026h-8.573v-1.24h8.573V197.026z M311.369,198.827h8.573v1.406
	h-8.573V198.827z M320.842,193.985h-9.473V166h2.12v1.876c-0.759,0.334-1.29,1.09-1.29,1.971v21.793c0,0.497,0.402,0.9,0.899,0.9
	h2.579c0.497,0,0.9-0.403,0.9-0.9v-21.793c0-0.869-0.521-1.615-1.289-1.956V166h3.532v1.771c-0.759,0.335-1.29,1.091-1.29,1.971
	v21.793c0,0.497,0.402,0.9,0.899,0.9h2.579c0.497,0,0.9-0.403,0.9-0.9v-21.793c0-0.869-0.521-1.615-1.289-1.956V166h2.341v34.233
	h-1.22v-5.348C321.742,194.388,321.339,193.985,320.842,193.985 M322.962,154.2h-4.37c-0.497,0-0.899,0.403-0.899,0.901
	c0,0.497,0.402,0.9,0.899,0.9h4.37v4.031h-11.593v-10.071h11.593V154.2z M285.123,149.961h24.445v58.188h-24.445V149.961z
	 M311.369,202.035h11.594v6.113h-11.594V202.035z M334.829,208.708l-10.067,2.739v-64.575l10.067,2.739V208.708z"/>
<path fill="#33006F" d="M327.652,183.913c0.497,0,0.9-0.403,0.9-0.9v-8.54c0-0.498-0.403-0.901-0.9-0.901s-0.899,0.403-0.899,0.901
	v8.54C326.753,183.509,327.155,183.913,327.652,183.913"/>
<path fill="#33006F" d="M305.678,173.572c-0.497,0-0.9,0.403-0.9,0.9v8.541c0,0.497,0.403,0.9,0.9,0.9s0.899-0.403,0.899-0.9v-8.541
	C306.577,173.975,306.175,173.572,305.678,173.572"/>
<path fill="#33006F" d="M441.878,176.314c-1.652-1.349-4.094-1.102-5.443,0.551c-0.06,0.073-0.094,0.158-0.127,0.241
	c-0.226-0.022-0.454-0.035-0.686-0.035c-0.308,0-0.606,0.028-0.902,0.068c-1.255-1.628-3.583-2.005-5.282-0.81
	c-1.744,1.228-2.163,3.646-0.935,5.39c0.156,0.222,0.397,0.335,0.649,0.361c-0.141,0.538-0.223,1.101-0.223,1.683
	c0,2.11,0.983,3.992,2.513,5.22l-0.798,1.296c-0.26,0.423-0.129,0.979,0.295,1.238c0.147,0.091,0.311,0.134,0.471,0.134
	c0.303,0,0.598-0.151,0.768-0.429l0.806-1.309c0.811,0.349,1.701,0.544,2.639,0.544c1.272,0,2.461-0.364,3.475-0.984l0.923,1.499
	c0.17,0.277,0.465,0.429,0.768,0.429c0.161,0,0.323-0.043,0.471-0.134c0.423-0.26,0.555-0.815,0.295-1.238l-1-1.625
	c-0.016-0.025-0.042-0.041-0.06-0.064c1.126-1.198,1.82-2.806,1.82-4.576c0-0.606-0.088-1.191-0.239-1.75
	c0.134-0.055,0.257-0.136,0.354-0.255C443.776,180.105,443.53,177.664,441.878,176.314 M430.474,177.801
	c0.695-0.491,1.589-0.49,2.272-0.072c-1.224,0.586-2.24,1.528-2.916,2.696C429.371,179.525,429.624,178.399,430.474,177.801
	 M435.622,188.656c-2.698,0-4.894-2.193-4.894-4.893c0-2.697,2.195-4.891,4.894-4.891c2.697,0,4.892,2.193,4.892,4.891
	C440.514,186.462,438.319,188.656,435.622,188.656 M438.264,177.617c0.738-0.507,1.749-0.501,2.477,0.093
	c0.757,0.617,0.956,1.665,0.547,2.507C440.566,179.072,439.517,178.157,438.264,177.617"/>
<path fill="#33006F" d="M437.279,180.485l-1.868,1.868l-1.298-1.299c-0.351-0.351-0.921-0.351-1.272,0
	c-0.352,0.352-0.352,0.922,0,1.274l1.935,1.934c0.168,0.168,0.397,0.264,0.636,0.264c0.239,0,0.469-0.095,0.637-0.264l2.504-2.504
	c0.352-0.352,0.352-0.921,0-1.273C438.201,180.133,437.632,180.133,437.279,180.485"/>
<path fill="#33006F" d="M67.406,252.052v69.308c0,0.593,0.48,1.073,1.073,1.073h32.72c0.197,0,0.372-0.067,0.531-0.16h90.191
	c0.593,0,1.074-0.481,1.074-1.074V287.19c0-0.593-0.481-1.073-1.074-1.073h-29.048c0.274-0.195,0.464-0.499,0.464-0.861
	c0-0.593-0.48-1.074-1.073-1.074h-6.931c-0.593,0-1.073,0.481-1.073,1.074c0,0.362,0.19,0.666,0.465,0.861h-5.103
	c0.274-0.195,0.464-0.499,0.464-0.861c0-0.593-0.48-1.074-1.073-1.074h-6.93c-0.593,0-1.073,0.481-1.073,1.074
	c0,0.362,0.19,0.666,0.464,0.861h-39.202v-34.064c0-0.593-0.48-1.074-1.073-1.074h-32.72
	C67.886,250.978,67.406,251.459,67.406,252.052 M100.126,273.334H69.553v-20.208h30.573V273.334z M102.411,288.263h33.98v15.905
	h-33.98V288.263z M138.538,288.263h26.844v7.201h-26.844V288.263z M165.381,320.125h-26.844v-22.513h26.844V320.125z
	 M190.848,320.125h-23.32v-31.862h23.32V320.125z M102.411,306.316h33.98v13.809h-33.98V306.316z M69.552,275.482h30.573v44.804
	H69.552V275.482z"/>
<path fill="#33006F" d="M170.646,299.333c0.593,0,1.073,0.481,1.073,1.074v8.382c0,0.593-0.48,1.074-1.073,1.074
	c-0.593,0-1.073-0.481-1.073-1.074v-8.382C169.572,299.814,170.052,299.333,170.646,299.333"/>
<path fill="#33006F" d="M125.515,297.345h-11.121c-0.593,0-1.074-0.48-1.074-1.073c0-0.594,0.481-1.074,1.074-1.074h11.121
	c0.593,0,1.073,0.48,1.073,1.074C126.587,296.865,126.107,297.345,125.515,297.345"/>
<path fill="#33006F" d="M114.082,312h11.121c0.593,0,1.073,0.48,1.073,1.074c0,0.593-0.48,1.073-1.073,1.073h-11.121
	c-0.593,0-1.073-0.48-1.073-1.073C113.009,312.481,113.489,312,114.082,312"/>
<path fill="#33006F" d="M142.288,301.664v12.248c0,0.593,0.48,1.074,1.073,1.074h17.73c0.592,0,1.073-0.481,1.073-1.074v-12.248
	c0-0.593-0.481-1.074-1.073-1.074h-17.73C142.768,300.589,142.288,301.071,142.288,301.664 M144.434,302.737h15.583v10.101h-15.583
	V302.737z"/>
<path fill="#33006F" d="M94.834,269.829c-0.593,0-1.073-0.481-1.073-1.074v-8.864c0-0.593,0.48-1.073,1.073-1.073
	c0.593,0,1.073,0.48,1.073,1.073v8.864C95.907,269.347,95.427,269.829,94.834,269.829"/>
<path fill="#33006F" d="M95.318,280.081c0.593,0,1.073,0.481,1.073,1.074v8.865c0,0.593-0.48,1.074-1.073,1.074
	c-0.593,0-1.073-0.481-1.073-1.074v-8.865C94.245,280.562,94.725,280.081,95.318,280.081"/>
<path fill="#33006F" d="M220.931,248.533c-0.13-0.48-0.624-0.77-1.103-0.635l-6.153,1.656v-6.731c0-0.497-0.403-0.9-0.9-0.9
	c-0.497,0-0.9,0.403-0.9,0.9v7.216l-2.018,0.544c-0.48,0.129-0.764,0.623-0.635,1.103c0.108,0.402,0.472,0.666,0.869,0.666
	c0.077,0,0.156-0.01,0.234-0.03l1.55-0.417v1.273c0,0.497,0.403,0.9,0.9,0.9c0.497,0,0.9-0.403,0.9-0.9v-1.759l6.621-1.782
	C220.776,249.507,221.06,249.012,220.931,248.533"/>
<path fill="#33006F" d="M212.967,239.304c-6.296,0-11.417,5.104-11.417,11.38c0,6.274,5.121,11.381,11.417,11.381
	s11.417-5.106,11.417-11.381C224.384,244.409,219.263,239.304,212.967,239.304 M212.967,260.264c-5.303,0-9.618-4.298-9.618-9.58
	s4.315-9.579,9.618-9.579c5.303,0,9.618,4.297,9.618,9.579S218.27,260.264,212.967,260.264"/>
<path fill="#33006F" d="M212.967,236.831c-7.639,0-13.853,6.215-13.853,13.853c0,7.641,6.214,13.855,13.853,13.855
	c7.639,0,13.853-6.215,13.853-13.855C226.82,243.045,220.606,236.831,212.967,236.831 M212.967,262.738
	c-6.646,0-12.053-5.407-12.053-12.055c0-6.646,5.407-12.052,12.053-12.052s12.053,5.406,12.053,12.052
	C225.02,257.331,219.613,262.738,212.967,262.738"/>
<path fill="#33006F" d="M177.085,321.035c-0.141,0.478,0.131,0.979,0.607,1.119c0.086,0.026,0.172,0.037,0.257,0.037
	c0.388,0,0.746-0.253,0.862-0.645c0.027-0.09,2.67-9.021,3.659-13.306c0.14-0.61,0.284-1.351,0.403-2.188h17.035v15.237
	c0,0.497,0.403,0.9,0.9,0.9s0.9-0.403,0.9-0.9v-19.216c0-0.497-0.403-0.9-0.9-0.9h-17.687c-0.099-2.452-0.554-5.215-1.687-8.048
	c-1.917-4.793-2.583-11.934-2.589-12.005c-0.045-0.495-0.475-0.859-0.979-0.814c-0.495,0.045-0.859,0.482-0.814,0.977
	c0.027,0.304,0.697,7.479,2.711,12.511c2.313,5.783,1.59,11.28,0.953,14.042C179.739,312.067,177.112,320.946,177.085,321.035
	 M183.067,304.251c0.031-0.412,0.055-0.835,0.068-1.275h16.773v1.275H183.067z"/>
<path fill="#33006F" d="M252.24,307.836c-0.637-2.762-1.36-8.259,0.953-14.042c2.014-5.032,2.684-12.207,2.711-12.511
	c0.045-0.494-0.319-0.932-0.814-0.977c-0.504-0.045-0.934,0.319-0.979,0.814c-0.006,0.071-0.672,7.212-2.589,12.005
	c-1.133,2.833-1.588,5.596-1.687,8.048h-17.687c-0.497,0-0.9,0.403-0.9,0.9v19.216c0,0.497,0.403,0.9,0.9,0.9s0.9-0.403,0.9-0.9
	v-15.237h17.035c0.119,0.837,0.263,1.577,0.403,2.188c0.989,4.284,3.632,13.216,3.659,13.306c0.116,0.392,0.474,0.645,0.862,0.645
	c0.085,0,0.171-0.011,0.257-0.037c0.476-0.141,0.748-0.642,0.607-1.119C255.844,320.946,253.217,312.067,252.24,307.836
	 M233.048,304.251v-1.275h16.773c0.013,0.44,0.037,0.863,0.068,1.275H233.048z"/>
<path fill="#33006F" d="M192.118,291.927v3.295c0,0.497,0.403,0.901,0.9,0.901h11.33l12.291,12.291l-12.542,12.543
	c-0.352,0.351-0.352,0.921,0,1.273c0.175,0.176,0.405,0.264,0.636,0.264c0.23,0,0.46-0.088,0.636-0.264l12.543-12.543l12.543,12.543
	c0.176,0.176,0.406,0.264,0.636,0.264c0.231,0,0.461-0.088,0.637-0.264c0.351-0.353,0.351-0.923,0-1.273l-12.543-12.543
	l12.292-12.291h12.061c0.497,0,0.9-0.404,0.9-0.901v-3.295c0-0.497-0.403-0.899-0.9-0.899h-50.52
	C192.521,291.028,192.118,291.43,192.118,291.927 M206.894,296.124h22.037l-11.019,11.018L206.894,296.124z M193.918,292.829h48.72
	v1.494h-48.72V292.829z"/>
<path fill="#33006F" d="M203.445,279.796c0,1.51,0.801,2.743,2.025,4.456c1.164,1.629,2.443,2.567,2.497,2.608
	c0.086,0.062,0.179,0.103,0.276,0.131l-0.399,3.084c-0.033,0.095-0.051,0.196-0.051,0.301c0,0.497,0.403,0.9,0.9,0.9
	c0.006,0,0.013,0,0.02,0h9.367c0.259,0,0.505-0.111,0.676-0.306c0.171-0.194,0.25-0.452,0.217-0.71l-0.427-3.303
	c0.006-0.012,0.016-0.021,0.022-0.034c0.713-1.546,1.655-3.32,2.746-5.376c0.6-1.133,1.239-2.335,1.895-3.605
	c0.097-0.188,0.107-0.39,0.071-0.58c0.004-0.036,0.021-0.068,0.021-0.105c0-0.497-0.403-0.899-0.9-0.899h-2.288
	c-0.239,0-0.468,0.094-0.636,0.263l-2.008,2.008l-0.262-2.023c-0.058-0.45-0.44-0.786-0.892-0.786h-2.019v-1.889
	c0-0.497-0.403-0.901-0.9-0.901s-0.9,0.404-0.9,0.901v1.889h-2.018c-0.453,0-0.835,0.336-0.893,0.786l-0.136,1.056
	c-0.736-0.555-1.65-1.058-2.81-1.058C204.877,276.603,203.445,278.036,203.445,279.796 M217.76,280.883l2.726-2.726h0.58
	c-0.461,0.881-0.913,1.738-1.342,2.547c-0.577,1.087-1.11,2.092-1.594,3.035L217.76,280.883z M209.737,289.477l1.532-11.857h4.255
	l1.532,11.857H209.737z M205.245,279.796c0-0.769,0.625-1.394,1.394-1.394c0.903,0,1.591,0.541,2.466,1.307
	c0.022,0.02,0.05,0.025,0.073,0.042l-0.673,5.213c-0.412-0.373-1.006-0.969-1.571-1.759
	C205.883,281.734,205.245,280.771,205.245,279.796"/>
<path fill="#33006F" d="M222.806,284.365c0-0.498,0.403-0.901,0.9-0.901h9.865c0.498,0,0.9,0.403,0.9,0.901
	c0,3.688-2.616,6.689-5.833,6.689C225.422,291.054,222.806,288.052,222.806,284.365 M224.674,285.264
	c0.35,2.269,1.994,3.989,3.964,3.989c1.971,0,3.616-1.721,3.965-3.989H224.674z"/>
<path fill="#33006F" d="M217.426,178.757c0.098,0,0.187-0.026,0.275-0.056H234.3c1.106,0,2.005-0.899,2.005-2.005
	s-0.899-2.004-2.005-2.004c-0.058,0-0.11,0.021-0.165,0.033c-0.056-0.012-0.107-0.033-0.166-0.033h-16.797
	c-0.113,0-0.205-0.092-0.205-0.206c0-0.112,0.092-0.204,0.205-0.204h17.405c0.497,0,0.9-0.403,0.9-0.9s-0.403-0.9-0.9-0.9h-17.405
	c-1.105,0-2.005,0.899-2.005,2.004c0,1.105,0.9,2.006,2.005,2.006h16.797c0.059,0,0.11-0.021,0.166-0.033
	c0.055,0.012,0.107,0.033,0.165,0.033c0.113,0,0.205,0.092,0.205,0.204c0,0.113-0.092,0.205-0.205,0.205h-16.631
	c-0.109,0-0.211,0.025-0.308,0.062c-1.075,0.035-1.94,0.915-1.94,1.998c0,1.106,0.899,2.006,2.005,2.006h17.283
	c0.497,0,0.9-0.402,0.9-0.899c0-0.498-0.403-0.901-0.9-0.901h-17.283c-0.113,0-0.205-0.092-0.205-0.205
	C217.221,178.85,217.313,178.757,217.426,178.757"/>
<path fill="#33006F" d="M210.213,173.073h-3.218v-7.236c0-3.162-2.577-5.735-5.744-5.735s-5.744,2.573-5.744,5.735
	c0,0.497,0.403,0.9,0.9,0.9c0.497,0,0.9-0.403,0.9-0.9c0-2.17,1.769-3.934,3.944-3.934s3.944,1.764,3.944,3.934v5.827l-1.488-1.218
	c-0.384-0.314-0.952-0.258-1.266,0.127c-0.315,0.384-0.258,0.952,0.127,1.266l1.507,1.234h-16.974c-0.498,0-0.9,0.403-0.9,0.9v2.118
	c0,2.841,2.31,5.15,5.15,5.15h14.612c2.84,0,5.15-2.31,5.15-5.15v-2.118C211.113,173.476,210.71,173.073,210.213,173.073
	 M209.313,176.09c0,1.849-1.503,3.351-3.35,3.351h-14.612c-1.848,0-3.35-1.502-3.35-3.351v-1.218h21.312V176.09z"/>
<path fill="#33006F" d="M238.278,180.148h-56.602c-0.497,0-0.9,0.402-0.9,0.899v4.01c0,0.497,0.403,0.9,0.9,0.9h0.704v21.037
	c-0.021,0.075-0.047,0.148-0.047,0.231v4.481c0,0.498,0.403,0.901,0.9,0.901c0.497,0,0.9-0.403,0.9-0.901v-2.26h51.547v2.26
	c0,0.498,0.403,0.901,0.9,0.901s0.9-0.403,0.9-0.901v-3.161v-1.32v-21.269h0.798c0.497,0,0.9-0.403,0.9-0.9v-4.01
	C239.178,180.55,238.775,180.148,238.278,180.148 M182.576,181.949h54.802v2.209h-54.802V181.949z M235.68,207.226v0.421h-51.5
	v-21.689h51.5V207.226z"/>
<path fill="#33006F" d="M187.006,205.911h22.877c0.497,0,0.9-0.404,0.9-0.901v-15.802c0-0.497-0.403-0.9-0.9-0.9h-22.877
	c-0.497,0-0.9,0.403-0.9,0.9v15.802C186.106,205.506,186.509,205.911,187.006,205.911 M187.906,198.126h21.077v5.982h-21.077
	V198.126z M208.983,196.327h-21.077v-6.218h21.077V196.327z"/>
<path fill="#33006F" d="M213.939,205.911h19.104c0.496,0,0.899-0.404,0.899-0.901v-15.802c0-0.497-0.403-0.9-0.899-0.9h-19.104
	c-0.497,0-0.9,0.403-0.9,0.9v15.802C213.039,205.506,213.442,205.911,213.939,205.911 M214.839,190.109h17.303v14.001h-17.303
	V190.109z"/>
<path fill="#33006F" d="M216.534,193.496c-0.497,0-0.9,0.403-0.9,0.9v4.482c0,0.497,0.403,0.899,0.9,0.899s0.9-0.402,0.9-0.899
	v-4.482C217.434,193.899,217.031,193.496,216.534,193.496"/>
<path fill="#33006F" d="M193.711,192.656h9.466c0.498,0,0.9-0.402,0.9-0.899s-0.402-0.901-0.9-0.901h-9.466
	c-0.497,0-0.9,0.404-0.9,0.901S193.214,192.656,193.711,192.656"/>
<path fill="#33006F" d="M203.178,198.81h-9.466c-0.497,0-0.9,0.403-0.9,0.9c0,0.498,0.403,0.901,0.9,0.901h9.466
	c0.497,0,0.9-0.403,0.9-0.901C204.078,199.213,203.675,198.81,203.178,198.81"/>
<path fill="#33006F" d="M104.647,193.57v-0.372c0-0.497-0.403-0.9-0.9-0.9h-2.553c1.41-1.128,2.316-2.859,2.316-4.801v-11.24
	c0-0.498-0.403-0.901-0.9-0.901h-8.129v-1.947c0-0.497-0.402-0.901-0.899-0.901c-0.498,0-0.9,0.404-0.9,0.901v1.947h-8.129
	c-0.497,0-0.9,0.403-0.9,0.901v11.24c0,1.941,0.906,3.673,2.316,4.801h-2.553c-0.497,0-0.9,0.403-0.9,0.9v0.372
	c0,2.961,1.952,5.473,4.637,6.321l-3.34,11.575c-0.078,0.271-0.024,0.564,0.146,0.79c0.17,0.226,0.436,0.359,0.719,0.359h17.807
	h0.02c0.497,0,0.9-0.402,0.9-0.9c0-0.152-0.038-0.298-0.105-0.423l-3.29-11.401C102.695,199.043,104.647,196.531,104.647,193.57
	 M85.453,187.497v-10.341h16.257v10.341c0,2.398-1.951,4.35-4.35,4.35h-7.557C87.404,191.846,85.453,189.895,85.453,187.497
	 M101.289,210.815H85.874l3.067-10.628c0.068,0.002,0.134,0.011,0.203,0.011h8.875c0.068,0,0.135-0.009,0.203-0.01L101.289,210.815z
	 M98.911,198.313c-0.012-0.001-0.023-0.006-0.035-0.006h-10.59c-0.012,0-0.022,0.005-0.034,0.006
	c-2.068-0.388-3.676-2.097-3.907-4.215h18.473C102.587,196.216,100.979,197.925,98.911,198.313"/>
<path fill="#33006F" d="M174.285,189.543h-9.467v-2.362c0-0.497-0.403-0.901-0.9-0.901h-14.915c-0.497,0-0.9,0.404-0.9,0.901v2.362
	h-26.025c0.003-0.029,0.018-0.057,0.018-0.088v-18.805c0-3.24,2.601-5.876,5.798-5.876c1.586,0,3.086,0.67,4.167,1.801
	c-3.245,0.65-5.698,3.521-5.698,6.954c0,0.497,0.402,0.901,0.9,0.901h12.386h0.02c0.497,0,0.9-0.404,0.9-0.901
	c0-0.069-0.008-0.137-0.023-0.202c-0.1-3.548-2.819-6.449-6.287-6.842c-1.394-2.169-3.791-3.511-6.365-3.511
	c-4.19,0-7.598,3.444-7.598,7.676v18.805c0,0.031,0.014,0.059,0.018,0.088h-6.831c-0.497,0-0.9,0.403-0.9,0.9s0.403,0.901,0.9,0.901
	h2.252c0.068,1.59,0.458,7.752,2.538,12.506c1.336,3.053,3.244,5.662,4.459,7.161h-2.687c-0.497,0-0.9,0.402-0.9,0.899
	s0.403,0.901,0.9,0.901h47.513c0.497,0,0.9-0.404,0.9-0.901s-0.403-0.899-0.9-0.899h-2.882c1.217-1.523,3.037-4.058,4.323-6.996
	c2.166-4.95,2.5-11.42,2.546-12.671h2.74c0.497,0,0.9-0.404,0.9-0.901S174.782,189.543,174.285,189.543 M138.673,172.63h-10.434
	c0.429-2.491,2.605-4.393,5.217-4.393C136.068,168.237,138.244,170.139,138.673,172.63 M149.903,201.292
	c0.257,0.048,0.516,0.073,0.775,0.073c0.709,0,1.415-0.175,2.055-0.518l0.618-0.332c0.841-0.45,1.844-0.451,2.683,0l0.489,0.262
	c1.231,0.661,2.701,0.661,3.931,0l0.719-0.386c0.571-0.308,1.219-0.402,1.845-0.288v3.62h-13.115V201.292z M163.019,188.081v10.221
	c-0.922-0.102-1.86,0.056-2.697,0.505l-0.718,0.386c-0.697,0.374-1.53,0.375-2.229,0l-0.489-0.262c-1.372-0.738-3.012-0.736-4.385,0
	l-0.619,0.332c-0.611,0.33-1.322,0.38-1.978,0.169v-11.351H163.019z M167.35,203.294c-1.619,3.701-4.216,6.8-5.025,7.718h-37.229
	c-0.567-0.627-3.43-3.898-5.174-7.882c-1.903-4.352-2.307-10.193-2.384-11.785h30.565v13.278c0,0.497,0.403,0.9,0.9,0.9h14.915
	c0.497,0,0.9-0.403,0.9-0.9v-13.278h4.924C169.688,192.637,169.333,198.764,167.35,203.294"/>
<path fill="#33006F" d="M127.753,176.674v8.217c0,0.497,0.403,0.899,0.9,0.899s0.9-0.402,0.9-0.899v-8.217
	c0-0.496-0.403-0.899-0.9-0.899S127.753,176.178,127.753,176.674"/>
<path fill="#33006F" d="M134.104,176.674c0-0.496-0.403-0.899-0.9-0.899s-0.9,0.403-0.9,0.899v2.78c0,0.497,0.403,0.901,0.9,0.901
	s0.9-0.404,0.9-0.901V176.674z"/>
<path fill="#33006F" d="M133.203,181.644c-0.497,0-0.9,0.402-0.9,0.899v1.138c0,0.497,0.403,0.9,0.9,0.9s0.9-0.403,0.9-0.9v-1.138
	C134.104,182.046,133.7,181.644,133.203,181.644"/>
<path fill="#33006F" d="M139.033,176.674c0-0.496-0.403-0.899-0.9-0.899s-0.9,0.403-0.9,0.899v4.931c0,0.497,0.403,0.899,0.9,0.899
	s0.9-0.402,0.9-0.899V176.674z"/>
<path fill="#33006F" d="M138.133,184.35c-0.497,0-0.9,0.402-0.9,0.899v1.771c0,0.497,0.403,0.899,0.9,0.899
	c0.497,0,0.9-0.402,0.9-0.899v-1.771C139.033,184.752,138.63,184.35,138.133,184.35"/>
<path fill="#33006F" d="M178.833,272.186h-55c-0.552,0-1-0.447-1-1v-30c0-0.553,0.448-1,1-1h55c0.552,0,1,0.447,1,1v30
	C179.833,271.739,179.385,272.186,178.833,272.186z M124.833,270.186h53v-28h-53V270.186z"/>
<rect x="138.458" y="242.062" fill="#33006F" width="2" height="28.5"/>
<rect x="162.208" y="242.062" fill="#33006F" width="2" height="28.5"/>
<path fill="#33006F" d="M272.072,225.104c0.021,0.021,0.049,0.029,0.071,0.048v-1.392l-0.071,0.071
	C271.72,224.182,271.72,224.752,272.072,225.104"/>
<path fill="#33006F" d="M272.072,236.446c0.021,0.021,0.049,0.029,0.071,0.048v-1.392l-0.071,0.071
	C271.72,235.524,271.72,236.094,272.072,236.446"/>
<path fill="#33006F" d="M272.072,247.789c0.021,0.021,0.049,0.029,0.071,0.048v-1.392l-0.071,0.071
	C271.72,246.867,271.72,247.437,272.072,247.789"/>
<path fill="#33006F" d="M272.072,259.13c0.021,0.021,0.049,0.029,0.071,0.048v-1.392l-0.071,0.071
	C271.72,258.208,271.72,258.779,272.072,259.13"/>
<path fill="#33006F" d="M272.072,270.473c0.021,0.021,0.049,0.029,0.071,0.047v-1.391l-0.071,0.071
	C271.72,269.551,271.72,270.122,272.072,270.473"/>
<path fill="#33006F" d="M272.072,281.816c0.021,0.021,0.049,0.029,0.071,0.048v-1.392l-0.071,0.071
	C271.72,280.894,271.72,281.464,272.072,281.816"/>
<path fill="#33006F" d="M272.072,293.158c0.021,0.021,0.049,0.029,0.071,0.048v-1.392l-0.071,0.071
	C271.72,292.236,271.72,292.806,272.072,293.158"/>
<path fill="#33006F" d="M272.072,304.5c0.021,0.021,0.049,0.029,0.071,0.048v-1.392l-0.071,0.071
	C271.72,303.579,271.72,304.149,272.072,304.5"/>
<path fill="#33006F" d="M272.144,315.89v-1.393l-0.071,0.071c-0.353,0.352-0.353,0.922,0,1.274
	C272.093,315.864,272.121,315.872,272.144,315.89"/>
<polygon fill="#33006F" points="262.044,222.516 262.044,225.062 266.121,220.987 263.574,220.987 "/>
<path fill="#33006F" d="M272.072,123.022c0.021,0.021,0.049,0.029,0.071,0.047v-1.391l-0.071,0.071
	C271.72,122.102,271.72,122.67,272.072,123.022"/>
<path fill="#33006F" d="M272.072,134.365c0.021,0.021,0.049,0.029,0.071,0.047v-1.39l-0.071,0.071
	C271.72,133.444,271.72,134.013,272.072,134.365"/>
<path fill="#33006F" d="M272.072,145.708c0.021,0.021,0.049,0.029,0.071,0.047v-1.39l-0.071,0.071
	C271.72,144.787,271.72,145.356,272.072,145.708"/>
<path fill="#33006F" d="M272.072,157.05c0.021,0.021,0.049,0.029,0.071,0.047v-1.39l-0.071,0.071
	C271.72,156.129,271.72,156.699,272.072,157.05"/>
<path fill="#33006F" d="M272.072,168.392c0.021,0.021,0.049,0.029,0.071,0.047v-1.39l-0.071,0.07
	C271.72,167.471,271.72,168.041,272.072,168.392"/>
<path fill="#33006F" d="M272.072,179.734c0.021,0.021,0.049,0.029,0.071,0.048v-1.391l-0.071,0.07
	C271.72,178.813,271.72,179.383,272.072,179.734"/>
<path fill="#33006F" d="M272.072,191.077c0.021,0.021,0.049,0.029,0.071,0.047v-1.391l-0.071,0.07
	C271.72,190.156,271.72,190.726,272.072,191.077"/>
<path fill="#33006F" d="M272.144,202.467v-1.393l-0.071,0.071c-0.353,0.353-0.353,0.922,0,1.274
	C272.093,202.441,272.121,202.448,272.144,202.467"/>
<path fill="#33006F" d="M272.144,212.417l-0.071,0.07c-0.097,0.098-0.161,0.211-0.204,0.331h0.275V212.417z"/>
<polygon fill="#33006F" points="262.044,120.436 262.044,122.98 267.683,117.342 265.137,117.342 "/>
<path fill="#33006F" d="M466.165,213.761l0.553-0.553h-2.073c0.02,0.201,0.095,0.399,0.248,0.553
	c0.175,0.177,0.405,0.265,0.636,0.265S465.989,213.938,466.165,213.761"/>
<path fill="#33006F" d="M454.822,213.761l0.553-0.553h-2.073c0.02,0.201,0.094,0.399,0.248,0.553
	c0.176,0.177,0.405,0.265,0.637,0.265C454.416,214.026,454.646,213.938,454.822,213.761"/>
<path fill="#33006F" d="M443.479,213.761l0.554-0.553h-2.073c0.019,0.201,0.094,0.399,0.248,0.553
	c0.175,0.177,0.404,0.265,0.636,0.265C443.074,214.026,443.304,213.938,443.479,213.761"/>
<path fill="#33006F" d="M432.138,213.761l0.553-0.553h-2.073c0.02,0.201,0.094,0.399,0.248,0.553
	c0.175,0.177,0.405,0.265,0.637,0.265C431.731,214.026,431.962,213.938,432.138,213.761"/>
<path fill="#33006F" d="M420.795,213.761l0.554-0.553h-2.073c0.019,0.201,0.094,0.399,0.248,0.553
	c0.175,0.177,0.404,0.265,0.636,0.265C420.39,214.026,420.619,213.938,420.795,213.761"/>
<path fill="#33006F" d="M409.453,213.761l0.553-0.553h-2.073c0.02,0.201,0.094,0.399,0.248,0.553
	c0.175,0.177,0.405,0.265,0.637,0.265C409.047,214.026,409.277,213.938,409.453,213.761"/>
<path fill="#33006F" d="M398.11,213.761l0.553-0.553h-2.072c0.019,0.201,0.094,0.399,0.248,0.553
	c0.175,0.177,0.404,0.265,0.636,0.265C397.704,214.026,397.935,213.938,398.11,213.761"/>
<path fill="#33006F" d="M386.769,213.761l0.553-0.553h-2.073c0.02,0.201,0.094,0.399,0.248,0.553
	c0.175,0.177,0.405,0.265,0.637,0.265C386.362,214.026,386.593,213.938,386.769,213.761"/>
<path fill="#33006F" d="M375.426,213.761l0.553-0.553h-2.073c0.02,0.201,0.095,0.399,0.248,0.553
	c0.175,0.177,0.405,0.265,0.637,0.265C375.02,214.026,375.25,213.938,375.426,213.761"/>
<path fill="#33006F" d="M364.083,213.761l0.553-0.553h-2.072c0.019,0.201,0.093,0.399,0.248,0.553
	c0.175,0.177,0.404,0.265,0.636,0.265C363.677,214.026,363.907,213.938,364.083,213.761"/>
<path fill="#33006F" d="M352.741,213.761l0.553-0.553h-2.073c0.02,0.201,0.094,0.399,0.248,0.553
	c0.175,0.177,0.405,0.265,0.636,0.265S352.565,213.938,352.741,213.761"/>
<path fill="#33006F" d="M341.398,213.761l0.554-0.553h-2.073c0.019,0.201,0.093,0.399,0.248,0.553
	c0.175,0.177,0.404,0.265,0.636,0.265C340.993,214.026,341.223,213.938,341.398,213.761"/>
<path fill="#33006F" d="M330.057,213.761l0.553-0.553h-2.073c0.02,0.201,0.094,0.399,0.248,0.553
	c0.175,0.177,0.405,0.265,0.636,0.265S329.88,213.938,330.057,213.761"/>
<path fill="#33006F" d="M318.714,213.761l0.554-0.553h-2.073c0.019,0.201,0.093,0.399,0.247,0.553
	c0.176,0.177,0.406,0.265,0.637,0.265S318.538,213.938,318.714,213.761"/>
<path fill="#33006F" d="M307.372,213.761l0.553-0.553h-2.073c0.02,0.201,0.094,0.399,0.247,0.553
	c0.176,0.177,0.406,0.265,0.638,0.265C306.966,214.026,307.196,213.938,307.372,213.761"/>
<path fill="#33006F" d="M296.029,213.761l0.553-0.553h-2.073c0.02,0.201,0.093,0.399,0.248,0.553
	c0.175,0.177,0.405,0.265,0.636,0.265S295.853,213.938,296.029,213.761"/>
<path fill="#33006F" d="M284.687,213.761l0.554-0.553h-2.073c0.019,0.201,0.093,0.399,0.248,0.553
	c0.175,0.177,0.404,0.265,0.636,0.265C284.281,214.026,284.511,213.938,284.687,213.761"/>
<path fill="#33006F" d="M273.345,213.761l0.553-0.553h-2.073c0.02,0.201,0.094,0.399,0.248,0.553
	c0.175,0.177,0.405,0.265,0.636,0.265S273.169,213.938,273.345,213.761"/>
<path fill="#33006F" d="M262.002,213.761l0.553-0.553h-2.073c0.019,0.201,0.094,0.399,0.248,0.553
	c0.175,0.177,0.405,0.265,0.636,0.265C261.596,214.026,261.826,213.938,262.002,213.761"/>
<path fill="#33006F" d="M250.66,213.761l0.553-0.553h-2.073c0.019,0.201,0.093,0.399,0.247,0.553
	c0.176,0.177,0.406,0.265,0.637,0.265C250.254,214.026,250.484,213.938,250.66,213.761"/>
<path fill="#33006F" d="M239.318,213.761l0.553-0.553h-2.073c0.019,0.201,0.093,0.399,0.247,0.553
	c0.176,0.177,0.406,0.265,0.637,0.265C238.912,214.026,239.142,213.938,239.318,213.761"/>
<path fill="#33006F" d="M227.975,213.761l0.553-0.553h-2.073c0.019,0.201,0.093,0.399,0.248,0.553
	c0.175,0.177,0.405,0.265,0.636,0.265C227.569,214.026,227.799,213.938,227.975,213.761"/>
<path fill="#33006F" d="M216.633,213.761l0.553-0.553h-2.073c0.019,0.201,0.093,0.399,0.248,0.553
	c0.175,0.177,0.405,0.265,0.636,0.265C216.227,214.026,216.457,213.938,216.633,213.761"/>
<path fill="#33006F" d="M205.291,213.761l0.553-0.553h-2.073c0.019,0.201,0.094,0.399,0.248,0.553
	c0.175,0.177,0.405,0.265,0.636,0.265C204.884,214.026,205.114,213.938,205.291,213.761"/>
<path fill="#33006F" d="M193.948,213.761l0.553-0.553h-2.073c0.019,0.201,0.094,0.399,0.248,0.553
	c0.175,0.177,0.405,0.265,0.636,0.265C193.542,214.026,193.772,213.938,193.948,213.761"/>
<path fill="#33006F" d="M182.606,213.761l0.553-0.553h-2.073c0.019,0.201,0.093,0.399,0.247,0.553
	c0.176,0.177,0.406,0.265,0.637,0.265C182.2,214.026,182.43,213.938,182.606,213.761"/>
<path fill="#33006F" d="M171.264,213.761l0.553-0.553h-2.073c0.019,0.201,0.093,0.399,0.248,0.553
	c0.175,0.177,0.405,0.265,0.636,0.265C170.857,214.026,171.087,213.938,171.264,213.761"/>
<path fill="#33006F" d="M159.921,213.761l0.553-0.553h-2.073c0.019,0.201,0.094,0.399,0.248,0.553
	c0.175,0.177,0.405,0.265,0.636,0.265C159.515,214.026,159.745,213.938,159.921,213.761"/>
<path fill="#33006F" d="M148.579,213.761l0.553-0.553h-2.073c0.019,0.201,0.094,0.399,0.248,0.553
	c0.175,0.177,0.405,0.265,0.636,0.265C148.173,214.026,148.403,213.938,148.579,213.761"/>
<path fill="#33006F" d="M137.236,213.761l0.553-0.553h-2.073c0.019,0.201,0.093,0.399,0.248,0.553
	c0.175,0.177,0.405,0.265,0.636,0.265C136.83,214.026,137.06,213.938,137.236,213.761"/>
<path fill="#33006F" d="M125.894,213.761l0.553-0.553h-2.073c0.019,0.201,0.093,0.399,0.248,0.553
	c0.175,0.177,0.405,0.265,0.636,0.265C125.488,214.026,125.718,213.938,125.894,213.761"/>
<path fill="#33006F" d="M114.552,213.761l0.553-0.553h-2.073c0.019,0.201,0.093,0.399,0.247,0.553
	c0.176,0.177,0.406,0.265,0.637,0.265C114.146,214.026,114.375,213.938,114.552,213.761"/>
<path fill="#33006F" d="M103.209,213.761l0.553-0.553h-2.073c0.019,0.201,0.093,0.399,0.248,0.553
	c0.175,0.177,0.405,0.265,0.636,0.265C102.803,214.026,103.033,213.938,103.209,213.761"/>
<path fill="#33006F" d="M91.867,213.761l0.553-0.553h-2.073c0.019,0.201,0.094,0.399,0.248,0.553
	c0.175,0.177,0.405,0.265,0.636,0.265C91.461,214.026,91.691,213.938,91.867,213.761"/>
<path fill="#33006F" d="M80.524,213.761l0.553-0.553h-2.073c0.019,0.201,0.094,0.399,0.248,0.553
	c0.175,0.177,0.405,0.265,0.636,0.265C80.119,214.026,80.349,213.938,80.524,213.761"/>
<path fill="#33006F" d="M69.183,213.761l0.553-0.553h-2.073c0.019,0.201,0.093,0.399,0.248,0.553
	c0.175,0.177,0.405,0.265,0.636,0.265C68.776,214.026,69.006,213.938,69.183,213.761"/>
<path fill="#33006F" d="M487.577,327.185c0.176,0.177,0.406,0.265,0.636,0.265c0.231,0,0.461-0.088,0.636-0.265l4.344-4.343v-1.917
	h-0.628l-4.987,4.987C487.225,326.263,487.225,326.833,487.577,327.185"/>
<polygon fill="#33006F" points="493.192,334.184 493.192,331.638 488.235,336.595 490.781,336.595 "/>
<path fill="#33006F" d="M476.234,327.185c0.177,0.177,0.406,0.265,0.637,0.265s0.461-0.088,0.636-0.265l6.261-6.26h-2.546
	l-4.987,4.987C475.883,326.263,475.883,326.833,476.234,327.185"/>
<path fill="#33006F" d="M487.049,328.985c0.353-0.352,0.353-0.922,0-1.272c-0.352-0.353-0.921-0.353-1.271,0l-8.885,8.884h2.546
	L487.049,328.985z"/>
<path fill="#33006F" d="M472.425,320.925h-2.546l-4.258,4.258v2.248c0.198-0.021,0.393-0.094,0.544-0.246L472.425,320.925z"/>
<path fill="#33006F" d="M475.707,328.985c0.352-0.352,0.352-0.922,0-1.272c-0.353-0.353-0.921-0.353-1.272,0l-8.813,8.812v0.071
	h2.475L475.707,328.985z"/>
<path fill="#33006F" d="M56.567,327.185c0.176,0.177,0.406,0.265,0.636,0.265c0.231,0,0.461-0.088,0.636-0.265l4.579-4.578h-2.546
	l-3.305,3.306C56.215,326.263,56.215,326.833,56.567,327.185"/>
<path fill="#33006F" d="M64.238,332.129v-2.547l-7.671,7.672c-0.007,0.007-0.009,0.017-0.016,0.024h2.537L64.238,332.129z"/>
<path fill="#33006F" d="M45.225,327.185c0.176,0.177,0.406,0.265,0.636,0.265c0.231,0,0.461-0.088,0.637-0.265l4.578-4.578H48.53
	l-3.305,3.306C44.873,326.263,44.873,326.833,45.225,327.185"/>
<path fill="#33006F" d="M56.04,328.985c0.352-0.352,0.352-0.922,0-1.272c-0.352-0.353-0.921-0.353-1.272,0l-9.543,9.542
	c-0.007,0.007-0.009,0.017-0.016,0.023h2.537L56.04,328.985z"/>
<polygon fill="#33006F" points="37.188,322.608 36.667,323.127 36.667,325.673 39.733,322.608 "/>
<path fill="#33006F" d="M44.698,328.985c0.352-0.352,0.352-0.922,0-1.272c-0.352-0.353-0.921-0.353-1.273,0l-6.758,6.757v2.546
	L44.698,328.985z"/>
<path fill="#33006F" d="M396.838,54.968c0.177,0.176,0.406,0.264,0.637,0.264c0.062,0,0.12-0.023,0.181-0.035v-2.319l-0.817,0.818
	C396.486,54.047,396.486,54.617,396.838,54.968"/>
<path fill="#33006F" d="M397.475,66.575c0.062,0,0.121-0.023,0.181-0.035v-2.319l-0.816,0.818c-0.353,0.351-0.353,0.921,0,1.272
	C397.015,66.487,397.244,66.575,397.475,66.575"/>
<path fill="#33006F" d="M396.838,77.653c0.177,0.176,0.406,0.264,0.637,0.264c0.062,0,0.12-0.023,0.181-0.036v-2.318l-0.817,0.818
	C396.486,76.732,396.486,77.302,396.838,77.653"/>
<path fill="#33006F" d="M385.496,53.696c-0.353,0.351-0.353,0.921,0,1.272c0.176,0.176,0.406,0.264,0.636,0.264
	c0.231,0,0.461-0.088,0.636-0.264l9.271-9.269h-2.545L385.496,53.696z"/>
<path fill="#33006F" d="M395.038,55.496l-9.542,9.543c-0.353,0.351-0.353,0.921,0,1.272c0.176,0.176,0.406,0.264,0.636,0.264
	c0.231,0,0.461-0.088,0.636-0.264l9.542-9.543c0.353-0.351,0.353-0.921,0-1.272C395.959,55.144,395.39,55.144,395.038,55.496"/>
<path fill="#33006F" d="M396.311,68.111c0.352-0.352,0.352-0.921,0-1.272c-0.353-0.352-0.921-0.352-1.272,0l-6.974,6.974l1.665,0.88
	L396.311,68.111z"/>
<path fill="#33006F" d="M395.925,77.966l0.303,0.16C396.134,78.052,396.034,77.998,395.925,77.966"/>
<path fill="#33006F" d="M374.153,53.696c-0.353,0.351-0.353,0.921,0,1.272c0.176,0.176,0.406,0.264,0.636,0.264
	c0.231,0,0.461-0.088,0.636-0.264l9.271-9.269h-2.545L374.153,53.696z"/>
<path fill="#33006F" d="M383.695,55.496l-9.543,9.543c-0.351,0.351-0.351,0.921,0,1.272c0.177,0.176,0.406,0.264,0.638,0.264
	c0.229,0,0.46-0.088,0.636-0.264l9.542-9.543c0.352-0.351,0.352-0.921,0-1.272C384.616,55.144,384.048,55.144,383.695,55.496"/>
<path fill="#33006F" d="M384.968,66.838c-0.352-0.352-0.921-0.352-1.271,0l-3.055,3.053l1.665,0.88l2.661-2.661
	C385.32,67.759,385.32,67.189,384.968,66.838"/>
<polygon fill="#33006F" points="370.731,45.776 370.905,48.147 373.354,45.699 370.809,45.699 "/>
<path fill="#33006F" d="M373.626,55.496c-0.353-0.352-0.921-0.352-1.272,0l-0.849,0.849l0.173,2.371l1.948-1.948
	C373.978,56.417,373.978,55.847,373.626,55.496"/>
<path fill="#33006F" d="M426.78,109.277H105.856c-0.497,0-0.9-0.403-0.9-0.9s0.403-0.9,0.9-0.9H426.78c0.497,0,0.9,0.403,0.9,0.9
	S427.277,109.277,426.78,109.277"/>
<path fill="#33006F" d="M442.454,118.388H89.5c-0.497,0-0.899-0.403-0.899-0.9s0.402-0.9,0.899-0.9h352.955
	c0.497,0,0.9,0.403,0.9,0.9S442.951,118.388,442.454,118.388"/>
<path fill="#33006F" d="M468.078,214.429H60.523c-0.497,0-0.9-0.402-0.9-0.899s0.403-0.901,0.9-0.901h407.555
	c0.497,0,0.9,0.404,0.9,0.901S468.575,214.429,468.078,214.429"/>
<path fill="#33006F" d="M467.553,221.262H61.658c-0.497,0-0.899-0.402-0.899-0.899s0.402-0.901,0.899-0.901h405.895
	c0.497,0,0.9,0.404,0.9,0.901S468.05,221.262,467.553,221.262"/>
<path fill="#33006F" d="M485.46,321.582h-17.376c-0.497,0-0.9-0.403-0.9-0.901V132.551c0-0.322,0.172-0.62,0.451-0.78
	c0.279-0.16,0.622-0.161,0.901,0.001l17.375,10.077c0.277,0.161,0.447,0.457,0.447,0.778V320.68
	C486.358,321.178,485.957,321.582,485.46,321.582 M468.983,319.78h15.576V143.146l-15.576-9.033V319.78z"/>
<path fill="#33006F" d="M399.06,45.881h-30.557c-0.497,0-0.9-0.403-0.9-0.9v-6.18c0-0.497,0.403-0.9,0.9-0.9h30.557
	c0.497,0,0.9,0.403,0.9,0.9v6.18C399.96,45.479,399.557,45.881,399.06,45.881 M369.403,44.082h28.758v-4.381h-28.758V44.082z"/>
<path fill="#33006F" d="M466.023,334.65H65.099c-0.497,0-0.9-0.403-0.9-0.9v-10.96c0-0.498,0.403-0.901,0.9-0.901h400.924
	c0.497,0,0.899,0.403,0.899,0.901v10.96C466.923,334.247,466.521,334.65,466.023,334.65 M65.999,332.848h399.125v-9.158H65.999
	V332.848z"/>
<path fill="#33006F" d="M493.572,337.532h-27.689c-0.498,0-0.899-0.404-0.899-0.901v-16.016c0-0.497,0.401-0.901,0.899-0.901h27.689
	c0.497,0,0.899,0.404,0.899,0.901v16.016C494.472,337.127,494.069,337.532,493.572,337.532 M466.782,335.731h25.89v-14.217h-25.89
	V335.731z"/>
<path fill="#33006F" d="M64.618,338.814H36.929c-0.498,0-0.9-0.403-0.9-0.9v-16.017c0-0.497,0.402-0.9,0.9-0.9h27.689
	c0.497,0,0.9,0.403,0.9,0.9v16.017C65.518,338.411,65.115,338.814,64.618,338.814 M37.828,337.012h25.89v-14.216h-25.89V337.012z"/>
<path fill="#33006F" d="M60.523,322.208c-0.496,0-0.899-0.401-0.9-0.897c-0.107-61.793-0.107-124.217,0-185.538
	c0.001-0.496,0.404-0.898,0.9-0.898h0.002c0.497,0.001,0.901-1.203,0.9-0.706c-0.107,61.318-0.109,125.348-0.002,187.138
	c0.001,0.497-0.401,0.9-0.898,0.901H60.523z"/>
<path fill="#33006F" d="M43.498,322.598c-0.495,0-0.897-0.398-0.9-0.895c-0.391-62.552-0.391-113.788,0-176.843
	c0.003-0.495,0.405-0.895,0.9-0.895h0.005c0.497,0.003,0.898,0.408,0.895,0.905c-0.391,63.049-0.391,114.278,0,176.822
	c0.003,0.497-0.398,0.901-0.894,0.905H43.498z"/>
<path fill="#33006F" d="M262.931,323.073c-0.239,0-0.467-0.095-0.636-0.264s-0.264-0.397-0.264-0.636V220.5
	c0-0.497,0.403-0.901,0.9-0.901c0.497,0,0.9,0.404,0.9,0.901v100.772l6.419-0.002V221.012c0-0.498,0.403-0.901,0.9-0.901
	s0.899,0.403,0.899,0.901V322.17c0,0.497-0.402,0.898-0.898,0.899L262.931,323.073z"/>
<path fill="#33006F" d="M11.5,163.612c-0.311,0.001-0.613-0.161-0.78-0.45c-0.249-0.43-0.102-0.98,0.329-1.229L265.463,14.888
	l-0.151-9.219L6.764,154.487c-0.43,0.247-0.981,0.099-1.229-0.331c-0.248-0.431-0.1-0.982,0.331-1.229L265.739,3.347
	c0.276-0.159,0.615-0.16,0.893-0.002c0.277,0.157,0.45,0.449,0.455,0.767l0.185,11.275c0.005,0.327-0.167,0.631-0.45,0.794
	L11.948,163.491C11.807,163.574,11.652,163.612,11.5,163.612"/>
<path fill="#33006F" d="M11.468,163.661c-0.311,0-0.614-0.162-0.78-0.45l-5.125-8.875c-0.249-0.431-0.101-0.981,0.329-1.23
	c0.431-0.25,0.981-0.101,1.229,0.329l5.125,8.875c0.249,0.431,0.101,0.981-0.329,1.23C11.774,163.622,11.62,163.661,11.468,163.661"
	/>
<path fill="#33006F" d="M11.5,163.612c-0.311,0.001-0.613-0.161-0.78-0.45c-0.249-0.43-0.102-0.98,0.329-1.229L265.463,14.888
	l-0.151-9.219L6.764,154.487c-0.43,0.247-0.981,0.099-1.229-0.331c-0.248-0.431-0.1-0.982,0.331-1.229L265.739,3.347
	c0.276-0.159,0.615-0.16,0.893-0.002c0.277,0.157,0.45,0.449,0.455,0.767l0.185,11.275c0.005,0.327-0.167,0.631-0.45,0.794
	L11.948,163.491C11.807,163.574,11.652,163.612,11.5,163.612"/>
<path fill="#33006F" d="M18.617,159.573c-0.312,0-0.614-0.162-0.781-0.452l-5.183-9.005c-0.248-0.431-0.1-0.981,0.331-1.229
	c0.43-0.248,0.981-0.1,1.229,0.332l5.183,9.005c0.248,0.43,0.1,0.981-0.331,1.229C18.923,159.534,18.769,159.573,18.617,159.573"/>
<path fill="#33006F" d="M520.869,163.612c-0.153,0.001-0.309-0.038-0.449-0.121L265.546,16.181c-0.283-0.163-0.455-0.467-0.45-0.794
	l0.185-11.275c0.005-0.318,0.178-0.61,0.455-0.767c0.278-0.158,0.617-0.157,0.893,0.002l259.873,149.58
	c0.431,0.247,0.579,0.798,0.331,1.229c-0.248,0.43-0.799,0.578-1.229,0.331L267.056,5.669l-0.151,9.219L521.32,161.933
	c0.431,0.249,0.577,0.799,0.328,1.229C521.481,163.451,521.18,163.612,520.869,163.612"/>
<path fill="#33006F" d="M520.869,163.613c-0.152,0-0.308-0.039-0.448-0.121c-0.431-0.247-0.579-0.797-0.331-1.228l5.183-9.006
	c0.248-0.431,0.8-0.577,1.229-0.331c0.431,0.248,0.579,0.798,0.331,1.229l-5.184,9.005
	C521.482,163.451,521.181,163.613,520.869,163.613"/>
<path fill="#33006F" d="M514.137,159.381c-0.151,0-0.304-0.039-0.445-0.119c-0.431-0.246-0.582-0.796-0.336-1.227l4.943-8.669
	c0.246-0.432,0.795-0.582,1.228-0.336c0.432,0.246,0.582,0.796,0.336,1.227l-4.942,8.669
	C514.754,159.217,514.449,159.381,514.137,159.381"/>
<path fill="#33006F" d="M396.693,79.78c-0.497,0-0.899-0.403-0.899-0.9V46.118h-23.206v17.373c0,0.497-0.403,0.9-0.9,0.9
	s-0.899-0.403-0.899-0.9V45.218c0-0.497,0.402-0.9,0.899-0.9h25.006c0.497,0,0.9,0.403,0.9,0.9V78.88
	C397.594,79.376,397.19,79.78,396.693,79.78"/>
<path fill="#33006F" d="M60.232,247.129H43.279c-0.497,0-0.9-0.402-0.9-0.899s0.403-0.901,0.9-0.901h16.953
	c0.497,0,0.9,0.404,0.9,0.901S60.729,247.129,60.232,247.129"/>
<path fill="#33006F" d="M59.75,293.873H44.361c-0.497,0-0.9-0.402-0.9-0.899c0-0.498,0.403-0.901,0.9-0.901H59.75
	c0.497,0,0.9,0.403,0.9,0.901C60.65,293.47,60.247,293.873,59.75,293.873"/>
<path fill="#33006F" d="M60.432,155.774H43.479c-0.497,0-0.9-0.403-0.9-0.9s0.403-0.9,0.9-0.9h16.953c0.497,0,0.9,0.403,0.9,0.9
	S60.929,155.774,60.432,155.774"/>
<path fill="#33006F" d="M59.75,213.646H44.361c-0.497,0-0.9-0.402-0.9-0.899s0.403-0.901,0.9-0.901H59.75
	c0.497,0,0.9,0.404,0.9,0.901S60.247,213.646,59.75,213.646"/>
<path fill="#33006F" d="M468.175,214.035c-0.495,0-0.896-0.399-0.899-0.896c-0.002-0.498,0.398-0.902,0.896-0.905l17.166-0.083
	c0.452,0.01,0.901,0.399,0.904,0.897c0.003,0.497-0.398,0.9-0.896,0.903l-17.167,0.083H468.175z"/>
<path fill="#33006F" d="M36.026,326.958H12.725c-0.497,0-0.9-0.402-0.9-0.899s0.403-0.901,0.9-0.901h23.301
	c0.497,0,0.9,0.404,0.9,0.901S36.522,326.958,36.026,326.958"/>
<path fill="#33006F" d="M7.939,326.958H3.584c-0.497,0-0.9-0.402-0.9-0.899s0.403-0.901,0.9-0.901h4.355
	c0.497,0,0.9,0.404,0.9,0.901S8.436,326.958,7.939,326.958"/>
<path fill="#33006F" d="M514.122,325.515h-20.289c-0.496,0-0.899-0.402-0.899-0.899s0.403-0.901,0.899-0.901h20.289
	c0.497,0,0.9,0.404,0.9,0.901S514.619,325.515,514.122,325.515"/>
<path fill="#33006F" d="M523.669,325.515h-5.79c-0.497,0-0.9-0.402-0.9-0.899s0.403-0.901,0.9-0.901h5.79
	c0.497,0,0.899,0.404,0.899,0.901S524.166,325.515,523.669,325.515"/>
<path fill="#33006F" d="M542.787,325.515h-10.261c-0.497,0-0.9-0.402-0.9-0.899s0.403-0.901,0.9-0.901h10.261
	c0.497,0,0.899,0.404,0.899,0.901S543.284,325.515,542.787,325.515"/>
<path fill="#33006F" d="M485.178,150.952h-16.992c-0.497,0-0.9-0.403-0.9-0.9s0.403-0.9,0.9-0.9h16.992
	c0.497,0,0.899,0.403,0.899,0.9S485.675,150.952,485.178,150.952"/>
<path fill="#33006F" d="M484.856,197.694h-16.35c-0.497,0-0.9-0.402-0.9-0.899s0.403-0.9,0.9-0.9h16.35c0.497,0,0.9,0.403,0.9,0.9
	S485.354,197.694,484.856,197.694"/>
<path fill="#33006F" d="M262.931,214.042c-0.239,0-0.467-0.095-0.636-0.264s-0.264-0.397-0.264-0.636v-95.303
	c0-0.497,0.403-0.899,0.9-0.899c0.497,0,0.9,0.402,0.9,0.899v94.402l6.419-0.002v-93.932c0-0.497,0.403-0.9,0.9-0.9
	s0.899,0.403,0.899,0.9v94.832c0,0.497-0.402,0.898-0.898,0.899L262.931,214.042z"/>
<path fill="#33006F" d="M276.086,27.363h-19.235c-0.497,0-0.9-0.403-0.9-0.9v-5.29c0-0.311,0.161-0.6,0.426-0.764l9.2-5.707
	c0.28-0.175,0.633-0.181,0.92-0.018l10.035,5.707c0.281,0.16,0.454,0.459,0.454,0.782v5.29
	C276.985,26.96,276.584,27.363,276.086,27.363 M257.751,25.563h17.436v-3.866l-9.115-5.184l-8.321,5.161V25.563z"/>
<path fill="#33006F" d="M276.293,23.602v-2.508l-0.023-0.014l-5.188,5.189c-0.034,0.034-0.049,0.077-0.076,0.114h2.507
	L276.293,23.602z"/>
<path fill="#33006F" d="M264.836,26.383l7.525-7.525l-1.622-0.923l-8.334,8.334c-0.033,0.033-0.048,0.077-0.076,0.114H264.836z"/>
<path fill="#33006F" d="M264.211,17.999c0.351-0.351,0.351-0.921,0-1.272c-0.016-0.017-0.038-0.022-0.055-0.037l-3.111,1.93
	l-3.988,3.988v2.545L264.211,17.999z"/>
<path fill="#33006F" d="M154.452,255.302c0-5.622-4.561-10.196-10.167-10.196s-10.167,4.574-10.167,10.196
	c0,5.572,4.479,10.111,10.016,10.193v4.803c0,0.188,0.152,0.34,0.339,0.34s0.339-0.152,0.339-0.34v-4.812
	C150.173,265.209,154.452,260.748,154.452,255.302 M144.812,264.806v-7.935c0.036-0.014,0.07-0.034,0.1-0.062l2.341-2.156
	c0.138-0.127,0.147-0.341,0.02-0.479c-0.127-0.138-0.341-0.146-0.479-0.02l-1.982,1.826v-2.251c0-0.188-0.152-0.339-0.339-0.339
	s-0.339,0.15-0.339,0.339v5.694l-2.22-2.762c-0.117-0.146-0.33-0.169-0.476-0.051c-0.146,0.117-0.169,0.33-0.052,0.476l2.614,3.251
	c0.036,0.046,0.083,0.077,0.134,0.099v4.381c-5.163-0.082-9.338-4.317-9.338-9.516c0-5.249,4.256-9.519,9.489-9.519
	c5.232,0,9.489,4.27,9.489,9.519C153.773,260.374,149.799,264.531,144.812,264.806"/>
<path fill="#33006F" d="M174.202,258.631c0-4.885-3.963-8.859-8.834-8.859s-8.834,3.975-8.834,8.859
	c0,4.842,3.892,8.785,8.703,8.856v4.174c0,0.162,0.132,0.294,0.294,0.294c0.163,0,0.295-0.132,0.295-0.294v-4.182
	C170.485,267.24,174.202,263.363,174.202,258.631 M165.826,266.889v-6.894c0.031-0.013,0.061-0.03,0.087-0.054l2.034-1.874
	c0.12-0.11,0.128-0.296,0.017-0.416c-0.11-0.12-0.296-0.127-0.416-0.017l-1.722,1.586v-1.956c0-0.162-0.132-0.294-0.295-0.294
	c-0.162,0-0.294,0.132-0.294,0.294v4.947l-1.929-2.398c-0.102-0.127-0.287-0.147-0.414-0.045c-0.127,0.102-0.147,0.287-0.045,0.414
	l2.271,2.824c0.032,0.039,0.073,0.066,0.117,0.086v3.806c-4.486-0.071-8.114-3.751-8.114-8.268c0-4.561,3.699-8.271,8.245-8.271
	s8.245,3.71,8.245,8.271C173.613,263.038,170.16,266.65,165.826,266.889"/>
<g>
	<g opacity="0.5">
		<path fill="#33006F" d="M270.272,225.63l-8.228,8.228v2.546l9.5-9.5c0.353-0.351,0.353-0.921,0-1.273
			C271.193,225.279,270.624,225.279,270.272,225.63"/>
		<path fill="#33006F" d="M271.545,238.247c0.352-0.352,0.352-0.922,0-1.272c-0.353-0.353-0.921-0.353-1.272,0l-8.228,8.227v2.546
			L271.545,238.247z"/>
		<path fill="#33006F" d="M271.545,249.588c0.352-0.352,0.352-0.922,0-1.273c-0.353-0.352-0.921-0.352-1.272,0l-8.228,8.228v2.546
			L271.545,249.588z"/>
		<path fill="#33006F" d="M271.545,260.931c0.352-0.351,0.352-0.922,0-1.272c-0.353-0.353-0.921-0.353-1.272,0l-8.228,8.227v2.546
			L271.545,260.931z"/>
		<path fill="#33006F" d="M271.545,272.273c0.352-0.352,0.352-0.922,0-1.272c-0.353-0.353-0.921-0.353-1.272,0l-8.228,8.228v2.546
			L271.545,272.273z"/>
		<path fill="#33006F" d="M271.545,283.616c0.352-0.352,0.352-0.922,0-1.272c-0.353-0.353-0.921-0.353-1.272,0l-8.228,8.227v2.546
			L271.545,283.616z"/>
		<path fill="#33006F" d="M271.545,294.958c0.352-0.352,0.352-0.922,0-1.272c-0.353-0.353-0.921-0.353-1.272,0l-8.228,8.228v2.546
			L271.545,294.958z"/>
		<path fill="#33006F" d="M271.545,305.027c-0.353-0.352-0.921-0.352-1.272,0l-8.228,8.229v2.545l9.5-9.5
			C271.896,305.949,271.896,305.379,271.545,305.027"/>
		<path fill="#33006F" d="M271.545,317.643c0.352-0.352,0.352-0.922,0-1.272c-0.353-0.353-0.921-0.353-1.272,0l-5.737,5.735h2.546
			L271.545,317.643z"/>
		<path fill="#33006F" d="M270.272,123.55l-8.228,8.227v2.545l9.5-9.5c0.353-0.351,0.353-0.92,0-1.272
			C271.193,123.198,270.624,123.198,270.272,123.55"/>
		<path fill="#33006F" d="M271.545,136.165c0.352-0.351,0.352-0.921,0-1.272c-0.353-0.352-0.921-0.352-1.272,0l-8.228,8.228v2.544
			L271.545,136.165z"/>
		<path fill="#33006F" d="M271.545,147.507c0.352-0.351,0.352-0.921,0-1.272c-0.353-0.352-0.921-0.352-1.272,0l-8.228,8.228v2.544
			L271.545,147.507z"/>
		<path fill="#33006F" d="M271.545,158.85c0.352-0.351,0.352-0.921,0-1.273c-0.353-0.351-0.921-0.351-1.272,0l-8.228,8.229v2.544
			L271.545,158.85z"/>
		<path fill="#33006F" d="M271.545,170.192c0.352-0.351,0.352-0.921,0-1.273c-0.353-0.351-0.921-0.351-1.272,0l-8.228,8.229v2.544
			L271.545,170.192z"/>
		<path fill="#33006F" d="M271.545,181.534c0.352-0.351,0.352-0.921,0-1.272c-0.353-0.352-0.921-0.352-1.272,0l-8.228,8.228v2.545
			L271.545,181.534z"/>
		<path fill="#33006F" d="M271.545,191.604c-0.353-0.352-0.921-0.352-1.272,0l-8.228,8.228v2.546l9.5-9.501
			C271.896,192.526,271.896,191.956,271.545,191.604"/>
		<path fill="#33006F" d="M271.545,202.946c-0.353-0.352-0.921-0.352-1.272,0l-8.228,8.229v1.645h0.9l8.6-8.6
			C271.896,203.869,271.896,203.298,271.545,202.946"/>
		<path fill="#33006F" d="M464.364,215.561c0.353-0.352,0.353-0.922,0-1.272c-0.352-0.353-0.921-0.353-1.271,0l-5.653,5.653h2.546
			L464.364,215.561z"/>
		<path fill="#33006F" d="M453.022,215.561c0.352-0.352,0.352-0.922,0-1.272c-0.353-0.353-0.921-0.353-1.272,0l-5.652,5.653h2.546
			L453.022,215.561z"/>
		<path fill="#33006F" d="M441.68,215.561c0.353-0.352,0.353-0.922,0-1.272c-0.352-0.353-0.921-0.353-1.271,0l-5.653,5.653h2.546
			L441.68,215.561z"/>
		<path fill="#33006F" d="M430.338,215.561c0.352-0.352,0.352-0.922,0-1.272c-0.353-0.353-0.921-0.353-1.272,0l-5.652,5.653h2.546
			L430.338,215.561z"/>
		<path fill="#33006F" d="M418.995,215.561c0.353-0.352,0.353-0.922,0-1.272c-0.352-0.353-0.921-0.353-1.272,0l-5.652,5.653h2.546
			L418.995,215.561z"/>
		<path fill="#33006F" d="M407.652,215.561c0.353-0.352,0.353-0.922,0-1.272c-0.352-0.353-0.922-0.353-1.271,0l-5.653,5.653h2.546
			L407.652,215.561z"/>
		<path fill="#33006F" d="M396.311,215.561c0.352-0.352,0.352-0.922,0-1.272c-0.353-0.353-0.922-0.353-1.272,0l-5.652,5.653h2.546
			L396.311,215.561z"/>
		<path fill="#33006F" d="M384.968,215.561c0.353-0.352,0.353-0.922,0-1.272c-0.352-0.353-0.921-0.353-1.271,0l-5.653,5.653h2.546
			L384.968,215.561z"/>
		<path fill="#33006F" d="M373.626,215.561c0.352-0.352,0.352-0.922,0-1.272c-0.353-0.353-0.921-0.353-1.272,0l-5.652,5.653h2.546
			L373.626,215.561z"/>
		<path fill="#33006F" d="M362.283,215.561c0.353-0.352,0.353-0.922,0-1.272c-0.352-0.353-0.921-0.353-1.271,0l-5.653,5.653h2.546
			L362.283,215.561z"/>
		<path fill="#33006F" d="M350.941,215.561c0.352-0.352,0.352-0.922,0-1.272c-0.353-0.353-0.921-0.353-1.272,0l-5.653,5.653h2.547
			L350.941,215.561z"/>
		<path fill="#33006F" d="M339.599,215.561c0.353-0.352,0.353-0.922,0-1.272c-0.352-0.353-0.921-0.353-1.271,0l-5.653,5.653h2.546
			L339.599,215.561z"/>
		<path fill="#33006F" d="M328.256,215.561c0.352-0.352,0.352-0.922,0-1.272c-0.352-0.353-0.922-0.353-1.272,0l-5.652,5.653h2.546
			L328.256,215.561z"/>
		<path fill="#33006F" d="M316.914,215.561c0.352-0.352,0.352-0.922,0-1.272c-0.353-0.353-0.922-0.353-1.273,0l-5.651,5.653h2.546
			L316.914,215.561z"/>
		<path fill="#33006F" d="M305.571,215.561c0.353-0.352,0.353-0.922,0-1.272c-0.352-0.353-0.921-0.353-1.271,0l-5.653,5.653h2.546
			L305.571,215.561z"/>
		<path fill="#33006F" d="M294.229,215.561c0.352-0.352,0.352-0.922,0-1.272c-0.353-0.353-0.921-0.353-1.272,0l-5.653,5.653h2.547
			L294.229,215.561z"/>
		<path fill="#33006F" d="M282.887,215.561c0.353-0.352,0.353-0.922,0-1.272c-0.352-0.353-0.921-0.353-1.271,0l-5.653,5.653h2.546
			L282.887,215.561z"/>
		<path fill="#33006F" d="M271.545,215.561c0.352-0.352,0.352-0.922,0-1.272c-0.353-0.353-0.921-0.353-1.272,0l-5.653,5.653h2.546
			L271.545,215.561z"/>
		<path fill="#33006F" d="M260.202,215.561c0.352-0.352,0.352-0.922,0-1.272c-0.351-0.353-0.921-0.353-1.272,0l-5.653,5.653h2.546
			L260.202,215.561z"/>
		<path fill="#33006F" d="M248.86,215.561c0.352-0.352,0.352-0.922,0-1.272c-0.352-0.353-0.922-0.353-1.273,0l-5.652,5.653h2.546
			L248.86,215.561z"/>
		<path fill="#33006F" d="M237.518,215.561c0.352-0.352,0.352-0.922,0-1.272c-0.352-0.353-0.922-0.353-1.272,0l-5.653,5.653h2.546
			L237.518,215.561z"/>
		<path fill="#33006F" d="M226.175,215.561c0.352-0.352,0.352-0.922,0-1.272c-0.352-0.353-0.921-0.353-1.272,0l-5.653,5.653h2.546
			L226.175,215.561z"/>
		<path fill="#33006F" d="M214.833,215.561c0.352-0.352,0.352-0.922,0-1.272c-0.352-0.353-0.921-0.353-1.272,0l-5.653,5.653h2.546
			L214.833,215.561z"/>
		<path fill="#33006F" d="M203.491,215.561c0.352-0.352,0.352-0.922,0-1.272c-0.352-0.353-0.921-0.353-1.272,0l-5.653,5.653h2.546
			L203.491,215.561z"/>
		<path fill="#33006F" d="M192.148,215.561c0.352-0.352,0.352-0.922,0-1.272c-0.352-0.353-0.921-0.353-1.272,0l-5.653,5.653h2.546
			L192.148,215.561z"/>
		<path fill="#33006F" d="M180.806,215.561c0.351-0.352,0.351-0.922,0-1.272c-0.352-0.353-0.921-0.353-1.273,0l-5.652,5.653h2.546
			L180.806,215.561z"/>
		<path fill="#33006F" d="M169.463,215.561c0.352-0.352,0.352-0.922,0-1.272c-0.352-0.353-0.922-0.353-1.273,0l-5.652,5.653h2.546
			L169.463,215.561z"/>
		<path fill="#33006F" d="M158.121,215.561c0.352-0.352,0.352-0.922,0-1.272c-0.352-0.353-0.922-0.353-1.272,0l-5.653,5.653h2.546
			L158.121,215.561z"/>
		<path fill="#33006F" d="M146.778,215.561c0.352-0.352,0.352-0.922,0-1.272c-0.352-0.353-0.921-0.353-1.272,0l-5.653,5.653h2.546
			L146.778,215.561z"/>
		<path fill="#33006F" d="M135.437,215.561c0.352-0.352,0.352-0.922,0-1.272c-0.352-0.353-0.921-0.353-1.272,0l-5.653,5.653h2.546
			L135.437,215.561z"/>
		<path fill="#33006F" d="M124.094,215.561c0.352-0.352,0.352-0.922,0-1.272c-0.352-0.353-0.921-0.353-1.272,0l-5.653,5.653h2.546
			L124.094,215.561z"/>
		<path fill="#33006F" d="M112.752,215.561c0.352-0.352,0.352-0.922,0-1.272c-0.352-0.353-0.921-0.353-1.273,0l-5.652,5.653h2.546
			L112.752,215.561z"/>
		<path fill="#33006F" d="M101.41,215.561c0.351-0.352,0.351-0.922,0-1.272c-0.352-0.353-0.921-0.353-1.273,0l-5.652,5.653h2.546
			L101.41,215.561z"/>
		<path fill="#33006F" d="M90.067,215.561c0.352-0.352,0.352-0.922,0-1.272c-0.352-0.353-0.921-0.353-1.273,0l-5.652,5.653h2.546
			L90.067,215.561z"/>
		<path fill="#33006F" d="M78.724,215.561c0.352-0.352,0.352-0.922,0-1.272c-0.351-0.353-0.922-0.353-1.272,0l-5.653,5.653h2.546
			L78.724,215.561z"/>
		<path fill="#33006F" d="M67.382,214.288c-0.352-0.352-0.921-0.352-1.272,0l-4.597,4.598v1.056h1.49l4.379-4.38
			C67.734,215.21,67.734,214.64,67.382,214.288"/>
		<g>
			<path fill="#33006F" d="M435.987,113.434l-3.571,3.374c-0.342,0.322-0.342,0.846,0,1.168c0.171,0.162,0.395,0.243,0.619,0.243
				c0.224,0,0.446-0.081,0.618-0.243l3.806-3.595C436.964,114.071,436.474,113.754,435.987,113.434"/>
			<path fill="#33006F" d="M429.783,108.878l-8.393,7.93c-0.343,0.322-0.343,0.846,0,1.168c0.171,0.161,0.394,0.242,0.617,0.242
				c0.225,0,0.448-0.081,0.619-0.242l8.495-8.025C430.671,109.598,430.225,109.242,429.783,108.878"/>
			<path fill="#33006F" d="M420.878,108.043c-0.343-0.323-0.896-0.323-1.237,0l-9.276,8.764c-0.342,0.322-0.342,0.846,0,1.168
				c0.171,0.162,0.395,0.243,0.618,0.243c0.225,0,0.448-0.081,0.619-0.243l9.276-8.763
				C421.22,108.89,421.22,108.366,420.878,108.043"/>
			<path fill="#33006F" d="M409.852,108.043c-0.342-0.323-0.895-0.323-1.236,0l-9.276,8.764c-0.342,0.322-0.342,0.846,0,1.168
				c0.171,0.162,0.394,0.243,0.618,0.243c0.224,0,0.448-0.081,0.619-0.243l9.275-8.763
				C410.193,108.89,410.193,108.366,409.852,108.043"/>
			<path fill="#33006F" d="M397.589,108.043l-9.276,8.764c-0.342,0.323-0.342,0.846,0,1.168c0.171,0.162,0.396,0.243,0.619,0.243
				s0.447-0.081,0.618-0.243l9.275-8.763c0.343-0.323,0.343-0.847,0-1.169C398.483,107.721,397.931,107.721,397.589,108.043"/>
			<path fill="#33006F" d="M386.562,108.043l-9.275,8.764c-0.341,0.323-0.341,0.846,0,1.168c0.171,0.162,0.395,0.243,0.619,0.243
				c0.224,0,0.446-0.081,0.617-0.243l9.276-8.763c0.342-0.323,0.342-0.847,0-1.169C387.458,107.721,386.905,107.721,386.562,108.043
				"/>
			<path fill="#33006F" d="M375.537,108.043l-9.276,8.764c-0.342,0.322-0.342,0.846,0,1.168c0.171,0.162,0.395,0.243,0.618,0.243
				s0.448-0.081,0.619-0.243l9.276-8.763c0.342-0.323,0.342-0.847,0-1.169C376.432,107.721,375.879,107.721,375.537,108.043"/>
			<path fill="#33006F" d="M365.748,108.043c-0.342-0.323-0.895-0.323-1.237,0l-9.275,8.764c-0.342,0.322-0.342,0.846,0,1.168
				c0.171,0.162,0.394,0.243,0.618,0.243c0.224,0,0.447-0.081,0.618-0.243l9.276-8.763
				C366.09,108.89,366.09,108.366,365.748,108.043"/>
			<path fill="#33006F" d="M354.723,108.043c-0.343-0.323-0.896-0.323-1.237,0l-9.276,8.764c-0.342,0.322-0.342,0.846,0,1.168
				c0.171,0.162,0.395,0.243,0.618,0.243c0.225,0,0.448-0.081,0.619-0.243l9.276-8.763
				C355.064,108.89,355.064,108.366,354.723,108.043"/>
			<path fill="#33006F" d="M343.696,108.043c-0.342-0.323-0.895-0.323-1.236,0l-9.276,8.764c-0.342,0.322-0.342,0.846,0,1.168
				c0.171,0.162,0.394,0.243,0.618,0.243c0.224,0,0.447-0.081,0.619-0.243l9.275-8.763
				C344.038,108.89,344.038,108.366,343.696,108.043"/>
			<path fill="#33006F" d="M332.671,108.043c-0.342-0.323-0.896-0.323-1.237,0l-9.275,8.764c-0.343,0.322-0.343,0.846,0,1.168
				c0.171,0.162,0.394,0.243,0.617,0.243c0.225,0,0.448-0.081,0.619-0.243l9.276-8.763
				C333.013,108.89,333.013,108.366,332.671,108.043"/>
			<path fill="#33006F" d="M320.407,108.043l-9.275,8.764c-0.342,0.323-0.342,0.846,0,1.168c0.171,0.162,0.395,0.243,0.619,0.243
				c0.224,0,0.446-0.081,0.617-0.243l9.276-8.763c0.342-0.323,0.342-0.847,0-1.169C321.303,107.721,320.749,107.721,320.407,108.043
				"/>
			<path fill="#33006F" d="M309.382,108.043l-9.276,8.764c-0.341,0.323-0.341,0.846,0,1.168c0.171,0.162,0.396,0.243,0.619,0.243
				c0.225,0,0.447-0.081,0.618-0.243l9.276-8.763c0.342-0.323,0.342-0.847,0-1.169C310.276,107.721,309.724,107.721,309.382,108.043
				"/>
			<path fill="#33006F" d="M298.356,108.043l-9.276,8.764c-0.342,0.322-0.342,0.846,0,1.168c0.171,0.162,0.394,0.243,0.618,0.243
				c0.224,0,0.447-0.081,0.619-0.243l9.275-8.763c0.342-0.323,0.342-0.847,0-1.169C299.251,107.721,298.698,107.721,298.356,108.043
				"/>
			<path fill="#33006F" d="M288.567,108.043c-0.342-0.323-0.896-0.323-1.237,0l-9.276,8.764c-0.342,0.322-0.342,0.846,0,1.168
				c0.172,0.162,0.395,0.243,0.618,0.243c0.225,0,0.448-0.081,0.619-0.243l9.276-8.763
				C288.909,108.89,288.909,108.366,288.567,108.043"/>
			<path fill="#33006F" d="M277.541,108.043c-0.342-0.323-0.895-0.323-1.236,0l-9.276,8.764c-0.342,0.322-0.342,0.846,0,1.168
				c0.171,0.162,0.394,0.243,0.618,0.243c0.224,0,0.448-0.081,0.619-0.243l9.275-8.763
				C277.884,108.89,277.884,108.366,277.541,108.043"/>
			<path fill="#33006F" d="M266.516,108.043c-0.342-0.323-0.895-0.323-1.237,0l-9.276,8.764c-0.342,0.322-0.342,0.846,0,1.168
				c0.171,0.162,0.394,0.243,0.618,0.243s0.448-0.081,0.619-0.243l9.276-8.763C266.857,108.89,266.857,108.366,266.516,108.043"/>
			<path fill="#33006F" d="M255.49,108.043c-0.342-0.323-0.895-0.323-1.237,0l-9.276,8.764c-0.342,0.322-0.342,0.846,0,1.168
				c0.171,0.162,0.394,0.243,0.618,0.243s0.448-0.081,0.619-0.243l9.276-8.763C255.832,108.89,255.832,108.366,255.49,108.043"/>
			<path fill="#33006F" d="M243.227,108.043l-9.276,8.764c-0.341,0.323-0.341,0.846,0,1.168c0.171,0.162,0.395,0.243,0.619,0.243
				c0.224,0,0.447-0.081,0.618-0.243l9.276-8.763c0.342-0.323,0.342-0.847,0-1.169C244.122,107.721,243.568,107.721,243.227,108.043
				"/>
			<path fill="#33006F" d="M232.201,108.043l-9.276,8.764c-0.341,0.323-0.341,0.846,0,1.168c0.171,0.162,0.395,0.243,0.619,0.243
				c0.224,0,0.447-0.081,0.618-0.243l9.276-8.763c0.342-0.323,0.342-0.847,0-1.169C233.096,107.721,232.543,107.721,232.201,108.043
				"/>
			<path fill="#33006F" d="M221.175,108.043l-9.276,8.764c-0.342,0.322-0.342,0.846,0,1.168c0.171,0.162,0.394,0.243,0.618,0.243
				s0.448-0.081,0.619-0.243l9.276-8.763c0.342-0.323,0.342-0.847,0-1.169C222.07,107.721,221.517,107.721,221.175,108.043"/>
			<path fill="#33006F" d="M211.386,108.043c-0.342-0.323-0.895-0.323-1.237,0l-9.276,8.764c-0.342,0.322-0.342,0.846,0,1.168
				c0.171,0.162,0.394,0.243,0.618,0.243s0.448-0.081,0.619-0.243l9.276-8.763C211.728,108.89,211.728,108.366,211.386,108.043"/>
			<path fill="#33006F" d="M200.36,108.043c-0.342-0.323-0.895-0.323-1.237,0l-9.276,8.764c-0.342,0.322-0.342,0.846,0,1.168
				c0.171,0.162,0.394,0.243,0.618,0.243s0.448-0.081,0.619-0.243l9.276-8.763C200.703,108.89,200.703,108.366,200.36,108.043"/>
			<path fill="#33006F" d="M189.334,108.043c-0.342-0.323-0.895-0.323-1.237,0l-9.276,8.764c-0.342,0.322-0.342,0.846,0,1.168
				c0.171,0.162,0.394,0.243,0.618,0.243c0.224,0,0.448-0.081,0.619-0.243l9.276-8.763
				C189.677,108.89,189.677,108.366,189.334,108.043"/>
			<path fill="#33006F" d="M178.309,108.043c-0.342-0.323-0.895-0.323-1.237,0l-9.276,8.764c-0.342,0.322-0.342,0.846,0,1.168
				c0.171,0.162,0.394,0.243,0.618,0.243c0.224,0,0.448-0.081,0.619-0.243l9.276-8.763
				C178.651,108.89,178.651,108.366,178.309,108.043"/>
			<path fill="#33006F" d="M167.283,108.043c-0.342-0.323-0.895-0.323-1.237,0l-9.276,8.764c-0.342,0.322-0.342,0.846,0,1.168
				c0.171,0.162,0.394,0.243,0.618,0.243c0.224,0,0.448-0.081,0.619-0.243l9.276-8.763
				C167.625,108.89,167.625,108.366,167.283,108.043"/>
			<path fill="#33006F" d="M155.02,108.043l-9.276,8.764c-0.341,0.323-0.341,0.846,0,1.168c0.171,0.162,0.395,0.243,0.619,0.243
				s0.447-0.081,0.618-0.243l9.276-8.763c0.342-0.323,0.342-0.847,0-1.169C155.915,107.721,155.362,107.721,155.02,108.043"/>
			<path fill="#33006F" d="M143.994,108.043l-9.276,8.764c-0.342,0.322-0.342,0.846,0,1.168c0.171,0.162,0.394,0.243,0.618,0.243
				s0.448-0.081,0.619-0.243l9.276-8.763c0.342-0.323,0.342-0.847,0-1.169C144.889,107.721,144.336,107.721,143.994,108.043"/>
			<path fill="#33006F" d="M134.205,108.043c-0.342-0.323-0.895-0.323-1.237,0l-9.276,8.764c-0.342,0.322-0.342,0.846,0,1.168
				c0.171,0.162,0.394,0.243,0.618,0.243c0.224,0,0.448-0.081,0.619-0.243l9.276-8.763
				C134.547,108.89,134.547,108.366,134.205,108.043"/>
			<path fill="#33006F" d="M123.179,108.043c-0.342-0.323-0.895-0.323-1.237,0l-9.276,8.764c-0.342,0.322-0.342,0.846,0,1.168
				c0.171,0.162,0.394,0.243,0.618,0.243c0.224,0,0.448-0.081,0.619-0.243l9.276-8.763
				C123.521,108.89,123.521,108.366,123.179,108.043"/>
			<path fill="#33006F" d="M112.154,108.043c-0.342-0.323-0.895-0.323-1.237,0l-9.276,8.764c-0.342,0.322-0.342,0.846,0,1.168
				c0.171,0.162,0.394,0.243,0.618,0.243c0.224,0,0.448-0.081,0.619-0.243l9.276-8.763
				C112.496,108.89,112.496,108.366,112.154,108.043"/>
		</g>
	</g>
	<g opacity="0.5">
		<path fill="#33006F" d="M490.951,62.369c-5.062,0-9.182-4.119-9.182-9.182s4.12-9.182,9.182-9.182
			c5.063,0,9.183,4.119,9.183,9.182S496.015,62.369,490.951,62.369 M490.951,45.805c-4.07,0-7.381,3.312-7.381,7.382
			c0,4.071,3.311,7.383,7.381,7.383s7.382-3.312,7.382-7.383C498.333,49.117,495.021,45.805,490.951,45.805"/>
		<path fill="#33006F" d="M491.238,41.581c-0.497,0-0.9-0.403-0.9-0.9v-7.608c0-0.497,0.403-0.9,0.9-0.9s0.9,0.403,0.9,0.9v7.608
			C492.139,41.177,491.735,41.581,491.238,41.581"/>
		<path fill="#33006F" d="M491.238,74.534c-0.497,0-0.9-0.403-0.9-0.9v-7.608c0-0.497,0.403-0.9,0.9-0.9s0.9,0.403,0.9,0.9v7.608
			C492.139,74.131,491.735,74.534,491.238,74.534"/>
		<path fill="#33006F" d="M511.425,54.253h-7.573c-0.497,0-0.9-0.403-0.9-0.9c0-0.497,0.403-0.9,0.9-0.9h7.573
			c0.497,0,0.9,0.403,0.9,0.9C512.325,53.85,511.922,54.253,511.425,54.253"/>
		<path fill="#33006F" d="M478.624,54.253h-7.572c-0.497,0-0.9-0.403-0.9-0.9c0-0.497,0.403-0.9,0.9-0.9h7.572
			c0.497,0,0.9,0.403,0.9,0.9C479.524,53.85,479.121,54.253,478.624,54.253"/>
		<path fill="#33006F" d="M500.157,45.292c-0.229,0-0.459-0.087-0.635-0.262c-0.353-0.351-0.354-0.921-0.003-1.273l5.354-5.379
			c0.351-0.352,0.92-0.354,1.272-0.003c0.353,0.351,0.354,0.92,0.003,1.272l-5.354,5.38
			C500.619,45.204,500.39,45.292,500.157,45.292"/>
		<path fill="#33006F" d="M476.964,68.594c-0.229,0-0.459-0.087-0.635-0.262c-0.353-0.351-0.354-0.921-0.003-1.273l5.354-5.38
			c0.35-0.352,0.919-0.354,1.272-0.003c0.353,0.351,0.354,0.921,0.003,1.273l-5.354,5.38
			C477.426,68.506,477.195,68.594,476.964,68.594"/>
		<path fill="#33006F" d="M482.318,45.292c-0.232,0-0.462-0.088-0.638-0.265l-5.354-5.38c-0.351-0.352-0.35-0.921,0.003-1.272
			c0.354-0.351,0.923-0.349,1.272,0.003l5.354,5.379c0.351,0.352,0.35,0.922-0.003,1.273
			C482.777,45.206,482.548,45.292,482.318,45.292"/>
		<path fill="#33006F" d="M505.512,68.594c-0.231,0-0.462-0.088-0.638-0.265l-5.354-5.38c-0.351-0.352-0.35-0.922,0.003-1.273
			c0.353-0.351,0.922-0.349,1.272,0.003l5.354,5.38c0.351,0.352,0.35,0.922-0.003,1.273
			C505.971,68.507,505.74,68.594,505.512,68.594"/>
	</g>
	<g opacity="0.5">
		<path fill="#33006F" d="M545.118,284.519c0-14.932-12.113-27.08-27.001-27.08s-27,12.148-27,27.08
			c0,14.797,11.896,26.853,26.6,27.069v12.756c0,0.497,0.403,0.899,0.9,0.899s0.9-0.402,0.9-0.899v-12.782
			C533.758,310.828,545.118,298.979,545.118,284.519 M519.518,309.756v-21.069c0.094-0.039,0.185-0.091,0.265-0.164l6.219-5.728
			c0.366-0.337,0.39-0.906,0.053-1.271c-0.337-0.368-0.905-0.389-1.271-0.053l-5.265,4.849v-5.979c0-0.497-0.403-0.9-0.9-0.9
			s-0.9,0.403-0.9,0.9v15.124l-5.896-7.333c-0.311-0.389-0.877-0.45-1.265-0.139c-0.388,0.312-0.449,0.879-0.138,1.266l6.941,8.634
			c0.098,0.121,0.223,0.204,0.356,0.26v11.635c-13.711-0.217-24.799-11.465-24.799-25.269c0-13.939,11.304-25.28,25.199-25.28
			s25.2,11.341,25.2,25.28C543.317,297.986,532.764,309.025,519.518,309.756"/>
	</g>
	<g opacity="0.5">
		<path fill="#33006F" d="M35.918,318.678c-0.326-0.374-0.896-0.409-1.27-0.083l-2.949,2.588v-3.274l4.033-2.616
			c0.416-0.271,0.535-0.828,0.265-1.245c-0.271-0.417-0.828-0.537-1.245-0.265l-3.053,1.981v-2.225
			c0.004-0.007,0.007-0.015,0.011-0.021l4.065-2.99c0.4-0.294,0.486-0.857,0.192-1.258c-0.295-0.403-0.86-0.487-1.258-0.192
			l-3.01,2.215v-3.438c0-0.497-0.403-0.901-0.9-0.901s-0.9,0.404-0.9,0.901v3.431l-2.621-1.928c-0.4-0.295-0.964-0.21-1.258,0.191
			c-0.294,0.4-0.208,0.964,0.192,1.258l3.687,2.712v2.534l-2.664-1.991c-0.417-0.272-0.974-0.153-1.245,0.265
			c-0.27,0.416-0.151,0.975,0.265,1.245l3.383,2.195c0.021,0.113,0.063,0.223,0.129,0.325c0.034,0.053,0.089,0.079,0.132,0.122
			v2.927l-2.56-2.268c-0.373-0.325-0.942-0.288-1.27,0.083c-0.328,0.374-0.291,0.943,0.082,1.271l3.748,3.29v2.16
			c0,0.497,0.403,0.899,0.9,0.899s0.9-0.402,0.9-0.899v-2.099l4.136-3.63C36.209,319.62,36.247,319.052,35.918,318.678"/>
		<path fill="#33006F" d="M19.553,320.05c-0.352-0.353-0.921-0.353-1.272,0L16.3,322.03v-1.938c0.116-0.044,0.226-0.109,0.319-0.202
			l2.584-2.583c0.352-0.352,0.352-0.922,0-1.274c-0.351-0.351-0.921-0.351-1.272,0l-1.631,1.631v-2.81
			c0-0.497-0.403-0.901-0.9-0.901c-0.497,0-0.9,0.404-0.9,0.901v2.677l-1.43-1.431c-0.351-0.352-0.921-0.352-1.273,0
			c-0.351,0.351-0.351,0.922,0,1.273l2.583,2.584c0.035,0.035,0.081,0.052,0.12,0.079v1.86l-1.78-1.781
			c-0.352-0.351-0.921-0.351-1.273,0c-0.351,0.353-0.351,0.923,0,1.274l3,3c0.016,0.016,0.037,0.021,0.053,0.035v1.679
			c0,0.497,0.403,0.9,0.9,0.9c0.497,0,0.9-0.403,0.9-0.9v-1.613c0.09-0.043,0.178-0.093,0.253-0.168l3-3
			C19.905,320.972,19.905,320.402,19.553,320.05"/>
	</g>
</g>
<path fill="#33006F" d="M508.534,318.789c-0.352-0.353-0.922-0.353-1.273,0l-1.552,1.552v-2.906c0-0.497-0.403-0.899-0.9-0.899
	s-0.9,0.402-0.9,0.899v3.045l-1.691-1.69c-0.352-0.353-0.922-0.353-1.273,0c-0.352,0.352-0.352,0.922,0,1.272l2.762,2.763
	c0.06,0.06,0.133,0.095,0.203,0.135v0.812c0,0.497,0.403,0.901,0.9,0.901s0.9-0.404,0.9-0.901v-0.905
	c0.021-0.017,0.045-0.023,0.063-0.042l2.762-2.763C508.886,319.71,508.886,319.14,508.534,318.789"/>
<path fill="#33006F" d="M285.499,269.52c-2.021,0-3.666-1.645-3.666-3.667s1.645-3.667,3.666-3.667c2.022,0,3.667,1.645,3.667,3.667
	S287.521,269.52,285.499,269.52z M285.499,263.186c-1.47,0-2.666,1.196-2.666,2.667s1.196,2.667,2.666,2.667
	c1.471,0,2.667-1.196,2.667-2.667S286.97,263.186,285.499,263.186z"/>
<path fill="#33006F" d="M285.458,265.763c-0.276,0-0.5-0.224-0.5-0.5v-1.719c0-0.276,0.224-0.5,0.5-0.5s0.5,0.224,0.5,0.5v1.719
	C285.958,265.54,285.734,265.763,285.458,265.763z"/>
</svg>
