<?xml version="1.0" encoding="utf-8"?>
<!-- Generator: Adobe Illustrator 16.0.0, SVG Export Plug-In . SVG Version: 6.00 Build 0)  -->
<!DOCTYPE svg PUBLIC "-//W3C//DTD SVG 1.1//EN" "http://www.w3.org/Graphics/SVG/1.1/DTD/svg11.dtd">
<svg version="1.1" id="Layer_1" xmlns="http://www.w3.org/2000/svg" xmlns:xlink="http://www.w3.org/1999/xlink" x="0px" y="0px"
	 width="400px" height="400px" viewBox="0 0 400 400" enable-background="new 0 0 400 400" xml:space="preserve">
<path opacity="0.1" fill="#4B2E83" d="M463.14,186.055c-6.998,0-12.997,4.328-15.485,10.445H323.038v-14.625h55.034
	c1.663,0,3.259-0.66,4.434-1.836l12.669-12.67c2.257,1.137,4.796,1.794,7.489,1.794c9.218,0,16.718-7.499,16.718-16.715
	c0-9.217-7.5-16.714-16.718-16.714c-9.214,0-16.711,7.497-16.711,16.714c0,1.92,0.339,3.758,0.94,5.477l-11.417,11.415h-52.438
	v-17.341l11.579-11.581c2.082,0.932,4.382,1.463,6.803,1.463c9.218,0,16.718-7.499,16.718-16.715c0-9.217-7.5-16.714-16.718-16.714
	c-9.214,0-16.711,7.497-16.711,16.714c0,2.198,0.437,4.294,1.213,6.219l-13.587,13.586c-1.174,1.174-1.835,2.77-1.835,4.431v19.938
	h-14.625V46.214c6.117-2.485,10.446-8.484,10.446-15.484c0-9.217-7.498-16.714-16.714-16.714c-9.217,0-16.714,7.498-16.714,16.714
	c0,6.999,4.328,12.998,10.445,15.484V169.34h-14.625v-53.543c0-1.662-0.66-3.257-1.835-4.433l-12.673-12.67
	c1.139-2.257,1.794-4.795,1.794-7.49c0-9.217-7.497-16.716-16.714-16.716s-16.715,7.499-16.715,16.716
	c0,9.216,7.498,16.715,16.715,16.715c1.92,0,3.758-0.342,5.476-0.94l11.417,11.415v50.946H205.23l-11.415-11.415
	c0.598-1.719,0.939-3.557,0.939-5.477c0-9.217-7.497-16.714-16.714-16.714c-9.216,0-16.715,7.497-16.715,16.714
	c0,9.216,7.499,16.715,16.715,16.715c2.694,0,5.234-0.657,7.49-1.794l12.671,12.671c1.176,1.175,2.77,1.837,4.432,1.837h53.545
	v14.624H133.053c-2.484-6.117-8.484-10.446-15.484-10.446c-9.217,0-16.714,7.499-16.714,16.714c0,9.219,7.497,16.714,16.714,16.714
	c7,0,12.998-4.329,15.484-10.446h123.126v14.625h-19.938c-1.661,0-3.256,0.663-4.432,1.838l-13.584,13.584
	c-1.926-0.776-4.021-1.213-6.221-1.213c-9.215,0-16.714,7.497-16.714,16.714s7.499,16.715,16.714,16.715
	c9.218,0,16.715-7.498,16.715-16.715c0-2.424-0.531-4.724-1.463-6.804l11.581-11.581h17.341v52.44l-11.415,11.415
	c-1.719-0.597-3.557-0.94-5.477-0.94c-9.217,0-16.714,7.5-16.714,16.717c0,9.214,7.497,16.712,16.714,16.712
	c9.216,0,16.715-7.498,16.715-16.712c0-2.696-0.657-5.236-1.794-7.492l12.672-12.669c1.175-1.178,1.836-2.771,1.836-4.434v-55.037
	h14.624v124.619c-6.117,2.485-10.446,8.484-10.446,15.485c0,9.217,7.499,16.712,16.714,16.712c9.219,0,16.714-7.495,16.714-16.712
	c0-7.001-4.329-13-10.446-15.485V236.199H310.5v21.431c0,1.66,0.663,3.254,1.835,4.431l13.587,13.584
	c-0.776,1.926-1.213,4.022-1.213,6.221c0,9.214,7.497,16.714,16.714,16.714s16.715-7.5,16.715-16.714
	c0-9.218-7.498-16.715-16.715-16.715c-2.424,0-4.724,0.529-6.804,1.463l-11.581-11.579v-18.835h18.835l11.579,11.579
	c-0.934,2.082-1.463,4.382-1.463,6.803c0,9.218,7.5,16.718,16.715,16.718c9.217,0,16.714-7.5,16.714-16.718
	c0-9.214-7.497-16.711-16.714-16.711c-2.198,0-4.295,0.437-6.218,1.213l-13.587-13.587c-1.174-1.172-2.768-1.835-4.431-1.835
	h-21.431v-14.625h124.619c2.485,6.117,8.484,10.446,15.485,10.446c9.215,0,16.712-7.498,16.712-16.714
	C479.854,193.552,472.357,186.055,463.14,186.055L463.14,186.055z M402.667,148.27c2.306,0,4.18,1.875,4.18,4.179
	c0,2.305-1.874,4.178-4.18,4.178s-4.177-1.873-4.177-4.178C398.49,150.145,400.361,148.27,402.667,148.27z M341.42,120.988
	c2.306,0,4.18,1.874,4.18,4.178c0,2.305-1.874,4.18-4.18,4.18c-2.303,0-4.176-1.875-4.176-4.18
	C337.244,122.862,339.117,120.988,341.42,120.988z M289.607,26.552c2.305,0,4.179,1.874,4.179,4.178s-1.874,4.179-4.179,4.179
	c-2.304,0-4.179-1.875-4.179-4.179S287.304,26.552,289.607,26.552z M235.108,91.203c0-2.305,1.875-4.18,4.179-4.18
	c2.305,0,4.178,1.875,4.178,4.18c0,2.304-1.873,4.178-4.178,4.178C236.983,95.381,235.108,93.507,235.108,91.203z M178.041,156.626
	c-2.305,0-4.179-1.873-4.179-4.178c0-2.304,1.874-4.179,4.179-4.179c2.304,0,4.179,1.875,4.179,4.179
	C182.22,154.753,180.345,156.626,178.041,156.626z M117.568,206.947c-2.304,0-4.178-1.874-4.178-4.179
	c0-2.304,1.874-4.179,4.178-4.179c2.305,0,4.18,1.875,4.18,4.179C121.748,205.073,119.873,206.947,117.568,206.947z
	 M212.005,258.761c-2.304,0-4.178-1.874-4.178-4.18c0-2.303,1.874-4.176,4.178-4.176c2.305,0,4.18,1.873,4.18,4.176
	C216.185,256.887,214.31,258.761,212.005,258.761z M239.287,320.008c-2.304,0-4.179-1.874-4.179-4.18s1.875-4.177,4.179-4.177
	c2.305,0,4.178,1.871,4.178,4.177S241.59,320.008,239.287,320.008z M289.607,380.48c-2.304,0-4.179-1.874-4.179-4.18
	c0-2.305,1.875-4.179,4.179-4.179c2.305,0,4.179,1.874,4.179,4.179C293.786,378.606,291.912,380.48,289.607,380.48z M345.6,281.865
	c0,2.305-1.874,4.176-4.18,4.176c-2.303,0-4.176-1.871-4.176-4.176c0-2.306,1.873-4.18,4.176-4.18
	C343.726,277.686,345.6,279.56,345.6,281.865z M372.88,254.581c0,2.306-1.871,4.18-4.176,4.18c-2.306,0-4.18-1.874-4.18-4.18
	c0-2.303,1.874-4.176,4.18-4.176C371.009,250.405,372.88,252.278,372.88,254.581z M310.5,181.875V196.5h-14.625v-14.625H310.5z
	 M268.714,181.875h14.625V196.5h-14.625V181.875z M268.714,223.661v-14.625h14.625v14.625H268.714z M310.5,223.661h-14.625v-14.625
	H310.5V223.661z M463.14,206.947c-2.305,0-4.179-1.874-4.179-4.179c0-2.304,1.874-4.179,4.179-4.179c2.306,0,4.18,1.875,4.18,4.179
	C467.319,205.073,465.445,206.947,463.14,206.947z"/>
</svg>
