<?xml version="1.0" encoding="utf-8"?>
<!-- Generator: Adobe Illustrator 16.0.0, SVG Export Plug-In . SVG Version: 6.00 Build 0)  -->
<!DOCTYPE svg PUBLIC "-//W3C//DTD SVG 1.1//EN" "http://www.w3.org/Graphics/SVG/1.1/DTD/svg11.dtd">
<svg version="1.1" id="Layer_1" xmlns="http://www.w3.org/2000/svg" xmlns:xlink="http://www.w3.org/1999/xlink" x="0px" y="0px"
	 width="144px" height="144px" viewBox="0 0 144 144" enable-background="new 0 0 144 144" xml:space="preserve">
<path opacity="0.1" fill="#4B2E83" d="M139.029,60.689L73.707,0.666c-0.965-0.887-2.449-0.887-3.414,0L4.971,60.689
	c-0.766,0.704-1.021,1.805-0.644,2.774c0.378,0.969,1.311,1.607,2.351,1.607H21.82v76.405c0,1.394,1.13,2.523,2.523,2.523h95.313
	c1.394,0,2.523-1.13,2.523-2.523V65.071h15.143c1.039,0,1.973-0.638,2.351-1.607S139.795,61.393,139.029,60.689L139.029,60.689z
	 M71.495,36.841c0-0.928,0.755-1.683,1.683-1.683s1.682,0.755,1.682,1.683c0,0.927-0.754,1.682-1.682,1.682
	S71.495,37.769,71.495,36.841z M119.656,60.024c-1.394,0-2.523,1.13-2.523,2.523v76.406H97.368v-24.356l6.864-6.864
	c0.74,0.281,1.539,0.441,2.376,0.441c3.71,0,6.729-3.019,6.729-6.729c0-3.711-3.02-6.729-6.729-6.729s-6.729,3.019-6.729,6.729
	c0,1.021,0.236,1.988,0.646,2.857l-7.465,7.465c-0.473,0.473-0.739,1.115-0.739,1.784v25.401h-5.686V85.662L91.298,81
	c0.838,0.375,1.764,0.589,2.739,0.589c3.711,0,6.729-3.019,6.729-6.729c0-3.71-3.019-6.729-6.729-6.729
	c-3.71,0-6.729,3.019-6.729,6.729c0,0.885,0.176,1.729,0.488,2.504l-5.469,5.469c-0.474,0.474-0.74,1.114-0.74,1.784v54.336h-5.887
	V43.075c2.463-1,4.205-3.416,4.205-6.233c0-3.71-3.019-6.729-6.729-6.729c-3.71,0-6.729,3.019-6.729,6.729
	c0,2.817,1.743,5.232,4.206,6.233v95.878h-5.888V71.087c0-0.669-0.266-1.312-0.739-1.784l-5.102-5.102
	c0.458-0.908,0.722-1.93,0.722-3.015c0-3.71-3.019-6.729-6.729-6.729s-6.729,3.019-6.729,6.729s3.019,6.729,6.729,6.729
	c0.773,0,1.513-0.138,2.205-0.378l4.596,4.596v66.82h-5.888v-38.859c0-0.67-0.266-1.312-0.739-1.785l-7.465-7.464
	c0.41-0.869,0.646-1.835,0.646-2.858c0-3.709-3.019-6.729-6.729-6.729s-6.729,3.02-6.729,6.729c0,3.711,3.019,6.729,6.729,6.729
	c0.837,0,1.636-0.161,2.376-0.441l6.864,6.864v37.814H26.867V62.547c0-1.394-1.13-2.523-2.523-2.523h-11.19L72,5.95l58.847,54.074
	L119.656,60.024L119.656,60.024z M104.926,101.444c0-0.928,0.755-1.683,1.683-1.683s1.683,0.755,1.683,1.683
	s-0.755,1.683-1.683,1.683S104.926,102.372,104.926,101.444z M92.355,74.859c0-0.928,0.754-1.682,1.682-1.682
	s1.683,0.754,1.683,1.682s-0.755,1.683-1.683,1.683S92.355,75.787,92.355,74.859z M52.919,62.869c-0.928,0-1.682-0.755-1.682-1.683
	c0-0.927,0.754-1.682,1.682-1.682s1.682,0.755,1.682,1.682C54.601,62.114,53.847,62.869,52.919,62.869z M39.545,89.668
	c-0.928,0-1.682-0.754-1.682-1.682s0.754-1.682,1.682-1.682s1.682,0.754,1.682,1.682S40.473,89.668,39.545,89.668z"/>
</svg>
