<?xml version="1.0" encoding="utf-8"?>
<!-- Generator: Adobe Illustrator 16.0.0, SVG Export Plug-In . SVG Version: 6.00 Build 0)  -->
<!DOCTYPE svg PUBLIC "-//W3C//DTD SVG 1.1//EN" "http://www.w3.org/Graphics/SVG/1.1/DTD/svg11.dtd">
<svg version="1.1" id="Layer_1" xmlns="http://www.w3.org/2000/svg" xmlns:xlink="http://www.w3.org/1999/xlink" x="0px" y="0px"
	 width="144px" height="144px" viewBox="0 0 144 144" enable-background="new 0 0 144 144" xml:space="preserve">
<g opacity="0.1">
	<path fill="#4B2E83" d="M110.109,0H33.892c-5.944,0-10.78,4.836-10.78,10.78V133.22c0,5.944,4.836,10.78,10.78,10.78h76.218
		c5.943,0,10.779-4.836,10.779-10.78V10.78C120.889,4.836,116.053,0,110.109,0z M33.892,4.77h76.218c3.313,0,6.01,2.696,6.01,6.01
		v14.239H27.881V10.78C27.881,7.466,30.577,4.77,33.892,4.77z M116.119,29.789v84.422H27.881V29.789H116.119L116.119,29.789z
		 M110.109,139.23H33.892c-3.314,0-6.01-2.697-6.01-6.011V118.98h88.238v14.239C116.119,136.533,113.423,139.23,110.109,139.23z"/>
	<path fill="#4B2E83" d="M72,121.148c-4.471,0-8.108,3.638-8.108,8.108c0,4.472,3.637,8.108,8.108,8.108
		c4.472,0,8.108-3.637,8.108-8.108C80.108,124.786,76.472,121.148,72,121.148z M72,132.596c-1.841,0-3.338-1.498-3.338-3.339
		s1.498-3.339,3.338-3.339s3.339,1.498,3.339,3.339S73.841,132.596,72,132.596z"/>
	<path fill="#4B2E83" d="M37.062,68.132c0.356,0.916,1.239,1.519,2.222,1.519h6.463v37.146c0,1.317,1.067,2.385,2.385,2.385h47.736
		c1.317,0,2.386-1.067,2.386-2.385V69.651h6.462c0.983,0,1.866-0.603,2.222-1.519c0.357-0.916,0.115-1.957-0.607-2.622
		L73.613,35.447c-0.912-0.839-2.314-0.839-3.227,0L37.67,65.51C36.947,66.175,36.705,67.216,37.062,68.132z M72,40.442
		l26.596,24.439h-2.727c-1.318,0-2.386,1.068-2.386,2.385v37.146H50.517V67.266c0-1.317-1.067-2.385-2.385-2.385h-2.728L72,40.442z"
		/>
	<path fill="#4B2E83" d="M62.938,93.962h18.125c1.317,0,2.385-1.067,2.385-2.385V72.021c0-1.317-1.067-2.385-2.385-2.385H62.938
		c-1.317,0-2.385,1.067-2.385,2.385v19.556C60.553,92.895,61.621,93.962,62.938,93.962z M65.323,74.406h13.355v14.785H65.323V74.406
		z"/>
	<path fill="#4B2E83" d="M59.122,17.711h25.756c1.317,0,2.386-1.068,2.386-2.385c0-1.317-1.068-2.385-2.386-2.385H59.122
		c-1.317,0-2.385,1.068-2.385,2.385C56.737,16.644,57.805,17.711,59.122,17.711z"/>
</g>
</svg>
