<?xml version="1.0" encoding="utf-8"?>
<!-- Generator: Adobe Illustrator 16.0.0, SVG Export Plug-In . SVG Version: 6.00 Build 0)  -->
<!DOCTYPE svg PUBLIC "-//W3C//DTD SVG 1.1//EN" "http://www.w3.org/Graphics/SVG/1.1/DTD/svg11.dtd">
<svg version="1.1" id="Layer_1" xmlns="http://www.w3.org/2000/svg" xmlns:xlink="http://www.w3.org/1999/xlink" x="0px" y="0px"
	 width="120.805px" height="87px" viewBox="15.804 16.412 120.805 87" enable-background="new 15.804 16.412 120.805 87"
	 xml:space="preserve">
<path fill="#FFFFFF" d="M124.571,52.33h-0.22c-2.249-11.078-22.763-19.677-47.229-19.677c-24.469,0-44.98,8.599-47.229,19.677
	h-0.222c-4.658,0-8.448,3.791-8.445,8.514l1.945,19.762c0,4.658,3.791,8.449,8.451,8.449h91.324c4.659,0,8.45-3.791,8.448-8.396
	l1.627-19.878C133.022,56.121,129.231,52.33,124.571,52.33z"/>
<g>
	<path fill="#33006F" d="M122.946,89.055H31.622c-4.66,0-8.451-3.791-8.451-8.449l-1.945-19.762
		c-0.003-4.723,3.787-8.514,8.445-8.514h0.222c2.249-11.078,22.762-19.677,47.229-19.677s44.98,8.599,47.229,19.677h0.22
		c4.659,0,8.45,3.791,8.45,8.45l-1.627,19.878C131.397,85.264,127.606,89.055,122.946,89.055 M29.671,53.63
		c-3.94,0-7.148,3.208-7.148,7.15l1.945,19.761c0.005,4.006,3.211,7.214,7.154,7.214h91.324c3.941,0,7.149-3.208,7.149-7.149
		l1.628-19.878c-0.003-3.889-3.211-7.097-7.152-7.097h-1.328l-0.081-0.556c-1.57-10.723-21.795-19.121-46.04-19.121
		c-24.246,0-44.471,8.398-46.041,19.121l-0.082,0.556H29.671z"/>
	<rect x="30.439" y="52.33" fill="#33006F" width="93.365" height="1.3"/>
</g>
</svg>
