<?xml version="1.0" encoding="utf-8"?>
<!-- Generator: Adobe Illustrator 16.0.0, SVG Export Plug-In . SVG Version: 6.00 Build 0)  -->
<!DOCTYPE svg PUBLIC "-//W3C//DTD SVG 1.1//EN" "http://www.w3.org/Graphics/SVG/1.1/DTD/svg11.dtd">
<svg version="1.1" id="Layer_1" xmlns="http://www.w3.org/2000/svg" xmlns:xlink="http://www.w3.org/1999/xlink" x="0px" y="0px"
	 width="94.805px" height="66px" viewBox="41.804 24.412 94.805 66" enable-background="new 41.804 24.412 94.805 66"
	 xml:space="preserve">
<path fill="#FFFFFF" d="M129.326,53.905v-3.587c0-3.113-2.533-5.647-5.646-5.647H60.172c-3.111,0-5.646,2.534-5.646,5.647v21.056
	c0,3.112,2.534,5.646,5.646,5.646h63.509c3.112,0,5.646-2.533,5.646-5.646v-3.589c1.74-0.324,2.65-3.646,2.649-6.939
	C131.975,57.553,131.066,54.229,129.326,53.905z"/>
<g>
	<path fill="#33006F" d="M123.679,77.02H60.172c-3.111,0-5.646-2.533-5.646-5.646V50.318c0-3.113,2.534-5.647,5.646-5.647h63.509
		c3.112,0,5.646,2.534,5.646,5.647v21.055C129.326,74.486,126.793,77.02,123.679,77.02 M60.172,45.926
		c-2.422,0-4.392,1.971-4.392,4.393v21.055c0,2.421,1.97,4.392,4.392,4.392h63.509c2.422,0,4.392-1.971,4.392-4.392V50.318
		c0-2.422-1.97-4.393-4.392-4.393L60.172,45.926L60.172,45.926z"/>
	<path fill="#FFFFFF" d="M131.348,60.846c0,3.503-1.03,6.343-2.302,6.343c-1.271,0-2.301-2.84-2.301-6.343
		c0-3.504,1.03-6.344,2.301-6.344C130.318,54.502,131.348,57.342,131.348,60.846"/>
	<path fill="#33006F" d="M129.047,67.816c-1.923,0-2.928-3.508-2.928-6.973s1.005-6.972,2.928-6.972c1.925,0,2.93,3.507,2.93,6.972
		C131.976,64.311,130.97,67.816,129.047,67.816 M129.047,55.129c-0.566,0-1.673,2.018-1.673,5.717c0,3.699,1.105,5.716,1.673,5.716
		c0.568,0,1.675-2.019,1.675-5.716C130.72,57.147,129.615,55.129,129.047,55.129"/>
</g>
</svg>
