<?xml version="1.0" encoding="utf-8"?>
<!-- Generator: Adobe Illustrator 16.0.0, SVG Export Plug-In . SVG Version: 6.00 Build 0)  -->
<!DOCTYPE svg PUBLIC "-//W3C//DTD SVG 1.1//EN" "http://www.w3.org/Graphics/SVG/1.1/DTD/svg11.dtd">
<svg version="1.1" id="Layer_1" xmlns="http://www.w3.org/2000/svg" xmlns:xlink="http://www.w3.org/1999/xlink" x="0px" y="0px"
	 width="213.072px" height="356.739px" viewBox="0 0 213.072 356.739" enable-background="new 0 0 213.072 356.739"
	 xml:space="preserve">
<g opacity="0.3">
	<line fill="none" stroke="#FFFFFF" stroke-width="0.5397" stroke-miterlimit="10" x1="10.005" y1="0" x2="-97.893" y2="360.006"/>
	<line fill="none" stroke="#FFFFFF" stroke-width="0.5397" stroke-miterlimit="10" x1="16.084" y1="0" x2="-91.814" y2="360.006"/>
	<line fill="none" stroke="#FFFFFF" stroke-width="0.5397" stroke-miterlimit="10" x1="22.163" y1="0" x2="-85.735" y2="360.006"/>
	<line fill="none" stroke="#FFFFFF" stroke-width="0.5397" stroke-miterlimit="10" x1="28.241" y1="0" x2="-79.657" y2="360.006"/>
	<line fill="none" stroke="#FFFFFF" stroke-width="0.5397" stroke-miterlimit="10" x1="34.32" y1="0" x2="-73.578" y2="360.006"/>
	<line fill="none" stroke="#FFFFFF" stroke-width="0.5397" stroke-miterlimit="10" x1="40.398" y1="0" x2="-67.5" y2="360.006"/>
	<line fill="none" stroke="#FFFFFF" stroke-width="0.5397" stroke-miterlimit="10" x1="46.477" y1="0" x2="-61.421" y2="360.006"/>
	<line fill="none" stroke="#FFFFFF" stroke-width="0.5397" stroke-miterlimit="10" x1="52.556" y1="0" x2="-55.342" y2="360.006"/>
	<line fill="none" stroke="#FFFFFF" stroke-width="0.5397" stroke-miterlimit="10" x1="58.635" y1="0" x2="-49.263" y2="360.006"/>
	<line fill="none" stroke="#FFFFFF" stroke-width="0.5397" stroke-miterlimit="10" x1="64.714" y1="0" x2="-43.184" y2="360.006"/>
	<line fill="none" stroke="#FFFFFF" stroke-width="0.5397" stroke-miterlimit="10" x1="70.793" y1="0" x2="-37.105" y2="360.006"/>
	<line fill="none" stroke="#FFFFFF" stroke-width="0.5397" stroke-miterlimit="10" x1="76.871" y1="0" x2="-31.027" y2="360.006"/>
	<line fill="none" stroke="#FFFFFF" stroke-width="0.5397" stroke-miterlimit="10" x1="82.95" y1="0" x2="-24.948" y2="360.006"/>
	<line fill="none" stroke="#FFFFFF" stroke-width="0.5397" stroke-miterlimit="10" x1="89.028" y1="0" x2="-18.869" y2="360.006"/>
	<line fill="none" stroke="#FFFFFF" stroke-width="0.5397" stroke-miterlimit="10" x1="95.107" y1="0" x2="-12.791" y2="360.006"/>
	<line fill="none" stroke="#FFFFFF" stroke-width="0.5397" stroke-miterlimit="10" x1="101.186" y1="0" x2="-6.711" y2="360.006"/>
	<line fill="none" stroke="#FFFFFF" stroke-width="0.5397" stroke-miterlimit="10" x1="107.265" y1="0" x2="-0.633" y2="360.006"/>
	<line fill="none" stroke="#FFFFFF" stroke-width="0.5397" stroke-miterlimit="10" x1="113.344" y1="0" x2="5.445" y2="360.006"/>
	<line fill="none" stroke="#FFFFFF" stroke-width="0.5397" stroke-miterlimit="10" x1="119.423" y1="0" x2="11.525" y2="360.006"/>
	<line fill="none" stroke="#FFFFFF" stroke-width="0.5397" stroke-miterlimit="10" x1="125.502" y1="0" x2="17.603" y2="360.006"/>
	<line fill="none" stroke="#FFFFFF" stroke-width="0.5397" stroke-miterlimit="10" x1="131.58" y1="0" x2="23.682" y2="360.006"/>
	<line fill="none" stroke="#FFFFFF" stroke-width="0.5397" stroke-miterlimit="10" x1="137.658" y1="0" x2="29.761" y2="360.006"/>
	<line fill="none" stroke="#FFFFFF" stroke-width="0.5397" stroke-miterlimit="10" x1="143.737" y1="0" x2="35.84" y2="360.006"/>
	<line fill="none" stroke="#FFFFFF" stroke-width="0.5397" stroke-miterlimit="10" x1="149.816" y1="0" x2="41.917" y2="360.006"/>
	<line fill="none" stroke="#FFFFFF" stroke-width="0.5397" stroke-miterlimit="10" x1="155.895" y1="0" x2="47.997" y2="360.006"/>
	<line fill="none" stroke="#FFFFFF" stroke-width="0.5397" stroke-miterlimit="10" x1="161.974" y1="0" x2="54.076" y2="360.006"/>
</g>
</svg>
