<?xml version="1.0" encoding="utf-8"?>
<!-- Generator: Adobe Illustrator 16.0.0, SVG Export Plug-In . SVG Version: 6.00 Build 0)  -->
<!DOCTYPE svg PUBLIC "-//W3C//DTD SVG 1.1//EN" "http://www.w3.org/Graphics/SVG/1.1/DTD/svg11.dtd">
<svg version="1.1" id="Layer_1" xmlns="http://www.w3.org/2000/svg" xmlns:xlink="http://www.w3.org/1999/xlink" x="0px" y="0px"
	 width="21.082px" height="21.092px" viewBox="0 0 21.082 21.092" enable-background="new 0 0 21.082 21.092" xml:space="preserve">
<path fill="#FFFFFF" d="M10.545,21.092C4.73,21.092,0,16.361,0,10.546C0,4.73,4.73,0,10.54,0s10.542,4.73,10.542,10.546
	C21.094,16.357,16.364,21.092,10.545,21.092L10.545,21.092z M10.545,1.916c-4.757,0-8.627,3.872-8.627,8.629
	c0,4.758,3.87,8.627,8.627,8.627c4.758,0,8.627-3.871,8.627-8.627c0-4.758-3.87-8.629-8.63-8.629H10.545z"/>
<rect x="6.715" y="9.585" fill="#FFFFFF" width="7.667" height="1.918"/>
<rect x="9.585" y="6.71" fill="#FFFFFF" width="1.918" height="7.669"/>
</svg>
