<?xml version="1.0" encoding="utf-8"?>
<!-- Generator: Adobe Illustrator 16.0.0, SVG Export Plug-In . SVG Version: 6.00 Build 0)  -->
<!DOCTYPE svg PUBLIC "-//W3C//DTD SVG 1.1//EN" "http://www.w3.org/Graphics/SVG/1.1/DTD/svg11.dtd">
<svg version="1.1" id="Layer_1" xmlns="http://www.w3.org/2000/svg" xmlns:xlink="http://www.w3.org/1999/xlink" x="0px" y="0px"
	 width="30.281px" height="91.683px" viewBox="0 0 30.281 91.683" enable-background="new 0 0 30.281 91.683" xml:space="preserve">
<polygon fill="#D6D8D9" points="0,10.618 0,14.274 3.93,0 2.923,0 "/>
<polygon fill="#D6D8D9" points="0,28.945 0,32.6 8.976,0 7.969,0 "/>
<polygon fill="#D6D8D9" points="0,47.272 0,50.927 14.022,0 13.016,0 "/>
<polygon fill="#D6D8D9" points="0,65.6 0,69.253 19.068,0 18.061,0 "/>
<polygon fill="#D6D8D9" points="0,83.921 0,87.577 24.113,0 23.107,0 "/>
<polygon fill="#D6D8D9" points="28.153,0 2.909,91.683 3.916,91.683 29.159,0 "/>
<polygon fill="#D6D8D9" points="8.96,91.683 30.273,14.277 30.273,10.621 7.954,91.683 "/>
<polygon fill="#D6D8D9" points="14.007,91.683 30.273,32.604 30.273,28.948 13,91.683 "/>
<polygon fill="#D6D8D9" points="19.052,91.683 30.273,50.929 30.273,47.274 18.046,91.683 "/>
<polygon fill="#D6D8D9" points="24.099,91.683 30.273,69.257 30.273,65.602 23.092,91.683 "/>
<polygon fill="#D6D8D9" points="29.144,91.683 30.273,87.58 30.273,83.926 28.138,91.683 "/>
</svg>
