<?xml version="1.0" encoding="utf-8"?>
<!-- Generator: Adobe Illustrator 16.0.0, SVG Export Plug-In . SVG Version: 6.00 Build 0)  -->
<!DOCTYPE svg PUBLIC "-//W3C//DTD SVG 1.1//EN" "http://www.w3.org/Graphics/SVG/1.1/DTD/svg11.dtd">
<svg version="1.1" id="Layer_1" xmlns="http://www.w3.org/2000/svg" xmlns:xlink="http://www.w3.org/1999/xlink" x="0px" y="0px"
	 width="150px" height="150px" viewBox="0 0 150 150" enable-background="new 0 0 150 150" xml:space="preserve">
<ellipse fill="none" stroke="#FFFFFF" stroke-width="3.8211" stroke-linecap="round" stroke-linejoin="round" stroke-miterlimit="10" cx="74.305" cy="74.159" rx="67.183" ry="68.042"/>
<g>
	
		<path fill="none" stroke="#FFFFFF" stroke-width="3.8211" stroke-linecap="round" stroke-linejoin="round" stroke-miterlimit="10" d="
		M82.411,62.013c-3.421,0-6.408,2.132-8.069,5.318c-1.666-3.186-4.654-5.318-8.075-5.318c-5.229,0-9.471,4.972-9.471,11.106
		c0,6.135,9.394,12.654,17.546,22.213c7.208-8.457,17.544-16.078,17.544-22.213C91.886,66.985,87.644,62.013,82.411,62.013z"/>
</g>
<path fill="none" stroke="#FFFFFF" stroke-width="3.8211" stroke-linecap="round" stroke-linejoin="round" stroke-miterlimit="10" d="
	M102.921,102.348c0,2.783-2.278,5.062-5.063,5.062H50.823c-2.785,0-5.064-2.279-5.064-5.062V53.292c0-2.785,2.279-5.062,5.064-5.062
	h47.034c2.785,0,5.063,2.277,5.063,5.062V102.348z"/>
<path fill="none" stroke="#FFFFFF" stroke-width="3.8211" stroke-linecap="round" stroke-linejoin="round" stroke-miterlimit="10" d="
	M61.869,48.23c0,0,0-2.504,0-5.566c0-3.062,4.412-5.564,9.801-5.564h5.338c5.391,0,9.805,2.502,9.805,5.564c0,3.062,0,5.566,0,5.566
	"/>
<line fill="none" stroke="#FFFFFF" stroke-width="3.8211" stroke-linecap="round" stroke-linejoin="round" stroke-miterlimit="10" x1="137.581" y1="2.932" x2="137.581" y2="19.7"/>
<line fill="none" stroke="#FFFFFF" stroke-width="3.8211" stroke-linecap="round" stroke-linejoin="round" stroke-miterlimit="10" x1="145.966" y1="11.315" x2="129.197" y2="11.315"/>
</svg>
