<?xml version="1.0" encoding="utf-8"?>
<!-- Generator: Adobe Illustrator 16.0.0, SVG Export Plug-In . SVG Version: 6.00 Build 0)  -->
<!DOCTYPE svg PUBLIC "-//W3C//DTD SVG 1.1//EN" "http://www.w3.org/Graphics/SVG/1.1/DTD/svg11.dtd">
<svg version="1.1" id="Layer_1" xmlns="http://www.w3.org/2000/svg" xmlns:xlink="http://www.w3.org/1999/xlink" x="0px" y="0px"
	 width="150px" height="150px" viewBox="0 0 150 150" enable-background="new 0 0 150 150" xml:space="preserve">
<polygon fill="none" stroke="#FFFFFF" stroke-width="3.424" stroke-linecap="round" stroke-linejoin="round" stroke-miterlimit="10" points="
	110.523,90.628 103.291,97.952 33.045,97.952 33.045,90.628 63.516,90.628 63.516,84.352 110.523,84.352 "/>
<line fill="none" stroke="#FFFFFF" stroke-width="3.424" stroke-linecap="round" stroke-linejoin="round" stroke-miterlimit="10" x1="109.229" y1="63.428" x2="109.229" y2="83.307"/>
<line fill="none" stroke="#FFFFFF" stroke-width="3.424" stroke-linecap="round" stroke-linejoin="round" stroke-miterlimit="10" x1="99.678" y1="63.428" x2="99.678" y2="83.307"/>
<line fill="none" stroke="#FFFFFF" stroke-width="3.424" stroke-linecap="round" stroke-linejoin="round" stroke-miterlimit="10" x1="90.12" y1="63.428" x2="90.12" y2="83.307"/>
<line fill="none" stroke="#FFFFFF" stroke-width="3.424" stroke-linecap="round" stroke-linejoin="round" stroke-miterlimit="10" x1="80.562" y1="63.428" x2="80.562" y2="83.307"/>
<line fill="none" stroke="#FFFFFF" stroke-width="3.424" stroke-linecap="round" stroke-linejoin="round" stroke-miterlimit="10" x1="71.011" y1="63.428" x2="71.011" y2="83.307"/>
<path fill="none" stroke="#FFFFFF" stroke-width="3.424" stroke-linecap="round" stroke-linejoin="round" stroke-miterlimit="10" d="
	M66.068,60.071c0,0,4.072-3.963,8.921-3.963h26.914c0,0,9.396-0.792,9.396-10.776v-6.659c0,0-1.572,3.804-9.548,3.804h-27.23
	C74.521,42.477,65.289,42.795,66.068,60.071z"/>
<ellipse fill="none" stroke="#FFFFFF" stroke-width="3.8211" stroke-linecap="round" stroke-linejoin="round" stroke-miterlimit="10" cx="74.305" cy="74.159" rx="67.183" ry="68.042"/>
<line fill="none" stroke="#FFFFFF" stroke-width="3.8211" stroke-linecap="round" stroke-linejoin="round" stroke-miterlimit="10" x1="137.581" y1="2.965" x2="137.581" y2="19.733"/>
<line fill="none" stroke="#FFFFFF" stroke-width="3.8211" stroke-linecap="round" stroke-linejoin="round" stroke-miterlimit="10" x1="145.966" y1="11.349" x2="129.197" y2="11.349"/>
</svg>
