<?xml version="1.0" encoding="utf-8"?>
<!-- Generator: Adobe Illustrator 16.0.0, SVG Export Plug-In . SVG Version: 6.00 Build 0)  -->
<!DOCTYPE svg PUBLIC "-//W3C//DTD SVG 1.1//EN" "http://www.w3.org/Graphics/SVG/1.1/DTD/svg11.dtd">
<svg version="1.1" id="Layer_1" xmlns="http://www.w3.org/2000/svg" xmlns:xlink="http://www.w3.org/1999/xlink" x="0px" y="0px"
	 width="150px" height="150px" viewBox="0 0 150 150" enable-background="new 0 0 150 150" xml:space="preserve">
<path fill="none" stroke="#FFFFFF" stroke-width="3.5094" stroke-linecap="round" stroke-linejoin="round" stroke-miterlimit="10" d="
	M65.578,112.717c-2.361-0.949-5.041-4.525-6.648-6.472c-1.919-2.315-3.583-6.163-4.206-9.043
	c-1.243-5.765-0.741-12.083-0.466-17.927c0.131-2.795,0.248-5.539-0.929-8.042c-1.326-2.809-3.39-4.959-4.555-7.86
	c-2.319-5.789-3.348-14.646,0-20.233c3.53-5.898,9.459-8.667,16.13-8.652c3.276,0.007,5.726-0.155,8.5,1.561
	c2.088,1.293,4.125,2.363,6.209,3.667"/>
<path fill="none" stroke="#FFFFFF" stroke-width="3.5094" stroke-linecap="round" stroke-linejoin="round" stroke-miterlimit="10" d="
	M73.953,34.736c5.445,1.576,11.004-1.196,16.242-0.747c5.025,0.431,8.556,5.259,9.111,9.718c0.77,6.122-0.172,10.979-2.48,16.515
	c-2.225,5.322-3.178,10.629-3.184,16.61c-0.004,3.744,0.828,7.227,1.178,10.902c0.377,3.979-0.481,6.818-1.797,10.406
	c-1.297,3.52-2.256,6.961-4.719,9.967c-1.904,2.332-6.261,6.615-9.16,7.031c0.506-6.24,3.504-11.977,1.941-18.424
	c-1.133-4.713-5.672-10.986-9.053-14.363c-0.458,1.375-1.457,2.082-2.268,3.209c-1.064,1.483-1.8,3.284-2.625,4.967
	c-1.322,2.679-1.972,5.018-2.299,7.975c-0.445,3.992-1.302,10.786,0.735,14.213"/>
<ellipse fill="none" stroke="#FFFFFF" stroke-width="3.9165" stroke-linecap="round" stroke-linejoin="round" stroke-miterlimit="10" cx="75.779" cy="74.54" rx="68.885" ry="69.716"/>
<line fill="none" stroke="#FFFFFF" stroke-width="3.8211" stroke-linecap="round" stroke-linejoin="round" stroke-miterlimit="10" x1="137.581" y1="2.932" x2="137.581" y2="19.7"/>
<line fill="none" stroke="#FFFFFF" stroke-width="3.8211" stroke-linecap="round" stroke-linejoin="round" stroke-miterlimit="10" x1="145.966" y1="11.315" x2="129.197" y2="11.315"/>
</svg>
