<?xml version="1.0" encoding="utf-8"?>
<!-- Generator: Adobe Illustrator 22.1.0, SVG Export Plug-In . SVG Version: 6.00 Build 0)  -->
<svg version="1.1" id="Layer_1" xmlns="http://www.w3.org/2000/svg" xmlns:xlink="http://www.w3.org/1999/xlink" x="0px" y="0px"
	 viewBox="0 0 108.7 31" style="enable-background:new 0 0 108.7 31;" xml:space="preserve">
<style type="text/css">
	.st0{fill:#FFFFFF;}
	.st1{fill:#B6A87D;}
	.st2{opacity:0.16;}
	.st3{filter:url(#Adobe_OpacityMaskFilter);}
	.st4{opacity:0;mask:url(#SVGID_1_);}
	.st5{fill:#070808;}
	.st6{font-family:'UniSansLight';}
	.st7{font-size:12px;}
	.st8{fill:#82774F;}
	.st9{opacity:0.72;fill:#82774F;}
	.st10{fill:none;stroke:#FFFFFF;stroke-width:0.25;stroke-miterlimit:10;}
</style>
<polygon class="st0" points="98,28.4 4,28.4 4.3,3.4 104.7,3.4 "/>
<polygon class="st1" points="5.4,27.4 5.4,4.4 103.5,4.4 97.6,27.4 "/>
<g class="st2">
	<g>
		<polygon class="st0" points="5.4,27.4 5.4,4.4 52.4,4.4 46.5,27.4 		"/>
	</g>
	<defs>
		<filter id="Adobe_OpacityMaskFilter" filterUnits="userSpaceOnUse" x="5.4" y="4.4" width="47" height="23">

				<feColorMatrix  type="matrix" values="-1 0 0 0 1  0 -1 0 0 1  0 0 -1 0 1  0 0 0 1 0" color-interpolation-filters="sRGB" result="source"/>
		</filter>
	</defs>
	<g class="st4">
		<polygon class="st5" points="5.4,27.4 5.4,4.4 52.4,4.4 46.5,27.4 		"/>
	</g>
</g>
<text transform="matrix(1 0 0 1 19.328 20.4167)" class="st0 st6 st7">ON</text>
<text transform="matrix(1 0 0 1 64.9947 20.4167)" class="st8 st6 st7">OFF</text>
<polygon class="st9" points="45.7,27.4 51.6,4.4 52.3,4.4 46.4,27.4 "/>
<line class="st10" x1="19.3" y1="23" x2="35.7" y2="23"/>
</svg>
