<?xml version="1.0" encoding="utf-8"?>
<!-- Generator: Adobe Illustrator 16.0.0, SVG Export Plug-In . SVG Version: 6.00 Build 0)  -->
<!DOCTYPE svg PUBLIC "-//W3C//DTD SVG 1.1//EN" "http://www.w3.org/Graphics/SVG/1.1/DTD/svg11.dtd">
<svg version="1.1" id="Layer_1" xmlns="http://www.w3.org/2000/svg" xmlns:xlink="http://www.w3.org/1999/xlink" x="0px" y="0px"
	 width="2651px" height="635px" viewBox="0 -30 2651 635" enable-background="new 0 -30 2651 635" xml:space="preserve">
<g opacity="0.5">
	
		<line fill="none" stroke="#FFFFFF" stroke-width="0.8257" stroke-miterlimit="10" x1="204.878" y1="-32.084" x2="7.86" y2="606.841"/>
	
		<line fill="none" stroke="#FFFFFF" stroke-width="0.8257" stroke-miterlimit="10" x1="214.292" y1="-32.084" x2="17.274" y2="606.841"/>
	
		<line fill="none" stroke="#FFFFFF" stroke-width="0.8257" stroke-miterlimit="10" x1="223.707" y1="-32.084" x2="26.689" y2="606.841"/>
	
		<line fill="none" stroke="#FFFFFF" stroke-width="0.8257" stroke-miterlimit="10" x1="233.121" y1="-32.084" x2="36.103" y2="606.841"/>
	
		<line fill="none" stroke="#FFFFFF" stroke-width="0.8257" stroke-miterlimit="10" x1="242.535" y1="-32.084" x2="45.517" y2="606.841"/>
	
		<line fill="none" stroke="#FFFFFF" stroke-width="0.8257" stroke-miterlimit="10" x1="251.949" y1="-32.084" x2="54.931" y2="606.841"/>
	
		<line fill="none" stroke="#FFFFFF" stroke-width="0.8257" stroke-miterlimit="10" x1="261.363" y1="-32.084" x2="64.345" y2="606.841"/>
	
		<line fill="none" stroke="#FFFFFF" stroke-width="0.8257" stroke-miterlimit="10" x1="270.778" y1="-32.084" x2="73.76" y2="606.841"/>
	
		<line fill="none" stroke="#FFFFFF" stroke-width="0.8257" stroke-miterlimit="10" x1="280.191" y1="-32.084" x2="83.173" y2="606.841"/>
	
		<line fill="none" stroke="#FFFFFF" stroke-width="0.8257" stroke-miterlimit="10" x1="289.606" y1="-32.084" x2="92.588" y2="606.841"/>
	
		<line fill="none" stroke="#FFFFFF" stroke-width="0.8257" stroke-miterlimit="10" x1="299.02" y1="-32.084" x2="102.002" y2="606.841"/>
	
		<line fill="none" stroke="#FFFFFF" stroke-width="0.8257" stroke-miterlimit="10" x1="308.434" y1="-32.084" x2="111.416" y2="606.841"/>
	
		<line fill="none" stroke="#FFFFFF" stroke-width="0.8257" stroke-miterlimit="10" x1="317.848" y1="-32.084" x2="120.83" y2="606.841"/>
	
		<line fill="none" stroke="#FFFFFF" stroke-width="0.8257" stroke-miterlimit="10" x1="327.262" y1="-32.084" x2="130.244" y2="606.841"/>
	
		<line fill="none" stroke="#FFFFFF" stroke-width="0.8257" stroke-miterlimit="10" x1="336.677" y1="-32.084" x2="139.659" y2="606.841"/>
	
		<line fill="none" stroke="#FFFFFF" stroke-width="0.8257" stroke-miterlimit="10" x1="346.092" y1="-32.084" x2="149.073" y2="606.841"/>
	
		<line fill="none" stroke="#FFFFFF" stroke-width="0.8257" stroke-miterlimit="10" x1="355.505" y1="-32.084" x2="158.487" y2="606.841"/>
	
		<line fill="none" stroke="#FFFFFF" stroke-width="0.8257" stroke-miterlimit="10" x1="364.919" y1="-32.084" x2="167.901" y2="606.841"/>
	
		<line fill="none" stroke="#FFFFFF" stroke-width="0.8257" stroke-miterlimit="10" x1="374.333" y1="-32.084" x2="177.315" y2="606.841"/>
	
		<line fill="none" stroke="#FFFFFF" stroke-width="0.8257" stroke-miterlimit="10" x1="383.747" y1="-32.084" x2="186.729" y2="606.84"/>
	
		<line fill="none" stroke="#FFFFFF" stroke-width="0.8257" stroke-miterlimit="10" x1="393.161" y1="-32.084" x2="196.144" y2="606.841"/>
	
		<line fill="none" stroke="#FFFFFF" stroke-width="0.8257" stroke-miterlimit="10" x1="402.575" y1="-32.084" x2="205.558" y2="606.841"/>
	
		<line fill="none" stroke="#FFFFFF" stroke-width="0.8257" stroke-miterlimit="10" x1="411.99" y1="-32.084" x2="214.972" y2="606.841"/>
	
		<line fill="none" stroke="#FFFFFF" stroke-width="0.8257" stroke-miterlimit="10" x1="421.404" y1="-32.083" x2="224.386" y2="606.841"/>
	
		<line fill="none" stroke="#FFFFFF" stroke-width="0.8257" stroke-miterlimit="10" x1="430.818" y1="-32.084" x2="233.8" y2="606.841"/>
	
		<line fill="none" stroke="#FFFFFF" stroke-width="0.8257" stroke-miterlimit="10" x1="440.232" y1="-32.084" x2="243.214" y2="606.841"/>
	
		<line fill="none" stroke="#FFFFFF" stroke-width="0.8257" stroke-miterlimit="10" x1="449.646" y1="-32.083" x2="252.629" y2="606.841"/>
	
		<line fill="none" stroke="#FFFFFF" stroke-width="0.8257" stroke-miterlimit="10" x1="459.061" y1="-32.084" x2="262.042" y2="606.841"/>
	
		<line fill="none" stroke="#FFFFFF" stroke-width="0.8257" stroke-miterlimit="10" x1="468.475" y1="-32.084" x2="271.457" y2="606.841"/>
	
		<line fill="none" stroke="#FFFFFF" stroke-width="0.8257" stroke-miterlimit="10" x1="477.889" y1="-32.084" x2="280.871" y2="606.841"/>
	
		<line fill="none" stroke="#FFFFFF" stroke-width="0.8257" stroke-miterlimit="10" x1="487.304" y1="-32.084" x2="290.285" y2="606.841"/>
	
		<line fill="none" stroke="#FFFFFF" stroke-width="0.8257" stroke-miterlimit="10" x1="496.718" y1="-32.084" x2="299.7" y2="606.841"/>
	
		<line fill="none" stroke="#FFFFFF" stroke-width="0.8257" stroke-miterlimit="10" x1="506.131" y1="-32.084" x2="309.113" y2="606.841"/>
	
		<line fill="none" stroke="#FFFFFF" stroke-width="0.8257" stroke-miterlimit="10" x1="515.546" y1="-32.084" x2="318.527" y2="606.841"/>
	
		<line fill="none" stroke="#FFFFFF" stroke-width="0.8257" stroke-miterlimit="10" x1="524.96" y1="-32.084" x2="327.941" y2="606.841"/>
	
		<line fill="none" stroke="#FFFFFF" stroke-width="0.8257" stroke-miterlimit="10" x1="534.374" y1="-32.084" x2="337.355" y2="606.841"/>
	
		<line fill="none" stroke="#FFFFFF" stroke-width="0.8257" stroke-miterlimit="10" x1="543.788" y1="-32.084" x2="346.77" y2="606.841"/>
	
		<line fill="none" stroke="#FFFFFF" stroke-width="0.8257" stroke-miterlimit="10" x1="553.202" y1="-32.084" x2="356.185" y2="606.841"/>
	
		<line fill="none" stroke="#FFFFFF" stroke-width="0.8257" stroke-miterlimit="10" x1="562.616" y1="-32.084" x2="365.599" y2="606.841"/>
	
		<line fill="none" stroke="#FFFFFF" stroke-width="0.8257" stroke-miterlimit="10" x1="572.031" y1="-32.084" x2="375.013" y2="606.841"/>
	
		<line fill="none" stroke="#FFFFFF" stroke-width="0.8257" stroke-miterlimit="10" x1="581.444" y1="-32.084" x2="384.427" y2="606.841"/>
	
		<line fill="none" stroke="#FFFFFF" stroke-width="0.8257" stroke-miterlimit="10" x1="590.858" y1="-32.084" x2="393.841" y2="606.841"/>
	
		<line fill="none" stroke="#FFFFFF" stroke-width="0.8257" stroke-miterlimit="10" x1="600.273" y1="-32.084" x2="403.255" y2="606.841"/>
	
		<line fill="none" stroke="#FFFFFF" stroke-width="0.8257" stroke-miterlimit="10" x1="609.688" y1="-32.084" x2="412.669" y2="606.841"/>
	
		<line fill="none" stroke="#FFFFFF" stroke-width="0.8257" stroke-miterlimit="10" x1="619.102" y1="-32.084" x2="422.083" y2="606.841"/>
	
		<line fill="none" stroke="#FFFFFF" stroke-width="0.8257" stroke-miterlimit="10" x1="628.516" y1="-32.084" x2="431.498" y2="606.841"/>
	
		<line fill="none" stroke="#FFFFFF" stroke-width="0.8257" stroke-miterlimit="10" x1="637.93" y1="-32.084" x2="440.912" y2="606.841"/>
	
		<line fill="none" stroke="#FFFFFF" stroke-width="0.8257" stroke-miterlimit="10" x1="647.345" y1="-32.084" x2="450.326" y2="606.841"/>
	
		<line fill="none" stroke="#FFFFFF" stroke-width="0.8257" stroke-miterlimit="10" x1="656.758" y1="-32.084" x2="459.74" y2="606.841"/>
	
		<line fill="none" stroke="#FFFFFF" stroke-width="0.8257" stroke-miterlimit="10" x1="666.173" y1="-32.084" x2="469.154" y2="606.841"/>
	
		<line fill="none" stroke="#FFFFFF" stroke-width="0.8257" stroke-miterlimit="10" x1="675.587" y1="-32.084" x2="478.568" y2="606.841"/>
	
		<line fill="none" stroke="#FFFFFF" stroke-width="0.8257" stroke-miterlimit="10" x1="685" y1="-32.084" x2="487.982" y2="606.841"/>
	
		<line fill="none" stroke="#FFFFFF" stroke-width="0.8257" stroke-miterlimit="10" x1="694.415" y1="-32.084" x2="497.397" y2="606.841"/>
	
		<line fill="none" stroke="#FFFFFF" stroke-width="0.8257" stroke-miterlimit="10" x1="703.829" y1="-32.084" x2="506.812" y2="606.841"/>
	
		<line fill="none" stroke="#FFFFFF" stroke-width="0.8257" stroke-miterlimit="10" x1="713.243" y1="-32.083" x2="516.226" y2="606.841"/>
	
		<line fill="none" stroke="#FFFFFF" stroke-width="0.8257" stroke-miterlimit="10" x1="722.657" y1="-32.083" x2="525.64" y2="606.841"/>
	
		<line fill="none" stroke="#FFFFFF" stroke-width="0.8257" stroke-miterlimit="10" x1="732.071" y1="-32.084" x2="535.054" y2="606.841"/>
	
		<line fill="none" stroke="#FFFFFF" stroke-width="0.8257" stroke-miterlimit="10" x1="741.485" y1="-32.084" x2="544.468" y2="606.84"/>
	
		<line fill="none" stroke="#FFFFFF" stroke-width="0.8257" stroke-miterlimit="10" x1="750.899" y1="-32.084" x2="553.882" y2="606.841"/>
	
		<line fill="none" stroke="#FFFFFF" stroke-width="0.8257" stroke-miterlimit="10" x1="760.314" y1="-32.084" x2="563.297" y2="606.841"/>
	
		<line fill="none" stroke="#FFFFFF" stroke-width="0.8257" stroke-miterlimit="10" x1="769.729" y1="-32.084" x2="572.71" y2="606.841"/>
	
		<line fill="none" stroke="#FFFFFF" stroke-width="0.8257" stroke-miterlimit="10" x1="779.143" y1="-32.084" x2="582.124" y2="606.841"/>
	
		<line fill="none" stroke="#FFFFFF" stroke-width="0.8257" stroke-miterlimit="10" x1="788.557" y1="-32.084" x2="591.539" y2="606.841"/>
	
		<line fill="none" stroke="#FFFFFF" stroke-width="0.8257" stroke-miterlimit="10" x1="797.972" y1="-32.084" x2="600.953" y2="606.842"/>
	
		<line fill="none" stroke="#FFFFFF" stroke-width="0.8257" stroke-miterlimit="10" x1="807.386" y1="-32.084" x2="610.367" y2="606.841"/>
	
		<line fill="none" stroke="#FFFFFF" stroke-width="0.8257" stroke-miterlimit="10" x1="816.799" y1="-32.084" x2="619.781" y2="606.841"/>
	
		<line fill="none" stroke="#FFFFFF" stroke-width="0.8257" stroke-miterlimit="10" x1="826.214" y1="-32.084" x2="629.196" y2="606.841"/>
	
		<line fill="none" stroke="#FFFFFF" stroke-width="0.8257" stroke-miterlimit="10" x1="835.628" y1="-32.084" x2="638.61" y2="606.841"/>
	
		<line fill="none" stroke="#FFFFFF" stroke-width="0.8257" stroke-miterlimit="10" x1="845.042" y1="-32.084" x2="648.024" y2="606.841"/>
	
		<line fill="none" stroke="#FFFFFF" stroke-width="0.8257" stroke-miterlimit="10" x1="854.456" y1="-32.084" x2="657.438" y2="606.841"/>
	
		<line fill="none" stroke="#FFFFFF" stroke-width="0.8257" stroke-miterlimit="10" x1="863.87" y1="-32.084" x2="666.854" y2="606.841"/>
	
		<line fill="none" stroke="#FFFFFF" stroke-width="0.8257" stroke-miterlimit="10" x1="873.284" y1="-32.083" x2="676.267" y2="606.841"/>
	
		<line fill="none" stroke="#FFFFFF" stroke-width="0.8257" stroke-miterlimit="10" x1="882.699" y1="-32.084" x2="685.681" y2="606.841"/>
	
		<line fill="none" stroke="#FFFFFF" stroke-width="0.8257" stroke-miterlimit="10" x1="892.112" y1="-32.084" x2="695.095" y2="606.841"/>
	
		<line fill="none" stroke="#FFFFFF" stroke-width="0.8257" stroke-miterlimit="10" x1="901.527" y1="-32.084" x2="704.509" y2="606.841"/>
	
		<line fill="none" stroke="#FFFFFF" stroke-width="0.8257" stroke-miterlimit="10" x1="910.942" y1="-32.084" x2="713.924" y2="606.841"/>
	
		<line fill="none" stroke="#FFFFFF" stroke-width="0.8257" stroke-miterlimit="10" x1="920.355" y1="-32.084" x2="723.338" y2="606.841"/>
	
		<line fill="none" stroke="#FFFFFF" stroke-width="0.8257" stroke-miterlimit="10" x1="929.77" y1="-32.084" x2="732.751" y2="606.841"/>
	
		<line fill="none" stroke="#FFFFFF" stroke-width="0.8257" stroke-miterlimit="10" x1="939.185" y1="-32.084" x2="742.166" y2="606.841"/>
	
		<line fill="none" stroke="#FFFFFF" stroke-width="0.8257" stroke-miterlimit="10" x1="948.599" y1="-32.084" x2="751.581" y2="606.841"/>
	
		<line fill="none" stroke="#FFFFFF" stroke-width="0.8257" stroke-miterlimit="10" x1="958.013" y1="-32.084" x2="760.995" y2="606.841"/>
	
		<line fill="none" stroke="#FFFFFF" stroke-width="0.8257" stroke-miterlimit="10" x1="967.427" y1="-32.084" x2="770.408" y2="606.84"/>
	
		<line fill="none" stroke="#FFFFFF" stroke-width="0.8257" stroke-miterlimit="10" x1="976.841" y1="-32.084" x2="779.823" y2="606.841"/>
	
		<line fill="none" stroke="#FFFFFF" stroke-width="0.8257" stroke-miterlimit="10" x1="986.255" y1="-32.084" x2="789.237" y2="606.841"/>
	
		<line fill="none" stroke="#FFFFFF" stroke-width="0.8257" stroke-miterlimit="10" x1="995.669" y1="-32.084" x2="798.651" y2="606.841"/>
	
		<line fill="none" stroke="#FFFFFF" stroke-width="0.8257" stroke-miterlimit="10" x1="1005.083" y1="-32.084" x2="808.065" y2="606.841"/>
	
		<line fill="none" stroke="#FFFFFF" stroke-width="0.8257" stroke-miterlimit="10" x1="1014.498" y1="-32.084" x2="817.479" y2="606.841"/>
	
		<line fill="none" stroke="#FFFFFF" stroke-width="0.8257" stroke-miterlimit="10" x1="1023.912" y1="-32.084" x2="826.895" y2="606.842"/>
	
		<line fill="none" stroke="#FFFFFF" stroke-width="0.8257" stroke-miterlimit="10" x1="1033.326" y1="-32.084" x2="836.308" y2="606.841"/>
	
		<line fill="none" stroke="#FFFFFF" stroke-width="0.8257" stroke-miterlimit="10" x1="1042.74" y1="-32.084" x2="845.722" y2="606.841"/>
	
		<line fill="none" stroke="#FFFFFF" stroke-width="0.8257" stroke-miterlimit="10" x1="1052.154" y1="-32.084" x2="855.137" y2="606.841"/>
	
		<line fill="none" stroke="#FFFFFF" stroke-width="0.8257" stroke-miterlimit="10" x1="1061.569" y1="-32.083" x2="864.552" y2="606.841"/>
	
		<line fill="none" stroke="#FFFFFF" stroke-width="0.8257" stroke-miterlimit="10" x1="1070.983" y1="-32.084" x2="873.965" y2="606.841"/>
	
		<line fill="none" stroke="#FFFFFF" stroke-width="0.8257" stroke-miterlimit="10" x1="1080.396" y1="-32.084" x2="883.379" y2="606.841"/>
	
		<line fill="none" stroke="#FFFFFF" stroke-width="0.8257" stroke-miterlimit="10" x1="1089.812" y1="-32.084" x2="892.794" y2="606.841"/>
	
		<line fill="none" stroke="#FFFFFF" stroke-width="0.8257" stroke-miterlimit="10" x1="1099.226" y1="-32.083" x2="902.208" y2="606.841"/>
	
		<line fill="none" stroke="#FFFFFF" stroke-width="0.8257" stroke-miterlimit="10" x1="1108.64" y1="-32.084" x2="911.622" y2="606.841"/>
	
		<line fill="none" stroke="#FFFFFF" stroke-width="0.8257" stroke-miterlimit="10" x1="1118.054" y1="-32.084" x2="921.036" y2="606.841"/>
	
		<line fill="none" stroke="#FFFFFF" stroke-width="0.8257" stroke-miterlimit="10" x1="1127.468" y1="-32.084" x2="930.45" y2="606.841"/>
	
		<line fill="none" stroke="#FFFFFF" stroke-width="0.8257" stroke-miterlimit="10" x1="1136.882" y1="-32.084" x2="939.864" y2="606.841"/>
	
		<line fill="none" stroke="#FFFFFF" stroke-width="0.8257" stroke-miterlimit="10" x1="1146.297" y1="-32.084" x2="949.278" y2="606.841"/>
	
		<line fill="none" stroke="#FFFFFF" stroke-width="0.8257" stroke-miterlimit="10" x1="1155.71" y1="-32.084" x2="958.692" y2="606.84"/>
	
		<line fill="none" stroke="#FFFFFF" stroke-width="0.8257" stroke-miterlimit="10" x1="1165.125" y1="-32.084" x2="968.106" y2="606.841"/>
	
		<line fill="none" stroke="#FFFFFF" stroke-width="0.8257" stroke-miterlimit="10" x1="1174.54" y1="-32.084" x2="977.521" y2="606.841"/>
	
		<line fill="none" stroke="#FFFFFF" stroke-width="0.8257" stroke-miterlimit="10" x1="1183.953" y1="-32.084" x2="986.936" y2="606.841"/>
	
		<line fill="none" stroke="#FFFFFF" stroke-width="0.8257" stroke-miterlimit="10" x1="1193.367" y1="-32.084" x2="996.35" y2="606.84"/>
	
		<line fill="none" stroke="#FFFFFF" stroke-width="0.8257" stroke-miterlimit="10" x1="1202.782" y1="-32.084" x2="1005.765" y2="606.841"/>
	
		<line fill="none" stroke="#FFFFFF" stroke-width="0.8257" stroke-miterlimit="10" x1="1212.196" y1="-32.084" x2="1015.179" y2="606.842"/>
	
		<line fill="none" stroke="#FFFFFF" stroke-width="0.8257" stroke-miterlimit="10" x1="1221.61" y1="-32.084" x2="1024.593" y2="606.841"/>
	
		<line fill="none" stroke="#FFFFFF" stroke-width="0.8257" stroke-miterlimit="10" x1="1231.024" y1="-32.084" x2="1034.006" y2="606.841"/>
	
		<line fill="none" stroke="#FFFFFF" stroke-width="0.8257" stroke-miterlimit="10" x1="1240.438" y1="-32.084" x2="1043.421" y2="606.841"/>
	
		<line fill="none" stroke="#FFFFFF" stroke-width="0.8257" stroke-miterlimit="10" x1="1249.854" y1="-32.084" x2="1052.835" y2="606.842"/>
	
		<line fill="none" stroke="#FFFFFF" stroke-width="0.8257" stroke-miterlimit="10" x1="1259.267" y1="-32.084" x2="1062.249" y2="606.841"/>
	
		<line fill="none" stroke="#FFFFFF" stroke-width="0.8257" stroke-miterlimit="10" x1="1268.681" y1="-32.084" x2="1071.663" y2="606.841"/>
	
		<line fill="none" stroke="#FFFFFF" stroke-width="0.8257" stroke-miterlimit="10" x1="1278.096" y1="-32.084" x2="1081.077" y2="606.841"/>
	
		<line fill="none" stroke="#FFFFFF" stroke-width="0.8257" stroke-miterlimit="10" x1="1287.51" y1="-32.083" x2="1090.491" y2="606.841"/>
	
		<line fill="none" stroke="#FFFFFF" stroke-width="0.8257" stroke-miterlimit="10" x1="1296.924" y1="-32.084" x2="1099.905" y2="606.841"/>
	
		<line fill="none" stroke="#FFFFFF" stroke-width="0.8257" stroke-miterlimit="10" x1="1306.338" y1="-32.084" x2="1109.32" y2="606.841"/>
	
		<line fill="none" stroke="#FFFFFF" stroke-width="0.8257" stroke-miterlimit="10" x1="1315.752" y1="-32.084" x2="1118.734" y2="606.841"/>
	
		<line fill="none" stroke="#FFFFFF" stroke-width="0.8257" stroke-miterlimit="10" x1="1325.167" y1="-32.084" x2="1128.149" y2="606.841"/>
	
		<line fill="none" stroke="#FFFFFF" stroke-width="0.8257" stroke-miterlimit="10" x1="1334.581" y1="-32.084" x2="1137.562" y2="606.841"/>
	
		<line fill="none" stroke="#FFFFFF" stroke-width="0.8257" stroke-miterlimit="10" x1="1343.995" y1="-32.084" x2="1146.977" y2="606.841"/>
	
		<line fill="none" stroke="#FFFFFF" stroke-width="0.8257" stroke-miterlimit="10" x1="1353.409" y1="-32.084" x2="1156.392" y2="606.841"/>
	
		<line fill="none" stroke="#FFFFFF" stroke-width="0.8257" stroke-miterlimit="10" x1="1362.823" y1="-32.084" x2="1165.806" y2="606.841"/>
	
		<line fill="none" stroke="#FFFFFF" stroke-width="0.8257" stroke-miterlimit="10" x1="1372.237" y1="-32.084" x2="1175.22" y2="606.841"/>
	
		<line fill="none" stroke="#FFFFFF" stroke-width="0.8257" stroke-miterlimit="10" x1="1381.651" y1="-32.084" x2="1184.634" y2="606.84"/>
	
		<line fill="none" stroke="#FFFFFF" stroke-width="0.8257" stroke-miterlimit="10" x1="1391.066" y1="-32.084" x2="1194.048" y2="606.841"/>
	
		<line fill="none" stroke="#FFFFFF" stroke-width="0.8257" stroke-miterlimit="10" x1="1400.48" y1="-32.084" x2="1203.462" y2="606.841"/>
	
		<line fill="none" stroke="#FFFFFF" stroke-width="0.8257" stroke-miterlimit="10" x1="1409.895" y1="-32.084" x2="1212.877" y2="606.841"/>
	
		<line fill="none" stroke="#FFFFFF" stroke-width="0.8257" stroke-miterlimit="10" x1="1419.309" y1="-32.084" x2="1222.29" y2="606.84"/>
	
		<line fill="none" stroke="#FFFFFF" stroke-width="0.8257" stroke-miterlimit="10" x1="1428.723" y1="-32.084" x2="1231.705" y2="606.841"/>
	
		<line fill="none" stroke="#FFFFFF" stroke-width="0.8257" stroke-miterlimit="10" x1="1438.137" y1="-32.084" x2="1241.119" y2="606.841"/>
	
		<line fill="none" stroke="#FFFFFF" stroke-width="0.8257" stroke-miterlimit="10" x1="1447.551" y1="-32.084" x2="1250.533" y2="606.841"/>
	
		<line fill="none" stroke="#FFFFFF" stroke-width="0.8257" stroke-miterlimit="10" x1="1456.966" y1="-32.084" x2="1259.947" y2="606.841"/>
	
		<line fill="none" stroke="#FFFFFF" stroke-width="0.8257" stroke-miterlimit="10" x1="1466.379" y1="-32.084" x2="1269.361" y2="606.841"/>
	
		<line fill="none" stroke="#FFFFFF" stroke-width="0.8257" stroke-miterlimit="10" x1="1475.794" y1="-32.084" x2="1278.775" y2="606.841"/>
	
		<line fill="none" stroke="#FFFFFF" stroke-width="0.8257" stroke-miterlimit="10" x1="1485.207" y1="-32.084" x2="1288.189" y2="606.841"/>
	
		<line fill="none" stroke="#FFFFFF" stroke-width="0.8257" stroke-miterlimit="10" x1="1494.622" y1="-32.084" x2="1297.604" y2="606.841"/>
	
		<line fill="none" stroke="#FFFFFF" stroke-width="0.8257" stroke-miterlimit="10" x1="1504.036" y1="-32.084" x2="1307.018" y2="606.841"/>
	
		<line fill="none" stroke="#FFFFFF" stroke-width="0.8257" stroke-miterlimit="10" x1="1513.45" y1="-32.084" x2="1316.432" y2="606.841"/>
	
		<line fill="none" stroke="#FFFFFF" stroke-width="0.8257" stroke-miterlimit="10" x1="1522.864" y1="-32.084" x2="1325.847" y2="606.841"/>
	
		<line fill="none" stroke="#FFFFFF" stroke-width="0.8257" stroke-miterlimit="10" x1="1532.278" y1="-32.084" x2="1335.261" y2="606.841"/>
	
		<line fill="none" stroke="#FFFFFF" stroke-width="0.8257" stroke-miterlimit="10" x1="1541.692" y1="-32.084" x2="1344.675" y2="606.841"/>
	
		<line fill="none" stroke="#FFFFFF" stroke-width="0.8257" stroke-miterlimit="10" x1="1551.105" y1="-32.084" x2="1354.089" y2="606.841"/>
	
		<line fill="none" stroke="#FFFFFF" stroke-width="0.8257" stroke-miterlimit="10" x1="1560.521" y1="-32.084" x2="1363.503" y2="606.841"/>
	
		<line fill="none" stroke="#FFFFFF" stroke-width="0.8257" stroke-miterlimit="10" x1="1569.936" y1="-32.084" x2="1372.917" y2="606.841"/>
	
		<line fill="none" stroke="#FFFFFF" stroke-width="0.8257" stroke-miterlimit="10" x1="1579.349" y1="-32.084" x2="1382.331" y2="606.841"/>
	
		<line fill="none" stroke="#FFFFFF" stroke-width="0.8257" stroke-miterlimit="10" x1="1588.763" y1="-32.084" x2="1391.745" y2="606.841"/>
	
		<line fill="none" stroke="#FFFFFF" stroke-width="0.8257" stroke-miterlimit="10" x1="1598.177" y1="-32.084" x2="1401.159" y2="606.841"/>
	
		<line fill="none" stroke="#FFFFFF" stroke-width="0.8257" stroke-miterlimit="10" x1="1607.591" y1="-32.084" x2="1410.573" y2="606.841"/>
	
		<line fill="none" stroke="#FFFFFF" stroke-width="0.8257" stroke-miterlimit="10" x1="1617.005" y1="-32.084" x2="1419.987" y2="606.841"/>
	
		<line fill="none" stroke="#FFFFFF" stroke-width="0.8257" stroke-miterlimit="10" x1="1626.419" y1="-32.084" x2="1429.401" y2="606.841"/>
	
		<line fill="none" stroke="#FFFFFF" stroke-width="0.8257" stroke-miterlimit="10" x1="1635.833" y1="-32.084" x2="1438.814" y2="606.841"/>
	
		<line fill="none" stroke="#FFFFFF" stroke-width="0.8257" stroke-miterlimit="10" x1="1645.247" y1="-32.084" x2="1448.229" y2="606.841"/>
	
		<line fill="none" stroke="#FFFFFF" stroke-width="0.8257" stroke-miterlimit="10" x1="1654.661" y1="-32.084" x2="1457.645" y2="606.841"/>
	
		<line fill="none" stroke="#FFFFFF" stroke-width="0.8257" stroke-miterlimit="10" x1="1664.076" y1="-32.084" x2="1467.058" y2="606.841"/>
	
		<line fill="none" stroke="#FFFFFF" stroke-width="0.8257" stroke-miterlimit="10" x1="1673.489" y1="-32.084" x2="1476.472" y2="606.841"/>
	
		<line fill="none" stroke="#FFFFFF" stroke-width="0.8257" stroke-miterlimit="10" x1="1682.904" y1="-32.084" x2="1485.886" y2="606.841"/>
	
		<line fill="none" stroke="#FFFFFF" stroke-width="0.8257" stroke-miterlimit="10" x1="1692.318" y1="-32.084" x2="1495.3" y2="606.841"/>
	
		<line fill="none" stroke="#FFFFFF" stroke-width="0.8257" stroke-miterlimit="10" x1="1701.732" y1="-32.084" x2="1504.714" y2="606.841"/>
	
		<line fill="none" stroke="#FFFFFF" stroke-width="0.8257" stroke-miterlimit="10" x1="1711.146" y1="-32.084" x2="1514.129" y2="606.841"/>
	
		<line fill="none" stroke="#FFFFFF" stroke-width="0.8257" stroke-miterlimit="10" x1="1720.561" y1="-32.084" x2="1523.543" y2="606.841"/>
	
		<line fill="none" stroke="#FFFFFF" stroke-width="0.8257" stroke-miterlimit="10" x1="1729.975" y1="-32.084" x2="1532.957" y2="606.841"/>
	
		<line fill="none" stroke="#FFFFFF" stroke-width="0.8257" stroke-miterlimit="10" x1="1739.389" y1="-32.084" x2="1542.371" y2="606.841"/>
	
		<line fill="none" stroke="#FFFFFF" stroke-width="0.8257" stroke-miterlimit="10" x1="1748.803" y1="-32.084" x2="1551.785" y2="606.841"/>
	
		<line fill="none" stroke="#FFFFFF" stroke-width="0.8257" stroke-miterlimit="10" x1="1758.217" y1="-32.084" x2="1561.199" y2="606.841"/>
	
		<line fill="none" stroke="#FFFFFF" stroke-width="0.8257" stroke-miterlimit="10" x1="1767.631" y1="-32.084" x2="1570.613" y2="606.841"/>
	
		<line fill="none" stroke="#FFFFFF" stroke-width="0.8257" stroke-miterlimit="10" x1="1777.046" y1="-32.084" x2="1580.027" y2="606.841"/>
	
		<line fill="none" stroke="#FFFFFF" stroke-width="0.8257" stroke-miterlimit="10" x1="1786.459" y1="-32.084" x2="1589.441" y2="606.841"/>
	
		<line fill="none" stroke="#FFFFFF" stroke-width="0.8257" stroke-miterlimit="10" x1="1795.874" y1="-32.084" x2="1598.855" y2="606.841"/>
	
		<line fill="none" stroke="#FFFFFF" stroke-width="0.8257" stroke-miterlimit="10" x1="1805.288" y1="-32.084" x2="1608.27" y2="606.841"/>
	
		<line fill="none" stroke="#FFFFFF" stroke-width="0.8257" stroke-miterlimit="10" x1="1814.702" y1="-32.084" x2="1617.684" y2="606.841"/>
	
		<line fill="none" stroke="#FFFFFF" stroke-width="0.8257" stroke-miterlimit="10" x1="1824.116" y1="-32.084" x2="1627.099" y2="606.841"/>
	
		<line fill="none" stroke="#FFFFFF" stroke-width="0.8257" stroke-miterlimit="10" x1="1833.53" y1="-32.084" x2="1636.513" y2="606.841"/>
	
		<line fill="none" stroke="#FFFFFF" stroke-width="0.8257" stroke-miterlimit="10" x1="1842.944" y1="-32.084" x2="1645.927" y2="606.841"/>
	
		<line fill="none" stroke="#FFFFFF" stroke-width="0.8257" stroke-miterlimit="10" x1="1852.358" y1="-32.084" x2="1655.341" y2="606.841"/>
	
		<line fill="none" stroke="#FFFFFF" stroke-width="0.8257" stroke-miterlimit="10" x1="1861.771" y1="-32.084" x2="1664.755" y2="606.841"/>
	
		<line fill="none" stroke="#FFFFFF" stroke-width="0.8257" stroke-miterlimit="10" x1="1871.188" y1="-32.084" x2="1674.169" y2="606.841"/>
	
		<line fill="none" stroke="#FFFFFF" stroke-width="0.8257" stroke-miterlimit="10" x1="1880.601" y1="-32.084" x2="1683.583" y2="606.841"/>
	
		<line fill="none" stroke="#FFFFFF" stroke-width="0.8257" stroke-miterlimit="10" x1="1890.015" y1="-32.084" x2="1692.997" y2="606.841"/>
	
		<line fill="none" stroke="#FFFFFF" stroke-width="0.8257" stroke-miterlimit="10" x1="1899.429" y1="-32.084" x2="1702.411" y2="606.841"/>
	
		<line fill="none" stroke="#FFFFFF" stroke-width="0.8257" stroke-miterlimit="10" x1="1908.843" y1="-32.084" x2="1711.825" y2="606.841"/>
	
		<line fill="none" stroke="#FFFFFF" stroke-width="0.8257" stroke-miterlimit="10" x1="1918.257" y1="-32.084" x2="1721.239" y2="606.841"/>
	
		<line fill="none" stroke="#FFFFFF" stroke-width="0.8257" stroke-miterlimit="10" x1="1927.671" y1="-32.084" x2="1730.653" y2="606.841"/>
	
		<line fill="none" stroke="#FFFFFF" stroke-width="0.8257" stroke-miterlimit="10" x1="1937.085" y1="-32.084" x2="1740.067" y2="606.841"/>
	
		<line fill="none" stroke="#FFFFFF" stroke-width="0.8257" stroke-miterlimit="10" x1="1946.499" y1="-32.084" x2="1749.48" y2="606.841"/>
	
		<line fill="none" stroke="#FFFFFF" stroke-width="0.8257" stroke-miterlimit="10" x1="1955.913" y1="-32.084" x2="1758.896" y2="606.841"/>
	
		<line fill="none" stroke="#FFFFFF" stroke-width="0.8257" stroke-miterlimit="10" x1="1965.328" y1="-32.084" x2="1768.311" y2="606.841"/>
	
		<line fill="none" stroke="#FFFFFF" stroke-width="0.8257" stroke-miterlimit="10" x1="1974.741" y1="-32.084" x2="1777.724" y2="606.841"/>
	
		<line fill="none" stroke="#FFFFFF" stroke-width="0.8257" stroke-miterlimit="10" x1="1984.156" y1="-32.084" x2="1787.138" y2="606.841"/>
	
		<line fill="none" stroke="#FFFFFF" stroke-width="0.8257" stroke-miterlimit="10" x1="1993.569" y1="-32.084" x2="1796.552" y2="606.841"/>
	
		<line fill="none" stroke="#FFFFFF" stroke-width="0.8257" stroke-miterlimit="10" x1="2002.984" y1="-32.084" x2="1805.966" y2="606.841"/>
	
		<line fill="none" stroke="#FFFFFF" stroke-width="0.8257" stroke-miterlimit="10" x1="2012.398" y1="-32.084" x2="1815.38" y2="606.841"/>
	
		<line fill="none" stroke="#FFFFFF" stroke-width="0.8257" stroke-miterlimit="10" x1="2021.812" y1="-32.084" x2="1824.795" y2="606.841"/>
	
		<line fill="none" stroke="#FFFFFF" stroke-width="0.8257" stroke-miterlimit="10" x1="2031.227" y1="-32.084" x2="1834.209" y2="606.841"/>
	
		<line fill="none" stroke="#FFFFFF" stroke-width="0.8257" stroke-miterlimit="10" x1="2040.641" y1="-32.084" x2="1843.623" y2="606.841"/>
	
		<line fill="none" stroke="#FFFFFF" stroke-width="0.8257" stroke-miterlimit="10" x1="2050.055" y1="-32.084" x2="1853.037" y2="606.841"/>
	
		<line fill="none" stroke="#FFFFFF" stroke-width="0.8257" stroke-miterlimit="10" x1="2059.469" y1="-32.084" x2="1862.451" y2="606.841"/>
	
		<line fill="none" stroke="#FFFFFF" stroke-width="0.8257" stroke-miterlimit="10" x1="2068.883" y1="-32.084" x2="1871.865" y2="606.841"/>
	
		<line fill="none" stroke="#FFFFFF" stroke-width="0.8257" stroke-miterlimit="10" x1="2078.297" y1="-32.084" x2="1881.279" y2="606.841"/>
	
		<line fill="none" stroke="#FFFFFF" stroke-width="0.8257" stroke-miterlimit="10" x1="2087.711" y1="-32.084" x2="1890.693" y2="606.841"/>
	
		<line fill="none" stroke="#FFFFFF" stroke-width="0.8257" stroke-miterlimit="10" x1="2097.126" y1="-32.084" x2="1900.107" y2="606.841"/>
	
		<line fill="none" stroke="#FFFFFF" stroke-width="0.8257" stroke-miterlimit="10" x1="2106.539" y1="-32.084" x2="1909.521" y2="606.841"/>
	
		<line fill="none" stroke="#FFFFFF" stroke-width="0.8257" stroke-miterlimit="10" x1="2115.954" y1="-32.084" x2="1918.936" y2="606.841"/>
	
		<line fill="none" stroke="#FFFFFF" stroke-width="0.8257" stroke-miterlimit="10" x1="2125.367" y1="-32.084" x2="1928.35" y2="606.841"/>
	
		<line fill="none" stroke="#FFFFFF" stroke-width="0.8257" stroke-miterlimit="10" x1="2134.782" y1="-32.084" x2="1937.764" y2="606.841"/>
	
		<line fill="none" stroke="#FFFFFF" stroke-width="0.8257" stroke-miterlimit="10" x1="2144.196" y1="-32.084" x2="1947.179" y2="606.841"/>
	
		<line fill="none" stroke="#FFFFFF" stroke-width="0.8257" stroke-miterlimit="10" x1="2153.61" y1="-32.084" x2="1956.593" y2="606.841"/>
	
		<line fill="none" stroke="#FFFFFF" stroke-width="0.8257" stroke-miterlimit="10" x1="2163.023" y1="-32.084" x2="1966.007" y2="606.841"/>
	
		<line fill="none" stroke="#FFFFFF" stroke-width="0.8257" stroke-miterlimit="10" x1="2172.438" y1="-32.084" x2="1975.421" y2="606.841"/>
	
		<line fill="none" stroke="#FFFFFF" stroke-width="0.8257" stroke-miterlimit="10" x1="2181.854" y1="-32.084" x2="1984.835" y2="606.841"/>
	
		<line fill="none" stroke="#FFFFFF" stroke-width="0.8257" stroke-miterlimit="10" x1="2191.268" y1="-32.084" x2="1994.249" y2="606.841"/>
	
		<line fill="none" stroke="#FFFFFF" stroke-width="0.8257" stroke-miterlimit="10" x1="2200.681" y1="-32.084" x2="2003.663" y2="606.841"/>
	
		<line fill="none" stroke="#FFFFFF" stroke-width="0.8257" stroke-miterlimit="10" x1="2210.095" y1="-32.084" x2="2013.077" y2="606.841"/>
	
		<line fill="none" stroke="#FFFFFF" stroke-width="0.8257" stroke-miterlimit="10" x1="2219.509" y1="-32.084" x2="2022.491" y2="606.841"/>
	
		<line fill="none" stroke="#FFFFFF" stroke-width="0.8257" stroke-miterlimit="10" x1="2228.923" y1="-32.084" x2="2031.905" y2="606.841"/>
	
		<line fill="none" stroke="#FFFFFF" stroke-width="0.8257" stroke-miterlimit="10" x1="2238.337" y1="-32.084" x2="2041.319" y2="606.841"/>
	
		<line fill="none" stroke="#FFFFFF" stroke-width="0.8257" stroke-miterlimit="10" x1="2247.751" y1="-32.084" x2="2050.732" y2="606.841"/>
	
		<line fill="none" stroke="#FFFFFF" stroke-width="0.8257" stroke-miterlimit="10" x1="2257.166" y1="-32.084" x2="2060.146" y2="606.841"/>
	
		<line fill="none" stroke="#FFFFFF" stroke-width="0.8257" stroke-miterlimit="10" x1="2266.58" y1="-32.084" x2="2069.562" y2="606.841"/>
	
		<line fill="none" stroke="#FFFFFF" stroke-width="0.8257" stroke-miterlimit="10" x1="2275.993" y1="-32.084" x2="2078.977" y2="606.841"/>
	
		<line fill="none" stroke="#FFFFFF" stroke-width="0.8257" stroke-miterlimit="10" x1="2285.407" y1="-32.084" x2="2088.39" y2="606.841"/>
	
		<line fill="none" stroke="#FFFFFF" stroke-width="0.8257" stroke-miterlimit="10" x1="2294.822" y1="-32.084" x2="2097.804" y2="606.841"/>
	
		<line fill="none" stroke="#FFFFFF" stroke-width="0.8257" stroke-miterlimit="10" x1="2304.236" y1="-32.084" x2="2107.218" y2="606.841"/>
	
		<line fill="none" stroke="#FFFFFF" stroke-width="0.8257" stroke-miterlimit="10" x1="2313.65" y1="-32.084" x2="2116.633" y2="606.841"/>
	
		<line fill="none" stroke="#FFFFFF" stroke-width="0.8257" stroke-miterlimit="10" x1="2323.062" y1="-32.084" x2="2126.047" y2="606.841"/>
	
		<line fill="none" stroke="#FFFFFF" stroke-width="0.8257" stroke-miterlimit="10" x1="2332.479" y1="-32.084" x2="2135.461" y2="606.841"/>
	
		<line fill="none" stroke="#FFFFFF" stroke-width="0.8257" stroke-miterlimit="10" x1="2341.893" y1="-32.084" x2="2144.875" y2="606.841"/>
	
		<line fill="none" stroke="#FFFFFF" stroke-width="0.8257" stroke-miterlimit="10" x1="2351.307" y1="-32.084" x2="2154.289" y2="606.841"/>
	
		<line fill="none" stroke="#FFFFFF" stroke-width="0.8257" stroke-miterlimit="10" x1="2360.721" y1="-32.084" x2="2163.703" y2="606.841"/>
	
		<line fill="none" stroke="#FFFFFF" stroke-width="0.8257" stroke-miterlimit="10" x1="2370.136" y1="-32.084" x2="2173.117" y2="606.841"/>
	
		<line fill="none" stroke="#FFFFFF" stroke-width="0.8257" stroke-miterlimit="10" x1="2379.549" y1="-32.084" x2="2182.531" y2="606.841"/>
	
		<line fill="none" stroke="#FFFFFF" stroke-width="0.8257" stroke-miterlimit="10" x1="2388.963" y1="-32.084" x2="2191.945" y2="606.841"/>
	
		<line fill="none" stroke="#FFFFFF" stroke-width="0.8257" stroke-miterlimit="10" x1="2398.377" y1="-32.084" x2="2201.359" y2="606.841"/>
	
		<line fill="none" stroke="#FFFFFF" stroke-width="0.8257" stroke-miterlimit="10" x1="2407.792" y1="-32.084" x2="2210.773" y2="606.841"/>
	
		<line fill="none" stroke="#FFFFFF" stroke-width="0.8257" stroke-miterlimit="10" x1="2417.206" y1="-32.084" x2="2220.188" y2="606.841"/>
	
		<line fill="none" stroke="#FFFFFF" stroke-width="0.8257" stroke-miterlimit="10" x1="2426.619" y1="-32.084" x2="2229.602" y2="606.841"/>
	
		<line fill="none" stroke="#FFFFFF" stroke-width="0.8257" stroke-miterlimit="10" x1="2436.033" y1="-32.084" x2="2239.016" y2="606.841"/>
	
		<line fill="none" stroke="#FFFFFF" stroke-width="0.8257" stroke-miterlimit="10" x1="2445.448" y1="-32.084" x2="2248.43" y2="606.841"/>
	
		<line fill="none" stroke="#FFFFFF" stroke-width="0.8257" stroke-miterlimit="10" x1="2454.862" y1="-32.084" x2="2257.845" y2="606.841"/>
	
		<line fill="none" stroke="#FFFFFF" stroke-width="0.8257" stroke-miterlimit="10" x1="2464.275" y1="-32.084" x2="2267.259" y2="606.841"/>
	
		<line fill="none" stroke="#FFFFFF" stroke-width="0.8257" stroke-miterlimit="10" x1="2473.689" y1="-32.084" x2="2276.673" y2="606.841"/>
	
		<line fill="none" stroke="#FFFFFF" stroke-width="0.8257" stroke-miterlimit="10" x1="2483.104" y1="-32.084" x2="2286.087" y2="606.841"/>
	
		<line fill="none" stroke="#FFFFFF" stroke-width="0.8257" stroke-miterlimit="10" x1="2492.52" y1="-32.084" x2="2295.501" y2="606.841"/>
	
		<line fill="none" stroke="#FFFFFF" stroke-width="0.8257" stroke-miterlimit="10" x1="2501.934" y1="-32.084" x2="2304.915" y2="606.841"/>
	
		<line fill="none" stroke="#FFFFFF" stroke-width="0.8257" stroke-miterlimit="10" x1="2511.347" y1="-32.084" x2="2314.329" y2="606.841"/>
	
		<line fill="none" stroke="#FFFFFF" stroke-width="0.8257" stroke-miterlimit="10" x1="2520.761" y1="-32.084" x2="2323.743" y2="606.841"/>
	
		<line fill="none" stroke="#FFFFFF" stroke-width="0.8257" stroke-miterlimit="10" x1="2530.175" y1="-32.084" x2="2333.157" y2="606.841"/>
	
		<line fill="none" stroke="#FFFFFF" stroke-width="0.8257" stroke-miterlimit="10" x1="2539.589" y1="-32.084" x2="2342.571" y2="606.841"/>
	
		<line fill="none" stroke="#FFFFFF" stroke-width="0.8257" stroke-miterlimit="10" x1="2549.003" y1="-32.084" x2="2351.985" y2="606.841"/>
	
		<line fill="none" stroke="#FFFFFF" stroke-width="0.8257" stroke-miterlimit="10" x1="2558.418" y1="-32.084" x2="2361.398" y2="606.841"/>
	
		<line fill="none" stroke="#FFFFFF" stroke-width="0.8257" stroke-miterlimit="10" x1="2567.831" y1="-32.084" x2="2370.812" y2="606.841"/>
	
		<line fill="none" stroke="#FFFFFF" stroke-width="0.8257" stroke-miterlimit="10" x1="2577.245" y1="-32.084" x2="2380.229" y2="606.841"/>
	
		<line fill="none" stroke="#FFFFFF" stroke-width="0.8257" stroke-miterlimit="10" x1="2586.659" y1="-32.084" x2="2389.643" y2="606.841"/>
	
		<line fill="none" stroke="#FFFFFF" stroke-width="0.8257" stroke-miterlimit="10" x1="2596.074" y1="-32.084" x2="2399.056" y2="606.841"/>
	
		<line fill="none" stroke="#FFFFFF" stroke-width="0.8257" stroke-miterlimit="10" x1="2605.488" y1="-32.084" x2="2408.47" y2="606.841"/>
	
		<line fill="none" stroke="#FFFFFF" stroke-width="0.8257" stroke-miterlimit="10" x1="2614.902" y1="-32.084" x2="2417.884" y2="606.841"/>
	
		<line fill="none" stroke="#FFFFFF" stroke-width="0.8257" stroke-miterlimit="10" x1="2624.314" y1="-32.084" x2="2427.299" y2="606.841"/>
	
		<line fill="none" stroke="#FFFFFF" stroke-width="0.8257" stroke-miterlimit="10" x1="2633.73" y1="-32.084" x2="2436.713" y2="606.841"/>
	
		<line fill="none" stroke="#FFFFFF" stroke-width="0.8257" stroke-miterlimit="10" x1="2643.145" y1="-32.084" x2="2446.127" y2="606.841"/>
</g>
</svg>
