<?xml version="1.0" encoding="utf-8"?>
<!-- Generator: Adobe Illustrator 22.0.0, SVG Export Plug-In . SVG Version: 6.00 Build 0)  -->
<svg version="1.1" xmlns="http://www.w3.org/2000/svg" xmlns:xlink="http://www.w3.org/1999/xlink" x="0px" y="0px"
	 viewBox="0 0 92 95.2" style="enable-background:new 0 0 92 95.2;" xml:space="preserve">
<style type="text/css">
	.st0{display:none;}
	.st1{display:inline;}
	.st2{fill:#FFFFFF;stroke:#000000;stroke-miterlimit:10;}
	.st3{fill:#86754D;}
	.st4{fill:#C9C9C9;}
	.st5{fill:#B7A57A;}
</style>
<g id="Layer_1" class="st0">
	<g class="st1">
		<path class="st2" d="M16.9,14.8c-0.8,0-1.4,0.6-1.4,1.4v12.7c0,0.8,0.6,1.4,1.4,1.4c0.8,0,1.4-0.6,1.4-1.4V16.2
			C18.3,15.4,17.7,14.8,16.9,14.8z"/>
		<path class="st2" d="M28.1,14.8c-0.8,0-1.4,0.6-1.4,1.4v12.7c0,0.8,0.6,1.4,1.4,1.4c0.8,0,1.4-0.6,1.4-1.4V16.2
			C29.5,15.4,28.9,14.8,28.1,14.8z"/>
		<path class="st2" d="M22.5,0c-6,0-11.7,2.3-15.9,6.6C2.3,10.8,0,16.5,0,22.5c0,6,2.3,11.7,6.6,15.9c4.2,4.3,9.9,6.6,15.9,6.6
			c6,0,11.7-2.3,15.9-6.6c4.2-4.2,6.6-9.9,6.6-15.9c0-6-2.3-11.7-6.6-15.9C34.2,2.3,28.5,0,22.5,0z M36.4,36.4
			c-3.7,3.7-8.7,5.8-13.9,5.8c-5.3,0-10.2-2-13.9-5.8c-3.7-3.7-5.8-8.7-5.8-13.9s2-10.2,5.8-13.9c3.7-3.7,8.7-5.8,13.9-5.8
			s10.2,2,13.9,5.8c3.7,3.7,5.8,8.7,5.8,13.9S40.1,32.7,36.4,36.4z"/>
	</g>
	<g class="st1">
		<path class="st2" d="M22.3,49.6c-6,0-11.5,2.3-15.8,6.5S0,65.9,0,71.9c0,5.9,2.3,11.5,6.5,15.8s9.8,6.5,15.8,6.5
			s11.5-2.3,15.8-6.5s6.5-9.8,6.5-15.8S42.2,60.3,38,56.1C33.8,51.9,28.2,49.6,22.3,49.6z M36.1,85.7c-3.7,3.7-8.6,5.7-13.8,5.7
			c-5.2,0-10.1-2-13.8-5.7C4.8,82,2.8,77.1,2.8,71.9c0-5.2,2-10.1,5.7-13.8c3.7-3.7,8.6-5.7,13.8-5.7s10.1,2,13.8,5.7
			c3.7,3.7,5.7,8.6,5.7,13.8C41.8,77.1,39.7,82,36.1,85.7z"/>
		<path class="st2" d="M29.4,70.8l-9.7-7.7c-0.4-0.3-1-0.4-1.5-0.2c-0.5,0.2-0.8,0.7-0.8,1.3v15.3c0,0.5,0.3,1,0.8,1.3
			c0.2,0.1,0.4,0.1,0.6,0.1c0.3,0,0.6-0.1,0.9-0.3l9.7-7.7c0.3-0.3,0.5-0.7,0.5-1.1C29.9,71.5,29.7,71.1,29.4,70.8z M20.2,76.7v-9.6
			l6.1,4.8L20.2,76.7z"/>
	</g>
	<g class="st1">
		<path class="st3" d="M63.9,14.8c-0.8,0-1.4,0.6-1.4,1.4v12.7c0,0.8,0.6,1.4,1.4,1.4c0.8,0,1.4-0.6,1.4-1.4V16.2
			C65.3,15.4,64.7,14.8,63.9,14.8z"/>
		<path class="st3" d="M75.2,14.8c-0.8,0-1.4,0.6-1.4,1.4v12.7c0,0.8,0.6,1.4,1.4,1.4c0.8,0,1.4-0.6,1.4-1.4V16.2
			C76.6,15.4,75.9,14.8,75.2,14.8z"/>
		<path class="st3" d="M69.5,0c-6,0-11.7,2.3-15.9,6.6c-4.2,4.2-6.6,9.9-6.6,15.9c0,6,2.3,11.7,6.6,15.9c4.2,4.3,9.9,6.6,15.9,6.6
			c6,0,11.7-2.3,15.9-6.6c4.2-4.2,6.6-9.9,6.6-15.9c0-6-2.3-11.7-6.6-15.9C81.2,2.3,75.6,0,69.5,0z M83.5,36.4
			c-3.7,3.7-8.7,5.8-13.9,5.8c-5.3,0-10.2-2-13.9-5.8c-3.7-3.7-5.8-8.7-5.8-13.9s2-10.2,5.8-13.9c3.7-3.7,8.7-5.8,13.9-5.8
			s10.2,2,13.9,5.8c3.7,3.7,5.8,8.7,5.8,13.9S87.2,32.7,83.5,36.4z"/>
	</g>
	<g class="st1">
		<path class="st3" d="M69.8,49.6c-6,0-11.5,2.3-15.8,6.5c-4.2,4.2-6.5,9.8-6.5,15.8c0,6,2.3,11.5,6.5,15.8
			c4.2,4.2,9.8,6.5,15.8,6.5s11.5-2.3,15.8-6.5S92,77.8,92,71.9c0-5.9-2.3-11.5-6.5-15.8C81.3,51.9,75.7,49.6,69.8,49.6z M83.5,85.7
			c-3.7,3.7-8.6,5.7-13.8,5.7c-5.2,0-10.1-2-13.8-5.7c-3.7-3.7-5.7-8.6-5.7-13.8c0-5.2,2-10.1,5.7-13.8c3.7-3.7,8.6-5.7,13.8-5.7
			s10.1,2,13.8,5.7c3.7,3.7,5.7,8.6,5.7,13.8C89.3,77.1,87.2,82,83.5,85.7z"/>
		<path class="st3" d="M76.9,70.8l-9.7-7.7c-0.4-0.3-1-0.4-1.5-0.2c-0.5,0.2-0.8,0.7-0.8,1.3v15.3c0,0.5,0.3,1,0.8,1.3
			c0.2,0.1,0.4,0.1,0.6,0.1c0.3,0,0.6-0.1,0.9-0.3l9.7-7.7c0.3-0.3,0.5-0.7,0.5-1.1C77.4,71.5,77.2,71.1,76.9,70.8z M67.7,76.7v-9.6
			l6.1,4.8L67.7,76.7z"/>
	</g>
</g>
<g id="Layer_2">
	<g>
		<path class="st4" d="M1.8,32.9H7v-3.6H3.6V14.6h7.2v10h3.6V13.9l15.4-9.1v1.7h3.6V1.8c0-0.6-0.3-1.2-0.9-1.6
			c-0.6-0.3-1.2-0.3-1.8,0L12.2,11.1H1.8c-1,0-1.8,0.7-1.8,1.7c0,0,0,0,0,0.1V31C0,32,0.8,32.8,1.8,32.9z"/>
		<path class="st4" d="M29.7,39.2l-13.2-7l-1.7,3.2l15.9,8.5c0.3,0.1,0.5,0.2,0.8,0.2c0.3,0,0.6-0.1,0.9-0.2
			c0.6-0.3,0.9-0.9,0.9-1.5V20.3h-3.6V39.2z"/>
		<rect x="-6" y="21.1" transform="matrix(0.7338 -0.6793 0.6793 0.7338 -9.7733 20.8841)" class="st4" width="55.5" height="3.6"/>
	</g>
	<path class="st4" d="M32.5,51c-0.6-0.3-1.2-0.3-1.8,0l-18.5,11H1.8c-1,0-1.8,0.8-1.8,1.8v18.5c0,1,0.8,1.8,1.8,1.8h10.4l18.5,11
		c0.6,0.3,1.2,0.3,1.8,0c0.6-0.3,0.9-0.9,0.9-1.6V52.5C33.4,51.9,33,51.3,32.5,51z M10.7,79.8H3.6V65.5h7.2V79.8z M29.8,75.1v15
		L14.3,81V64.9l15.5-9.1V75.1z"/>
	<g id="Layer_1-2_1_">
		<g>
			<path class="st5" d="M50.5,32.9h5.2v-3.6h-3.5V14.6h7.2v10H63V13.9l15.4-9.1v1.7H82V1.8c0-0.6-0.3-1.2-0.9-1.6
				c-0.6-0.3-1.2-0.3-1.8,0L60.8,11.1H50.5c-1,0-1.8,0.7-1.8,1.7c0,0,0,0,0,0.1V31C48.7,32,49.5,32.8,50.5,32.9z"/>
			<path class="st5" d="M78.4,39.2l-13.2-7l-1.7,3.2l15.9,8.5c0.3,0.1,0.5,0.2,0.8,0.2c0.3,0,0.6-0.1,0.9-0.2
				c0.6-0.3,0.9-0.9,0.9-1.5V20.3h-3.6V39.2z"/>
			
				<rect x="42.7" y="21.1" transform="matrix(0.7338 -0.6793 0.6793 0.7338 3.1841 53.9558)" class="st5" width="55.5" height="3.6"/>
		</g>
		<path class="st5" d="M81.2,51c-0.6-0.3-1.2-0.3-1.8,0l-18.5,11H50.5c-1,0-1.8,0.8-1.8,1.8v18.5c0,1,0.8,1.8,1.8,1.8h10.4l18.5,11
			c0.6,0.3,1.2,0.3,1.8,0c0.6-0.3,0.9-0.9,0.9-1.6V52.5C82.1,51.9,81.7,51.3,81.2,51z M59.4,79.8h-7.2V65.5h7.2V79.8z M78.5,75.1v15
			L63,81V64.9l15.5-9.1V75.1z"/>
	</g>
</g>
</svg>
