<?xml version="1.0" encoding="utf-8"?>
<!-- Generator: Adobe Illustrator 16.0.0, SVG Export Plug-In . SVG Version: 6.00 Build 0)  -->
<!DOCTYPE svg PUBLIC "-//W3C//DTD SVG 1.1//EN" "http://www.w3.org/Graphics/SVG/1.1/DTD/svg11.dtd">
<svg version="1.1" id="Layer_1" xmlns="http://www.w3.org/2000/svg" xmlns:xlink="http://www.w3.org/1999/xlink" x="0px" y="0px"
	 width="863px" height="1027px" viewBox="0 0 863 1027" enable-background="new 0 0 863 1027" xml:space="preserve">
<path opacity="0.8" fill="#231F20" stroke="#000000" stroke-width="0.2" stroke-miterlimit="10" enable-background="new    " d="
	M153.595,42.41c-9.729,0-17.646,7.916-17.646,17.646s7.916,17.645,17.646,17.645s17.646-7.916,17.646-17.646
	S163.325,42.41,153.595,42.41z M153.595,75.854c-8.711,0-15.798-7.087-15.798-15.798c0-8.711,7.087-15.798,15.798-15.798
	c8.712,0,15.799,7.087,15.799,15.798C169.394,68.766,162.307,75.854,153.595,75.854z M157.256,53.882
	c-0.51,0-0.923,0.414-0.923,0.923v10.499c0,0.51,0.414,0.923,0.923,0.923c0.51,0,0.924-0.414,0.924-0.923V54.806
	C158.18,54.296,157.767,53.882,157.256,53.882z M149.935,53.882c-0.51,0-0.923,0.414-0.923,0.923v10.499
	c0,0.51,0.414,0.923,0.923,0.923c0.51,0,0.924-0.414,0.924-0.923V54.806C150.858,54.296,150.445,53.882,149.935,53.882z
	 M208.317,42.41c-9.729,0-17.646,7.916-17.646,17.646s7.917,17.645,17.646,17.645s17.646-7.916,17.646-17.646
	S218.047,42.41,208.317,42.41z M208.317,75.854c-8.711,0-15.798-7.087-15.798-15.798c0-8.711,7.087-15.798,15.798-15.798
	s15.799,7.087,15.799,15.798C224.116,68.766,217.029,75.854,208.317,75.854z M205.623,52.863c-0.26-0.193-0.607-0.22-0.896-0.076
	c-0.289,0.146-0.472,0.442-0.472,0.766l-0.001,13.002c0,0.324,0.182,0.62,0.471,0.766c0.123,0.062,0.255,0.092,0.387,0.092
	c0.18,0,0.359-0.057,0.509-0.167l8.812-6.502c0.219-0.162,0.349-0.418,0.349-0.691c0-0.271-0.13-0.529-0.349-0.69L205.623,52.863z
	 M205.97,64.855l0.001-9.602l6.506,4.8L205.97,64.855z M274.635,43.881h-24.069c-0.474,0-0.858,0.385-0.858,0.859v21.238
	c-2.484,0.412-4.387,2.57-4.387,5.169c0,2.893,2.354,5.247,5.246,5.247h20.21c0.122,0,0.237-0.029,0.342-0.078
	c2.478-0.417,4.375-2.572,4.375-5.168V44.74C275.494,44.266,275.11,43.881,274.635,43.881z M250.566,74.678
	c-1.946,0-3.529-1.583-3.529-3.53c0-1.906,1.521-3.453,3.411-3.518c0.041,0.006,0.077,0.024,0.118,0.024
	c0.063,0,0.119-0.023,0.178-0.036h15.625c-0.015,0.017-0.026,0.037-0.041,0.053c-0.182,0.206-0.349,0.425-0.498,0.657
	c-0.022,0.036-0.043,0.072-0.066,0.108c-0.146,0.239-0.274,0.489-0.38,0.751c-0.014,0.033-0.024,0.067-0.037,0.101
	c-0.104,0.272-0.189,0.554-0.246,0.845c-0.005,0.023-0.007,0.046-0.011,0.069c-0.056,0.307-0.089,0.622-0.089,0.944
	s0.034,0.637,0.089,0.944c0.004,0.023,0.006,0.046,0.011,0.069c0.057,0.292,0.143,0.574,0.246,0.847
	c0.013,0.033,0.023,0.066,0.037,0.099c0.106,0.264,0.235,0.514,0.381,0.754c0.021,0.035,0.042,0.07,0.063,0.104
	c0.15,0.234,0.317,0.454,0.501,0.66c0.014,0.016,0.024,0.036,0.039,0.052h-15.802V74.678L250.566,74.678z M273.777,71.148
	c0,1.946-1.583,3.53-3.529,3.53c-1.946,0-3.53-1.583-3.53-3.53s1.583-3.529,3.53-3.529c0.141,0,0.28,0.011,0.417,0.028
	c0.033,0.004,0.065,0.007,0.098,0.007c0.212,0,0.419-0.089,0.58-0.23c0.186-0.163,0.293-0.417,0.293-0.664
	c0-0.474-0.384-0.858-0.859-0.858h-19.351V45.599h22.352L273.777,71.148L273.777,71.148z M255.254,50.809h14.692
	c0.483,0,0.875-0.392,0.875-0.875s-0.392-0.875-0.875-0.875h-14.692c-0.483,0-0.875,0.392-0.875,0.875
	S254.771,50.809,255.254,50.809z M255.254,56.345h14.692c0.483,0,0.875-0.392,0.875-0.875c0-0.483-0.392-0.875-0.875-0.875h-14.692
	c-0.483,0-0.875,0.392-0.875,0.875C254.379,55.953,254.771,56.345,255.254,56.345z M255.254,61.881h14.692
	c0.483,0,0.875-0.392,0.875-0.875c0-0.483-0.392-0.875-0.875-0.875h-14.692c-0.483,0-0.875,0.392-0.875,0.875
	C254.379,61.489,254.771,61.881,255.254,61.881z"/>
<circle opacity="0.3" enable-background="new    " cx="19.62" cy="29.174" r="18.11"/>
<circle fill="none" stroke="#FFFFFF" stroke-width="2" stroke-miterlimit="10" cx="19.62" cy="29.174" r="18.11"/>
<path fill="#FFFFFF" d="M28.167,26.094c-0.391-0.391-1.023-0.391-1.414,0l-6.133,6.133V1.506c0-0.552-0.448-1-1-1
	c-0.552,0-1,0.448-1,1v30.721l-6.133-6.133c-0.391-0.391-1.023-0.391-1.414,0c-0.391,0.391-0.391,1.023,0,1.414l7.84,7.839
	c0.092,0.092,0.203,0.166,0.325,0.216c0.123,0.051,0.252,0.077,0.382,0.077s0.26-0.026,0.382-0.077
	c0.122-0.051,0.233-0.124,0.325-0.216l7.84-7.839C28.558,27.117,28.558,26.484,28.167,26.094z"/>
<path fill="#D0B787" d="M190.114,106.854c-2.914,1.669-5.269,3.106-7.066,4.311c-1.798,1.206-3.626,2.797-5.486,4.772
	c-1.736,1.854-3.068,3.801-3.998,5.839c-0.93,2.04-1.581,4.665-1.953,7.877h4.463c3.843,0,6.865,0.946,9.066,2.836
	c2.199,1.892,3.301,4.665,3.301,8.322c0,2.604-0.977,5.037-2.929,7.299c-1.953,2.264-4.634,3.394-8.042,3.394
	c-5.332,0-9.145-1.748-11.437-5.243c-2.294-3.496-3.44-8.091-3.44-13.783c0-4.021,0.867-7.687,2.603-10.997
	c1.735-3.31,3.843-6.265,6.323-8.864c2.541-2.66,5.238-4.917,8.089-6.774c2.851-1.856,5.238-3.372,7.16-4.549L190.114,106.854z
	 M224.518,106.854c-2.914,1.669-5.27,3.106-7.066,4.311c-1.799,1.206-3.627,2.797-5.486,4.772c-1.799,1.915-3.146,3.878-4.045,5.886
	c-0.899,2.008-1.533,4.618-1.906,7.831h4.464c3.843,0,6.864,0.946,9.065,2.836c2.199,1.892,3.301,4.665,3.301,8.322
	c0,2.604-0.977,5.037-2.93,7.299c-1.951,2.264-4.634,3.394-8.042,3.394c-5.332,0-9.144-1.748-11.437-5.243
	c-2.295-3.496-3.44-8.091-3.44-13.783c0-4.021,0.867-7.687,2.604-10.997c1.734-3.31,3.843-6.265,6.323-8.864
	c2.541-2.66,5.236-4.917,8.089-6.774c2.851-1.856,5.237-3.372,7.159-4.549L224.518,106.854z"/>
<path fill="#D0B787" d="M195.988,231.429c0,4.091-0.899,7.827-2.696,11.204c-1.799,3.379-3.905,6.309-6.323,8.787
	c-2.479,2.543-5.206,4.82-8.182,6.834c-2.976,2.016-5.362,3.486-7.16,4.416l-3.161-5.485c2.541-1.487,4.975-3.022,7.299-4.603
	c2.325-1.58,4.106-3.083,5.347-4.51c1.674-1.859,3.006-3.796,3.998-5.812c0.991-2.014,1.611-4.664,1.859-7.951h-4.463
	c-3.905,0-6.942-0.99-9.112-2.975c-2.17-1.983-3.254-4.742-3.254-8.275c0-2.541,0.991-4.942,2.976-7.206
	c1.983-2.263,4.68-3.394,8.089-3.394c5.269,0,9.05,1.752,11.344,5.254C194.841,221.216,195.988,225.789,195.988,231.429z
	 M230.392,231.429c0,4.091-0.899,7.827-2.696,11.204c-1.799,3.379-3.905,6.309-6.323,8.787c-2.479,2.543-5.207,4.82-8.183,6.834
	c-2.975,2.016-5.362,3.486-7.159,4.416l-3.161-5.485c2.541-1.487,4.975-3.022,7.299-4.603c2.324-1.581,4.105-3.083,5.347-4.51
	c1.674-1.859,3.006-3.796,3.998-5.812c0.991-2.014,1.611-4.664,1.859-7.951h-4.463c-3.905,0-6.943-0.99-9.112-2.975
	c-2.171-1.983-3.254-4.742-3.254-8.275c0-2.541,0.99-4.942,2.975-7.206c1.983-2.263,4.68-3.394,8.09-3.394
	c5.268,0,9.05,1.752,11.344,5.254C229.243,221.216,230.392,225.789,230.392,231.429z"/>
<line fill="none" stroke="#CFD0D2" stroke-width="0.5" stroke-miterlimit="10" x1="1.51" y1="165.232" x2="386.125" y2="165.232"/>
<line fill="none" stroke="#CFD0D2" stroke-width="0.5" stroke-miterlimit="10" x1="1.51" y1="196.002" x2="386.125" y2="196.002"/>
<path fill="#4B2E83" d="M620.57,106.854c-2.914,1.669-5.271,3.106-7.066,4.311c-1.798,1.206-3.626,2.797-5.486,4.772
	c-1.732,1.854-3.064,3.801-3.998,5.839c-0.93,2.04-1.577,4.665-1.95,7.877h4.464c3.843,0,6.861,0.946,9.062,2.836
	c2.199,1.892,3.304,4.665,3.304,8.322c0,2.604-0.979,5.037-2.931,7.299c-1.953,2.264-4.635,3.394-8.043,3.394
	c-5.332,0-9.145-1.748-11.437-5.243c-2.294-3.496-3.44-8.091-3.44-13.783c0-4.021,0.867-7.687,2.604-10.997
	c1.731-3.31,3.843-6.265,6.319-8.864c2.541-2.66,5.238-4.917,8.092-6.774c2.852-1.856,5.236-3.372,7.158-4.549L620.57,106.854z
	 M654.975,106.854c-2.914,1.669-5.271,3.106-7.063,4.311c-1.799,1.206-3.627,2.797-5.486,4.772
	c-1.799,1.915-3.146,3.878-4.045,5.886c-0.896,2.008-1.533,4.618-1.906,7.831h4.468c3.842,0,6.86,0.946,9.062,2.836
	c2.199,1.892,3.301,4.665,3.301,8.322c0,2.604-0.977,5.037-2.93,7.299c-1.951,2.264-4.634,3.394-8.042,3.394
	c-5.332,0-9.145-1.748-11.438-5.243c-2.295-3.496-3.438-8.091-3.438-13.783c0-4.021,0.866-7.687,2.604-10.997
	c1.733-3.31,3.845-6.265,6.322-8.864c2.541-2.66,5.236-4.917,8.09-6.774c2.853-1.856,5.236-3.372,7.158-4.549L654.975,106.854z"/>
<path fill="#4B2E83" d="M626.443,231.429c0,4.091-0.898,7.827-2.695,11.204c-1.799,3.379-3.904,6.309-6.322,8.787
	c-2.479,2.543-5.207,4.82-8.183,6.834c-2.979,2.016-5.362,3.486-7.16,4.416l-3.161-5.485c2.541-1.487,4.975-3.022,7.299-4.603
	c2.325-1.58,4.106-3.083,5.351-4.51c1.674-1.859,3.006-3.796,3.998-5.812c0.987-2.014,1.608-4.664,1.855-7.951h-4.463
	c-3.905,0-6.942-0.99-9.112-2.975c-2.17-1.983-3.254-4.742-3.254-8.275c0-2.541,0.991-4.942,2.979-7.206
	c1.979-2.263,4.68-3.394,8.089-3.394c5.269,0,9.05,1.752,11.344,5.254C625.297,221.216,626.443,225.789,626.443,231.429z
	 M660.848,231.429c0,4.091-0.896,7.827-2.692,11.204c-1.8,3.379-3.905,6.309-6.323,8.787c-2.479,2.543-5.207,4.82-8.183,6.834
	c-2.979,2.016-5.362,3.486-7.159,4.416l-3.161-5.485c2.541-1.487,4.975-3.022,7.299-4.603s4.105-3.083,5.349-4.51
	c1.676-1.859,3.008-3.796,3.997-5.812c0.99-2.014,1.61-4.664,1.858-7.951h-4.463c-3.905,0-6.943-0.99-9.112-2.975
	c-2.171-1.983-3.254-4.742-3.254-8.275c0-2.541,0.99-4.942,2.975-7.206c1.983-2.263,4.684-3.394,8.093-3.394
	c5.269,0,9.051,1.752,11.345,5.254C659.699,221.216,660.848,225.789,660.848,231.429z"/>
<line fill="none" stroke="#CFD0D2" stroke-miterlimit="10" x1="431.966" y1="165.232" x2="816.581" y2="165.232"/>
<line fill="none" stroke="#CFD0D2" stroke-miterlimit="10" x1="431.966" y1="196.002" x2="816.581" y2="196.002"/>
<g>
	<path fill="#FFFFFF" d="M60.562,14.358h3.486l5.436,5.436c0.119,0.119,0.279,0.184,0.441,0.184c0.08,0,0.162-0.016,0.239-0.049
		c0.233-0.096,0.386-0.324,0.386-0.576V0.624c0-0.252-0.152-0.48-0.386-0.576c-0.234-0.098-0.502-0.043-0.681,0.135l-5.436,5.436
		h-3.486c-0.346,0-0.625,0.279-0.625,0.625v7.491C59.937,14.079,60.216,14.358,60.562,14.358z M61.185,6.867h3.122
		c0.165,0,0.323-0.065,0.441-0.183l4.553-4.553v15.714l-4.553-4.553c-0.118-0.117-0.276-0.183-0.441-0.183h-3.122V6.867z"/>
	<path fill="#FFFFFF" d="M72.423,12.485c-0.346,0-0.625,0.279-0.625,0.625c0,0.344,0.279,0.624,0.625,0.624
		c2.064,0,3.745-1.681,3.745-3.745c0-2.066-1.681-3.746-3.745-3.746c-0.346,0-0.625,0.279-0.625,0.624
		c0,0.345,0.279,0.624,0.625,0.624c1.376,0,2.496,1.121,2.496,2.498C74.919,11.366,73.799,12.485,72.423,12.485z"/>
	<path fill="#FFFFFF" d="M72.423,16.855c3.785,0,6.866-3.081,6.866-6.866c0-3.787-3.081-6.867-6.866-6.867
		c-0.346,0-0.625,0.279-0.625,0.623c0,0.346,0.279,0.625,0.625,0.625c3.098,0,5.617,2.521,5.617,5.619
		c0,3.098-2.52,5.617-5.617,5.617c-0.346,0-0.625,0.279-0.625,0.625C71.798,16.576,72.077,16.855,72.423,16.855z"/>
</g>
<path fill="#FFFFFF" d="M95.25,20.048c-0.131,0-0.262-0.03-0.384-0.091c-0.287-0.145-0.467-0.438-0.467-0.76V1.567
	c0-0.321,0.181-0.615,0.467-0.76c0.287-0.146,0.63-0.116,0.889,0.075l11.947,8.813c0.217,0.161,0.346,0.415,0.346,0.685
	s-0.128,0.524-0.346,0.685l-11.947,8.816C95.606,19.992,95.429,20.048,95.25,20.048z M96.102,3.253v14.258l9.663-7.13L96.102,3.253z
	"/>
<path fill="#FFFFFF" d="M152.594,0.246c-9.729,0-17.646,7.916-17.646,17.646s7.916,17.646,17.646,17.646
	c9.73,0,17.646-7.916,17.646-17.646S162.324,0.246,152.594,0.246z M152.594,33.69c-8.711,0-15.798-7.087-15.798-15.798
	s7.087-15.798,15.798-15.798c8.712,0,15.799,7.087,15.799,15.798S161.306,33.69,152.594,33.69z M156.255,11.719
	c-0.51,0-0.923,0.414-0.923,0.923v10.499c0,0.51,0.414,0.923,0.923,0.923c0.51,0,0.924-0.414,0.924-0.923V12.642
	C157.179,12.132,156.766,11.719,156.255,11.719z M148.934,11.719c-0.51,0-0.923,0.414-0.923,0.923v10.499
	c0,0.51,0.414,0.923,0.923,0.923c0.51,0,0.924-0.414,0.924-0.923V12.642C149.857,12.132,149.444,11.719,148.934,11.719z
	 M207.316,0.246c-9.729,0-17.646,7.916-17.646,17.646s7.916,17.646,17.646,17.646s17.646-7.916,17.646-17.646
	S217.046,0.246,207.316,0.246z M207.316,33.69c-8.711,0-15.798-7.087-15.798-15.798s7.087-15.798,15.798-15.798
	s15.799,7.087,15.799,15.798S216.028,33.69,207.316,33.69z M204.622,10.699c-0.26-0.193-0.607-0.22-0.896-0.076
	c-0.289,0.146-0.472,0.442-0.472,0.766l-0.001,13.002c0,0.324,0.182,0.62,0.471,0.766c0.123,0.062,0.255,0.092,0.387,0.092
	c0.18,0,0.359-0.057,0.509-0.167l8.812-6.502c0.219-0.162,0.349-0.418,0.349-0.691s-0.13-0.529-0.349-0.69L204.622,10.699z
	 M204.969,22.691l0.001-9.602l6.506,4.8L204.969,22.691z M273.634,1.718h-24.069c-0.474,0-0.858,0.385-0.858,0.859v21.238
	c-2.484,0.412-4.387,2.57-4.387,5.169c0,2.893,2.354,5.247,5.246,5.247h20.21c0.122,0,0.237-0.029,0.342-0.078
	c2.479-0.417,4.375-2.572,4.375-5.168V2.577C274.493,2.103,274.108,1.718,273.634,1.718z M249.565,32.514
	c-1.946,0-3.529-1.583-3.529-3.53c0-1.906,1.521-3.453,3.411-3.518c0.041,0.006,0.077,0.024,0.118,0.024
	c0.063,0,0.119-0.023,0.178-0.036h15.625c-0.015,0.017-0.026,0.037-0.041,0.053c-0.182,0.206-0.349,0.425-0.498,0.657
	c-0.022,0.036-0.043,0.072-0.066,0.108c-0.146,0.239-0.274,0.489-0.38,0.751c-0.014,0.033-0.024,0.067-0.037,0.101
	c-0.104,0.272-0.189,0.554-0.246,0.845c-0.005,0.023-0.007,0.046-0.011,0.069C264.033,28.345,264,28.66,264,28.982
	c0,0.322,0.034,0.637,0.089,0.944c0.004,0.023,0.006,0.046,0.011,0.069c0.057,0.292,0.143,0.574,0.246,0.847
	c0.013,0.033,0.023,0.066,0.037,0.099c0.106,0.264,0.235,0.514,0.381,0.754c0.021,0.035,0.042,0.07,0.063,0.104
	c0.15,0.234,0.317,0.454,0.501,0.66c0.014,0.016,0.024,0.036,0.039,0.052h-15.802V32.514L249.565,32.514z M272.776,28.984
	c0,1.946-1.583,3.53-3.529,3.53c-1.946,0-3.53-1.583-3.53-3.53c0-1.947,1.583-3.529,3.53-3.529c0.141,0,0.28,0.011,0.417,0.028
	c0.033,0.004,0.065,0.007,0.098,0.007c0.212,0,0.419-0.089,0.58-0.23c0.186-0.163,0.293-0.417,0.293-0.664
	c0-0.474-0.384-0.858-0.859-0.858h-19.351V3.435h22.352L272.776,28.984L272.776,28.984z M254.253,8.645h14.692
	c0.483,0,0.875-0.392,0.875-0.875s-0.392-0.875-0.875-0.875h-14.692c-0.483,0-0.875,0.392-0.875,0.875S253.77,8.645,254.253,8.645z
	 M254.253,14.182h14.692c0.483,0,0.875-0.392,0.875-0.875s-0.392-0.875-0.875-0.875h-14.692c-0.483,0-0.875,0.392-0.875,0.875
	S253.77,14.182,254.253,14.182z M254.253,19.718h14.692c0.483,0,0.875-0.392,0.875-0.875c0-0.483-0.392-0.875-0.875-0.875h-14.692
	c-0.483,0-0.875,0.392-0.875,0.875C253.378,19.326,253.77,19.718,254.253,19.718z"/>
<path fill="#B7A57A" d="M152.594,41.409c-9.729,0-17.646,7.916-17.646,17.646S142.864,76.7,152.594,76.7
	c9.73,0,17.646-7.916,17.646-17.646S162.324,41.409,152.594,41.409z M152.594,74.853c-8.711,0-15.798-7.087-15.798-15.798
	c0-8.711,7.087-15.798,15.798-15.798c8.712,0,15.799,7.087,15.799,15.798C168.393,67.765,161.306,74.853,152.594,74.853z
	 M156.255,52.881c-0.51,0-0.923,0.414-0.923,0.923v10.499c0,0.51,0.414,0.923,0.923,0.923c0.51,0,0.924-0.414,0.924-0.923V53.805
	C157.179,53.295,156.766,52.881,156.255,52.881z M148.934,52.881c-0.51,0-0.923,0.414-0.923,0.923v10.499
	c0,0.51,0.414,0.923,0.923,0.923c0.51,0,0.924-0.414,0.924-0.923V53.805C149.857,53.295,149.444,52.881,148.934,52.881z
	 M207.316,41.409c-9.729,0-17.646,7.916-17.646,17.646S197.587,76.7,207.316,76.7s17.646-7.916,17.646-17.646
	S217.046,41.409,207.316,41.409z M207.316,74.853c-8.711,0-15.798-7.087-15.798-15.798c0-8.711,7.087-15.798,15.798-15.798
	s15.799,7.087,15.799,15.798C223.115,67.765,216.028,74.853,207.316,74.853z M204.622,51.862c-0.26-0.193-0.607-0.22-0.896-0.076
	c-0.289,0.146-0.472,0.442-0.472,0.766l-0.001,13.002c0,0.324,0.182,0.62,0.471,0.766c0.123,0.062,0.255,0.092,0.387,0.092
	c0.18,0,0.359-0.057,0.509-0.167l8.812-6.502c0.219-0.162,0.349-0.418,0.349-0.691c0-0.273-0.13-0.529-0.349-0.69L204.622,51.862z
	 M204.969,63.854l0.001-9.602l6.506,4.8L204.969,63.854z M273.634,42.88h-24.069c-0.474,0-0.858,0.385-0.858,0.859v21.238
	c-2.484,0.412-4.387,2.57-4.387,5.169c0,2.893,2.354,5.247,5.246,5.247h20.21c0.122,0,0.237-0.029,0.342-0.078
	c2.478-0.417,4.375-2.572,4.375-5.168V43.739C274.493,43.265,274.109,42.88,273.634,42.88z M249.565,73.677
	c-1.946,0-3.529-1.583-3.529-3.53c0-1.906,1.521-3.453,3.411-3.518c0.041,0.006,0.077,0.024,0.118,0.024
	c0.063,0,0.119-0.023,0.178-0.036h15.625c-0.015,0.017-0.026,0.037-0.041,0.053c-0.182,0.206-0.349,0.425-0.498,0.657
	c-0.022,0.036-0.043,0.072-0.066,0.108c-0.146,0.239-0.274,0.489-0.38,0.751c-0.014,0.033-0.024,0.067-0.037,0.101
	c-0.104,0.272-0.189,0.554-0.246,0.845c-0.005,0.023-0.007,0.046-0.011,0.069c-0.056,0.307-0.089,0.622-0.089,0.944
	s0.034,0.637,0.089,0.944c0.004,0.023,0.006,0.046,0.011,0.069c0.057,0.292,0.143,0.574,0.246,0.847
	c0.013,0.033,0.023,0.066,0.037,0.099c0.106,0.264,0.235,0.514,0.381,0.754c0.021,0.035,0.042,0.07,0.063,0.104
	c0.15,0.234,0.317,0.454,0.501,0.66c0.014,0.016,0.024,0.036,0.039,0.052h-15.802V73.677z M272.776,70.147
	c0,1.946-1.583,3.53-3.529,3.53c-1.946,0-3.53-1.583-3.53-3.53s1.583-3.529,3.53-3.529c0.141,0,0.28,0.011,0.417,0.028
	c0.033,0.004,0.065,0.007,0.098,0.007c0.212,0,0.419-0.089,0.58-0.23c0.186-0.163,0.293-0.417,0.293-0.664
	c0-0.474-0.384-0.858-0.859-0.858h-19.351V44.598h22.352L272.776,70.147L272.776,70.147z M254.253,49.808h14.692
	c0.483,0,0.875-0.392,0.875-0.875s-0.392-0.875-0.875-0.875h-14.692c-0.483,0-0.875,0.392-0.875,0.875S253.77,49.808,254.253,49.808
	z M254.253,55.344h14.692c0.483,0,0.875-0.392,0.875-0.875c0-0.483-0.392-0.875-0.875-0.875h-14.692
	c-0.483,0-0.875,0.392-0.875,0.875C253.378,54.952,253.77,55.344,254.253,55.344z M254.253,60.88h14.692
	c0.483,0,0.875-0.392,0.875-0.875s-0.392-0.875-0.875-0.875h-14.692c-0.483,0-0.875,0.392-0.875,0.875S253.77,60.88,254.253,60.88z"
	/>
<line fill="none" stroke="#FFFFFF" stroke-miterlimit="10" x1="41.513" y1="300.775" x2="4.208" y2="439.999"/>
<circle fill="none" stroke="#FFFFFF" stroke-width="4.6485" stroke-miterlimit="10" cx="130.681" cy="374.937" r="34.703"/>
<polygon fill="#FFFFFF" points="118.775,356.929 151.661,374.938 118.775,392.946 "/>
<circle fill="none" stroke="#B7A57A" stroke-width="4.6485" stroke-miterlimit="10" cx="130.681" cy="462.215" r="34.703"/>
<polygon fill="#B7A57A" points="118.775,444.207 151.661,462.215 118.775,480.224 "/>
<g>
	
		<line fill="none" stroke="#FFFFFF" stroke-width="2.58" stroke-miterlimit="10" x1="223.826" y1="303.302" x2="246.175" y2="325.653"/>
	
		<line fill="none" stroke="#FFFFFF" stroke-width="2.58" stroke-miterlimit="10" x1="246.175" y1="303.302" x2="223.826" y2="325.653"/>
</g>
<polygon fill="#FFFFFF" points="290.827,0 288.72,2.078 293.019,6.497 288.72,10.921 290.827,12.999 297.189,6.504 297.174,6.496 
	297.189,6.494 "/>
<polygon fill="#4B2E83" points="310.55,0 308.443,2.078 312.741,6.497 308.443,10.921 310.55,12.999 316.912,6.504 316.897,6.496 
	316.912,6.494 "/>
</svg>
