<svg xmlns="http://www.w3.org/2000/svg" width="836" height="91" viewBox="0 0 836 91">
  <metadata><?xpacket begin="﻿" id="W5M0MpCehiHzreSzNTczkc9d"?>
<x:xmpmeta xmlns:x="adobe:ns:meta/" x:xmptk="Adobe XMP Core 5.6-c140 79.160451, 2017/05/06-01:08:21        ">
   <rdf:RDF xmlns:rdf="http://www.w3.org/1999/02/22-rdf-syntax-ns#">
      <rdf:Description rdf:about=""/>
   </rdf:RDF>
</x:xmpmeta>
                                                                                                    
                                                                                                    
                                                                                                    
                                                                                                    
                                                                                                    
                                                                                                    
                                                                                                    
                                                                                                    
                                                                                                    
                                                                                                    
                                                                                                    
                                                                                                    
                                                                                                    
                                                                                                    
                                                                                                    
                                                                                                    
                                                                                                    
                                                                                                    
                                                                                                    
                                                                                                    
                           
<?xpacket end="w"?></metadata>
<defs>
    <style>
      .cls-1, .cls-2, .cls-3, .cls-4, .cls-5 {
        font-size: 20px;
        text-anchor: middle;
        font-family: "Encode Sans Normal";
      }

      .cls-1, .cls-2, .cls-3, .cls-4, .cls-5, .cls-6, .cls-7 {
        fill: #fff;
      }

      .cls-1, .cls-5 {
        font-weight: 800;
      }

      .cls-1 {
        text-transform: uppercase;
      }

      .cls-2 {
        font-weight: 600;
      }

      .cls-3 {
        font-weight: 700;
      }

      .cls-4 {
        font-weight: 500;
      }

      .cls-6 {
        fill-rule: evenodd;
      }
    </style>
  </defs>
  <text id="S" class="cls-1" transform="translate(34.223 67.363) scale(2.768)"><tspan x="0">S</tspan></text>
  <text id="e_copy" data-name="e copy" class="cls-2" transform="translate(377.883 25.823) rotate(180) scale(3.664)"><tspan x="0">e</tspan></text>
  <text id="e_copy_2" data-name="e copy 2" class="cls-2" transform="translate(73.883 25.823) rotate(180) scale(3.664)"><tspan x="0">e</tspan></text>
  <text id="U" class="cls-3" transform="translate(581.487 66.457) scale(2.72)"><tspan x="0">U</tspan></text>
  <text id="U_copy" data-name="U copy" class="cls-3" transform="translate(672.487 66.457) scale(2.72)"><tspan x="0">U</tspan></text>
  <text id="U_copy_2" data-name="U copy 2" class="cls-3" transform="translate(764.487 66.457) scale(2.72)"><tspan x="0">U</tspan></text>
  <text id="d" class="cls-2" transform="translate(812.09 64.492) scale(3.304)"><tspan x="0">d</tspan></text>
  <text id="S-2" data-name="S" class="cls-1" transform="translate(116.223 67.363) scale(2.768)"><tspan x="0">S</tspan></text>
  <text id="C" class="cls-1" transform="translate(339.223 67.363) scale(2.768)"><tspan x="0">C</tspan></text>
  <text id="q" class="cls-3" transform="translate(159.913 62.806) scale(3.416)"><tspan x="0">q</tspan></text>
  <text id="w" class="cls-4" transform="translate(197.523 32.559) scale(1.923)"><tspan x="0">w</tspan></text>
  <text id="_" data-name="‘" class="cls-4" transform="translate(163.29 -17.612) rotate(180) scale(1.923)"><tspan x="0">‘</tspan></text>
  <text id="v" class="cls-4" transform="translate(340.318 19.977) scale(1.891 0.934)"><tspan x="0">v</tspan></text>
  <text id="U-2" data-name="U" class="cls-5" transform="translate(234.959 64.039) scale(2.597)"><tspan x="0">U</tspan></text>
  <text id="h" class="cls-2" transform="translate(627.385 65.493) scale(3.327)"><tspan x="0">h</tspan></text>
  <text id="y" class="cls-2" transform="translate(718.384 61.493) scale(3.327)"><tspan x="0">y</tspan></text>
  <text id="_2" data-name="?" class="cls-5" transform="translate(269.758 42.974) scale(2.229)"><tspan x="0">?</tspan></text>
  <path class="cls-6" d="M404,44h7s-0.974-12.764,12-8,20.6,12.477,31,5a13.24,13.24,0,0,0,5-10V25h-6v5s-2.31,9.979-16,3-20.375-10.762-29-2S404,44,404,44Z"/>
  <rect class="cls-7" x="427" y="11" width="9" height="56"/>
  <path id="Shape_2_copy" data-name="Shape 2 copy" class="cls-6" d="M500,44h7s-0.974-12.764,12-8,20.6,12.477,31,5a13.24,13.24,0,0,0,5-10V25h-6v5s-2.31,9.979-16,3-20.375-10.762-29-2S500,44,500,44Z"/>
  <rect id="Rectangle_1_copy" data-name="Rectangle 1 copy" class="cls-7" x="523" y="11" width="9" height="56"/>
</svg>
