<svg id="Layer_1" data-name="Layer 1" xmlns="http://www.w3.org/2000/svg" viewBox="0 0 238.5 29.71"><defs><style>.cls-1{fill:#fff;}</style></defs><title>logo-weteb-altx</title><path class="cls-1" d="M220.22,10.82l-1.41,1.55c-.55.61-1.11,1.26-1.69,1.94S216,15.6,215.6,16.1s-.82.8-.94.8a.82.82,0,0,1-.33-.17,4.35,4.35,0,0,1-.66-.63c-.44-.5-.94-1.1-1.52-1.79S211,13,210.46,12.37l-1.41-1.55c-.39-.42-.63-.64-.73-.64a1.34,1.34,0,0,0-.72.33,7.53,7.53,0,0,0-.87.75,7,7,0,0,0-.73.87,1.5,1.5,0,0,0-.31.68,2.25,2.25,0,0,0,.61,1c.41.49.9,1,1.48,1.67s1.19,1.26,1.83,1.92,1.22,1.24,1.72,1.74c.15.16.32.31.49.47s.26.26.26.33-.1.24-.31.44l-.54.54c-1,1-2,2-3.12,3.1s-2.18,2.13-3.31,3.19c0,.16.13.35.38.56a5.87,5.87,0,0,0,.94.66,6.83,6.83,0,0,0,1.19.56,3.23,3.23,0,0,0,1.11.24c.22,0,.72-.41,1.5-1.22s1.74-1.83,2.86-3.05a5.67,5.67,0,0,0,.4-.45l.56-.63c.21-.22.39-.42.57-.59s.29-.26.35-.26.18.09.35.26.35.37.54.59l.54.63c.17.21.31.35.4.45,1.13,1.22,2.08,2.23,2.86,3.05s1.3,1.22,1.55,1.22A2.9,2.9,0,0,0,222,29a6.27,6.27,0,0,0,1.12-.58,8.82,8.82,0,0,0,.92-.68c.25-.22.37-.41.37-.57-1.12-1.06-2.2-2.12-3.21-3.16s-2-2.08-3-3.08l-.56-.54c-.22-.2-.33-.35-.33-.44s.07-.18.21-.33.29-.31.45-.47l1.71-1.74,1.85-1.92c.6-.63,1.1-1.19,1.51-1.69a2.53,2.53,0,0,0,.61-1,1.5,1.5,0,0,0-.31-.68,7,7,0,0,0-.73-.87,7.53,7.53,0,0,0-.87-.75,1.31,1.31,0,0,0-.72-.33c-.1,0-.34.22-.73.64m10.16-4.3a3.87,3.87,0,0,0,.33.85,3.37,3.37,0,0,0,.66.89,4,4,0,0,0,1,.73,3.66,3.66,0,0,0,1.57.3,3.89,3.89,0,0,0,3.24-1.66,8.06,8.06,0,0,0,1.27-4.95V1h-2.68V2.16q0,4.41-2.11,4.41a1.73,1.73,0,0,1-1.52-1.06,6.31,6.31,0,0,1-.59-3V1H229v1.5a6.06,6.06,0,0,1-.61,3,1.77,1.77,0,0,1-1.55,1.06c-1.4,0-2.11-1.47-2.11-4.41V1H222V2.68a8.14,8.14,0,0,0,1.26,4.95,3.91,3.91,0,0,0,3.24,1.66,3.7,3.7,0,0,0,1.55-.3,3.85,3.85,0,0,0,1.08-.73,3.6,3.6,0,0,0,.66-.89,9.19,9.19,0,0,0,.37-.85Zm-29,9c0-.31.05-.64.07-1s0-.67,0-1,0-.66,0-.94,0-.55-.07-.8h-5.82V5.89c0-1,0-1.91,0-2.77s0-1.57,0-2.13a10.23,10.23,0,0,0-1-.07c-.37,0-.75,0-1.12,0s-.79,0-1.15,0a9,9,0,0,0-1,.07q0,.84,0,2.13c0,.86,0,1.78,0,2.77v5.89h-5.82a9.4,9.4,0,0,0-.14,1.74,13.22,13.22,0,0,0,.14,2h5.82c0,1.88,0,3.63,0,5.25s0,3.05,0,4.27v4h4.27c0-1.22,0-2.55,0-4V15.49ZM180,29q-.09-4.68-.09-8V8.61c0-2.23,0-4.78.09-7.62-.31,0-.65-.06-1-.07s-.75,0-1.15,0-.81,0-1.2,0a9.05,9.05,0,0,0-1,.07q.09,4.31.12,7.67t0,6.26v3c0,1,0,2.09,0,3.22s0,2.34-.05,3.64,0,2.71-.07,4.24Zm-16.19-5.58a6.76,6.76,0,0,1-2.62,2,8,8,0,0,1-3.15.66,6.49,6.49,0,0,1-2.63-.5,5.38,5.38,0,0,1-1.87-1.29,5.17,5.17,0,0,1-1.13-1.8,5.9,5.9,0,0,1-.38-2.05,5.6,5.6,0,0,1,.38-2,4.92,4.92,0,0,1,1.13-1.76,5.58,5.58,0,0,1,1.87-1.25,6.86,6.86,0,0,1,2.63-.47,7.13,7.13,0,0,1,2,.29,10.12,10.12,0,0,1,1.72.65,7.22,7.22,0,0,1,1.26.78,2.67,2.67,0,0,1,.66.63ZM164.4,29h4.36a62.06,62.06,0,0,1-.7-7.32c-.07-2.12-.1-3.85-.1-5.16v-.84A9.6,9.6,0,0,0,166.3,14a13.32,13.32,0,0,0-5.07-2.44,13.46,13.46,0,0,0-3.22-.37,11,11,0,0,0-4.43.82,9.51,9.51,0,0,0-3.15,2.13,9,9,0,0,0-1.87,3,9.72,9.72,0,0,0-.64,3.42,10,10,0,0,0,.59,3.38,8.22,8.22,0,0,0,1.78,2.91,8.9,8.9,0,0,0,2.94,2,10.31,10.31,0,0,0,7.62.1,9.6,9.6,0,0,0,3.22-2.09Zm-31.31-.63a3.66,3.66,0,0,0,4.39,0,2.37,2.37,0,0,0,.78-1.81,2.15,2.15,0,0,0-.78-1.73,4,4,0,0,0-4.39,0,2.18,2.18,0,0,0-.75,1.73,2.41,2.41,0,0,0,.75,1.81M128.28,7.46a2,2,0,0,0,1.44.57,2.45,2.45,0,0,0,1.78-.9,3.37,3.37,0,0,1,1.27-2.25,4,4,0,0,1,2.53-.8,4,4,0,0,1,2.65.85,3.06,3.06,0,0,1,1,2.49,4.1,4.1,0,0,1-.75,2.36A22.23,22.23,0,0,1,136.47,12a30.8,30.8,0,0,0-2.2,2.91,6.54,6.54,0,0,0-1,3.71,10,10,0,0,0,.09,1.39c.06.42.16.88.28,1.38a5,5,0,0,0,.85.12l.84,0a10.38,10.38,0,0,0,1.64-.14,3.27,3.27,0,0,1-.09-.61v-.56a7.91,7.91,0,0,1,.33-2.4,6.1,6.1,0,0,1,.94-1.83,17,17,0,0,1,1.12-1.45c.41-.47.82-.92,1.22-1.36a20.89,20.89,0,0,0,1.93-2.68A6.66,6.66,0,0,0,143.23,7a6.64,6.64,0,0,0-.61-2.86A6.44,6.44,0,0,0,140.93,2,7.93,7.93,0,0,0,138.4.52,9.21,9.21,0,0,0,135.25,0a7.79,7.79,0,0,0-4.95,1.64,7.07,7.07,0,0,0-2.6,4.46,1.81,1.81,0,0,0,.58,1.36M107.19,17.74a5,5,0,0,1,.82-.91,6.87,6.87,0,0,1,1.29-.92,10.24,10.24,0,0,1,1.67-.73,6.2,6.2,0,0,1,1.94-.3,7.21,7.21,0,0,1,2.59.44,5.29,5.29,0,0,1,1.85,1.2,5.17,5.17,0,0,1,1.1,1.71,5.33,5.33,0,0,1,.38,1.95,5.52,5.52,0,0,1-.42,2.11,5.75,5.75,0,0,1-1.25,1.86,6.23,6.23,0,0,1-2,1.31,7.58,7.58,0,0,1-2.86.49,10.28,10.28,0,0,1-2.56-.33,8.72,8.72,0,0,1-2.51-1.07ZM103,8.21q0,3.61,0,7.14c0,1.87,0,3.85,0,5.91s-.06,4-.12,5.87a18.44,18.44,0,0,0,4.6,2,17.65,17.65,0,0,0,4.46.61,13.47,13.47,0,0,0,4.31-.68,10.68,10.68,0,0,0,3.5-1.93,9.24,9.24,0,0,0,2.6-10.3A8.42,8.42,0,0,0,117.7,12a10.1,10.1,0,0,0-4-.75,9.89,9.89,0,0,0-2.54.3,11.48,11.48,0,0,0-1.95.71,7.16,7.16,0,0,0-1.31.79l-.68.54V1c-.31,0-.63-.06-1-.07s-.68,0-1.06,0L104,.92c-.39,0-.76,0-1.1.07.06,2.41.1,4.81.12,7.22M83.51,21.85c1.08-.05,2.17-.07,3.26-.07s2.22,0,3.36.07,2.09.11,2.84.21A4.45,4.45,0,0,1,90.72,25a7.92,7.92,0,0,1-4,1,8.41,8.41,0,0,1-2.08-.26A6.69,6.69,0,0,1,82.83,25a5.71,5.71,0,0,1-1.45-1.27,3.73,3.73,0,0,1-.8-1.69c.87-.06,1.85-.12,2.93-.16m5.75-2.94c-1.47-.06-3.14-.09-5-.09-1.19,0-2.4,0-3.64.05s-2.51.09-3.82.18q0,.19-.12.66a6.91,6.91,0,0,0-.07,1.08,8.36,8.36,0,0,0,.87,3.92,8.27,8.27,0,0,0,2.3,2.77A10.14,10.14,0,0,0,83,29.14a12.54,12.54,0,0,0,3.75.57,12.73,12.73,0,0,0,3.78-.57,10.2,10.2,0,0,0,3.29-1.66,8.57,8.57,0,0,0,2.32-2.77,8.13,8.13,0,0,0,.89-3.87,7.69,7.69,0,0,0-1.12-4.09,10.54,10.54,0,0,0-3.12-3.16,16.2,16.2,0,0,0-4.72-2.09,23.31,23.31,0,0,0-5.87-.8H81.8l-.4,0-.4,0a2.86,2.86,0,0,0-.49,1.05,5.23,5.23,0,0,0-.21,1.44,2.76,2.76,0,0,0,.14,1.07l1.12,0a24.64,24.64,0,0,1,3.76.45,16.62,16.62,0,0,1,3.26,1,10,10,0,0,1,2.54,1.48,6.45,6.45,0,0,1,1.61,1.9c-.84-.1-2-.17-3.47-.24M73.21,15.49c0-.31.06-.64.07-1s0-.67,0-1,0-.66,0-.94,0-.55-.07-.8H67.39V5.89c0-1,0-1.91,0-2.77s0-1.57,0-2.13c-.31,0-.66-.06-1-.07s-.75,0-1.13,0-.79,0-1.15,0a8.62,8.62,0,0,0-1,.07c0,.56,0,1.27,0,2.13s0,1.78,0,2.77v5.89H57.4a8.53,8.53,0,0,0-.15,1.74,12,12,0,0,0,.15,2h5.81c0,1.88,0,3.63,0,5.25s0,3.05,0,4.27v4h4.27c0-1.22,0-2.55,0-4V15.49ZM40.43,21.85c1.08-.05,2.17-.07,3.26-.07s2.21,0,3.36.07,2.09.11,2.84.21A4.5,4.5,0,0,1,47.63,25a7.89,7.89,0,0,1-3.94,1,8.55,8.55,0,0,1-2.09-.26A6.75,6.75,0,0,1,39.75,25a5.94,5.94,0,0,1-1.46-1.27A3.82,3.82,0,0,1,37.5,22c.87-.06,1.85-.12,2.93-.16m5.75-2.94c-1.47-.06-3.15-.09-5-.09-1.19,0-2.4,0-3.64.05S35,19,33.7,19.05a6.44,6.44,0,0,0-.12.66,6.91,6.91,0,0,0-.07,1.08,8.36,8.36,0,0,0,.87,3.92,8.16,8.16,0,0,0,2.3,2.77,10.14,10.14,0,0,0,3.26,1.66,12.54,12.54,0,0,0,3.75.57,12.83,12.83,0,0,0,3.78-.57,10.2,10.2,0,0,0,3.29-1.66,8.7,8.7,0,0,0,2.32-2.77A8.13,8.13,0,0,0,54,20.84a7.7,7.7,0,0,0-1.13-4.09,10.31,10.31,0,0,0-3.12-3.16A16.14,16.14,0,0,0,45,11.5a23.31,23.31,0,0,0-5.87-.8h-.42l-.4,0-.4,0a2.86,2.86,0,0,0-.49,1.05,5.23,5.23,0,0,0-.21,1.44,2.76,2.76,0,0,0,.14,1.07l1.12,0a24.64,24.64,0,0,1,3.76.45,16.83,16.83,0,0,1,3.26,1A10,10,0,0,1,48,17.25a6.35,6.35,0,0,1,1.62,1.9c-.84-.1-2-.17-3.47-.24M.8,14.36l1.59,4.69Q3.25,21.54,4,23.68c.52,1.42,1,2.63,1.43,3.63A4.74,4.74,0,0,0,6.52,29.1a5.27,5.27,0,0,0,2.35.56A4.24,4.24,0,0,0,11,29.1a2.28,2.28,0,0,0,.78-.8,12.62,12.62,0,0,0,.89-1.78c.33-.79.69-1.77,1.1-3s.88-2.64,1.41-4.36a.32.32,0,0,1,.09-.08l.1,0,.09,0a.32.32,0,0,1,.09.08c.54,1.72,1,3.18,1.41,4.38s.77,2.19,1.08,3a12.21,12.21,0,0,0,.85,1.76,2.09,2.09,0,0,0,.75.8,10,10,0,0,0,1,.4,3.81,3.81,0,0,0,1.17.16,4.58,4.58,0,0,0,2.3-.56,4.23,4.23,0,0,0,1.08-1.74c.44-1,.92-2.21,1.43-3.61s1.05-2.94,1.6-4.6,1.09-3.22,1.62-4.69L30.69,12l-1.57-.16c-.52,0-1-.07-1.57-.07h-.71a6.06,6.06,0,0,0-.7.05C25.76,13.2,25.37,14.6,25,16s-.8,2.72-1.18,3.92-.71,2.27-1,3.19-.52,1.59-.68,2a.38.38,0,0,1-.28.09.78.78,0,0,1-.28-.09c-.12-.28-.32-.78-.59-1.5s-.56-1.55-.89-2.49-.67-1.93-1-3l-1-2.89L17.29,13c-.2-.63-.32-1-.35-1.13l-.8-.07-.79,0-.8,0-.8.07c0,.13-.15.5-.35,1.13l-.75,2.25-1,2.89c-.36,1.05-.71,2-1.05,3s-.65,1.77-.92,2.49-.44,1.22-.54,1.5a.39.39,0,0,1-.28.09.38.38,0,0,1-.28-.09,19.48,19.48,0,0,1-.73-2c-.3-.92-.63-2-1-3.19S6.13,17.41,5.73,16s-.8-2.8-1.18-4.17a6.11,6.11,0,0,0-.73-.05H3.1a15.51,15.51,0,0,0-1.55.07L0,12Z"/></svg>