<svg id="Layer_1" data-name="Layer 1" xmlns="http://www.w3.org/2000/svg" viewBox="0 0 275.95007 34.29016"><title>LANGUAGE_ASSEMBLED</title><path d="M9.02832,16.3252a3.7493,3.7493,0,0,1,.937,2.64257,3.88522,3.88522,0,0,1-1.5166,3.26075A6.57277,6.57277,0,0,1,4.333,23.39844,10.31743,10.31743,0,0,1,0,22.67285V20.89648a11.363,11.363,0,0,0,2.12305.64942,11.1478,11.1478,0,0,0,2.2749.23828,4.59073,4.59073,0,0,0,2.77295-.69824,2.29405,2.29405,0,0,0,.93115-1.94434A2.497,2.497,0,0,0,7.772,17.793a3.07989,3.07989,0,0,0-1.105-.96973A15.42723,15.42723,0,0,0,4.311,15.81641a7.5254,7.5254,0,0,1-3.15723-1.874,4.13749,4.13749,0,0,1-.94776-2.82715A3.51609,3.51609,0,0,1,1.58154,8.20166a5.7166,5.7166,0,0,1,3.63965-1.083,10.72646,10.72646,0,0,1,4.34326.86621l-.57422,1.603a9.82342,9.82342,0,0,0-3.8125-.82324,3.6923,3.6923,0,0,0-2.28564.62842,2.071,2.071,0,0,0-.82324,1.74414,2.67116,2.67116,0,0,0,.30322,1.34814,2.85193,2.85193,0,0,0,1.02393.96436,12.68487,12.68487,0,0,0,2.2041.96924A8.7239,8.7239,0,0,1,9.02832,16.3252ZM34.68408,14.499a12.68422,12.68422,0,0,1-2.2041-.96923,2.852,2.852,0,0,1-1.02393-.96436,2.67129,2.67129,0,0,1-.30322-1.34814,2.071,2.071,0,0,1,.82324-1.74415,3.69238,3.69238,0,0,1,2.28565-.62841,9.8235,9.8235,0,0,1,3.8125.82324l.57422-1.603a10.72629,10.72629,0,0,0-4.34326-.86621,5.71658,5.71658,0,0,0-3.63965,1.083A3.51609,3.51609,0,0,0,29.29,11.19531a4.13754,4.13754,0,0,0,.94775,2.82715,7.52542,7.52542,0,0,0,3.15723,1.874,15.42728,15.42728,0,0,1,2.356,1.00684,3.08006,3.08006,0,0,1,1.105.96973,2.49713,2.49713,0,0,1,.33008,1.34863,2.294,2.294,0,0,1-.93116,1.94434,4.59073,4.59073,0,0,1-2.773.69824A11.14794,11.14794,0,0,1,31.207,21.626a11.364,11.364,0,0,1-2.123-.64942v1.77637a10.31743,10.31743,0,0,0,4.333.72559,6.57271,6.57271,0,0,0,4.11572-1.16993,3.88517,3.88517,0,0,0,1.51661-3.26074,3.74927,3.74927,0,0,0-.937-2.64258A8.72408,8.72408,0,0,0,34.68408,14.499ZM24.94019,9.55585a7.824,7.824,0,0,1,2.0495,5.74762,8.4584,8.4584,0,0,1-1.97553,5.844,6.83763,6.83763,0,0,1-5.33392,2.21033,6.05947,6.05947,0,0,1-4.69989-1.9,7.36282,7.36282,0,0,1-1.71955-5.1231V15.05829H25.06543a6.41407,6.41407,0,0,0-1.52411-4.40375,5.68275,5.68275,0,0,0-4.2984-1.56763,14.92843,14.92843,0,0,0-2.43622.17615,15.95817,15.95817,0,0,0-2.66076.762l-.23664.08593V8.50165l.11139-.04419a13.07251,13.07251,0,0,1,2.59912-.759,15.8115,15.8115,0,0,1,2.62311-.202A7.71346,7.71346,0,0,1,24.94019,9.55585ZM23.35626,20.42316A6.12611,6.12611,0,0,0,24.95953,16.621h-9.761a5.85837,5.85837,0,0,0,1.19323,3.77246A4.08971,4.08971,0,0,0,19.68024,21.795,5.00819,5.00819,0,0,0,23.35626,20.42316ZM137.05286,9.40094a8.03023,8.03023,0,0,1,2.10351,5.89929,8.68157,8.68157,0,0,1-2.02765,5.99817,7.0179,7.0179,0,0,1-5.47461,2.26862,6.21937,6.21937,0,0,1-4.82391-1.95014,7.55725,7.55725,0,0,1-1.76495-5.2583V15.04852h12.11609a6.58312,6.58312,0,0,0-1.56427-4.51989,5.833,5.833,0,0,0-4.41187-1.609,15.32514,15.32514,0,0,0-2.50043.18078,16.3845,16.3845,0,0,0-2.731.78217l-.24292.08819V8.31891l.11438-.04535a13.41666,13.41666,0,0,1,2.66773-.779,16.22771,16.22771,0,0,1,2.69226-.20728A7.91722,7.91722,0,0,1,137.05286,9.40094ZM135.42712,20.555a6.2881,6.2881,0,0,0,1.64557-3.90252H127.0542a6.01257,6.01257,0,0,0,1.22467,3.872,4.19759,4.19759,0,0,0,3.37524,1.43859A5.14022,5.14022,0,0,0,135.42712,20.555ZM65.61279,8.4707a7.43932,7.43932,0,0,0-.14648.75635h-.0542a14.527,14.527,0,0,0-.51758-1.96875L63.55908,2.97363H62.333L60.96387,7.2583q-.12233.36108-.28955.97754-.167.6167-.2417,1.00488h-.05469a17.22091,17.22091,0,0,0-.43262-1.98242q-.37792-1.47144-1.1001-4.28467H57.66016l2.03662,7.46582h1.3081L62.415,6.07324q.20435-.64746.47656-1.83935h.05469q.35376,1.42383.4834,1.82568l1.36914,4.37988h1.34228l2.064-7.46582H67.0332Q65.73243,7.96,65.61279,8.4707ZM49.41748,2.59863A11.29779,11.29779,0,0,0,49.78564,1.437l-.062-.11426h-.9541a25.20383,25.20383,0,0,1-.53418,2.59864h.6377Q49.16381,3.2937,49.41748,2.59863Zm29.896,14.49317A4.1061,4.1061,0,0,1,78.23,20.15234a4.2151,4.2151,0,0,1-3.08691,1.06641,4.36967,4.36967,0,0,1-3.18457-1.06152,4.06771,4.06771,0,0,1-1.083-3.043V6.78027H69.03418V16.9834a5.78578,5.78578,0,0,0,1.56494,4.29A5.99954,5.99954,0,0,0,75.02393,22.833,6.27452,6.27452,0,0,0,79.519,21.28418a5.58341,5.58341,0,0,0,1.63575-4.25684V6.78027H79.31348Zm125.125.6455a4.10784,4.10784,0,0,1-1.083,3.06055,4.21588,4.21588,0,0,1-3.08692,1.06641,4.3681,4.3681,0,0,1-3.18457-1.06153,4.06581,4.06581,0,0,1-1.083-3.043V7.42578h-1.8418V17.62891a5.7841,5.7841,0,0,0,1.56543,4.29,5.99875,5.99875,0,0,0,4.4248,1.55957,6.27539,6.27539,0,0,0,4.49512-1.54883,5.58462,5.58462,0,0,0,1.63477-4.25684V7.42578h-1.84082ZM117.70605,4.251,120.93164,0h-1.37988q-1.582,2.17236-2.03565,2.81787a6.227,6.227,0,0,0-.53906.85156h-.062a8.552,8.552,0,0,0-.72852-1.14843L114.35645,0h-1.38038l3.22559,4.251ZM231.9375,17.7373a4.10784,4.10784,0,0,1-1.083,3.06055,4.21584,4.21584,0,0,1-3.08691,1.06641,4.36809,4.36809,0,0,1-3.18457-1.06153,4.06578,4.06578,0,0,1-1.083-3.043V7.42578h-1.8418V17.62891a5.78414,5.78414,0,0,0,1.56543,4.29,5.99878,5.99878,0,0,0,4.42481,1.55957,6.27536,6.27536,0,0,0,4.49511-1.54883,5.58462,5.58462,0,0,0,1.63477-4.25684V7.42578H231.9375Zm28.91406,0a4.10784,4.10784,0,0,1-1.083,3.06055,4.21584,4.21584,0,0,1-3.08691,1.06641,4.36809,4.36809,0,0,1-3.18457-1.06153,4.06578,4.06578,0,0,1-1.083-3.043V7.42578h-1.84179V17.62891a5.7841,5.7841,0,0,0,1.56543,4.29,5.99874,5.99874,0,0,0,4.4248,1.55957,6.27539,6.27539,0,0,0,4.49512-1.54883,5.58465,5.58465,0,0,0,1.63476-4.25684V7.42578h-1.84082ZM87.34918.99487a8.82313,8.82313,0,0,0-4.14892,1.0398l.61981,1.41784a8.765,8.765,0,0,1,1.8067-.70892,6.72848,6.72848,0,0,1,1.61737-.19427,2.98276,2.98276,0,0,1,1.97992.58282,2.04928,2.04928,0,0,1,.68787,1.6543,2.76255,2.76255,0,0,1-.373,1.4704A9.49951,9.49951,0,0,1,87.73773,8.074,5.41807,5.41807,0,0,0,86.3302,9.749a4.70671,4.70671,0,0,0-.37781,2.0221V12.338h1.35468v-.34637a3.2166,3.2166,0,0,1,.34149-1.59656,6.48052,6.48052,0,0,1,1.402-1.50189,14.51434,14.51434,0,0,0,1.72271-1.67542,3.96,3.96,0,0,0,.60389-1.10266,4.06761,4.06761,0,0,0,.20465-1.34979,3.52568,3.52568,0,0,0-1.113-2.7832A4.544,4.544,0,0,0,87.34918.99487Zm29.915,7.20435a8.39045,8.39045,0,0,1,3.59619.84521l.77979-1.58154a9.81529,9.81529,0,0,0-4.354-.90967,8.00184,8.00184,0,0,0-4.06738.9961,6.57326,6.57326,0,0,0-2.64307,2.83789,9.52255,9.52255,0,0,0-.915,4.28955,8.744,8.744,0,0,0,1.90088,6.0332,6.8717,6.8717,0,0,0,5.39942,2.12305,11.65344,11.65344,0,0,0,4.062-.61719V20.60156a14.17112,14.17112,0,0,1-3.78027.59571,5.17628,5.17628,0,0,1-4.15381-1.69532,7.15207,7.15207,0,0,1-1.457-4.80371A7.01126,7.01126,0,0,1,113.14307,9.938,5.17664,5.17664,0,0,1,117.26416,8.19922ZM243.13348,19.61664s-.07306-.07538-.16693.29284c0,0-.37634-.75262-1.18274-2.41918l-4.52075-10.374h-1.92779l6.7442,15.078-1.08515,2.822A2.74624,2.74624,0,0,1,238.3515,27.096a6.26553,6.26553,0,0,1-1.33246-.13013v1.44049a7.22785,7.22785,0,0,0,1.62476.18433,3.76828,3.76828,0,0,0,2.486-.83948,6.74816,6.74816,0,0,0,1.77094-2.8432l6.66052-17.8739h-1.9281C244.41333,15.98279,243.433,18.72485,243.13348,19.61664ZM275.95007.99487v22.2666h-1.46222l-.23809-1.59234h-.09766a4.22453,4.22453,0,0,1-3.72583,1.80908,4.40664,4.40664,0,0,1-3.62311-1.59235,7.00731,7.00731,0,0,1-1.29462-4.52746,7.12949,7.12949,0,0,1,1.29969-4.56024,4.37545,4.37545,0,0,1,3.618-1.62476,4.31838,4.31838,0,0,1,3.70441,1.75488h.14044l-.07556-.85583-.04346-.8338V.99487Zm-1.798,16.36353a5.96011,5.96011,0,0,0-.83917-3.60169,3.18968,3.18968,0,0,0-2.68128-1.07757,2.75126,2.75126,0,0,0-2.42041,1.22943,6.10805,6.10805,0,0,0-.83984,3.47125,5.85851,5.85851,0,0,0,.83417,3.43378,2.82431,2.82431,0,0,0,2.44812,1.15887,3.27341,3.27341,0,0,0,2.66992-1.002,5.06083,5.06083,0,0,0,.82849-3.23309Zm-58.86285-6.16333a4.91193,4.91193,0,0,0-2.23652.49292,3.66617,3.66617,0,0,0-1.511,1.34851h-.10834a11.14177,11.14177,0,0,0,.08661-1.52741V.99487h-1.798V23.26135h1.798V17.05493a5.15608,5.15608,0,0,1,.8612-3.33612,3.389,3.389,0,0,1,2.73481-1.01807,2.692,2.692,0,0,1,2.06891.71473,3.09911,3.09911,0,0,1,.66058,2.16626v7.67962h1.79828V15.51678a4.35592,4.35592,0,0,0-1.08863-3.28729A4.58127,4.58127,0,0,0,215.28925,11.19507ZM53.30243,7.03406h2.05041v27.2561H53.30243V21.38562a6.77864,6.77864,0,0,1-5.26141,2.0929,6.84227,6.84227,0,0,1-5.39942-2.13965,8.7878,8.7878,0,0,1-1.90088-6.03809A8.67913,8.67913,0,0,1,42.647,9.30518a6.89343,6.89343,0,0,1,5.416-2.12842,6.7698,6.7698,0,0,1,5.23944,2.07593Zm0,9.31683v-2.051a6.817,6.817,0,0,0-1.281-3.82477A4.79328,4.79328,0,0,0,48.063,8.82324a4.88757,4.88757,0,0,0-4.00244,1.6626,7.43848,7.43848,0,0,0-1.37012,4.83643,7.51614,7.51614,0,0,0,1.37012,4.87988A4.86128,4.86128,0,0,0,48.041,21.86426,4.81269,4.81269,0,0,0,52.01611,20.207,6.86412,6.86412,0,0,0,53.30243,16.35089ZM155.93579,8.85278s-.03528,4.05536-2.64484,3.20905a16.03429,16.03429,0,0,1-1.9309-.82678V.99487h-2.05042v9.24878c-1.90149-.87628-3.85235-1.53637-5.25781-.72088a4.55842,4.55842,0,0,0-2.32745,4.37274h1.79846a2.1636,2.1636,0,0,1,.63476-1.97479c.88159-.67,1.76319-1.09314,3.6322-.31733a15.35415,15.35415,0,0,1,1.51984.78888V23.34161h2.05042V13.40155a5.16474,5.16474,0,0,0,3.83514.10608c3.03272-1.1637,2.43323-4.65485,2.43323-4.65485Zm33.66107,0s-.03521,4.05536-2.64477,3.20905a16.03438,16.03438,0,0,1-1.93091-.82678V.99487h-2.05042v9.24878c-1.90149-.87622-3.85229-1.53637-5.25781-.72088a4.55842,4.55842,0,0,0-2.32745,4.37274H177.184a2.16359,2.16359,0,0,1,.63477-1.97479c.88159-.67,1.76318-1.09314,3.6322-.31733a15.353,15.353,0,0,1,1.51983.78888V23.34161h2.05042V13.40155a5.16474,5.16474,0,0,0,3.83514.10608c3.03272-1.1637,2.43323-4.65485,2.43323-4.65485Z" fill="#fff"/></svg>