<?xml version="1.0" encoding="utf-8"?>
<!-- Generator: Adobe Illustrator 16.0.0, SVG Export Plug-In . SVG Version: 6.00 Build 0)  -->
<!DOCTYPE svg PUBLIC "-//W3C//DTD SVG 1.1//EN" "http://www.w3.org/Graphics/SVG/1.1/DTD/svg11.dtd">
<svg version="1.1" id="Layer_1" xmlns="http://www.w3.org/2000/svg" xmlns:xlink="http://www.w3.org/1999/xlink" x="0px" y="0px"
	 width="888.062px" height="186.67px" viewBox="0 0 888.062 186.67" enable-background="new 0 0 888.062 186.67"
	 xml:space="preserve">
<path fill="#A4A3A3" d="M9.639,150.978c0.295,0,0.608-0.073,0.929-0.217l9.011-4.011c0.775-0.345,1.814-1.06,2.414-1.659
	l24.605-24.644c0.474-0.473,0.735-1.105,0.735-1.778c0-0.674-0.261-1.306-0.735-1.778l-4.505-4.514
	c-0.474-0.473-1.105-0.734-1.777-0.734s-1.302,0.262-1.775,0.735l-25.234,25.271c-0.608,0.607-1.313,1.668-1.641,2.465l-3.439,8.367
	c-0.374,0.906-0.11,1.521,0.081,1.808C8.6,150.726,9.086,150.978,9.639,150.978z M20.216,143.312L20.216,143.312l-4.505-4.512
	l20.836-20.868l4.505,4.512L20.216,143.312z M40.316,114.156l4.506,4.514l-1.993,1.995l-4.505-4.512L40.316,114.156z
	 M13.989,141.071c0.037-0.09,0.087-0.191,0.143-0.295l3.902,3.908l-6.769,3.012L13.989,141.071z"/>
<path fill="#85754D" d="M9.639,49.241c0.295,0,0.608-0.073,0.929-0.217l9.011-4.011c0.775-0.345,1.814-1.06,2.414-1.659
	l24.605-24.644c0.474-0.473,0.735-1.105,0.735-1.778c0-0.674-0.261-1.306-0.735-1.778l-4.505-4.514
	c-0.474-0.473-1.105-0.734-1.777-0.734s-1.302,0.262-1.775,0.735L13.307,35.913c-0.608,0.607-1.313,1.668-1.641,2.465l-3.439,8.367
	c-0.374,0.906-0.11,1.521,0.081,1.808C8.6,48.989,9.086,49.241,9.639,49.241z"/>
<polygon fill="#CCCCCC" points="20.216,41.575 20.216,41.575 15.711,37.063 36.547,16.195 41.052,20.707 "/>
<polygon fill="#CCCCCC" points="40.316,12.42 44.822,16.934 42.829,18.929 38.324,14.417 "/>
<path fill="#CCCCCC" d="M13.989,39.335c0.037-0.09,0.087-0.191,0.143-0.295l3.902,3.908l-6.769,3.012L13.989,39.335z"/>
<g>
	<g>
		<path fill="#A4A3A3" d="M145.766,118.873c-3.092,0-5.61,2.5-5.61,5.575c0,3.071,2.518,5.571,5.61,5.571
			c3.093,0,5.609-2.5,5.609-5.571C151.375,121.373,148.858,118.873,145.766,118.873z M145.766,127.232
			c-1.546,0-2.805-1.248-2.805-2.784c0-1.538,1.259-2.788,2.805-2.788c1.547,0,2.804,1.25,2.804,2.788
			C148.569,125.984,147.312,127.232,145.766,127.232z M145.766,108.424c-8.891,0-16.124,7.198-16.124,16.047
			c0,10.874,14.431,27.367,15.046,28.062c0.265,0.302,0.628,0.466,1.054,0.475c0.402,0,0.785-0.17,1.051-0.471
			c0.619-0.697,15.147-17.194,15.097-28.074C161.849,115.62,154.616,108.424,145.766,108.424z M145.744,149.455
			c-3.311-3.997-13.299-16.737-13.299-24.984c0-7.312,5.976-13.261,13.32-13.261c7.312,0,13.286,5.952,13.32,13.269
			C159.123,132.715,149.073,145.461,145.744,149.455z"/>
	</g>
</g>
<g>
	<g>
		<path fill="#A4A3A3" d="M301.967,124.781h-4.18l-0.734-2.205l3.264-3.268c0.5-0.498,0.5-1.306,0-1.804l-5.098-5.098
			c-0.496-0.499-1.303-0.499-1.801,0l-3.266,3.267l-2.205-0.734v-4.18c0-0.703-0.572-1.274-1.275-1.274h-7.646
			c-0.703,0-1.275,0.571-1.275,1.274v4.18l-2.205,0.736l-3.266-3.268c-0.498-0.499-1.305-0.499-1.803,0l-5.098,5.098
			c-0.498,0.498-0.498,1.307,0,1.805l3.268,3.267l-0.736,2.205h-4.18c-0.703,0-1.275,0.571-1.275,1.274v7.647
			c0,0.705,0.572,1.275,1.275,1.275h4.18l0.736,2.205l-3.268,3.268c-0.498,0.498-0.498,1.304,0,1.804l5.098,5.099
			c0.498,0.496,1.305,0.496,1.803,0l3.266-3.269l2.205,0.734v4.182c0,0.703,0.572,1.272,1.275,1.272h7.646
			c0.703,0,1.275-0.57,1.275-1.272v-4.182l2.205-0.734l3.266,3.269c0.498,0.496,1.305,0.496,1.801,0l5.098-5.099
			c0.5-0.5,0.5-1.306,0-1.804l-3.264-3.268l0.734-2.205h4.18c0.703,0,1.273-0.57,1.273-1.275v-7.647
			C303.241,125.352,302.67,124.781,301.967,124.781z M300.692,132.43h-3.824c-0.549,0-1.035,0.351-1.209,0.872l-1.273,3.823
			c-0.154,0.458-0.033,0.963,0.307,1.304l2.924,2.924l-3.297,3.297l-2.922-2.924c-0.342-0.342-0.846-0.461-1.305-0.308l-3.822,1.272
			c-0.521,0.175-0.873,0.662-0.873,1.211v3.824H280.3v-3.824c0-0.549-0.352-1.036-0.871-1.211l-3.824-1.272
			c-0.455-0.153-0.961-0.032-1.303,0.308l-2.924,2.924l-3.295-3.297l2.922-2.924c0.342-0.341,0.461-0.846,0.309-1.304l-1.275-3.823
			c-0.174-0.521-0.66-0.872-1.209-0.872h-3.822v-5.1h3.822c0.549,0,1.035-0.35,1.209-0.87l1.275-3.825
			c0.152-0.457,0.033-0.963-0.309-1.304l-2.922-2.922l3.295-3.296l2.924,2.922c0.34,0.342,0.846,0.46,1.303,0.309l3.824-1.274
			c0.52-0.175,0.871-0.66,0.871-1.209v-3.825h5.098v3.824c0,0.549,0.352,1.035,0.873,1.209l3.822,1.273
			c0.459,0.153,0.963,0.034,1.305-0.308l2.922-2.922l3.297,3.296l-2.924,2.922c-0.34,0.341-0.461,0.846-0.307,1.305l1.273,3.824
			c0.174,0.521,0.66,0.87,1.209,0.87h3.824V132.43z M282.848,124.781c-2.811,0-5.098,2.287-5.098,5.098
			c0,2.812,2.287,5.101,5.098,5.101c2.812,0,5.1-2.289,5.1-5.101C287.948,127.068,285.661,124.781,282.848,124.781z M282.848,132.43
			c-1.404,0-2.549-1.144-2.549-2.551c0-1.404,1.145-2.549,2.549-2.549c1.406,0,2.549,1.145,2.549,2.549
			C285.397,131.286,284.254,132.43,282.848,132.43z"/>
	</g>
</g>
<g>
	<g>
		<path fill="#A4A3A3" d="M453.613,123.325l-3.881-3.881c-0.566-0.568-1.486-0.568-2.054,0c-0.821,0.821-1.918,1.276-3.082,1.276
			c-2.401,0-4.354-1.957-4.354-4.36c0-1.164,0.453-2.261,1.276-3.083c0.271-0.274,0.425-0.643,0.425-1.028s-0.152-0.755-0.425-1.028
			l-3.883-3.882c-0.565-0.567-1.485-0.567-2.053,0l-27.596,27.612c-0.271,0.272-0.425,0.642-0.425,1.026
			c0,0.387,0.152,0.754,0.425,1.028l3.881,3.882c0.565,0.567,1.488,0.567,2.055,0c0.822-0.824,1.916-1.275,3.08-1.275
			c2.402,0,4.357,1.953,4.357,4.357c0,1.166-0.453,2.26-1.277,3.084c-0.271,0.273-0.426,0.644-0.426,1.028
			c0,0.386,0.153,0.754,0.426,1.026l3.881,3.882c0.283,0.284,0.654,0.427,1.027,0.427c0.371,0,0.742-0.143,1.026-0.427l27.595-27.61
			c0.272-0.272,0.426-0.642,0.426-1.028C454.039,123.967,453.887,123.6,453.613,123.325z M442.42,132.471l-1.15-1.151
			c-0.567-0.567-1.487-0.567-2.055,0c-0.565,0.567-0.565,1.486,0,2.055l1.15,1.152l-15.373,15.384l-1.928-1.929
			c0.78-1.178,1.2-2.562,1.2-4.01c0-4.006-3.258-7.265-7.262-7.265c-1.447,0-2.828,0.419-4.006,1.203l-1.928-1.931l15.375-15.384
			l1.149,1.152c0.283,0.284,0.656,0.428,1.027,0.428s0.742-0.144,1.027-0.428c0.565-0.568,0.565-1.486,0-2.054l-1.152-1.153
			l8.113-8.117l1.928,1.93c-0.781,1.179-1.203,2.562-1.203,4.009c0,4.006,3.258,7.265,7.262,7.265c1.447,0,2.828-0.42,4.006-1.201
			l1.929,1.928L442.42,132.471z M434.006,124.051l-1.451-1.453c-0.565-0.567-1.487-0.567-2.055,0c-0.566,0.568-0.566,1.487,0,2.056
			l1.453,1.454c0.283,0.281,0.654,0.425,1.027,0.425c0.37,0,0.741-0.144,1.024-0.425
			C434.574,125.539,434.574,124.619,434.006,124.051z M436.912,126.957c-0.566-0.568-1.488-0.568-2.055,0
			c-0.568,0.568-0.568,1.488,0,2.055l1.45,1.454c0.285,0.285,0.656,0.427,1.027,0.427s0.744-0.142,1.027-0.427
			c0.567-0.567,0.567-1.487,0-2.055L436.912,126.957z"/>
	</g>
</g>
<g>
	<g>
		<path fill="#A4A3A3" d="M600.659,112.794h-5.451v-1.389c0-0.767-0.611-1.39-1.363-1.39h-4.092c-0.754,0-1.363,0.623-1.363,1.39
			v1.389h-16.36v-1.389c0-0.767-0.611-1.39-1.363-1.39h-4.09c-0.752,0-1.363,0.623-1.363,1.39v1.389h-5.453
			c-0.754,0-1.362,0.623-1.362,1.39v33.337c0,0.767,0.608,1.39,1.362,1.39h40.9c0.754,0,1.365-0.623,1.365-1.39v-33.337
			C602.024,113.417,601.413,112.794,600.659,112.794z M591.116,112.794h1.365v2.779h-1.365V112.794z M567.938,112.794h1.363v2.779
			h-1.363V112.794z M599.298,146.132H561.12v-30.559h4.092v1.389c0,0.767,0.611,1.39,1.363,1.39h4.09
			c0.752,0,1.363-0.623,1.363-1.39v-1.389h16.36v1.389c0,0.767,0.609,1.39,1.363,1.39h4.092c0.752,0,1.363-0.623,1.363-1.39v-1.389
			h4.09L599.298,146.132L599.298,146.132z M572.028,123.907h-5.453c-0.752,0-1.363,0.622-1.363,1.389v5.556
			c0,0.768,0.611,1.39,1.363,1.39h5.453c0.752,0,1.362-0.622,1.362-1.39v-5.556C573.392,124.529,572.78,123.907,572.028,123.907z
			 M570.665,129.463h-2.728v-2.777h2.728V129.463z M582.938,123.907h-5.453c-0.754,0-1.365,0.622-1.365,1.389v5.556
			c0,0.768,0.611,1.39,1.365,1.39h5.453c0.752,0,1.362-0.622,1.362-1.39v-5.556C584.3,124.529,583.688,123.907,582.938,123.907z
			 M581.573,129.463h-2.728v-2.777h2.728V129.463z M593.845,123.907h-5.455c-0.754,0-1.362,0.622-1.362,1.389v5.556
			c0,0.768,0.608,1.39,1.362,1.39h5.455c0.752,0,1.363-0.622,1.363-1.39v-5.556C595.208,124.529,594.597,123.907,593.845,123.907z
			 M592.481,129.463h-2.729v-2.777h2.729V129.463z M572.028,135.019h-5.453c-0.752,0-1.363,0.623-1.363,1.39v5.556
			c0,0.768,0.611,1.389,1.363,1.389h5.453c0.752,0,1.362-0.621,1.362-1.389v-5.556C573.392,135.642,572.78,135.019,572.028,135.019z
			 M570.665,140.575h-2.728v-2.778h2.728V140.575z M582.938,135.019h-5.453c-0.754,0-1.365,0.623-1.365,1.39v5.556
			c0,0.768,0.611,1.389,1.365,1.389h5.453c0.752,0,1.362-0.621,1.362-1.389v-5.556C584.3,135.642,583.688,135.019,582.938,135.019z
			 M581.573,140.575h-2.728v-2.778h2.728V140.575z M593.845,135.019h-5.455c-0.754,0-1.362,0.623-1.362,1.39v5.556
			c0,0.768,0.608,1.389,1.362,1.389h5.455c0.752,0,1.363-0.621,1.363-1.389v-5.556C595.208,135.642,594.597,135.019,593.845,135.019
			z M592.481,140.575h-2.729v-2.778h2.729V140.575z"/>
	</g>
</g>
<g>
	<g>
		<path fill="#A4A3A3" d="M733.199,111.946c-0.297-0.257-0.687-0.374-1.078-0.323l-20.271,2.686l-20.271-2.686
			c-0.394-0.054-0.783,0.064-1.078,0.323c-0.295,0.257-0.465,0.629-0.465,1.02v32.524c0,0.679,0.506,1.253,1.184,1.343l20.451,2.709
			c0.059,0.008,0.119,0.014,0.18,0.014c0.062,0,0.119-0.004,0.181-0.014l20.45-2.709c0.679-0.09,1.185-0.665,1.185-1.343v-32.525
			C733.664,112.575,733.494,112.203,733.199,111.946z M710.486,146.651l-17.726-2.35v-29.788l17.726,2.35V146.651z M730.938,144.302
			l-17.725,2.35v-29.788l17.725-2.35V144.302z M696.684,121.086l10.906,1.354c0.058,0.008,0.113,0.012,0.172,0.012
			c0.677,0,1.265-0.5,1.351-1.188c0.094-0.742-0.437-1.42-1.183-1.513l-10.908-1.354c-0.745-0.096-1.43,0.434-1.522,1.177
			C695.406,120.314,695.938,120.993,696.684,121.086z M696.684,127.861l10.906,1.354c0.058,0.009,0.113,0.011,0.172,0.011
			c0.677,0,1.265-0.502,1.351-1.188c0.094-0.742-0.437-1.419-1.183-1.512l-10.908-1.356c-0.745-0.097-1.43,0.435-1.522,1.177
			C695.406,127.091,695.938,127.768,696.684,127.861z M696.684,134.638l10.906,1.354c0.058,0.007,0.113,0.011,0.172,0.011
			c0.677,0,1.265-0.502,1.351-1.188c0.094-0.742-0.437-1.42-1.183-1.514l-10.908-1.354c-0.745-0.096-1.43,0.434-1.522,1.176
			C695.406,133.866,695.938,134.544,696.684,134.638z M696.684,141.412l10.906,1.356c0.058,0.006,0.113,0.01,0.172,0.01
			c0.677,0,1.265-0.501,1.351-1.188c0.094-0.742-0.437-1.42-1.183-1.513l-10.908-1.354c-0.745-0.095-1.43,0.435-1.522,1.176
			C695.406,140.644,695.938,141.32,696.684,141.412z M715.938,122.451c0.058,0,0.115-0.003,0.173-0.012l10.907-1.354
			c0.746-0.093,1.275-0.771,1.185-1.513c-0.094-0.743-0.783-1.272-1.523-1.177l-10.905,1.354c-0.748,0.093-1.277,0.771-1.185,1.513
			C714.672,121.95,715.26,122.451,715.938,122.451z M715.938,129.227c0.058,0,0.115-0.002,0.173-0.011l10.907-1.354
			c0.746-0.094,1.275-0.771,1.185-1.514c-0.094-0.742-0.783-1.273-1.523-1.177l-10.905,1.356c-0.748,0.093-1.277,0.77-1.185,1.512
			C714.672,128.725,715.26,129.227,715.938,129.227z M715.938,136.003c0.058,0,0.115-0.003,0.173-0.011l10.907-1.354
			c0.746-0.094,1.275-0.771,1.185-1.514c-0.094-0.743-0.783-1.271-1.523-1.176l-10.905,1.355c-0.748,0.092-1.277,0.771-1.185,1.512
			C714.672,135.501,715.26,136.003,715.938,136.003z M715.938,142.778c0.058,0,0.115-0.004,0.173-0.01l10.907-1.356
			c0.746-0.092,1.275-0.769,1.185-1.513c-0.094-0.742-0.783-1.271-1.523-1.176l-10.905,1.354c-0.748,0.093-1.277,0.771-1.185,1.513
			C714.672,142.277,715.26,142.778,715.938,142.778z"/>
	</g>
</g>
<path fill="#A4A3A3" d="M867.166,111c-5.141,0-9.605,2.605-11.818,6.408c-2.213-3.803-6.682-6.408-11.819-6.408
	c-7.761,0-11.82,6.688-11.82,13.296c0,15.434,21.945,28.777,22.879,29.338c0.236,0.139,0.498,0.211,0.762,0.211
	c0.263,0,0.525-0.072,0.761-0.211c0.934-0.562,22.879-13.904,22.879-29.338C878.986,117.688,874.924,111,867.166,111z
	 M855.348,150.621c-2.461-1.586-10.334-6.957-15.627-13.86h2.914c0.777,0,1.461-0.529,1.656-1.283l2.109-8.141l4.729,14.354
	c0.219,0.67,0.828,1.136,1.533,1.174c0.031,0.001,0.062,0.003,0.092,0.003c0.668,0,1.279-0.39,1.56-1.004l4.399-9.682l2.459,3.851
	c0.314,0.49,0.859,0.791,1.443,0.791h5.637c0.943,0,1.711-0.768,1.711-1.711c0-0.945-0.768-1.713-1.711-1.713h-4.699l-3.652-5.716
	c-0.334-0.529-0.935-0.832-1.562-0.787c-0.625,0.043-1.178,0.428-1.438,0.998l-3.894,8.564l-5.178-15.725
	c-0.238-0.721-0.918-1.196-1.682-1.176c-0.761,0.025-1.41,0.547-1.601,1.281l-3.24,12.497h-3.895
	c-1.674-2.877-2.75-5.937-2.75-9.041c0-4.979,2.773-10.342,8.863-10.342c4.977,0,10.342,3.39,10.342,8.865
	c0,0.817,0.662,1.477,1.479,1.477c0.814,0,1.478-0.659,1.478-1.477c0-5.476,5.369-8.865,10.342-8.865
	c6.092,0,8.863,5.362,8.863,10.342C876.029,136.563,859.164,148.157,855.348,150.621z"/>
<path fill="#85754D" d="M145.766,6.616c-8.891,0-16.124,7.198-16.124,16.047c0,10.874,14.431,27.367,15.046,28.062
	c0.265,0.302,0.628,0.466,1.054,0.475c0.402,0,0.785-0.17,1.051-0.471c0.619-0.697,15.147-17.194,15.097-28.074
	C161.849,13.812,154.616,6.616,145.766,6.616z M145.744,47.647c-3.311-3.997-13.299-16.737-13.299-24.984
	c0-7.312,5.976-13.261,13.32-13.261c7.312,0,13.286,5.952,13.32,13.269C159.123,30.907,149.073,43.653,145.744,47.647z"/>
<path fill="#CCCCCC" d="M145.765,9.402c-7.344,0-13.32,5.949-13.32,13.261c0,8.247,9.988,20.987,13.299,24.984
	c3.329-3.994,13.379-16.74,13.341-24.977C159.051,15.354,153.077,9.402,145.765,9.402z M145.766,28.212
	c-3.092,0-5.61-2.5-5.61-5.571c0-3.075,2.518-5.575,5.61-5.575c3.092,0,5.609,2.5,5.609,5.575
	C151.375,25.712,148.859,28.212,145.766,28.212z"/>
<path fill="#85754D" d="M145.766,17.065c-3.092,0-5.61,2.5-5.61,5.575c0,3.071,2.518,5.571,5.61,5.571
	c3.093,0,5.609-2.5,5.609-5.571C151.375,19.565,148.858,17.065,145.766,17.065z M145.766,25.425c-1.546,0-2.805-1.248-2.805-2.784
	c0-1.538,1.259-2.788,2.805-2.788c1.547,0,2.804,1.25,2.804,2.788C148.569,24.177,147.312,25.425,145.766,25.425z"/>
<path fill="#85754D" d="M301.967,22.974h-4.18l-0.734-2.205l3.264-3.268c0.5-0.498,0.5-1.306,0-1.804l-5.098-5.098
	c-0.496-0.499-1.303-0.499-1.801,0l-3.266,3.267l-2.205-0.734v-4.18c0-0.703-0.572-1.274-1.275-1.274h-7.646
	c-0.703,0-1.275,0.571-1.275,1.274v4.18l-2.205,0.736l-3.266-3.268c-0.498-0.499-1.305-0.499-1.803,0l-5.098,5.098
	c-0.498,0.498-0.498,1.307,0,1.805l3.268,3.267l-0.736,2.205h-4.18c-0.703,0-1.275,0.571-1.275,1.274v7.647
	c0,0.705,0.572,1.275,1.275,1.275h4.18l0.736,2.205l-3.268,3.268c-0.498,0.498-0.498,1.304,0,1.804l5.098,5.099
	c0.498,0.496,1.305,0.496,1.803,0l3.266-3.269l2.205,0.734v4.182c0,0.703,0.572,1.272,1.275,1.272h7.646
	c0.703,0,1.275-0.57,1.275-1.272v-4.182l2.205-0.734l3.266,3.269c0.498,0.496,1.305,0.496,1.801,0l5.098-5.099
	c0.5-0.5,0.5-1.306,0-1.804l-3.264-3.268l0.734-2.205h4.18c0.703,0,1.273-0.57,1.273-1.275v-7.647
	C303.241,23.544,302.67,22.974,301.967,22.974z M300.692,30.622h-3.824c-0.549,0-1.035,0.351-1.209,0.872l-1.273,3.823
	c-0.154,0.458-0.033,0.963,0.307,1.304l2.924,2.924l-3.297,3.297l-2.922-2.924c-0.342-0.342-0.846-0.461-1.305-0.308l-3.822,1.272
	c-0.521,0.175-0.873,0.662-0.873,1.211v3.824H280.3v-3.824c0-0.549-0.352-1.036-0.871-1.211l-3.824-1.272
	c-0.455-0.153-0.961-0.032-1.303,0.308l-2.924,2.924l-3.295-3.297l2.922-2.924c0.342-0.341,0.461-0.846,0.309-1.304l-1.275-3.823
	c-0.174-0.521-0.66-0.872-1.209-0.872h-3.822v-5.1h3.822c0.549,0,1.035-0.35,1.209-0.87l1.275-3.825
	c0.152-0.457,0.033-0.963-0.309-1.304l-2.922-2.922l3.295-3.296l2.924,2.922c0.34,0.342,0.846,0.46,1.303,0.309l3.824-1.274
	c0.52-0.175,0.871-0.66,0.871-1.209v-3.825h5.098v3.824c0,0.549,0.352,1.035,0.873,1.209l3.822,1.273
	c0.459,0.153,0.963,0.034,1.305-0.308l2.922-2.922l3.297,3.296l-2.924,2.922c-0.34,0.341-0.461,0.846-0.307,1.305l1.273,3.824
	c0.174,0.521,0.66,0.87,1.209,0.87h3.824V30.622z"/>
<path fill="#CCCCCC" d="M295.659,24.651l-1.273-3.824c-0.154-0.459-0.033-0.964,0.307-1.305l2.924-2.922l-3.297-3.296l-2.922,2.922
	c-0.342,0.342-0.846,0.461-1.305,0.308l-3.822-1.273c-0.521-0.174-0.873-0.66-0.873-1.209v-3.824H280.3v3.825
	c0,0.549-0.351,1.034-0.871,1.209l-3.824,1.274c-0.457,0.151-0.963,0.033-1.303-0.309l-2.924-2.922l-3.295,3.296l2.922,2.922
	c0.342,0.341,0.461,0.847,0.309,1.304l-1.275,3.825c-0.174,0.521-0.66,0.87-1.209,0.87h-3.822v5.1h3.822
	c0.549,0,1.035,0.351,1.209,0.872l1.275,3.823c0.152,0.458,0.033,0.963-0.309,1.304l-2.922,2.924l3.295,3.297l2.924-2.924
	c0.342-0.34,0.848-0.461,1.303-0.308l3.824,1.272c0.519,0.175,0.871,0.662,0.871,1.211v3.824h5.098v-3.824
	c0-0.549,0.352-1.036,0.873-1.211l3.822-1.272c0.459-0.153,0.963-0.034,1.305,0.308l2.922,2.924l3.297-3.297l-2.924-2.924
	c-0.34-0.341-0.461-0.846-0.307-1.304l1.273-3.823c0.174-0.521,0.66-0.872,1.209-0.872h3.824v-5.101h-3.824
	C296.319,25.521,295.833,25.173,295.659,24.651z M282.848,33.172c-2.811,0-5.098-2.289-5.098-5.101c0-2.811,2.287-5.098,5.098-5.098
	c2.813,0,5.1,2.287,5.1,5.098C287.948,30.883,285.66,33.172,282.848,33.172z"/>
<path fill="#85754D" d="M282.848,22.974c-2.811,0-5.098,2.287-5.098,5.098c0,2.812,2.287,5.101,5.098,5.101
	c2.812,0,5.1-2.289,5.1-5.101C287.948,25.261,285.661,22.974,282.848,22.974z M282.848,30.622c-1.404,0-2.549-1.144-2.549-2.551
	c0-1.404,1.145-2.549,2.549-2.549c1.406,0,2.549,1.145,2.549,2.549C285.397,29.479,284.254,30.622,282.848,30.622z"/>
<path fill="#85754D" d="M453.613,21.518l-3.881-3.881c-0.566-0.568-1.486-0.568-2.054,0c-0.821,0.821-1.918,1.276-3.082,1.276
	c-2.401,0-4.354-1.957-4.354-4.36c0-1.164,0.453-2.261,1.276-3.083c0.271-0.274,0.425-0.643,0.425-1.028s-0.152-0.755-0.425-1.028
	l-3.883-3.882c-0.565-0.567-1.485-0.567-2.053,0l-27.596,27.612c-0.271,0.272-0.425,0.642-0.425,1.026
	c0,0.387,0.152,0.754,0.425,1.028l3.881,3.882c0.565,0.567,1.488,0.567,2.055,0c0.822-0.824,1.916-1.275,3.08-1.275
	c2.402,0,4.357,1.953,4.357,4.357c0,1.166-0.453,2.26-1.277,3.084c-0.271,0.273-0.426,0.644-0.426,1.028
	c0,0.386,0.153,0.754,0.426,1.026l3.881,3.882c0.283,0.284,0.654,0.427,1.027,0.427c0.371,0,0.742-0.143,1.026-0.427l27.595-27.61
	c0.272-0.272,0.426-0.642,0.426-1.028C454.039,22.159,453.887,21.792,453.613,21.518z"/>
<path fill="#CCCCCC" d="M442.42,30.663l-1.15-1.151c-0.567-0.567-1.487-0.567-2.055,0c-0.565,0.567-0.565,1.486,0,2.055l1.15,1.152
	l-15.373,15.384l-1.928-1.929c0.78-1.178,1.2-2.562,1.2-4.01c0-4.006-3.258-7.265-7.262-7.265c-1.447,0-2.828,0.419-4.006,1.203
	l-1.928-1.931l15.375-15.384l1.149,1.152c0.283,0.284,0.656,0.428,1.027,0.428s0.742-0.144,1.027-0.428
	c0.565-0.568,0.565-1.486,0-2.054l-1.152-1.153l8.113-8.117l1.928,1.93c-0.781,1.179-1.203,2.562-1.203,4.009
	c0,4.006,3.258,7.265,7.262,7.265c1.447,0,2.828-0.42,4.006-1.201l1.929,1.928L442.42,30.663z"/>
<path fill="#85754D" d="M434.006,22.243l-1.451-1.453c-0.565-0.567-1.487-0.567-2.055,0c-0.566,0.568-0.566,1.487,0,2.056
	l1.453,1.454c0.283,0.281,0.654,0.425,1.027,0.425c0.37,0,0.741-0.144,1.024-0.425C434.574,23.731,434.574,22.812,434.006,22.243z"
	/>
<path fill="#85754D" d="M436.912,25.149c-0.566-0.568-1.488-0.568-2.055,0c-0.568,0.568-0.568,1.488,0,2.055l1.45,1.454
	c0.285,0.285,0.656,0.427,1.027,0.427s0.744-0.142,1.027-0.427c0.567-0.567,0.567-1.487,0-2.055L436.912,25.149z"/>
<path fill="#85754D" d="M600.659,10.986h-5.451V9.598c0-0.767-0.611-1.39-1.363-1.39h-4.092c-0.754,0-1.363,0.623-1.363,1.39v1.389
	h-16.36V9.598c0-0.767-0.611-1.39-1.363-1.39h-4.09c-0.752,0-1.363,0.623-1.363,1.39v1.389h-5.453c-0.754,0-1.362,0.623-1.362,1.39
	v33.337c0,0.767,0.608,1.39,1.362,1.39h40.9c0.754,0,1.365-0.623,1.365-1.39V12.376C602.024,11.609,601.413,10.986,600.659,10.986z
	 M591.116,10.986h1.365v2.779h-1.365V10.986z M567.938,10.986h1.363v2.779h-1.363V10.986z M599.297,44.324H561.12V13.766h4.092
	v1.389c0,0.767,0.611,1.39,1.363,1.39h4.09c0.752,0,1.363-0.623,1.363-1.39v-1.389h16.36v1.389c0,0.767,0.609,1.39,1.363,1.39h4.092
	c0.752,0,1.363-0.623,1.363-1.39v-1.389h4.09V44.324L599.297,44.324L599.297,44.324z"/>
<path fill="#CCCCCC" d="M595.207,13.766v1.389c0,0.767-0.611,1.39-1.363,1.39h-4.092c-0.754,0-1.363-0.623-1.363-1.39v-1.389h-16.36
	v1.389c0,0.767-0.611,1.39-1.363,1.39h-4.09c-0.752,0-1.363-0.623-1.363-1.39v-1.389h-4.092v30.559h38.177V13.766H595.207z
	 M573.391,40.156c0,0.768-0.61,1.389-1.362,1.389h-5.453c-0.752,0-1.363-0.621-1.363-1.389v-5.556c0-0.767,0.611-1.39,1.363-1.39
	h5.453c0.752,0,1.363,0.623,1.362,1.39V40.156z M573.391,29.044c0,0.768-0.61,1.39-1.362,1.39h-5.453
	c-0.752,0-1.363-0.622-1.363-1.39v-5.556c0-0.767,0.611-1.389,1.363-1.389h5.453c0.752,0,1.363,0.622,1.362,1.389V29.044z
	 M584.3,40.156c0,0.768-0.61,1.389-1.362,1.389h-5.453c-0.754,0-1.365-0.621-1.365-1.389v-5.556c0-0.767,0.611-1.39,1.365-1.39
	h5.453c0.75,0,1.362,0.623,1.362,1.39V40.156z M584.3,29.044c0,0.768-0.61,1.39-1.362,1.39h-5.453c-0.754,0-1.365-0.622-1.365-1.39
	v-5.556c0-0.767,0.611-1.389,1.365-1.389h5.453c0.75,0,1.362,0.622,1.362,1.389V29.044z M595.208,40.156
	c0,0.768-0.611,1.389-1.363,1.389h-5.455c-0.754,0-1.362-0.621-1.362-1.389v-5.556c0-0.767,0.608-1.39,1.362-1.39h5.455
	c0.752,0,1.363,0.623,1.363,1.39V40.156z M595.208,29.044c0,0.768-0.611,1.39-1.363,1.39h-5.455c-0.754,0-1.362-0.622-1.362-1.39
	v-5.556c0-0.767,0.608-1.389,1.362-1.389h5.455c0.752,0,1.363,0.622,1.363,1.389V29.044z"/>
<path fill="#85754D" d="M572.028,22.1h-5.453c-0.752,0-1.363,0.622-1.363,1.389v5.556c0,0.768,0.611,1.39,1.363,1.39h5.453
	c0.752,0,1.362-0.622,1.362-1.39v-5.556C573.392,22.722,572.78,22.1,572.028,22.1z M570.665,27.655h-2.728v-2.777h2.728V27.655z"/>
<path fill="#85754D" d="M582.938,22.1h-5.453c-0.754,0-1.365,0.622-1.365,1.389v5.556c0,0.768,0.611,1.39,1.365,1.39h5.453
	c0.752,0,1.362-0.622,1.362-1.39v-5.556C584.3,22.722,583.688,22.1,582.938,22.1z M581.573,27.655h-2.728v-2.777h2.728V27.655z"/>
<path fill="#85754D" d="M593.845,22.1h-5.455c-0.754,0-1.362,0.622-1.362,1.389v5.556c0,0.768,0.608,1.39,1.362,1.39h5.455
	c0.752,0,1.363-0.622,1.363-1.39v-5.556C595.208,22.722,594.597,22.1,593.845,22.1z M592.481,27.655h-2.729v-2.777h2.729V27.655z"/>
<path fill="#85754D" d="M572.028,33.211h-5.453c-0.752,0-1.363,0.623-1.363,1.39v5.556c0,0.768,0.611,1.389,1.363,1.389h5.453
	c0.752,0,1.362-0.621,1.362-1.389v-5.556C573.392,33.834,572.78,33.211,572.028,33.211z M570.665,38.768h-2.728v-2.778h2.728V38.768
	z"/>
<path fill="#85754D" d="M582.938,33.211h-5.453c-0.754,0-1.365,0.623-1.365,1.39v5.556c0,0.768,0.611,1.389,1.365,1.389h5.453
	c0.752,0,1.362-0.621,1.362-1.389v-5.556C584.3,33.834,583.688,33.211,582.938,33.211z M581.573,38.768h-2.728v-2.778h2.728V38.768z
	"/>
<path fill="#85754D" d="M593.845,33.211h-5.455c-0.754,0-1.362,0.623-1.362,1.39v5.556c0,0.768,0.608,1.389,1.362,1.389h5.455
	c0.752,0,1.363-0.621,1.363-1.389v-5.556C595.208,33.834,594.597,33.211,593.845,33.211z M592.481,38.768h-2.729v-2.778h2.729
	V38.768z"/>
<path fill="#85754D" d="M733.199,10.139c-0.297-0.257-0.687-0.374-1.078-0.323l-20.271,2.686l-20.271-2.686
	c-0.394-0.054-0.783,0.064-1.078,0.323c-0.295,0.257-0.465,0.629-0.465,1.02v32.524c0,0.679,0.506,1.253,1.184,1.343l20.451,2.709
	c0.059,0.008,0.119,0.014,0.18,0.014c0.062,0,0.119-0.004,0.181-0.014l20.45-2.709c0.679-0.09,1.185-0.665,1.185-1.343V11.157
	C733.664,10.768,733.494,10.396,733.199,10.139z"/>
<polygon fill="#CCCCCC" points="710.486,44.844 692.761,42.494 692.761,12.706 710.486,15.056 "/>
<polygon fill="#CCCCCC" points="730.938,42.494 713.213,44.844 713.213,15.056 730.938,12.706 "/>
<path fill="#85754D" d="M696.684,19.278l10.906,1.354c0.058,0.008,0.113,0.012,0.172,0.012c0.677,0,1.265-0.5,1.351-1.188
	c0.094-0.742-0.437-1.42-1.183-1.513l-10.908-1.354c-0.745-0.096-1.43,0.434-1.522,1.177
	C695.406,18.507,695.938,19.186,696.684,19.278z"/>
<path fill="#85754D" d="M696.684,26.054l10.906,1.354c0.058,0.009,0.113,0.011,0.172,0.011c0.677,0,1.265-0.502,1.351-1.188
	c0.094-0.742-0.437-1.419-1.183-1.512l-10.908-1.356c-0.745-0.097-1.43,0.435-1.522,1.177
	C695.406,25.283,695.938,25.96,696.684,26.054z"/>
<path fill="#85754D" d="M696.684,32.83l10.906,1.354c0.058,0.007,0.113,0.011,0.172,0.011c0.677,0,1.265-0.502,1.351-1.188
	c0.094-0.742-0.437-1.42-1.183-1.514l-10.908-1.354c-0.745-0.096-1.43,0.434-1.522,1.176
	C695.406,32.059,695.938,32.736,696.684,32.83z"/>
<path fill="#85754D" d="M696.684,39.604l10.906,1.356c0.058,0.006,0.113,0.01,0.172,0.01c0.677,0,1.265-0.501,1.351-1.188
	c0.094-0.742-0.437-1.42-1.183-1.513l-10.908-1.354c-0.745-0.095-1.43,0.435-1.522,1.176
	C695.406,38.836,695.938,39.513,696.684,39.604z"/>
<path fill="#85754D" d="M715.938,20.644c0.058,0,0.115-0.003,0.173-0.012l10.907-1.354c0.746-0.093,1.275-0.771,1.185-1.513
	c-0.094-0.743-0.783-1.272-1.523-1.177l-10.905,1.354c-0.748,0.093-1.277,0.771-1.185,1.513
	C714.672,20.143,715.26,20.644,715.938,20.644z"/>
<path fill="#85754D" d="M715.938,27.419c0.058,0,0.115-0.002,0.173-0.011l10.907-1.354c0.746-0.094,1.275-0.771,1.185-1.514
	c-0.094-0.742-0.783-1.273-1.523-1.177l-10.905,1.356c-0.748,0.093-1.277,0.77-1.185,1.512
	C714.672,26.917,715.26,27.419,715.938,27.419z"/>
<path fill="#85754D" d="M715.938,34.195c0.058,0,0.115-0.003,0.173-0.011l10.907-1.354c0.746-0.094,1.275-0.771,1.185-1.514
	c-0.094-0.743-0.783-1.271-1.523-1.176l-10.905,1.355c-0.748,0.092-1.277,0.771-1.185,1.512
	C714.672,33.693,715.26,34.195,715.938,34.195z"/>
<path fill="#85754D" d="M715.938,40.971c0.058,0,0.115-0.004,0.173-0.01l10.907-1.356c0.746-0.092,1.275-0.769,1.185-1.513
	c-0.094-0.742-0.783-1.271-1.523-1.176l-10.905,1.354c-0.748,0.093-1.277,0.771-1.185,1.513
	C714.672,40.47,715.26,40.971,715.938,40.971z"/>
<path fill="#85754D" d="M867.166,9.192c-5.141,0-9.605,2.605-11.818,6.408c-2.213-3.803-6.682-6.408-11.819-6.408
	c-7.761,0-11.82,6.688-11.82,13.296c0,15.434,21.945,28.777,22.879,29.338c0.236,0.139,0.498,0.211,0.762,0.211
	c0.263,0,0.525-0.072,0.761-0.211c0.934-0.562,22.879-13.904,22.879-29.338C878.986,15.88,874.924,9.192,867.166,9.192z"/>
<path fill="#CCCCCC" d="M855.348,48.813c-2.461-1.586-10.334-6.957-15.627-13.86h2.914c0.777,0,1.461-0.529,1.656-1.283l2.109-8.141
	l4.729,14.354c0.219,0.67,0.828,1.136,1.533,1.174c0.031,0.001,0.062,0.003,0.092,0.003c0.668,0,1.279-0.39,1.56-1.004l4.399-9.682
	l2.459,3.851c0.314,0.49,0.859,0.791,1.443,0.791h5.637c0.943,0,1.711-0.768,1.711-1.711c0-0.945-0.768-1.713-1.711-1.713h-4.699
	l-3.652-5.716c-0.334-0.529-0.935-0.832-1.562-0.787c-0.625,0.043-1.178,0.428-1.438,0.998l-3.894,8.564l-5.178-15.725
	c-0.238-0.721-0.918-1.196-1.682-1.176c-0.761,0.025-1.41,0.547-1.601,1.281l-3.24,12.497h-3.895
	c-1.674-2.877-2.75-5.937-2.75-9.041c0-4.979,2.773-10.342,8.863-10.342c4.977,0,10.342,3.39,10.342,8.865
	c0,0.817,0.662,1.477,1.479,1.477c0.814,0,1.478-0.659,1.478-1.477c0-5.476,5.369-8.865,10.342-8.865
	c6.092,0,8.863,5.362,8.863,10.342C876.029,34.756,859.164,46.35,855.348,48.813z"/>
</svg>
