<?xml version="1.0" encoding="utf-8"?>
<!-- Generator: Adobe Illustrator 16.0.0, SVG Export Plug-In . SVG Version: 6.00 Build 0)  -->
<!DOCTYPE svg PUBLIC "-//W3C//DTD SVG 1.1//EN" "http://www.w3.org/Graphics/SVG/1.1/DTD/svg11.dtd">
<svg version="1.1" id="Layer_1" xmlns="http://www.w3.org/2000/svg" xmlns:xlink="http://www.w3.org/1999/xlink" x="0px" y="0px"
	 width="300px" height="170.846px" viewBox="0 0 300 170.846" enable-background="new 0 0 300 170.846" xml:space="preserve">
<g>
	<path fill="#FFFFFF" stroke="#FFFFFF" stroke-width="0.5125" stroke-miterlimit="10" d="M19.343,54.67
		c0,3.137,2.901,4.705,5.829,4.705c2.901,0,5.854-1.568,5.854-4.705V41.236h0.653V54.67c0,3.528-3.267,5.332-6.508,5.332
		s-6.482-1.804-6.482-5.332V41.236h0.653V54.67z"/>
	<path fill="#FFFFFF" stroke="#FFFFFF" stroke-width="0.5125" stroke-miterlimit="10" d="M50.267,59.114V41.236h0.653v18.505h-1.124
		L38.95,42.072l-0.026,17.668h-0.68V41.236h1.019L50.267,59.114z"/>
	<path fill="#FFFFFF" stroke="#FFFFFF" stroke-width="0.5125" stroke-miterlimit="10" d="M57.615,59.741V41.236h0.653v17.852h9.252
		v0.653H57.615z"/>
	<path fill="#FFFFFF" stroke="#FFFFFF" stroke-width="0.5125" stroke-miterlimit="10" d="M72.986,50.175h9.566v0.706h-9.566v8.207
		h10.35v0.653H72.332V41.236h11.003v0.653h-10.35V50.175z"/>
	<path fill="#FFFFFF" stroke="#FFFFFF" stroke-width="0.5125" stroke-miterlimit="10" d="M87.677,59.741h-0.706l6.848-18.505h1.046
		l6.848,18.505h-0.706l-2.457-6.612h-8.417L87.677,59.741z M94.29,41.863l-3.92,10.612h7.946l-3.92-10.612H94.29z"/>
	<path fill="#FFFFFF" stroke="#FFFFFF" stroke-width="0.5125" stroke-miterlimit="10" d="M111.517,49.966
		c3.032,0.601,6.325,1.83,6.064,5.462c-0.209,2.98-3.189,4.574-6.221,4.574c-2.274,0-4.705-0.889-6.09-2.98l0.601-0.261
		c1.203,1.726,3.372,2.614,5.541,2.614c2.562,0,5.097-1.229,5.463-3.947c0.235-3.293-2.64-4.208-5.515-4.835
		c-2.77-0.575-6.09-1.621-5.933-5.123c0.104-3.059,3.006-4.496,5.959-4.496c2.378,0,4.6,0.836,5.75,2.849l-0.601,0.235
		c-0.967-1.673-3.084-2.457-5.148-2.457c-2.614,0-5.123,1.097-5.306,3.868C105.871,48.214,108.538,49.365,111.517,49.966z"/>
	<path fill="#FFFFFF" stroke="#FFFFFF" stroke-width="0.5125" stroke-miterlimit="10" d="M123.856,59.741h-0.653V41.236h0.653v8.939
		h11.684v-8.939h0.654v18.505h-0.654v-8.913h-11.684V59.741z"/>
	<path fill="#FFFFFF" stroke="#FFFFFF" stroke-width="0.5125" stroke-miterlimit="10" d="M143.541,59.741h-0.653V41.236h0.653
		V59.741z"/>
	<path fill="#FFFFFF" stroke="#FFFFFF" stroke-width="0.5125" stroke-miterlimit="10" d="M162.256,59.114V41.236h0.653v18.505
		h-1.124l-10.847-17.668l-0.026,17.668h-0.68V41.236h1.02L162.256,59.114z"/>
	<path fill="#FFFFFF" stroke="#FFFFFF" stroke-width="0.5125" stroke-miterlimit="10" d="M169.213,46.149
		c0-3.397,3.24-5.175,6.482-5.175c2.325,0,4.625,0.915,5.723,2.692l-0.601,0.392c-0.942-1.698-3.058-2.431-5.175-2.431
		c-2.902,0-5.777,1.49-5.777,4.522v8.599c0,3.084,2.901,4.626,5.83,4.626c2.9,0,5.854-1.542,5.854-4.626v-3.502h-5.672v-0.627h6.326
		v4.129c0,3.502-3.268,5.254-6.507,5.254c-3.242,0-6.482-1.751-6.482-5.254V46.149z"/>
	<path fill="#FFFFFF" stroke="#FFFFFF" stroke-width="0.5125" stroke-miterlimit="10" d="M29.956,73.26h-6.169v17.852h-0.653V73.26
		h-6.168v-0.654h12.99V73.26z"/>
	<path fill="#FFFFFF" stroke="#FFFFFF" stroke-width="0.5125" stroke-miterlimit="10" d="M35.447,91.111h-0.654V72.606h0.654v8.939
		H47.13v-8.939h0.653v18.505H47.13v-8.913H35.447V91.111z"/>
	<path fill="#FFFFFF" stroke="#FFFFFF" stroke-width="0.5125" stroke-miterlimit="10" d="M55.131,81.545h9.566v0.706h-9.566v8.208
		h10.351v0.653H54.478V72.606h11.004v0.654H55.131V81.545z"/>
	<path fill="#FFFFFF" stroke="#FFFFFF" stroke-width="0.5125" stroke-miterlimit="10" d="M84.591,81.335
		c3.032,0.602,6.325,1.83,6.063,5.463c-0.208,2.98-3.188,4.574-6.22,4.574c-2.274,0-4.705-0.888-6.09-2.979l0.601-0.262
		c1.202,1.726,3.372,2.614,5.541,2.614c2.561,0,5.097-1.229,5.462-3.947c0.235-3.293-2.64-4.208-5.515-4.836
		c-2.771-0.575-6.09-1.62-5.934-5.122c0.104-3.058,3.006-4.496,5.959-4.496c2.379,0,4.601,0.836,5.75,2.849l-0.601,0.236
		c-0.967-1.673-3.084-2.458-5.149-2.458c-2.613,0-5.123,1.098-5.306,3.869C78.946,79.585,81.611,80.734,84.591,81.335z"/>
	<path fill="#FFFFFF" stroke="#FFFFFF" stroke-width="0.5125" stroke-miterlimit="10" d="M107.15,73.26h-6.168v17.852h-0.654V73.26
		H94.16v-0.654h12.99V73.26z"/>
	<path fill="#FFFFFF" stroke="#FFFFFF" stroke-width="0.5125" stroke-miterlimit="10" d="M112.511,86.041
		c0,3.137,2.901,4.705,5.829,4.705c2.901,0,5.855-1.568,5.855-4.705V72.606h0.653v13.435c0,3.528-3.268,5.332-6.508,5.332
		s-6.482-1.803-6.482-5.332V72.606h0.654V86.041z"/>
	<path fill="#FFFFFF" stroke="#FFFFFF" stroke-width="0.5125" stroke-miterlimit="10" d="M137.658,72.606
		c3.241,0,5.959,1.464,5.959,4.966v8.599c0,3.476-2.718,4.94-5.959,4.94h-6.247V72.606H137.658z M137.658,90.458
		c2.927,0,5.306-1.229,5.306-4.287v-8.599c0-3.084-2.378-4.312-5.306-4.312h-5.593v17.198H137.658z"/>
	<path fill="#FFFFFF" stroke="#FFFFFF" stroke-width="0.5125" stroke-miterlimit="10" d="M150.65,81.545h9.567v0.706h-9.567v8.208
		h10.351v0.653h-11.004V72.606h11.004v0.654H150.65V81.545z"/>
	<path fill="#FFFFFF" stroke="#FFFFFF" stroke-width="0.5125" stroke-miterlimit="10" d="M178.619,90.484V72.606h0.654v18.505
		h-1.124l-10.848-17.669l-0.026,17.669h-0.679V72.606h1.018L178.619,90.484z"/>
	<path fill="#FFFFFF" stroke="#FFFFFF" stroke-width="0.5125" stroke-miterlimit="10" d="M197.102,73.26h-6.167v17.852h-0.655V73.26
		h-6.167v-0.654h12.99V73.26z"/>
	<path fill="#FFFFFF" stroke="#FFFFFF" stroke-width="0.5125" stroke-miterlimit="10" d="M19.474,112.915h9.566v0.706h-9.566v8.207
		h10.351v0.653H18.821v-18.505h11.004v0.653H19.474V112.915z"/>
	<path fill="#FFFFFF" stroke="#FFFFFF" stroke-width="0.5125" stroke-miterlimit="10" d="M46.581,122.48h-0.758l-5.671-8.781
		l-5.672,8.781h-0.81l6.09-9.226l-6.064-9.279h0.732l5.724,8.678l5.698-8.678h0.758l-6.09,9.279L46.581,122.48z"/>
	<path fill="#FFFFFF" stroke="#FFFFFF" stroke-width="0.5125" stroke-miterlimit="10" d="M51.55,122.48v-18.505h6.534
		c3.764,0.052,5.672,2.901,5.672,5.62c0,2.692-1.882,5.489-5.646,5.515h-5.907v7.37H51.55z M58.084,114.457
		c3.397,0,5.019-2.483,5.019-4.888c0-2.43-1.673-4.966-5.019-4.992h-5.881v9.88H58.084z"/>
	<path fill="#FFFFFF" stroke="#FFFFFF" stroke-width="0.5125" stroke-miterlimit="10" d="M69.77,112.915h9.566v0.706H69.77v8.207
		h10.351v0.653H69.117v-18.505h11.004v0.653H69.77V112.915z"/>
	<path fill="#FFFFFF" stroke="#FFFFFF" stroke-width="0.5125" stroke-miterlimit="10" d="M96.772,122.48l-6.221-8.259h-4.208v8.259
		h-0.628v-18.505h6.535c3.215,0,5.672,1.254,5.75,5.018c0,3.843-2.352,5.228-5.724,5.228h-0.993l6.247,8.259H96.772z
		 M92.276,113.646c3.372,0,5.097-1.359,5.097-4.626c0-3.345-2.144-4.496-5.097-4.443h-5.933v9.07H92.276z"/>
	<path fill="#FFFFFF" stroke="#FFFFFF" stroke-width="0.5125" stroke-miterlimit="10" d="M104.172,122.48h-0.654v-18.505h0.654
		V122.48z"/>
	<path fill="#FFFFFF" stroke="#FFFFFF" stroke-width="0.5125" stroke-miterlimit="10" d="M111.518,112.915h9.566v0.706h-9.566v8.207
		h10.35v0.653h-11.004v-18.505h11.004v0.653h-10.35V112.915z"/>
	<path fill="#FFFFFF" stroke="#FFFFFF" stroke-width="0.5125" stroke-miterlimit="10" d="M139.487,121.853v-17.877h0.654v18.505
		h-1.124l-10.847-17.668l-0.026,17.668h-0.68v-18.505h1.019L139.487,121.853z"/>
	<path fill="#FFFFFF" stroke="#FFFFFF" stroke-width="0.5125" stroke-miterlimit="10" d="M146.442,108.889
		c0-3.397,3.292-5.175,6.56-5.175c2.327,0,4.652,0.888,5.75,2.666l-0.575,0.418c-0.967-1.595-3.136-2.457-5.253-2.457
		c-2.875,0-5.829,1.516-5.829,4.547v8.678c0,3.031,2.954,4.522,5.829,4.522c2.091,0,4.234-0.758,5.253-2.326l0.575,0.288
		c-1.098,1.777-3.476,2.692-5.828,2.692c-3.215,0-6.482-1.751-6.482-5.175V108.889z"/>
	<path fill="#FFFFFF" stroke="#FFFFFF" stroke-width="0.5125" stroke-miterlimit="10" d="M164.584,112.915h9.565v0.706h-9.565v8.207
		h10.35v0.653h-11.004v-18.505h11.004v0.653h-10.35V112.915z"/>
</g>
<line fill="none" stroke="#B7A47A" stroke-width="0.5125" stroke-miterlimit="10" stroke-dasharray="2.5626,3.0752" x1="241.053" y1="6.403" x2="241.053" y2="110.486"/>
<polygon fill="#FFFFFF" points="251.775,148.098 64.19,148.098 64.19,142.631 254.509,142.631 "/>
<circle fill="none" stroke="#B7A47A" stroke-width="0.5125" stroke-miterlimit="10" stroke-dasharray="2.5626,3.0752" cx="63.165" cy="110.486" r="48.178"/>
<line fill="none" stroke="#FFFFFF" stroke-width="0.5125" stroke-miterlimit="10" x1="189.93" y1="164.841" x2="296.536" y2="58.234"/>
</svg>
