<?xml version="1.0" encoding="utf-8"?>
<!-- Generator: Adobe Illustrator 16.0.0, SVG Export Plug-In . SVG Version: 6.00 Build 0)  -->
<!DOCTYPE svg PUBLIC "-//W3C//DTD SVG 1.1//EN" "http://www.w3.org/Graphics/SVG/1.1/DTD/svg11.dtd">
<svg version="1.1" id="Layer_1" xmlns="http://www.w3.org/2000/svg" xmlns:xlink="http://www.w3.org/1999/xlink" x="0px" y="0px"
	 width="47.741px" height="47.727px" viewBox="0 0 47.741 47.727" enable-background="new 0 0 47.741 47.727" xml:space="preserve">
<path fill="none" stroke="#FFFFFF" stroke-width="2" stroke-miterlimit="10" d="M39.822,28.589c0.273-1.286,0.465-2.581,0.571-3.853
	c0.179-2.125,0.11-4.127-0.207-5.949c-0.405-2.341-1.219-4.395-2.42-6.102c-2.751-3.915-7.42-5.969-13.878-6.106
	c-6.355-0.135-11.04,1.708-13.921,5.48c-1.296,1.696-2.206,3.774-2.703,6.174c-0.386,1.867-0.525,3.935-0.413,6.147
	c0.069,1.374,0.231,2.777,0.484,4.173c-1.921,1.158-3.105,3.239-3.105,5.483c0,3.527,2.87,6.398,6.397,6.398
	c0.635,0,1.262-0.093,1.865-0.277l0.034-0.004c1.569-0.59,2.595-1.39,3.338-2.445c0.76-1.079,1.161-2.35,1.161-3.671
	c0-3.527-2.87-6.397-6.398-6.397c-0.116,0-0.235,0.003-0.352,0.01c-0.199-1.176-0.327-2.346-0.382-3.479
	c-0.263-5.44,1.216-8.585,2.501-10.266c2.258-2.95,6.104-4.389,11.43-4.276c5.43,0.115,9.28,1.732,11.442,4.804
	c1.309,1.859,1.713,3.179,1.969,4.392c0.259,1.231,0.382,2.434,0.124,5.6c-0.086,1.057-0.241,2.143-0.46,3.23
	c-0.143-0.009-0.287-0.014-0.428-0.014c-3.527,0-6.397,2.87-6.397,6.397s2.87,6.398,6.397,6.398c3.528,0,6.398-2.871,6.398-6.398
	C42.87,31.819,41.708,29.752,39.822,28.589z"/>
<path fill="none" stroke="#FFFFFF" stroke-width="2" stroke-miterlimit="10" d="M21.354,67.843"/>
</svg>
