<?xml version="1.0" encoding="utf-8"?>
<!-- Generator: Adobe Illustrator 16.0.0, SVG Export Plug-In . SVG Version: 6.00 Build 0)  -->
<!DOCTYPE svg PUBLIC "-//W3C//DTD SVG 1.1//EN" "http://www.w3.org/Graphics/SVG/1.1/DTD/svg11.dtd">
<svg version="1.1" id="Layer_1" xmlns="http://www.w3.org/2000/svg" xmlns:xlink="http://www.w3.org/1999/xlink" x="0px" y="0px"
	 width="47.741px" height="47.727px" viewBox="0 0 47.741 47.727" enable-background="new 0 0 47.741 47.727" xml:space="preserve">
<path fill="none" stroke="#4B2E83" stroke-width="2" stroke-miterlimit="10" d="M23.894,7.583c-1.377,0-2.677-0.193-3.662-0.545
	c-1.44-0.515-1.743-1.189-1.743-1.664s0.303-1.148,1.743-1.664c0.985-0.352,2.285-0.545,3.662-0.545
	c1.376,0,2.677,0.193,3.661,0.545c1.44,0.516,1.743,1.189,1.743,1.664s-0.303,1.149-1.743,1.664
	C26.571,7.39,25.27,7.583,23.894,7.583z"/>
<path fill="none" stroke="#4B2E83" stroke-width="2" stroke-miterlimit="10" d="M23.894,15.371c-1.377,0-2.677-0.193-3.662-0.545
	c-1.44-0.515-1.743-1.189-1.743-1.664s0.303-1.148,1.743-1.664c0.985-0.352,2.285-0.545,3.662-0.545
	c1.376,0,2.677,0.193,3.661,0.545c1.44,0.516,1.743,1.189,1.743,1.664s-0.303,1.149-1.743,1.664
	C26.571,15.177,25.27,15.371,23.894,15.371z"/>
<path fill="none" stroke="#4B2E83" stroke-width="2" stroke-miterlimit="10" d="M23.894,44.631c-1.427,0-2.771-0.551-3.789-1.551
	c-0.914-0.898-1.47-2.068-1.591-3.33l-0.025-0.433V5.298l0.026-0.071c0.021-0.06,0.234-0.598,1.038-1.106
	c1.002-0.634,2.463-0.955,4.341-0.955s3.338,0.321,4.34,0.955c0.804,0.509,1.018,1.047,1.039,1.106l0.025,0.071L29.273,39.75
	c-0.121,1.262-0.677,2.432-1.591,3.33C26.666,44.08,25.32,44.631,23.894,44.631z"/>
<circle fill="none" stroke="#4B2E83" stroke-miterlimit="10" cx="23.078" cy="20.915" r="1.607"/>
<circle fill="none" stroke="#4B2E83" stroke-miterlimit="10" cx="25.174" cy="26.366" r="1.303"/>
</svg>
