<?xml version="1.0" encoding="utf-8"?>
<!-- Generator: Adobe Illustrator 16.0.0, SVG Export Plug-In . SVG Version: 6.00 Build 0)  -->
<!DOCTYPE svg PUBLIC "-//W3C//DTD SVG 1.1//EN" "http://www.w3.org/Graphics/SVG/1.1/DTD/svg11.dtd">
<svg version="1.1" id="Layer_1" xmlns="http://www.w3.org/2000/svg" xmlns:xlink="http://www.w3.org/1999/xlink" x="0px" y="0px"
	 width="47.741px" height="47.727px" viewBox="0 0 47.741 47.727" enable-background="new 0 0 47.741 47.727" xml:space="preserve">
<path fill="none" stroke="#FFFFFF" stroke-width="2" stroke-miterlimit="10" d="M45.712,26.688c-0.54-0.746-1.396-1.524-2.542-2.312
	c-2.229-1.53-5.47-3.039-9.382-4.37c-0.028-0.122-0.06-0.244-0.093-0.365c-0.353-1.297-0.942-2.494-1.752-3.558
	c-0.84-1.102-1.88-2.012-3.092-2.705s-2.523-1.129-3.898-1.294c-1.328-0.159-2.658-0.062-3.955,0.291
	c-1.296,0.354-2.492,0.942-3.557,1.753c-0.745,0.567-1.401,1.228-1.964,1.97c-3.863-0.324-7.212-0.229-9.691,0.276
	c-1.263,0.258-2.279,0.618-3.021,1.072c-0.792,0.486-1.269,1.077-1.416,1.757c-0.199,0.921,0.232,1.934,1.285,3.012
	c0.978,1.002,2.459,2.031,4.401,3.058c2.374,1.255,5.285,2.427,8.519,3.444c0.827,1.062,1.843,1.942,3.022,2.617
	c1.212,0.694,2.523,1.129,3.899,1.295c0.411,0.049,0.824,0.073,1.235,0.073c0.914,0,1.825-0.122,2.719-0.365
	c0.677-0.184,1.326-0.434,1.944-0.744c2.867,0.398,5.591,0.604,8.036,0.604c0.78,0,1.533-0.021,2.253-0.063
	c2.194-0.13,3.969-0.452,5.273-0.958c1.404-0.546,2.218-1.289,2.417-2.209C46.508,28.258,46.292,27.491,45.712,26.688z"/>
<path fill="none" stroke="#FFFFFF" stroke-width="2" stroke-miterlimit="10" d="M13.528,25.055"/>
<path fill="none" stroke="#FFFFFF" stroke-width="2" stroke-miterlimit="10" d="M33.039,23.446c2.333,0.5,8.583,2.917,8.167,4.583
	c-0.156,0.623-2.417,1.917-7.354,1.422c-0.221-0.022-0.448,0.007-0.679,0.007c-0.295,0-0.597-0.004-0.904-0.012
	c-10.801-0.445-18.74-4.392-18.74-4.392c-1.149-0.427-2.209-0.873-3.156-1.33c-1.432-0.691-2.523-1.369-3.243-2.015
	c-0.867-0.778-0.969-1.315-0.9-1.628c0.13-0.601,1.014-1.079,2.487-1.348c1.455-0.266,4.156-0.288,6.629,0.167"/>
</svg>
