<?xml version="1.0" encoding="utf-8"?>
<!-- Generator: Adobe Illustrator 16.0.0, SVG Export Plug-In . SVG Version: 6.00 Build 0)  -->
<!DOCTYPE svg PUBLIC "-//W3C//DTD SVG 1.1//EN" "http://www.w3.org/Graphics/SVG/1.1/DTD/svg11.dtd">
<svg version="1.1" id="Layer_1" xmlns="http://www.w3.org/2000/svg" xmlns:xlink="http://www.w3.org/1999/xlink" x="0px" y="0px"
	 width="47.741px" height="47.727px" viewBox="0 0 47.741 47.727" enable-background="new 0 0 47.741 47.727" xml:space="preserve">
<path fill="none" stroke="#4C2E83" stroke-width="2" stroke-miterlimit="10" d="M33.914,6.95c-2.092,0-4.063,0.811-5.549,2.284
	c-1.421,1.409-2.241,3.266-2.327,5.254L24.3,16.43l-1.977-1.8l-8.52,9.352l2.027,1.847L4.744,38.148l0.053,0.241
	c0.008,0.041,0.221,1.005,0.866,2.03c0.873,1.388,2.123,2.223,3.614,2.418l0.031,0.003h0.031c0.259,0,0.481,0,4.705-3.524
	c2.129-1.777,5.014-4.236,8.571-7.308l2.756,2.511l8.208-8.916l-1.668-1.52c0.837-0.896,1.218-1.23,1.401-1.39
	c0.203,0.015,0.405,0.023,0.603,0.023c4.347,0,7.883-3.537,7.883-7.884S38.261,6.95,33.914,6.95z"/>
<polygon fill="none" stroke="#4C2E83" stroke-width="2" stroke-miterlimit="10" points="22.387,14.74 31.108,22.9 22.607,31.935 
	13.886,23.776 "/>
<polygon fill="none" stroke="#4C2E83" stroke-width="2" stroke-miterlimit="10" points="25.393,34.293 22.828,31.741 31.158,22.961 
	33.723,25.514 "/>
<path fill="none" stroke="#FFFFFF" stroke-width="2" stroke-miterlimit="10" d="M13.528,25.055"/>
</svg>
