<?xml version="1.0" encoding="utf-8"?>
<!-- Generator: Adobe Illustrator 16.0.0, SVG Export Plug-In . SVG Version: 6.00 Build 0)  -->
<!DOCTYPE svg PUBLIC "-//W3C//DTD SVG 1.1//EN" "http://www.w3.org/Graphics/SVG/1.1/DTD/svg11.dtd">
<svg version="1.1" id="Layer_1" xmlns="http://www.w3.org/2000/svg" xmlns:xlink="http://www.w3.org/1999/xlink" x="0px" y="0px"
	 width="162px" height="17.667px" viewBox="0 0 162 17.667" enable-background="new 0 0 162 17.667" xml:space="preserve">
<line fill="none" stroke="#373A95" stroke-width="0.3974" stroke-miterlimit="10" x1="3.733" y1="13.585" x2="15.353" y2="13.585"/>
<polyline fill="none" stroke="#373A95" stroke-width="0.3974" stroke-miterlimit="10" points="4.967,9.222 7.284,6.168 11.92,9.447 
	14.858,3.059 "/>
<polyline fill="none" stroke="#373A95" stroke-width="0.3974" stroke-miterlimit="10" points="13.276,3.509 14.995,2.953 
	15.353,4.619 "/>
<g>
	
		<rect x="23.329" y="2.981" fill="#FFFFFF" stroke="#4D2F82" stroke-width="0.2444" stroke-linecap="round" stroke-linejoin="round" stroke-miterlimit="10" width="12.474" height="7.768"/>
	<polygon fill="#4D2F82" points="29.483,7.367 29.659,7.237 29.797,7.407 30,7.325 30.092,7.524 30.309,7.495 30.351,7.71 
		30.568,7.736 30.552,7.956 30.756,8.035 30.687,8.243 30.866,8.371 30.747,8.555 30.887,8.723 30.728,8.872 30.822,9.07 
		30.628,9.174 30.671,9.39 30.458,9.442 30.447,9.662 30.227,9.66 30.161,9.868 29.949,9.814 29.833,9.999 29.64,9.892 
		29.483,10.042 29.323,9.892 29.131,9.999 29.014,9.814 28.804,9.868 28.737,9.66 28.518,9.662 28.506,9.442 28.293,9.39 
		28.335,9.174 28.142,9.07 28.238,8.872 28.078,8.723 28.216,8.555 28.098,8.371 28.276,8.243 28.208,8.035 28.413,7.956 
		28.396,7.736 28.614,7.71 28.654,7.495 28.871,7.524 28.963,7.325 29.167,7.407 29.306,7.237 	"/>
	<polygon fill="#4D2F82" points="24.552,10.699 23.385,10.699 23.385,9.531 	"/>
	<polygon fill="#4D2F82" points="23.385,4.239 23.385,3.07 24.552,3.07 	"/>
	<polygon fill="#4D2F82" points="34.62,10.681 35.789,10.681 35.789,9.512 	"/>
	<polygon fill="#4D2F82" points="35.789,4.219 35.789,3.05 34.62,3.05 	"/>
	
		<line fill="none" stroke="#4D2F82" stroke-width="0.2444" stroke-linecap="round" stroke-linejoin="round" stroke-miterlimit="10" x1="24.583" y1="4.406" x2="34.548" y2="4.406"/>
	
		<line fill="none" stroke="#4D2F82" stroke-width="0.2444" stroke-linecap="round" stroke-linejoin="round" stroke-miterlimit="10" x1="24.583" y1="5.387" x2="34.548" y2="5.387"/>
	
		<line fill="none" stroke="#4D2F82" stroke-width="0.2444" stroke-linecap="round" stroke-linejoin="round" stroke-miterlimit="10" x1="24.498" y1="6.368" x2="34.464" y2="6.368"/>
	<circle fill="#FFFFFF" cx="29.481" cy="8.641" r="0.874"/>
</g>
<g>
	<g>
		
			<path fill="#FFFFFF" stroke="#4D2F82" stroke-width="0.3441" stroke-linecap="round" stroke-linejoin="round" stroke-miterlimit="10" d="
			M53.961,10.962H45.68l-1.407,1.42v-1.42h-2.356c-0.154,0-0.28-0.126-0.28-0.28V3.432c0-0.154,0.126-0.28,0.28-0.28h12.045
			c0.152,0,0.279,0.126,0.279,0.28v7.251C54.24,10.836,54.113,10.962,53.961,10.962z"/>
	</g>
</g>
<g>
	
		<path fill="#FFFFFF" stroke="#4D2F82" stroke-width="0.2841" stroke-linecap="round" stroke-linejoin="round" stroke-miterlimit="10" d="
		M69.822,2.787h-2.029c0,1.038-0.756,1.877-1.689,1.877s-1.691-0.84-1.691-1.877h-1.926h-2.338v3.188h2.338v6.771h7.336V5.975h2.236
		V2.787H69.822z"/>
	<g>
		<path fill="#373A95" d="M67.123,6.059c0,0.037,0,0.517,0,0.552c0.035,0,0.387,0,0.387,0l-0.433,1.612c0,0-0.53-2.133-0.538-2.164
			c-0.029,0-0.532,0-0.561,0c-0.008,0.03-0.582,2.165-0.582,2.165L65,6.61c0,0,0.365,0,0.402,0c0-0.035,0-0.515,0-0.552
			c-0.037,0-1.582,0-1.619,0c0,0.037,0,0.517,0,0.552c0.035,0,0.359,0,0.359,0s0.619,2.478,0.627,2.508c0.029,0,0.84,0,0.869,0
			c0.008-0.03,0.415-1.579,0.415-1.579s0.386,1.548,0.394,1.579c0.03,0,0.841,0,0.869,0c0.008-0.03,0.66-2.508,0.66-2.508
			s0.32,0,0.355,0c0-0.035,0-0.515,0-0.552C68.295,6.059,67.16,6.059,67.123,6.059L67.123,6.059z"/>
	</g>
</g>
<g>
	
		<path fill="none" stroke="#373A95" stroke-width="0.3447" stroke-linecap="round" stroke-linejoin="round" stroke-miterlimit="10" d="
		M83.806,6.083c0,0-0.949-0.968-2.055-0.852c-1.093,0.113-0.548,0.289-1.706,0.293c-1.159-0.004-0.613-0.18-1.706-0.293
		c-1.105-0.116-2.054,0.852-2.054,0.852c-2.238,2.646,0.845,6.113,1.815,6.784c0.859,0.594,1.75,0.138,1.944,0.024
		c0.194,0.113,1.086,0.569,1.944-0.024C82.96,12.196,86.043,8.729,83.806,6.083"/>
	
		<path fill="none" stroke="#373A95" stroke-width="0.3447" stroke-linecap="round" stroke-linejoin="round" stroke-miterlimit="10" d="
		M79.039,2.368c0,0,1.276,1.185,1.007,3.02"/>
	
		<path fill="none" stroke="#373A95" stroke-width="0.3447" stroke-linecap="round" stroke-linejoin="round" stroke-miterlimit="10" d="
		M80.083,4.31c0,0-0.143-2.221,3.549-1.628C83.632,2.682,82.751,5.544,80.083,4.31z"/>
</g>
<g>
	
		<path fill="#FFFFFF" stroke="#4D2F82" stroke-width="0.2841" stroke-linecap="round" stroke-linejoin="round" stroke-miterlimit="10" d="
		M102.689,10.189c0,0-4.446,2.391-5.342,2.391c-1.076,0-5.189-2.88-5.189-2.88V8.403L97.5,7.134l5.189,1.06V10.189z"/>
	
		<polygon fill="#FFFFFF" stroke="#4D2F82" stroke-width="0.2841" stroke-linecap="round" stroke-linejoin="round" stroke-miterlimit="10" points="
		104.875,7.897 97.46,11.216 90.262,7.219 97.676,3.659 	"/>
	
		<line fill="none" stroke="#4D2F82" stroke-width="0.2841" stroke-linecap="round" stroke-linejoin="round" stroke-miterlimit="10" x1="97.5" y1="7.278" x2="103.739" y2="8.406"/>
	
		<line fill="none" stroke="#4D2F82" stroke-width="0.2841" stroke-linecap="round" stroke-linejoin="round" stroke-miterlimit="10" x1="103.739" y1="8.406" x2="103.739" y2="11.216"/>
	
		<ellipse fill="#FFFFFF" stroke="#4D2F82" stroke-width="0.2841" stroke-linecap="round" stroke-linejoin="round" stroke-miterlimit="10" cx="103.739" cy="12.417" rx="0.445" ry="1.203"/>
</g>
<circle fill="#FFFFFF" stroke="#4D2F82" stroke-width="0.25" stroke-linecap="round" stroke-linejoin="round" stroke-miterlimit="10" cx="111.5" cy="3.265" r="0.505"/>
<line fill="none" stroke="#4D2F82" stroke-width="0.25" stroke-linecap="round" stroke-linejoin="round" stroke-miterlimit="10" x1="111.5" y1="4.016" x2="111.5" y2="15.626"/>
<polygon fill="#FFFFFF" stroke="#4D2F82" stroke-width="0.25" stroke-linecap="round" stroke-linejoin="round" stroke-miterlimit="10" points="
	111.5,10.021 111.5,4.507 118.992,7.264 "/>
<path fill="#FFFFFF" stroke="#4D2F82" stroke-width="0.25" stroke-linecap="round" stroke-linejoin="round" stroke-miterlimit="10" d="
	M116.793,6.443"/>
<line fill="none" stroke="#FFFFFF" stroke-miterlimit="10" x1="139.663" y1="10.983" x2="124.913" y2="10.983"/>
<line fill="none" stroke="#FFFFFF" stroke-miterlimit="10" x1="124.913" y1="11.265" x2="124.913" y2="6.015"/>
<line fill="none" stroke="#FFFFFF" stroke-miterlimit="10" x1="142.875" y1="10.983" x2="157.625" y2="10.983"/>
<line fill="none" stroke="#FFFFFF" stroke-miterlimit="10" x1="157.625" y1="11.265" x2="157.625" y2="6.015"/>
</svg>
