<?xml version="1.0" encoding="utf-8"?>
<!-- Generator: Adobe Illustrator 16.0.0, SVG Export Plug-In . SVG Version: 6.00 Build 0)  -->
<!DOCTYPE svg PUBLIC "-//W3C//DTD SVG 1.1//EN" "http://www.w3.org/Graphics/SVG/1.1/DTD/svg11.dtd">
<svg version="1.1" id="Layer_1" xmlns="http://www.w3.org/2000/svg" xmlns:xlink="http://www.w3.org/1999/xlink" x="0px" y="0px"
	 width="606.843px" height="67.85px" viewBox="0 0 606.843 67.85" enable-background="new 0 0 606.843 67.85" xml:space="preserve">
<path fill="#8D6527" d="M22.546,66.971C10.115,66.971,0,56.856,0,44.425V22.546C0,10.114,10.115,0,22.546,0H584.07
	c12.433,0,22.546,10.114,22.546,22.546v21.879c0,12.432-10.113,22.546-22.546,22.546H22.546z"/>
<path fill="#B3852D" d="M22.546,66.267c-12.043,0-21.841-9.799-21.841-21.842V22.546c0-12.043,9.797-21.842,21.841-21.842H584.07
	c12.044,0,21.842,9.798,21.842,21.842v21.879c0,12.043-9.798,21.842-21.842,21.842H22.546z"/>
<path fill="#906427" d="M22.546,65.562c-11.654,0-21.136-9.481-21.136-21.137V22.546c0-11.655,9.482-21.137,21.136-21.137H584.07
	c11.654,0,21.137,9.482,21.137,21.137v21.879c0,11.655-9.482,21.137-21.137,21.137H22.546z"/>
<path fill="#653614" d="M22.546,64.152c-10.877,0-19.728-8.85-19.728-19.728V22.546c0-10.878,8.85-19.728,19.728-19.728H584.07
	c10.878,0,19.728,8.85,19.728,19.728v21.879c0,10.878-8.85,19.728-19.728,19.728H22.546z"/>
<path fill="#3A2A12" d="M22.546,62.743c-10.1,0-18.318-8.218-18.318-18.318V22.546c0-10.101,8.218-18.318,18.318-18.318H584.07
	c10.101,0,18.318,8.218,18.318,18.318v21.879c0,10.101-8.218,18.318-18.318,18.318H22.546z"/>
<linearGradient id="SVGID_1_" gradientUnits="userSpaceOnUse" x1="303.3081" y1="4.5776" x2="303.3081" y2="107.5389">
	<stop  offset="0" style="stop-color:#E2B84A"/>
	<stop  offset="1" style="stop-color:#866024"/>
</linearGradient>
<path fill="url(#SVGID_1_)" d="M601.685,22.546c0-9.729-7.887-17.614-17.614-17.614H22.546c-9.728,0-17.614,7.886-17.614,17.614
	v21.879c0,9.729,7.886,17.614,17.614,17.614H584.07c9.728,0,17.614-7.886,17.614-17.614V22.546z"/>
</svg>
