<?xml version="1.0" encoding="utf-8"?>
<!-- Generator: Adobe Illustrator 16.0.0, SVG Export Plug-In . SVG Version: 6.00 Build 0)  -->
<!DOCTYPE svg PUBLIC "-//W3C//DTD SVG 1.1//EN" "http://www.w3.org/Graphics/SVG/1.1/DTD/svg11.dtd">
<svg version="1.1" id="Layer_1" xmlns="http://www.w3.org/2000/svg" xmlns:xlink="http://www.w3.org/1999/xlink" x="0px" y="0px"
	 width="934px" height="176px" viewBox="0 0 934 176" enable-background="new 0 0 934 176" xml:space="preserve">
<path fill="#FFFFFF" d="M465.284,5.553c-1.335,0.765-2.414,1.423-3.238,1.975s-1.662,1.282-2.514,2.187
	c-0.795,0.85-1.405,1.742-1.832,2.676c-0.426,0.935-0.725,2.137-0.895,3.609h2.045c1.761,0,3.146,0.434,4.155,1.3
	c1.007,0.867,1.512,2.137,1.512,3.813c0,1.193-0.448,2.308-1.342,3.344c-0.896,1.038-2.124,1.556-3.685,1.556
	c-2.444,0-4.191-0.801-5.241-2.403c-1.051-1.602-1.576-3.708-1.576-6.316c0-1.842,0.397-3.522,1.192-5.039s1.761-2.871,2.898-4.062
	c1.164-1.219,2.4-2.253,3.707-3.104c1.306-0.85,2.4-1.545,3.281-2.084L465.284,5.553z M481.049,5.553
	c-1.335,0.765-2.415,1.423-3.237,1.975c-0.825,0.552-1.662,1.282-2.514,2.187c-0.824,0.877-1.441,1.777-1.854,2.698
	c-0.412,0.92-0.702,2.115-0.873,3.588h2.045c1.761,0,3.146,0.434,4.154,1.299c1.008,0.867,1.513,2.138,1.513,3.813
	c0,1.193-0.448,2.309-1.343,3.345c-0.894,1.038-2.123,1.556-3.685,1.556c-2.443,0-4.19-0.801-5.241-2.403
	c-1.051-1.602-1.576-3.708-1.576-6.316c0-1.842,0.397-3.522,1.193-5.039c0.795-1.517,1.762-2.871,2.897-4.062
	c1.164-1.219,2.399-2.253,3.707-3.104c1.307-0.851,2.4-1.545,3.281-2.084L481.049,5.553z"/>
<line fill="none" stroke="#FFFFFF" stroke-width="0.5" stroke-miterlimit="10" x1="499.914" y1="16.353" x2="779.785" y2="16.353"/>
<line fill="none" stroke="#FFFFFF" stroke-width="0.5" stroke-miterlimit="10" x1="152.933" y1="16.353" x2="432.804" y2="16.353"/>
</svg>
