<?xml version="1.0" encoding="utf-8"?>
<!-- Generator: Adobe Illustrator 16.0.0, SVG Export Plug-In . SVG Version: 6.00 Build 0)  -->
<!DOCTYPE svg PUBLIC "-//W3C//DTD SVG 1.1//EN" "http://www.w3.org/Graphics/SVG/1.1/DTD/svg11.dtd">
<svg version="1.1" id="Layer_1" xmlns="http://www.w3.org/2000/svg" xmlns:xlink="http://www.w3.org/1999/xlink" x="0px" y="0px"
	 width="112.626px" height="176.22px" viewBox="0 0 112.626 176.22" enable-background="new 0 0 112.626 176.22"
	 xml:space="preserve">
<path fill="none" stroke="#000000" stroke-width="1.0533" stroke-miterlimit="10" d="M50.625,39.433c0,0,2.461-6.576,8.579-9.066
	s7.174-3.661,16.879-1.32c9.705,2.341,9.775,11.483,9.775,11.483s2.742,10.751-3.446,18.357c-6.188,7.607-9.986,6.656-13.291,6.217
	c-3.307-0.439-13.038-3.876-16.962-11.995C48.234,44.992,50.554,41.115,50.625,39.433z"/>
<path d="M64.721,3.23l2.711,24.706c0,0,5.293,0,7.359,1.208L80.73,5.513C80.73,5.513,76.598-0.26,64.721,3.23z"/>
<path d="M46.094,8.117l12.298,23.176c0,0,3.913-3.29,6.261-2.96L61.784,4.09C61.784,4.09,55.893,0.311,46.094,8.117z"/>
<line x1="64.653" y1="4.574" x2="80.663" y2="4.574"/>
<path d="M65.493,64.391l-7.101,22.49c0,0,2.841,3.49,13.427,1.41l-2.582-23.229L65.493,64.391z"/>
<path d="M82.001,32.606l16.625-16.168c0,0-0.877-4.481-11.121-7.951L79.03,30.145L82.001,32.606z"/>
<path d="M63.246,63.518l-7.424,20.208c0,0-0.839,2.417-3.162,1.477l-9.554-4.834c0,0-0.775,0.336,1.162-1.611l14.588-18.261
	L63.246,63.518z"/>
<path d="M57.94,59.825L42.383,78.623c0,0-0.709,1.947-2.84,0.873c0,0-8.843-6.458-9.489-9.674c0,0-0.839-0.934,0.516-1.806
	l24.078-11.883L57.94,59.825z"/>
<path d="M84.538,35.731l14.135-12.057c0,0,1.025-1.238,2.49-0.109c0,0,5.562,5.385,5.972,8.748c0,0,0.396,0.814-0.751,1.275
	l-20.557,6.435L84.538,35.731z"/>
<path d="M53.098,54.32L31.409,65.464c0,0-0.774,1.275-2.13-1.074c0,0-5.487-8.19-5.229-11.682c0,0-0.582-1.074,2.001-0.94
	l24.981-0.873L53.098,54.32z"/>
<path d="M71.367,65.599l2.453,21.416c0,0-0.258,1.141,1.743,0.604c0,0,10.651-3.535,11.49-4.52c0,0,1.42-0.448-0.064-3.401
	l-9.231-16.516C77.757,63.182,72.658,66.203,71.367,65.599z"/>
<path d="M79.346,62.446l13.129,16.381c0,0,7.876-3.961,8.263-6.311L82.211,58.821L79.346,62.446z"/>
<path d="M106.29,60.966L85.568,53.85l-2.775,3.558l18.526,13.494C101.319,70.902,105.58,66.606,106.29,60.966z"/>
<path d="M56.657,31.737L42.099,9.5c0,0-8.779,0.806-10.245,7.585l20.95,18.706L56.657,31.737z"/>
<path d="M52.328,36.827L31.16,21.365c0,0-7.941,3.975-7.011,10.857l25.949,9.812L52.328,36.827z"/>
<path d="M24.649,50.734l25.933-1.602l-0.536-6.3L25.612,37.81C25.612,37.81,22.926,44.421,24.649,50.734z"/>
<path d="M109.646,50.381c0,0,0.323-1.365-1.161-1.365H86.537l-0.71,3.356l19.946,6.311c0,0,1.291,0.47,1.55-0.331
	C107.323,58.354,109.681,53.112,109.646,50.381z"/>
<path d="M108.071,36.545c0,0-0.556-1.147-1.948-0.612l-19.974,7.674l0.453,3.405l22.012-1.151c0,0,2.012-0.442,1.872-1.611
	C110.486,44.25,108.923,38.364,108.071,36.545z"/>
<polygon points="66.139,42.807 65.235,27.813 66.267,27.746 67.17,42.739 "/>
<polygon points="69.271,44.302 68.557,43.527 82.436,29.697 83.15,30.473 "/>
<polygon points="68.191,46.604 68.155,45.531 87.364,44.823 87.399,45.896 "/>
<polygon points="82.187,59.204 67.043,46.895 67.679,46.048 82.823,58.357 "/>
<polygon points="72.159,65.531 67.271,46.199 68.27,45.926 73.157,65.258 "/>
<polygon points="56.779,61.432 55.938,60.809 67.088,44.528 67.929,45.151 "/>
<polygon points="45.798,48.942 45.752,47.869 64.951,46.957 64.998,48.03 "/>
<g>
	<path d="M53.592,36.384l14.062,14.75c0,0,3.125,2,3.562-0.812s0.75-5.438,0.75-5.438s0.625-1.125-2-2.312L53.592,36.384z"/>
	<path d="M83.592,163.946L58.155,94.55c0,0-0.854-1.5,0-4s1.854-7.167,1.854-7.167l-3.159-1.61l-1.617,8.443
		c0,0-0.76,2.778-0.02,4.289l-8.559-0.56c0,0-0.058-0.004-0.157-0.013c0.801-13.417,2.97-15.55,2.97-15.55l-1.812-1.574
		c-2.121,2.191-3.248,8.482-3.73,16.846c-1.038-0.135-2.322-0.323-3.77-0.584c-2.316-0.418-7.85-1.02-11.839-1.428
		c4.537-10.051,10.276-19.568,10.276-19.568l-2-1.903c-3.188,5.414-15.312,13.836-17.625,42.024s7.812,61.312,7.812,61.312h2.375
		c-1.445-4.097-2.631-9.3-3.584-15.006c3.1,0.277,12.206-1.205,20.707-2.746c0.815,9.408,1.503,15.752,1.503,15.752l4.188-0.5
		c0,0-1.262-3.397-2.712-15.798c5.605-1.039,10.572-2.013,12.837-2.39c6-1,5.562-1.188,9.938-2.125
		c1.315-0.282,2.391-0.466,3.287-0.596l5.525,15.283L83.592,163.946z M53.393,98.009c0.558-0.057,1.104-0.117,1.623-0.176
		l-8.743,13.02c-0.109-5.191-0.077-9.571,0.053-13.255C48.812,97.868,51.998,98.151,53.393,98.009z M42.967,97.196
		c0,0,0.298,0.039,0.79,0.101c-0.182,5.274-0.154,11.178,0.01,17.288l-2.278,3.393c-2.502-2.335-4.773-4.578-6.209-6.219
		c-2.758-3.151-8.179-9.236-10.36-11.682c0.511-1.492,1.096-3.029,1.733-4.584L42.967,97.196z M23.03,107.571
		c0.125-1.021,0.346-2.125,0.632-3.281c2.568,2.847,8.793,9.614,16.014,16.527c-3.851,6.145-13.207,21.614-15.229,29.939
		C22.381,134.112,22.044,115.579,23.03,107.571z M35.03,155.071c-5.167,0.586-8.917,0.582-9.915,0.567
		c-0.02-0.133-0.041-0.265-0.06-0.398c1.406-2.597,9.634-17.774,17.475-31.735c0.541,0.502,1.084,1.001,1.631,1.497
		c0.487,10.203,1.234,20.326,1.924,28.513C41.063,154.306,36.893,154.86,35.03,155.071z M49.011,153.041
		c-0.687-6.278-1.399-14.603-2.032-25.536c2.989,2.602,5.997,5.035,8.863,7.066c11.629,8.243,14.358,12.363,14.995,13.754
		C65.108,150.134,56.485,151.804,49.011,153.041z M73.604,147.35c-2.979-2.885-17.385-16.804-21.637-20.216
		c-1.479-1.188-3.318-2.74-5.253-4.435c-0.111-2.143-0.199-4.166-0.271-6.108c4.797-8.409,8.934-15.357,10.525-17.242l17.258,47.734
		C74.024,147.173,73.823,147.262,73.604,147.35z"/>
	<path d="M5.78,23.997c0,0-4.188,14.2-4.062,18.325c0,0-0.938,2.253,3.375,2.408s45.274,2.634,45.274,2.634
		s-1.331-7.388,1.464-10.417S9.03,22.391,9.03,22.391S7.03,21.922,5.78,23.997z"/>
</g>
</svg>
