<?xml version="1.0" encoding="utf-8"?>
<!-- Generator: Adobe Illustrator 16.0.0, SVG Export Plug-In . SVG Version: 6.00 Build 0)  -->
<!DOCTYPE svg PUBLIC "-//W3C//DTD SVG 1.1//EN" "http://www.w3.org/Graphics/SVG/1.1/DTD/svg11.dtd">
<svg version="1.1" id="Layer_1" xmlns="http://www.w3.org/2000/svg" xmlns:xlink="http://www.w3.org/1999/xlink" x="0px" y="0px"
	 width="652.982px" height="85.386px" viewBox="-475.352 0 652.982 85.386" enable-background="new -475.352 0 652.982 85.386"
	 xml:space="preserve">
<line fill="none" stroke="#B9A87D" stroke-width="1.5" stroke-miterlimit="10" x1="-484.685" y1="78.602" x2="179.003" y2="78.602"/>
<path fill="#4B2E82" d="M110.657,64.582l6.672,12.319h-15.328H84.946l6.691-12.363h0.005l0.206,0.116h9.001
	c0.403,0.589,1.082,0.973,1.851,0.973c0.768,0,1.447-0.384,1.856-0.973h5.979L110.657,64.582z M99.512,67.943
	c0-0.697-0.563-1.26-1.261-1.26c-0.698,0-1.262,0.563-1.262,1.26c0,0.699,0.563,1.263,1.262,1.263
	C98.948,69.205,99.512,68.641,99.512,67.943z"/>
<path fill="#FFFFFF" d="M104.954,63.379c0,0.474-0.148,0.916-0.397,1.275h-3.707c-0.249-0.359-0.397-0.801-0.397-1.275
	c0-1.241,1.006-2.247,2.248-2.247S104.954,62.137,104.954,63.379z"/>
<path fill="#FFFFFF" d="M100.85,64.654h3.707c-0.409,0.589-1.089,0.973-1.856,0.973C101.932,65.626,101.253,65.242,100.85,64.654z"
	/>
<circle fill="#FFFFFF" cx="100.907" cy="58.641" r="0.89"/>
<circle fill="#FFFFFF" cx="98.251" cy="67.944" r="1.261"/>
<line fill="none" stroke="#4C2F81" stroke-width="1.5" stroke-linecap="round" stroke-linejoin="round" stroke-miterlimit="10" x1="104.557" y1="64.654" x2="110.536" y2="64.654"/>
<line fill="none" stroke="#4C2F81" stroke-width="1.5" stroke-linecap="round" stroke-linejoin="round" stroke-miterlimit="10" x1="91.849" y1="64.654" x2="100.85" y2="64.654"/>
<polyline fill="none" stroke="#4C2F81" stroke-width="1.5" stroke-linecap="round" stroke-linejoin="round" stroke-miterlimit="10" points="
	107.22,39.479 104.55,39.479 104.55,53.302 110.657,64.582 117.329,76.901 102.001,76.901 84.946,76.901 91.638,64.538 
	91.643,64.538 97.726,53.302 97.726,39.479 94.773,39.479 "/>
<circle fill="none" stroke="#4C2F81" stroke-width="0.6402" stroke-linecap="round" stroke-linejoin="round" stroke-miterlimit="10" cx="98.25" cy="67.943" r="1.261"/>
<path fill="#FFFFFF" stroke="#4C2F81" stroke-width="0.6402" stroke-linecap="round" stroke-linejoin="round" stroke-miterlimit="10" d="
	M100.85,64.654c-0.249-0.359-0.397-0.801-0.397-1.275c0-1.241,1.006-2.247,2.248-2.247s2.254,1.005,2.254,2.247
	c0,0.474-0.148,0.916-0.397,1.275c-0.409,0.589-1.089,0.973-1.856,0.973C101.932,65.626,101.253,65.242,100.85,64.654z"/>
<circle fill="none" stroke="#4C2F81" stroke-width="0.6402" stroke-linecap="round" stroke-linejoin="round" stroke-miterlimit="10" cx="100.907" cy="58.641" r="0.89"/>
<g id="XMLID_8_">
	<g>
		<path fill="#4C2F81" d="M152.436,54.576c0.48,1.366,0.729,2.853,0.729,4.408c0,6.594-5.429,11.947-12.146,11.947
			c-6.703,0-12.145-5.353-12.145-11.947c0-1.587,0.263-3.099,0.768-4.484l0.314,0.101h21.723L152.436,54.576z"/>
	</g>
	<g>
		
			<polyline fill="none" stroke="#4C2F81" stroke-width="1.5" stroke-linecap="round" stroke-linejoin="round" stroke-miterlimit="10" points="
			137.787,45.608 137.787,32.855 135.456,32.855 		"/>
		
			<polyline fill="none" stroke="#4C2F81" stroke-width="1.5" stroke-linecap="round" stroke-linejoin="round" stroke-miterlimit="10" points="
			144.791,45.608 144.791,32.855 146.59,32.855 		"/>
		
			<line fill="none" stroke="#4C2F81" stroke-width="1.5" stroke-linecap="round" stroke-linejoin="round" stroke-miterlimit="10" x1="144.791" y1="47.441" x2="144.791" y2="45.608"/>
		
			<line fill="none" stroke="#4C2F81" stroke-width="1.5" stroke-linecap="round" stroke-linejoin="round" stroke-miterlimit="10" x1="137.787" y1="47.315" x2="137.787" y2="45.608"/>
		
			<path fill="none" stroke="#4C2F81" stroke-width="1.5" stroke-linecap="round" stroke-linejoin="round" stroke-miterlimit="10" d="
			M137.787,47.315c-3.95,0.844-6.845,3.571-8.145,7.186c-0.505,1.385-0.768,2.897-0.768,4.484c0,6.594,5.441,11.947,12.145,11.947
			c6.717,0,12.146-5.353,12.146-11.947c0-1.556-0.249-3.042-0.729-4.408c-1.217-3.483-3.912-6.159-7.645-7.136"/>
		
			<line fill="none" stroke="#4C2F81" stroke-width="1.5" stroke-linecap="round" stroke-linejoin="round" stroke-miterlimit="10" x1="129.957" y1="54.601" x2="151.68" y2="54.601"/>
	</g>
</g>
<circle fill="#FFFFFF" stroke="#FFFFFF" stroke-width="0.6402" stroke-linecap="round" stroke-linejoin="round" stroke-miterlimit="10" cx="138.539" cy="57.237" r="1.261"/>
<path fill="#FFFFFF" stroke="#4C2F81" stroke-width="0.6402" stroke-linecap="round" stroke-linejoin="round" stroke-miterlimit="10" d="
	M141.095,52.131c-0.222-0.32-0.354-0.714-0.354-1.137c0-1.108,0.897-2.005,2.005-2.005c1.109,0,2.011,0.897,2.011,2.005
	c0,0.423-0.131,0.817-0.354,1.137c-0.365,0.525-0.972,0.869-1.657,0.869C142.062,52.999,141.456,52.656,141.095,52.131z"/>
<circle fill="#FFFFFF" stroke="#4C2F81" stroke-width="0.6402" stroke-linecap="round" stroke-linejoin="round" stroke-miterlimit="10" cx="140.556" cy="45.374" r="0.89"/>
<rect x="131.206" y="37.204" fill="#4B2E82" stroke="#FFFFFF" stroke-width="1.2805" stroke-miterlimit="10" width="27.851" height="4.055"/>
<rect x="124.804" y="74.403" fill="#4B2E82" width="37.026" height="3.443"/>
<rect x="157.774" y="22.122" fill="#4B2E82" width="4.056" height="54.309"/>
</svg>
