<?xml version="1.0" encoding="utf-8"?>
<!-- Generator: Adobe Illustrator 16.0.0, SVG Export Plug-In . SVG Version: 6.00 Build 0)  -->
<!DOCTYPE svg PUBLIC "-//W3C//DTD SVG 1.1//EN" "http://www.w3.org/Graphics/SVG/1.1/DTD/svg11.dtd">
<svg version="1.1" id="Layer_1" xmlns="http://www.w3.org/2000/svg" xmlns:xlink="http://www.w3.org/1999/xlink" x="0px" y="0px"
	 width="1271.941px" height="336.03px" viewBox="0 0 1271.941 336.03" enable-background="new 0 0 1271.941 336.03"
	 xml:space="preserve">
<g opacity="0.1">
	
		<ellipse fill="none" stroke="#FFFFFF" stroke-width="1.5" stroke-miterlimit="10" cx="80.868" cy="158.222" rx="49.616" ry="49.564"/>
	
		<ellipse fill="none" stroke="#FFFFFF" stroke-width="1.5" stroke-miterlimit="10" cx="100.87" cy="170.288" rx="12.256" ry="12.243"/>
	<ellipse fill="none" stroke="#FFFFFF" stroke-width="1.5" stroke-miterlimit="10" cx="72.55" cy="147.155" rx="18.13" ry="18.11"/>
	
		<ellipse fill="none" stroke="#FFFFFF" stroke-width="1.5" stroke-miterlimit="10" cx="67.331" cy="181.941" rx="8.607" ry="8.598"/>
	
		<ellipse fill="none" stroke="#FFFFFF" stroke-width="1.5" stroke-miterlimit="10" cx="46.685" cy="166.043" rx="5.253" ry="5.248"/>
	
		<ellipse fill="none" stroke="#FFFFFF" stroke-width="1.5" stroke-miterlimit="10" cx="88.614" cy="123.061" rx="5.253" ry="5.248"/>
	<circle fill="none" stroke="#FFFFFF" stroke-width="1.5" stroke-miterlimit="10" cx="110.863" cy="136.798" r="4.473"/>
	<circle fill="none" stroke="#FFFFFF" stroke-width="1.5" stroke-miterlimit="10" cx="83.552" cy="196.766" r="2.684"/>
	<circle fill="none" stroke="#FFFFFF" stroke-width="1.5" stroke-miterlimit="10" cx="105.197" cy="189.788" r="1.194"/>
	<circle fill="none" stroke="#FFFFFF" stroke-width="1.5" stroke-miterlimit="10" cx="45.584" cy="140.237" r="2.076"/>
	<circle fill="none" stroke="#FFFFFF" stroke-width="1.5" stroke-miterlimit="10" cx="45.584" cy="187.107" r="2.076"/>
	<circle fill="none" stroke="#FFFFFF" stroke-width="1.5" stroke-miterlimit="10" cx="100.87" cy="148.406" r="1.366"/>
	<circle fill="none" stroke="#FFFFFF" stroke-width="1.5" stroke-miterlimit="10" cx="122.677" cy="158.044" r="1.366"/>
</g>
<g opacity="0.1">
	
		<ellipse fill="none" stroke="#FFFFFF" stroke-width="1.5" stroke-miterlimit="10" cx="297.879" cy="235.41" rx="49.616" ry="49.564"/>
	
		<ellipse fill="none" stroke="#FFFFFF" stroke-width="1.5" stroke-miterlimit="10" cx="317.88" cy="247.476" rx="12.256" ry="12.243"/>
	
		<ellipse fill="none" stroke="#FFFFFF" stroke-width="1.5" stroke-miterlimit="10" cx="289.56" cy="224.344" rx="18.129" ry="18.11"/>
	
		<ellipse fill="none" stroke="#FFFFFF" stroke-width="1.5" stroke-miterlimit="10" cx="284.341" cy="259.129" rx="8.607" ry="8.598"/>
	
		<ellipse fill="none" stroke="#FFFFFF" stroke-width="1.5" stroke-miterlimit="10" cx="305.624" cy="200.25" rx="5.253" ry="5.248"/>
	<circle fill="none" stroke="#FFFFFF" stroke-width="1.5" stroke-miterlimit="10" cx="327.874" cy="213.987" r="4.473"/>
	<circle fill="none" stroke="#FFFFFF" stroke-width="1.5" stroke-miterlimit="10" cx="300.562" cy="273.955" r="2.684"/>
	<circle fill="none" stroke="#FFFFFF" stroke-width="1.5" stroke-miterlimit="10" cx="322.207" cy="266.976" r="1.194"/>
	<circle fill="none" stroke="#FFFFFF" stroke-width="1.5" stroke-miterlimit="10" cx="317.881" cy="225.594" r="1.366"/>
	<circle fill="none" stroke="#FFFFFF" stroke-width="1.5" stroke-miterlimit="10" cx="339.688" cy="235.233" r="1.366"/>
</g>
<g opacity="0.1">
	
		<ellipse fill="none" stroke="#FFFFFF" stroke-width="1.5" stroke-miterlimit="10" cx="338.321" cy="112.147" rx="49.616" ry="49.564"/>
	
		<ellipse fill="none" stroke="#FFFFFF" stroke-width="1.5" stroke-miterlimit="10" cx="358.322" cy="124.213" rx="12.256" ry="12.243"/>
	
		<ellipse fill="none" stroke="#FFFFFF" stroke-width="1.5" stroke-miterlimit="10" cx="330.003" cy="101.081" rx="18.13" ry="18.11"/>
	
		<ellipse fill="none" stroke="#FFFFFF" stroke-width="1.5" stroke-miterlimit="10" cx="324.783" cy="135.867" rx="8.607" ry="8.598"/>
	
		<ellipse fill="none" stroke="#FFFFFF" stroke-width="1.5" stroke-miterlimit="10" cx="346.066" cy="76.987" rx="5.254" ry="5.248"/>
	<circle fill="none" stroke="#FFFFFF" stroke-width="1.5" stroke-miterlimit="10" cx="368.316" cy="90.724" r="4.473"/>
	<circle fill="none" stroke="#FFFFFF" stroke-width="1.5" stroke-miterlimit="10" cx="341.004" cy="150.692" r="2.684"/>
	<circle fill="none" stroke="#FFFFFF" stroke-width="1.5" stroke-miterlimit="10" cx="362.649" cy="143.713" r="1.194"/>
	<circle fill="none" stroke="#FFFFFF" stroke-width="1.5" stroke-miterlimit="10" cx="358.323" cy="102.332" r="1.366"/>
	<circle fill="none" stroke="#FFFFFF" stroke-width="1.5" stroke-miterlimit="10" cx="380.13" cy="111.97" r="1.366"/>
</g>
<g opacity="0.1">
	
		<ellipse fill="none" stroke="#FFFFFF" stroke-width="1.5" stroke-miterlimit="10" cx="77.912" cy="278.275" rx="18.939" ry="18.92"/>
	
		<ellipse fill="none" stroke="#FFFFFF" stroke-width="1.5" stroke-miterlimit="10" cx="85.547" cy="282.882" rx="4.678" ry="4.673"/>
	
		<ellipse fill="none" stroke="#FFFFFF" stroke-width="1.5" stroke-miterlimit="10" cx="74.737" cy="274.052" rx="6.921" ry="6.912"/>
	<circle fill="none" stroke="#FFFFFF" stroke-width="1.5" stroke-miterlimit="10" cx="72.744" cy="287.329" r="3.286"/>
	<circle fill="none" stroke="#FFFFFF" stroke-width="1.5" stroke-miterlimit="10" cx="64.863" cy="281.261" r="2.005"/>
	<circle fill="none" stroke="#FFFFFF" stroke-width="1.5" stroke-miterlimit="10" cx="80.868" cy="264.854" r="2.005"/>
	<circle fill="none" stroke="#FFFFFF" stroke-width="1.5" stroke-miterlimit="10" cx="89.362" cy="270.098" r="1.707"/>
	<circle fill="none" stroke="#FFFFFF" stroke-width="1.5" stroke-miterlimit="10" cx="78.936" cy="292.989" r="1.024"/>
	<circle fill="none" stroke="#FFFFFF" stroke-width="1.5" stroke-miterlimit="10" cx="87.198" cy="290.325" r="0.456"/>
	<circle fill="none" stroke="#FFFFFF" stroke-width="1.5" stroke-miterlimit="10" cx="64.443" cy="271.41" r="0.793"/>
	<circle fill="none" stroke="#FFFFFF" stroke-width="1.5" stroke-miterlimit="10" cx="64.443" cy="289.302" r="0.793"/>
	<circle fill="none" stroke="#FFFFFF" stroke-width="1.5" stroke-miterlimit="10" cx="85.547" cy="274.528" r="0.521"/>
	<circle fill="none" stroke="#FFFFFF" stroke-width="1.5" stroke-miterlimit="10" cx="93.871" cy="278.208" r="0.521"/>
</g>
<g opacity="0.1">
	
		<ellipse fill="none" stroke="#FFFFFF" stroke-width="1.5" stroke-miterlimit="10" cx="203.33" cy="85.462" rx="18.939" ry="18.92"/>
	
		<ellipse fill="none" stroke="#FFFFFF" stroke-width="1.5" stroke-miterlimit="10" cx="210.965" cy="90.069" rx="4.678" ry="4.673"/>
	
		<ellipse fill="none" stroke="#FFFFFF" stroke-width="1.5" stroke-miterlimit="10" cx="200.155" cy="81.239" rx="6.921" ry="6.912"/>
	<circle fill="none" stroke="#FFFFFF" stroke-width="1.5" stroke-miterlimit="10" cx="198.162" cy="94.516" r="3.286"/>
	<circle fill="none" stroke="#FFFFFF" stroke-width="1.5" stroke-miterlimit="10" cx="190.281" cy="88.448" r="2.005"/>
	<circle fill="none" stroke="#FFFFFF" stroke-width="1.5" stroke-miterlimit="10" cx="206.286" cy="72.042" r="2.005"/>
	<circle fill="none" stroke="#FFFFFF" stroke-width="1.5" stroke-miterlimit="10" cx="214.78" cy="77.285" r="1.707"/>
	<circle fill="none" stroke="#FFFFFF" stroke-width="1.5" stroke-miterlimit="10" cx="204.354" cy="100.176" r="1.024"/>
	<circle fill="none" stroke="#FFFFFF" stroke-width="1.5" stroke-miterlimit="10" cx="212.616" cy="97.512" r="0.456"/>
	<circle fill="none" stroke="#FFFFFF" stroke-width="1.5" stroke-miterlimit="10" cx="189.861" cy="78.597" r="0.793"/>
	<circle fill="none" stroke="#FFFFFF" stroke-width="1.5" stroke-miterlimit="10" cx="189.861" cy="96.489" r="0.793"/>
	<circle fill="none" stroke="#FFFFFF" stroke-width="1.5" stroke-miterlimit="10" cx="210.965" cy="81.715" r="0.521"/>
	<circle fill="none" stroke="#FFFFFF" stroke-width="1.5" stroke-miterlimit="10" cx="219.289" cy="85.395" r="0.521"/>
</g>
<g opacity="0.1">
	
		<ellipse fill="none" stroke="#FFFFFF" stroke-width="1.5" stroke-miterlimit="10" cx="464.203" cy="201.939" rx="18.939" ry="18.92"/>
	
		<ellipse fill="none" stroke="#FFFFFF" stroke-width="1.5" stroke-miterlimit="10" cx="471.838" cy="206.545" rx="4.678" ry="4.673"/>
	
		<ellipse fill="none" stroke="#FFFFFF" stroke-width="1.5" stroke-miterlimit="10" cx="461.028" cy="197.715" rx="6.921" ry="6.912"/>
	<circle fill="none" stroke="#FFFFFF" stroke-width="1.5" stroke-miterlimit="10" cx="459.036" cy="210.993" r="3.286"/>
	<circle fill="none" stroke="#FFFFFF" stroke-width="1.5" stroke-miterlimit="10" cx="451.155" cy="204.924" r="2.005"/>
	<circle fill="none" stroke="#FFFFFF" stroke-width="1.5" stroke-miterlimit="10" cx="467.16" cy="188.518" r="2.005"/>
	<circle fill="none" stroke="#FFFFFF" stroke-width="1.5" stroke-miterlimit="10" cx="475.653" cy="193.761" r="1.708"/>
	<circle fill="none" stroke="#FFFFFF" stroke-width="1.5" stroke-miterlimit="10" cx="465.228" cy="216.653" r="1.024"/>
	<circle fill="none" stroke="#FFFFFF" stroke-width="1.5" stroke-miterlimit="10" cx="473.49" cy="213.989" r="0.456"/>
	<circle fill="none" stroke="#FFFFFF" stroke-width="1.5" stroke-miterlimit="10" cx="450.734" cy="195.074" r="0.793"/>
	<circle fill="none" stroke="#FFFFFF" stroke-width="1.5" stroke-miterlimit="10" cx="450.734" cy="212.965" r="0.793"/>
	<circle fill="none" stroke="#FFFFFF" stroke-width="1.5" stroke-miterlimit="10" cx="471.838" cy="198.192" r="0.521"/>
	<circle fill="none" stroke="#FFFFFF" stroke-width="1.5" stroke-miterlimit="10" cx="480.162" cy="201.872" r="0.521"/>
</g>
<g opacity="0.1">
	
		<ellipse fill="none" stroke="#FFFFFF" stroke-width="1.5" stroke-miterlimit="10" cx="553.063" cy="116.962" rx="18.939" ry="18.92"/>
	
		<ellipse fill="none" stroke="#FFFFFF" stroke-width="1.5" stroke-miterlimit="10" cx="560.699" cy="121.569" rx="4.678" ry="4.673"/>
	
		<ellipse fill="none" stroke="#FFFFFF" stroke-width="1.5" stroke-miterlimit="10" cx="549.889" cy="112.739" rx="6.921" ry="6.912"/>
	<circle fill="none" stroke="#FFFFFF" stroke-width="1.5" stroke-miterlimit="10" cx="547.896" cy="126.016" r="3.286"/>
	<circle fill="none" stroke="#FFFFFF" stroke-width="1.5" stroke-miterlimit="10" cx="540.015" cy="119.948" r="2.005"/>
	<circle fill="none" stroke="#FFFFFF" stroke-width="1.5" stroke-miterlimit="10" cx="556.02" cy="103.542" r="2.005"/>
	<circle fill="none" stroke="#FFFFFF" stroke-width="1.5" stroke-miterlimit="10" cx="564.513" cy="108.785" r="1.708"/>
	<circle fill="none" stroke="#FFFFFF" stroke-width="1.5" stroke-miterlimit="10" cx="554.088" cy="131.676" r="1.024"/>
	<circle fill="none" stroke="#FFFFFF" stroke-width="1.5" stroke-miterlimit="10" cx="562.35" cy="129.012" r="0.456"/>
	<circle fill="none" stroke="#FFFFFF" stroke-width="1.5" stroke-miterlimit="10" cx="539.595" cy="110.097" r="0.793"/>
	<circle fill="none" stroke="#FFFFFF" stroke-width="1.5" stroke-miterlimit="10" cx="539.595" cy="127.989" r="0.793"/>
	<circle fill="none" stroke="#FFFFFF" stroke-width="1.5" stroke-miterlimit="10" cx="560.698" cy="113.215" r="0.521"/>
	<circle fill="none" stroke="#FFFFFF" stroke-width="1.5" stroke-miterlimit="10" cx="569.022" cy="116.895" r="0.521"/>
</g>
<g opacity="0.1">
	
		<ellipse fill="none" stroke="#FFFFFF" stroke-width="1.5" stroke-miterlimit="10" cx="588.484" cy="307.62" rx="18.939" ry="18.92"/>
	
		<ellipse fill="none" stroke="#FFFFFF" stroke-width="1.5" stroke-miterlimit="10" cx="596.12" cy="312.226" rx="4.678" ry="4.673"/>
	
		<ellipse fill="none" stroke="#FFFFFF" stroke-width="1.5" stroke-miterlimit="10" cx="585.31" cy="303.396" rx="6.921" ry="6.912"/>
	<circle fill="none" stroke="#FFFFFF" stroke-width="1.5" stroke-miterlimit="10" cx="583.317" cy="316.673" r="3.286"/>
	<circle fill="none" stroke="#FFFFFF" stroke-width="1.5" stroke-miterlimit="10" cx="575.436" cy="310.605" r="2.005"/>
	<circle fill="none" stroke="#FFFFFF" stroke-width="1.5" stroke-miterlimit="10" cx="591.441" cy="294.199" r="2.005"/>
	<circle fill="none" stroke="#FFFFFF" stroke-width="1.5" stroke-miterlimit="10" cx="599.934" cy="299.442" r="1.708"/>
	<circle fill="none" stroke="#FFFFFF" stroke-width="1.5" stroke-miterlimit="10" cx="589.509" cy="322.333" r="1.024"/>
	<circle fill="none" stroke="#FFFFFF" stroke-width="1.5" stroke-miterlimit="10" cx="597.771" cy="319.669" r="0.456"/>
	<circle fill="none" stroke="#FFFFFF" stroke-width="1.5" stroke-miterlimit="10" cx="575.016" cy="300.754" r="0.793"/>
	<circle fill="none" stroke="#FFFFFF" stroke-width="1.5" stroke-miterlimit="10" cx="575.016" cy="318.646" r="0.793"/>
	<circle fill="none" stroke="#FFFFFF" stroke-width="1.5" stroke-miterlimit="10" cx="596.119" cy="303.873" r="0.521"/>
	<circle fill="none" stroke="#FFFFFF" stroke-width="1.5" stroke-miterlimit="10" cx="604.443" cy="307.552" r="0.521"/>
</g>
<g opacity="0.1">
	
		<ellipse fill="none" stroke="#FFFFFF" stroke-width="1.5" stroke-miterlimit="10" cx="36.356" cy="28.855" rx="18.939" ry="18.92"/>
	<ellipse fill="none" stroke="#FFFFFF" stroke-width="1.5" stroke-miterlimit="10" cx="43.991" cy="33.461" rx="4.678" ry="4.673"/>
	<ellipse fill="none" stroke="#FFFFFF" stroke-width="1.5" stroke-miterlimit="10" cx="33.181" cy="24.631" rx="6.921" ry="6.912"/>
	<circle fill="none" stroke="#FFFFFF" stroke-width="1.5" stroke-miterlimit="10" cx="31.188" cy="37.909" r="3.286"/>
	<circle fill="none" stroke="#FFFFFF" stroke-width="1.5" stroke-miterlimit="10" cx="23.308" cy="31.84" r="2.005"/>
	<circle fill="none" stroke="#FFFFFF" stroke-width="1.5" stroke-miterlimit="10" cx="39.312" cy="15.434" r="2.005"/>
	<circle fill="none" stroke="#FFFFFF" stroke-width="1.5" stroke-miterlimit="10" cx="47.806" cy="20.677" r="1.708"/>
	<circle fill="none" stroke="#FFFFFF" stroke-width="1.5" stroke-miterlimit="10" cx="37.38" cy="43.569" r="1.024"/>
	<circle fill="none" stroke="#FFFFFF" stroke-width="1.5" stroke-miterlimit="10" cx="45.643" cy="40.905" r="0.456"/>
	<circle fill="none" stroke="#FFFFFF" stroke-width="1.5" stroke-miterlimit="10" cx="22.887" cy="21.99" r="0.793"/>
	<circle fill="none" stroke="#FFFFFF" stroke-width="1.5" stroke-miterlimit="10" cx="22.887" cy="39.881" r="0.793"/>
	<circle fill="none" stroke="#FFFFFF" stroke-width="1.5" stroke-miterlimit="10" cx="43.991" cy="25.108" r="0.521"/>
	<circle fill="none" stroke="#FFFFFF" stroke-width="1.5" stroke-miterlimit="10" cx="52.315" cy="28.788" r="0.521"/>
</g>
<g opacity="0.1">
	
		<ellipse fill="none" stroke="#FFFFFF" stroke-width="1.5" stroke-miterlimit="10" cx="784.674" cy="202.921" rx="49.616" ry="49.564"/>
	
		<ellipse fill="none" stroke="#FFFFFF" stroke-width="1.5" stroke-miterlimit="10" cx="804.676" cy="214.987" rx="12.256" ry="12.243"/>
	
		<ellipse fill="none" stroke="#FFFFFF" stroke-width="1.5" stroke-miterlimit="10" cx="776.356" cy="191.854" rx="18.129" ry="18.11"/>
	
		<ellipse fill="none" stroke="#FFFFFF" stroke-width="1.5" stroke-miterlimit="10" cx="771.137" cy="226.64" rx="8.607" ry="8.598"/>
	
		<ellipse fill="none" stroke="#FFFFFF" stroke-width="1.5" stroke-miterlimit="10" cx="792.419" cy="167.76" rx="5.253" ry="5.248"/>
	<circle fill="none" stroke="#FFFFFF" stroke-width="1.5" stroke-miterlimit="10" cx="814.669" cy="181.498" r="4.473"/>
	<circle fill="none" stroke="#FFFFFF" stroke-width="1.5" stroke-miterlimit="10" cx="787.357" cy="241.465" r="2.684"/>
	<circle fill="none" stroke="#FFFFFF" stroke-width="1.5" stroke-miterlimit="10" cx="809.002" cy="234.487" r="1.194"/>
	<circle fill="none" stroke="#FFFFFF" stroke-width="1.5" stroke-miterlimit="10" cx="804.676" cy="193.105" r="1.366"/>
	<circle fill="none" stroke="#FFFFFF" stroke-width="1.5" stroke-miterlimit="10" cx="826.482" cy="202.744" r="1.366"/>
</g>
<g opacity="0.1">
	
		<ellipse fill="none" stroke="#FFFFFF" stroke-width="1.5" stroke-miterlimit="10" cx="952.321" cy="136.798" rx="49.616" ry="49.564"/>
	
		<ellipse fill="none" stroke="#FFFFFF" stroke-width="1.5" stroke-miterlimit="10" cx="972.322" cy="148.864" rx="12.256" ry="12.243"/>
	
		<ellipse fill="none" stroke="#FFFFFF" stroke-width="1.5" stroke-miterlimit="10" cx="944.003" cy="125.731" rx="18.13" ry="18.11"/>
	
		<ellipse fill="none" stroke="#FFFFFF" stroke-width="1.5" stroke-miterlimit="10" cx="938.783" cy="160.517" rx="8.607" ry="8.598"/>
	
		<ellipse fill="none" stroke="#FFFFFF" stroke-width="1.5" stroke-miterlimit="10" cx="960.066" cy="101.637" rx="5.254" ry="5.248"/>
	<circle fill="none" stroke="#FFFFFF" stroke-width="1.5" stroke-miterlimit="10" cx="982.316" cy="115.375" r="4.473"/>
	<circle fill="none" stroke="#FFFFFF" stroke-width="1.5" stroke-miterlimit="10" cx="955.004" cy="175.342" r="2.684"/>
	<circle fill="none" stroke="#FFFFFF" stroke-width="1.5" stroke-miterlimit="10" cx="976.649" cy="168.364" r="1.194"/>
	<circle fill="none" stroke="#FFFFFF" stroke-width="1.5" stroke-miterlimit="10" cx="972.323" cy="126.982" r="1.366"/>
	<circle fill="none" stroke="#FFFFFF" stroke-width="1.5" stroke-miterlimit="10" cx="994.13" cy="136.621" r="1.366"/>
</g>
<g opacity="0.1">
	
		<ellipse fill="none" stroke="#FFFFFF" stroke-width="1.5" stroke-miterlimit="10" cx="1152.261" cy="215.75" rx="49.616" ry="49.564"/>
	
		<ellipse fill="none" stroke="#FFFFFF" stroke-width="1.5" stroke-miterlimit="10" cx="1172.262" cy="227.816" rx="12.256" ry="12.242"/>
	
		<ellipse fill="none" stroke="#FFFFFF" stroke-width="1.5" stroke-miterlimit="10" cx="1143.942" cy="204.683" rx="18.13" ry="18.11"/>
	
		<ellipse fill="none" stroke="#FFFFFF" stroke-width="1.5" stroke-miterlimit="10" cx="1138.723" cy="239.468" rx="8.607" ry="8.598"/>
	
		<ellipse fill="none" stroke="#FFFFFF" stroke-width="1.5" stroke-miterlimit="10" cx="1160.006" cy="180.589" rx="5.254" ry="5.248"/>
	<circle fill="none" stroke="#FFFFFF" stroke-width="1.5" stroke-miterlimit="10" cx="1182.256" cy="194.326" r="4.473"/>
	<circle fill="none" stroke="#FFFFFF" stroke-width="1.5" stroke-miterlimit="10" cx="1154.943" cy="254.294" r="2.684"/>
	<circle fill="none" stroke="#FFFFFF" stroke-width="1.5" stroke-miterlimit="10" cx="1176.589" cy="247.316" r="1.194"/>
	<circle fill="none" stroke="#FFFFFF" stroke-width="1.5" stroke-miterlimit="10" cx="1172.263" cy="205.934" r="1.366"/>
	<circle fill="none" stroke="#FFFFFF" stroke-width="1.5" stroke-miterlimit="10" cx="1194.069" cy="215.572" r="1.366"/>
</g>
<g opacity="0.1">
	
		<ellipse fill="none" stroke="#FFFFFF" stroke-width="1.5" stroke-miterlimit="10" cx="743.705" cy="296.2" rx="18.939" ry="18.92"/>
	<circle fill="none" stroke="#FFFFFF" stroke-width="1.5" stroke-miterlimit="10" cx="751.34" cy="300.806" r="4.678"/>
	<ellipse fill="none" stroke="#FFFFFF" stroke-width="1.5" stroke-miterlimit="10" cx="740.53" cy="291.976" rx="6.92" ry="6.912"/>
	<circle fill="none" stroke="#FFFFFF" stroke-width="1.5" stroke-miterlimit="10" cx="738.537" cy="305.253" r="3.285"/>
	<circle fill="none" stroke="#FFFFFF" stroke-width="1.5" stroke-miterlimit="10" cx="730.656" cy="299.185" r="2.006"/>
	<circle fill="none" stroke="#FFFFFF" stroke-width="1.5" stroke-miterlimit="10" cx="746.661" cy="282.779" r="2.005"/>
	<circle fill="none" stroke="#FFFFFF" stroke-width="1.5" stroke-miterlimit="10" cx="755.154" cy="288.022" r="1.707"/>
	<circle fill="none" stroke="#FFFFFF" stroke-width="1.5" stroke-miterlimit="10" cx="744.729" cy="310.914" r="1.024"/>
	<circle fill="none" stroke="#FFFFFF" stroke-width="1.5" stroke-miterlimit="10" cx="752.991" cy="308.25" r="0.456"/>
	<circle fill="none" stroke="#FFFFFF" stroke-width="1.5" stroke-miterlimit="10" cx="730.236" cy="289.334" r="0.793"/>
	<circle fill="none" stroke="#FFFFFF" stroke-width="1.5" stroke-miterlimit="10" cx="730.236" cy="307.226" r="0.793"/>
	<circle fill="none" stroke="#FFFFFF" stroke-width="1.5" stroke-miterlimit="10" cx="751.34" cy="292.453" r="0.521"/>
	<circle fill="none" stroke="#FFFFFF" stroke-width="1.5" stroke-miterlimit="10" cx="759.664" cy="296.132" r="0.521"/>
</g>
<g opacity="0.1">
	
		<ellipse fill="none" stroke="#FFFFFF" stroke-width="1.5" stroke-miterlimit="10" cx="836.172" cy="85.462" rx="18.939" ry="18.92"/>
	<circle fill="none" stroke="#FFFFFF" stroke-width="1.5" stroke-miterlimit="10" cx="843.807" cy="90.069" r="4.678"/>
	<ellipse fill="none" stroke="#FFFFFF" stroke-width="1.5" stroke-miterlimit="10" cx="832.997" cy="81.239" rx="6.92" ry="6.912"/>
	<circle fill="none" stroke="#FFFFFF" stroke-width="1.5" stroke-miterlimit="10" cx="831.004" cy="94.516" r="3.285"/>
	<circle fill="none" stroke="#FFFFFF" stroke-width="1.5" stroke-miterlimit="10" cx="823.123" cy="88.448" r="2.006"/>
	<circle fill="none" stroke="#FFFFFF" stroke-width="1.5" stroke-miterlimit="10" cx="839.128" cy="72.042" r="2.005"/>
	<circle fill="none" stroke="#FFFFFF" stroke-width="1.5" stroke-miterlimit="10" cx="847.621" cy="77.285" r="1.707"/>
	<circle fill="none" stroke="#FFFFFF" stroke-width="1.5" stroke-miterlimit="10" cx="837.196" cy="100.176" r="1.024"/>
	<circle fill="none" stroke="#FFFFFF" stroke-width="1.5" stroke-miterlimit="10" cx="845.458" cy="97.512" r="0.456"/>
	<circle fill="none" stroke="#FFFFFF" stroke-width="1.5" stroke-miterlimit="10" cx="822.703" cy="78.597" r="0.793"/>
	<circle fill="none" stroke="#FFFFFF" stroke-width="1.5" stroke-miterlimit="10" cx="822.703" cy="96.489" r="0.793"/>
	<circle fill="none" stroke="#FFFFFF" stroke-width="1.5" stroke-miterlimit="10" cx="843.807" cy="81.715" r="0.521"/>
	<circle fill="none" stroke="#FFFFFF" stroke-width="1.5" stroke-miterlimit="10" cx="852.131" cy="85.395" r="0.521"/>
</g>
<g opacity="0.1">
	
		<ellipse fill="none" stroke="#FFFFFF" stroke-width="1.5" stroke-miterlimit="10" cx="998.98" cy="241.882" rx="18.939" ry="18.92"/>
	
		<ellipse fill="none" stroke="#FFFFFF" stroke-width="1.5" stroke-miterlimit="10" cx="1006.616" cy="246.489" rx="4.678" ry="4.673"/>
	
		<ellipse fill="none" stroke="#FFFFFF" stroke-width="1.5" stroke-miterlimit="10" cx="995.806" cy="237.659" rx="6.921" ry="6.912"/>
	<circle fill="none" stroke="#FFFFFF" stroke-width="1.5" stroke-miterlimit="10" cx="993.813" cy="250.936" r="3.286"/>
	<circle fill="none" stroke="#FFFFFF" stroke-width="1.5" stroke-miterlimit="10" cx="985.932" cy="244.868" r="2.005"/>
	<circle fill="none" stroke="#FFFFFF" stroke-width="1.5" stroke-miterlimit="10" cx="1001.937" cy="228.461" r="2.005"/>
	<circle fill="none" stroke="#FFFFFF" stroke-width="1.5" stroke-miterlimit="10" cx="1010.43" cy="233.705" r="1.708"/>
	<circle fill="none" stroke="#FFFFFF" stroke-width="1.5" stroke-miterlimit="10" cx="1000.005" cy="256.596" r="1.024"/>
	<circle fill="none" stroke="#FFFFFF" stroke-width="1.5" stroke-miterlimit="10" cx="1008.267" cy="253.932" r="0.456"/>
	<circle fill="none" stroke="#FFFFFF" stroke-width="1.5" stroke-miterlimit="10" cx="985.512" cy="235.017" r="0.793"/>
	<circle fill="none" stroke="#FFFFFF" stroke-width="1.5" stroke-miterlimit="10" cx="985.512" cy="252.909" r="0.793"/>
	<circle fill="none" stroke="#FFFFFF" stroke-width="1.5" stroke-miterlimit="10" cx="1006.615" cy="238.135" r="0.521"/>
	<circle fill="none" stroke="#FFFFFF" stroke-width="1.5" stroke-miterlimit="10" cx="1014.939" cy="241.815" r="0.521"/>
</g>
<g opacity="0.1">
	
		<ellipse fill="none" stroke="#FFFFFF" stroke-width="1.5" stroke-miterlimit="10" cx="1091.263" cy="115.374" rx="18.939" ry="18.92"/>
	
		<ellipse fill="none" stroke="#FFFFFF" stroke-width="1.5" stroke-miterlimit="10" cx="1098.898" cy="119.98" rx="4.678" ry="4.673"/>
	
		<ellipse fill="none" stroke="#FFFFFF" stroke-width="1.5" stroke-miterlimit="10" cx="1088.088" cy="111.15" rx="6.921" ry="6.912"/>
	<circle fill="none" stroke="#FFFFFF" stroke-width="1.5" stroke-miterlimit="10" cx="1086.095" cy="124.427" r="3.286"/>
	<circle fill="none" stroke="#FFFFFF" stroke-width="1.5" stroke-miterlimit="10" cx="1078.214" cy="118.359" r="2.005"/>
	<circle fill="none" stroke="#FFFFFF" stroke-width="1.5" stroke-miterlimit="10" cx="1094.219" cy="101.953" r="2.005"/>
	<circle fill="none" stroke="#FFFFFF" stroke-width="1.5" stroke-miterlimit="10" cx="1102.712" cy="107.196" r="1.708"/>
	<circle fill="none" stroke="#FFFFFF" stroke-width="1.5" stroke-miterlimit="10" cx="1092.287" cy="130.087" r="1.024"/>
	<circle fill="none" stroke="#FFFFFF" stroke-width="1.5" stroke-miterlimit="10" cx="1100.549" cy="127.423" r="0.456"/>
	<circle fill="none" stroke="#FFFFFF" stroke-width="1.5" stroke-miterlimit="10" cx="1077.794" cy="108.508" r="0.793"/>
	<circle fill="none" stroke="#FFFFFF" stroke-width="1.5" stroke-miterlimit="10" cx="1077.794" cy="126.4" r="0.793"/>
	<circle fill="none" stroke="#FFFFFF" stroke-width="1.5" stroke-miterlimit="10" cx="1098.897" cy="111.626" r="0.521"/>
	<circle fill="none" stroke="#FFFFFF" stroke-width="1.5" stroke-miterlimit="10" cx="1107.222" cy="115.306" r="0.521"/>
</g>
<g opacity="0.1">
	
		<ellipse fill="none" stroke="#FFFFFF" stroke-width="1.5" stroke-miterlimit="10" cx="1188.862" cy="94.516" rx="18.939" ry="18.92"/>
	
		<ellipse fill="none" stroke="#FFFFFF" stroke-width="1.5" stroke-miterlimit="10" cx="1196.498" cy="99.122" rx="4.678" ry="4.673"/>
	
		<ellipse fill="none" stroke="#FFFFFF" stroke-width="1.5" stroke-miterlimit="10" cx="1185.688" cy="90.292" rx="6.921" ry="6.912"/>
	<circle fill="none" stroke="#FFFFFF" stroke-width="1.5" stroke-miterlimit="10" cx="1183.695" cy="103.569" r="3.286"/>
	<circle fill="none" stroke="#FFFFFF" stroke-width="1.5" stroke-miterlimit="10" cx="1175.814" cy="97.501" r="2.005"/>
	<circle fill="none" stroke="#FFFFFF" stroke-width="1.5" stroke-miterlimit="10" cx="1191.819" cy="81.095" r="2.005"/>
	<circle fill="none" stroke="#FFFFFF" stroke-width="1.5" stroke-miterlimit="10" cx="1200.312" cy="86.338" r="1.708"/>
	<circle fill="none" stroke="#FFFFFF" stroke-width="1.5" stroke-miterlimit="10" cx="1189.887" cy="109.229" r="1.024"/>
	<circle fill="none" stroke="#FFFFFF" stroke-width="1.5" stroke-miterlimit="10" cx="1198.149" cy="106.565" r="0.456"/>
	<circle fill="none" stroke="#FFFFFF" stroke-width="1.5" stroke-miterlimit="10" cx="1175.394" cy="87.65" r="0.793"/>
	<circle fill="none" stroke="#FFFFFF" stroke-width="1.5" stroke-miterlimit="10" cx="1175.394" cy="105.542" r="0.793"/>
	<circle fill="none" stroke="#FFFFFF" stroke-width="1.5" stroke-miterlimit="10" cx="1196.497" cy="90.769" r="0.521"/>
	<circle fill="none" stroke="#FFFFFF" stroke-width="1.5" stroke-miterlimit="10" cx="1204.821" cy="94.448" r="0.521"/>
</g>
<g opacity="0.1">
	
		<ellipse fill="none" stroke="#FFFFFF" stroke-width="1.5" stroke-miterlimit="10" cx="1226.288" cy="272.202" rx="18.939" ry="18.92"/>
	
		<ellipse fill="none" stroke="#FFFFFF" stroke-width="1.5" stroke-miterlimit="10" cx="1233.923" cy="276.808" rx="4.678" ry="4.673"/>
	
		<ellipse fill="none" stroke="#FFFFFF" stroke-width="1.5" stroke-miterlimit="10" cx="1223.113" cy="267.978" rx="6.921" ry="6.912"/>
	<circle fill="none" stroke="#FFFFFF" stroke-width="1.5" stroke-miterlimit="10" cx="1221.121" cy="281.255" r="3.286"/>
	<circle fill="none" stroke="#FFFFFF" stroke-width="1.5" stroke-miterlimit="10" cx="1213.24" cy="275.187" r="2.005"/>
	<circle fill="none" stroke="#FFFFFF" stroke-width="1.5" stroke-miterlimit="10" cx="1229.245" cy="258.781" r="2.005"/>
	<circle fill="none" stroke="#FFFFFF" stroke-width="1.5" stroke-miterlimit="10" cx="1237.738" cy="264.024" r="1.708"/>
	<circle fill="none" stroke="#FFFFFF" stroke-width="1.5" stroke-miterlimit="10" cx="1227.312" cy="286.916" r="1.024"/>
	<circle fill="none" stroke="#FFFFFF" stroke-width="1.5" stroke-miterlimit="10" cx="1235.575" cy="284.251" r="0.456"/>
	<circle fill="none" stroke="#FFFFFF" stroke-width="1.5" stroke-miterlimit="10" cx="1212.819" cy="265.336" r="0.793"/>
	<circle fill="none" stroke="#FFFFFF" stroke-width="1.5" stroke-miterlimit="10" cx="1212.819" cy="283.228" r="0.793"/>
	<circle fill="none" stroke="#FFFFFF" stroke-width="1.5" stroke-miterlimit="10" cx="1233.923" cy="268.455" r="0.521"/>
	<circle fill="none" stroke="#FFFFFF" stroke-width="1.5" stroke-miterlimit="10" cx="1242.247" cy="272.134" r="0.521"/>
</g>
<g opacity="0.1">
	
		<ellipse fill="none" stroke="#FFFFFF" stroke-width="1.5" stroke-miterlimit="10" cx="669.197" cy="28.855" rx="18.939" ry="18.92"/>
	
		<ellipse fill="none" stroke="#FFFFFF" stroke-width="1.5" stroke-miterlimit="10" cx="676.833" cy="33.461" rx="4.679" ry="4.673"/>
	
		<ellipse fill="none" stroke="#FFFFFF" stroke-width="1.5" stroke-miterlimit="10" cx="666.022" cy="24.631" rx="6.921" ry="6.912"/>
	<circle fill="none" stroke="#FFFFFF" stroke-width="1.5" stroke-miterlimit="10" cx="664.03" cy="37.909" r="3.286"/>
	<circle fill="none" stroke="#FFFFFF" stroke-width="1.5" stroke-miterlimit="10" cx="656.149" cy="31.84" r="2.005"/>
	<circle fill="none" stroke="#FFFFFF" stroke-width="1.5" stroke-miterlimit="10" cx="672.154" cy="15.434" r="2.006"/>
	<circle fill="none" stroke="#FFFFFF" stroke-width="1.5" stroke-miterlimit="10" cx="680.647" cy="20.677" r="1.708"/>
	<circle fill="none" stroke="#FFFFFF" stroke-width="1.5" stroke-miterlimit="10" cx="670.222" cy="43.569" r="1.024"/>
	<circle fill="none" stroke="#FFFFFF" stroke-width="1.5" stroke-miterlimit="10" cx="678.484" cy="40.905" r="0.455"/>
	<circle fill="none" stroke="#FFFFFF" stroke-width="1.5" stroke-miterlimit="10" cx="655.729" cy="21.99" r="0.793"/>
	<circle fill="none" stroke="#FFFFFF" stroke-width="1.5" stroke-miterlimit="10" cx="655.729" cy="39.881" r="0.793"/>
	<circle fill="none" stroke="#FFFFFF" stroke-width="1.5" stroke-miterlimit="10" cx="676.832" cy="25.108" r="0.521"/>
	<circle fill="none" stroke="#FFFFFF" stroke-width="1.5" stroke-miterlimit="10" cx="685.156" cy="28.788" r="0.521"/>
</g>
</svg>
