<?xml version="1.0" encoding="utf-8"?>
<!-- Generator: Adobe Illustrator 16.0.0, SVG Export Plug-In . SVG Version: 6.00 Build 0)  -->
<!DOCTYPE svg PUBLIC "-//W3C//DTD SVG 1.1//EN" "http://www.w3.org/Graphics/SVG/1.1/DTD/svg11.dtd">
<svg version="1.1" id="Layer_1" xmlns="http://www.w3.org/2000/svg" xmlns:xlink="http://www.w3.org/1999/xlink" x="0px" y="0px"
	 width="1271.941px" height="336.029px" viewBox="0 0 1271.941 336.029" enable-background="new 0 0 1271.941 336.029"
	 xml:space="preserve">
<g>
	
		<circle opacity="0.2" fill="none" stroke="#B9A87D" stroke-width="0.8087" stroke-miterlimit="10" cx="201.881" cy="86.475" r="16"/>
	
		<circle opacity="0.2" fill="none" stroke="#B9A87D" stroke-width="0.8087" stroke-miterlimit="10" cx="269.965" cy="58.845" r="6"/>
	
		<circle opacity="0.2" fill="none" stroke="#B9A87D" stroke-width="1.1131" stroke-miterlimit="10" cx="97.992" cy="148.695" r="48.116"/>
	<circle opacity="0.2" fill="#B9A87D" cx="117.389" cy="160.409" r="11.886"/>
	<circle opacity="0.2" fill="#B9A87D" cx="89.925" cy="137.952" r="17.582"/>
	<circle opacity="0.2" fill="#B9A87D" cx="84.863" cy="171.72" r="8.347"/>
	
		<circle opacity="0.2" fill="none" stroke="#B9A87D" stroke-width="0.4501" stroke-miterlimit="10" cx="64.842" cy="156.288" r="5.094"/>
	<circle opacity="0.2" fill="#B9A87D" cx="105.503" cy="114.561" r="5.095"/>
	<circle opacity="0.2" fill="#B9A87D" cx="127.08" cy="127.897" r="4.337"/>
	<circle opacity="0.2" fill="#B9A87D" cx="100.594" cy="186.113" r="2.603"/>
	
		<circle opacity="0.2" fill="none" stroke="#B9A87D" stroke-width="0.4501" stroke-miterlimit="10" cx="121.585" cy="179.34" r="1.158"/>
	<circle opacity="0.2" fill="#B9A87D" cx="63.775" cy="131.235" r="2.014"/>
	
		<circle opacity="0.2" fill="none" stroke="#B9A87D" stroke-width="0.4501" stroke-miterlimit="10" cx="64.842" cy="173.735" r="2.013"/>
	
		<circle opacity="0.2" fill="none" stroke="#B9A87D" stroke-width="0.4501" stroke-miterlimit="10" cx="117.389" cy="139.166" r="1.325"/>
	
		<circle opacity="0.2" fill="none" stroke="#B9A87D" stroke-width="0.4501" stroke-miterlimit="10" cx="138.536" cy="148.523" r="1.325"/>
	
		<circle opacity="0.2" fill="none" stroke="#B9A87D" stroke-width="0.4501" stroke-miterlimit="10" cx="83.538" cy="109.467" r="1.325"/>
	
		<circle opacity="0.2" fill="none" stroke="#B9A87D" stroke-width="1.1131" stroke-miterlimit="10" cx="305.532" cy="257.852" r="48.116"/>
	<circle opacity="0.2" fill="#B9A87D" cx="324.929" cy="269.565" r="11.886"/>
	<circle opacity="0.2" fill="#B9A87D" cx="297.465" cy="247.108" r="17.582"/>
	<circle opacity="0.2" fill="#B9A87D" cx="292.403" cy="280.878" r="8.347"/>
	
		<circle opacity="0.2" fill="none" stroke="#B9A87D" stroke-width="0.4501" stroke-miterlimit="10" cx="272.383" cy="265.444" r="5.094"/>
	<circle opacity="0.2" fill="#B9A87D" cx="313.044" cy="223.718" r="5.095"/>
	<circle opacity="0.2" fill="#B9A87D" cx="334.62" cy="237.053" r="4.337"/>
	<circle opacity="0.2" fill="#B9A87D" cx="308.134" cy="295.27" r="2.603"/>
	
		<circle opacity="0.2" fill="none" stroke="#B9A87D" stroke-width="0.4501" stroke-miterlimit="10" cx="329.126" cy="288.497" r="1.157"/>
	<circle opacity="0.2" fill="#B9A87D" cx="271.315" cy="240.391" r="2.014"/>
	
		<circle opacity="0.2" fill="none" stroke="#B9A87D" stroke-width="0.4501" stroke-miterlimit="10" cx="272.383" cy="282.891" r="2.014"/>
	
		<circle opacity="0.2" fill="none" stroke="#B9A87D" stroke-width="0.4501" stroke-miterlimit="10" cx="324.929" cy="248.323" r="1.325"/>
	
		<circle opacity="0.2" fill="none" stroke="#B9A87D" stroke-width="0.4501" stroke-miterlimit="10" cx="346.077" cy="257.68" r="1.325"/>
	
		<circle opacity="0.2" fill="none" stroke="#B9A87D" stroke-width="0.4501" stroke-miterlimit="10" cx="291.079" cy="218.624" r="1.326"/>
	<g>
		
			<circle opacity="0.2" fill="none" stroke="#B9A87D" stroke-width="0.8087" stroke-miterlimit="10" cx="53.089" cy="43.707" r="22.313"/>
		<circle opacity="0.2" fill="#B9A87D" cx="62.084" cy="49.139" r="5.512"/>
		<circle opacity="0.2" fill="#B9A87D" cx="49.348" cy="38.725" r="8.153"/>
		<circle opacity="0.2" fill="#B9A87D" cx="47.001" cy="54.385" r="3.871"/>
		
			<circle opacity="0.2" fill="none" stroke="#4B2E82" stroke-width="0.2988" stroke-miterlimit="10" cx="37.717" cy="47.228" r="2.362"/>
		<circle opacity="0.2" fill="#B9A87D" cx="56.573" cy="27.878" r="2.363"/>
		<circle opacity="0.2" fill="#B9A87D" cx="66.579" cy="34.063" r="2.011"/>
		<circle opacity="0.2" fill="#B9A87D" cx="54.296" cy="61.059" r="1.207"/>
		
			<circle opacity="0.2" fill="none" stroke="#4B2E82" stroke-width="0.2988" stroke-miterlimit="10" cx="64.03" cy="57.918" r="0.537"/>
		<circle opacity="0.2" fill="#B9A87D" cx="37.222" cy="35.611" r="0.934"/>
		
			<circle opacity="0.2" fill="none" stroke="#4B2E82" stroke-width="0.2988" stroke-miterlimit="10" cx="37.717" cy="55.319" r="0.934"/>
		
			<circle opacity="0.2" fill="none" stroke="#4B2E82" stroke-width="0.2988" stroke-miterlimit="10" cx="62.084" cy="39.288" r="0.615"/>
		
			<circle opacity="0.2" fill="none" stroke="#4B2E82" stroke-width="0.2988" stroke-miterlimit="10" cx="71.891" cy="43.628" r="0.615"/>
		
			<circle opacity="0.2" fill="none" stroke="#4B2E82" stroke-width="0.2988" stroke-miterlimit="10" cx="46.387" cy="25.516" r="0.614"/>
	</g>
	
		<circle opacity="0.2" fill="none" stroke="#B9A87D" stroke-width="0.8087" stroke-miterlimit="10" cx="107.714" cy="278.904" r="25.981"/>
	
		<circle opacity="0.2" fill="none" stroke="#B9A87D" stroke-width="0.8087" stroke-miterlimit="10" cx="107.714" cy="278.904" r="30.389"/>
	<circle opacity="0.2" fill="#B9A87D" cx="118.188" cy="285.23" r="6.418"/>
	<circle opacity="0.2" fill="#B9A87D" cx="103.358" cy="273.103" r="9.494"/>
	<circle opacity="0.2" fill="#B9A87D" cx="100.625" cy="291.338" r="4.507"/>
	
		<circle opacity="0.2" fill="none" stroke="#4B2E82" stroke-width="0.348" stroke-miterlimit="10" cx="89.814" cy="283.004" r="2.751"/>
	<circle opacity="0.2" fill="#B9A87D" cx="111.77" cy="260.472" r="2.751"/>
	<circle opacity="0.2" fill="#B9A87D" cx="123.421" cy="267.674" r="2.342"/>
	<circle opacity="0.2" fill="#B9A87D" cx="109.119" cy="299.109" r="1.405"/>
	
		<circle opacity="0.2" fill="none" stroke="#4B2E82" stroke-width="0.348" stroke-miterlimit="10" cx="120.454" cy="295.451" r="0.625"/>
	<circle opacity="0.2" fill="#B9A87D" cx="89.238" cy="269.476" r="1.087"/>
	
		<circle opacity="0.2" fill="none" stroke="#4B2E82" stroke-width="0.348" stroke-miterlimit="10" cx="89.814" cy="292.426" r="1.087"/>
	
		<circle opacity="0.2" fill="none" stroke="#4B2E82" stroke-width="0.348" stroke-miterlimit="10" cx="118.188" cy="273.76" r="0.715"/>
	
		<circle opacity="0.2" fill="none" stroke="#4B2E82" stroke-width="0.348" stroke-miterlimit="10" cx="99.909" cy="257.722" r="0.716"/>
</g>
</svg>
