<?xml version="1.0" encoding="utf-8"?>
<!-- Generator: Adobe Illustrator 16.0.0, SVG Export Plug-In . SVG Version: 6.00 Build 0)  -->
<!DOCTYPE svg PUBLIC "-//W3C//DTD SVG 1.1//EN" "http://www.w3.org/Graphics/SVG/1.1/DTD/svg11.dtd">
<svg version="1.1" id="Layer_1" xmlns="http://www.w3.org/2000/svg" xmlns:xlink="http://www.w3.org/1999/xlink" x="0px" y="0px"
	 width="612px" height="702.515px" viewBox="0 0 612 702.515" enable-background="new 0 0 612 702.515" xml:space="preserve">
<circle opacity="0.15" fill="none" stroke="#B9A87D" stroke-width="0.8087" stroke-miterlimit="10" cx="159.5" cy="261.515" r="16"/>
<circle opacity="0.15" fill="none" stroke="#B9A87D" stroke-width="0.8087" stroke-miterlimit="10" cx="178.5" cy="215.515" r="6"/>
<circle opacity="0.15" fill="none" stroke="#B9A87D" stroke-width="2" stroke-miterlimit="10" cx="57.765" cy="353.896" r="86.452"/>
<circle opacity="0.15" fill="#B9A87D" cx="92.617" cy="374.943" r="21.356"/>
<circle opacity="0.15" fill="#B9A87D" cx="43.271" cy="334.594" r="31.589"/>
<circle opacity="0.15" fill="#B9A87D" cx="34.177" cy="395.267" r="14.997"/>
<circle opacity="0.15" fill="none" stroke="#B9A87D" stroke-width="0.8087" stroke-miterlimit="10" cx="-1.796" cy="367.539" r="9.153"/>
<circle opacity="0.15" fill="#B9A87D" cx="71.262" cy="292.567" r="9.154"/>
<circle opacity="0.15" fill="#B9A87D" cx="110.03" cy="316.528" r="7.792"/>
<circle opacity="0.15" fill="#B9A87D" cx="62.441" cy="421.126" r="4.676"/>
<circle opacity="0.15" fill="none" stroke="#B9A87D" stroke-width="0.8087" stroke-miterlimit="10" cx="100.157" cy="408.956" r="2.081"/>
<circle opacity="0.15" fill="#B9A87D" cx="-3.714" cy="322.525" r="3.618"/>
<circle opacity="0.15" fill="none" stroke="#B9A87D" stroke-width="0.8087" stroke-miterlimit="10" cx="-1.796" cy="398.885" r="3.618"/>
<circle opacity="0.15" fill="none" stroke="#B9A87D" stroke-width="0.8087" stroke-miterlimit="10" cx="92.617" cy="336.774" r="2.381"/>
<circle opacity="0.15" fill="none" stroke="#B9A87D" stroke-width="0.8087" stroke-miterlimit="10" cx="130.613" cy="353.587" r="2.381"/>
<circle opacity="0.15" fill="none" stroke="#B9A87D" stroke-width="0.8087" stroke-miterlimit="10" cx="31.795" cy="283.413" r="2.381"/>
<circle opacity="0.15" fill="none" stroke="#B9A87D" stroke-width="0.8087" stroke-miterlimit="10" cx="114.12" cy="192.176" r="22.313"/>
<circle opacity="0.15" fill="#B9A87D" cx="123.115" cy="197.608" r="5.512"/>
<circle opacity="0.15" fill="#B9A87D" cx="110.379" cy="187.194" r="8.153"/>
<circle opacity="0.15" fill="#B9A87D" cx="108.031" cy="202.854" r="3.871"/>
<circle opacity="0.15" fill="none" stroke="#4B2E82" stroke-width="0.2988" stroke-miterlimit="10" cx="98.747" cy="195.697" r="2.362"/>
<circle opacity="0.15" fill="#B9A87D" cx="117.603" cy="176.347" r="2.363"/>
<circle opacity="0.15" fill="#B9A87D" cx="127.609" cy="182.532" r="2.011"/>
<circle opacity="0.15" fill="#B9A87D" cx="115.326" cy="209.528" r="1.207"/>
<circle opacity="0.15" fill="none" stroke="#4B2E82" stroke-width="0.2988" stroke-miterlimit="10" cx="125.061" cy="206.387" r="0.537"/>
<circle opacity="0.15" fill="#B9A87D" cx="98.252" cy="184.08" r="0.934"/>
<circle opacity="0.15" fill="none" stroke="#4B2E82" stroke-width="0.2988" stroke-miterlimit="10" cx="98.747" cy="203.788" r="0.934"/>
<circle opacity="0.15" fill="none" stroke="#4B2E82" stroke-width="0.2988" stroke-miterlimit="10" cx="123.115" cy="187.757" r="0.615"/>
<circle opacity="0.15" fill="none" stroke="#4B2E82" stroke-width="0.2988" stroke-miterlimit="10" cx="132.922" cy="192.097" r="0.615"/>
<circle opacity="0.15" fill="none" stroke="#4B2E82" stroke-width="0.2988" stroke-miterlimit="10" cx="107.417" cy="173.985" r="0.615"/>
<circle opacity="0.15" fill="none" stroke="#B9A87D" stroke-width="0.8087" stroke-miterlimit="10" cx="108.35" cy="577.558" r="25.981"/>
<circle opacity="0.15" fill="none" stroke="#B9A87D" stroke-width="0.8087" stroke-miterlimit="10" cx="108.35" cy="577.558" r="30.389"/>
<circle opacity="0.15" fill="#B9A87D" cx="118.824" cy="583.883" r="6.418"/>
<circle opacity="0.15" fill="#B9A87D" cx="103.994" cy="571.757" r="9.494"/>
<circle opacity="0.15" fill="#B9A87D" cx="101.26" cy="589.992" r="4.507"/>
<circle opacity="0.15" fill="none" stroke="#4B2E82" stroke-width="0.348" stroke-miterlimit="10" cx="90.45" cy="581.658" r="2.751"/>
<circle opacity="0.15" fill="#B9A87D" cx="112.405" cy="559.126" r="2.751"/>
<circle opacity="0.15" fill="#B9A87D" cx="124.057" cy="566.328" r="2.342"/>
<circle opacity="0.15" fill="#B9A87D" cx="109.755" cy="597.763" r="1.405"/>
<circle opacity="0.15" fill="none" stroke="#4B2E82" stroke-width="0.348" stroke-miterlimit="10" cx="121.09" cy="594.105" r="0.625"/>
<circle opacity="0.15" fill="#B9A87D" cx="89.874" cy="568.13" r="1.087"/>
<circle opacity="0.15" fill="none" stroke="#4B2E82" stroke-width="0.348" stroke-miterlimit="10" cx="90.45" cy="591.079" r="1.087"/>
<circle opacity="0.15" fill="none" stroke="#4B2E82" stroke-width="0.348" stroke-miterlimit="10" cx="118.824" cy="572.413" r="0.715"/>
<circle opacity="0.15" fill="none" stroke="#4B2E82" stroke-width="0.348" stroke-miterlimit="10" cx="100.545" cy="556.376" r="0.716"/>
</svg>
