<?xml version="1.0" encoding="utf-8"?>
<!-- Generator: Adobe Illustrator 16.0.0, SVG Export Plug-In . SVG Version: 6.00 Build 0)  -->
<!DOCTYPE svg PUBLIC "-//W3C//DTD SVG 1.1//EN" "http://www.w3.org/Graphics/SVG/1.1/DTD/svg11.dtd">
<svg version="1.1" id="Layer_1" xmlns="http://www.w3.org/2000/svg" xmlns:xlink="http://www.w3.org/1999/xlink" x="0px" y="0px"
	 width="1271.941px" height="336.029px" viewBox="0 0 1271.941 336.029" enable-background="new 0 0 1271.941 336.029"
	 xml:space="preserve">
<g opacity="0.1">
	
		<ellipse fill="none" stroke="#FFFFFF" stroke-width="1.5" stroke-miterlimit="10" cx="80.868" cy="158.222" rx="49.616" ry="49.564"/>
	
		<ellipse fill="none" stroke="#FFFFFF" stroke-width="1.5" stroke-miterlimit="10" cx="100.87" cy="170.288" rx="12.256" ry="12.243"/>
	<ellipse fill="none" stroke="#FFFFFF" stroke-width="1.5" stroke-miterlimit="10" cx="72.55" cy="147.155" rx="18.13" ry="18.11"/>
	
		<ellipse fill="none" stroke="#FFFFFF" stroke-width="1.5" stroke-miterlimit="10" cx="67.331" cy="181.941" rx="8.607" ry="8.598"/>
	
		<ellipse fill="none" stroke="#FFFFFF" stroke-width="1.5" stroke-miterlimit="10" cx="46.685" cy="166.043" rx="5.248" ry="5.248"/>
	
		<ellipse fill="none" stroke="#FFFFFF" stroke-width="1.5" stroke-miterlimit="10" cx="88.614" cy="123.061" rx="5.253" ry="5.248"/>
	<circle fill="none" stroke="#FFFFFF" stroke-width="1.5" stroke-miterlimit="10" cx="110.863" cy="136.798" r="4.473"/>
	<circle fill="none" stroke="#FFFFFF" stroke-width="1.5" stroke-miterlimit="10" cx="83.552" cy="196.766" r="2.684"/>
	<circle fill="none" stroke="#FFFFFF" stroke-width="1.5" stroke-miterlimit="10" cx="105.197" cy="189.788" r="1.194"/>
	<circle fill="none" stroke="#FFFFFF" stroke-width="1.5" stroke-miterlimit="10" cx="45.584" cy="140.237" r="2.076"/>
	<circle fill="none" stroke="#FFFFFF" stroke-width="1.5" stroke-miterlimit="10" cx="45.584" cy="187.107" r="2.076"/>
	<circle fill="none" stroke="#FFFFFF" stroke-width="1.5" stroke-miterlimit="10" cx="100.87" cy="148.406" r="1.366"/>
	<circle fill="none" stroke="#FFFFFF" stroke-width="1.5" stroke-miterlimit="10" cx="122.677" cy="158.044" r="1.366"/>
</g>
<g opacity="0.1">
	
		<ellipse fill="none" stroke="#FFFFFF" stroke-width="1.5" stroke-miterlimit="10" cx="297.879" cy="235.41" rx="49.616" ry="49.564"/>
	
		<ellipse fill="none" stroke="#FFFFFF" stroke-width="1.5" stroke-miterlimit="10" cx="317.88" cy="247.476" rx="12.256" ry="12.243"/>
	
		<ellipse fill="none" stroke="#FFFFFF" stroke-width="1.5" stroke-miterlimit="10" cx="289.56" cy="224.344" rx="18.129" ry="18.11"/>
	
		<ellipse fill="none" stroke="#FFFFFF" stroke-width="1.5" stroke-miterlimit="10" cx="284.341" cy="259.129" rx="8.607" ry="8.598"/>
	
		<ellipse fill="none" stroke="#FFFFFF" stroke-width="1.5" stroke-miterlimit="10" cx="305.624" cy="200.25" rx="5.248" ry="5.248"/>
	<circle fill="none" stroke="#FFFFFF" stroke-width="1.5" stroke-miterlimit="10" cx="327.874" cy="213.987" r="4.473"/>
	<circle fill="none" stroke="#FFFFFF" stroke-width="1.5" stroke-miterlimit="10" cx="300.562" cy="273.955" r="2.684"/>
	<circle fill="none" stroke="#FFFFFF" stroke-width="1.5" stroke-miterlimit="10" cx="322.207" cy="266.976" r="1.194"/>
	<circle fill="none" stroke="#FFFFFF" stroke-width="1.5" stroke-miterlimit="10" cx="317.881" cy="225.594" r="1.366"/>
	<circle fill="none" stroke="#FFFFFF" stroke-width="1.5" stroke-miterlimit="10" cx="339.688" cy="235.233" r="1.366"/>
</g>
<g opacity="0.1">
	
		<ellipse fill="none" stroke="#FFFFFF" stroke-width="1.5" stroke-miterlimit="10" cx="77.912" cy="278.275" rx="18.939" ry="18.92"/>
	
		<ellipse fill="none" stroke="#FFFFFF" stroke-width="1.5" stroke-miterlimit="10" cx="85.547" cy="282.882" rx="4.678" ry="4.673"/>
	
		<ellipse fill="none" stroke="#FFFFFF" stroke-width="1.5" stroke-miterlimit="10" cx="74.737" cy="274.052" rx="6.921" ry="6.912"/>
	<circle fill="none" stroke="#FFFFFF" stroke-width="1.5" stroke-miterlimit="10" cx="72.744" cy="287.329" r="3.286"/>
	<circle fill="none" stroke="#FFFFFF" stroke-width="1.5" stroke-miterlimit="10" cx="64.863" cy="281.261" r="2.005"/>
	<circle fill="none" stroke="#FFFFFF" stroke-width="1.5" stroke-miterlimit="10" cx="80.868" cy="264.854" r="2.005"/>
	<circle fill="none" stroke="#FFFFFF" stroke-width="1.5" stroke-miterlimit="10" cx="89.362" cy="270.098" r="1.707"/>
	<circle fill="none" stroke="#FFFFFF" stroke-width="1.5" stroke-miterlimit="10" cx="78.936" cy="292.989" r="1.024"/>
	<circle fill="none" stroke="#FFFFFF" stroke-width="1.5" stroke-miterlimit="10" cx="87.198" cy="290.325" r="0.456"/>
	<circle fill="none" stroke="#FFFFFF" stroke-width="1.5" stroke-miterlimit="10" cx="64.443" cy="271.41" r="0.793"/>
	<circle fill="none" stroke="#FFFFFF" stroke-width="1.5" stroke-miterlimit="10" cx="64.443" cy="289.302" r="0.793"/>
	<circle fill="none" stroke="#FFFFFF" stroke-width="1.5" stroke-miterlimit="10" cx="85.547" cy="274.528" r="0.521"/>
	<circle fill="none" stroke="#FFFFFF" stroke-width="1.5" stroke-miterlimit="10" cx="93.871" cy="278.208" r="0.521"/>
</g>
<g opacity="0.1">
	
		<ellipse fill="none" stroke="#FFFFFF" stroke-width="1.5" stroke-miterlimit="10" cx="203.33" cy="85.462" rx="18.939" ry="18.92"/>
	
		<ellipse fill="none" stroke="#FFFFFF" stroke-width="1.5" stroke-miterlimit="10" cx="210.965" cy="90.069" rx="4.673" ry="4.673"/>
	
		<ellipse fill="none" stroke="#FFFFFF" stroke-width="1.5" stroke-miterlimit="10" cx="200.155" cy="81.239" rx="6.921" ry="6.912"/>
	<circle fill="none" stroke="#FFFFFF" stroke-width="1.5" stroke-miterlimit="10" cx="198.162" cy="94.516" r="3.286"/>
	<circle fill="none" stroke="#FFFFFF" stroke-width="1.5" stroke-miterlimit="10" cx="190.281" cy="88.448" r="2.005"/>
	<circle fill="none" stroke="#FFFFFF" stroke-width="1.5" stroke-miterlimit="10" cx="206.286" cy="72.042" r="2.005"/>
	<circle fill="none" stroke="#FFFFFF" stroke-width="1.5" stroke-miterlimit="10" cx="214.78" cy="77.285" r="1.707"/>
	<circle fill="none" stroke="#FFFFFF" stroke-width="1.5" stroke-miterlimit="10" cx="204.354" cy="100.176" r="1.024"/>
	<circle fill="none" stroke="#FFFFFF" stroke-width="1.5" stroke-miterlimit="10" cx="212.616" cy="97.512" r="0.456"/>
	<circle fill="none" stroke="#FFFFFF" stroke-width="1.5" stroke-miterlimit="10" cx="189.861" cy="78.597" r="0.793"/>
	<circle fill="none" stroke="#FFFFFF" stroke-width="1.5" stroke-miterlimit="10" cx="189.861" cy="96.489" r="0.793"/>
	<circle fill="none" stroke="#FFFFFF" stroke-width="1.5" stroke-miterlimit="10" cx="210.965" cy="81.715" r="0.521"/>
	<circle fill="none" stroke="#FFFFFF" stroke-width="1.5" stroke-miterlimit="10" cx="219.289" cy="85.395" r="0.521"/>
</g>
<g opacity="0.1">
	
		<ellipse fill="none" stroke="#FFFFFF" stroke-width="1.5" stroke-miterlimit="10" cx="36.356" cy="28.855" rx="18.939" ry="18.92"/>
	<ellipse fill="none" stroke="#FFFFFF" stroke-width="1.5" stroke-miterlimit="10" cx="43.991" cy="33.461" rx="4.673" ry="4.673"/>
	<ellipse fill="none" stroke="#FFFFFF" stroke-width="1.5" stroke-miterlimit="10" cx="33.181" cy="24.631" rx="6.921" ry="6.912"/>
	<circle fill="none" stroke="#FFFFFF" stroke-width="1.5" stroke-miterlimit="10" cx="31.188" cy="37.909" r="3.286"/>
	<circle fill="none" stroke="#FFFFFF" stroke-width="1.5" stroke-miterlimit="10" cx="23.308" cy="31.84" r="2.005"/>
	<circle fill="none" stroke="#FFFFFF" stroke-width="1.5" stroke-miterlimit="10" cx="39.312" cy="15.434" r="2.005"/>
	<circle fill="none" stroke="#FFFFFF" stroke-width="1.5" stroke-miterlimit="10" cx="47.806" cy="20.677" r="1.708"/>
	<circle fill="none" stroke="#FFFFFF" stroke-width="1.5" stroke-miterlimit="10" cx="37.38" cy="43.569" r="1.024"/>
	<circle fill="none" stroke="#FFFFFF" stroke-width="1.5" stroke-miterlimit="10" cx="45.643" cy="40.905" r="0.456"/>
	<circle fill="none" stroke="#FFFFFF" stroke-width="1.5" stroke-miterlimit="10" cx="22.887" cy="21.99" r="0.793"/>
	<circle fill="none" stroke="#FFFFFF" stroke-width="1.5" stroke-miterlimit="10" cx="22.887" cy="39.881" r="0.793"/>
	<circle fill="none" stroke="#FFFFFF" stroke-width="1.5" stroke-miterlimit="10" cx="43.991" cy="25.108" r="0.521"/>
	<circle fill="none" stroke="#FFFFFF" stroke-width="1.5" stroke-miterlimit="10" cx="52.315" cy="28.788" r="0.521"/>
</g>
</svg>
