<?xml version="1.0" encoding="utf-8"?>
<!-- Generator: Adobe Illustrator 16.0.0, SVG Export Plug-In . SVG Version: 6.00 Build 0)  -->
<!DOCTYPE svg PUBLIC "-//W3C//DTD SVG 1.1//EN" "http://www.w3.org/Graphics/SVG/1.1/DTD/svg11.dtd">
<svg version="1.1" id="Layer_1" xmlns="http://www.w3.org/2000/svg" xmlns:xlink="http://www.w3.org/1999/xlink" x="0px" y="0px"
	 width="612px" height="336.03px" viewBox="0 0 612 336.03" enable-background="new 0 0 612 336.03" xml:space="preserve">
<g>
	
		<ellipse fill="none" stroke="#B9A87D" stroke-width="0.6641" stroke-miterlimit="10" cx="80.868" cy="158.222" rx="49.616" ry="49.564"/>
	
		<ellipse fill="none" stroke="#B9A87D" stroke-width="0.6641" stroke-miterlimit="10" cx="100.87" cy="170.288" rx="12.256" ry="12.243"/>
	
		<ellipse fill="none" stroke="#B9A87D" stroke-width="0.6641" stroke-miterlimit="10" cx="72.55" cy="147.155" rx="18.13" ry="18.11"/>
	
		<ellipse fill="none" stroke="#B9A87D" stroke-width="0.6641" stroke-miterlimit="10" cx="67.331" cy="181.941" rx="8.607" ry="8.598"/>
	
		<ellipse fill="none" stroke="#B9A87D" stroke-width="0.6641" stroke-miterlimit="10" cx="46.685" cy="166.043" rx="5.253" ry="5.248"/>
	
		<ellipse fill="none" stroke="#B9A87D" stroke-width="0.6641" stroke-miterlimit="10" cx="88.614" cy="123.061" rx="5.253" ry="5.248"/>
	<circle fill="none" stroke="#B9A87D" stroke-width="0.6641" stroke-miterlimit="10" cx="110.863" cy="136.798" r="4.473"/>
	<circle fill="none" stroke="#B9A87D" stroke-width="0.6641" stroke-miterlimit="10" cx="83.552" cy="196.766" r="2.684"/>
	<circle fill="none" stroke="#B9A87D" stroke-width="0.6641" stroke-miterlimit="10" cx="105.197" cy="189.788" r="1.194"/>
	<circle fill="none" stroke="#B9A87D" stroke-width="0.6641" stroke-miterlimit="10" cx="45.584" cy="140.237" r="2.076"/>
	<circle fill="none" stroke="#B9A87D" stroke-width="0.6641" stroke-miterlimit="10" cx="45.584" cy="187.107" r="2.076"/>
	<circle fill="none" stroke="#B9A87D" stroke-width="0.6641" stroke-miterlimit="10" cx="100.87" cy="148.406" r="1.366"/>
	<circle fill="none" stroke="#B9A87D" stroke-width="0.6641" stroke-miterlimit="10" cx="122.677" cy="158.044" r="1.366"/>
</g>
<g>
	
		<ellipse fill="none" stroke="#B9A87D" stroke-width="0.6641" stroke-miterlimit="10" cx="208.26" cy="228.712" rx="49.616" ry="49.564"/>
	
		<ellipse fill="none" stroke="#B9A87D" stroke-width="0.6641" stroke-miterlimit="10" cx="228.261" cy="240.778" rx="12.256" ry="12.243"/>
	
		<ellipse fill="none" stroke="#B9A87D" stroke-width="0.6641" stroke-miterlimit="10" cx="199.942" cy="217.646" rx="18.13" ry="18.11"/>
	
		<ellipse fill="none" stroke="#B9A87D" stroke-width="0.6641" stroke-miterlimit="10" cx="194.722" cy="252.431" rx="8.607" ry="8.598"/>
	
		<ellipse fill="none" stroke="#B9A87D" stroke-width="0.6641" stroke-miterlimit="10" cx="216.005" cy="193.551" rx="5.253" ry="5.248"/>
	<circle fill="none" stroke="#B9A87D" stroke-width="0.6641" stroke-miterlimit="10" cx="238.255" cy="207.289" r="4.473"/>
	<circle fill="none" stroke="#B9A87D" stroke-width="0.6641" stroke-miterlimit="10" cx="210.943" cy="267.256" r="2.684"/>
	<circle fill="none" stroke="#B9A87D" stroke-width="0.6641" stroke-miterlimit="10" cx="232.588" cy="260.278" r="1.194"/>
	<circle fill="none" stroke="#B9A87D" stroke-width="0.6641" stroke-miterlimit="10" cx="228.262" cy="218.896" r="1.366"/>
	<circle fill="none" stroke="#B9A87D" stroke-width="0.6641" stroke-miterlimit="10" cx="250.068" cy="228.535" r="1.366"/>
</g>
<g>
	
		<ellipse fill="none" stroke="#B9A87D" stroke-width="0.6641" stroke-miterlimit="10" cx="357.769" cy="61.463" rx="49.616" ry="49.564"/>
	
		<ellipse fill="none" stroke="#B9A87D" stroke-width="0.6641" stroke-miterlimit="10" cx="377.77" cy="73.529" rx="12.256" ry="12.243"/>
	
		<ellipse fill="none" stroke="#B9A87D" stroke-width="0.6641" stroke-miterlimit="10" cx="349.45" cy="50.397" rx="18.13" ry="18.11"/>
	
		<ellipse fill="none" stroke="#B9A87D" stroke-width="0.6641" stroke-miterlimit="10" cx="344.23" cy="85.183" rx="8.607" ry="8.598"/>
	
		<ellipse fill="none" stroke="#B9A87D" stroke-width="0.6641" stroke-miterlimit="10" cx="365.514" cy="26.303" rx="5.254" ry="5.248"/>
	<circle fill="none" stroke="#B9A87D" stroke-width="0.6641" stroke-miterlimit="10" cx="387.764" cy="40.04" r="4.473"/>
	<circle fill="none" stroke="#B9A87D" stroke-width="0.6641" stroke-miterlimit="10" cx="360.451" cy="100.008" r="2.684"/>
	<circle fill="none" stroke="#B9A87D" stroke-width="0.6641" stroke-miterlimit="10" cx="382.097" cy="93.029" r="1.194"/>
	<circle fill="none" stroke="#B9A87D" stroke-width="0.6641" stroke-miterlimit="10" cx="377.771" cy="51.647" r="1.366"/>
	<circle fill="none" stroke="#B9A87D" stroke-width="0.6641" stroke-miterlimit="10" cx="399.577" cy="61.286" r="1.366"/>
</g>
<g>
	
		<ellipse fill="none" stroke="#B9A87D" stroke-width="0.6641" stroke-miterlimit="10" cx="519.419" cy="215.75" rx="49.616" ry="49.564"/>
	
		<ellipse fill="none" stroke="#B9A87D" stroke-width="0.6641" stroke-miterlimit="10" cx="539.42" cy="227.816" rx="12.256" ry="12.242"/>
	
		<ellipse fill="none" stroke="#B9A87D" stroke-width="0.6641" stroke-miterlimit="10" cx="511.101" cy="204.683" rx="18.13" ry="18.11"/>
	
		<ellipse fill="none" stroke="#B9A87D" stroke-width="0.6641" stroke-miterlimit="10" cx="505.881" cy="239.468" rx="8.607" ry="8.598"/>
	
		<ellipse fill="none" stroke="#B9A87D" stroke-width="0.6641" stroke-miterlimit="10" cx="527.164" cy="180.589" rx="5.254" ry="5.248"/>
	<circle fill="none" stroke="#B9A87D" stroke-width="0.6641" stroke-miterlimit="10" cx="549.414" cy="194.326" r="4.473"/>
	<circle fill="none" stroke="#B9A87D" stroke-width="0.6641" stroke-miterlimit="10" cx="522.102" cy="254.294" r="2.684"/>
	<circle fill="none" stroke="#B9A87D" stroke-width="0.6641" stroke-miterlimit="10" cx="543.747" cy="247.316" r="1.194"/>
	<circle fill="none" stroke="#B9A87D" stroke-width="0.6641" stroke-miterlimit="10" cx="539.421" cy="205.934" r="1.366"/>
	<circle fill="none" stroke="#B9A87D" stroke-width="0.6641" stroke-miterlimit="10" cx="561.228" cy="215.572" r="1.366"/>
</g>
<g>
	
		<ellipse fill="none" stroke="#B9A87D" stroke-width="0.6641" stroke-miterlimit="10" cx="77.912" cy="278.275" rx="18.939" ry="18.92"/>
	
		<ellipse fill="none" stroke="#B9A87D" stroke-width="0.6641" stroke-miterlimit="10" cx="85.547" cy="282.882" rx="4.678" ry="4.673"/>
	
		<ellipse fill="none" stroke="#B9A87D" stroke-width="0.6641" stroke-miterlimit="10" cx="74.737" cy="274.052" rx="6.921" ry="6.912"/>
	<circle fill="none" stroke="#B9A87D" stroke-width="0.6641" stroke-miterlimit="10" cx="72.744" cy="287.329" r="3.286"/>
	<circle fill="none" stroke="#B9A87D" stroke-width="0.6641" stroke-miterlimit="10" cx="64.863" cy="281.261" r="2.005"/>
	<circle fill="none" stroke="#B9A87D" stroke-width="0.6641" stroke-miterlimit="10" cx="80.868" cy="264.854" r="2.005"/>
	<circle fill="none" stroke="#B9A87D" stroke-width="0.6641" stroke-miterlimit="10" cx="89.362" cy="270.098" r="1.707"/>
	<circle fill="none" stroke="#B9A87D" stroke-width="0.6641" stroke-miterlimit="10" cx="78.936" cy="292.989" r="1.024"/>
	<circle fill="none" stroke="#B9A87D" stroke-width="0.6641" stroke-miterlimit="10" cx="87.198" cy="290.325" r="0.456"/>
	<circle fill="none" stroke="#B9A87D" stroke-width="0.6641" stroke-miterlimit="10" cx="64.443" cy="271.41" r="0.793"/>
	<circle fill="none" stroke="#B9A87D" stroke-width="0.6641" stroke-miterlimit="10" cx="64.443" cy="289.302" r="0.793"/>
	<circle fill="none" stroke="#B9A87D" stroke-width="0.6641" stroke-miterlimit="10" cx="85.547" cy="274.528" r="0.521"/>
	<circle fill="none" stroke="#B9A87D" stroke-width="0.6641" stroke-miterlimit="10" cx="93.871" cy="278.208" r="0.521"/>
</g>
<g>
	
		<ellipse fill="none" stroke="#B9A87D" stroke-width="0.6641" stroke-miterlimit="10" cx="203.33" cy="85.462" rx="18.939" ry="18.92"/>
	
		<ellipse fill="none" stroke="#B9A87D" stroke-width="0.6641" stroke-miterlimit="10" cx="210.965" cy="90.069" rx="4.678" ry="4.673"/>
	
		<ellipse fill="none" stroke="#B9A87D" stroke-width="0.6641" stroke-miterlimit="10" cx="200.155" cy="81.239" rx="6.921" ry="6.912"/>
	<circle fill="none" stroke="#B9A87D" stroke-width="0.6641" stroke-miterlimit="10" cx="198.162" cy="94.516" r="3.286"/>
	<circle fill="none" stroke="#B9A87D" stroke-width="0.6641" stroke-miterlimit="10" cx="190.281" cy="88.448" r="2.005"/>
	<circle fill="none" stroke="#B9A87D" stroke-width="0.6641" stroke-miterlimit="10" cx="206.286" cy="72.042" r="2.005"/>
	<circle fill="none" stroke="#B9A87D" stroke-width="0.6641" stroke-miterlimit="10" cx="214.78" cy="77.285" r="1.707"/>
	<circle fill="none" stroke="#B9A87D" stroke-width="0.6641" stroke-miterlimit="10" cx="204.354" cy="100.176" r="1.024"/>
	<circle fill="none" stroke="#B9A87D" stroke-width="0.6641" stroke-miterlimit="10" cx="212.616" cy="97.512" r="0.456"/>
	<circle fill="none" stroke="#B9A87D" stroke-width="0.6641" stroke-miterlimit="10" cx="189.861" cy="78.597" r="0.793"/>
	<circle fill="none" stroke="#B9A87D" stroke-width="0.6641" stroke-miterlimit="10" cx="189.861" cy="96.489" r="0.793"/>
	<circle fill="none" stroke="#B9A87D" stroke-width="0.6641" stroke-miterlimit="10" cx="210.965" cy="81.715" r="0.521"/>
	<circle fill="none" stroke="#B9A87D" stroke-width="0.6641" stroke-miterlimit="10" cx="219.289" cy="85.395" r="0.521"/>
</g>
<g>
	
		<ellipse fill="none" stroke="#B9A87D" stroke-width="0.6641" stroke-miterlimit="10" cx="366.139" cy="241.882" rx="18.939" ry="18.92"/>
	
		<ellipse fill="none" stroke="#B9A87D" stroke-width="0.6641" stroke-miterlimit="10" cx="373.774" cy="246.489" rx="4.678" ry="4.673"/>
	
		<ellipse fill="none" stroke="#B9A87D" stroke-width="0.6641" stroke-miterlimit="10" cx="362.964" cy="237.659" rx="6.921" ry="6.912"/>
	<circle fill="none" stroke="#B9A87D" stroke-width="0.6641" stroke-miterlimit="10" cx="360.971" cy="250.936" r="3.286"/>
	<circle fill="none" stroke="#B9A87D" stroke-width="0.6641" stroke-miterlimit="10" cx="353.09" cy="244.868" r="2.005"/>
	<circle fill="none" stroke="#B9A87D" stroke-width="0.6641" stroke-miterlimit="10" cx="369.095" cy="228.461" r="2.005"/>
	<circle fill="none" stroke="#B9A87D" stroke-width="0.6641" stroke-miterlimit="10" cx="377.588" cy="233.705" r="1.708"/>
	<circle fill="none" stroke="#B9A87D" stroke-width="0.6641" stroke-miterlimit="10" cx="367.163" cy="256.596" r="1.024"/>
	<circle fill="none" stroke="#B9A87D" stroke-width="0.6641" stroke-miterlimit="10" cx="375.425" cy="253.932" r="0.456"/>
	<circle fill="none" stroke="#B9A87D" stroke-width="0.6641" stroke-miterlimit="10" cx="352.67" cy="235.017" r="0.793"/>
	<circle fill="none" stroke="#B9A87D" stroke-width="0.6641" stroke-miterlimit="10" cx="352.67" cy="252.909" r="0.793"/>
	<circle fill="none" stroke="#B9A87D" stroke-width="0.6641" stroke-miterlimit="10" cx="373.773" cy="238.135" r="0.521"/>
	<circle fill="none" stroke="#B9A87D" stroke-width="0.6641" stroke-miterlimit="10" cx="382.098" cy="241.815" r="0.521"/>
</g>
<g>
	
		<ellipse fill="none" stroke="#B9A87D" stroke-width="0.6641" stroke-miterlimit="10" cx="426.324" cy="159.409" rx="18.939" ry="18.92"/>
	
		<ellipse fill="none" stroke="#B9A87D" stroke-width="0.6641" stroke-miterlimit="10" cx="433.959" cy="164.016" rx="4.678" ry="4.673"/>
	
		<ellipse fill="none" stroke="#B9A87D" stroke-width="0.6641" stroke-miterlimit="10" cx="423.149" cy="155.186" rx="6.921" ry="6.912"/>
	<circle fill="none" stroke="#B9A87D" stroke-width="0.6641" stroke-miterlimit="10" cx="421.157" cy="168.463" r="3.286"/>
	<circle fill="none" stroke="#B9A87D" stroke-width="0.6641" stroke-miterlimit="10" cx="413.276" cy="162.395" r="2.005"/>
	<circle fill="none" stroke="#B9A87D" stroke-width="0.6641" stroke-miterlimit="10" cx="429.281" cy="145.988" r="2.005"/>
	<circle fill="none" stroke="#B9A87D" stroke-width="0.6641" stroke-miterlimit="10" cx="437.774" cy="151.231" r="1.708"/>
	<circle fill="none" stroke="#B9A87D" stroke-width="0.6641" stroke-miterlimit="10" cx="427.349" cy="174.123" r="1.024"/>
	<circle fill="none" stroke="#B9A87D" stroke-width="0.6641" stroke-miterlimit="10" cx="435.611" cy="171.459" r="0.456"/>
	<circle fill="none" stroke="#B9A87D" stroke-width="0.6641" stroke-miterlimit="10" cx="412.855" cy="152.544" r="0.793"/>
	<circle fill="none" stroke="#B9A87D" stroke-width="0.6641" stroke-miterlimit="10" cx="412.855" cy="170.436" r="0.793"/>
	<circle fill="none" stroke="#B9A87D" stroke-width="0.6641" stroke-miterlimit="10" cx="433.959" cy="155.662" r="0.521"/>
	<circle fill="none" stroke="#B9A87D" stroke-width="0.6641" stroke-miterlimit="10" cx="442.283" cy="159.342" r="0.521"/>
</g>
<g>
	
		<ellipse fill="none" stroke="#B9A87D" stroke-width="0.6641" stroke-miterlimit="10" cx="553.063" cy="116.962" rx="18.939" ry="18.92"/>
	
		<ellipse fill="none" stroke="#B9A87D" stroke-width="0.6641" stroke-miterlimit="10" cx="560.699" cy="121.569" rx="4.678" ry="4.673"/>
	
		<ellipse fill="none" stroke="#B9A87D" stroke-width="0.6641" stroke-miterlimit="10" cx="549.889" cy="112.739" rx="6.921" ry="6.912"/>
	<circle fill="none" stroke="#B9A87D" stroke-width="0.6641" stroke-miterlimit="10" cx="547.896" cy="126.016" r="3.286"/>
	<circle fill="none" stroke="#B9A87D" stroke-width="0.6641" stroke-miterlimit="10" cx="540.015" cy="119.948" r="2.005"/>
	<circle fill="none" stroke="#B9A87D" stroke-width="0.6641" stroke-miterlimit="10" cx="556.02" cy="103.542" r="2.005"/>
	<circle fill="none" stroke="#B9A87D" stroke-width="0.6641" stroke-miterlimit="10" cx="564.513" cy="108.785" r="1.708"/>
	<circle fill="none" stroke="#B9A87D" stroke-width="0.6641" stroke-miterlimit="10" cx="554.088" cy="131.676" r="1.024"/>
	<circle fill="none" stroke="#B9A87D" stroke-width="0.6641" stroke-miterlimit="10" cx="562.35" cy="129.012" r="0.456"/>
	<circle fill="none" stroke="#B9A87D" stroke-width="0.6641" stroke-miterlimit="10" cx="539.595" cy="110.097" r="0.793"/>
	<circle fill="none" stroke="#B9A87D" stroke-width="0.6641" stroke-miterlimit="10" cx="539.595" cy="127.989" r="0.793"/>
	<circle fill="none" stroke="#B9A87D" stroke-width="0.6641" stroke-miterlimit="10" cx="560.698" cy="113.215" r="0.521"/>
	<circle fill="none" stroke="#B9A87D" stroke-width="0.6641" stroke-miterlimit="10" cx="569.022" cy="116.895" r="0.521"/>
</g>
<g>
	
		<ellipse fill="none" stroke="#B9A87D" stroke-width="0.6641" stroke-miterlimit="10" cx="588.484" cy="307.62" rx="18.939" ry="18.92"/>
	
		<ellipse fill="none" stroke="#B9A87D" stroke-width="0.6641" stroke-miterlimit="10" cx="596.12" cy="312.226" rx="4.678" ry="4.673"/>
	
		<ellipse fill="none" stroke="#B9A87D" stroke-width="0.6641" stroke-miterlimit="10" cx="585.31" cy="303.396" rx="6.921" ry="6.912"/>
	<circle fill="none" stroke="#B9A87D" stroke-width="0.6641" stroke-miterlimit="10" cx="583.317" cy="316.673" r="3.286"/>
	<circle fill="none" stroke="#B9A87D" stroke-width="0.6641" stroke-miterlimit="10" cx="575.436" cy="310.605" r="2.005"/>
	<circle fill="none" stroke="#B9A87D" stroke-width="0.6641" stroke-miterlimit="10" cx="591.441" cy="294.199" r="2.005"/>
	<circle fill="none" stroke="#B9A87D" stroke-width="0.6641" stroke-miterlimit="10" cx="599.934" cy="299.442" r="1.708"/>
	<circle fill="none" stroke="#B9A87D" stroke-width="0.6641" stroke-miterlimit="10" cx="589.509" cy="322.333" r="1.024"/>
	<circle fill="none" stroke="#B9A87D" stroke-width="0.6641" stroke-miterlimit="10" cx="597.771" cy="319.669" r="0.456"/>
	<circle fill="none" stroke="#B9A87D" stroke-width="0.6641" stroke-miterlimit="10" cx="575.016" cy="300.754" r="0.793"/>
	<circle fill="none" stroke="#B9A87D" stroke-width="0.6641" stroke-miterlimit="10" cx="575.016" cy="318.646" r="0.793"/>
	<circle fill="none" stroke="#B9A87D" stroke-width="0.6641" stroke-miterlimit="10" cx="596.119" cy="303.873" r="0.521"/>
	<circle fill="none" stroke="#B9A87D" stroke-width="0.6641" stroke-miterlimit="10" cx="604.443" cy="307.552" r="0.521"/>
</g>
<g>
	
		<ellipse fill="none" stroke="#B9A87D" stroke-width="0.6641" stroke-miterlimit="10" cx="36.356" cy="28.855" rx="18.939" ry="18.92"/>
	
		<ellipse fill="none" stroke="#B9A87D" stroke-width="0.6641" stroke-miterlimit="10" cx="43.991" cy="33.461" rx="4.678" ry="4.673"/>
	
		<ellipse fill="none" stroke="#B9A87D" stroke-width="0.6641" stroke-miterlimit="10" cx="33.181" cy="24.631" rx="6.921" ry="6.912"/>
	<circle fill="none" stroke="#B9A87D" stroke-width="0.6641" stroke-miterlimit="10" cx="31.188" cy="37.909" r="3.286"/>
	<circle fill="none" stroke="#B9A87D" stroke-width="0.6641" stroke-miterlimit="10" cx="23.308" cy="31.84" r="2.005"/>
	<circle fill="none" stroke="#B9A87D" stroke-width="0.6641" stroke-miterlimit="10" cx="39.312" cy="15.434" r="2.005"/>
	<circle fill="none" stroke="#B9A87D" stroke-width="0.6641" stroke-miterlimit="10" cx="47.806" cy="20.677" r="1.708"/>
	<circle fill="none" stroke="#B9A87D" stroke-width="0.6641" stroke-miterlimit="10" cx="37.38" cy="43.569" r="1.024"/>
	<circle fill="none" stroke="#B9A87D" stroke-width="0.6641" stroke-miterlimit="10" cx="45.643" cy="40.905" r="0.456"/>
	<circle fill="none" stroke="#B9A87D" stroke-width="0.6641" stroke-miterlimit="10" cx="22.887" cy="21.99" r="0.793"/>
	<circle fill="none" stroke="#B9A87D" stroke-width="0.6641" stroke-miterlimit="10" cx="22.887" cy="39.881" r="0.793"/>
	<circle fill="none" stroke="#B9A87D" stroke-width="0.6641" stroke-miterlimit="10" cx="43.991" cy="25.108" r="0.521"/>
	<circle fill="none" stroke="#B9A87D" stroke-width="0.6641" stroke-miterlimit="10" cx="52.315" cy="28.788" r="0.521"/>
</g>
</svg>
