<?xml version="1.0" encoding="utf-8"?>
<!-- Generator: Adobe Illustrator 16.0.0, SVG Export Plug-In . SVG Version: 6.00 Build 0)  -->
<!DOCTYPE svg PUBLIC "-//W3C//DTD SVG 1.1//EN" "http://www.w3.org/Graphics/SVG/1.1/DTD/svg11.dtd">
<svg version="1.1" id="Layer_1" xmlns="http://www.w3.org/2000/svg" xmlns:xlink="http://www.w3.org/1999/xlink" x="0px" y="0px"
	 width="2890.478px" height="199.143px" viewBox="0 0 2890.478 199.143" enable-background="new 0 0 2890.478 199.143"
	 xml:space="preserve">
<rect x="2547.773" y="80.239" fill="none" stroke="#B8A77D" stroke-width="2.2333" stroke-miterlimit="10" width="329.043" height="19.999"/>
<rect x="2841.083" y="100.239" fill="none" stroke="#B8A77D" stroke-width="2.2333" stroke-miterlimit="10" width="11.909" height="88.836"/>
<rect x="2570.108" y="100.239" fill="none" stroke="#B8A77D" stroke-width="2.2333" stroke-miterlimit="10" width="11.909" height="88.836"/>
<g>
	<g id="XMLID_2_">
		<g>
			<path fill="#4C2F83" d="M2611.915,62.708l7.757,14.323h-17.822h-19.832l7.78-14.374h0.007l0.238,0.134h10.467
				c0.469,0.685,1.258,1.132,2.152,1.132c0.893,0,1.682-0.447,2.158-1.132h6.953L2611.915,62.708z M2598.954,66.616
				c0-0.811-0.655-1.465-1.466-1.465c-0.812,0-1.468,0.654-1.468,1.465c0,0.812,0.655,1.467,1.468,1.467
				C2598.299,68.083,2598.954,67.428,2598.954,66.616z"/>
			<path fill="#FFFFFF" d="M2605.281,61.309c0,0.551-0.17,1.064-0.461,1.481h-4.311c-0.29-0.417-0.461-0.931-0.461-1.481
				c0-1.444,1.168-2.613,2.613-2.613C2604.105,58.696,2605.281,59.865,2605.281,61.309z"/>
			<path fill="#FFFFFF" d="M2600.51,62.791h4.311c-0.477,0.685-1.266,1.132-2.158,1.132
				C2601.768,63.922,2600.979,63.475,2600.51,62.791z"/>
			<circle fill="#FFFFFF" cx="2600.576" cy="55.799" r="1.035"/>
			<path fill="#FFFFFF" d="M2597.488,65.151c0.811,0,1.466,0.654,1.466,1.465c0,0.812-0.655,1.467-1.466,1.467
				c-0.812,0-1.468-0.654-1.468-1.467C2596.021,65.805,2596.676,65.151,2597.488,65.151z"/>
		</g>
		<g>
			
				<line fill="none" stroke="#4D2F82" stroke-width="1.4889" stroke-linecap="round" stroke-linejoin="round" stroke-miterlimit="10" x1="2604.82" y1="62.791" x2="2611.773" y2="62.791"/>
			
				<line fill="none" stroke="#4D2F82" stroke-width="1.4889" stroke-linecap="round" stroke-linejoin="round" stroke-miterlimit="10" x1="2590.043" y1="62.791" x2="2600.51" y2="62.791"/>
			
				<polyline fill="none" stroke="#4D2F82" stroke-width="1.4889" stroke-linecap="round" stroke-linejoin="round" stroke-miterlimit="10" points="
				2607.917,33.519 2604.812,33.519 2604.812,49.591 2611.915,62.708 2619.672,77.031 2601.85,77.031 2582.018,77.031 
				2589.798,62.657 2589.805,62.657 2596.877,49.591 2596.877,33.519 2593.445,33.519 			"/>
			
				<circle fill="none" stroke="#4D2F82" stroke-width="0.7444" stroke-linecap="round" stroke-linejoin="round" stroke-miterlimit="10" cx="2597.487" cy="66.616" r="1.467"/>
			
				<path fill="#FFFFFF" stroke="#4D2F82" stroke-width="0.7444" stroke-linecap="round" stroke-linejoin="round" stroke-miterlimit="10" d="
				M2600.51,62.791c-0.29-0.417-0.461-0.931-0.461-1.481c0-1.444,1.168-2.613,2.613-2.613c1.443,0,2.619,1.169,2.619,2.613
				c0,0.551-0.17,1.064-0.461,1.481c-0.477,0.685-1.266,1.132-2.158,1.132C2601.768,63.922,2600.979,63.475,2600.51,62.791z"/>
			
				<path fill="none" stroke="#4D2F82" stroke-width="0.7444" stroke-linecap="round" stroke-linejoin="round" stroke-miterlimit="10" d="
				M2601.611,55.799c0,0.573-0.461,1.035-1.035,1.035c-0.572,0-1.034-0.462-1.034-1.035c0-0.572,0.462-1.035,1.034-1.035
				C2601.15,54.764,2601.611,55.227,2601.611,55.799z"/>
		</g>
	</g>
</g>
<rect x="2739.6" y="56.417" fill="none" stroke="#4C2F83" stroke-width="1.4889" stroke-miterlimit="10" width="97.894" height="3.991"/>
<rect x="2837.491" y="43.786" fill="none" stroke="#4C2F83" stroke-width="1.4889" stroke-miterlimit="10" width="4.716" height="33.246"/>
<rect x="2734.885" y="43.786" fill="none" stroke="#4C2F83" stroke-width="1.4889" stroke-miterlimit="10" width="4.715" height="33.246"/>
<g>
	<rect x="2751.479" y="47.417" fill="#FFFFFF" width="5.027" height="10.598"/>
	<g id="XMLID_1_">
		<g>
			<path fill="#4D2F82" d="M2756.68,58.014v13.345c0,0-0.15,2.604-2.565,2.604c-2.607,0-2.636-2.604-2.636-2.604V58.014h0.188h1.708
				c0,0.649,0.522,1.172,1.168,1.172c0.649,0,1.172-0.522,1.172-1.172h0.791H2756.68z M2754.265,61.855
				c0-0.513-0.413-0.928-0.927-0.928s-0.932,0.415-0.932,0.928s0.418,0.927,0.932,0.927S2754.265,62.368,2754.265,61.855z"/>
			<circle fill="#FFFFFF" cx="2753.338" cy="61.854" r="0.927"/>
			<path fill="#FFFFFF" d="M2753.837,53.127c0.361,0,0.654,0.297,0.654,0.654c0,0.363-0.293,0.654-0.654,0.654
				c-0.362,0-0.654-0.291-0.654-0.654C2753.183,53.424,2753.475,53.127,2753.837,53.127z"/>
		</g>
		<g>
			
				<path fill="none" stroke="#4D2F82" stroke-width="1.4889" stroke-linecap="round" stroke-linejoin="round" stroke-miterlimit="10" d="
				M2749.355,46.217h2.123v11.797v13.345c0,0,0.028,2.604,2.636,2.604c2.415,0,2.565-2.604,2.565-2.604V58.014V46.217h1.638"/>
			
				<line fill="none" stroke="#4D2F82" stroke-width="1.4889" stroke-linecap="round" stroke-linejoin="round" stroke-miterlimit="10" x1="2755.715" y1="58.014" x2="2756.506" y2="58.014"/>
			
				<line fill="none" stroke="#4D2F82" stroke-width="1.4889" stroke-linecap="round" stroke-linejoin="round" stroke-miterlimit="10" x1="2751.667" y1="58.014" x2="2753.375" y2="58.014"/>
			
				<circle fill="none" stroke="#4D2F82" stroke-width="0.7444" stroke-linecap="round" stroke-linejoin="round" stroke-miterlimit="10" cx="2753.335" cy="61.855" r="0.929"/>
			
				<path fill="none" stroke="#4D2F82" stroke-width="0.7444" stroke-linecap="round" stroke-linejoin="round" stroke-miterlimit="10" d="
				M2754.491,53.782c0,0.363-0.293,0.654-0.654,0.654c-0.362,0-0.654-0.291-0.654-0.654c0-0.357,0.292-0.654,0.654-0.654
				C2754.198,53.127,2754.491,53.424,2754.491,53.782z"/>
			
				<path fill="#FFFFFF" stroke="#4D2F82" stroke-width="0.7444" stroke-linecap="round" stroke-linejoin="round" stroke-miterlimit="10" d="
				M2755.715,58.014c0,0.649-0.522,1.172-1.172,1.172c-0.646,0-1.168-0.522-1.168-1.172c0-0.645,0.522-1.168,1.168-1.168
				C2755.192,56.846,2755.715,57.37,2755.715,58.014z"/>
		</g>
	</g>
</g>
<g>
	<rect x="2765.362" y="47.417" fill="#FFFFFF" width="5.027" height="10.598"/>
	<g id="XMLID_3_">
		<g>
			<path fill="#4D2F82" d="M2770.564,58.014v13.345c0,0-0.151,2.604-2.566,2.604c-2.607,0-2.636-2.604-2.636-2.604V58.014h0.188
				h1.708c0,0.649,0.523,1.172,1.168,1.172c0.649,0,1.173-0.522,1.173-1.172h0.79H2770.564z M2768.148,61.855
				c0-0.513-0.413-0.928-0.927-0.928c-0.513,0-0.932,0.415-0.932,0.928s0.419,0.927,0.932,0.927
				C2767.735,62.782,2768.148,62.368,2768.148,61.855z"/>
			<circle fill="#FFFFFF" cx="2767.222" cy="61.854" r="0.927"/>
			<path fill="#FFFFFF" d="M2767.721,53.127c0.362,0,0.654,0.297,0.654,0.654c0,0.363-0.292,0.654-0.654,0.654
				s-0.654-0.291-0.654-0.654C2767.066,53.424,2767.358,53.127,2767.721,53.127z"/>
		</g>
		<g>
			
				<path fill="none" stroke="#4D2F82" stroke-width="1.4889" stroke-linecap="round" stroke-linejoin="round" stroke-miterlimit="10" d="
				M2763.239,46.217h2.123v11.797v13.345c0,0,0.028,2.604,2.636,2.604c2.415,0,2.566-2.604,2.566-2.604V58.014V46.217h1.638"/>
			
				<line fill="none" stroke="#4D2F82" stroke-width="1.4889" stroke-linecap="round" stroke-linejoin="round" stroke-miterlimit="10" x1="2769.6" y1="58.014" x2="2770.39" y2="58.014"/>
			
				<line fill="none" stroke="#4D2F82" stroke-width="1.4889" stroke-linecap="round" stroke-linejoin="round" stroke-miterlimit="10" x1="2765.551" y1="58.014" x2="2767.259" y2="58.014"/>
			
				<circle fill="none" stroke="#4D2F82" stroke-width="0.7444" stroke-linecap="round" stroke-linejoin="round" stroke-miterlimit="10" cx="2767.219" cy="61.855" r="0.929"/>
			
				<path fill="none" stroke="#4D2F82" stroke-width="0.7444" stroke-linecap="round" stroke-linejoin="round" stroke-miterlimit="10" d="
				M2768.375,53.782c0,0.363-0.292,0.654-0.654,0.654s-0.654-0.291-0.654-0.654c0-0.357,0.292-0.654,0.654-0.654
				S2768.375,53.424,2768.375,53.782z"/>
			
				<path fill="#FFFFFF" stroke="#4D2F82" stroke-width="0.7444" stroke-linecap="round" stroke-linejoin="round" stroke-miterlimit="10" d="
				M2769.6,58.014c0,0.649-0.523,1.172-1.173,1.172c-0.645,0-1.168-0.522-1.168-1.172c0-0.645,0.523-1.168,1.168-1.168
				C2769.076,56.846,2769.6,57.37,2769.6,58.014z"/>
		</g>
	</g>
</g>
<g>
	<rect x="2779.246" y="47.417" fill="#FFFFFF" width="5.027" height="10.598"/>
	<g id="XMLID_4_">
		<g>
			<path fill="#4D2F82" d="M2784.448,58.014v13.345c0,0-0.15,2.604-2.565,2.604c-2.608,0-2.637-2.604-2.637-2.604V58.014h0.188
				h1.709c0,0.649,0.522,1.172,1.167,1.172c0.65,0,1.173-0.522,1.173-1.172h0.79H2784.448z M2782.033,61.855
				c0-0.513-0.414-0.928-0.927-0.928c-0.514,0-0.933,0.415-0.933,0.928s0.419,0.927,0.933,0.927
				C2781.619,62.782,2782.033,62.368,2782.033,61.855z"/>
			<circle fill="#FFFFFF" cx="2781.106" cy="61.854" r="0.927"/>
			<path fill="#FFFFFF" d="M2781.604,53.127c0.362,0,0.654,0.297,0.654,0.654c0,0.363-0.292,0.654-0.654,0.654
				c-0.361,0-0.654-0.291-0.654-0.654C2780.95,53.424,2781.243,53.127,2781.604,53.127z"/>
		</g>
		<g>
			
				<path fill="none" stroke="#4D2F82" stroke-width="1.4889" stroke-linecap="round" stroke-linejoin="round" stroke-miterlimit="10" d="
				M2777.124,46.217h2.122v11.797v13.345c0,0,0.028,2.604,2.637,2.604c2.415,0,2.565-2.604,2.565-2.604V58.014V46.217h1.638"/>
			
				<line fill="none" stroke="#4D2F82" stroke-width="1.4889" stroke-linecap="round" stroke-linejoin="round" stroke-miterlimit="10" x1="2783.483" y1="58.014" x2="2784.273" y2="58.014"/>
			
				<line fill="none" stroke="#4D2F82" stroke-width="1.4889" stroke-linecap="round" stroke-linejoin="round" stroke-miterlimit="10" x1="2779.435" y1="58.014" x2="2781.144" y2="58.014"/>
			
				<circle fill="none" stroke="#4D2F82" stroke-width="0.7444" stroke-linecap="round" stroke-linejoin="round" stroke-miterlimit="10" cx="2781.104" cy="61.855" r="0.93"/>
			
				<path fill="none" stroke="#4D2F82" stroke-width="0.7444" stroke-linecap="round" stroke-linejoin="round" stroke-miterlimit="10" d="
				M2782.259,53.782c0,0.363-0.292,0.654-0.654,0.654c-0.361,0-0.654-0.291-0.654-0.654c0-0.357,0.293-0.654,0.654-0.654
				C2781.967,53.127,2782.259,53.424,2782.259,53.782z"/>
			
				<path fill="#FFFFFF" stroke="#4D2F82" stroke-width="0.7444" stroke-linecap="round" stroke-linejoin="round" stroke-miterlimit="10" d="
				M2783.483,58.014c0,0.649-0.522,1.172-1.173,1.172c-0.645,0-1.167-0.522-1.167-1.172c0-0.645,0.522-1.168,1.167-1.168
				C2782.961,56.846,2783.483,57.37,2783.483,58.014z"/>
		</g>
	</g>
</g>
<g>
	<rect x="2793.13" y="47.417" fill="#FFFFFF" width="5.027" height="10.598"/>
	<g id="XMLID_5_">
		<g>
			<path fill="#4D2F82" d="M2798.331,58.014v13.345c0,0-0.15,2.604-2.565,2.604c-2.607,0-2.636-2.604-2.636-2.604V58.014h0.188
				h1.708c0,0.649,0.522,1.172,1.168,1.172c0.649,0,1.173-0.522,1.173-1.172h0.79H2798.331z M2795.916,61.855
				c0-0.513-0.413-0.928-0.927-0.928c-0.513,0-0.932,0.415-0.932,0.928s0.419,0.927,0.932,0.927
				C2795.503,62.782,2795.916,62.368,2795.916,61.855z"/>
			<circle fill="#FFFFFF" cx="2794.989" cy="61.854" r="0.927"/>
			<path fill="#FFFFFF" d="M2795.488,53.127c0.362,0,0.654,0.297,0.654,0.654c0,0.363-0.292,0.654-0.654,0.654
				s-0.654-0.291-0.654-0.654C2794.834,53.424,2795.126,53.127,2795.488,53.127z"/>
		</g>
		<g>
			
				<path fill="none" stroke="#4D2F82" stroke-width="1.4889" stroke-linecap="round" stroke-linejoin="round" stroke-miterlimit="10" d="
				M2791.007,46.217h2.123v11.797v13.345c0,0,0.028,2.604,2.636,2.604c2.415,0,2.565-2.604,2.565-2.604V58.014V46.217h1.639"/>
			
				<line fill="none" stroke="#4D2F82" stroke-width="1.4889" stroke-linecap="round" stroke-linejoin="round" stroke-miterlimit="10" x1="2797.367" y1="58.014" x2="2798.157" y2="58.014"/>
			
				<line fill="none" stroke="#4D2F82" stroke-width="1.4889" stroke-linecap="round" stroke-linejoin="round" stroke-miterlimit="10" x1="2793.318" y1="58.014" x2="2795.026" y2="58.014"/>
			
				<circle fill="none" stroke="#4D2F82" stroke-width="0.7444" stroke-linecap="round" stroke-linejoin="round" stroke-miterlimit="10" cx="2794.987" cy="61.855" r="0.929"/>
			
				<path fill="none" stroke="#4D2F82" stroke-width="0.7444" stroke-linecap="round" stroke-linejoin="round" stroke-miterlimit="10" d="
				M2796.143,53.782c0,0.363-0.292,0.654-0.654,0.654s-0.654-0.291-0.654-0.654c0-0.357,0.292-0.654,0.654-0.654
				S2796.143,53.424,2796.143,53.782z"/>
			
				<path fill="#FFFFFF" stroke="#4D2F82" stroke-width="0.7444" stroke-linecap="round" stroke-linejoin="round" stroke-miterlimit="10" d="
				M2797.367,58.014c0,0.649-0.523,1.172-1.173,1.172c-0.646,0-1.168-0.522-1.168-1.172c0-0.645,0.522-1.168,1.168-1.168
				C2796.844,56.846,2797.367,57.37,2797.367,58.014z"/>
		</g>
	</g>
</g>
<g>
	<rect x="2807.014" y="47.417" fill="#FFFFFF" width="5.027" height="10.598"/>
	<g id="XMLID_6_">
		<g>
			<path fill="#4D2F82" d="M2812.216,58.014v13.345c0,0-0.15,2.604-2.565,2.604c-2.608,0-2.637-2.604-2.637-2.604V58.014h0.188
				h1.708c0,0.649,0.523,1.172,1.168,1.172c0.65,0,1.173-0.522,1.173-1.172h0.79H2812.216z M2809.801,61.855
				c0-0.513-0.414-0.928-0.928-0.928c-0.513,0-0.932,0.415-0.932,0.928s0.419,0.927,0.932,0.927
				C2809.387,62.782,2809.801,62.368,2809.801,61.855z"/>
			<circle fill="#FFFFFF" cx="2808.873" cy="61.854" r="0.927"/>
			<path fill="#FFFFFF" d="M2809.372,53.127c0.362,0,0.654,0.297,0.654,0.654c0,0.363-0.292,0.654-0.654,0.654
				s-0.654-0.291-0.654-0.654C2808.718,53.424,2809.01,53.127,2809.372,53.127z"/>
		</g>
		<g>
			
				<path fill="none" stroke="#4D2F82" stroke-width="1.4889" stroke-linecap="round" stroke-linejoin="round" stroke-miterlimit="10" d="
				M2804.891,46.217h2.123v11.797v13.345c0,0,0.028,2.604,2.637,2.604c2.415,0,2.565-2.604,2.565-2.604V58.014V46.217h1.638"/>
			
				<line fill="none" stroke="#4D2F82" stroke-width="1.4889" stroke-linecap="round" stroke-linejoin="round" stroke-miterlimit="10" x1="2811.251" y1="58.014" x2="2812.041" y2="58.014"/>
			
				<line fill="none" stroke="#4D2F82" stroke-width="1.4889" stroke-linecap="round" stroke-linejoin="round" stroke-miterlimit="10" x1="2807.202" y1="58.014" x2="2808.91" y2="58.014"/>
			
				<circle fill="none" stroke="#4D2F82" stroke-width="0.7444" stroke-linecap="round" stroke-linejoin="round" stroke-miterlimit="10" cx="2808.871" cy="61.855" r="0.93"/>
			
				<path fill="none" stroke="#4D2F82" stroke-width="0.7444" stroke-linecap="round" stroke-linejoin="round" stroke-miterlimit="10" d="
				M2810.026,53.782c0,0.363-0.292,0.654-0.654,0.654s-0.654-0.291-0.654-0.654c0-0.357,0.292-0.654,0.654-0.654
				S2810.026,53.424,2810.026,53.782z"/>
			
				<path fill="#FFFFFF" stroke="#4D2F82" stroke-width="0.7444" stroke-linecap="round" stroke-linejoin="round" stroke-miterlimit="10" d="
				M2811.251,58.014c0,0.649-0.522,1.172-1.173,1.172c-0.645,0-1.168-0.522-1.168-1.172c0-0.645,0.523-1.168,1.168-1.168
				C2810.729,56.846,2811.251,57.37,2811.251,58.014z"/>
		</g>
	</g>
</g>
<g>
	<rect x="2821.59" y="47.417" fill="#FFFFFF" width="5.026" height="10.598"/>
	<g id="XMLID_7_">
		<g>
			<path fill="#4D2F82" d="M2826.791,58.014v13.345c0,0-0.15,2.604-2.565,2.604c-2.608,0-2.636-2.604-2.636-2.604V58.014h0.188
				h1.709c0,0.649,0.522,1.172,1.167,1.172c0.65,0,1.173-0.522,1.173-1.172h0.79H2826.791z M2824.376,61.855
				c0-0.513-0.414-0.928-0.927-0.928c-0.514,0-0.933,0.415-0.933,0.928s0.419,0.927,0.933,0.927
				C2823.962,62.782,2824.376,62.368,2824.376,61.855z"/>
			<circle fill="#FFFFFF" cx="2823.449" cy="61.854" r="0.927"/>
			<path fill="#FFFFFF" d="M2823.947,53.127c0.362,0,0.654,0.297,0.654,0.654c0,0.363-0.292,0.654-0.654,0.654
				c-0.361,0-0.654-0.291-0.654-0.654C2823.293,53.424,2823.586,53.127,2823.947,53.127z"/>
		</g>
		<g>
			
				<path fill="none" stroke="#4D2F82" stroke-width="1.4889" stroke-linecap="round" stroke-linejoin="round" stroke-miterlimit="10" d="
				M2819.467,46.217h2.123v11.797v13.345c0,0,0.027,2.604,2.636,2.604c2.415,0,2.565-2.604,2.565-2.604V58.014V46.217h1.638"/>
			
				<line fill="none" stroke="#4D2F82" stroke-width="1.4889" stroke-linecap="round" stroke-linejoin="round" stroke-miterlimit="10" x1="2825.826" y1="58.014" x2="2826.616" y2="58.014"/>
			
				<line fill="none" stroke="#4D2F82" stroke-width="1.4889" stroke-linecap="round" stroke-linejoin="round" stroke-miterlimit="10" x1="2821.777" y1="58.014" x2="2823.486" y2="58.014"/>
			
				<circle fill="none" stroke="#4D2F82" stroke-width="0.7444" stroke-linecap="round" stroke-linejoin="round" stroke-miterlimit="10" cx="2823.446" cy="61.855" r="0.93"/>
			
				<path fill="none" stroke="#4D2F82" stroke-width="0.7444" stroke-linecap="round" stroke-linejoin="round" stroke-miterlimit="10" d="
				M2824.602,53.782c0,0.363-0.292,0.654-0.654,0.654c-0.361,0-0.654-0.291-0.654-0.654c0-0.357,0.293-0.654,0.654-0.654
				C2824.31,53.127,2824.602,53.424,2824.602,53.782z"/>
			
				<path fill="#FFFFFF" stroke="#4D2F82" stroke-width="0.7444" stroke-linecap="round" stroke-linejoin="round" stroke-miterlimit="10" d="
				M2825.826,58.014c0,0.649-0.522,1.172-1.173,1.172c-0.645,0-1.167-0.522-1.167-1.172c0-0.645,0.522-1.168,1.167-1.168
				C2825.304,56.846,2825.826,57.37,2825.826,58.014z"/>
		</g>
	</g>
</g>
<g>
	<g>
		<g id="XMLID_8_">
			<g>
				<path fill="#4D2F82" d="M2689.547,49.979c0.559,1.582,0.849,3.31,0.849,5.126c0,7.667-6.32,13.891-14.122,13.891
					c-7.794,0-14.122-6.224-14.122-13.891c0-1.846,0.305-3.603,0.894-5.214l0.365,0.117h25.259L2689.547,49.979z"/>
			</g>
			<g>
				
					<polyline fill="none" stroke="#4D2F82" stroke-width="1.4889" stroke-linecap="round" stroke-linejoin="round" stroke-miterlimit="10" points="
					2672.515,39.551 2672.515,24.722 2669.805,24.722 				"/>
				
					<polyline fill="none" stroke="#4D2F82" stroke-width="1.4889" stroke-linecap="round" stroke-linejoin="round" stroke-miterlimit="10" points="
					2680.659,39.551 2680.659,24.722 2682.75,24.722 				"/>
				
					<line fill="none" stroke="#4D2F82" stroke-width="1.4889" stroke-linecap="round" stroke-linejoin="round" stroke-miterlimit="10" x1="2680.659" y1="41.682" x2="2680.659" y2="39.551"/>
				
					<line fill="none" stroke="#4D2F82" stroke-width="1.4889" stroke-linecap="round" stroke-linejoin="round" stroke-miterlimit="10" x1="2672.515" y1="41.535" x2="2672.515" y2="39.551"/>
				
					<path fill="none" stroke="#4D2F82" stroke-width="1.4889" stroke-linecap="round" stroke-linejoin="round" stroke-miterlimit="10" d="
					M2672.515,41.535c-4.593,0.981-7.958,4.152-9.469,8.355c-0.588,1.611-0.894,3.368-0.894,5.214
					c0,7.667,6.328,13.891,14.122,13.891c7.802,0,14.122-6.224,14.122-13.891c0-1.816-0.29-3.544-0.849-5.126
					c-1.415-4.05-4.548-7.162-8.889-8.297"/>
				
					<line fill="none" stroke="#4D2F82" stroke-width="1.4889" stroke-linecap="round" stroke-linejoin="round" stroke-miterlimit="10" x1="2663.41" y1="50.008" x2="2688.669" y2="50.008"/>
			</g>
		</g>
		
			<circle fill="#FFFFFF" stroke="#FFFFFF" stroke-width="0.7444" stroke-linecap="round" stroke-linejoin="round" stroke-miterlimit="10" cx="2673.388" cy="53.068" r="1.466"/>
		
			<path fill="#FFFFFF" stroke="#4D2F82" stroke-width="0.7444" stroke-linecap="round" stroke-linejoin="round" stroke-miterlimit="10" d="
			M2676.36,47.13c-0.259-0.372-0.412-0.831-0.412-1.322c0-1.289,1.044-2.331,2.332-2.331c1.289,0,2.339,1.042,2.339,2.331
			c0,0.491-0.153,0.95-0.412,1.322c-0.426,0.61-1.13,1.01-1.927,1.01C2677.482,48.14,2676.779,47.741,2676.36,47.13z"/>
		
			<circle fill="#FFFFFF" stroke="#4D2F82" stroke-width="0.7444" stroke-linecap="round" stroke-linejoin="round" stroke-miterlimit="10" cx="2675.732" cy="39.274" r="1.035"/>
	</g>
	
		<rect x="2664.861" y="29.774" fill="#4C2F83" stroke="#FFFFFF" stroke-width="1.4889" stroke-miterlimit="10" width="32.383" height="4.715"/>
	<rect x="2657.418" y="73.028" fill="#4C2F83" width="43.053" height="4.004"/>
	<rect x="2695.755" y="12.237" fill="#4C2F83" width="4.716" height="63.148"/>
</g>
<polyline fill="none" stroke="#B8A77D" stroke-width="2.2333" stroke-miterlimit="10" points="2569.762,147 2517.762,147 
	2517.762,176.762 1522.05,176.762 1523.238,104.143 -20.238,104.143 "/>
</svg>
