<?xml version="1.0" encoding="utf-8"?>
<!-- Generator: Adobe Illustrator 16.0.0, SVG Export Plug-In . SVG Version: 6.00 Build 0)  -->
<!DOCTYPE svg PUBLIC "-//W3C//DTD SVG 1.1//EN" "http://www.w3.org/Graphics/SVG/1.1/DTD/svg11.dtd">
<svg version="1.1" id="Layer_1" xmlns="http://www.w3.org/2000/svg" xmlns:xlink="http://www.w3.org/1999/xlink" x="0px" y="0px"
	 width="124px" height="97.6px" viewBox="0 0 124 97.6" enable-background="new 0 0 124 97.6" xml:space="preserve">
<path fill="#FFFFFF" d="M65.929,78.393c-38.28-25.111-43.442-45.481-43.442-62.094c0-7.331,2.365-13.572,6.841-18.047
	C33.803-6.225,40.044-8.59,47.375-8.59c8.305,0,16.036,4.141,20.679,11.078l1.003,1.498l1.003-1.498
	C74.702-4.449,82.431-8.59,90.738-8.59c7.33,0,13.571,2.366,18.046,6.841c4.477,4.476,6.842,10.716,6.842,18.046
	c0,16.614-5.164,36.985-43.465,62.109l-3.104,2.003L65.929,78.393z M47.374-6.571c-6.784,0-12.531,2.162-16.62,6.25
	c-4.089,4.089-6.251,9.836-6.251,16.62c0.002,16.075,5.056,35.821,42.528,60.402l2.025,1.306l2.004-1.292
	c0.288-0.189,0.56-0.372,0.83-0.555c0.184-0.124,0.367-0.248,0.554-0.372l1.311-0.872l-1.183-1.039
	c-2.673-2.348-5.375-5.232-14.987-17.403c-0.167-0.212-0.242-0.476-0.211-0.743c0.032-0.268,0.165-0.506,0.376-0.672
	c0.229-0.181,0.466-0.219,0.624-0.219c0.312,0,0.6,0.14,0.792,0.384c5.987,7.58,12.758,15.733,14.906,17.359l0.112,0.084
	l0.129,0.058c0.099,0.043,0.205,0.132,0.325,0.27l0.713,0.825l0.893-0.626c0.942-0.662,1.793-1.269,2.602-1.857l1.132-0.823
	l-0.981-0.998c-2.526-2.568-4.694-5.851-13.404-18.587c-0.313-0.458-0.195-1.088,0.265-1.401c0.167-0.114,0.364-0.176,0.566-0.176
	c0.335,0,0.647,0.165,0.837,0.44c5.667,8.289,11.314,16.791,13.361,18.57l0.106,0.093l0.076,0.04
	c0.006,0.006,0.013,0.012,0.02,0.018c0.049,0.043,0.098,0.084,0.149,0.125l0.736,0.574l0.741-0.57
	c1.513-1.164,2.793-2.181,3.916-3.106l0.99-0.817l-0.877-0.938c-2.655-2.841-4.724-6.019-13.105-18.274
	c-0.152-0.223-0.208-0.49-0.158-0.755c0.05-0.266,0.199-0.495,0.423-0.647c0.167-0.114,0.363-0.175,0.566-0.175
	c0.335,0,0.647,0.164,0.837,0.44c6.505,9.513,10.748,15.89,13.013,18.229l0.802,0.828l0.864-0.763
	c1.152-1.019,2.246-2.021,3.251-2.98l0.905-0.864l-0.897-0.873c-2.358-2.294-7.9-9.798-16.474-22.305l-0.351-0.512l-0.621-0.012
	c-1.634-0.032-3.314-0.663-4.994-1.876c-6.586-4.754-11.607-14.171-11.723-14.567c-0.153-0.531,0.154-1.091,0.687-1.247
	c0.096-0.027,0.189-0.042,0.284-0.042c0.444,0,0.842,0.299,0.967,0.728c0.025,0.087,4.907,9.121,10.964,13.494
	c1.384,0.998,2.719,1.504,3.967,1.504c0.306,0,0.61-0.031,0.905-0.09c1.036-0.207,2.014-0.772,2.9-1.68l0.605-0.619L66.194,3.367
	l-0.047-0.068C61.857-2.881,54.838-6.571,47.374-6.571z M94.499,56.686l0.162,0.093l0.809,0.439l0.638-0.665
	c15.509-16.169,17.498-30.005,17.498-40.252c0.001-6.785-2.159-12.533-6.248-16.623c-4.088-4.089-9.835-6.251-16.619-6.251
	c-8.518,0-16.519,4.936-20.385,12.575l-0.276,0.546l12.048,23.707c0.008,0.018,0.016,0.034,0.023,0.051
	c0.015,0.031,0.023,0.064,0.035,0.097c0,0,0.028,0.078,0.038,0.104l0.01,0.071c0.006,0.039,0.012,0.075,0.019,0.111
	c-0.001,0.007-0.006,0.112-0.006,0.112v0.082c-0.01,0.036-0.019,0.072-0.026,0.107l-0.017,0.081
	c-0.012,0.023-0.048,0.108-0.048,0.108c-0.012,0.028-0.022,0.057-0.036,0.083L82.1,31.292l-0.011,0.022
	c-0.172,0.274-1.104,1.682-2.728,2.707l-1.062,0.671l0.713,1.034c4.781,6.938,13.404,19.142,15.396,20.873l0.014,0.013
	L94.499,56.686z"/>
</svg>
