<?xml version="1.0" encoding="utf-8"?>
<!-- Generator: Adobe Illustrator 16.0.0, SVG Export Plug-In . SVG Version: 6.00 Build 0)  -->
<!DOCTYPE svg PUBLIC "-//W3C//DTD SVG 1.1//EN" "http://www.w3.org/Graphics/SVG/1.1/DTD/svg11.dtd">
<svg version="1.1" id="Layer_1" xmlns="http://www.w3.org/2000/svg" xmlns:xlink="http://www.w3.org/1999/xlink" x="0px" y="0px"
	 width="2100px" height="900px" viewBox="0 0 2100 900" enable-background="new 0 0 2100 900" xml:space="preserve">
<path fill="none" stroke="#B8A77D" stroke-miterlimit="10" d="M1805.328,152.062c0,0.489-1.068,0.886-2.386,0.886h-252.003
	c-1.318,0-2.387-0.396-2.387-0.886v-7.035c0-0.489,1.069-0.886,2.387-0.886h252.003c1.318,0,2.386,0.397,2.386,0.886V152.062z"/>
<path fill="none" stroke="#B8A77D" stroke-miterlimit="10" d="M1805.328,245.516c0,0.49-1.068,0.887-2.386,0.887h-252.003
	c-1.318,0-2.387-0.396-2.387-0.887v-7.034c0-0.49,1.069-0.887,2.387-0.887h252.003c1.318,0,2.386,0.396,2.386,0.887V245.516z"/>
<path fill="none" stroke="#B8A77D" stroke-miterlimit="10" d="M1801.132,97.894h-248.806c-0.83,0-1.503,1.39-1.503,3.103v24.613
	c0,1.713,0.673,3.103,1.503,3.103h82.197v-10.581c0-1.11,0.794-2.01,1.774-2.01h80.863c0.979,0,1.773,0.9,1.773,2.01v10.581h82.198
	c0.83,0,1.502-1.39,1.502-3.103v-24.613C1802.634,99.283,1801.962,97.894,1801.132,97.894z"/>
<path fill="none" stroke="#B8A77D" stroke-miterlimit="10" d="M1783.734,236.077c0,0.837-0.571,1.518-1.275,1.518h-211.038
	c-0.704,0-1.275-0.681-1.275-1.518v-12.038c0-0.839,0.571-1.518,1.275-1.518h211.038c0.704,0,1.275,0.679,1.275,1.518V236.077z"/>
<path fill="#4B3083" d="M1777.46,210.751c0,4.278-1.89,8.873-1.89,8.873s-1.89-4.594-1.89-8.873c0-4.278,0-53.068,0-53.068
	c0-0.721,0.705-1.307,1.575-1.307h0.63c0.871,0,1.575,0.586,1.575,1.307C1777.46,157.683,1777.46,206.253,1777.46,210.751z"/>
<path fill="#4B3083" d="M1768.494,210.751c0,4.278-1.89,8.873-1.89,8.873s-1.89-4.594-1.89-8.873c0-4.278,0-53.068,0-53.068
	c0-0.721,0.705-1.307,1.575-1.307h0.63c0.87,0,1.575,0.586,1.575,1.307C1768.494,157.683,1768.494,206.253,1768.494,210.751z"/>
<path fill="#4B3083" d="M1759.528,210.751c0,4.278-1.891,8.873-1.891,8.873s-1.891-4.594-1.891-8.873c0-4.278,0-53.068,0-53.068
	c0-0.721,0.705-1.307,1.576-1.307h0.63c0.871,0,1.576,0.586,1.576,1.307C1759.528,157.683,1759.528,206.253,1759.528,210.751z"/>
<path fill="#4B3083" d="M1750.561,210.751c0,4.278-1.89,8.873-1.89,8.873s-1.89-4.594-1.89-8.873c0-4.278,0-53.068,0-53.068
	c0-0.721,0.705-1.307,1.575-1.307h0.63c0.87,0,1.575,0.586,1.575,1.307C1750.561,157.683,1750.561,206.253,1750.561,210.751z"/>
<path fill="#4B3083" d="M1741.595,210.751c0,4.278-1.89,8.873-1.89,8.873s-1.89-4.594-1.89-8.873c0-4.278,0-53.068,0-53.068
	c0-0.721,0.705-1.307,1.575-1.307h0.63c0.87,0,1.575,0.586,1.575,1.307C1741.595,157.683,1741.595,206.253,1741.595,210.751z"/>
<path fill="#4B3083" d="M1732.628,210.751c0,4.278-1.89,8.873-1.89,8.873s-1.89-4.594-1.89-8.873c0-4.278,0-53.068,0-53.068
	c0-0.721,0.705-1.307,1.575-1.307h0.63c0.87,0,1.575,0.586,1.575,1.307C1732.628,157.683,1732.628,206.253,1732.628,210.751z"/>
<path fill="#4B3083" d="M1723.662,210.751c0,4.278-1.89,8.873-1.89,8.873s-1.891-4.594-1.891-8.873c0-4.278,0-53.068,0-53.068
	c0-0.721,0.705-1.307,1.576-1.307h0.63c0.871,0,1.575,0.586,1.575,1.307C1723.662,157.683,1723.662,206.253,1723.662,210.751z"/>
<path fill="#4B3083" d="M1714.696,210.751c0,4.278-1.891,8.873-1.891,8.873s-1.89-4.594-1.89-8.873c0-4.278,0-53.068,0-53.068
	c0-0.721,0.705-1.307,1.575-1.307h0.63c0.87,0,1.575,0.586,1.575,1.307C1714.696,157.683,1714.696,206.253,1714.696,210.751z"/>
<path fill="#4B3083" d="M1705.73,210.751c0,4.278-1.891,8.873-1.891,8.873s-1.891-4.594-1.891-8.873c0-4.278,0-53.068,0-53.068
	c0-0.721,0.705-1.307,1.576-1.307h0.63c0.871,0,1.576,0.586,1.576,1.307C1705.73,157.683,1705.73,206.253,1705.73,210.751z"/>
<path fill="#4B3083" d="M1696.763,210.751c0,4.278-1.89,8.873-1.89,8.873s-1.891-4.594-1.891-8.873c0-4.278,0-53.068,0-53.068
	c0-0.721,0.705-1.307,1.575-1.307h0.63c0.87,0,1.576,0.586,1.576,1.307C1696.763,157.683,1696.763,206.253,1696.763,210.751z"/>
<path fill="#4B3083" d="M1687.797,210.751c0,4.278-1.89,8.873-1.89,8.873s-1.89-4.594-1.89-8.873c0-4.278,0-53.068,0-53.068
	c0-0.721,0.704-1.307,1.575-1.307h0.63c0.87,0,1.575,0.586,1.575,1.307C1687.797,157.683,1687.797,206.253,1687.797,210.751z"/>
<path fill="#4B3083" d="M1678.83,210.751c0,4.278-1.89,8.873-1.89,8.873s-1.89-4.594-1.89-8.873c0-4.278,0-53.068,0-53.068
	c0-0.721,0.705-1.307,1.576-1.307h0.63c0.87,0,1.575,0.586,1.575,1.307C1678.83,157.683,1678.83,206.253,1678.83,210.751z"/>
<path fill="#4B3083" d="M1669.864,210.751c0,4.278-1.89,8.873-1.89,8.873s-1.891-4.594-1.891-8.873c0-4.278,0-53.068,0-53.068
	c0-0.721,0.705-1.307,1.575-1.307h0.63c0.87,0,1.575,0.586,1.575,1.307C1669.864,157.683,1669.864,206.253,1669.864,210.751z"/>
<path fill="#4B3083" d="M1660.898,210.751c0,4.278-1.891,8.873-1.891,8.873s-1.89-4.594-1.89-8.873c0-4.278,0-53.068,0-53.068
	c0-0.721,0.706-1.307,1.575-1.307h0.629c0.871,0,1.576,0.586,1.576,1.307C1660.898,157.683,1660.898,206.253,1660.898,210.751z"/>
<path fill="#4B3083" d="M1651.932,210.751c0,4.278-1.891,8.873-1.891,8.873s-1.891-4.594-1.891-8.873c0-4.278,0-53.068,0-53.068
	c0-0.721,0.706-1.307,1.576-1.307h0.63c0.87,0,1.575,0.586,1.575,1.307C1651.932,157.683,1651.932,206.253,1651.932,210.751z"/>
<path fill="#4B3083" d="M1642.965,210.751c0,4.278-1.89,8.873-1.89,8.873s-1.89-4.594-1.89-8.873c0-4.278,0-53.068,0-53.068
	c0-0.721,0.704-1.307,1.575-1.307h0.63c0.87,0,1.575,0.586,1.575,1.307C1642.965,157.683,1642.965,206.253,1642.965,210.751z"/>
<path fill="#4B3083" d="M1633.999,210.751c0,4.278-1.89,8.873-1.89,8.873s-1.891-4.594-1.891-8.873c0-4.278,0-53.068,0-53.068
	c0-0.721,0.705-1.307,1.575-1.307h0.631c0.869,0,1.575,0.586,1.575,1.307C1633.999,157.683,1633.999,206.253,1633.999,210.751z"/>
<path fill="#4B3083" d="M1625.032,210.751c0,4.278-1.89,8.873-1.89,8.873s-1.891-4.594-1.891-8.873c0-4.278,0-53.068,0-53.068
	c0-0.721,0.705-1.307,1.576-1.307h0.63c0.87,0,1.575,0.586,1.575,1.307C1625.032,157.683,1625.032,206.253,1625.032,210.751z"/>
<path fill="#4B3083" d="M1616.066,210.751c0,4.278-1.891,8.873-1.891,8.873s-1.89-4.594-1.89-8.873c0-4.278,0-53.068,0-53.068
	c0-0.721,0.705-1.307,1.575-1.307h0.63c0.87,0,1.576,0.586,1.576,1.307C1616.066,157.683,1616.066,206.253,1616.066,210.751z"/>
<path fill="#4B3083" d="M1607.1,210.751c0,4.278-1.89,8.873-1.89,8.873s-1.891-4.594-1.891-8.873c0-4.278,0-53.068,0-53.068
	c0-0.721,0.705-1.307,1.575-1.307h0.63c0.87,0,1.576,0.586,1.576,1.307C1607.1,157.683,1607.1,206.253,1607.1,210.751z"/>
<path fill="#4B3083" d="M1598.134,210.751c0,4.278-1.891,8.873-1.891,8.873s-1.89-4.594-1.89-8.873c0-4.278,0-53.068,0-53.068
	c0-0.721,0.704-1.307,1.575-1.307h0.63c0.87,0,1.575,0.586,1.575,1.307C1598.134,157.683,1598.134,206.253,1598.134,210.751z"/>
<path fill="#4B3083" d="M1589.167,210.751c0,4.278-1.89,8.873-1.89,8.873s-1.89-4.594-1.89-8.873c0-4.278,0-53.068,0-53.068
	c0-0.721,0.705-1.307,1.576-1.307h0.629c0.871,0,1.575,0.586,1.575,1.307C1589.167,157.683,1589.167,206.253,1589.167,210.751z"/>
<path fill="#4B3083" d="M1580.201,210.751c0,4.278-1.89,8.873-1.89,8.873s-1.891-4.594-1.891-8.873c0-4.278,0-53.068,0-53.068
	c0-0.721,0.705-1.307,1.576-1.307h0.63c0.87,0,1.575,0.586,1.575,1.307C1580.201,157.683,1580.201,206.253,1580.201,210.751z"/>
<path fill="none" stroke="#B8A77D" stroke-miterlimit="10" d="M1794.063,168.672c0,0.979-0.793,1.773-1.773,1.773h-4.434
	c-0.979,0-1.773-0.794-1.773-1.773v-13.951c0-0.979,0.794-1.774,1.773-1.774h4.434c0.979,0,1.773,0.794,1.773,1.774V168.672z"/>
<path fill="none" stroke="#B8A77D" stroke-miterlimit="10" d="M1794.063,194.975c0,0.98-0.793,1.773-1.773,1.773h-4.434
	c-0.979,0-1.773-0.793-1.773-1.773v-13.949c0-0.979,0.794-1.773,1.773-1.773h4.434c0.979,0,1.773,0.794,1.773,1.773V194.975z"/>
<path fill="none" stroke="#B8A77D" stroke-miterlimit="10" d="M1567.965,168.672c0,0.979-0.793,1.773-1.773,1.773h-4.433
	c-0.979,0-1.773-0.794-1.773-1.773v-13.951c0-0.979,0.794-1.774,1.773-1.774h4.433c0.98,0,1.773,0.794,1.773,1.774V168.672z"/>
<path fill="none" stroke="#B8A77D" stroke-miterlimit="10" d="M1567.965,194.975c0,0.98-0.793,1.773-1.773,1.773h-4.433
	c-0.979,0-1.773-0.793-1.773-1.773v-13.949c0-0.979,0.794-1.773,1.773-1.773h4.433c0.98,0,1.773,0.794,1.773,1.773V194.975z"/>
<path fill="none" stroke="#B8A77D" stroke-miterlimit="10" d="M1580.201,282.69c0,2.548-2.064,4.613-4.613,4.613h-11.532
	c-2.548,0-4.614-2.065-4.614-4.613v-36.288h20.759V282.69z"/>
<path fill="none" stroke="#B8A77D" stroke-miterlimit="10" d="M1794.113,282.69c0,2.548-2.065,4.613-4.613,4.613h-11.533
	c-2.548,0-4.613-2.065-4.613-4.613v-36.288h20.759V282.69z"/>
<path fill="#FFFFFF" stroke="#B8A77D" stroke-width="1.9416" stroke-miterlimit="10" d="M1807.009,178.365
	c0,0.49-1.068,0.887-2.386,0.887h-252.004c-1.318,0-2.386-0.396-2.386-0.887v-7.034c0-0.49,1.067-0.886,2.386-0.886h252.004
	c1.318,0,2.386,0.396,2.386,0.886V178.365z"/>
<path fill="#FFFFFF" stroke="#B8A77D" stroke-width="1.9416" stroke-miterlimit="10" d="M1807.009,204.611
	c0,0.488-1.068,0.886-2.386,0.886h-252.004c-1.318,0-2.386-0.397-2.386-0.886v-7.035c0-0.489,1.067-0.886,2.386-0.886h252.004
	c1.318,0,2.386,0.396,2.386,0.886V204.611z"/>
<path fill="none" stroke="#B8A77D" stroke-miterlimit="10" d="M1710.492,142.479c0,0.96-0.718,1.737-1.603,1.737h-64.32
	c-0.886,0-1.604-0.777-1.604-1.737v-16.794c0-0.959,0.718-1.737,1.604-1.737h64.32c0.885,0,1.603,0.778,1.603,1.737V142.479z"/>
<path fill="none" stroke="#B8A77D" stroke-miterlimit="10" d="M505.313,198.215c0,0.491-0.713,0.888-1.593,0.888H335.519
	c-0.88,0-1.593-0.396-1.593-0.888v-7.034c0-0.489,0.713-0.887,1.593-0.887h168.202c0.88,0,1.593,0.397,1.593,0.887V198.215z"/>
<path fill="none" stroke="#B8A77D" stroke-miterlimit="10" d="M544.023,89.736H295.217c-0.831,0-1.503,1.39-1.503,3.103v24.614
	c0,1.713,0.672,3.103,1.503,3.103h82.197v-10.58c0-1.11,0.795-2.011,1.773-2.011h80.864c0.98,0,1.773,0.901,1.773,2.011v10.58
	h82.198c0.83,0,1.502-1.39,1.502-3.103V92.839C545.525,91.126,544.853,89.736,544.023,89.736z"/>
<path fill="none" stroke="#B8A77D" stroke-miterlimit="10" d="M453.383,132.753c0,0.958-0.718,1.737-1.604,1.737h-64.32
	c-0.885,0-1.604-0.779-1.604-1.737v-16.794c0-0.959,0.718-1.737,1.604-1.737h64.32c0.886,0,1.604,0.778,1.604,1.737V132.753z"/>
<path fill="none" stroke="#B8A77D" stroke-miterlimit="10" d="M453.383,183.432c0,0.959-0.718,1.737-1.604,1.737h-64.32
	c-0.885,0-1.604-0.778-1.604-1.737v-16.794c0-0.959,0.718-1.737,1.604-1.737h64.32c0.886,0,1.604,0.778,1.604,1.737V183.432z"/>
<path fill="none" stroke="#B8A77D" stroke-miterlimit="10" d="M493.491,181.933c0,1.787-1.121,3.236-2.505,3.236H465.5
	c-1.383,0-2.504-1.449-2.504-3.236v-35.617c0-1.787,1.122-3.236,2.504-3.236h25.486c1.384,0,2.505,1.449,2.505,3.236V181.933z"/>
<path fill="none" stroke="#B8A77D" stroke-miterlimit="10" d="M373.11,181.933c0,1.787-1.121,3.236-2.505,3.236h-25.486
	c-1.383,0-2.504-1.449-2.504-3.236v-35.617c0-1.787,1.121-3.236,2.504-3.236h25.486c1.384,0,2.505,1.449,2.505,3.236V181.933z"/>
<rect x="276.586" y="203.774" fill="none" stroke="#B8A77D" stroke-miterlimit="10" width="286.066" height="17.388"/>
<rect x="540.361" y="221.163" fill="none" stroke="#B8A77D" stroke-miterlimit="10" width="10.354" height="77.233"/>
<rect x="292.361" y="221.163" fill="none" stroke="#B8A77D" stroke-miterlimit="10" width="10.354" height="77.233"/>
<path fill="none" stroke="#B8A77D" stroke-miterlimit="10" d="M451.002,142.493c0,1.462-1.186,2.649-2.649,2.649h-57.466
	c-1.463,0-2.649-1.187-2.649-2.649l0,0c0-1.464,1.187-2.649,2.649-2.649h57.466C449.816,139.844,451.002,141.029,451.002,142.493
	L451.002,142.493z"/>
<path fill="none" stroke="#B8A77D" stroke-miterlimit="10" d="M451.002,157.346c0,1.464-1.186,2.649-2.649,2.649h-57.466
	c-1.463,0-2.649-1.186-2.649-2.649l0,0c0-1.462,1.187-2.649,2.649-2.649h57.466C449.816,154.697,451.002,155.884,451.002,157.346
	L451.002,157.346z"/>
<path fill="#4B3083" d="M393.794,151.571c0,0.859-0.38,1.781-0.38,1.781s-0.379-0.921-0.379-1.781c0-0.858,0-4.434,0-4.434
	c0-0.145,0.142-0.262,0.316-0.262h0.126c0.175,0,0.316,0.118,0.316,0.262C393.794,147.137,393.794,150.668,393.794,151.571z"/>
<path fill="#4B3083" d="M395.645,151.571c0,0.859-0.379,1.781-0.379,1.781s-0.38-0.921-0.38-1.781c0-0.858,0-4.434,0-4.434
	c0-0.145,0.142-0.262,0.316-0.262h0.126c0.175,0,0.316,0.118,0.316,0.262C395.645,147.137,395.645,150.668,395.645,151.571z"/>
<path fill="#4B3083" d="M397.496,151.571c0,0.859-0.379,1.781-0.379,1.781s-0.379-0.921-0.379-1.781c0-0.858,0-4.434,0-4.434
	c0-0.145,0.142-0.262,0.316-0.262h0.126c0.175,0,0.316,0.118,0.316,0.262C397.496,147.137,397.496,150.668,397.496,151.571z"/>
<path fill="#4B3083" d="M399.347,151.571c0,0.859-0.379,1.781-0.379,1.781s-0.379-0.921-0.379-1.781c0-0.858,0-4.434,0-4.434
	c0-0.145,0.142-0.262,0.316-0.262h0.126c0.175,0,0.316,0.118,0.316,0.262C399.347,147.137,399.347,150.668,399.347,151.571z"/>
<path fill="#4B3083" d="M401.198,151.571c0,0.859-0.379,1.781-0.379,1.781s-0.379-0.921-0.379-1.781c0-0.858,0-4.434,0-4.434
	c0-0.145,0.142-0.262,0.316-0.262h0.126c0.175,0,0.316,0.118,0.316,0.262C401.198,147.137,401.198,150.668,401.198,151.571z"/>
<path fill="#4B3083" d="M403.049,151.571c0,0.859-0.379,1.781-0.379,1.781s-0.38-0.921-0.38-1.781c0-0.858,0-4.434,0-4.434
	c0-0.145,0.142-0.262,0.316-0.262h0.126c0.175,0,0.316,0.118,0.316,0.262C403.049,147.137,403.049,150.668,403.049,151.571z"/>
<path fill="#4B3083" d="M404.899,151.571c0,0.859-0.379,1.781-0.379,1.781s-0.379-0.921-0.379-1.781c0-0.858,0-4.434,0-4.434
	c0-0.145,0.141-0.262,0.315-0.262h0.126c0.175,0,0.316,0.118,0.316,0.262C404.899,147.137,404.899,150.668,404.899,151.571z"/>
<path fill="#4B3083" d="M406.751,151.571c0,0.859-0.379,1.781-0.379,1.781s-0.379-0.921-0.379-1.781c0-0.858,0-4.434,0-4.434
	c0-0.145,0.142-0.262,0.316-0.262h0.126c0.175,0,0.316,0.118,0.316,0.262C406.751,147.137,406.751,150.668,406.751,151.571z"/>
<path fill="#4B3083" d="M408.602,151.571c0,0.859-0.379,1.781-0.379,1.781s-0.379-0.921-0.379-1.781c0-0.858,0-4.434,0-4.434
	c0-0.145,0.142-0.262,0.316-0.262h0.126c0.175,0,0.316,0.118,0.316,0.262C408.602,147.137,408.602,150.668,408.602,151.571z"/>
<path fill="#4B3083" d="M410.453,151.571c0,0.859-0.38,1.781-0.38,1.781s-0.379-0.921-0.379-1.781c0-0.858,0-4.434,0-4.434
	c0-0.145,0.142-0.262,0.316-0.262h0.126c0.175,0,0.316,0.118,0.316,0.262C410.453,147.137,410.453,150.668,410.453,151.571z"/>
<path fill="#4B3083" d="M412.304,151.571c0,0.859-0.379,1.781-0.379,1.781s-0.379-0.921-0.379-1.781c0-0.858,0-4.434,0-4.434
	c0-0.145,0.142-0.262,0.316-0.262h0.126c0.175,0,0.316,0.118,0.316,0.262C412.304,147.137,412.304,150.668,412.304,151.571z"/>
<path fill="#4B3083" d="M414.155,151.571c0,0.859-0.379,1.781-0.379,1.781s-0.379-0.921-0.379-1.781c0-0.858,0-4.434,0-4.434
	c0-0.145,0.142-0.262,0.316-0.262h0.126c0.175,0,0.316,0.118,0.316,0.262C414.155,147.137,414.155,150.668,414.155,151.571z"/>
<path fill="#4B3083" d="M416.006,151.571c0,0.859-0.379,1.781-0.379,1.781s-0.379-0.921-0.379-1.781c0-0.858,0-4.434,0-4.434
	c0-0.145,0.142-0.262,0.316-0.262h0.126c0.175,0,0.316,0.118,0.316,0.262C416.006,147.137,416.006,150.668,416.006,151.571z"/>
<path fill="#4B3083" d="M417.857,151.571c0,0.859-0.379,1.781-0.379,1.781s-0.379-0.921-0.379-1.781c0-0.858,0-4.434,0-4.434
	c0-0.145,0.142-0.262,0.316-0.262h0.126c0.175,0,0.316,0.118,0.316,0.262C417.857,147.137,417.857,150.668,417.857,151.571z"/>
<path fill="#4B3083" d="M419.708,151.571c0,0.859-0.379,1.781-0.379,1.781s-0.379-0.921-0.379-1.781c0-0.858,0-4.434,0-4.434
	c0-0.145,0.142-0.262,0.316-0.262h0.126c0.175,0,0.316,0.118,0.316,0.262C419.708,147.137,419.708,150.668,419.708,151.571z"/>
<path fill="#4B3083" d="M421.559,151.571c0,0.859-0.379,1.781-0.379,1.781s-0.38-0.921-0.38-1.781c0-0.858,0-4.434,0-4.434
	c0-0.145,0.142-0.262,0.316-0.262h0.126c0.175,0,0.316,0.118,0.316,0.262C421.559,147.137,421.559,150.668,421.559,151.571z"/>
<path fill="#4B3083" d="M423.41,151.571c0,0.859-0.379,1.781-0.379,1.781s-0.379-0.921-0.379-1.781c0-0.858,0-4.434,0-4.434
	c0-0.145,0.142-0.262,0.316-0.262h0.126c0.175,0,0.316,0.118,0.316,0.262C423.41,147.137,423.41,150.668,423.41,151.571z"/>
<path fill="#4B3083" d="M425.261,151.571c0,0.859-0.379,1.781-0.379,1.781s-0.379-0.921-0.379-1.781c0-0.858,0-4.434,0-4.434
	c0-0.145,0.142-0.262,0.316-0.262h0.126c0.175,0,0.316,0.118,0.316,0.262C425.261,147.137,425.261,150.668,425.261,151.571z"/>
<path fill="#4B3083" d="M427.111,151.571c0,0.859-0.379,1.781-0.379,1.781s-0.379-0.921-0.379-1.781c0-0.858,0-4.434,0-4.434
	c0-0.145,0.142-0.262,0.316-0.262h0.126c0.175,0,0.315,0.118,0.315,0.262C427.111,147.137,427.111,150.668,427.111,151.571z"/>
<path fill="#4B3083" d="M428.962,151.571c0,0.859-0.379,1.781-0.379,1.781s-0.379-0.921-0.379-1.781c0-0.858,0-4.434,0-4.434
	c0-0.145,0.142-0.262,0.316-0.262h0.126c0.175,0,0.316,0.118,0.316,0.262C428.962,147.137,428.962,150.668,428.962,151.571z"/>
<path fill="#4B3083" d="M430.813,151.571c0,0.859-0.379,1.781-0.379,1.781s-0.379-0.921-0.379-1.781c0-0.858,0-4.434,0-4.434
	c0-0.145,0.142-0.262,0.316-0.262h0.126c0.175,0,0.316,0.118,0.316,0.262C430.813,147.137,430.813,150.668,430.813,151.571z"/>
<path fill="#4B3083" d="M432.664,151.571c0,0.859-0.379,1.781-0.379,1.781s-0.379-0.921-0.379-1.781c0-0.858,0-4.434,0-4.434
	c0-0.145,0.141-0.262,0.315-0.262h0.126c0.176,0,0.316,0.118,0.316,0.262C432.664,147.137,432.664,150.668,432.664,151.571z"/>
<path fill="#4B3083" d="M434.516,151.571c0,0.859-0.38,1.781-0.38,1.781s-0.379-0.921-0.379-1.781c0-0.858,0-4.434,0-4.434
	c0-0.145,0.142-0.262,0.316-0.262h0.126c0.176,0,0.316,0.118,0.316,0.262C434.516,147.137,434.516,150.668,434.516,151.571z"/>
<path fill="#4B3083" d="M436.366,151.571c0,0.859-0.379,1.781-0.379,1.781s-0.379-0.921-0.379-1.781c0-0.858,0-4.434,0-4.434
	c0-0.145,0.142-0.262,0.316-0.262h0.126c0.175,0,0.316,0.118,0.316,0.262C436.366,147.137,436.366,150.668,436.366,151.571z"/>
<path fill="#4B3083" d="M438.218,151.571c0,0.859-0.379,1.781-0.379,1.781s-0.379-0.921-0.379-1.781c0-0.858,0-4.434,0-4.434
	c0-0.145,0.141-0.262,0.316-0.262h0.127c0.175,0,0.315,0.118,0.315,0.262C438.218,147.137,438.218,150.668,438.218,151.571z"/>
<path fill="#4B3083" d="M440.068,151.571c0,0.859-0.379,1.781-0.379,1.781s-0.379-0.921-0.379-1.781c0-0.858,0-4.434,0-4.434
	c0-0.145,0.142-0.262,0.316-0.262h0.126c0.175,0,0.316,0.118,0.316,0.262C440.068,147.137,440.068,150.668,440.068,151.571z"/>
<path fill="#4B3083" d="M441.92,151.571c0,0.859-0.379,1.781-0.379,1.781s-0.379-0.921-0.379-1.781c0-0.858,0-4.434,0-4.434
	c0-0.145,0.142-0.262,0.316-0.262h0.126c0.175,0,0.316,0.118,0.316,0.262C441.92,147.137,441.92,150.668,441.92,151.571z"/>
<path fill="#4B3083" d="M443.771,151.571c0,0.859-0.379,1.781-0.379,1.781s-0.38-0.921-0.38-1.781c0-0.858,0-4.434,0-4.434
	c0-0.145,0.142-0.262,0.316-0.262h0.126c0.175,0,0.316,0.118,0.316,0.262C443.771,147.137,443.771,150.668,443.771,151.571z"/>
<path fill="#4B3083" d="M445.621,151.571c0,0.859-0.379,1.781-0.379,1.781s-0.379-0.921-0.379-1.781c0-0.858,0-4.434,0-4.434
	c0-0.145,0.142-0.262,0.316-0.262h0.126c0.175,0,0.315,0.118,0.315,0.262C445.621,147.137,445.621,150.668,445.621,151.571z"/>
<polyline fill="none" stroke="#B8A77D" stroke-miterlimit="10" points="545.077,106.267 609.732,106.267 609.732,173.576 
	1499.962,173.576 1499.962,116.622 1550.444,116.622 "/>
<line fill="none" stroke="#B8A77D" stroke-miterlimit="10" x1="631.75" y1="586.971" x2="1469.938" y2="586.971"/>
<path fill="#4C2F83" d="M1049.353,207.371c0,4.09-0.898,7.826-2.695,11.203c-1.799,3.379-3.904,6.309-6.322,8.787
	c-2.479,2.543-5.207,4.82-8.183,6.834c-2.977,2.016-5.362,3.486-7.16,4.416l-3.161-5.484c2.541-1.487,4.975-3.022,7.299-4.604
	c2.325-1.58,4.106-3.083,5.349-4.51c1.674-1.859,3.006-3.797,3.998-5.812c0.989-2.014,1.61-4.664,1.857-7.951h-4.463
	c-3.905,0-6.942-0.99-9.112-2.975c-2.17-1.982-3.254-4.742-3.254-8.275c0-2.541,0.991-4.941,2.978-7.205
	c1.981-2.264,4.68-3.395,8.089-3.395c5.269,0,9.05,1.752,11.344,5.254C1048.206,197.157,1049.353,201.73,1049.353,207.371z
	 M1083.757,207.371c0,4.09-0.897,7.826-2.694,11.203c-1.8,3.379-3.905,6.309-6.323,8.787c-2.479,2.543-5.207,4.82-8.183,6.834
	c-2.977,2.016-5.362,3.486-7.159,4.416l-3.161-5.484c2.541-1.487,4.975-3.022,7.299-4.604s4.105-3.083,5.348-4.51
	c1.675-1.859,3.007-3.797,3.998-5.812c0.99-2.014,1.61-4.664,1.858-7.951h-4.463c-3.905,0-6.943-0.99-9.112-2.975
	c-2.171-1.982-3.254-4.742-3.254-8.275c0-2.541,0.99-4.941,2.975-7.205c1.983-2.264,4.682-3.395,8.091-3.395
	c5.269,0,9.051,1.752,11.345,5.254C1082.608,197.157,1083.757,201.73,1083.757,207.371z"/>
<path fill="#4C2F83" d="M1056.229,557.021c0-4.09,0.898-7.826,2.695-11.203c1.799-3.379,3.904-6.309,6.322-8.787
	c2.479-2.543,5.207-4.82,8.183-6.834c2.977-2.016,5.362-3.486,7.16-4.416l3.161,5.484c-2.541,1.487-4.975,3.022-7.299,4.604
	c-2.325,1.58-4.106,3.083-5.349,4.51c-1.674,1.859-3.006,3.797-3.998,5.812c-0.989,2.014-1.61,4.664-1.857,7.951h4.463
	c3.905,0,6.942,0.99,9.112,2.975c2.17,1.982,3.254,4.742,3.254,8.275c0,2.541-0.991,4.941-2.978,7.205
	c-1.981,2.264-4.68,3.395-8.089,3.395c-5.269,0-9.05-1.752-11.344-5.254C1057.376,567.235,1056.229,562.662,1056.229,557.021z
	 M1021.825,557.021c0-4.09,0.897-7.826,2.694-11.203c1.8-3.379,3.905-6.309,6.323-8.787c2.479-2.543,5.207-4.82,8.183-6.834
	c2.977-2.016,5.362-3.486,7.159-4.416l3.161,5.484c-2.541,1.487-4.975,3.022-7.299,4.604s-4.105,3.083-5.348,4.51
	c-1.675,1.859-3.007,3.797-3.998,5.812c-0.99,2.014-1.61,4.664-1.858,7.951h4.463c3.905,0,6.943,0.99,9.112,2.975
	c2.171,1.982,3.254,4.742,3.254,8.275c0,2.541-0.99,4.941-2.975,7.205c-1.983,2.264-4.682,3.395-8.091,3.395
	c-5.269,0-9.051-1.752-11.345-5.254C1022.974,567.235,1021.825,562.662,1021.825,557.021z"/>
</svg>
