<?xml version="1.0" encoding="utf-8"?>
<!-- Generator: Adobe Illustrator 19.2.1, SVG Export Plug-In . SVG Version: 6.00 Build 0)  -->
<svg version="1.1" id="Layer_1" xmlns="http://www.w3.org/2000/svg" xmlns:xlink="http://www.w3.org/1999/xlink" x="0px" y="0px"
	 viewBox="0 0 41 33" style="enable-background:new 0 0 41 33;" xml:space="preserve">
<style type="text/css">
	.st0{enable-background:new    ;}
	.st1{fill:#4B2E83;}
</style>
<g id="_" class="st0">
	<path class="st1" d="M17.3,3.5c-5.9,3.3-9,7.2-9,11.4c0,1.9,0.1,2,3.8,2.8c3.2,0.8,5.3,3.6,5.3,6.9c0,4.4-3.6,7.7-8.1,7.7
		c-5.2,0-9-4.5-9-10.7c0-8.8,5.5-16.7,14.6-21L17.3,3.5z M40.6,3.5c-5.9,3.3-9,7.2-9,11.4c0,1.9,0.1,2,3.8,2.8
		c3.2,0.8,5.3,3.6,5.3,6.9c0,4.4-3.6,7.7-8.1,7.7c-5.2,0-9-4.5-9-10.7c0-8.8,5.5-16.7,14.6-21L40.6,3.5z"/>
</g>
</svg>
