<?xml version="1.0" encoding="utf-8"?>
<!-- Generator: Adobe Illustrator 16.0.0, SVG Export Plug-In . SVG Version: 6.00 Build 0)  -->
<!DOCTYPE svg PUBLIC "-//W3C//DTD SVG 1.1//EN" "http://www.w3.org/Graphics/SVG/1.1/DTD/svg11.dtd">
<svg version="1.1" id="Isolation_Mode" xmlns="http://www.w3.org/2000/svg" xmlns:xlink="http://www.w3.org/1999/xlink" x="0px"
	 y="0px" width="124.928px" height="72.984px" viewBox="0 0 124.928 72.984" enable-background="new 0 0 124.928 72.984"
	 xml:space="preserve">
<path opacity="0.1" d="M32.946,2.808c-5.097,1.459-10.126,0.784-15.087,0.04c-3.505-0.524-5.161,0.899-6.359,3.66
	c-0.562,1.296-1.039,2.646-1.395,4.014c-2.2,8.436-2.44,17.063-2.452,27.171c-0.134,3.835,0.129,9.119,0.712,14.373
	c0.547,4.938,1.214,9.872,3.489,14.412c1.171,2.339,2.697,3.308,5.568,3.01c4.489-0.465,8.982-1.611,13.591-0.36
	c5.094,1.383,10.081,0.531,14.854-1.579c1.217-0.538,2.413-0.941,3.759-1.063c21.352-1.941,42.696-3.965,64.054-5.833
	c2.569-0.224,4.399-1.191,5.205-3.453c5.013-14.08,5.044-28.206-0.082-42.265c-0.721-1.976-2.322-3.068-4.685-3.271
	c-18.527-1.592-37.046-3.278-55.563-4.99c-5.428-0.502-10.878-0.727-16.021-3.076C39.567,2.242,36.07,1.914,32.946,2.808z
	 M110.973,20.045c3.093,10.711,3.09,21.424,0.021,32.138c-0.761,2.654-2.401,3.854-5.283,4.084
	c-19.352,1.542-38.69,3.252-58.036,4.866c-0.955,0.08-1.773,0.378-2.585,0.78c-3.676,1.821-7.577,2.371-11.565,1.67
	c-2.623-0.46-5.18-0.907-7.817-0.259c-0.144,0.035-0.247,0.037-0.366,0.052c-0.11,0.031-0.218,0.081-0.33,0.081
	c-3.094,0-5.602-12.131-5.602-27.096c0-13.706,2.106-25.007,4.837-26.813c0.486-0.577,1.424-0.494,3.493-0.292
	c1.422,0.139,2.791,0.092,4.214-0.265c3.094-0.777,6.408-1.136,9.319,0.109c5.864,2.508,12.062,2.512,18.18,3.067
	c15.386,1.397,30.784,2.673,46.187,3.855C108.481,16.241,110.198,17.36,110.973,20.045z"/>
</svg>
