<?xml version="1.0" encoding="utf-8"?>
<!-- Generator: Adobe Illustrator 16.0.0, SVG Export Plug-In . SVG Version: 6.00 Build 0)  -->
<!DOCTYPE svg PUBLIC "-//W3C//DTD SVG 1.1//EN" "http://www.w3.org/Graphics/SVG/1.1/DTD/svg11.dtd">
<svg version="1.1" id="Isolation_Mode" xmlns="http://www.w3.org/2000/svg" xmlns:xlink="http://www.w3.org/1999/xlink" x="0px"
	 y="0px" width="124.928px" height="79.386px" viewBox="0 0 124.928 79.386" enable-background="new 0 0 124.928 79.386"
	 xml:space="preserve">
<g>
	<path opacity="0.1" d="M57.765,61.97c0.317,0.316,0.747,0.494,1.194,0.494c0,0,0.001,0,0.002,0l18.037-0.019
		c3.503-0.003,6.856-0.978,9.788-2.762c1.1,12.116,3.593,18.027,7.602,18.027c0.744,0,1.855-0.224,2.92-1.291
		c2.186-2.188,5.089-8.364,5.06-36.611c-0.012-11.623-0.87-38.657-8.566-38.657c0,0,0,0,0,0c-3.832,0-5.983,5.663-7.065,18.794
		c-0.905-0.545-1.855-1.02-2.85-1.41C83.024,12.155,77.561,7.361,71.103,7.36c0,0-0.013,0-0.014,0
		c-6.021,0.006-11.167,4.178-12.534,9.913c-0.76,0.166-1.33,0.842-1.329,1.651l0.042,41.85
		C57.269,61.224,57.448,61.653,57.765,61.97z M76.995,59.064l-16.346,0.017L60.61,20.613l5.691-0.003
		c0.006,0,0.012-0.003,0.019-0.003l10.637-0.011v-0.002h0.016v0.002c4.756,0,9.017,2.144,11.885,5.509
		c0.501,0.617,0.974,1.272,1.409,1.967c0.01,0.017,0.026,0.026,0.037,0.042c1.443,2.363,2.291,5.127,2.294,8.092l0.008,7.219
		c0.003,2.907-0.809,5.691-2.3,8.121c-0.004,0.006-0.011,0.01-0.015,0.017c-0.221,0.354-0.451,0.697-0.69,1.032
		c-0.039,0.053-0.078,0.105-0.117,0.158c-0.163,0.223-0.331,0.439-0.501,0.653c-0.303,0.363-0.619,0.718-0.958,1.057
		C85.067,57.425,81.149,59.06,76.995,59.064z M68.388,17.223c0.433-1.438,1.065-1.569,3.05-1.571
		c1.895-0.002,2.364,0.003,2.756,1.565L68.388,17.223z M93.413,26.728c0.107-2.409,0.234-4.455,0.371-6.151
		c0.179,2.17,0.336,4.78,0.455,7.749C93.987,27.778,93.713,27.246,93.413,26.728z M94.262,51.295
		c-0.113,2.971-0.265,5.582-0.44,7.753c-0.141-1.699-0.272-3.747-0.383-6.16C93.74,52.37,94.013,51.838,94.262,51.295z
		 M93.787,4.537c1.128,0.423,5.171,7.488,5.199,35.275c0.027,26.2-2.539,32.685-4.07,34.218c-0.299,0.299-0.472,0.299-0.528,0.299
		c-0.829,0-3.378-3.143-4.402-16.967c0.098-0.098,0.195-0.197,0.292-0.297c0.794,12.288,2.139,12.289,3.556,12.289
		c1.783,0,2.641-1.35,3.338-9.709c0.442-5.306,0.682-12.351,0.675-19.836c-0.008-7.485-0.261-14.529-0.714-19.834
		c-0.713-8.352-1.573-9.703-3.354-9.703c-0.001,0-0.002,0-0.003,0c-1.416,0.001-2.761,0.002-3.532,12.297
		c-0.097-0.101-0.194-0.2-0.293-0.297C91.113,5.712,93.57,4.6,93.787,4.537z M71.093,10.742l0.01-1.691v1.691
		c4.144,0,7.737,2.674,9.023,6.468l-2.481,0.001c-0.666-3.096-1.749-4.941-6.227-4.941c-4.578,0.005-5.832,1.994-6.508,4.956
		l-2.837,0.003C63.352,13.428,66.943,10.747,71.093,10.742z"/>
	<path opacity="0.1" d="M47.525,45.375c-0.088,0-0.176,0.003-0.262,0.011c-1.882,0.155-3.252,1.667-4.578,3.129
		c-0.648,0.714-1.872,2.035-2.339,2.009c-0.431-0.032-1.412-1.091-1.997-1.724c-1.218-1.316-2.599-2.807-4.48-2.807
		c-0.001,0-0.003,0-0.005,0c-2.97,0.002-7.011,4.219-8.179,5.511c-0.626,0.693-0.572,1.761,0.121,2.388s1.763,0.572,2.388-0.12
		c2.083-2.301,4.787-4.397,5.674-4.397c0.405,0,1.442,1.121,1.999,1.723c1.158,1.25,2.47,2.668,4.227,2.799
		c2.123,0.155,3.708-1.577,5.098-3.11c0.716-0.79,1.799-1.984,2.35-2.03c0.879-0.048,3.757,2.187,5.917,4.65
		c0.616,0.702,1.684,0.772,2.386,0.157s0.773-1.683,0.158-2.385C54.789,49.792,50.671,45.375,47.525,45.375z"/>
	<path opacity="0.1" d="M47.517,35.395c-0.088,0-0.176,0.003-0.263,0.011c-1.882,0.155-3.253,1.667-4.579,3.128
		c-0.648,0.715-1.891,2.043-2.338,2.009c-0.432-0.033-1.412-1.092-1.998-1.725c-1.218-1.316-2.599-2.808-4.481-2.808
		c-0.001,0-0.003,0-0.004,0c-2.97,0.003-7.011,4.22-8.179,5.512c-0.626,0.693-0.572,1.762,0.121,2.388
		c0.692,0.627,1.762,0.573,2.388-0.12c2.083-2.301,4.787-4.397,5.674-4.398c0.405,0,1.442,1.121,2,1.723
		c1.157,1.25,2.469,2.667,4.227,2.799c2.132,0.156,3.707-1.577,5.096-3.109c0.717-0.79,1.799-1.984,2.351-2.03
		c0.896-0.077,3.718,2.142,5.917,4.648c0.615,0.702,1.684,0.772,2.386,0.157s0.773-1.683,0.158-2.385
		C54.778,39.81,50.662,35.395,47.517,35.395z"/>
	<path opacity="0.1" d="M25.786,33.931c0.693,0.626,1.763,0.573,2.388-0.12c2.083-2.301,4.787-4.397,5.674-4.398
		c0.405,0,1.442,1.121,2,1.723c1.158,1.25,2.469,2.668,4.227,2.799c2.14,0.162,3.708-1.577,5.097-3.11
		c0.716-0.79,1.799-1.984,2.35-2.03c0.909-0.069,3.719,2.143,5.917,4.649c0.615,0.702,1.684,0.773,2.386,0.157
		c0.702-0.615,0.773-1.683,0.158-2.385c-1.213-1.386-5.33-5.802-8.476-5.802c-0.088,0-0.176,0.003-0.263,0.011
		c-1.882,0.155-3.252,1.667-4.577,3.128c-0.648,0.714-1.816,2.067-2.34,2.009c-0.432-0.032-1.412-1.091-1.997-1.724
		c-1.218-1.316-2.598-2.808-4.481-2.808c-0.001,0-0.003,0-0.004,0c-2.97,0.003-7.011,4.22-8.178,5.512
		C25.039,32.236,25.093,33.305,25.786,33.931z"/>
</g>
</svg>
