<?xml version="1.0" encoding="utf-8"?>
<!-- Generator: Adobe Illustrator 16.0.0, SVG Export Plug-In . SVG Version: 6.00 Build 0)  -->
<!DOCTYPE svg PUBLIC "-//W3C//DTD SVG 1.1//EN" "http://www.w3.org/Graphics/SVG/1.1/DTD/svg11.dtd">
<svg version="1.1" id="Isolation_Mode" xmlns="http://www.w3.org/2000/svg" xmlns:xlink="http://www.w3.org/1999/xlink" x="0px"
	 y="0px" width="651px" height="1109px" viewBox="0 0 651 1109" enable-background="new 0 0 651 1109" xml:space="preserve">
<path opacity="0.05" d="M500.321,467.93c-45.17,0-90.321,0-137.613,0c-3.215,52.778-5.432,104.389-9.696,155.826
	c-10.317,124.434-21.083,248.881-59.175,368.902c-3.015,9.481-4.022,20.942-10.126,27.76c-7.553,8.423-19.475,12.949-29.507,19.161
	c-3.677-11.03-13.121-23.992-10.17-32.802c56.276-167.932,62.483-342.787,73.599-516.982c0.408-6.331-0.547-12.74-1.082-23.329
	c-29.058,0-56.413-0.618-83.736,0.18c-26.408,0.758-38.876-10.01-37.86-37.362c1.146-30.666,0.263-61.406,0.263-89.556
	c-22.458-14.979-64.445,10.012-62.577-30.721c1.585-34.616,38.605-11.973,62.629-25.39c0-14.387,0.262-32.713-0.072-51.023
	c-0.41-22.211,9.916-32.162,32.345-31.668c31.914,0.697,63.857,0.173,100.645,0.173c0-20.319,0.703-37.586-0.158-54.769
	c-1.229-24.241,9.885-34.48,33.69-33.53c17.427,0.697,34.897,0.135,56.441,0.135c0-26.885-0.199-49.811,0.075-72.731
	c0.189-16.249-3.33-37.018,21.724-36.295c24.865,0.714,19.949,21.893,20.327,37.752c0.515,21.924,0.127,43.864,0.127,71.253
	c20.117,0,37.344,0.718,54.488-0.167c25.264-1.312,37.208,9.072,35.58,35.046c-1.03,16.337-0.188,32.796-0.188,53.252
	c32.891,0,62.597,1.348,92.128-0.373c29.948-1.747,43.583,9.467,41.062,40.05c-1.238,15.069-0.209,30.332-0.209,42.84
	c22.438,14.472,62.011-10.342,62.44,27.158c0.442,38.036-39.016,14.892-62.44,28.628c0,24.174,0.063,51.474-0.013,78.768
	c-0.136,45.044-3.403,48.223-49.708,48.354c-26.473,0.077-52.935,0.015-78.322,0.015c0,52.66-3.72,103.33,0.723,153.272
	c11.651,130.82,21.253,262.235,67.179,387.416c3.047,8.313-7.237,21.497-11.324,32.413c-9.968-6.383-26.702-11.028-28.845-19.411
	c-18.625-72.578-39.908-145.097-50.15-219.05C517.697,691.972,510.984,581.655,500.321,467.93z M241.272,419.711
	c134.516,0,264.65,0,395.349,0c0-29.249,0-56.188,0-82.895c-133.39,0-264.301,0-395.349,0
	C241.272,366.024,241.272,392.108,241.272,419.711z M637.578,246.206c-134.285,0-264.45,0-396.076,0c0,14.628,0,27.189,0,40.643
	c133.193,0,264.303,0,396.076,0C637.578,272.586,637.578,260.686,637.578,246.206z M373.624,196.143c45.894,0,88.144,0,132.424,0
	c-0.643-14.377-1.146-25.863-1.671-37.528c-45.412,0-87.642,0-130.752,0C373.624,172.12,373.624,182.841,373.624,196.143z"/>
</svg>
