<?xml version="1.0" encoding="utf-8"?>
<!-- Generator: Adobe Illustrator 16.0.0, SVG Export Plug-In . SVG Version: 6.00 Build 0)  -->
<!DOCTYPE svg PUBLIC "-//W3C//DTD SVG 1.1//EN" "http://www.w3.org/Graphics/SVG/1.1/DTD/svg11.dtd">
<svg version="1.1" id="Layer_1" xmlns="http://www.w3.org/2000/svg" xmlns:xlink="http://www.w3.org/1999/xlink" x="0px" y="0px"
	 width="612px" height="211px" viewBox="0 0 612 211" enable-background="new 0 0 612 211" xml:space="preserve">
<g opacity="0.4">
	
		<line fill="none" stroke="#FFFFFF" stroke-width="0.4145" stroke-miterlimit="10" x1="-13.517" y1="-3.312" x2="-72.682" y2="214"/>
	<line fill="none" stroke="#FFFFFF" stroke-width="0.4145" stroke-miterlimit="10" x1="-6.629" y1="-3.312" x2="-65.794" y2="214"/>
	<line fill="none" stroke="#FFFFFF" stroke-width="0.4145" stroke-miterlimit="10" x1="0.259" y1="-3.312" x2="-58.906" y2="214"/>
	<line fill="none" stroke="#FFFFFF" stroke-width="0.4145" stroke-miterlimit="10" x1="7.147" y1="-3.312" x2="-52.018" y2="214"/>
	<line fill="none" stroke="#FFFFFF" stroke-width="0.4145" stroke-miterlimit="10" x1="14.035" y1="-3.312" x2="-45.13" y2="214"/>
	<line fill="none" stroke="#FFFFFF" stroke-width="0.4145" stroke-miterlimit="10" x1="20.923" y1="-3.312" x2="-38.242" y2="214"/>
	<line fill="none" stroke="#FFFFFF" stroke-width="0.4145" stroke-miterlimit="10" x1="27.811" y1="-3.312" x2="-31.354" y2="214"/>
	<line fill="none" stroke="#FFFFFF" stroke-width="0.4145" stroke-miterlimit="10" x1="34.699" y1="-3.312" x2="-24.466" y2="214"/>
	<line fill="none" stroke="#FFFFFF" stroke-width="0.4145" stroke-miterlimit="10" x1="41.587" y1="-3.312" x2="-17.578" y2="214"/>
	<line fill="none" stroke="#FFFFFF" stroke-width="0.4145" stroke-miterlimit="10" x1="48.475" y1="-3.312" x2="-10.69" y2="214"/>
	<line fill="none" stroke="#FFFFFF" stroke-width="0.4145" stroke-miterlimit="10" x1="55.362" y1="-3.312" x2="-3.802" y2="214"/>
	<line fill="none" stroke="#FFFFFF" stroke-width="0.4145" stroke-miterlimit="10" x1="62.25" y1="-3.312" x2="3.086" y2="214"/>
	<line fill="none" stroke="#FFFFFF" stroke-width="0.4145" stroke-miterlimit="10" x1="69.139" y1="-3.312" x2="9.974" y2="214"/>
	<line fill="none" stroke="#FFFFFF" stroke-width="0.4145" stroke-miterlimit="10" x1="76.026" y1="-3.312" x2="16.862" y2="214"/>
	<line fill="none" stroke="#FFFFFF" stroke-width="0.4145" stroke-miterlimit="10" x1="82.914" y1="-3.312" x2="23.75" y2="214"/>
	<line fill="none" stroke="#FFFFFF" stroke-width="0.4145" stroke-miterlimit="10" x1="89.802" y1="-3.312" x2="30.637" y2="214"/>
	<line fill="none" stroke="#FFFFFF" stroke-width="0.4145" stroke-miterlimit="10" x1="96.69" y1="-3.312" x2="37.525" y2="214"/>
	<line fill="none" stroke="#FFFFFF" stroke-width="0.4145" stroke-miterlimit="10" x1="103.578" y1="-3.312" x2="44.413" y2="214"/>
	<line fill="none" stroke="#FFFFFF" stroke-width="0.4145" stroke-miterlimit="10" x1="110.466" y1="-3.312" x2="51.301" y2="214"/>
	<line fill="none" stroke="#FFFFFF" stroke-width="0.4145" stroke-miterlimit="10" x1="117.354" y1="-3.312" x2="58.189" y2="214"/>
	<line fill="none" stroke="#FFFFFF" stroke-width="0.4145" stroke-miterlimit="10" x1="124.242" y1="-3.312" x2="65.077" y2="214"/>
	<line fill="none" stroke="#FFFFFF" stroke-width="0.4145" stroke-miterlimit="10" x1="131.13" y1="-3.312" x2="71.965" y2="214"/>
	<line fill="none" stroke="#FFFFFF" stroke-width="0.4145" stroke-miterlimit="10" x1="138.018" y1="-3.312" x2="78.853" y2="214"/>
	<line fill="none" stroke="#FFFFFF" stroke-width="0.4145" stroke-miterlimit="10" x1="144.906" y1="-3.312" x2="85.741" y2="214"/>
	<line fill="none" stroke="#FFFFFF" stroke-width="0.4145" stroke-miterlimit="10" x1="151.793" y1="-3.312" x2="92.629" y2="214"/>
	<line fill="none" stroke="#FFFFFF" stroke-width="0.4145" stroke-miterlimit="10" x1="158.682" y1="-3.312" x2="99.517" y2="214"/>
	
		<line fill="none" stroke="#FFFFFF" stroke-width="0.4145" stroke-miterlimit="10" x1="165.569" y1="-3.312" x2="106.405" y2="214"/>
	
		<line fill="none" stroke="#FFFFFF" stroke-width="0.4145" stroke-miterlimit="10" x1="172.458" y1="-3.312" x2="113.293" y2="214"/>
	
		<line fill="none" stroke="#FFFFFF" stroke-width="0.4145" stroke-miterlimit="10" x1="179.346" y1="-3.312" x2="120.181" y2="214"/>
	
		<line fill="none" stroke="#FFFFFF" stroke-width="0.4145" stroke-miterlimit="10" x1="186.233" y1="-3.312" x2="127.069" y2="214"/>
	
		<line fill="none" stroke="#FFFFFF" stroke-width="0.4145" stroke-miterlimit="10" x1="193.121" y1="-3.312" x2="133.957" y2="214"/>
	
		<line fill="none" stroke="#FFFFFF" stroke-width="0.4145" stroke-miterlimit="10" x1="200.009" y1="-3.312" x2="140.845" y2="214"/>
	
		<line fill="none" stroke="#FFFFFF" stroke-width="0.4145" stroke-miterlimit="10" x1="206.897" y1="-3.312" x2="147.732" y2="214"/>
	
		<line fill="none" stroke="#FFFFFF" stroke-width="0.4145" stroke-miterlimit="10" x1="213.785" y1="-3.312" x2="154.621" y2="214"/>
	
		<line fill="none" stroke="#FFFFFF" stroke-width="0.4145" stroke-miterlimit="10" x1="220.673" y1="-3.312" x2="161.508" y2="214"/>
	
		<line fill="none" stroke="#FFFFFF" stroke-width="0.4145" stroke-miterlimit="10" x1="227.561" y1="-3.312" x2="168.396" y2="214"/>
	
		<line fill="none" stroke="#FFFFFF" stroke-width="0.4145" stroke-miterlimit="10" x1="234.449" y1="-3.312" x2="175.284" y2="214"/>
	
		<line fill="none" stroke="#FFFFFF" stroke-width="0.4145" stroke-miterlimit="10" x1="241.337" y1="-3.312" x2="182.172" y2="214"/>
	<line fill="none" stroke="#FFFFFF" stroke-width="0.4145" stroke-miterlimit="10" x1="248.225" y1="-3.312" x2="189.06" y2="214"/>
	
		<line fill="none" stroke="#FFFFFF" stroke-width="0.4145" stroke-miterlimit="10" x1="255.112" y1="-3.312" x2="195.948" y2="214"/>
	<line fill="none" stroke="#FFFFFF" stroke-width="0.4145" stroke-miterlimit="10" x1="262" y1="-3.312" x2="202.836" y2="214"/>
	
		<line fill="none" stroke="#FFFFFF" stroke-width="0.4145" stroke-miterlimit="10" x1="268.889" y1="-3.312" x2="209.724" y2="214"/>
	
		<line fill="none" stroke="#FFFFFF" stroke-width="0.4145" stroke-miterlimit="10" x1="275.776" y1="-3.312" x2="216.612" y2="214"/>
	<line fill="none" stroke="#FFFFFF" stroke-width="0.4145" stroke-miterlimit="10" x1="282.665" y1="-3.312" x2="223.5" y2="214"/>
	
		<line fill="none" stroke="#FFFFFF" stroke-width="0.4145" stroke-miterlimit="10" x1="289.552" y1="-3.312" x2="230.388" y2="214"/>
	<line fill="none" stroke="#FFFFFF" stroke-width="0.4145" stroke-miterlimit="10" x1="296.44" y1="-3.312" x2="237.275" y2="214"/>
	
		<line fill="none" stroke="#FFFFFF" stroke-width="0.4145" stroke-miterlimit="10" x1="303.328" y1="-3.312" x2="244.164" y2="214"/>
	
		<line fill="none" stroke="#FFFFFF" stroke-width="0.4145" stroke-miterlimit="10" x1="310.217" y1="-3.312" x2="251.052" y2="214"/>
	
		<line fill="none" stroke="#FFFFFF" stroke-width="0.4145" stroke-miterlimit="10" x1="317.104" y1="-3.312" x2="257.939" y2="214"/>
	
		<line fill="none" stroke="#FFFFFF" stroke-width="0.4145" stroke-miterlimit="10" x1="323.992" y1="-3.312" x2="264.827" y2="214"/>
	<line fill="none" stroke="#FFFFFF" stroke-width="0.4145" stroke-miterlimit="10" x1="330.88" y1="-3.312" x2="271.715" y2="214"/>
	
		<line fill="none" stroke="#FFFFFF" stroke-width="0.4145" stroke-miterlimit="10" x1="337.769" y1="-3.312" x2="278.604" y2="214"/>
	
		<line fill="none" stroke="#FFFFFF" stroke-width="0.4145" stroke-miterlimit="10" x1="344.656" y1="-3.312" x2="285.491" y2="214"/>
	
		<line fill="none" stroke="#FFFFFF" stroke-width="0.4145" stroke-miterlimit="10" x1="351.544" y1="-3.312" x2="292.379" y2="214"/>
	
		<line fill="none" stroke="#FFFFFF" stroke-width="0.4145" stroke-miterlimit="10" x1="358.432" y1="-3.312" x2="299.267" y2="214"/>
	
		<line fill="none" stroke="#FFFFFF" stroke-width="0.4145" stroke-miterlimit="10" x1="365.319" y1="-3.312" x2="306.155" y2="214"/>
	
		<line fill="none" stroke="#FFFFFF" stroke-width="0.4145" stroke-miterlimit="10" x1="372.208" y1="-3.312" x2="313.043" y2="214"/>
	
		<line fill="none" stroke="#FFFFFF" stroke-width="0.4145" stroke-miterlimit="10" x1="379.096" y1="-3.312" x2="319.931" y2="214"/>
	
		<line fill="none" stroke="#FFFFFF" stroke-width="0.4145" stroke-miterlimit="10" x1="385.983" y1="-3.312" x2="326.819" y2="214"/>
	
		<line fill="none" stroke="#FFFFFF" stroke-width="0.4145" stroke-miterlimit="10" x1="392.872" y1="-3.312" x2="333.706" y2="214"/>
	
		<line fill="none" stroke="#FFFFFF" stroke-width="0.4145" stroke-miterlimit="10" x1="399.759" y1="-3.312" x2="340.595" y2="214"/>
	
		<line fill="none" stroke="#FFFFFF" stroke-width="0.4145" stroke-miterlimit="10" x1="406.647" y1="-3.312" x2="347.482" y2="214"/>
	<line fill="none" stroke="#FFFFFF" stroke-width="0.4145" stroke-miterlimit="10" x1="413.536" y1="-3.312" x2="354.37" y2="214"/>
	
		<line fill="none" stroke="#FFFFFF" stroke-width="0.4145" stroke-miterlimit="10" x1="420.423" y1="-3.312" x2="361.259" y2="214"/>
	
		<line fill="none" stroke="#FFFFFF" stroke-width="0.4145" stroke-miterlimit="10" x1="427.312" y1="-3.312" x2="368.146" y2="214"/>
	
		<line fill="none" stroke="#FFFFFF" stroke-width="0.4145" stroke-miterlimit="10" x1="434.199" y1="-3.312" x2="375.034" y2="214"/>
	
		<line fill="none" stroke="#FFFFFF" stroke-width="0.4145" stroke-miterlimit="10" x1="441.087" y1="-3.312" x2="381.923" y2="214"/>
	
		<line fill="none" stroke="#FFFFFF" stroke-width="0.4145" stroke-miterlimit="10" x1="447.976" y1="-3.312" x2="388.811" y2="214"/>
	
		<line fill="none" stroke="#FFFFFF" stroke-width="0.4145" stroke-miterlimit="10" x1="454.863" y1="-3.312" x2="395.698" y2="214"/>
	
		<line fill="none" stroke="#FFFFFF" stroke-width="0.4145" stroke-miterlimit="10" x1="461.751" y1="-3.312" x2="402.586" y2="214"/>
	
		<line fill="none" stroke="#FFFFFF" stroke-width="0.4145" stroke-miterlimit="10" x1="468.639" y1="-3.312" x2="409.474" y2="214"/>
	
		<line fill="none" stroke="#FFFFFF" stroke-width="0.4145" stroke-miterlimit="10" x1="475.526" y1="-3.312" x2="416.362" y2="214"/>
	<line fill="none" stroke="#FFFFFF" stroke-width="0.4145" stroke-miterlimit="10" x1="482.415" y1="-3.312" x2="423.25" y2="214"/>
	
		<line fill="none" stroke="#FFFFFF" stroke-width="0.4145" stroke-miterlimit="10" x1="489.303" y1="-3.312" x2="430.138" y2="214"/>
	<line fill="none" stroke="#FFFFFF" stroke-width="0.4145" stroke-miterlimit="10" x1="496.19" y1="-3.312" x2="437.025" y2="214"/>
	
		<line fill="none" stroke="#FFFFFF" stroke-width="0.4145" stroke-miterlimit="10" x1="503.079" y1="-3.312" x2="443.914" y2="214"/>
	
		<line fill="none" stroke="#FFFFFF" stroke-width="0.4145" stroke-miterlimit="10" x1="509.966" y1="-3.312" x2="450.802" y2="214"/>
	
		<line fill="none" stroke="#FFFFFF" stroke-width="0.4145" stroke-miterlimit="10" x1="516.854" y1="-3.312" x2="457.689" y2="214"/>
	
		<line fill="none" stroke="#FFFFFF" stroke-width="0.4145" stroke-miterlimit="10" x1="523.742" y1="-3.312" x2="464.578" y2="214"/>
	
		<line fill="none" stroke="#FFFFFF" stroke-width="0.4145" stroke-miterlimit="10" x1="530.631" y1="-3.312" x2="471.466" y2="214"/>
	
		<line fill="none" stroke="#FFFFFF" stroke-width="0.4145" stroke-miterlimit="10" x1="537.519" y1="-3.312" x2="478.354" y2="214"/>
	
		<line fill="none" stroke="#FFFFFF" stroke-width="0.4145" stroke-miterlimit="10" x1="544.406" y1="-3.312" x2="485.241" y2="214"/>
	<line fill="none" stroke="#FFFFFF" stroke-width="0.4145" stroke-miterlimit="10" x1="551.294" y1="-3.312" x2="492.13" y2="214"/>
	
		<line fill="none" stroke="#FFFFFF" stroke-width="0.4145" stroke-miterlimit="10" x1="558.182" y1="-3.312" x2="499.017" y2="214"/>
	<line fill="none" stroke="#FFFFFF" stroke-width="0.4145" stroke-miterlimit="10" x1="565.07" y1="-3.312" x2="505.905" y2="214"/>
	
		<line fill="none" stroke="#FFFFFF" stroke-width="0.4145" stroke-miterlimit="10" x1="571.958" y1="-3.312" x2="512.793" y2="214"/>
	
		<line fill="none" stroke="#FFFFFF" stroke-width="0.4145" stroke-miterlimit="10" x1="578.846" y1="-3.312" x2="519.681" y2="214"/>
	
		<line fill="none" stroke="#FFFFFF" stroke-width="0.4145" stroke-miterlimit="10" x1="585.733" y1="-3.312" x2="526.568" y2="214"/>
	
		<line fill="none" stroke="#FFFFFF" stroke-width="0.4145" stroke-miterlimit="10" x1="592.622" y1="-3.312" x2="533.457" y2="214"/>
	<line fill="none" stroke="#FFFFFF" stroke-width="0.4145" stroke-miterlimit="10" x1="599.51" y1="-3.312" x2="540.345" y2="214"/>
	
		<line fill="none" stroke="#FFFFFF" stroke-width="0.4145" stroke-miterlimit="10" x1="606.397" y1="-3.312" x2="547.232" y2="214"/>
	
		<line fill="none" stroke="#FFFFFF" stroke-width="0.4145" stroke-miterlimit="10" x1="613.286" y1="-3.312" x2="554.121" y2="214"/>
	
		<line fill="none" stroke="#FFFFFF" stroke-width="0.4145" stroke-miterlimit="10" x1="620.174" y1="-3.312" x2="561.009" y2="214"/>
	
		<line fill="none" stroke="#FFFFFF" stroke-width="0.4145" stroke-miterlimit="10" x1="627.062" y1="-3.312" x2="567.896" y2="214"/>
	
		<line fill="none" stroke="#FFFFFF" stroke-width="0.4145" stroke-miterlimit="10" x1="633.949" y1="-3.312" x2="574.784" y2="214"/>
	
		<line fill="none" stroke="#FFFFFF" stroke-width="0.4145" stroke-miterlimit="10" x1="640.838" y1="-3.312" x2="581.673" y2="214"/>
	
		<line fill="none" stroke="#FFFFFF" stroke-width="0.4145" stroke-miterlimit="10" x1="647.726" y1="-3.312" x2="588.561" y2="214"/>
	
		<line fill="none" stroke="#FFFFFF" stroke-width="0.4145" stroke-miterlimit="10" x1="654.613" y1="-3.312" x2="595.448" y2="214"/>
	
		<line fill="none" stroke="#FFFFFF" stroke-width="0.4145" stroke-miterlimit="10" x1="661.501" y1="-3.312" x2="602.336" y2="214"/>
	
		<line fill="none" stroke="#FFFFFF" stroke-width="0.4145" stroke-miterlimit="10" x1="668.389" y1="-3.312" x2="609.224" y2="214"/>
	
		<line fill="none" stroke="#FFFFFF" stroke-width="0.4145" stroke-miterlimit="10" x1="675.277" y1="-3.312" x2="616.112" y2="214"/>
	<line fill="none" stroke="#FFFFFF" stroke-width="0.4145" stroke-miterlimit="10" x1="682.165" y1="-3.312" x2="623" y2="214"/>
</g>
</svg>
