<?xml version="1.0" encoding="utf-8"?>
<!-- Generator: Adobe Illustrator 16.0.0, SVG Export Plug-In . SVG Version: 6.00 Build 0)  -->
<!DOCTYPE svg PUBLIC "-//W3C//DTD SVG 1.1//EN" "http://www.w3.org/Graphics/SVG/1.1/DTD/svg11.dtd">
<svg version="1.1" id="Gesture_Hands" xmlns="http://www.w3.org/2000/svg" xmlns:xlink="http://www.w3.org/1999/xlink" x="0px"
	 y="0px" width="68.043px" height="263.118px" viewBox="0 0 68.043 263.118" enable-background="new 0 0 68.043 263.118"
	 xml:space="preserve">
<g>
	<path fill="#4B2E83" d="M58.633,132.621c-0.272,0-0.963,0.094-1.673,0.314c-0.181-2.415-2.204-4.324-4.665-4.324
		c-1.122,0-2.153,0.397-2.96,1.059c-0.659-1.786-2.419-3.063-4.431-3.063c-1.172,0-2.383,0.358-3.383,1.05v-12.078
		c0-2.998-1.711-5.012-4.318-5.012c-2.619,0-4.5,2.108-4.5,5.015l0.075,28.23l-3.845-4.04c-1.035-1.037-2.404-1.608-3.855-1.608
		c-1.453,0-2.82,0.571-3.856,1.607c-2.142,2.142-2.146,5.621-0.048,7.717c0.035,0.038,3.521,3.926,8.496,8.9l0.809,0.812
		c4.717,4.742,8.791,8.837,16.942,8.837c8.44,0,11.265-4.235,13.434-8.573c2.086-4.174,2.11-20.154,2.11-20.833
		C62.965,134.495,60.94,132.621,58.633,132.621z M59.061,156.566c-2.042,4.085-4.327,7.466-11.64,7.466
		c-7.318,0-10.938-3.639-15.521-8.246l-0.812-0.816c-4.934-4.933-8.386-8.782-8.458-8.86c-0.655-0.656-1.017-1.529-1.015-2.459
		c0.003-0.929,0.367-1.804,1.025-2.462c0.656-0.657,1.523-1.021,2.439-1.021c0.917,0,1.783,0.363,2.424,1.003l5.566,5.842
		c0.284,0.298,0.721,0.393,1.1,0.239c0.381-0.152,0.63-0.522,0.629-0.932l-0.07-30.741c0-1.387,0.621-3.007,2.478-3.007
		c2.184,0,2.315,2.302,2.315,3.007v18.713c0,0.555,0.447,1.003,1,1.003s1-0.448,1-1.003v-2.673c0-2.207,1.99-3.007,3.334-3.007
		c1.475,0,2.666,1.199,2.666,2.673v3.676c0,0.554,0.447,1.002,1,1.002c0.555,0,1-0.448,1-1.002v-1.671
		c0-1.475,1.025-2.674,2.5-2.674s2.5,1.199,2.5,2.674v4.344c0,0.554,0.447,1.003,1,1.003c0.555,0,1-0.449,1-1.003v-2.553
		c1-0.195,1.414-0.455,1.885-0.455c1.197,0,2.44,0.975,2.44,2.005C60.847,141.12,60.618,153.452,59.061,156.566z"/>
	<path fill="#4B2E83" d="M29.238,110.059c0-0.668-0.668-1-1.337-1H7.521v-2.503c0-0.405-0.079-0.771-0.453-0.926
		c-0.375-0.155-0.808-0.069-1.094,0.217l-3.219,3.716c-0.391,0.392-0.35,0.945,0.042,1.336l3.321,3.716
		c0.287,0.287,0.564,0.373,0.938,0.217s0.464-0.521,0.464-0.926v-2.849h20.38C28.57,111.059,29.238,110.727,29.238,110.059z"/>
	<path fill="#4B2E83" d="M11.193,105.059h20.328v2.166c0,0.405,0.104,0.771,0.479,0.926s0.653,0.069,0.94-0.217l3.976-3.716
		c0.392-0.392,0.395-0.945,0.003-1.337l-3.968-3.716c-0.286-0.287-0.577-0.373-0.952-0.218s-0.479,0.521-0.479,0.926v2.186H11.193
		c-0.668,0-1.336,0.832-1.336,1.5S10.525,105.059,11.193,105.059z"/>
</g>
<g>
	<g>
		<path fill="#4B2E83" d="M52.964,209.059h-4.345c-0.553,0-1.098-0.363-1.098-0.918v-4.344c0-0.555,0.447-1.003,1-1.003
			c0.555,0,1,0.448,1,1.003v3.262h3.442c0.553,0,1.002,0.445,1.002,1S53.517,209.059,52.964,209.059z"/>
	</g>
	<path fill="#4B2E83" d="M55.959,225.518c-0.271,0-0.963,0.093-1.672,0.313c-0.182-2.415-2.205-4.324-4.665-4.324
		c-1.107,0-2.127,0.388-2.929,1.033c-0.593-1.811-2.16-3.038-4.101-3.038c-1.285,0-2.429,0.529-3.244,1.393l-0.205-5.758
		c0.813-0.584,1.52-1.304,2.1-2.12c1.637,2.303,4.319,3.812,7.353,3.812c4.976,0,9.022-4.047,9.022-9.022s-4.047-9.022-9.022-9.022
		c-3.033,0-5.715,1.509-7.352,3.811c-1.637-2.302-4.318-3.811-7.352-3.811c-4.975,0-9.021,4.047-9.021,9.022
		c0,3.459,1.963,6.457,4.828,7.969l0.303,14.124c-0.54,0.294-1.359,0.83-2.408,1.782c-3.628,3.297-4.815,11.273-0.719,17.446
		c4.562,6.873,9.906,9.806,17.873,9.806c8.44,0,11.264-4.236,13.433-8.574c2.087-4.174,2.111-20.154,2.111-20.832
		C60.292,227.391,58.267,225.518,55.959,225.518z M48.596,200.79c3.87,0,7.018,3.148,7.018,7.018s-3.147,7.018-7.018,7.018
		c-2.731,0-5.097-1.572-6.256-3.856c-0.483-0.95-0.762-2.023-0.762-3.161c0-1.135,0.277-2.203,0.758-3.153
		C43.493,202.366,45.861,200.79,48.596,200.79z M56.388,249.463c-2.043,4.084-4.327,7.466-11.64,7.466
		c-7.309,0-12.003-2.582-16.201-8.908c-2.447-3.687-3.51-11.306,0.396-14.854c0.422-0.384,0.794-0.685,1.109-0.917l0.149,6.99
		c0.012,0.554,0.443,1.007,1.024,0.98c0.554-0.012,0.993-0.47,0.981-1.023l-0.658-30.722c0-1.771,1.1-3.007,2.676-3.007
		c1.575,0,2.676,1.236,2.677,3.043l0.668,18.713c0.019,0.515,0.423,0.931,0.936,0.965c0.498,0.031,0.969-0.326,1.055-0.834
		l0.508-3.008c0.009-0.055,0.014-0.11,0.014-0.166c0-1.524,0.868-2.674,2.3-2.674c1.615,0,2.141,1.386,2.141,2.674v2.005
		c0,0.554,0.66,1.002,1.213,1.002c0.555,0,1.109-0.448,1.109-1.002c0-1.475,0.864-2.674,2.338-2.674c1.475,0,2.34,1.199,2.34,2.674
		v4.344c0,0.555,0.447,1.003,1,1.003s1-0.448,1-1.003v-2.553c1-0.195,1.576-0.454,2.048-0.454c1.197,0,2.522,0.974,2.522,2.005
		C58.092,234.016,57.944,246.348,56.388,249.463z"/>
</g>
<g>
	<path fill="#4B2E83" d="M57.964,37.719c-0.271,0-0.962,0.094-1.672,0.314c-0.182-2.415-2.204-4.324-4.665-4.324
		c-1.123,0-2.154,0.397-2.961,1.059c-0.659-1.787-2.584-3.064-4.598-3.064c-1.17,0-2.547,0.358-3.547,1.051V20.677
		c0-2.998-1.545-5.012-4.152-5.012c-2.619,0-4.417,2.108-4.417,5.015l0.116,28.229l-3.824-4.04
		c-1.035-1.037-2.393-1.607-3.845-1.607s-2.815,0.571-3.851,1.607c-2.143,2.142-2.144,5.621-0.046,7.716
		c0.034,0.039,3.522,3.926,8.497,8.9l0.811,0.812c4.717,4.742,8.791,8.838,16.942,8.838c8.44,0,11.264-4.236,13.433-8.574
		c2.087-4.173,2.111-20.154,2.111-20.832C62.297,39.593,60.271,37.719,57.964,37.719z M58.393,61.665
		c-2.042,4.084-4.327,7.466-11.64,7.466c-7.318,0-10.938-3.639-15.521-8.247l-0.812-0.816c-4.934-4.933-8.386-8.782-8.459-8.86
		c-0.655-0.656-1.016-1.529-1.014-2.458c0.003-0.93,0.366-1.804,1.025-2.462c0.656-0.658,1.523-1.02,2.439-1.02
		s1.783,0.362,2.423,1.002l5.567,5.843c0.284,0.297,0.721,0.392,1.099,0.239c0.382-0.153,0.63-0.522,0.63-0.933l-0.07-30.741
		c0-1.387,0.455-3.007,2.311-3.007c2.185,0,2.15,2.302,2.15,3.007V39.39c0,0.554,0.445,1.002,1,1.002c0.553,0,1-0.449,1-1.002
		v-2.673c0-2.207,1.99-3.008,3.334-3.008c1.475,0,2.666,1.2,2.666,2.673v3.676c0,0.554,0.447,1.002,1,1.002s1-0.449,1-1.002v-1.671
		c0-1.474,1.025-2.673,2.5-2.673s2.5,1.199,2.5,2.673v4.344c0,0.554,0.447,1.002,1,1.002s1-0.449,1-1.002v-2.552
		c1-0.196,1.578-0.455,2.051-0.455c1.197,0,2.523,0.975,2.523,2.005C60.096,46.218,59.949,58.55,58.393,61.665z"/>
	<path fill="#4B2E83" d="M22.889,11.059h2.633V31.37c0,0.668,0.331,1.336,1,1.336c0.668,0,1-0.668,1-1.336V11.059h3.387
		c0.406,0,0.771-0.113,0.927-0.488c0.155-0.375,0.069-0.741-0.218-1.027l-4.01-3.977c-0.391-0.392-1.025-0.375-1.418,0.017
		l-4.01,4.018c-0.286,0.287-0.372,0.591-0.217,0.966C22.118,10.941,22.484,11.059,22.889,11.059z"/>
	<path fill="#4B2E83" d="M20.924,40.433l4.011-4.01c0.286-0.287,0.372-1.044,0.218-1.418c-0.156-0.375-0.521-0.945-0.927-0.945
		h-2.704V14.662c0-0.668-0.831-1.337-1.5-1.337c-0.668,0-1.5,0.668-1.5,1.337v19.397h-2.316c-0.404,0-0.77,0.57-0.926,0.945
		c-0.154,0.374-0.068,0.969,0.218,1.255l4.01,4.091C19.898,40.743,20.533,40.825,20.924,40.433z"/>
</g>
</svg>
