<?xml version="1.0" encoding="utf-8"?>
<!-- Generator: Adobe Illustrator 16.0.0, SVG Export Plug-In . SVG Version: 6.00 Build 0)  -->
<!DOCTYPE svg PUBLIC "-//W3C//DTD SVG 1.1//EN" "http://www.w3.org/Graphics/SVG/1.1/DTD/svg11.dtd">
<svg version="1.1" id="Gesture_Hands" xmlns="http://www.w3.org/2000/svg" xmlns:xlink="http://www.w3.org/1999/xlink" x="0px"
	 y="0px" width="124.521px" height="415.059px" viewBox="0 0 124.521 415.059" enable-background="new 0 0 124.521 415.059"
	 xml:space="preserve">
<g>
	<g>
		<path fill="#4B2E83" d="M65.205,100.525c-8.274,0-13.825-3.046-18.562-10.184c-4.257-6.411-3.023-14.695,0.745-18.12
			c1.091-0.991,1.938-1.548,2.499-1.852l-0.479-22.229c0-2.99,2.088-5.228,4.855-5.228c1.73,0,3.196,0.876,4.049,2.259l0.042-1.594
			c0-2.697,1.452-4.83,4.13-4.83c2.625,0,4.037,2.133,4.037,4.858v1.725c3-1.044,2.957-1.725,4.463-1.725
			c2.682,0,5.183,2.181,5.183,4.859l-0.379,17.561c0.447-0.135,0.969-0.207,1.313-0.207c2.299,0,4.206,1.868,4.206,4.164
			c0,0.705-0.005,17.303-2.171,21.637C76.884,96.126,73.972,100.525,65.205,100.525z M49.938,72.812
			c-0.327,0.242-0.713,0.553-1.148,0.95c-4.057,3.686-2.953,11.599-0.412,15.429c4.36,6.572,9.237,9.252,16.828,9.252
			c7.594,0,9.968-3.512,12.089-7.754c1.619-3.236,1.973-16.044,1.973-20.706c0-1.147-0.935-2.082-2.082-2.082
			c-0.417,0-1.003,0.227-1.302,0.404c-0.018,0.753-0.081,2.523-0.089,2.756c-0.019,0.574-0.478,1.014-1.073,1.005
			c-0.574-0.019-0.9-0.499-0.883-1.072l0.633-22.56c0-1.499-1.277-2.745-2.808-2.745c-1.572,0-2.967,1.298-2.967,2.777
			l-0.877,17.232c-0.028,0.555-0.44,1.162-1.18,1.162c-0.74,0-1.118-0.824-1.118-1.388V43.606c0-1.583-1.017-2.776-2.498-2.776
			c-1.509,0-2.639,1.22-2.639,2.776l-0.623,23.976c-0.018,0.563-0.463,1.011-1.024,1.013c-0.558,0.012-1.019-0.443-1.038-1.005
			l-0.67-19.436c-0.002-1.541-0.867-3.159-2.769-3.159c-1.633,0-2.772,1.284-2.772,3.124l0.689,31.908
			c0.01,0.575-0.446,1.051-1.021,1.064c-0.591-0.016-1.052-0.444-1.065-1.019L49.938,72.812z"/>
	</g>
	<path fill="#4B2E83" d="M67.856,21.352l-4.165-4.164c-0.406-0.407-1.064-0.407-1.472,0l-4.164,4.164
		c-0.3,0.298-0.388,0.211-0.227,0.6c0.162,0.39,0.541,0.107,0.96,0.107h1.732v11.482c0,0.694,1.305,1.388,2,1.388
		c0.694,0,2-0.693,2-1.388V22.059h2.598c0.423,0,0.802,0.282,0.964-0.107C68.244,21.563,68.152,21.65,67.856,21.352z"/>
	<path fill="#4B2E83" d="M77.574,28.293l-4.165-4.165c-0.406-0.407-1.065-0.407-1.473,0l-4.164,4.165
		c-0.297,0.297-0.388,0.74-0.226,1.129c0.161,0.39,0.54,0.637,0.962,0.637h2.013v6.953c0,0.694,1.305,1.388,2,1.388s2-0.694,2-1.388
		v-6.953h2.316c0.421,0,0.801-0.247,0.962-0.637C77.961,29.034,77.872,28.591,77.574,28.293z"/>
	<path fill="#4B2E83" d="M58.139,28.293l-4.165-4.165c-0.406-0.407-1.066-0.407-1.472,0l-4.166,4.165
		c-0.297,0.297-0.387,0.74-0.227,1.129c0.162,0.39,0.541,0.637,0.963,0.637h2.449v6.953c0,0.694,0.305,1.388,1,1.388
		c0.694,0,1-0.694,1-1.388v-6.953h3.881c0.42,0,0.802-0.247,0.961-0.637C58.524,29.034,58.436,28.591,58.139,28.293z"/>
</g>
<path fill="#4B2E83" d="M85.851,148.073c0-4.299-2.883-7.978-6.97-9.051c-0.367-4.83-4.418-8.649-9.343-8.649
	c-0.257,0-0.521,0.013-0.792,0.038c-1.631-2.999-4.782-4.896-8.232-4.896c-2.904,0-5.616,1.341-7.389,3.621
	c-0.549-0.1-1.096-0.15-1.635-0.15c-5.166,0-9.369,4.204-9.369,9.372c0,3.461,1.891,6.481,4.688,8.104l0.318,14.841
	c-0.561,0.306-1.412,0.862-2.5,1.852c-3.769,3.424-5.002,11.709-0.748,18.12c4.738,7.138,10.29,10.184,18.562,10.184
	c8.768,0,11.701-4.4,13.954-8.904c1.915-3.831,2.146-6.994,2.65-13.924c0.069-0.963,0.146-1.999,0.23-3.121
	c0.236-3.062,0.472-6.083,0.681-8.74C83.405,155.383,85.851,152.012,85.851,148.073z M77.202,165.346
	c-0.087,1.127-0.163,2.166-0.234,3.132c-0.484,6.647-0.706,9.681-2.437,13.143c-2.119,4.242-4.493,7.753-12.09,7.753
	c-7.591,0-12.465-2.68-16.826-9.251c-2.541-3.829-3.645-11.743,0.412-15.429c0.438-0.398,0.823-0.71,1.152-0.952l0.155,7.434
	c0.011,0.567,0.622,1.192,1.063,1.192c0.439,0,1.03-0.651,1.018-1.227l-0.682-32.07c0-1.838,1.142-3.102,2.777-3.102
	c1.638,0,2.781,1.328,2.781,3.204l0.693,19.522c0.021,0.561,0.52,1.178,1.047,1.178c0.525,0,1.021-0.626,1.035-1.188l0.606-24.147
	c0-1.558,0.96-2.776,2.47-2.776c1.48,0,2.377,1.194,2.377,2.776v21.866c0,0.563,0.658,1.388,1.266,1.388
	c0.605,0,1.122-0.606,1.15-1.162l0.925-17.233c0-1.479,1.407-2.776,2.979-2.776c1.53,0,2.791,1.246,2.791,2.745l-0.688,22.56
	c-0.018,0.562,0.417,1.034,0.979,1.071c0.548,0.033,1.05-0.379,1.104-0.938l1.388-14.229c0.004-0.034,0.005-0.068,0.005-0.101
	c0-1.149,0.936-2.084,2.083-2.084c1.136,0,2.062,0.914,2.082,2.046C78.531,148.375,77.867,156.702,77.202,165.346z M80.146,154.363
	c0.308-3.897,0.52-6.553,0.52-6.553c0.001-0.028,0.004-0.056,0.004-0.083c0-2.297-1.869-4.166-4.166-4.166
	c-1.147,0-2.187,0.467-2.941,1.22l0.165-5.385c0-2.679-2.444-4.858-5.124-4.858c-1.508,0-3.082,0.68-4.082,1.724v-1.724
	c0-2.724-1.793-4.858-4.422-4.858c-2.678,0-4.638,2.135-4.638,4.831l0.026,1.567c-0.858-1.368-2.285-2.234-4.008-2.234
	c-2.773,0-4.846,2.238-4.846,5.229l0.111,4.812c-1.558-1.338-2.547-3.317-2.547-5.527c0-4.02,3.271-7.29,7.289-7.29
	c0.592,0,1.205,0.081,1.822,0.24c0.43,0.112,0.884-0.064,1.13-0.434c1.357-2.051,3.628-3.276,6.073-3.276
	c2.892,0,5.511,1.711,6.674,4.362c0.193,0.438,0.662,0.69,1.127,0.608c0.442-0.074,0.844-0.111,1.224-0.111
	c4.02,0,7.289,3.27,7.288,7.281c-0.001,0.019-0.005,0.095-0.005,0.114c-0.008,0.515,0.361,0.958,0.868,1.044
	c3.521,0.589,6.08,3.608,6.08,7.178C83.77,150.755,82.309,153.096,80.146,154.363z"/>
<g>
	<path fill="#4B2E83" d="M90.796,248.734c-0.584-1.609-2.198-2.689-4.015-2.689c-0.512,0-1.013,0.087-1.485,0.26
		c-0.44,0.16-0.936,0.46-1.385,0.813c-0.786-1.705-2.511-2.825-4.411-2.825c-0.567,0-1.126,0.099-1.661,0.294
		c-1.067,0.387-1.946,1.121-2.518,2.084c-0.906-1.068-2.258-1.723-3.709-1.723c-0.566,0-1.126,0.099-1.662,0.294
		c-1.263,0.459-2.372,1.354-3.04,2.457c-0.212,0.351-0.378,0.718-0.498,1.096c-1.062-1.641-2.279-3.329-3.416-4.467
		c-2.074-2.073-5.117-4.546-7.831-4.546c-0.478,0-0.936,0.078-1.355,0.229c-0.15,0.055-0.296-0.37-0.438-0.302
		c-3.271-2.604-7.422-4.65-11.935-4.65c-0.245,0-0.915,0-0.915,0v0.722v-2.429c0-0.421-0.143-0.801-0.533-0.962
		c-0.388-0.161-0.869-0.071-1.166,0.226l-4.094,4.164c-0.407,0.407-0.37,1.066,0.037,1.474l4.181,4.164
		c0.298,0.299,0.646,0.388,1.036,0.226c0.389-0.161,0.539-0.54,0.539-0.962v-2.622c0,0,0.67,0,0.915,0
		c3.731,0,7.163,1.129,9.915,3.221c-0.113,0.221-0.219,0.387-0.299,0.629c-0.452,1.384-0.227,2.878,0.622,4.151
		c0.646,0.969,1.505,1.527,2.413,2.136c1.052,0.706,2.216,1.481,3.425,3.093c0.149,0.884,0.236,1.786,0.236,2.716
		c0,3.098-0.878,5.976-2.386,8.427c-1.806,0.313-3.389,1.491-4.18,3.191c-0.263,0.562-0.422,1.142-0.493,1.724
		c-0.765,0.529-1.569,1-2.423,1.396l1.301,2.41c0.532-0.253,1.047-0.537,1.552-0.836c0.528,1.222,1.472,2.26,2.751,2.857
		c0.047,0.023,4.828,2.581,11.452,5.669l1.081,0.426c4.244,1.99,8.25,3.791,12.896,3.791h0.002c2.21,0,4.427-0.332,6.77-1.186
		c8.238-2.998,9.49-8.095,10.066-13.099C96.692,264.96,91.038,249.395,90.796,248.734z M94.068,269.577
		c-0.542,4.712-1.571,8.783-8.707,11.383c-2.113,0.768-4.095,1.1-6.06,1.1H79.3c-4.18,0-7.81-1.664-12.011-3.637l-1.086-0.488
		c-6.568-3.062-11.302-5.584-11.401-5.633c-1.802-0.84-2.577-2.992-1.733-4.804c0.6-1.283,1.842-2.078,3.245-2.078
		c0.527,0,1.041,0.118,1.508,0.334l7.527,3.718c0.379,0.189,0.833,0.128,1.149-0.151c0.317-0.278,0.433-0.721,0.296-1.12
		c-0.147-0.425-3.614-10.435-6.406-15.322c-1.835-3.213-3.746-4.49-5.142-5.425c-0.793-0.533-1.422-0.953-1.838-1.578
		c-0.493-0.738-0.63-1.604-0.377-2.377c0.234-0.712,0.777-1.269,1.491-1.529c1.441-0.528,4.117,0.948,7.001,3.833
		c2.632,2.631,5.965,8.907,5.997,8.97c0.256,0.483,0.841,0.688,1.344,0.466c0.5-0.221,0.742-0.793,0.555-1.308l-0.949-2.608
		c-0.327-0.904-0.254-1.759,0.222-2.541c0.426-0.704,1.146-1.281,1.972-1.583c0.308-0.109,0.626-0.167,0.949-0.167
		c1.164,0,2.212,0.733,2.608,1.827l1.308,3.588c0.196,0.539,0.793,0.819,1.333,0.621c0.542-0.196,0.819-0.794,0.624-1.333
		l-0.595-1.631c-0.253-0.697-0.22-1.451,0.094-2.123s0.868-1.183,1.565-1.437c0.308-0.11,0.628-0.167,0.95-0.167
		c1.162,0,2.211,0.733,2.609,1.826l1.543,4.239c0.198,0.541,0.797,0.819,1.334,0.624c0.541-0.196,0.819-0.795,0.622-1.335
		l-0.915-2.517c0.281-0.308,0.871-0.792,1.313-0.952c0.246-0.089,0.506-0.136,0.774-0.136c0.93,0,1.776,0.543,2.06,1.319
		C90.435,253.827,94.481,265.983,94.068,269.577z M58.368,263.735c1.007-1.917,1.688-4.028,1.979-6.271
		c1.391,3.081,2.761,6.68,3.612,9.001l-5.237-2.588C58.605,263.824,58.486,263.781,58.368,263.735z"/>
	<path fill="#4B2E83" d="M43.56,267.582c-0.298-0.297-1.375-0.386-1.766-0.227c-0.388,0.161-1.272,0.543-1.272,0.963v3.741
		c0,0,0.688,0,0.567,0c-8.995,0-16.312-7.628-16.312-16.623c0-6.554,3.888-12.368,9.479-14.958l-1.298-2.537
		C26.487,241,22,246.969,22,254.59c0,10.523,8.563,18.469,19.089,18.469c0.12,0-0.567,0-0.567,0v3.589
		c0,0.419,0.885,0.801,1.272,0.961c0.391,0.162,1.239,0.072,1.538-0.225l4.279-4.166c0.406-0.405,0.465-1.066,0.057-1.472
		L43.56,267.582z"/>
</g>
<path fill="#4B2E83" d="M82.325,356.66c-0.282,0-0.958,0.097-1.69,0.326c-0.191-2.508-3.074-4.49-5.631-4.49
	c-1.029,0-0.482,0.323-3.482,0.874v-11.084c5-1.599,5.697-4.664,5.697-8.186c0-5.167-3.776-9.369-8.943-9.369
	c-3.548,0-6.43,1.982-8.02,4.9c-0.26-0.022-0.413-0.042-0.681-0.042c-5.167,0-9.317,4.203-9.317,9.37
	c0,3.469,1.922,6.497,4.729,8.114l0.315,14.139c-0.561,0.306-1.403,0.862-2.491,1.85c-3.77,3.427-5.001,11.711-0.744,18.123
	c4.738,7.137,10.292,10.182,18.566,10.182c8.766,0,11.708-4.398,13.961-8.905c2.168-4.333,2.202-20.931,2.202-21.636
	C86.796,358.607,84.717,356.66,82.325,356.66z M68.705,326.812c4.019,0,6.43,3.27,6.43,7.288c0,2.304,0.387,4.353-3.613,5.688
	v-5.341c0-2.769-1.241-4.858-3.825-4.858c-2.631,0-4.419,2.134-4.419,4.837l0.184,1.454c-0.553-0.829-1.224-1.463-2.148-1.813
	C61.332,330.064,64.697,326.812,68.705,326.812z M82.723,381.532c-2.122,4.242-4.494,7.754-12.09,7.754
	c-7.591,0-12.465-2.681-16.827-9.252c-2.542-3.83-3.644-11.743,0.412-15.429c0.438-0.399,0.823-0.712,1.15-0.953l0.157,7.264
	c0.012,0.574,0.502,1.026,1.062,1.021c0.574-0.013,1.032-0.483,1.021-1.058l-0.49-22.914l0,0l-0.192-8.983
	c0-1.839,1.143-3.102,2.779-3.102s2.781,1.327,2.783,3.203l0.699,19.523c0.02,0.561,0.225,1.178,1.056,1.178
	c0.833,0,1.006-0.629,1.02-1.191l0.259-12.375v-0.003l0.133-4.249l0.194-7.519c0-1.582,0.892-2.775,2.38-2.775
	c1.686,0,2.293,1.439,2.293,2.775v6.508v2.18v14.22c0,0.574,0.67,1.041,1.246,1.041c0.574,0,1.085-0.467,1.085-1.041
	c0-1.531,1.267-2.776,2.798-2.776c1.53,0,2.871,1.245,2.871,2.776v4.512c0,0.574,0.424,1.041,1,1.041c0.574,0,1-0.467,1-1.041
	v-2.652c0-0.203,1.252-0.472,1.74-0.472c1.238,0,2.344,1.013,2.344,2.083C84.605,365.488,84.34,378.294,82.723,381.532z"/>
</svg>
