<?xml version="1.0" encoding="utf-8"?>
<!-- Generator: Adobe Illustrator 16.0.0, SVG Export Plug-In . SVG Version: 6.00 Build 0)  -->
<!DOCTYPE svg PUBLIC "-//W3C//DTD SVG 1.1//EN" "http://www.w3.org/Graphics/SVG/1.1/DTD/svg11.dtd">
<svg version="1.1" id="Gesture_Hands" xmlns="http://www.w3.org/2000/svg" xmlns:xlink="http://www.w3.org/1999/xlink" x="0px"
	 y="0px" width="68.043px" height="263.118px" viewBox="0 0 68.043 263.118" enable-background="new 0 0 68.043 263.118"
	 xml:space="preserve">
<path fill="#4B2E83" d="M50.228,35.317c-0.269,0-0.952,0.093-1.653,0.311c-0.18-2.389-2.181-4.277-4.614-4.277
	c-1.11,0-2.131,0.393-2.929,1.047c-0.652-1.767-2.045-3.03-4.035-3.03c-1.157,0-1.996,0.354-2.996,1.039v-4.804
	c3-1.525,4.295-4.449,4.295-7.803c0-4.921-4.158-8.924-9.078-8.924c-4.922,0-9.001,4.003-9.001,8.924
	c0,3.301,1.767,6.183,4.44,7.727l0.028,20.859l-3.817-3.996c-1.025-1.025-2.385-1.59-3.821-1.59s-2.792,0.564-3.817,1.59
	c-2.118,2.118-2.125,5.559-0.05,7.632c0.034,0.039,3.482,3.884,8.403,8.804l0.799,0.804c4.666,4.691,8.694,8.742,16.758,8.742
	c8.348,0,11.142-4.19,13.287-8.481c2.063-4.128,2.087-19.935,2.087-20.605C54.513,37.17,52.511,35.317,50.228,35.317z
	 M22.122,17.799c0-3.827,3.113-6.941,6.94-6.941s7.25,3.114,7.25,6.941c0,2.194-1.312,4.15-2.312,5.423V18.46
	c0-2.966-2.041-4.958-4.62-4.958c-2.59,0-4.624,2.085-4.624,4.96l-0.068,4.656C23.168,21.844,22.122,19.934,22.122,17.799z
	 M26.584,18.481c0-1.372,0.952-2.985,2.788-2.985c2.16,0,2.628,2.267,2.628,2.965V36.97c0,0.548,0.453,0.992,1,0.992
	s1-0.444,1-0.992v-2.645c0-2.183,2.002-2.975,3.33-2.975c1.459,0,2.67,1.187,2.67,2.645v3.636c0,0.547,0.453,0.991,1,0.991
	s1-0.444,1-0.991v-1.653c0-1.458,1.041-2.644,2.5-2.644S47,34.52,47,35.978v4.297c0,0.548,0.453,0.992,1,0.992s1-0.444,1-0.992
	V37.75c0-0.193,0.968-0.45,1.435-0.45c1.184,0,2.199,0.964,2.199,1.983c0,4.44-0.39,16.638-1.93,19.719
	c-2.02,4.04-4.306,7.384-11.539,7.384c-7.239,0-10.833-3.6-15.365-8.157l-0.811-0.807c-4.879-4.879-8.297-8.687-8.368-8.764
	c-0.649-0.649-1.006-1.513-1.004-2.432c0.002-0.919,0.36-1.785,1.012-2.436c0.65-0.65,1.507-1.009,2.414-1.009
	s1.762,0.358,2.396,0.992l5.507,5.779c0.28,0.294,0.713,0.387,1.087,0.236c0.377-0.151,0.623-0.517,0.622-0.922L26.584,18.481z"/>
<path fill="#4B2E83" d="M50.228,129.96c-0.27,0-0.952,0.093-1.654,0.311c-0.18-2.389-2.181-4.277-4.614-4.277
	c-1.11,0-2.131,0.393-2.929,1.047c-0.651-1.767-2.044-3.03-4.035-3.03c-1.157,0-1.996,0.354-2.996,1.039v-0.478
	c4-1.782,8.262-6.539,8.262-12.13c0-7.108-5.937-12.891-13.046-12.891c-7.107,0-12.966,5.783-12.966,12.891
	c0,5.547,3.491,10.273,8.416,12.087l0.019,16.498l-3.818-3.996c-1.024-1.025-2.385-1.59-3.821-1.59
	c-1.436,0-2.792,0.564-3.817,1.589c-2.118,2.118-2.125,5.56-0.05,7.632c0.034,0.039,3.482,3.884,8.403,8.804l0.8,0.803
	c4.665,4.691,8.694,8.742,16.757,8.742c8.349,0,11.142-4.19,13.287-8.481c2.063-4.128,2.088-19.935,2.088-20.605
	C54.514,131.814,52.51,129.96,50.228,129.96z M18.341,112.443c0-6.015,4.801-10.908,10.814-10.908c6.015,0,11.17,4.893,11.17,10.908
	c0,4.479-2.325,8.334-6.325,10.011v-2.208c2-1.525,4.295-4.449,4.295-7.803c0-4.921-4.157-8.924-9.079-8.924
	c-4.92,0-8.813,4.003-8.813,8.924c0,3.301,1.598,6.183,4.598,7.727v2.226C21,120.691,18.341,116.875,18.341,112.443z M29.38,108.146
	c-2.591,0-4.623,2.085-4.623,4.96l-0.068,4.656c-1.521-1.274-2.529-3.186-2.529-5.319c0-3.828,3.094-6.941,6.921-6.941
	c3.828,0,7.239,3.114,7.239,6.941c0,2.194-1.321,4.15-2.321,5.423v-4.763C34,110.138,31.959,108.146,29.38,108.146z M32,131.613
	c0,0.548,0.453,0.991,1,0.991s1-0.443,1-0.991v-2.645c0-2.183,2.002-2.975,3.33-2.975c1.459,0,2.67,1.187,2.67,2.644v3.636
	c0,0.547,0.453,0.991,1,0.991s1-0.444,1-0.991v-1.653c0-1.458,1.041-2.644,2.5-2.644s2.5,1.186,2.5,2.644v4.297
	c0,0.548,0.453,0.992,1,0.992s1-0.444,1-0.992v-2.525c0-0.193,0.968-0.45,1.435-0.45c1.182,0,2.198,0.963,2.198,1.983
	c0,4.44-0.389,16.638-1.93,19.719c-2.02,4.04-4.305,7.384-11.539,7.384c-7.238,0-10.832-3.6-15.365-8.157l-0.81-0.808
	c-4.88-4.879-8.297-8.687-8.369-8.764c-0.648-0.649-1.006-1.513-1.004-2.432c0.003-0.919,0.361-1.785,1.013-2.436
	c0.649-0.65,1.506-1.009,2.413-1.009c0.907,0,1.763,0.358,2.396,0.992l5.507,5.779c0.281,0.295,0.713,0.387,1.087,0.236
	c0.377-0.151,0.623-0.517,0.622-0.922l-0.068-30.385c0-1.372,0.952-2.985,2.788-2.985c2.16,0,2.627,2.267,2.627,2.964V131.613z"/>
<g>
	<path fill="#4B2E83" d="M57.003,225.077c-0.548-1.505-2.12-2.516-3.911-2.516c-0.513,0-1.008,0.086-1.472,0.254
		c-0.431,0.156-0.954,0.468-1.449,0.856c-0.744-1.64-2.396-2.719-4.216-2.719c-0.539,0-1.071,0.094-1.582,0.28
		c-1.04,0.379-1.864,1.1-2.391,1.991c-0.864-1.022-2.152-1.647-3.539-1.647c-0.539,0-1.071,0.094-1.582,0.28
		c-1.087,0.396-2.084,1.136-2.75,2.107l-4.086-11.226c-0.789-2.167-2.375-3.46-4.244-3.46c-0.495,0-1,0.092-1.502,0.275
		c-2.435,0.886-3.488,3.488-2.505,6.19l9.608,26.216l-4.944-2.453c-0.729-0.34-1.501-0.512-2.294-0.512
		c-2.079,0-3.993,1.226-4.877,3.123c-0.613,1.313-0.68,2.786-0.187,4.147c0.492,1.364,1.487,2.453,2.752,3.041
		c0.045,0.024,4.601,2.458,10.907,5.399l1.024,0.48c4.043,1.898,7.861,3.692,12.288,3.692h0.001c2.106,0,4.217-0.395,6.45-1.208
		c7.845-2.855,9.037-7.748,9.585-12.514C62.616,240.568,57.232,225.707,57.003,225.077z M60.119,244.926
		c-0.517,4.487-1.497,8.403-8.293,10.877c-2.013,0.732-3.9,1.088-5.772,1.088h-0.001c-3.983,0-7.441-1.624-11.445-3.504
		l-1.029-0.482c-6.253-2.916-10.765-5.326-10.858-5.375c-0.831-0.388-1.462-1.077-1.773-1.942c-0.312-0.864-0.271-1.8,0.118-2.635
		c0.569-1.22,1.749-1.978,3.08-1.978c0.502,0,0.991,0.11,1.434,0.316l7.151,3.547c0.363,0.18,0.8,0.122,1.103-0.15
		c0.302-0.271,0.409-0.698,0.269-1.079l-10.464-28.549c-0.469-1.29-0.405-3.019,1.32-3.646c0.284-0.104,0.562-0.156,0.824-0.156
		c1,0,1.89,0.806,2.381,2.155l6.331,17.393c0.188,0.515,0.76,0.78,1.271,0.592c0.515-0.188,0.78-0.756,0.592-1.271l-0.904-2.485
		c-0.746-2.05,0.841-3.471,2.089-3.925c0.292-0.106,0.597-0.161,0.903-0.161c1.108,0,2.107,0.7,2.486,1.741l1.232,3.388l0.011,0.029
		c0.188,0.515,0.76,0.78,1.271,0.593c0.515-0.188,0.78-0.756,0.593-1.271l-0.579-1.592c-0.471-1.357,0.244-2.859,1.594-3.35
		c0.293-0.106,0.597-0.16,0.904-0.16c1.107,0,2.106,0.7,2.485,1.741l1.449,3.982l0.02,0.054c0.188,0.514,0.754,0.78,1.271,0.593
		c0.515-0.187,0.779-0.756,0.593-1.271l-0.863-2.372c0.306-0.317,0.949-0.825,1.388-0.984c0.245-0.089,0.513-0.135,0.794-0.135
		c0.945,0,1.787,0.498,2.047,1.211C56.658,229.927,60.513,241.503,60.119,244.926z"/>
	<path fill="#4B2E83" d="M20.724,218.641l-0.812-2.217c-0.043-0.118-0.075-0.237-0.113-0.356c-0.301,0.022-0.602,0.046-0.908,0.046
		c-6.743,0-12.229-5.486-12.229-12.229c0-6.743,5.486-12.229,12.229-12.229c6.744,0,12.229,5.486,12.229,12.229
		c0,0.276-0.014,0.548-0.032,0.82l-0.082-0.015l-2.603-0.467c-0.395-0.071-0.793,0.103-1.01,0.44s-0.208,0.772,0.021,1.102
		l3.203,4.605c0.312,0.45,0.93,0.561,1.38,0.248l4.604-3.203c0.329-0.229,0.489-0.634,0.403-1.026
		c-0.086-0.392-0.399-0.693-0.794-0.764l-2.508-0.45c0.036-0.426,0.062-0.854,0.062-1.289c0-8.201-6.673-14.874-14.874-14.874
		s-14.873,6.672-14.873,14.874c0,8.202,6.672,14.874,14.873,14.874C19.511,218.758,20.123,218.716,20.724,218.641z"/>
</g>
</svg>
