<svg xmlns="http://www.w3.org/2000/svg" width="1619" height="480" viewBox="0 0 1619 480">
  <metadata><?xpacket begin="﻿" id="W5M0MpCehiHzreSzNTczkc9d"?>
<x:xmpmeta xmlns:x="adobe:ns:meta/" x:xmptk="Adobe XMP Core 5.6-c142 79.160924, 2017/07/13-01:06:39        ">
   <rdf:RDF xmlns:rdf="http://www.w3.org/1999/02/22-rdf-syntax-ns#">
      <rdf:Description rdf:about=""/>
   </rdf:RDF>
</x:xmpmeta>
                                                                                                    
                                                                                                    
                                                                                                    
                                                                                                    
                                                                                                    
                                                                                                    
                                                                                                    
                                                                                                    
                                                                                                    
                                                                                                    
                                                                                                    
                                                                                                    
                                                                                                    
                                                                                                    
                                                                                                    
                                                                                                    
                                                                                                    
                                                                                                    
                                                                                                    
                                                                                                    
                           
<?xpacket end="w"?></metadata>
<defs>
    <style>
      .cls-1 {
        fill: #4c2e83;
      }

      .cls-1, .cls-2 {
        fill-rule: evenodd;
      }

      .cls-2, .cls-4 {
        fill: #84754d;
      }

      .cls-3 {
        fill: #4b2e83;
      }
    </style>
  </defs>
  <path id="_67" data-name="67" class="cls-1" d="M-1596.15,455.844q36.63-11,62.29-31.788a139.048,139.048,0,0,0,39.39-50.739q13.74-29.945,13.74-67.244,0-31.177-11.6-56.853a119.705,119.705,0,0,0-32.98-43.4q-21.39-17.722-51.3-27.509-29.925-9.771-67.18-9.781-29.31,0-53.74,7.03t-42.14,19.257q8.55-51.351,38.47-72.747t89.17-21.4a360.569,360.569,0,0,1,37.86,2.14q20.16,2.149,47.64,7.03l16.49-95.365q-29.94-6.1-56.49-9.17a447.418,447.418,0,0,0-51-3.057q-262.6,0-262.6,253.084,0,103.932,52.21,157.719t148.71,53.8Q-1632.8,466.848-1596.15,455.844Zm-38.17-189.812q13.74,13.152,13.74,43.709,0,31.176-14.05,45.542t-44.58,14.366q-31.755,0-47.02-22.007-15.285-22.008-17.71-72.746,10.365-9.171,28.39-15.589a107.628,107.628,0,0,1,36.34-6.419Q-1648.07,252.888-1634.32,266.032Zm372.83,194.092,154.51-370.456V81.721l-17.71-73.358h-313.3l-13.43,11.615,4.27,103.312h189.32L-1407.45,447.9v12.838l116.64,15.894Z"/>
  <path id="_91" data-name="91" class="cls-2" d="M679.741,13.254q-36.642,11-62.292,31.788a139.222,139.222,0,0,0-39.391,50.739q-13.74,29.96-13.74,67.244,0,31.177,11.6,56.852a119.432,119.432,0,0,0,32.978,43.4q21.37,17.738,51.3,27.509t67.178,9.781q29.313,0,53.742-7.03t42.139-19.257q-8.561,51.351-38.475,72.747t-89.163,21.4a357.825,357.825,0,0,1-37.864-2.14q-20.154-2.135-47.635-7.03l-16.489,95.365q29.915,6.117,56.49,9.17a447.323,447.323,0,0,0,50.994,3.056q262.594,0,262.605-253.084,0-103.918-52.216-157.719T762.8,2.25Q716.379,2.25,679.741,13.254Zm38.17,189.813q-13.741-13.139-13.741-43.709,0-31.176,14.046-45.542T762.8,99.449q31.746,0,47.024,22.007,15.258,22.007,17.711,72.746-10.392,9.17-28.4,15.589A107.611,107.611,0,0,1,762.8,216.21Q731.652,216.21,717.911,203.066ZM1117,460.735h137.41V8.363H1150.59L996.082,87.834l-1.221,5.5,15.269,78.249h6.72l97.71-20.174H1117V460.735Z"/>
  <path id="_" data-name="%" class="cls-1" d="M-991.782,127.749q11.517-11.147,11.518-33.824T-991.782,59.91q-11.52-11.336-32.838-11.338-21.135,0-32.75,11.338t-11.61,34.015q0,22.68,11.52,33.824t32.84,11.148Q-1003.3,138.9-991.782,127.749Zm-44.258-17.817q-3.435-4-3.43-16.007t3.43-16.1q3.42-4.1,11.42-4.1a23.066,23.066,0,0,1,6.76.858,8.644,8.644,0,0,1,4.47,3.144,16.009,16.009,0,0,1,2.57,6.193,48.107,48.107,0,0,1,.86,10q0,12-3.43,16.007t-11.23,4Q-1032.615,113.934-1036.04,109.932Zm170.285,72.413q11.517-11.241,11.518-33.92t-11.518-33.92q-11.52-11.241-32.839-11.243-21.132,0-32.744,11.243t-11.613,33.92q0,22.68,11.517,33.92t32.84,11.244Q-877.276,193.589-865.755,182.345Zm-44.262-17.817q-3.426-4.1-3.426-16.1t3.426-16.1q3.428-4.1,11.423-4.1,7.8,0,11.232,4.1t3.427,16.1a48.024,48.024,0,0,1-.857,10,15.972,15.972,0,0,1-2.57,6.193,8.663,8.663,0,0,1-4.474,3.144,23.018,23.018,0,0,1-6.758.858Q-906.59,168.625-910.017,164.528Zm-102.233,27.155h35.222l65.679-141.016h-35.219Z"/>
  <path id="of_korean_television_viewers_watched_the_finale_of_you_and_I_" data-name="of korean television viewers watched the finale of “you and I”" class="cls-1" d="M-1055.32,297.967q4.755-5.618,4.76-16.56,0-11-4.76-16.647t-13.53-5.646q-8.895,0-13.62,5.646t-4.74,16.647q0,11,4.74,16.589t13.62,5.588Q-1060.09,303.584-1055.32,297.967Zm-24.23-2.516q-3.63-4.682-3.63-14.044,0-9.42,3.63-14.131,3.615-4.709,10.7-4.71,7.065,0,10.66,4.71t3.6,14.131q0,9.3-3.6,14.014-3.585,4.712-10.66,4.711T-1079.55,295.451Zm38.17,7.548h3.97V282.987h20.29v-3.452h-20.29V263.151h22.22V259.7h-26.19V303Zm47.814,0h3.975V282.636h9.178l14.5,20.363h4.618l-14.789-20.655-1.871-1.4v-0.351l1.695-1.463L-962.35,259.7h-4.618l-13.854,19.485h-8.769V259.7h-3.975V303Zm66.318-5.032q4.764-5.618,4.764-16.56,0-11-4.764-16.647t-13.532-5.646q-8.888,0-13.621,5.646t-4.734,16.647q0,11,4.734,16.589t13.621,5.588Q-932.012,303.584-927.248,297.967Zm-24.23-2.516q-3.625-4.682-3.624-14.044,0-9.42,3.624-14.131t10.7-4.71q7.071,0,10.668,4.71t3.595,14.131q0,9.3-3.595,14.014t-10.668,4.711Q-947.854,300.132-951.478,295.451Zm64.3,7.548h4.443l-10.931-17.32a12.708,12.708,0,0,0,7.307-4.418,13.715,13.715,0,0,0,2.338-8.4q0-7.2-4.53-10.474t-14.468-3.276a63.181,63.181,0,0,0-10.288.877V303h3.975V286.264q1.81,0.175,3.507.292t3.1,0.118q1.461,0,2.777-.059t2.543-.234Zm-19.2-19.866a18.877,18.877,0,0,1-2.952-.38V263.034q1.459-.232,3.332-0.38t3.507-.147q7.658,0,11.048,2.458t3.391,7.9a12.993,12.993,0,0,1-.79,4.8,7.142,7.142,0,0,1-2.484,3.219,11.624,11.624,0,0,1-4.384,1.814,31.322,31.322,0,0,1-6.547.585Q-904.363,283.28-906.38,283.133ZM-874.669,303h26.948v-3.453h-22.973V282.7h21.1V279.3h-21.1v-16.15h22.5V259.7h-26.48V303Zm31.1,0h3.916l5.027-13.517h19.875L-809.667,303h3.916v-0.351l-15.9-42.949h-6.02l-15.9,42.949V303Zm10.112-17.028,5.963-15.915,2.63-7.315h0.351l2.689,7.315,5.963,15.915h-17.6ZM-799.2,303h3.683V265.96h0.292l3.332,4.973L-768.573,303h3.624V259.7h-3.683v37.1h-0.292l-3.507-5.149L-795.638,259.7H-799.2V303Zm68.568,0h3.975V263.151h14.321V259.7H-744.9v3.452h14.263V303Zm25.252,0h26.948v-3.453h-22.973V282.7h21.1V279.3h-21.1v-16.15h22.5V259.7h-26.48V303Zm36.008,0h24.025v-3.394H-665.4V259.7h-3.975V303Zm30.864,0h26.948v-3.453h-22.973V282.7h21.1V279.3h-21.1v-16.15h22.5V259.7h-26.48V303Zm47.289,0h5.378l16.193-43.3H-573.8l-11.574,31.07-2.981,8.251h-0.351l-2.923-8.251-11.574-31.07h-4.15Zm28.117,0h3.975V259.7h-3.975V303Zm36.827-2.37q3.858-3.014,3.858-8.631a11.282,11.282,0,0,0-.994-5,10.158,10.158,0,0,0-2.718-3.423,15.4,15.4,0,0,0-4.092-2.34q-2.367-.936-5.115-1.756a35.358,35.358,0,0,1-4.881-1.7,11.976,11.976,0,0,1-3.157-1.96,6.466,6.466,0,0,1-1.724-2.4,8.059,8.059,0,0,1-.526-3.013,7.194,7.194,0,0,1,2.835-5.969,12.033,12.033,0,0,1,7.628-2.223,37.638,37.638,0,0,1,5.057.38,49.521,49.521,0,0,1,5.524,1.083l0.117-3.511a50.815,50.815,0,0,0-10.932-1.4,19.813,19.813,0,0,0-5.9.819,13.045,13.045,0,0,0-4.5,2.37,10.721,10.721,0,0,0-2.893,3.715,11.092,11.092,0,0,0-1.023,4.8,12.315,12.315,0,0,0,.7,4.33,8.945,8.945,0,0,0,2.222,3.336,14.7,14.7,0,0,0,3.916,2.6,39.353,39.353,0,0,0,5.787,2.136q2.221,0.645,4.151,1.375A14.8,14.8,0,0,1-529.582,286a7.511,7.511,0,0,1,2.25,2.516,7.509,7.509,0,0,1,.819,3.657,6.921,6.921,0,0,1-2.835,5.939q-2.837,2.077-8.155,2.077a44.661,44.661,0,0,1-6.2-.5,62.743,62.743,0,0,1-6.723-1.317l-0.116,3.452a61.93,61.93,0,0,0,6.78,1.317,46.722,46.722,0,0,0,6.372.5Q-530.138,303.642-526.279,300.629ZM-514,303h3.975V259.7H-514V303Zm45.04-5.032q4.762-5.618,4.764-16.56,0-11-4.764-16.647t-13.533-5.646q-8.886,0-13.62,5.646t-4.735,16.647q0,11,4.735,16.589t13.62,5.588Q-473.728,303.584-468.964,297.967Zm-24.23-2.516q-3.625-4.682-3.624-14.044,0-9.42,3.624-14.131t10.7-4.71q7.073,0,10.668,4.71t3.6,14.131q0,9.3-3.6,14.014t-10.668,4.711Q-489.571,300.132-493.194,295.451Zm38.17,7.548h3.683V265.96h0.292l3.332,4.973L-424.393,303h3.624V259.7h-3.682v37.1h-0.293l-3.507-5.149L-451.458,259.7h-3.566V303Zm-618.626,64.97h5.38l16.19-43.3h-4.15l-11.57,31.071-2.98,8.25h-0.35l-2.93-8.25-11.57-31.071h-4.15Zm28.12,0h3.97v-43.3h-3.97v43.3Zm15.43,0h26.95v-3.452h-22.97V347.665h21.1v-3.394h-21.1v-16.15h22.5v-3.452h-26.48v43.3Zm43.783,0h5.378l8.651-30.368,1.754-7.315h0.292l1.754,7.256,8.534,30.427h5.32l12.217-43.3h-4.15l-8.418,30.486-2.163,8.426H-957.5l-2.279-8.426-8.476-30.486h-4.209l-8.71,30.486-2.221,8.426h-0.351l-2.163-8.426-8.242-30.486H-998.3Zm51.031,0h26.948v-3.452h-22.973V347.665h21.1v-3.394h-21.1v-16.15h22.5v-3.452h-26.48v43.3Zm62.137,0h4.443l-10.931-17.32a12.7,12.7,0,0,0,7.307-4.418,13.712,13.712,0,0,0,2.338-8.4q0-7.2-4.531-10.474t-14.467-3.277a63.185,63.185,0,0,0-10.288.878v43.007h3.975V351.234q1.81,0.175,3.507.293t3.1,0.117q1.461,0,2.777-.059t2.542-.234Zm-19.2-19.865a18.832,18.832,0,0,1-2.952-.381V328q1.459-.233,3.331-0.38t3.508-.146q7.658,0,11.048,2.457t3.39,7.9a13.022,13.022,0,0,1-.789,4.8,7.139,7.139,0,0,1-2.484,3.218,11.624,11.624,0,0,1-4.384,1.814,31.322,31.322,0,0,1-6.547.585Q-890.334,348.25-892.351,348.1Zm53.106,17.5q3.858-3.012,3.858-8.63a11.279,11.279,0,0,0-.994-5,10.139,10.139,0,0,0-2.718-3.423,15.4,15.4,0,0,0-4.092-2.341q-2.368-.934-5.115-1.755a35.625,35.625,0,0,1-4.881-1.7,12,12,0,0,1-3.157-1.96,6.482,6.482,0,0,1-1.724-2.4,8.068,8.068,0,0,1-.526-3.014,7.192,7.192,0,0,1,2.835-5.968,12.033,12.033,0,0,1,7.628-2.224,37.486,37.486,0,0,1,5.057.381,49.516,49.516,0,0,1,5.524,1.082l0.117-3.511a50.815,50.815,0,0,0-10.932-1.4,19.82,19.82,0,0,0-5.9.819,13.067,13.067,0,0,0-4.5,2.37,10.724,10.724,0,0,0-2.893,3.716,11.086,11.086,0,0,0-1.023,4.8,12.319,12.319,0,0,0,.7,4.33,8.941,8.941,0,0,0,2.222,3.335,14.726,14.726,0,0,0,3.916,2.6,39.359,39.359,0,0,0,5.787,2.135q2.221,0.645,4.151,1.376a14.8,14.8,0,0,1,3.361,1.755,7.511,7.511,0,0,1,2.25,2.516,7.512,7.512,0,0,1,.819,3.657,6.92,6.92,0,0,1-2.835,5.939q-2.837,2.077-8.155,2.077a44.661,44.661,0,0,1-6.2-.5,62.993,62.993,0,0,1-6.723-1.316L-863.5,366.8a62,62,0,0,0,6.781,1.316,46.736,46.736,0,0,0,6.372.5Q-843.1,368.613-839.245,365.6Zm33.2,2.37h5.378l8.651-30.368,1.754-7.315h0.292l1.754,7.256,8.534,30.427h5.32l12.217-43.3h-4.151l-8.417,30.486-2.163,8.426h-0.351l-2.28-8.426-8.476-30.486h-4.208l-8.71,30.486-2.222,8.426h-0.35l-2.163-8.426-8.242-30.486h-4.151Zm44.133,0h3.917l5.027-13.516h19.875l5.085,13.516h3.917v-0.351l-15.9-42.949h-6.021l-15.9,42.949v0.351Zm10.113-17.027,5.962-15.916,2.631-7.314h0.351l2.688,7.314,5.963,15.916h-17.6Zm39.632,17.027h3.975V328.121h14.322v-3.452h-32.56v3.452h14.263v39.848Zm42.117,0.439q1.257-.089,2.543-0.263t2.514-.41q1.227-.233,2.221-0.527v-3.393q-0.878.234-2.163,0.439t-2.63.38q-1.346.175-2.6,0.263t-2.192.088q-14.964,0-14.964-18.607,0-9.6,3.8-14.161t11.633-4.564a37.469,37.469,0,0,1,4.15.264q2.339,0.262,4.969.731v-3.511q-2.4-.466-4.969-0.76a40.49,40.49,0,0,0-4.5-.293q-19.173,0-19.173,22.352,0,21.944,19.056,22.06Q-671.3,368.5-670.048,368.408Zm15.637-.439h3.975v-20.48h25.311v20.48h3.917v-43.3h-3.917V344.1h-25.311V324.669h-3.975v43.3Zm44.66,0H-582.8v-3.452h-22.973V347.665h21.1v-3.394h-21.1v-16.15h22.5v-3.452h-26.48v43.3Zm63.862-4.739q5.465-5.384,5.465-16.911,0-11.468-5.26-16.822t-16.543-5.354q-1.053,0-2.514.058t-3.01.146q-1.55.089-3.128,0.205t-2.864.234v42.949a19.752,19.752,0,0,0,4.326.673q2.862,0.2,6.2.2Q-551.354,368.613-545.889,363.23Zm-18.238,1.9q-0.908-.028-1.783-0.088t-1.812-.175q-0.936-.117-2.046-0.293V328.121q1.754-.232,3.975-0.351t3.858-.117q9.06,0,13.269,4.477t4.209,14.189q0,9.772-4.3,14.307t-13.474,4.534C-562.891,365.16-563.523,365.151-564.127,365.131Zm55.737,2.838h3.975V328.121h14.322v-3.452h-32.56v3.452h14.263v39.848Zm25.252,0h3.975v-20.48h25.311v20.48h3.917v-43.3h-3.917V344.1h-25.311V324.669h-3.975v43.3Zm44.66,0h26.948v-3.452H-434.5V347.665h21.1v-3.394h-21.1v-16.15H-412v-3.452h-26.48v43.3ZM-1084.93,432.94h3.98V412.928h20.28v-3.452h-20.28V393.092h22.21V389.64h-26.19v43.3Zm34.25,0h3.98v-43.3h-3.98v43.3Zm15.44,0h3.68V395.9h0.29l3.33,4.974,23.33,32.066h3.62v-43.3h-3.68v37.1h-0.29l-3.51-5.149-23.21-31.948h-3.56v43.3Zm40.8,0h3.916l5.027-13.517h19.875l5.086,13.517h3.916v-0.352l-15.9-42.948h-6.02l-15.9,42.948v0.352Zm10.112-17.028L-978.367,400l2.63-7.314h0.351L-972.7,400l5.963,15.916h-17.6Zm34.255,17.028h24.025v-3.394H-946.1V389.64h-3.975v43.3Zm30.864,0h26.948v-3.453h-22.973V412.635h21.1v-3.393h-21.1v-16.15h22.5V389.64h-26.48v43.3Zm80.229-5.033q4.764-5.618,4.764-16.559,0-11-4.764-16.647t-13.533-5.647q-8.886,0-13.62,5.647t-4.735,16.647q0,11,4.735,16.589t13.62,5.588Q-843.746,433.525-838.982,427.907Zm-24.23-2.516q-3.626-4.68-3.624-14.043,0-9.42,3.624-14.131t10.7-4.71q7.073,0,10.668,4.71t3.6,14.131q0,9.3-3.6,14.014t-10.668,4.71Q-859.588,430.072-863.212,425.391Zm38.171,7.549h3.975V412.928h20.284v-3.452h-20.284V393.092h22.213V389.64h-26.188v43.3Zm50.154-31.071a17.913,17.913,0,0,1-.994-5.793,27.748,27.748,0,0,1,.526-5.208,24.934,24.934,0,0,1,1.461-4.973l-2.162-.41a19.362,19.362,0,0,0-2.309,5.383,22.391,22.391,0,0,0-.848,5.91,17.938,17.938,0,0,0,.76,5.617Zm12.275,0a17.911,17.911,0,0,1-.993-5.793,27.748,27.748,0,0,1,.526-5.208,24.868,24.868,0,0,1,1.461-4.973l-2.163-.41a19.421,19.421,0,0,0-2.309,5.383,22.43,22.43,0,0,0-.847,5.91,17.938,17.938,0,0,0,.76,5.617Zm20.518,31.071h3.975V418.194l15.549-28.554h-4.267l-11.4,21.064-1.7,3.687h-0.409l-1.754-3.687-11.34-21.064h-4.326l15.666,28.671V432.94Zm53.749-5.033q4.764-5.618,4.765-16.559,0-11-4.765-16.647t-13.532-5.647q-8.886,0-13.62,5.647t-4.735,16.647q0,11,4.735,16.589t13.62,5.588Q-693.108,433.525-688.345,427.907Zm-24.229-2.516q-3.625-4.68-3.625-14.043,0-9.42,3.625-14.131t10.7-4.71q7.072,0,10.668,4.71t3.595,14.131q0,9.3-3.595,14.014t-10.668,4.71Q-708.951,430.072-712.574,425.391Zm62.02,7.11a12.254,12.254,0,0,0,5.232-3.219,13.231,13.231,0,0,0,3.039-5.588,30.266,30.266,0,0,0,.965-8.192V389.64h-3.975v25.687a25.373,25.373,0,0,1-.789,6.788,11.067,11.067,0,0,1-2.4,4.564,9.255,9.255,0,0,1-4,2.545,17.953,17.953,0,0,1-5.612.79,17.942,17.942,0,0,1-5.611-.79,9.247,9.247,0,0,1-4-2.545,11.066,11.066,0,0,1-2.4-4.564,25.373,25.373,0,0,1-.789-6.788V389.64h-3.917V415.5a30.266,30.266,0,0,0,.965,8.192,13.39,13.39,0,0,0,3.01,5.588,12.027,12.027,0,0,0,5.2,3.219,24.58,24.58,0,0,0,7.54,1.024A24.586,24.586,0,0,0-650.554,432.5Zm28.291,0.439h3.917l5.027-13.517h19.875l5.085,13.517h3.917v-0.352l-15.9-42.948h-6.021l-15.9,42.948v0.352Zm10.113-17.028L-606.187,400l2.63-7.314h0.351l2.689,7.314,5.962,15.916h-17.6Zm34.255,17.028h3.682V395.9h0.293l3.331,4.974,23.324,32.066h3.625v-43.3h-3.683v37.1h-0.293l-3.507-5.149L-574.33,389.64h-3.565v43.3Zm73.565-4.74q5.466-5.383,5.466-16.91,0-11.469-5.261-16.823t-16.543-5.354q-1.053,0-2.514.058t-3.01.147q-1.55.087-3.128,0.205t-2.864.234v42.948a19.752,19.752,0,0,0,4.326.673q2.863,0.205,6.2.205Q-509.8,433.583-504.33,428.2Zm-18.238,1.9c-0.605-.02-1.2-0.049-1.783-0.088s-1.189-.1-1.812-0.176-1.306-.175-2.046-0.292V393.092q1.753-.234,3.975-0.351t3.858-.117q9.06,0,13.269,4.476t4.209,14.19q0,9.772-4.3,14.306t-13.474,4.535Q-521.662,430.131-522.568,430.1Zm47.494,2.838h3.975v-43.3h-3.975v43.3Zm14.088-46.928a18.624,18.624,0,0,1,1.052,5.851,27.274,27.274,0,0,1-.526,5.178,25.074,25.074,0,0,1-1.461,4.945l2.162,0.409a18.522,18.522,0,0,0,2.309-5.324,22.427,22.427,0,0,0,.848-5.91,16.68,16.68,0,0,0-.818-5.676Zm12.275,0a18.6,18.6,0,0,1,1.053,5.851,27.356,27.356,0,0,1-.526,5.178,25.006,25.006,0,0,1-1.462,4.945l2.163,0.409a18.522,18.522,0,0,0,2.309-5.324,22.468,22.468,0,0,0,.848-5.91,16.653,16.653,0,0,0-.819-5.676Z"/>
  <path id="The_drama_Dae_Jang_Geum_was_distributed_to" data-name="The drama  “Dae Jang Geum” was distributed to" class="cls-2" d="M199.9,75.345h3.975V35.5h14.32V32.047H185.633V35.5H199.9V75.345Zm25.25,0h3.975V54.866h25.31V75.345h3.916v-43.3h-3.916V51.473h-25.31V32.047h-3.975v43.3Zm44.658,0H296.75V71.893H273.778V55.042h21.1V51.648h-21.1V35.5h22.5V32.047H269.8v43.3Zm78.47-4.739q5.464-5.382,5.465-16.909,0-11.467-5.26-16.822t-16.542-5.354q-1.053,0-2.514.058t-3.01.146q-1.55.088-3.127,0.2t-2.864.234V75.111a19.767,19.767,0,0,0,4.325.673q2.863,0.2,6.2.2Q342.808,75.988,348.274,70.605Zm-18.237,1.9q-0.906-.029-1.783-0.088t-1.812-.176c-0.623-.078-1.306-0.175-2.045-0.293V35.5q1.753-.233,3.974-0.351t3.858-.117q9.06,0,13.269,4.476T349.706,53.7q0,9.772-4.3,14.306t-13.473,4.535Q330.943,72.536,330.037,72.507Zm59.007,2.838h4.443L382.556,58.026a12.7,12.7,0,0,0,7.307-4.417,13.714,13.714,0,0,0,2.338-8.4q0-7.2-4.53-10.473T373.2,31.462a63.181,63.181,0,0,0-10.288.878v43h3.975V58.611q1.81,0.175,3.507.292t3.1,0.117q1.461,0,2.776-.059t2.543-.234Zm-19.2-19.864a18.942,18.942,0,0,1-2.952-.38V35.382q1.459-.233,3.332-0.38t3.507-.146q7.656,0,11.047,2.457t3.39,7.9a13.018,13.018,0,0,1-.789,4.8,7.137,7.137,0,0,1-2.484,3.218,11.615,11.615,0,0,1-4.384,1.814,31.291,31.291,0,0,1-6.546.585Q371.859,55.627,369.843,55.48Zm26.8,19.864h3.916l5.027-13.516h19.874l5.085,13.516h3.917V74.994l-15.9-42.946h-6.021l-15.9,42.946v0.351Zm10.112-17.026L412.716,42.4l2.631-7.314h0.35l2.689,7.314,5.962,15.915H406.754Zm34.253,17.027h3.682V37.489h0.293l5.085,12.287,10.287,23.872h3.8l10.287-23.872,5.027-12.287h0.351V75.345H483.5v-43.3h-5.437L466.2,59.9l-3.8,9.42h-0.35l-3.741-9.42L446.443,32.047h-5.436v43.3Zm49.041,0h3.916l5.027-13.516h19.874l5.085,13.516h3.916V74.994l-15.9-42.946h-6.02l-15.9,42.946v0.351ZM500.16,58.318L506.122,42.4l2.63-7.314H509.1l2.689,7.314,5.962,15.915H500.16ZM28.518,103.542a17.91,17.91,0,0,1-.994-5.793,27.766,27.766,0,0,1,.526-5.207,24.862,24.862,0,0,1,1.461-4.973l-2.163-.41a19.391,19.391,0,0,0-2.309,5.383,22.413,22.413,0,0,0-.848,5.91,17.94,17.94,0,0,0,.76,5.617Zm12.275,0a17.912,17.912,0,0,1-.994-5.793,27.766,27.766,0,0,1,.526-5.207,24.862,24.862,0,0,1,1.461-4.973l-2.163-.41a19.394,19.394,0,0,0-2.309,5.383,22.413,22.413,0,0,0-.848,5.91,17.94,17.94,0,0,0,.76,5.617Zm37.848,26.329q5.465-5.382,5.465-16.909,0-11.468-5.261-16.822T62.3,90.787q-1.052,0-2.513.059t-3.01.146q-1.55.088-3.127,0.2t-2.864.234v42.946a19.744,19.744,0,0,0,4.325.673q2.863,0.206,6.2.2Q73.175,135.254,78.641,129.871Zm-18.237,1.9q-0.907-.029-1.783-0.088t-1.812-.175q-0.936-.117-2.046-0.293V94.765q1.754-.233,3.975-0.351T62.6,94.3q9.06,0,13.269,4.476t4.209,14.189q0,9.772-4.3,14.306T62.3,131.8Q61.308,131.8,60.4,131.773Zm27.21,2.838H91.53L96.557,121.1H116.43l5.086,13.516h3.916v-0.352l-15.9-42.946h-6.021l-15.9,42.946v0.352Zm10.112-17.027,5.962-15.915,2.63-7.313h0.351l2.689,7.313,5.962,15.915H97.726Zm34.252,17.027h26.947v-3.453H135.953v-16.85h21.1v-3.394h-21.1V94.765h22.5V91.313H131.978v43.3Zm48.865,10.765q1.635-3.159,2.747-5.821a45.759,45.759,0,0,0,1.812-5.149,32.178,32.178,0,0,0,.994-4.974,46.144,46.144,0,0,0,.292-5.353V91.313h-3.975v32.532q0,2.984-.234,5.441a37.616,37.616,0,0,1-.759,4.769,39.073,39.073,0,0,1-1.4,4.71q-0.877,2.4-2.222,5.207Zm12.216-10.765h3.916L202,121.1h19.873l5.086,13.516h3.916v-0.352l-15.9-42.946h-6.02l-15.9,42.946v0.352Zm10.112-17.027,5.962-15.915,2.63-7.313h0.351l2.689,7.313,5.962,15.915H203.171Zm34.252,17.027h3.683V97.574H241.4l3.332,4.973,23.322,32.064h3.624v-43.3h-3.682v37.095H267.7l-3.507-5.148L240.989,91.313h-3.566v43.3Zm68.564,0.058a44.962,44.962,0,0,0,5.9-1.287V112.611h-3.8v18.2q-1.87.351-4.033,0.585a34.47,34.47,0,0,1-3.624.235q-15.49,0-15.49-18.607,0-9.535,3.975-14.13T301.194,94.3q1.168,0,2.279.058t2.338,0.234q1.228,0.175,2.6.439T311.54,95.7V92.191a54.3,54.3,0,0,0-5.465-1.082,36.212,36.212,0,0,0-5.115-.38q-20.109,0-20.108,22.351,0,21.941,19.582,22.058A37.572,37.572,0,0,0,305.987,134.669Zm53.248,0a44.962,44.962,0,0,0,5.9-1.287V112.611h-3.8v18.2q-1.872.351-4.034,0.585a34.47,34.47,0,0,1-3.624.235q-15.49,0-15.489-18.607,0-9.535,3.974-14.13T354.442,94.3q1.168,0,2.28.058t2.338,0.234q1.227,0.175,2.6.439t3.127,0.673V92.191a54.192,54.192,0,0,0-5.465-1.082,36.212,36.212,0,0,0-5.115-.38q-20.108,0-20.107,22.351,0,21.941,19.581,22.058A37.572,37.572,0,0,0,359.235,134.669Zm15.781-.058h26.947v-3.453H378.991v-16.85h21.1v-3.394h-21.1V94.765h22.5V91.313H375.016v43.3Zm59.855-.439a12.259,12.259,0,0,0,5.231-3.218,13.239,13.239,0,0,0,3.04-5.588,30.272,30.272,0,0,0,.964-8.191V91.313h-3.975V117a25.36,25.36,0,0,1-.789,6.787,11.065,11.065,0,0,1-2.4,4.564,9.252,9.252,0,0,1-4,2.545,20.325,20.325,0,0,1-11.223,0,9.234,9.234,0,0,1-4-2.545,11.054,11.054,0,0,1-2.4-4.564,25.36,25.36,0,0,1-.789-6.787V91.313h-3.916v25.862a30.312,30.312,0,0,0,.964,8.191,13.4,13.4,0,0,0,3.011,5.588,12.032,12.032,0,0,0,5.2,3.218A28.275,28.275,0,0,0,434.871,134.172Zm20.223,0.439h3.683V96.755h0.292l5.085,12.287,10.288,23.872h3.8l10.288-23.872,5.027-12.287h0.35v37.856h3.683v-43.3h-5.436l-11.866,27.851-3.8,9.42h-0.351l-3.741-9.42L460.53,91.313h-5.436v43.3ZM507.7,87.686a18.628,18.628,0,0,1,1.052,5.851,27.279,27.279,0,0,1-.526,5.178,25.08,25.08,0,0,1-1.461,4.944l2.162,0.409a18.522,18.522,0,0,0,2.309-5.324,22.421,22.421,0,0,0,.848-5.909,16.649,16.649,0,0,0-.819-5.675Zm12.275,0a18.628,18.628,0,0,1,1.052,5.851,27.279,27.279,0,0,1-.526,5.178,25.08,25.08,0,0,1-1.461,4.944l2.162,0.409a18.522,18.522,0,0,0,2.309-5.324,22.421,22.421,0,0,0,.848-5.909,16.649,16.649,0,0,0-.819-5.675ZM19.048,193.877h5.378l8.651-30.367L34.83,156.2h0.292l1.754,7.255,8.534,30.426h5.319l12.217-43.3H58.8l-8.417,30.484-2.163,8.425H47.865l-2.28-8.425L37.11,150.579H32.9l-8.709,30.484-2.221,8.425H21.62l-2.163-8.425-8.242-30.484H7.066Zm44.131,0H67.1l5.027-13.516H92l5.085,13.516H101v-0.352L85.1,150.579h-6.02l-15.9,42.946v0.352ZM73.291,176.85l5.962-15.915,2.63-7.313h0.351l2.689,7.313,5.962,15.915H73.291Zm55.646,14.657q3.858-3.014,3.858-8.63a11.279,11.279,0,0,0-.994-5,10.139,10.139,0,0,0-2.718-3.423,15.391,15.391,0,0,0-4.091-2.34q-2.369-.936-5.115-1.756a35.5,35.5,0,0,1-4.881-1.7,11.979,11.979,0,0,1-3.156-1.96,6.485,6.485,0,0,1-1.725-2.4,8.088,8.088,0,0,1-.526-3.014,7.2,7.2,0,0,1,2.835-5.968,12.035,12.035,0,0,1,7.628-2.223,37.612,37.612,0,0,1,5.056.38,49.7,49.7,0,0,1,5.524,1.083l0.117-3.511a50.8,50.8,0,0,0-10.93-1.4,19.815,19.815,0,0,0-5.9.819,13.057,13.057,0,0,0-4.5,2.37,10.709,10.709,0,0,0-2.893,3.715,11.078,11.078,0,0,0-1.023,4.8,12.319,12.319,0,0,0,.7,4.33,8.95,8.95,0,0,0,2.221,3.335,14.69,14.69,0,0,0,3.917,2.6,39.294,39.294,0,0,0,5.786,2.136q2.221,0.645,4.151,1.375a14.817,14.817,0,0,1,3.361,1.755,7.066,7.066,0,0,1,3.068,6.173,6.918,6.918,0,0,1-2.835,5.939q-2.835,2.077-8.154,2.077a44.661,44.661,0,0,1-6.2-.5,62.724,62.724,0,0,1-6.722-1.317l-0.117,3.452a62,62,0,0,0,6.781,1.317,46.708,46.708,0,0,0,6.371.5Q125.079,194.52,128.937,191.507Zm54.739-2.37q5.466-5.382,5.466-16.909,0-11.468-5.261-16.822t-16.542-5.353q-1.051,0-2.513.058t-3.011.146q-1.549.089-3.127,0.2t-2.864.234v42.946a19.752,19.752,0,0,0,4.326.673q2.862,0.206,6.195.205Q178.212,194.52,183.676,189.137Zm-18.237,1.9q-0.906-.028-1.782-0.088t-1.812-.176q-0.936-.115-2.046-0.292V154.031q1.753-.233,3.975-0.351t3.857-.117q9.06,0,13.269,4.476t4.209,14.189q0,9.772-4.3,14.306t-13.473,4.534Q166.344,191.068,165.439,191.039Zm32.879,2.838h3.975v-43.3h-3.975v43.3Zm36.825-2.37q3.858-3.014,3.858-8.63a11.279,11.279,0,0,0-.994-5,10.139,10.139,0,0,0-2.718-3.423,15.391,15.391,0,0,0-4.091-2.34q-2.369-.936-5.115-1.756a35.5,35.5,0,0,1-4.881-1.7,11.979,11.979,0,0,1-3.156-1.96,6.471,6.471,0,0,1-1.724-2.4,8.068,8.068,0,0,1-.527-3.014,7.2,7.2,0,0,1,2.835-5.968,12.035,12.035,0,0,1,7.628-2.223,37.612,37.612,0,0,1,5.056.38,49.7,49.7,0,0,1,5.524,1.083l0.117-3.511a50.8,50.8,0,0,0-10.93-1.4,19.815,19.815,0,0,0-5.9.819,13.057,13.057,0,0,0-4.5,2.37,10.721,10.721,0,0,0-2.893,3.715,11.078,11.078,0,0,0-1.023,4.8,12.319,12.319,0,0,0,.7,4.33,8.95,8.95,0,0,0,2.221,3.335,14.69,14.69,0,0,0,3.917,2.6,39.294,39.294,0,0,0,5.786,2.136q2.221,0.645,4.151,1.375a14.817,14.817,0,0,1,3.361,1.755,7.066,7.066,0,0,1,3.068,6.173,6.918,6.918,0,0,1-2.835,5.939q-2.835,2.077-8.154,2.077a44.661,44.661,0,0,1-6.2-.5A62.724,62.724,0,0,1,211,189.254l-0.117,3.452a62,62,0,0,0,6.781,1.317,46.708,46.708,0,0,0,6.371.5Q231.285,194.52,235.143,191.507Zm22.036,2.37h3.975V154.031h14.321v-3.452H242.917v3.452h14.262v39.846Zm51.379,0H313l-10.93-17.319a12.708,12.708,0,0,0,7.306-4.418,13.714,13.714,0,0,0,2.338-8.4q0-7.2-4.53-10.473t-14.467-3.277a63.182,63.182,0,0,0-10.287.878v43.005H286.4V177.143q1.811,0.175,3.507.292t3.1,0.117q1.46,0,2.776-.058t2.543-.234Zm-19.2-19.865a18.984,18.984,0,0,1-2.951-.38V153.914q1.46-.233,3.331-0.38t3.507-.146q7.658,0,11.048,2.457t3.39,7.9a13.022,13.022,0,0,1-.789,4.8,7.139,7.139,0,0,1-2.484,3.218,11.624,11.624,0,0,1-4.384,1.814,31.322,31.322,0,0,1-6.547.585Q291.373,174.159,289.356,174.012Zm31.71,19.865h3.974v-43.3h-3.974v43.3Zm45.125-11.293a9.921,9.921,0,0,0-8.885-10.649V171.7a8.408,8.408,0,0,0,5.494-3.364,11.048,11.048,0,0,0,1.988-6.7q0-6.144-3.683-8.865t-11.982-2.72q-2.69,0-5.583.2t-7.043.615v42.712q3.507,0.468,6.868.673t6.342,0.2q16.484,0,16.484-11.878h0ZM344.213,191.1a29.332,29.332,0,0,1-3.858-.439V173.515h10.17q6.021,0,8.856,2.165t2.835,6.67q0,4.565-3.069,6.729t-9.5,2.165Q346.609,191.244,344.213,191.1Zm-3.858-20.742V153.8a35.213,35.213,0,0,1,4-.38q2.133-.088,4.939-0.088a25.725,25.725,0,0,1,5.29.468,9.379,9.379,0,0,1,3.565,1.463,5.79,5.79,0,0,1,2.017,2.633,10.741,10.741,0,0,1,.643,3.92q0,4.623-2.426,6.582t-8.1,1.96h-9.937Zm58.685,23.083a12.256,12.256,0,0,0,5.232-3.218,13.248,13.248,0,0,0,3.039-5.588,30.269,30.269,0,0,0,.965-8.191V150.579H404.3v25.686a25.36,25.36,0,0,1-.789,6.787,11.061,11.061,0,0,1-2.4,4.564,9.24,9.24,0,0,1-4,2.545,20.321,20.321,0,0,1-11.222,0,9.228,9.228,0,0,1-4-2.545,11.049,11.049,0,0,1-2.4-4.564,25.36,25.36,0,0,1-.789-6.787V150.579h-3.916v25.862a30.272,30.272,0,0,0,.964,8.191,13.408,13.408,0,0,0,3.01,5.588,12.035,12.035,0,0,0,5.2,3.218A28.272,28.272,0,0,0,399.04,193.438Zm29.985,0.439H433V154.031h14.321v-3.452H414.763v3.452h14.262v39.846Zm25.251,0h26.946v-3.453H458.251v-16.85h21.1V170.18h-21.1V154.031h22.5v-3.452H454.276v43.3Zm63.858-4.74q5.465-5.382,5.465-16.909,0-11.468-5.26-16.822T501.8,150.053q-1.053,0-2.514.058t-3.01.146q-1.55.089-3.127,0.2t-2.864.234v42.946a19.731,19.731,0,0,0,4.325.673q2.863,0.206,6.2.205Q512.668,194.52,518.134,189.137Zm-18.237,1.9q-0.906-.028-1.783-0.088t-1.812-.176c-0.623-.077-1.306-0.175-2.045-0.292V154.031q1.753-.233,3.974-0.351t3.858-.117q9.06,0,13.269,4.476t4.208,14.189q0,9.772-4.3,14.306T501.8,191.068Q500.8,191.068,499.9,191.039Z"/>
  <path id="COUNTRIES" class="cls-2" d="M1316.4,465.783q1.26-.087,2.55-0.263c0.85-.117,1.69-0.253,2.51-0.409s1.56-.331,2.22-0.527V461.19a21.623,21.623,0,0,1-2.16.439c-0.86.137-1.74,0.263-2.63,0.38s-1.77.2-2.6,0.264-1.57.088-2.2,0.088q-14.955,0-14.96-18.607,0-9.594,3.8-14.159t11.63-4.564a37.662,37.662,0,0,1,4.15.263c1.56,0.176,3.22.42,4.97,0.732v-3.511c-1.6-.312-3.25-0.565-4.97-0.76a40.341,40.341,0,0,0-4.5-.293q-19.17,0-19.17,22.351,0,21.941,19.05,22.058C1314.8,465.871,1315.56,465.842,1316.4,465.783Zm44.02-5.47q4.755-5.618,4.76-16.559,0-11-4.76-16.646t-13.53-5.646q-8.9,0-13.62,5.646-4.74,5.647-4.74,16.646t4.74,16.588q4.725,5.588,13.62,5.588Q1355.65,465.93,1360.42,460.313Zm-24.23-2.516q-3.63-4.68-3.63-14.043,0-9.418,3.63-14.13,3.615-4.709,10.7-4.71,7.065,0,10.66,4.71t3.6,14.13q0,9.3-3.6,14.014-3.585,4.71-10.66,4.71T1336.19,457.8Zm62.02,7.109a12.316,12.316,0,0,0,5.23-3.218,13.348,13.348,0,0,0,3.04-5.588,30.4,30.4,0,0,0,.96-8.191V422.047h-3.97v25.686a25.6,25.6,0,0,1-.79,6.787,11.128,11.128,0,0,1-2.4,4.564,9.262,9.262,0,0,1-4,2.545,20.35,20.35,0,0,1-11.23,0,9.262,9.262,0,0,1-4-2.545,11.128,11.128,0,0,1-2.4-4.564,25.6,25.6,0,0,1-.79-6.787V422.047h-3.91v25.862a30.4,30.4,0,0,0,.96,8.191,13.533,13.533,0,0,0,3.01,5.588,12.09,12.09,0,0,0,5.2,3.218A28.308,28.308,0,0,0,1398.21,464.906Zm20.22,0.439h3.68V428.308h0.29l3.34,4.973,23.32,32.064h3.62v-43.3H1449v37.095h-0.29l-3.51-5.148-23.21-31.947h-3.56v43.3Zm55.47,0h3.97V425.5h14.33v-3.452h-32.56V425.5h14.26v39.846Zm51.38,0h4.44l-10.93-17.319a12.726,12.726,0,0,0,7.31-4.418,13.764,13.764,0,0,0,2.33-8.4q0-7.2-4.53-10.473t-14.46-3.277a63.283,63.283,0,0,0-10.29.878v43.005h3.97V448.611q1.815,0.176,3.51.292c1.13,0.079,2.16.117,3.1,0.117,0.97,0,1.9-.019,2.78-0.058s1.72-.117,2.54-0.234Zm-19.2-19.865a19.171,19.171,0,0,1-2.96-.38V425.382c0.98-.155,2.09-0.282,3.34-0.38s2.41-.146,3.5-0.146q7.665,0,11.05,2.457t3.39,7.9a12.939,12.939,0,0,1-.79,4.8,7.09,7.09,0,0,1-2.48,3.218,11.593,11.593,0,0,1-4.39,1.814,31.244,31.244,0,0,1-6.54.585C1508.79,445.627,1507.42,445.578,1506.08,445.48Zm31.71,19.865h3.97v-43.3h-3.97v43.3Zm15.43,0h26.94v-3.453h-22.97v-16.85h21.1v-3.394h-21.1V425.5h22.51v-3.452h-26.48v43.3Zm57.4-2.37q3.855-3.014,3.85-8.63a11.309,11.309,0,0,0-.99-5,10.1,10.1,0,0,0-2.72-3.423,15.353,15.353,0,0,0-4.09-2.34q-2.37-.936-5.11-1.755a35.322,35.322,0,0,1-4.88-1.7,11.974,11.974,0,0,1-3.16-1.96,6.447,6.447,0,0,1-1.72-2.4,7.891,7.891,0,0,1-.53-3.014,7.192,7.192,0,0,1,2.83-5.968,12.057,12.057,0,0,1,7.63-2.223,37.656,37.656,0,0,1,5.06.38,49.591,49.591,0,0,1,5.52,1.083l0.12-3.511a50.776,50.776,0,0,0-10.93-1.4,19.9,19.9,0,0,0-5.91.819,13.116,13.116,0,0,0-4.5,2.37,10.793,10.793,0,0,0-2.89,3.715,11.12,11.12,0,0,0-1.02,4.8,12.252,12.252,0,0,0,.7,4.33,9.008,9.008,0,0,0,2.22,3.335,14.645,14.645,0,0,0,3.92,2.6,38.9,38.9,0,0,0,5.78,2.136c1.48,0.43,2.87.888,4.15,1.375a14.579,14.579,0,0,1,3.36,1.755,7.394,7.394,0,0,1,2.25,2.516,7.47,7.47,0,0,1,.82,3.657,6.914,6.914,0,0,1-2.83,5.939q-2.835,2.077-8.16,2.077a44.64,44.64,0,0,1-6.19-.5,62.445,62.445,0,0,1-6.72-1.317l-0.12,3.452a61.7,61.7,0,0,0,6.78,1.317,46.742,46.742,0,0,0,6.37.5Q1606.755,465.988,1610.62,462.975Z"/>
  <rect class="cls-3" x="-2081" y="707" width="1998" height="36"/>
  <rect id="Rectangle_10_copy" data-name="Rectangle 10 copy" class="cls-4" x="-83" y="707" width="1987" height="36"/>
</svg>
