<svg xmlns="http://www.w3.org/2000/svg" width="1478" height="480" viewBox="0 0 1478 480">
  <metadata><?xpacket begin="﻿" id="W5M0MpCehiHzreSzNTczkc9d"?>
<x:xmpmeta xmlns:x="adobe:ns:meta/" x:xmptk="Adobe XMP Core 5.6-c142 79.160924, 2017/07/13-01:06:39        ">
   <rdf:RDF xmlns:rdf="http://www.w3.org/1999/02/22-rdf-syntax-ns#">
      <rdf:Description rdf:about=""/>
   </rdf:RDF>
</x:xmpmeta>
                                                                                                    
                                                                                                    
                                                                                                    
                                                                                                    
                                                                                                    
                                                                                                    
                                                                                                    
                                                                                                    
                                                                                                    
                                                                                                    
                                                                                                    
                                                                                                    
                                                                                                    
                                                                                                    
                                                                                                    
                                                                                                    
                                                                                                    
                                                                                                    
                                                                                                    
                                                                                                    
                           
<?xpacket end="w"?></metadata>
<defs>
    <style>
      .cls-1 {
        fill: #4c2e83;
      }

      .cls-1, .cls-2 {
        fill-rule: evenodd;
      }

      .cls-2, .cls-4 {
        fill: #84754d;
      }

      .cls-3 {
        fill: #4b2e83;
      }
    </style>
  </defs>
  <path id="_67" data-name="67" class="cls-1" d="M288.847,455.844q36.642-11,62.292-31.788a139.062,139.062,0,0,0,39.391-50.739q13.74-29.945,13.74-67.244,0-31.177-11.6-56.853a119.733,119.733,0,0,0-32.978-43.4q-21.384-17.722-51.3-27.509-29.93-9.771-67.178-9.781-29.313,0-53.742,7.03T145.33,194.814q8.545-51.351,38.475-72.747,29.914-21.391,89.163-21.4a360.657,360.657,0,0,1,37.864,2.14q20.154,2.149,47.635,7.03l16.489-95.365q-29.928-6.1-56.49-9.17A447.343,447.343,0,0,0,267.472,2.25Q4.863,2.25,4.867,255.334q0,103.932,52.216,157.719t148.707,53.8Q252.2,466.848,288.847,455.844Zm-38.17-189.812q13.742,13.152,13.741,43.709,0,31.176-14.046,45.542T205.79,369.649q-31.761,0-47.024-22.007T141.055,274.9q10.378-9.171,28.4-15.589a107.568,107.568,0,0,1,36.337-6.419Q236.936,252.888,250.677,266.032ZM623.509,460.124L778.018,89.668V81.721L760.307,8.363H447.014L433.579,19.978l4.274,103.312h189.32L477.549,447.9v12.838L594.2,476.629Z"/>
  <path id="_91" data-name="91" class="cls-2" d="M2564.74,13.254q-36.645,11-62.29,31.788a139.209,139.209,0,0,0-39.39,50.739q-13.74,29.96-13.74,67.244,0,31.177,11.6,56.852a119.4,119.4,0,0,0,32.98,43.4q21.375,17.738,51.3,27.509t67.18,9.781q29.31,0,53.74-7.03t42.14-19.257q-8.565,51.351-38.48,72.747t-89.16,21.4a357.738,357.738,0,0,1-37.86-2.14q-20.16-2.135-47.64-7.03l-16.49,95.365q29.91,6.117,56.49,9.17a447.4,447.4,0,0,0,51,3.056q262.59,0,262.6-253.084,0-103.918-52.21-157.719Q2744.28,2.259,2647.8,2.25,2601.375,2.25,2564.74,13.254Zm38.17,189.813q-13.74-13.139-13.74-43.709,0-31.176,14.05-45.542t44.58-14.366q31.74,0,47.02,22.007,15.255,22.007,17.71,72.746-10.4,9.17-28.4,15.589a107.571,107.571,0,0,1-36.33,6.419Q2616.645,216.21,2602.91,203.066ZM3002,460.735h137.41V8.363H3035.59L2881.08,87.834l-1.22,5.5,15.27,78.249h6.72l97.71-20.174H3002V460.735Z"/>
  <path id="_" data-name="%" class="cls-1" d="M893.218,127.749q11.517-11.147,11.518-33.824T893.218,59.91Q881.7,48.574,860.379,48.571q-21.132,0-32.744,11.338T816.022,93.925q0,22.68,11.518,33.824T860.379,138.9Q881.7,138.9,893.218,127.749Zm-44.261-17.817q-3.427-4-3.427-16.007t3.427-16.1q3.426-4.1,11.422-4.1a23.033,23.033,0,0,1,6.758.858,8.67,8.67,0,0,1,4.474,3.144,15.994,15.994,0,0,1,2.57,6.193,48.064,48.064,0,0,1,.857,10q0,12-3.427,16.007t-11.232,4Q852.382,113.934,848.957,109.932Zm170.293,72.413q11.505-11.241,11.51-33.92t-11.51-33.92q-11.535-11.241-32.844-11.243-21.132,0-32.744,11.243t-11.613,33.92q0,22.68,11.517,33.92t32.84,11.244Q1007.727,193.589,1019.25,182.345Zm-44.267-17.817q-3.426-4.1-3.426-16.1t3.426-16.1q3.428-4.1,11.423-4.1,7.8,0,11.232,4.1t3.422,16.1a48.154,48.154,0,0,1-.85,10,16,16,0,0,1-2.572,6.193,8.663,8.663,0,0,1-4.474,3.144,23.018,23.018,0,0,1-6.758.858Q978.41,168.625,974.983,164.528Zm-102.23,27.155h35.219L973.651,50.667H938.432Z"/>
  <path id="of_korean_television_viewers_watched_the_finale_of_you_and_I_" data-name="of korean television viewers watched the finale of “you and I”" class="cls-1" d="M829.678,297.967q4.764-5.618,4.764-16.56,0-11-4.764-16.647t-13.533-5.646q-8.886,0-13.62,5.646t-4.735,16.647q0,11,4.735,16.589t13.62,5.588Q824.914,303.584,829.678,297.967Zm-24.23-2.516q-3.625-4.682-3.624-14.044,0-9.42,3.624-14.131t10.7-4.71q7.072,0,10.668,4.71t3.6,14.131q0,9.3-3.6,14.014t-10.668,4.711Q809.073,300.132,805.448,295.451ZM843.619,303h3.975V282.987h20.284v-3.452H847.594V263.151h22.213V259.7H843.619V303Zm47.815,0h3.975V282.636h9.178L919.084,303H923.7l-14.789-20.655-1.871-1.4v-0.351l1.695-1.463L922.65,259.7h-4.618l-13.854,19.485h-8.769V259.7h-3.975V303Zm66.318-5.032q4.764-5.618,4.764-16.56,0-11-4.764-16.647t-13.532-5.646q-8.888,0-13.621,5.646t-4.734,16.647q0,11,4.734,16.589t13.621,5.588Q952.988,303.584,957.752,297.967Zm-24.23-2.516q-3.625-4.682-3.624-14.044,0-9.42,3.624-14.131t10.7-4.71q7.071,0,10.668,4.71t3.595,14.131q0,9.3-3.595,14.014t-10.668,4.711Q937.146,300.132,933.522,295.451Zm64.3,7.548h4.448l-10.936-17.32a12.708,12.708,0,0,0,7.307-4.418,13.709,13.709,0,0,0,2.339-8.4q0-7.2-4.531-10.474t-14.468-3.276a63.181,63.181,0,0,0-10.288.877V303h3.975V286.264q1.81,0.175,3.507.292t3.1,0.118q1.461,0,2.777-.059t2.543-.234Zm-19.2-19.866a18.877,18.877,0,0,1-2.952-.38V263.034q1.459-.232,3.332-0.38t3.507-.147q7.658,0,11.048,2.458t3.391,7.9a12.993,12.993,0,0,1-.79,4.8,7.142,7.142,0,0,1-2.484,3.219,11.624,11.624,0,0,1-4.384,1.814,31.322,31.322,0,0,1-6.547.585Q980.637,283.28,978.62,283.133ZM1010.33,303h26.95v-3.453h-22.97V282.7h21.1V279.3h-21.1v-16.15h22.5V259.7h-26.48V303Zm31.1,0h3.92l5.02-13.517h19.88L1075.33,303h3.92v-0.351l-15.9-42.949h-6.02l-15.9,42.949V303Zm10.11-17.028,5.96-15.915,2.63-7.315h0.36l2.68,7.315,5.97,15.915h-17.6ZM1085.8,303h3.68V265.96h0.29l3.33,4.973L1116.43,303h3.62V259.7h-3.68v37.1h-0.29l-3.51-5.149L1089.36,259.7h-3.56V303Zm68.56,0h3.98V263.151h14.32V259.7H1140.1v3.452h14.26V303Zm25.26,0h26.94v-3.453h-22.97V282.7h21.1V279.3h-21.1v-16.15h22.51V259.7h-26.48V303Zm36,0h24.03v-3.394H1219.6V259.7h-3.98V303Zm30.87,0h26.95v-3.453h-22.98V282.7h21.11V279.3h-21.11v-16.15h22.51V259.7h-26.48V303Zm47.29,0h5.38l16.19-43.3h-4.15l-11.58,31.07-2.98,8.251h-0.35l-2.92-8.251-11.58-31.07h-4.15Zm28.11,0h3.98V259.7h-3.98V303Zm36.83-2.37q3.855-3.014,3.86-8.631a11.17,11.17,0,0,0-1-5,10.087,10.087,0,0,0-2.71-3.423,15.417,15.417,0,0,0-4.1-2.34c-1.57-.624-3.28-1.209-5.11-1.756a35.059,35.059,0,0,1-4.88-1.7,11.948,11.948,0,0,1-3.16-1.96,6.431,6.431,0,0,1-1.72-2.4,8.078,8.078,0,0,1-.53-3.013,7.2,7.2,0,0,1,2.84-5.969,12.031,12.031,0,0,1,7.63-2.223,37.517,37.517,0,0,1,5.05.38,49.982,49.982,0,0,1,5.53,1.083l0.11-3.511a50.776,50.776,0,0,0-10.93-1.4,19.788,19.788,0,0,0-5.9.819,12.919,12.919,0,0,0-4.5,2.37,10.693,10.693,0,0,0-2.9,3.715,11.12,11.12,0,0,0-1.02,4.8,12.248,12.248,0,0,0,.7,4.33,9.012,9.012,0,0,0,2.22,3.336,14.807,14.807,0,0,0,3.92,2.6,39.487,39.487,0,0,0,5.79,2.136c1.48,0.43,2.86.888,4.15,1.375a15,15,0,0,1,3.36,1.756,7.073,7.073,0,0,1,3.07,6.173,6.923,6.923,0,0,1-2.84,5.939q-2.835,2.077-8.15,2.077a44.656,44.656,0,0,1-6.2-.5,62.445,62.445,0,0,1-6.72-1.317l-0.12,3.452a61.7,61.7,0,0,0,6.78,1.317,46.742,46.742,0,0,0,6.37.5Q1354.87,303.642,1358.72,300.629ZM1371,303h3.97V259.7H1371V303Zm45.04-5.032q4.755-5.618,4.76-16.56,0-11-4.76-16.647t-13.54-5.646q-8.88,0-13.62,5.646t-4.73,16.647q0,11,4.73,16.589t13.62,5.588Q1411.275,303.584,1416.04,297.967Zm-24.23-2.516q-3.63-4.682-3.63-14.044,0-9.42,3.63-14.131t10.69-4.71q7.08,0,10.67,4.71t3.6,14.131q0,9.3-3.6,14.014t-10.67,4.711Q1395.435,300.132,1391.81,295.451ZM1429.98,303h3.68V265.96h0.29l3.33,4.973L1460.61,303h3.62V259.7h-3.68v37.1h-0.29l-3.51-5.149L1433.54,259.7h-3.56V303Zm-618.628,64.97h5.378l16.192-43.3h-4.15L817.2,355.74l-2.982,8.25h-0.35l-2.923-8.25-11.574-31.071h-4.151Zm28.116,0h3.975v-43.3h-3.975v43.3Zm15.432,0h26.948v-3.452H858.875V347.665h21.1v-3.394h-21.1v-16.15h22.506v-3.452H854.9v43.3Zm43.783,0h5.378l8.651-30.368,1.754-7.315h0.292l1.754,7.256,8.534,30.427h5.32l12.217-43.3h-4.15l-8.418,30.486-2.163,8.426H927.5l-2.279-8.426-8.476-30.486h-4.209l-8.71,30.486-2.221,8.426h-0.351l-2.163-8.426-8.242-30.486H886.7Zm51.031,0h26.948v-3.452H953.689V347.665h21.1v-3.394h-21.1v-16.15h22.5v-3.452h-26.48v43.3Zm62.136,0h4.44l-10.93-17.32a12.716,12.716,0,0,0,7.31-4.418,13.7,13.7,0,0,0,2.34-8.4q0-7.2-4.53-10.474t-14.47-3.277a63.185,63.185,0,0,0-10.288.878v43.007H989.7V351.234q1.81,0.175,3.507.293t3.1,0.117q1.461,0,2.777-.059c0.876-.038,1.721-0.117,2.541-0.234Zm-19.2-19.865a18.832,18.832,0,0,1-2.952-.381V328q1.459-.233,3.331-0.38t3.508-.146q7.656,0,11.044,2.457t3.39,7.9a13.157,13.157,0,0,1-.78,4.8,7.179,7.179,0,0,1-2.49,3.218,11.611,11.611,0,0,1-4.38,1.814,31.4,31.4,0,0,1-6.55.585Q994.666,348.25,992.649,348.1Zm53.1,17.5q3.87-3.012,3.86-8.63a11.309,11.309,0,0,0-.99-5,10.1,10.1,0,0,0-2.72-3.423,15.355,15.355,0,0,0-4.09-2.341c-1.58-.623-3.28-1.209-5.12-1.755a35.8,35.8,0,0,1-4.88-1.7,11.9,11.9,0,0,1-3.15-1.96,6.478,6.478,0,0,1-1.73-2.4,8.09,8.09,0,0,1-.52-3.014,7.19,7.19,0,0,1,2.83-5.968,12.032,12.032,0,0,1,7.63-2.224,37.622,37.622,0,0,1,5.06.381,49.359,49.359,0,0,1,5.52,1.082l0.12-3.511a50.851,50.851,0,0,0-10.93-1.4,19.856,19.856,0,0,0-5.91.819,13.116,13.116,0,0,0-4.5,2.37,10.668,10.668,0,0,0-2.89,3.716,10.975,10.975,0,0,0-1.03,4.8,12.245,12.245,0,0,0,.71,4.33,8.771,8.771,0,0,0,2.22,3.335,14.606,14.606,0,0,0,3.91,2.6,39.494,39.494,0,0,0,5.79,2.135c1.48,0.43,2.86.888,4.15,1.376a14.579,14.579,0,0,1,3.36,1.755,7.385,7.385,0,0,1,2.25,2.516,7.467,7.467,0,0,1,.82,3.657,6.914,6.914,0,0,1-2.83,5.939c-1.9,1.385-4.61,2.077-8.16,2.077a44.773,44.773,0,0,1-6.2-.5,63.676,63.676,0,0,1-6.72-1.316l-0.11,3.452a61.7,61.7,0,0,0,6.78,1.316,46.638,46.638,0,0,0,6.37.5Q1041.9,368.613,1045.75,365.6Zm33.21,2.37h5.37l8.66-30.368,1.75-7.315h0.29l1.76,7.256,8.53,30.427h5.32l12.22-43.3h-4.15l-8.42,30.486-2.16,8.426h-0.35l-2.28-8.426-8.48-30.486h-4.21l-8.71,30.486-2.22,8.426h-0.35l-2.16-8.426-8.25-30.486h-4.15Zm44.13,0h3.92l5.02-13.516h19.88l5.08,13.516h3.92v-0.351l-15.9-42.949h-6.02l-15.9,42.949v0.351Zm10.11-17.027,5.97-15.916,2.63-7.314h0.35l2.69,7.314,5.96,15.916h-17.6Zm39.64,17.027h3.97V328.121h14.32v-3.452h-32.56v3.452h14.27v39.848Zm42.11,0.439q1.26-.089,2.55-0.263c0.85-.117,1.69-0.254,2.51-0.41a22.545,22.545,0,0,0,2.22-.527v-3.393c-0.58.156-1.31,0.3-2.16,0.439s-1.74.263-2.63,0.38-1.77.2-2.6,0.263-1.57.088-2.2,0.088q-14.955,0-14.96-18.607,0-9.6,3.8-14.161t11.63-4.564a37.44,37.44,0,0,1,4.15.264c1.56,0.175,3.22.419,4.97,0.731v-3.511c-1.6-.311-3.25-0.565-4.97-0.76a40.341,40.341,0,0,0-4.5-.293q-19.17,0-19.17,22.352,0,21.944,19.05,22.06Q1213.69,368.5,1214.95,368.408Zm15.64-.439h3.97v-20.48h25.32v20.48h3.91v-43.3h-3.91V344.1h-25.32V324.669h-3.97v43.3Zm44.66,0h26.95v-3.452h-22.98V347.665h21.11v-3.394h-21.11v-16.15h22.51v-3.452h-26.48v43.3Zm63.86-4.739q5.46-5.384,5.47-16.911,0-11.468-5.26-16.822t-16.55-5.354c-0.7,0-1.54.02-2.51,0.058s-1.98.088-3.01,0.146-2.08.127-3.13,0.205-2.01.156-2.86,0.234v42.949a19.644,19.644,0,0,0,4.32.673q2.865,0.2,6.2.2Q1333.645,368.613,1339.11,363.23Zm-18.24,1.9c-0.6-.019-1.2-0.048-1.78-0.088s-1.19-.1-1.81-0.175-1.31-.176-2.05-0.293V328.121c1.17-.155,2.5-0.272,3.98-0.351s2.76-.117,3.85-0.117q9.06,0,13.27,4.477t4.21,14.189q0,9.772-4.29,14.307t-13.48,4.534C1322.11,365.16,1321.48,365.151,1320.87,365.131Zm55.74,2.838h3.98V328.121h14.32v-3.452h-32.56v3.452h14.26v39.848Zm25.25,0h3.98v-20.48h25.31v20.48h3.91v-43.3h-3.91V344.1h-25.31V324.669h-3.98v43.3Zm44.66,0h26.95v-3.452H1450.5V347.665h21.1v-3.394h-21.1v-16.15H1473v-3.452h-26.48v43.3ZM800.07,432.94h3.975V412.928h20.284v-3.452H804.045V393.092h22.213V389.64H800.07v43.3Zm34.254,0H838.3v-43.3h-3.975v43.3Zm15.432,0h3.683V395.9h0.292l3.332,4.974,23.324,32.066h3.624v-43.3h-3.682v37.1h-0.293l-3.507-5.149L853.322,389.64h-3.566v43.3Zm40.8,0h3.916l5.027-13.517h19.875l5.086,13.517h3.916v-0.352l-15.9-42.948h-6.02l-15.9,42.948v0.352Zm10.112-17.028L906.633,400l2.63-7.314h0.351L912.3,400l5.963,15.916h-17.6Zm34.255,17.028H958.95v-3.394H938.9V389.64h-3.975v43.3Zm30.864,0h26.948v-3.453H969.764V412.635h21.1v-3.393h-21.1v-16.15h22.5V389.64h-26.48v43.3Zm80.231-5.033q4.755-5.618,4.76-16.559,0-11-4.76-16.647t-13.53-5.647q-8.9,0-13.62,5.647t-4.74,16.647q0,11,4.74,16.589t13.62,5.588Q1041.25,433.525,1046.02,427.907Zm-24.23-2.516q-3.63-4.68-3.63-14.043,0-9.42,3.63-14.131t10.7-4.71q7.065,0,10.66,4.71t3.6,14.131q0,9.3-3.6,14.014t-10.66,4.71Q1025.41,430.072,1021.79,425.391Zm38.17,7.549h3.97V412.928h20.29v-3.452h-20.29V393.092h22.22V389.64h-26.19v43.3Zm50.15-31.071a17.987,17.987,0,0,1-.99-5.793,27.035,27.035,0,0,1,.53-5.208,24.417,24.417,0,0,1,1.46-4.973l-2.17-.41a19.694,19.694,0,0,0-2.31,5.383,22.618,22.618,0,0,0-.84,5.91,17.85,17.85,0,0,0,.76,5.617Zm12.28,0a18,18,0,0,1-1-5.793,27.851,27.851,0,0,1,.53-5.208,25.067,25.067,0,0,1,1.46-4.973l-2.16-.41a19.1,19.1,0,0,0-2.31,5.383,22.233,22.233,0,0,0-.85,5.91,18.146,18.146,0,0,0,.76,5.617Zm20.52,31.071h3.97V418.194l15.55-28.554h-4.27l-11.4,21.064-1.69,3.687h-0.41l-1.75-3.687-11.34-21.064h-4.33l15.67,28.671V432.94Zm53.75-5.033q4.755-5.618,4.76-16.559,0-11-4.76-16.647t-13.54-5.647q-8.88,0-13.62,5.647-4.725,5.647-4.73,16.647t4.73,16.589q4.74,5.587,13.62,5.588Q1191.9,433.525,1196.66,427.907Zm-24.23-2.516q-3.63-4.68-3.63-14.043,0-9.42,3.63-14.131,3.615-4.71,10.69-4.71t10.67,4.71q3.6,4.712,3.6,14.131,0,9.3-3.6,14.014t-10.67,4.71Q1176.055,430.072,1172.43,425.391Zm62.02,7.11a12.308,12.308,0,0,0,5.23-3.219,13.342,13.342,0,0,0,3.04-5.588,30.4,30.4,0,0,0,.96-8.192V389.64h-3.97v25.687a25.617,25.617,0,0,1-.79,6.788,11.141,11.141,0,0,1-2.4,4.564,9.271,9.271,0,0,1-4,2.545,20.35,20.35,0,0,1-11.23,0,9.271,9.271,0,0,1-4-2.545,11.141,11.141,0,0,1-2.4-4.564,25.617,25.617,0,0,1-.79-6.788V389.64h-3.91V415.5a30.4,30.4,0,0,0,.96,8.192,13.413,13.413,0,0,0,3.01,5.588,12.082,12.082,0,0,0,5.2,3.219A28.308,28.308,0,0,0,1234.45,432.5Zm28.29,0.439h3.91l5.03-13.517h19.88l5.08,13.517h3.92v-0.352l-15.9-42.948h-6.02l-15.9,42.948v0.352Zm10.11-17.028L1278.81,400l2.63-7.314h0.35l2.69,7.314,5.97,15.916h-17.6Zm34.25,17.028h3.69V395.9h0.29l3.33,4.974,23.33,32.066h3.62v-43.3h-3.68v37.1h-0.3l-3.5-5.149-23.21-31.948h-3.57v43.3Zm73.57-4.74q5.46-5.383,5.47-16.91,0-11.469-5.27-16.823-5.25-5.353-16.54-5.354c-0.7,0-1.54.02-2.51,0.058s-1.98.088-3.01,0.147-2.08.127-3.13,0.205-2.01.156-2.86,0.234v42.948a19.644,19.644,0,0,0,4.32.673q2.865,0.205,6.2.205Q1375.205,433.583,1380.67,428.2Zm-18.24,1.9c-0.6-.02-1.2-0.049-1.78-0.088s-1.19-.1-1.81-0.176-1.31-.175-2.05-0.292V393.092c1.17-.156,2.49-0.273,3.98-0.351s2.76-.117,3.85-0.117q9.06,0,13.27,4.476t4.21,14.19q0,9.772-4.29,14.306t-13.48,4.535C1363.67,430.131,1363.04,430.122,1362.43,430.1Zm47.5,2.838h3.97v-43.3h-3.97v43.3Zm14.08-46.928a18.4,18.4,0,0,1,1.06,5.851,27.373,27.373,0,0,1-.53,5.178,25.142,25.142,0,0,1-1.46,4.945l2.16,0.409a18.226,18.226,0,0,0,2.31-5.324,22.642,22.642,0,0,0,.85-5.91,16.8,16.8,0,0,0-.82-5.676Zm12.28,0a18.647,18.647,0,0,1,1.05,5.851,27.33,27.33,0,0,1-.52,5.178,25.138,25.138,0,0,1-1.47,4.945l2.17,0.409a18.774,18.774,0,0,0,2.31-5.324,22.612,22.612,0,0,0,.84-5.91,16.823,16.823,0,0,0-.81-5.676Z"/>
  <path id="The_drama_Dae_Jang_Geum_was_distributed_to" data-name="The drama  “Dae Jang Geum” was distributed to" class="cls-2" d="M2084.9,75.345h3.97V35.5h14.32V32.047h-32.56V35.5h14.27V75.345Zm25.25,0h3.97V54.866h25.31V75.345h3.92v-43.3h-3.92V51.473h-25.31V32.047h-3.97v43.3Zm44.65,0h26.95V71.893h-22.97V55.042h21.1V51.648h-21.1V35.5h22.5V32.047H2154.8v43.3Zm78.47-4.739q5.475-5.382,5.47-16.909,0-11.467-5.26-16.822t-16.54-5.354q-1.05,0-2.52.058c-0.97.039-1.97,0.088-3.01,0.146s-2.07.127-3.12,0.2-2.01.156-2.87,0.234V75.111a19.886,19.886,0,0,0,4.33.673q2.865,0.2,6.19.2Q2227.8,75.988,2233.27,70.605Zm-18.23,1.9c-0.61-.019-1.2-0.048-1.79-0.088s-1.18-.1-1.81-0.176-1.3-.175-2.04-0.293V35.5c1.17-.155,2.49-0.272,3.97-0.351s2.77-.117,3.86-0.117q9.06,0,13.27,4.476t4.21,14.189q0,9.772-4.3,14.306c-2.86,3.023-7.36,4.535-13.47,4.535C2216.27,72.536,2215.64,72.527,2215.04,72.507Zm59,2.838h4.45l-10.93-17.319a12.7,12.7,0,0,0,7.3-4.417,13.7,13.7,0,0,0,2.34-8.4q0-7.2-4.53-10.473t-14.47-3.276a63.058,63.058,0,0,0-10.28.878v43h3.97V58.611q1.815,0.175,3.51.292c1.13,0.079,2.16.117,3.1,0.117,0.97,0,1.9-.019,2.77-0.059s1.73-.117,2.55-0.234Zm-19.2-19.864a18.944,18.944,0,0,1-2.95-.38V35.382c0.97-.155,2.09-0.282,3.33-0.38s2.42-.146,3.51-0.146q7.65,0,11.05,2.457t3.39,7.9a13.143,13.143,0,0,1-.79,4.8,7.177,7.177,0,0,1-2.49,3.218,11.6,11.6,0,0,1-4.38,1.814,31.252,31.252,0,0,1-6.55.585C2257.56,55.627,2256.19,55.578,2254.84,55.48Zm26.8,19.864h3.92l5.03-13.516h19.87l5.08,13.516h3.92V74.994l-15.9-42.946h-6.02l-15.9,42.946v0.351Zm10.11-17.026,5.97-15.915,2.63-7.314h0.35l2.69,7.314,5.96,15.915h-17.6Zm34.26,17.027h3.68V37.489h0.29l5.09,12.287,10.28,23.872h3.8l10.29-23.872,5.03-12.287h0.35V75.345h3.68v-43.3h-5.43L2351.2,59.9l-3.8,9.42h-0.35l-3.74-9.42-11.87-27.851h-5.43v43.3Zm49.04,0h3.91l5.03-13.516h19.87l5.09,13.516h3.92V74.994l-15.9-42.946h-6.02l-15.9,42.946v0.351Zm10.11-17.026,5.96-15.915,2.63-7.314h0.35l2.69,7.314,5.96,15.915h-17.59Zm-471.64,45.224a18,18,0,0,1-1-5.793,27.843,27.843,0,0,1,.53-5.207,25.068,25.068,0,0,1,1.46-4.973l-2.16-.41a19.1,19.1,0,0,0-2.31,5.383,22.228,22.228,0,0,0-.85,5.91,18.145,18.145,0,0,0,.76,5.617Zm12.27,0a17.987,17.987,0,0,1-.99-5.793,27.028,27.028,0,0,1,.53-5.207,24.418,24.418,0,0,1,1.46-4.973l-2.17-.41a19.387,19.387,0,0,0-2.3,5.383,22.228,22.228,0,0,0-.85,5.91,17.849,17.849,0,0,0,.76,5.617Zm37.85,26.329q5.46-5.382,5.47-16.909,0-11.468-5.26-16.822t-16.55-5.354c-0.7,0-1.54.02-2.51,0.059s-1.98.088-3.01,0.146-2.08.127-3.13,0.2-2.01.156-2.86,0.234v42.946a19.644,19.644,0,0,0,4.32.673q2.865,0.206,6.2.2Q1958.175,135.254,1963.64,129.871Zm-18.24,1.9c-0.6-.019-1.19-0.049-1.78-0.088s-1.19-.1-1.81-0.175-1.31-.176-2.05-0.293V94.765c1.17-.155,2.5-0.272,3.98-0.351s2.76-.117,3.86-0.117q9.06,0,13.26,4.476,4.215,4.476,4.21,14.189,0,9.772-4.29,14.306T1947.3,131.8C1946.64,131.8,1946.01,131.793,1945.4,131.773Zm27.21,2.838h3.92l5.03-13.516h19.87l5.09,13.516h3.91v-0.352l-15.9-42.946h-6.02l-15.9,42.946v0.352Zm10.12-17.027,5.96-15.915,2.63-7.313h0.35l2.69,7.313,5.96,15.915h-17.59Zm34.25,17.027h26.94v-3.453h-22.97v-16.85h21.1v-3.394h-21.1V94.765h22.51V91.313h-26.48v43.3Zm48.86,10.765q1.635-3.159,2.75-5.821a46.133,46.133,0,0,0,1.81-5.149,32.438,32.438,0,0,0,1-4.974,47.066,47.066,0,0,0,.29-5.353V91.313h-3.98v32.532c0,1.989-.08,3.8-0.23,5.441a38.347,38.347,0,0,1-.76,4.769,39.6,39.6,0,0,1-1.4,4.71q-0.885,2.4-2.22,5.207Zm12.22-10.765h3.91L2087,121.1h19.88l5.08,13.516h3.92v-0.352l-15.9-42.946h-6.02l-15.9,42.946v0.352Zm10.11-17.027,5.96-15.915,2.63-7.313h0.35l2.69,7.313,5.96,15.915h-17.59Zm34.25,17.027h3.69V97.574h0.29l3.33,4.973,23.32,32.064h3.63v-43.3h-3.69v37.095h-0.29l-3.51-5.148-23.2-31.947h-3.57v43.3Zm68.57,0.058a45.042,45.042,0,0,0,5.9-1.287V112.611h-3.8v18.2c-1.25.234-2.59,0.43-4.03,0.585a34.442,34.442,0,0,1-3.63.235q-15.48,0-15.49-18.607,0-9.535,3.98-14.13t12.27-4.593q1.17,0,2.28.058t2.34,0.234c0.82,0.117,1.69.263,2.6,0.439s1.96,0.4,3.13.673V92.191a53.9,53.9,0,0,0-5.47-1.082,36.068,36.068,0,0,0-5.11-.38q-20.115,0-20.11,22.351,0,21.941,19.58,22.058A37.67,37.67,0,0,0,2190.99,134.669Zm53.25,0a45.042,45.042,0,0,0,5.9-1.287V112.611h-3.8v18.2c-1.25.234-2.59,0.43-4.03,0.585a34.6,34.6,0,0,1-3.63.235q-15.48,0-15.49-18.607,0-9.535,3.98-14.13t12.27-4.593q1.17,0,2.28.058t2.34,0.234c0.82,0.117,1.68.263,2.6,0.439s1.96,0.4,3.13.673V92.191a53.9,53.9,0,0,0-5.47-1.082,36.068,36.068,0,0,0-5.11-.38q-20.115,0-20.11,22.351,0,21.941,19.58,22.058A37.67,37.67,0,0,0,2244.24,134.669Zm15.78-.058h26.94v-3.453h-22.97v-16.85h21.1v-3.394h-21.1V94.765h22.51V91.313h-26.48v43.3Zm59.85-.439a12.255,12.255,0,0,0,5.23-3.218,13.239,13.239,0,0,0,3.04-5.588,30.372,30.372,0,0,0,.97-8.191V91.313h-3.98V117a25.2,25.2,0,0,1-.79,6.787,11,11,0,0,1-2.39,4.564,9.3,9.3,0,0,1-4.01,2.545,20.314,20.314,0,0,1-11.22,0,9.3,9.3,0,0,1-4.01-2.545,11,11,0,0,1-2.39-4.564,25.2,25.2,0,0,1-.79-6.787V91.313h-3.92v25.862a29.977,29.977,0,0,0,.97,8.191,13.307,13.307,0,0,0,3.01,5.588,12.031,12.031,0,0,0,5.2,3.218A28.272,28.272,0,0,0,2319.87,134.172Zm20.22,0.439h3.69V96.755h0.29l5.08,12.287,10.29,23.872h3.8l10.29-23.872,5.03-12.287h0.35v37.856h3.68v-43.3h-5.44l-11.86,27.851-3.8,9.42h-0.35l-3.74-9.42-11.87-27.851h-5.44v43.3Zm52.61-46.925a18.65,18.65,0,0,1,1.05,5.851,27.335,27.335,0,0,1-.52,5.178,25.148,25.148,0,0,1-1.46,4.944l2.16,0.409a18.773,18.773,0,0,0,2.31-5.324,22.607,22.607,0,0,0,.84-5.909,16.819,16.819,0,0,0-.81-5.675Zm12.28,0a18.65,18.65,0,0,1,1.05,5.851,27.378,27.378,0,0,1-.53,5.178,25.148,25.148,0,0,1-1.46,4.944l2.16,0.409a18.225,18.225,0,0,0,2.31-5.324,22.222,22.222,0,0,0,.85-5.909,16.549,16.549,0,0,0-.82-5.675ZM1904.05,193.877h5.38l8.65-30.367,1.75-7.314h0.29l1.76,7.255,8.53,30.426h5.32l12.22-43.3h-4.15l-8.42,30.484-2.16,8.425h-0.35l-2.28-8.425-8.48-30.484h-4.21l-8.71,30.484-2.22,8.425h-0.35l-2.16-8.425-8.24-30.484h-4.15Zm44.13,0h3.92l5.02-13.516H1977l5.08,13.516H1986v-0.352l-15.9-42.946h-6.02l-15.9,42.946v0.352Zm10.11-17.027,5.96-15.915,2.63-7.313h0.35l2.69,7.313,5.97,15.915h-17.6Zm55.65,14.657q3.855-3.014,3.85-8.63a11.309,11.309,0,0,0-.99-5,10.1,10.1,0,0,0-2.72-3.423,15.353,15.353,0,0,0-4.09-2.34q-2.37-.936-5.11-1.756a35.2,35.2,0,0,1-4.88-1.7,11.974,11.974,0,0,1-3.16-1.96,6.447,6.447,0,0,1-1.72-2.4,7.891,7.891,0,0,1-.53-3.014,7.192,7.192,0,0,1,2.83-5.968,12.051,12.051,0,0,1,7.63-2.223,37.656,37.656,0,0,1,5.06.38,49.591,49.591,0,0,1,5.52,1.083l0.12-3.511a50.776,50.776,0,0,0-10.93-1.4,19.9,19.9,0,0,0-5.91.819,13.116,13.116,0,0,0-4.5,2.37,10.784,10.784,0,0,0-2.89,3.715,11.12,11.12,0,0,0-1.02,4.8,12.252,12.252,0,0,0,.7,4.33,9.008,9.008,0,0,0,2.22,3.335,14.645,14.645,0,0,0,3.92,2.6,38.9,38.9,0,0,0,5.78,2.136c1.48,0.43,2.87.888,4.15,1.375a14.579,14.579,0,0,1,3.36,1.755,7.394,7.394,0,0,1,2.25,2.516,7.47,7.47,0,0,1,.82,3.657,6.914,6.914,0,0,1-2.83,5.939q-2.835,2.077-8.16,2.077a44.64,44.64,0,0,1-6.19-.5,62.445,62.445,0,0,1-6.72-1.317l-0.12,3.452a61.7,61.7,0,0,0,6.78,1.317,46.742,46.742,0,0,0,6.37.5Q2010.075,194.52,2013.94,191.507Zm54.74-2.37q5.46-5.382,5.46-16.909,0-11.468-5.26-16.822t-16.54-5.353c-0.7,0-1.54.02-2.51,0.058s-1.98.088-3.01,0.146-2.08.127-3.13,0.2-2.01.156-2.87,0.234v42.946a19.86,19.86,0,0,0,4.33.673c1.91,0.137,3.97.205,6.2,0.205Q2063.215,194.52,2068.68,189.137Zm-18.24,1.9c-0.61-.019-1.2-0.049-1.78-0.088s-1.19-.1-1.82-0.176-1.3-.175-2.04-0.292V154.031c1.17-.155,2.49-0.272,3.97-0.351s2.77-.117,3.86-0.117q9.06,0,13.27,4.476t4.21,14.189q0,9.772-4.3,14.306t-13.47,4.534C2051.68,191.068,2051.04,191.059,2050.44,191.039Zm32.88,2.838h3.97v-43.3h-3.97v43.3Zm36.82-2.37q3.855-3.014,3.86-8.63a11.309,11.309,0,0,0-.99-5,10.218,10.218,0,0,0-2.72-3.423,15.353,15.353,0,0,0-4.09-2.34q-2.37-.936-5.12-1.756a35.674,35.674,0,0,1-4.88-1.7,11.9,11.9,0,0,1-3.15-1.96,6.478,6.478,0,0,1-1.73-2.4,8.09,8.09,0,0,1-.52-3.014,7.192,7.192,0,0,1,2.83-5.968,12.031,12.031,0,0,1,7.63-2.223,37.517,37.517,0,0,1,5.05.38,49.762,49.762,0,0,1,5.53,1.083l0.12-3.511a50.934,50.934,0,0,0-10.94-1.4,19.788,19.788,0,0,0-5.9.819,13.116,13.116,0,0,0-4.5,2.37,10.665,10.665,0,0,0-2.89,3.715,10.981,10.981,0,0,0-1.03,4.8,12.245,12.245,0,0,0,.71,4.33,8.771,8.771,0,0,0,2.22,3.335,14.581,14.581,0,0,0,3.91,2.6,39.487,39.487,0,0,0,5.79,2.136c1.48,0.43,2.86.888,4.15,1.375a14.579,14.579,0,0,1,3.36,1.755,7.607,7.607,0,0,1,2.25,2.516,7.47,7.47,0,0,1,.82,3.657,6.921,6.921,0,0,1-2.84,5.939c-1.89,1.385-4.6,2.077-8.15,2.077a44.773,44.773,0,0,1-6.2-.5,62.93,62.93,0,0,1-6.72-1.317l-0.11,3.452a61.7,61.7,0,0,0,6.78,1.317,46.624,46.624,0,0,0,6.37.5Q2116.285,194.52,2120.14,191.507Zm22.04,2.37h3.97V154.031h14.32v-3.452h-32.55v3.452h14.26v39.846Zm51.38,0H2198l-10.93-17.319a12.726,12.726,0,0,0,7.31-4.418,13.766,13.766,0,0,0,2.33-8.4q0-7.2-4.53-10.473t-14.46-3.277a63.19,63.19,0,0,0-10.29.878v43.005h3.97V177.143q1.815,0.175,3.51.292c1.13,0.079,2.16.117,3.1,0.117,0.97,0,1.9-.019,2.78-0.058s1.72-.117,2.54-0.234Zm-19.2-19.865a19.171,19.171,0,0,1-2.96-.38V153.914c0.98-.155,2.09-0.282,3.34-0.38s2.41-.146,3.5-0.146q7.665,0,11.05,2.457t3.39,7.9a12.939,12.939,0,0,1-.79,4.8,7.09,7.09,0,0,1-2.48,3.218,11.593,11.593,0,0,1-4.39,1.814,31.244,31.244,0,0,1-6.54.585C2177.07,174.159,2175.7,174.11,2174.36,174.012Zm31.71,19.865h3.97v-43.3h-3.97v43.3Zm45.12-11.293a9.92,9.92,0,0,0-8.88-10.649V171.7a8.406,8.406,0,0,0,5.49-3.364,11.082,11.082,0,0,0,1.99-6.7q0-6.144-3.68-8.865t-11.99-2.72q-2.685,0-5.58.2t-7.04.615v42.712c2.34,0.312,4.62.536,6.87,0.673s4.35,0.2,6.34.2q16.485,0,16.48-11.878h0Zm-21.98,8.513a29.494,29.494,0,0,1-3.86-.439V173.515h10.18q6.015,0,8.85,2.165t2.84,6.67c0,3.043-1.03,5.286-3.07,6.729s-5.22,2.165-9.5,2.165C2232.62,191.244,2230.81,191.2,2229.21,191.1Zm-3.86-20.742V153.8a35.479,35.479,0,0,1,4.01-.38c1.42-.059,3.07-0.088,4.94-0.088a25.753,25.753,0,0,1,5.29.468,9.319,9.319,0,0,1,3.56,1.463,5.775,5.775,0,0,1,2.02,2.633,10.7,10.7,0,0,1,.64,3.92q0,4.623-2.42,6.582t-8.1,1.96h-9.94Zm58.69,23.083a12.255,12.255,0,0,0,5.23-3.218,13.239,13.239,0,0,0,3.04-5.588,30.372,30.372,0,0,0,.97-8.191V150.579h-3.98v25.686a25.2,25.2,0,0,1-.79,6.787,11.006,11.006,0,0,1-2.39,4.564,9.3,9.3,0,0,1-4.01,2.545,20.314,20.314,0,0,1-11.22,0,9.3,9.3,0,0,1-4.01-2.545,11.006,11.006,0,0,1-2.39-4.564,25.2,25.2,0,0,1-.79-6.787V150.579h-3.92v25.862a29.977,29.977,0,0,0,.97,8.191,13.307,13.307,0,0,0,3.01,5.588,12.031,12.031,0,0,0,5.2,3.218A28.272,28.272,0,0,0,2284.04,193.438Zm29.99,0.439H2318V154.031h14.32v-3.452h-32.56v3.452h14.27v39.846Zm25.25,0h26.94v-3.453h-22.97v-16.85h21.1V170.18h-21.1V154.031h22.5v-3.452h-26.47v43.3Zm63.85-4.74q5.475-5.382,5.47-16.909,0-11.468-5.26-16.822t-16.54-5.353q-1.05,0-2.52.058c-0.97.039-1.97,0.088-3.01,0.146s-2.07.127-3.12,0.2-2.01.156-2.87,0.234v42.946a19.86,19.86,0,0,0,4.33.673q2.865,0.206,6.19.205Q2397.665,194.52,2403.13,189.137Zm-18.23,1.9c-0.61-.019-1.2-0.049-1.79-0.088s-1.18-.1-1.81-0.176-1.3-.175-2.04-0.292V154.031c1.17-.155,2.49-0.272,3.97-0.351s2.77-.117,3.86-0.117q9.06,0,13.27,4.476t4.21,14.189q0,9.772-4.3,14.306c-2.86,3.023-7.36,4.534-13.47,4.534C2386.13,191.068,2385.5,191.059,2384.9,191.039Z"/>
  <path id="COUNTRIES" class="cls-2" d="M3201.4,465.783q1.26-.087,2.55-0.263c0.85-.117,1.69-0.253,2.51-0.409s1.56-.331,2.22-0.527V461.19a21.623,21.623,0,0,1-2.16.439c-0.86.137-1.74,0.263-2.63,0.38s-1.77.2-2.6,0.264-1.57.088-2.2,0.088q-14.955,0-14.96-18.607,0-9.594,3.8-14.159t11.63-4.564a37.662,37.662,0,0,1,4.15.263c1.56,0.176,3.22.42,4.97,0.732v-3.511c-1.6-.312-3.25-0.565-4.97-0.76a40.341,40.341,0,0,0-4.5-.293q-19.17,0-19.17,22.351,0,21.941,19.05,22.058C3199.8,465.871,3200.56,465.842,3201.4,465.783Zm44.02-5.47q4.755-5.618,4.76-16.559,0-11-4.76-16.646t-13.53-5.646q-8.895,0-13.62,5.646t-4.74,16.646q0,11,4.74,16.588t13.62,5.588Q3240.65,465.93,3245.42,460.313Zm-24.23-2.516q-3.63-4.68-3.63-14.043,0-9.418,3.63-14.13,3.615-4.709,10.7-4.71,7.065,0,10.66,4.71t3.6,14.13q0,9.3-3.6,14.014t-10.66,4.71Q3224.81,462.478,3221.19,457.8Zm62.02,7.109a12.316,12.316,0,0,0,5.23-3.218,13.348,13.348,0,0,0,3.04-5.588,30.4,30.4,0,0,0,.96-8.191V422.047h-3.97v25.686a25.6,25.6,0,0,1-.79,6.787,11.128,11.128,0,0,1-2.4,4.564,9.262,9.262,0,0,1-4,2.545,20.35,20.35,0,0,1-11.23,0,9.262,9.262,0,0,1-4-2.545,11.128,11.128,0,0,1-2.4-4.564,25.6,25.6,0,0,1-.79-6.787V422.047h-3.91v25.862a30.4,30.4,0,0,0,.96,8.191,13.533,13.533,0,0,0,3.01,5.588,12.09,12.09,0,0,0,5.2,3.218A28.308,28.308,0,0,0,3283.21,464.906Zm20.22,0.439h3.68V428.308h0.29l3.34,4.973,23.32,32.064h3.62v-43.3H3334v37.095h-0.29l-3.51-5.148-23.21-31.947h-3.56v43.3Zm55.47,0h3.97V425.5h14.33v-3.452h-32.56V425.5h14.26v39.846Zm51.38,0h4.44l-10.93-17.319a12.726,12.726,0,0,0,7.31-4.418,13.764,13.764,0,0,0,2.33-8.4q0-7.2-4.53-10.473t-14.46-3.277a63.283,63.283,0,0,0-10.29.878v43.005h3.97V448.611q1.815,0.176,3.51.292c1.13,0.079,2.16.117,3.1,0.117,0.97,0,1.9-.019,2.78-0.058s1.72-.117,2.54-0.234Zm-19.2-19.865a19.171,19.171,0,0,1-2.96-.38V425.382c0.98-.155,2.09-0.282,3.34-0.38s2.41-.146,3.5-0.146q7.665,0,11.05,2.457t3.39,7.9a12.939,12.939,0,0,1-.79,4.8,7.09,7.09,0,0,1-2.48,3.218,11.593,11.593,0,0,1-4.39,1.814,31.244,31.244,0,0,1-6.54.585C3393.79,445.627,3392.42,445.578,3391.08,445.48Zm31.71,19.865h3.97v-43.3h-3.97v43.3Zm15.43,0h26.94v-3.453h-22.97v-16.85h21.1v-3.394h-21.1V425.5h22.51v-3.452h-26.48v43.3Zm57.4-2.37q3.855-3.014,3.85-8.63a11.309,11.309,0,0,0-.99-5,10.1,10.1,0,0,0-2.72-3.423,15.353,15.353,0,0,0-4.09-2.34q-2.37-.936-5.11-1.755a35.322,35.322,0,0,1-4.88-1.7,11.974,11.974,0,0,1-3.16-1.96,6.447,6.447,0,0,1-1.72-2.4,7.891,7.891,0,0,1-.53-3.014,7.192,7.192,0,0,1,2.83-5.968,12.057,12.057,0,0,1,7.63-2.223,37.656,37.656,0,0,1,5.06.38,49.591,49.591,0,0,1,5.52,1.083l0.12-3.511a50.776,50.776,0,0,0-10.93-1.4,19.9,19.9,0,0,0-5.91.819,13.116,13.116,0,0,0-4.5,2.37,10.793,10.793,0,0,0-2.89,3.715,11.12,11.12,0,0,0-1.02,4.8,12.252,12.252,0,0,0,.7,4.33,9.008,9.008,0,0,0,2.22,3.335,14.645,14.645,0,0,0,3.92,2.6,38.9,38.9,0,0,0,5.78,2.136c1.48,0.43,2.87.888,4.15,1.375a14.579,14.579,0,0,1,3.36,1.755,7.394,7.394,0,0,1,2.25,2.516,7.47,7.47,0,0,1,.82,3.657,6.914,6.914,0,0,1-2.83,5.939q-2.835,2.077-8.16,2.077a44.64,44.64,0,0,1-6.19-.5,62.445,62.445,0,0,1-6.72-1.317l-0.12,3.452a61.7,61.7,0,0,0,6.78,1.317,46.742,46.742,0,0,0,6.37.5Q3491.755,465.988,3495.62,462.975Z"/>
  <rect class="cls-3" x="-196" y="707" width="1998" height="36"/>
  <rect id="Rectangle_10_copy" data-name="Rectangle 10 copy" class="cls-4" x="1802" y="707" width="1987" height="36"/>
</svg>
