<svg xmlns="http://www.w3.org/2000/svg" width="5983" height="1020" viewBox="0 0 5983 1020">
  <metadata><?xpacket begin="﻿" id="W5M0MpCehiHzreSzNTczkc9d"?>
<x:xmpmeta xmlns:x="adobe:ns:meta/" x:xmptk="Adobe XMP Core 5.6-c142 79.160924, 2017/07/13-01:06:39        ">
   <rdf:RDF xmlns:rdf="http://www.w3.org/1999/02/22-rdf-syntax-ns#">
      <rdf:Description rdf:about=""/>
   </rdf:RDF>
</x:xmpmeta>
                                                                                                    
                                                                                                    
                                                                                                    
                                                                                                    
                                                                                                    
                                                                                                    
                                                                                                    
                                                                                                    
                                                                                                    
                                                                                                    
                                                                                                    
                                                                                                    
                                                                                                    
                                                                                                    
                                                                                                    
                                                                                                    
                                                                                                    
                                                                                                    
                                                                                                    
                                                                                                    
                           
<?xpacket end="w"?></metadata>
<defs>
    <style>
      .cls-1, .cls-4 {
        fill: #84754d;
      }

      .cls-1, .cls-2, .cls-3 {
        fill-rule: evenodd;
      }

      .cls-2, .cls-5 {
        fill: #4b2e83;
      }

      .cls-3, .cls-6 {
        fill: #b7a57a;
      }
    </style>
  </defs>
  <path id="_9_000_000" data-name="9,000,000" class="cls-1" d="M178.552,410.515a81.921,81.921,0,0,0-28.362,14.474,63.383,63.383,0,0,0-17.935,23.1A72.623,72.623,0,0,0,126,478.706a62.117,62.117,0,0,0,5.283,25.885A54.38,54.38,0,0,0,146.3,524.353a70.286,70.286,0,0,0,23.357,12.524,98.079,98.079,0,0,0,30.586,4.454,88.23,88.23,0,0,0,24.469-3.2,65.214,65.214,0,0,0,19.185-8.768q-3.9,23.38-17.517,33.122t-40.6,9.741a162.756,162.756,0,0,1-17.239-.974q-9.177-.972-21.689-3.2l-7.507,43.42q13.62,2.785,25.72,4.175a203.674,203.674,0,0,0,23.217,1.392q119.561,0,119.564-115.229,0-47.315-23.774-71.81t-67.706-24.493Q195.232,405.505,178.552,410.515Zm17.378,86.422q-6.257-5.982-6.256-19.9,0-14.195,6.395-20.735t20.3-6.541q14.454,0,21.41,10.02t8.064,33.121a39.4,39.4,0,0,1-12.93,7.1,49,49,0,0,1-16.544,2.922Q202.186,502.921,195.93,496.937ZM366.794,657.4l27.528-101.313H333.15l-11.679,98.529Zm211.047-66.661q24.744-26.3,24.746-79.185t-24.746-79.463q-24.751-26.577-69.792-26.581t-69.931,26.581q-24.888,26.583-24.886,79.463t24.886,79.185q24.882,26.3,69.931,26.3T577.841,590.734ZM492.9,565.267a20.84,20.84,0,0,1-10.149-8.906q-3.9-6.4-5.7-17.257a172.448,172.448,0,0,1-1.808-27.555,177.415,177.415,0,0,1,1.808-27.972q1.8-10.992,5.7-17.4a20.86,20.86,0,0,1,10.149-8.906,40.791,40.791,0,0,1,15.154-2.5,38.876,38.876,0,0,1,14.737,2.5,21.008,21.008,0,0,1,10.01,8.906q3.889,6.406,5.839,17.4a165.6,165.6,0,0,1,1.946,27.972,163.483,163.483,0,0,1-1.946,27.694q-1.948,11-5.839,17.257a21.172,21.172,0,0,1-10.01,8.767,38.876,38.876,0,0,1-14.737,2.5A40.791,40.791,0,0,1,492.9,565.267Zm297.1,25.467q24.744-26.3,24.747-79.185t-24.747-79.463q-24.751-26.577-69.792-26.581t-69.931,26.581q-24.888,26.583-24.886,79.463t24.886,79.185q24.882,26.3,69.931,26.3T789.994,590.734Zm-84.946-25.467a20.84,20.84,0,0,1-10.149-8.906q-3.9-6.4-5.7-17.257a172.463,172.463,0,0,1-1.807-27.555,177.431,177.431,0,0,1,1.807-27.972q1.8-10.992,5.7-17.4a20.86,20.86,0,0,1,10.149-8.906,40.791,40.791,0,0,1,15.154-2.5,38.873,38.873,0,0,1,14.737,2.5,21.008,21.008,0,0,1,10.01,8.906q3.891,6.406,5.839,17.4a165.6,165.6,0,0,1,1.946,27.972,163.483,163.483,0,0,1-1.946,27.694q-1.948,11-5.839,17.257a21.172,21.172,0,0,1-10.01,8.767,38.873,38.873,0,0,1-14.737,2.5A40.791,40.791,0,0,1,705.048,565.267Zm297.1,25.467q24.735-26.3,24.74-79.185t-24.74-79.463q-24.756-26.577-69.795-26.581t-69.931,26.581q-24.888,26.583-24.886,79.463t24.886,79.185q24.882,26.3,69.931,26.3T1002.15,590.734ZM917.2,565.267a20.84,20.84,0,0,1-10.149-8.906q-3.9-6.4-5.7-17.257a172.463,172.463,0,0,1-1.807-27.555,177.431,177.431,0,0,1,1.807-27.972q1.806-10.992,5.7-17.4a20.86,20.86,0,0,1,10.149-8.906,40.791,40.791,0,0,1,15.154-2.5,38.873,38.873,0,0,1,14.737,2.5,21.008,21.008,0,0,1,10.01,8.906q3.891,6.406,5.839,17.4a165.582,165.582,0,0,1,1.947,27.972,163.47,163.47,0,0,1-1.947,27.694q-1.948,11-5.839,17.257a21.172,21.172,0,0,1-10.01,8.767,38.873,38.873,0,0,1-14.737,2.5A40.791,40.791,0,0,1,917.2,565.267ZM1087.51,657.4l27.53-101.313h-61.18l-11.67,98.529Zm211.04-66.661q24.75-26.3,24.75-79.185t-24.75-79.463q-24.75-26.577-69.79-26.581t-69.93,26.581q-24.885,26.583-24.88,79.463t24.88,79.185q24.885,26.3,69.93,26.3T1298.55,590.734Zm-84.94-25.467a20.83,20.83,0,0,1-10.15-8.906q-3.9-6.4-5.7-17.257a172.183,172.183,0,0,1-1.81-27.555,177.142,177.142,0,0,1,1.81-27.972q1.8-10.992,5.7-17.4a20.85,20.85,0,0,1,10.15-8.906,40.784,40.784,0,0,1,15.15-2.5,38.867,38.867,0,0,1,14.74,2.5,21,21,0,0,1,10.01,8.906q3.885,6.406,5.84,17.4a166.066,166.066,0,0,1,1.95,27.972,163.953,163.953,0,0,1-1.95,27.694q-1.95,11-5.84,17.257a21.158,21.158,0,0,1-10.01,8.767,38.867,38.867,0,0,1-14.74,2.5A40.784,40.784,0,0,1,1213.61,565.267Zm297.1,25.467q24.735-26.3,24.74-79.185t-24.74-79.463q-24.75-26.577-69.79-26.581t-69.93,26.581q-24.9,26.583-24.89,79.463t24.89,79.185q24.87,26.3,69.93,26.3Q1485.965,617.037,1510.71,590.734Zm-84.95-25.467a20.873,20.873,0,0,1-10.15-8.906q-3.885-6.4-5.7-17.257a173.516,173.516,0,0,1-1.8-27.555,178.514,178.514,0,0,1,1.8-27.972q1.815-10.992,5.7-17.4a20.893,20.893,0,0,1,10.15-8.906,40.8,40.8,0,0,1,15.16-2.5,38.849,38.849,0,0,1,14.73,2.5,20.95,20.95,0,0,1,10.01,8.906q3.9,6.406,5.84,17.4a165.018,165.018,0,0,1,1.95,27.972,162.912,162.912,0,0,1-1.95,27.694q-1.95,11-5.84,17.257a21.112,21.112,0,0,1-10.01,8.767,38.849,38.849,0,0,1-14.73,2.5A40.8,40.8,0,0,1,1425.76,565.267Zm297.1,25.467q24.75-26.3,24.75-79.185t-24.75-79.463q-24.75-26.577-69.79-26.581t-69.93,26.581q-24.885,26.583-24.89,79.463t24.89,79.185q24.885,26.3,69.93,26.3T1722.86,590.734Zm-84.94-25.467a20.787,20.787,0,0,1-10.15-8.906q-3.9-6.4-5.7-17.257a172.183,172.183,0,0,1-1.81-27.555,177.142,177.142,0,0,1,1.81-27.972q1.8-10.992,5.7-17.4a20.807,20.807,0,0,1,10.15-8.906,40.747,40.747,0,0,1,15.15-2.5,38.9,38.9,0,0,1,14.74,2.5,21.04,21.04,0,0,1,10.01,8.906q3.885,6.406,5.84,17.4a166.2,166.2,0,0,1,1.94,27.972,164.085,164.085,0,0,1-1.94,27.694q-1.95,11-5.84,17.257a21.2,21.2,0,0,1-10.01,8.767,38.9,38.9,0,0,1-14.74,2.5A40.747,40.747,0,0,1,1637.92,565.267Z"/>
  <path id="_" data-name="+" class="cls-1" d="M1721.67,372.919h47.27V416.06h37.26V372.919h47.27v-37.3H1806.2V292.482h-37.26v43.141h-47.27v37.3Z"/>
  <path id="_copy" data-name="+ copy" class="cls-2" d="M3613.67,372.919h47.27V416.06h37.26V372.919h47.27v-37.3H3698.2V292.482h-37.26v43.141h-47.27v37.3Z"/>
  <path id="_2" data-name="+" class="cls-3" d="M5385.67,322.919h47.27V366.06h37.26V322.919h47.27v-37.3H5470.2V242.482h-37.26v43.141h-47.27v37.3Z"/>
  <path id="UNIVERSITY_LIBRARIES_PROVIDES" data-name="UNIVERSITY LIBRARIES PROVIDES" class="cls-1" d="M166.92,355.56a12.253,12.253,0,0,0,5.232-3.218,13.243,13.243,0,0,0,3.039-5.588,30.271,30.271,0,0,0,.965-8.192V312.7h-3.975v25.687a25.373,25.373,0,0,1-.789,6.788,11.072,11.072,0,0,1-2.4,4.564,9.246,9.246,0,0,1-4,2.545,20.328,20.328,0,0,1-11.224,0,9.24,9.24,0,0,1-4-2.545,11.059,11.059,0,0,1-2.4-4.564,25.329,25.329,0,0,1-.79-6.788V312.7h-3.916v25.863a30.275,30.275,0,0,0,.964,8.192,13.4,13.4,0,0,0,3.011,5.588,12.022,12.022,0,0,0,5.2,3.218A28.279,28.279,0,0,0,166.92,355.56ZM187.145,356h3.682V318.96h0.293l3.332,4.973L217.775,356H221.4V312.7h-3.683v37.1h-0.292l-3.508-5.149L190.711,312.7h-3.566V356Zm45.711,0h3.975V312.7h-3.975V356Zm26.714,0h5.378l16.192-43.3h-4.15l-11.574,31.07-2.981,8.251h-0.351l-2.923-8.251L247.587,312.7h-4.15Zm28.117,0h26.948v-3.453H291.662V335.7h21.1V332.3h-21.1v-16.15h22.5V312.7h-26.48V356Zm62.137,0h4.443l-10.931-17.32a12.708,12.708,0,0,0,7.306-4.418,13.709,13.709,0,0,0,2.339-8.4q0-7.2-4.531-10.474t-14.467-3.276a63.2,63.2,0,0,0-10.289.877V356h3.975V339.264q1.812,0.175,3.508.292t3.1,0.118q1.461,0,2.777-.059t2.542-.234Zm-19.2-19.866a18.894,18.894,0,0,1-2.952-.38V316.034q1.461-.232,3.332-0.38t3.508-.147q7.657,0,11.048,2.458t3.39,7.9a13.015,13.015,0,0,1-.789,4.8,7.142,7.142,0,0,1-2.484,3.219,11.624,11.624,0,0,1-4.384,1.814,31.322,31.322,0,0,1-6.547.585Q332.638,336.28,330.621,336.133Zm53.106,17.5q3.858-3.014,3.858-8.631a11.283,11.283,0,0,0-.993-5,10.158,10.158,0,0,0-2.718-3.423,15.4,15.4,0,0,0-4.092-2.34q-2.368-.936-5.115-1.756a35.358,35.358,0,0,1-4.881-1.7,11.96,11.96,0,0,1-3.157-1.96,6.455,6.455,0,0,1-1.724-2.4,8.059,8.059,0,0,1-.526-3.013,7.194,7.194,0,0,1,2.835-5.969,12.033,12.033,0,0,1,7.628-2.223,37.638,37.638,0,0,1,5.057.38,49.565,49.565,0,0,1,5.524,1.083l0.117-3.511a50.815,50.815,0,0,0-10.932-1.4,19.82,19.82,0,0,0-5.9.819,13.05,13.05,0,0,0-4.5,2.37,10.721,10.721,0,0,0-2.893,3.715,11.078,11.078,0,0,0-1.023,4.8,12.315,12.315,0,0,0,.7,4.33,8.945,8.945,0,0,0,2.222,3.336,14.684,14.684,0,0,0,3.916,2.6,39.353,39.353,0,0,0,5.787,2.136q2.221,0.645,4.15,1.375A14.784,14.784,0,0,1,380.425,339a7.069,7.069,0,0,1,3.069,6.173,6.921,6.921,0,0,1-2.835,5.939q-2.837,2.077-8.155,2.077a44.661,44.661,0,0,1-6.2-.5,62.7,62.7,0,0,1-6.723-1.317l-0.117,3.452a62,62,0,0,0,6.781,1.317,46.722,46.722,0,0,0,6.372.5Q379.869,356.642,383.727,353.629ZM396,356h3.975V312.7H396V356Zm25.194,0h3.975V316.151h14.321V312.7H406.934v3.452H421.2V356Zm35.774,0h3.975V341.253L476.5,312.7h-4.267l-11.4,21.065-1.695,3.686h-0.409l-1.754-3.686L445.631,312.7h-4.326l15.666,28.671V356Zm38.638,0h24.025v-3.394h-20.05V312.7h-3.975V356Zm30.864,0h3.975V312.7h-3.975V356ZM571.6,344.706a9.921,9.921,0,0,0-8.886-10.65v-0.234a8.408,8.408,0,0,0,5.5-3.364,11.051,11.051,0,0,0,1.988-6.7q0-6.144-3.683-8.865t-11.983-2.721q-2.69,0-5.583.2t-7.044.614v42.715q3.507,0.468,6.869.673t6.342,0.2q16.485,0,16.485-11.878h0Zm-21.98,8.513a29.572,29.572,0,0,1-3.858-.438V335.636h10.172q6.02,0,8.856,2.165t2.835,6.671q0,4.563-3.069,6.729t-9.5,2.165Q552.017,353.366,549.621,353.219Zm-3.858-20.743V315.917a35.236,35.236,0,0,1,4-.38q2.135-.088,4.94-0.088a25.725,25.725,0,0,1,5.29.468,9.377,9.377,0,0,1,3.566,1.463,5.8,5.8,0,0,1,2.017,2.633,10.744,10.744,0,0,1,.643,3.92q0,4.623-2.426,6.583t-8.1,1.96h-9.938ZM606.732,356h4.443l-10.932-17.32a12.708,12.708,0,0,0,7.307-4.418,13.709,13.709,0,0,0,2.338-8.4q0-7.2-4.53-10.474t-14.468-3.276a63.2,63.2,0,0,0-10.288.877V356h3.975V339.264q1.812,0.175,3.508.292t3.1,0.118c0.973,0,1.9-.02,2.776-0.059s1.725-.117,2.543-0.234Zm-19.2-19.866a18.894,18.894,0,0,1-2.952-.38V316.034q1.461-.232,3.332-0.38t3.508-.147q7.656,0,11.048,2.458t3.39,7.9a13.015,13.015,0,0,1-.789,4.8,7.148,7.148,0,0,1-2.484,3.219A11.623,11.623,0,0,1,598.2,335.7a31.322,31.322,0,0,1-6.547.585Q589.546,336.28,587.529,336.133ZM614.33,356h3.917l5.027-13.517h19.875L648.235,356h3.916v-0.351l-15.9-42.949H630.23l-15.9,42.949V356Zm10.113-17.028,5.963-15.915,2.63-7.315h0.351l2.689,7.315,5.962,15.915h-17.6ZM684.827,356h4.443l-10.931-17.32a12.711,12.711,0,0,0,7.307-4.418,13.715,13.715,0,0,0,2.338-8.4q0-7.2-4.53-10.474t-14.468-3.276a63.181,63.181,0,0,0-10.288.877V356h3.975V339.264q1.811,0.175,3.507.292t3.1,0.118q1.461,0,2.777-.059t2.543-.234Zm-19.2-19.866a18.877,18.877,0,0,1-2.952-.38V316.034q1.459-.232,3.332-0.38t3.507-.147q7.658,0,11.048,2.458t3.39,7.9a13.015,13.015,0,0,1-.789,4.8,7.142,7.142,0,0,1-2.484,3.219,11.624,11.624,0,0,1-4.384,1.814,31.322,31.322,0,0,1-6.547.585Q667.642,336.28,665.625,336.133ZM697.336,356h3.975V312.7h-3.975V356Zm15.432,0h26.948v-3.453H716.743V335.7h21.1V332.3h-21.1v-16.15h22.5V312.7h-26.48V356Zm57.4-2.37q3.858-3.014,3.858-8.631a11.282,11.282,0,0,0-.994-5,10.158,10.158,0,0,0-2.718-3.423,15.4,15.4,0,0,0-4.092-2.34q-2.369-.936-5.115-1.756a35.358,35.358,0,0,1-4.881-1.7,11.976,11.976,0,0,1-3.157-1.96,6.466,6.466,0,0,1-1.724-2.4,8.059,8.059,0,0,1-.526-3.013,7.194,7.194,0,0,1,2.835-5.969,12.033,12.033,0,0,1,7.628-2.223,37.638,37.638,0,0,1,5.057.38,49.521,49.521,0,0,1,5.524,1.083l0.117-3.511a50.815,50.815,0,0,0-10.932-1.4,19.825,19.825,0,0,0-5.9.819,13.05,13.05,0,0,0-4.5,2.37,10.721,10.721,0,0,0-2.893,3.715,11.092,11.092,0,0,0-1.023,4.8,12.315,12.315,0,0,0,.7,4.33,8.945,8.945,0,0,0,2.222,3.336,14.7,14.7,0,0,0,3.916,2.6,39.353,39.353,0,0,0,5.787,2.136q2.221,0.645,4.151,1.375A14.8,14.8,0,0,1,766.868,339a7.069,7.069,0,0,1,3.069,6.173,6.921,6.921,0,0,1-2.835,5.939q-2.837,2.077-8.155,2.077a44.661,44.661,0,0,1-6.2-.5,62.743,62.743,0,0,1-6.723-1.317l-0.117,3.452a62,62,0,0,0,6.781,1.317,46.722,46.722,0,0,0,6.372.5Q766.312,356.642,770.171,353.629ZM797.059,356h3.975v-14.57q1.929,0.234,3.537.292t3.01,0.059q9.762,0,14.263-3.54t4.5-11.322q0-7.725-4.559-11.264t-14.439-3.54a64.67,64.67,0,0,0-10.288.877V356Zm9.09-17.671q-1.023-.058-1.988-0.147t-1.782-.175a12.386,12.386,0,0,1-1.345-.2V316.034q1.4-.232,3.274-0.38t3.565-.147q7.657,0,11.048,2.692t3.391,8.719a15.45,15.45,0,0,1-.789,5.266,7.97,7.97,0,0,1-2.485,3.54,10.877,10.877,0,0,1-4.384,2.019,28.569,28.569,0,0,1-6.547.643Q807.171,338.386,806.149,338.328ZM860.716,356h4.443l-10.931-17.32a12.708,12.708,0,0,0,7.307-4.418,13.715,13.715,0,0,0,2.338-8.4q0-7.2-4.53-10.474t-14.468-3.276a63.19,63.19,0,0,0-10.288.877V356h3.975V339.264q1.81,0.175,3.507.292t3.1,0.118q1.461,0,2.777-.059t2.543-.234Zm-19.2-19.866a18.877,18.877,0,0,1-2.952-.38V316.034q1.461-.232,3.332-0.38t3.507-.147q7.658,0,11.048,2.458t3.391,7.9a12.993,12.993,0,0,1-.79,4.8,7.142,7.142,0,0,1-2.484,3.219,11.624,11.624,0,0,1-4.384,1.814,31.322,31.322,0,0,1-6.547.585Q843.531,336.28,841.514,336.133Zm61.319,14.834q4.764-5.618,4.764-16.56,0-11-4.764-16.647T889.3,312.114q-8.886,0-13.62,5.646t-4.735,16.647q0,11,4.735,16.589t13.62,5.588Q898.069,356.584,902.833,350.967Zm-24.23-2.516q-3.625-4.682-3.624-14.044,0-9.42,3.624-14.131t10.7-4.71q7.072,0,10.669,4.71t3.595,14.131q0,9.3-3.595,14.014T889.3,353.132Q882.228,353.132,878.6,348.451ZM927.179,356h5.378l16.192-43.3H944.6l-11.574,31.07-2.981,8.251h-0.351l-2.922-8.251L915.2,312.7h-4.15Zm28.116,0h3.975V312.7H955.3V356Zm43.286-4.74q5.459-5.382,5.469-16.91,0-11.467-5.264-16.823t-16.543-5.354q-1.053,0-2.514.059t-3.01.146q-1.55.087-3.128,0.2t-2.864.234v42.949a19.875,19.875,0,0,0,4.326.673q2.864,0.2,6.2.2Q993.115,356.642,998.581,351.259Zm-18.238,1.9c-0.6-.019-1.2-0.049-1.783-0.088s-1.189-.1-1.812-0.175-1.306-.176-2.046-0.293V316.151q1.754-.233,3.975-0.351t3.858-.117q9.06,0,13.27,4.476t4.205,14.19q0,9.772-4.293,14.306t-13.474,4.535Q981.249,353.19,980.343,353.161ZM1013.22,356h26.95v-3.453H1017.2V335.7h21.1V332.3h-21.1v-16.15h22.5V312.7h-26.48V356Zm57.41-2.37q3.855-3.014,3.85-8.631a11.312,11.312,0,0,0-.99-5,10.115,10.115,0,0,0-2.72-3.423,15.353,15.353,0,0,0-4.09-2.34q-2.37-.936-5.11-1.756a35.713,35.713,0,0,1-4.89-1.7,12.043,12.043,0,0,1-3.15-1.96,6.462,6.462,0,0,1-1.73-2.4,8.081,8.081,0,0,1-.52-3.013,7.192,7.192,0,0,1,2.83-5.969,12.051,12.051,0,0,1,7.63-2.223,37.656,37.656,0,0,1,5.06.38,49.364,49.364,0,0,1,5.52,1.083l0.12-3.511a50.851,50.851,0,0,0-10.93-1.4,19.856,19.856,0,0,0-5.91.819,13.1,13.1,0,0,0-4.5,2.37,10.665,10.665,0,0,0-2.89,3.715,11.12,11.12,0,0,0-1.02,4.8,12.248,12.248,0,0,0,.7,4.33,8.775,8.775,0,0,0,2.22,3.336,14.645,14.645,0,0,0,3.92,2.6,38.9,38.9,0,0,0,5.78,2.136c1.48,0.43,2.87.888,4.15,1.375a14.581,14.581,0,0,1,3.36,1.756,7.385,7.385,0,0,1,2.25,2.516,7.464,7.464,0,0,1,.82,3.657,6.915,6.915,0,0,1-2.83,5.939q-2.835,2.077-8.16,2.077a44.524,44.524,0,0,1-6.19-.5,63.12,63.12,0,0,1-6.73-1.317l-0.11,3.452a61.7,61.7,0,0,0,6.78,1.317,46.624,46.624,0,0,0,6.37.5Q1066.765,356.642,1070.63,353.629Z"/>
  <path id="total_volumes_Including_e-books_" data-name="total volumes (Including e-books)" class="cls-1" d="M151.63,751.575H155.6V711.727h14.321v-3.452h-32.56v3.452H151.63v39.848Zm52.638-5.032q4.764-5.617,4.765-16.559,0-11-4.765-16.648t-13.532-5.646q-8.886,0-13.62,5.646t-4.735,16.648q0,11,4.735,16.588t13.62,5.588Q199.505,752.16,204.268,746.543Zm-24.229-2.516q-3.625-4.682-3.625-14.043,0-9.422,3.625-14.131t10.7-4.711q7.072,0,10.668,4.711T205,729.984q0,9.3-3.595,14.014t-10.668,4.71Q183.662,748.708,180.039,744.027Zm45.711,7.548h3.975V711.727h14.322v-3.452h-32.56v3.452H225.75v39.848Zm15.958,0h3.917l5.027-13.517h19.875l5.085,13.517h3.917v-0.351l-15.9-42.949h-6.021l-15.9,42.949v0.351Zm10.113-17.027,5.963-15.916,2.63-7.314h0.351l2.689,7.314,5.962,15.916H251.821Zm34.255,17.027H310.1v-3.394h-20.05V708.275h-3.975v43.3Zm53.6,0h5.378l16.192-43.3H357.1l-11.574,31.071-2.982,8.25h-0.35l-2.923-8.25L327.7,708.275h-4.151Zm56.847-5.032q4.764-5.617,4.764-16.559,0-11-4.764-16.648t-13.532-5.646q-8.886,0-13.62,5.646t-4.735,16.648q0,11,4.735,16.588t13.62,5.588Q391.761,752.16,396.526,746.543Zm-24.23-2.516q-3.624-4.682-3.624-14.043,0-9.422,3.624-14.131t10.7-4.711q7.072,0,10.668,4.711t3.6,14.131q0,9.3-3.6,14.014t-10.668,4.71Q375.92,748.708,372.3,744.027Zm38.171,7.548h24.025v-3.394h-20.05V708.275h-3.975v43.3Zm52.668-.439a12.247,12.247,0,0,0,5.232-3.218,13.239,13.239,0,0,0,3.04-5.588,30.275,30.275,0,0,0,.964-8.192V708.275H468.4v25.687a25.363,25.363,0,0,1-.789,6.788,11.071,11.071,0,0,1-2.4,4.564,9.249,9.249,0,0,1-4,2.545,20.325,20.325,0,0,1-11.223,0,9.234,9.234,0,0,1-4-2.545,11.061,11.061,0,0,1-2.4-4.564,25.363,25.363,0,0,1-.789-6.788V708.275h-3.917v25.863a30.271,30.271,0,0,0,.965,8.192,13.408,13.408,0,0,0,3.01,5.588,12.032,12.032,0,0,0,5.2,3.218A28.275,28.275,0,0,0,463.135,751.136Zm20.225,0.439h3.683V713.717h0.292l5.086,12.288,10.288,23.873h3.8L516.8,726.005l5.027-12.288h0.351v37.858h3.683v-43.3h-5.437l-11.866,27.852-3.8,9.421H504.4l-3.741-9.421L488.8,708.275H483.36v43.3Zm53.954,0h26.948v-3.452H541.289V731.271h21.1v-3.394h-21.1v-16.15h22.506v-3.452H537.314v43.3Zm57.4-2.37q3.858-3.012,3.858-8.631a11.261,11.261,0,0,0-.994-5,10.139,10.139,0,0,0-2.718-3.423,15.357,15.357,0,0,0-4.092-2.341q-2.367-.936-5.115-1.755a35.673,35.673,0,0,1-4.881-1.7,11.954,11.954,0,0,1-3.156-1.961,6.469,6.469,0,0,1-1.725-2.4,8.079,8.079,0,0,1-.526-3.013,7.2,7.2,0,0,1,2.835-5.968,12.036,12.036,0,0,1,7.629-2.224,37.612,37.612,0,0,1,5.056.38,49.7,49.7,0,0,1,5.524,1.083l0.117-3.511a50.807,50.807,0,0,0-10.931-1.4,19.82,19.82,0,0,0-5.9.819,13.057,13.057,0,0,0-4.5,2.37,10.733,10.733,0,0,0-2.894,3.715,11.094,11.094,0,0,0-1.023,4.8,12.3,12.3,0,0,0,.7,4.33,8.946,8.946,0,0,0,2.221,3.335,14.716,14.716,0,0,0,3.917,2.6,39.274,39.274,0,0,0,5.787,2.135q2.22,0.645,4.15,1.375a14.816,14.816,0,0,1,3.361,1.756,7.063,7.063,0,0,1,3.069,6.173,6.918,6.918,0,0,1-2.835,5.939q-2.837,2.077-8.154,2.077a44.686,44.686,0,0,1-6.2-.5,62.724,62.724,0,0,1-6.722-1.317l-0.117,3.453a62.189,62.189,0,0,0,6.781,1.316,46.724,46.724,0,0,0,6.372.5Q590.858,752.219,594.717,749.205Zm33.377,11.732h3.624V760.7a50.386,50.386,0,0,1-6.9-13.955,53.748,53.748,0,0,1,0-31.744,50.316,50.316,0,0,1,6.9-13.985v-0.234h-3.624a51.5,51.5,0,0,0-6.781,14.19,55.143,55.143,0,0,0,0,31.773,51.491,51.491,0,0,0,6.781,14.189h0Zm10.054-9.362h3.975v-43.3h-3.975v43.3Zm15.432,0h3.683V714.536h0.292l3.332,4.974,23.324,32.065h3.624v-43.3h-3.682v37.1H683.86l-3.507-5.15-23.207-31.948H653.58v43.3Zm64.8,0.439q1.255-.088,2.542-0.263t2.514-.41q1.227-.232,2.221-0.527v-3.393a21.841,21.841,0,0,1-2.163.438q-1.285.207-2.63,0.381t-2.6.263q-1.258.088-2.192,0.088-14.966,0-14.965-18.607,0-9.6,3.8-14.161t11.632-4.564a37.485,37.485,0,0,1,4.151.264q2.337,0.262,4.968.731v-3.511q-2.4-.468-4.968-0.761a40.723,40.723,0,0,0-4.5-.292q-19.174,0-19.174,22.352,0,21.942,19.057,22.06Q717.121,752.1,718.378,752.014Zm15.636-.439H758.04v-3.394H737.989V708.275h-3.975v43.3Zm52.669-.439a12.253,12.253,0,0,0,5.232-3.218,13.237,13.237,0,0,0,3.039-5.588,30.271,30.271,0,0,0,.965-8.192V708.275h-3.975v25.687a25.363,25.363,0,0,1-.789,6.788,11.061,11.061,0,0,1-2.4,4.564,9.246,9.246,0,0,1-4,2.545,20.328,20.328,0,0,1-11.224,0,9.24,9.24,0,0,1-4-2.545,11.059,11.059,0,0,1-2.4-4.564,25.319,25.319,0,0,1-.79-6.788V708.275h-3.916v25.863a30.275,30.275,0,0,0,.964,8.192,13.4,13.4,0,0,0,3.011,5.588,12.028,12.028,0,0,0,5.2,3.218A28.279,28.279,0,0,0,786.683,751.136Zm48.079-4.3q5.465-5.382,5.465-16.91,0-11.467-5.261-16.823t-16.542-5.354q-1.053,0-2.514.059t-3.011.146q-1.548.088-3.127,0.205t-2.864.234v42.949a19.742,19.742,0,0,0,4.326.673q2.862,0.2,6.2.205Q829.3,752.219,834.762,746.835Zm-18.238,1.9q-0.908-.029-1.783-0.088t-1.812-.175q-0.936-.117-2.046-0.293V711.727q1.754-.232,3.975-0.351t3.858-.117q9.06,0,13.269,4.477t4.209,14.189q0,9.773-4.3,14.307t-13.474,4.534C817.76,748.766,817.128,748.757,816.524,748.737Zm32.881,2.838h3.975v-43.3h-3.975v43.3Zm15.432,0h3.682V714.536h0.293l3.332,4.974,23.323,32.065h3.625v-43.3h-3.683v37.1h-0.292l-3.508-5.15L868.4,708.275h-3.566v43.3Zm68.567,0.059a44.89,44.89,0,0,0,5.9-1.288V729.574h-3.8v18.2q-1.872.351-4.034,0.585a34.707,34.707,0,0,1-3.624.234q-15.49,0-15.491-18.607,0-9.537,3.975-14.131t12.276-4.594q1.168,0,2.28.059t2.338,0.234q1.227,0.175,2.6.439t3.128,0.673v-3.511a54.242,54.242,0,0,0-5.466-1.083,36.24,36.24,0,0,0-5.115-.38q-20.109,0-20.109,22.352,0,21.942,19.583,22.06A37.708,37.708,0,0,0,933.4,751.634Zm30.4-.059h26.948v-3.452H967.775V731.271h21.1v-3.394h-21.1v-16.15h22.5v-3.452H963.8v43.3Zm34.546-14.687h17.834v-3.394H998.346v3.394Zm57.634,3.394a9.921,9.921,0,0,0-8.88-10.65V729.4a8.378,8.378,0,0,0,5.49-3.364,11.019,11.019,0,0,0,1.99-6.7q0-6.144-3.68-8.865t-11.99-2.721q-2.685,0-5.58.2t-7.04.615v42.714c2.34,0.312,4.62.536,6.87,0.673s4.35,0.2,6.34.2q16.485,0,16.48-11.878h0ZM1034,748.8a29.484,29.484,0,0,1-3.85-.439V731.212h10.17q6.015,0,8.85,2.165t2.84,6.671q0,4.564-3.07,6.729c-2.05,1.444-5.21,2.165-9.5,2.165C1037.41,748.942,1035.6,748.893,1034,748.8Zm-3.85-20.743v-16.56a35.3,35.3,0,0,1,4-.38c1.42-.059,3.07-0.088,4.94-0.088a25.823,25.823,0,0,1,5.29.468,9.438,9.438,0,0,1,3.57,1.463,5.829,5.829,0,0,1,2.01,2.633,10.7,10.7,0,0,1,.65,3.921q0,4.623-2.43,6.582t-8.1,1.961h-9.93Zm64.44,18.49q4.77-5.617,4.77-16.559,0-11-4.77-16.648-4.755-5.646-13.53-5.646-8.88,0-13.62,5.646t-4.74,16.648q0,11,4.74,16.588t13.62,5.588Q1089.835,752.16,1094.59,746.543Zm-24.23-2.516q-3.615-4.682-3.62-14.043,0-9.422,3.62-14.131t10.7-4.711q7.065,0,10.67,4.711,3.585,4.71,3.59,14.131,0,9.3-3.59,14.014t-10.67,4.71Q1073.98,748.708,1070.36,744.027Zm67.78,2.516q4.77-5.617,4.76-16.559,0-11-4.76-16.648t-13.53-5.646q-8.895,0-13.62,5.646t-4.74,16.648q0,11,4.74,16.588t13.62,5.588Q1133.37,752.16,1138.14,746.543Zm-24.23-2.516q-3.63-4.682-3.62-14.043,0-9.422,3.62-14.131t10.7-4.711q7.065,0,10.67,4.711,3.585,4.71,3.59,14.131,0,9.3-3.59,14.014t-10.67,4.71Q1117.53,748.708,1113.91,744.027Zm38.17,7.548h3.98V731.212h9.17l14.5,20.363h4.62l-14.79-20.655-1.87-1.4v-0.351l1.69-1.462,13.92-19.427h-4.62l-13.86,19.485h-8.76V708.275h-3.98v43.3Zm60.09-2.37q3.87-3.012,3.86-8.631a11.3,11.3,0,0,0-.99-5,10.218,10.218,0,0,0-2.72-3.423,15.328,15.328,0,0,0-4.09-2.341q-2.37-.936-5.12-1.755a35.8,35.8,0,0,1-4.88-1.7,11.879,11.879,0,0,1-3.15-1.961,6.462,6.462,0,0,1-1.73-2.4,8.078,8.078,0,0,1-.53-3.013,7.2,7.2,0,0,1,2.84-5.968,12.032,12.032,0,0,1,7.63-2.224,37.517,37.517,0,0,1,5.05.38,49.318,49.318,0,0,1,5.53,1.083l0.12-3.511a50.859,50.859,0,0,0-10.94-1.4,19.788,19.788,0,0,0-5.9.819,13.116,13.116,0,0,0-4.5,2.37,10.674,10.674,0,0,0-2.89,3.715,10.983,10.983,0,0,0-1.03,4.8,12.482,12.482,0,0,0,.7,4.33,8.923,8.923,0,0,0,2.23,3.335,14.606,14.606,0,0,0,3.91,2.6,39.494,39.494,0,0,0,5.79,2.135c1.48,0.43,2.86.888,4.15,1.375a14.619,14.619,0,0,1,3.36,1.756,7.385,7.385,0,0,1,2.25,2.516,7.467,7.467,0,0,1,.82,3.657,6.921,6.921,0,0,1-2.84,5.939c-1.89,1.385-4.6,2.077-8.15,2.077a44.773,44.773,0,0,1-6.2-.5,62.93,62.93,0,0,1-6.72-1.317l-0.12,3.453a62.594,62.594,0,0,0,6.79,1.316,46.638,46.638,0,0,0,6.37.5Q1208.315,752.219,1212.17,749.205Zm10.88,11.732a49.991,49.991,0,0,0,6.81-14.189,55.783,55.783,0,0,0,0-31.773,50,50,0,0,0-6.81-14.19h-3.57v0.234A49.809,49.809,0,0,1,1226.35,715a54.333,54.333,0,0,1,0,31.744,49.875,49.875,0,0,1-6.87,13.955v0.234h3.57Z"/>
  <path id="_11_000" data-name="11,000" class="cls-3" d="M4422.88,564.253h62.57V358.289h-47.27l-70.35,36.183-0.56,2.5,6.95,35.626h3.06l44.49-9.185h1.11V564.253Zm144.31,0h62.56V358.289h-47.27l-70.34,36.183-0.56,2.5,6.95,35.626h3.06l44.49-9.185h1.11V564.253ZM4705.1,607.4l27.53-101.313h-61.17l-11.68,98.529Zm211.05-66.661q24.735-26.3,24.74-79.185t-24.74-79.463q-24.75-26.577-69.79-26.581t-69.93,26.581q-24.9,26.583-24.89,79.463t24.89,79.185q24.87,26.3,69.93,26.3T4916.15,540.734Zm-84.95-25.467a20.873,20.873,0,0,1-10.15-8.906q-3.885-6.4-5.7-17.257a173.516,173.516,0,0,1-1.8-27.555,178.514,178.514,0,0,1,1.8-27.972q1.815-10.992,5.7-17.4a20.893,20.893,0,0,1,10.15-8.906,40.8,40.8,0,0,1,15.16-2.5,38.849,38.849,0,0,1,14.73,2.5,21,21,0,0,1,10.01,8.906q3.9,6.406,5.84,17.4a165.018,165.018,0,0,1,1.95,27.972,162.912,162.912,0,0,1-1.95,27.694q-1.95,11-5.84,17.257a21.158,21.158,0,0,1-10.01,8.767,38.849,38.849,0,0,1-14.73,2.5A40.8,40.8,0,0,1,4831.2,515.267Zm297.1,25.467q24.75-26.3,24.75-79.185t-24.75-79.463q-24.75-26.577-69.79-26.581t-69.93,26.581q-24.885,26.583-24.89,79.463t24.89,79.185q24.885,26.3,69.93,26.3T5128.3,540.734Zm-84.94-25.467a20.787,20.787,0,0,1-10.15-8.906q-3.9-6.4-5.7-17.257a172.183,172.183,0,0,1-1.81-27.555,177.142,177.142,0,0,1,1.81-27.972q1.8-10.992,5.7-17.4a20.807,20.807,0,0,1,10.15-8.906,40.747,40.747,0,0,1,15.15-2.5,38.9,38.9,0,0,1,14.74,2.5,21.04,21.04,0,0,1,10.01,8.906q3.885,6.406,5.84,17.4a166.2,166.2,0,0,1,1.94,27.972,164.085,164.085,0,0,1-1.94,27.694q-1.95,11-5.84,17.257a21.2,21.2,0,0,1-10.01,8.767,38.9,38.9,0,0,1-14.74,2.5A40.747,40.747,0,0,1,5043.36,515.267Zm297.09,25.467q24.75-26.3,24.75-79.185t-24.75-79.463q-24.75-26.577-69.79-26.581t-69.93,26.581q-24.885,26.583-24.88,79.463t24.88,79.185q24.885,26.3,69.93,26.3T5340.45,540.734Zm-84.94-25.467a20.83,20.83,0,0,1-10.15-8.906q-3.9-6.4-5.7-17.257a172.183,172.183,0,0,1-1.81-27.555,177.142,177.142,0,0,1,1.81-27.972q1.8-10.992,5.7-17.4a20.85,20.85,0,0,1,10.15-8.906,40.784,40.784,0,0,1,15.15-2.5,38.867,38.867,0,0,1,14.74,2.5,21.04,21.04,0,0,1,10.01,8.906q3.885,6.406,5.84,17.4a166.2,166.2,0,0,1,1.94,27.972,164.085,164.085,0,0,1-1.94,27.694q-1.95,11-5.84,17.257a21.2,21.2,0,0,1-10.01,8.767,38.867,38.867,0,0,1-14.74,2.5A40.784,40.784,0,0,1,5255.51,515.267Z"/>
  <path id="_770_000" data-name="770,000" class="cls-2" d="M2431.81,613.975l70.34-168.668v-3.619l-8.06-33.4H2351.45l-6.12,5.288,1.95,47.038h86.19l-68.12,147.793v5.845l53.11,7.237Zm166.27,0,70.35-168.668v-3.619l-8.06-33.4H2517.72l-6.11,5.288,1.94,47.038h86.2l-68.12,147.793v5.845l53.11,7.237Zm249.42-23.241q24.735-26.3,24.74-79.185t-24.74-79.463q-24.75-26.577-69.8-26.581t-69.93,26.581q-24.885,26.583-24.88,79.463t24.88,79.185q24.885,26.3,69.93,26.3T2847.5,590.734Zm-84.95-25.467a20.873,20.873,0,0,1-10.15-8.906q-3.9-6.4-5.7-17.257a172.183,172.183,0,0,1-1.81-27.555,177.142,177.142,0,0,1,1.81-27.972q1.815-10.992,5.7-17.4a20.893,20.893,0,0,1,10.15-8.906,40.784,40.784,0,0,1,15.15-2.5,38.867,38.867,0,0,1,14.74,2.5,21,21,0,0,1,10.01,8.906q3.9,6.406,5.84,17.4a165.018,165.018,0,0,1,1.95,27.972,162.912,162.912,0,0,1-1.95,27.694q-1.95,11-5.84,17.257a21.158,21.158,0,0,1-10.01,8.767,38.867,38.867,0,0,1-14.74,2.5A40.784,40.784,0,0,1,2762.55,565.267ZM2932.86,657.4l27.53-101.313h-61.18l-11.67,98.529Zm211.04-66.661q24.75-26.3,24.75-79.185t-24.75-79.463q-24.75-26.577-69.79-26.581t-69.93,26.581q-24.885,26.583-24.88,79.463t24.88,79.185q24.885,26.3,69.93,26.3T3143.9,590.734Zm-84.94-25.467a20.83,20.83,0,0,1-10.15-8.906q-3.9-6.4-5.7-17.257a172.183,172.183,0,0,1-1.81-27.555,177.142,177.142,0,0,1,1.81-27.972q1.8-10.992,5.7-17.4a20.85,20.85,0,0,1,10.15-8.906,40.784,40.784,0,0,1,15.15-2.5,38.867,38.867,0,0,1,14.74,2.5,21.04,21.04,0,0,1,10.01,8.906q3.885,6.406,5.84,17.4a166.066,166.066,0,0,1,1.95,27.972,163.953,163.953,0,0,1-1.95,27.694q-1.95,11-5.84,17.257a21.2,21.2,0,0,1-10.01,8.767,38.867,38.867,0,0,1-14.74,2.5A40.784,40.784,0,0,1,3058.96,565.267Zm297.1,25.467q24.735-26.3,24.74-79.185t-24.74-79.463q-24.75-26.577-69.79-26.581t-69.93,26.581q-24.9,26.583-24.89,79.463t24.89,79.185q24.87,26.3,69.93,26.3T3356.06,590.734Zm-84.95-25.467a20.873,20.873,0,0,1-10.15-8.906q-3.9-6.4-5.7-17.257a172.336,172.336,0,0,1-1.8-27.555,177.3,177.3,0,0,1,1.8-27.972q1.815-10.992,5.7-17.4a20.893,20.893,0,0,1,10.15-8.906,40.8,40.8,0,0,1,15.16-2.5,38.849,38.849,0,0,1,14.73,2.5,21,21,0,0,1,10.01,8.906q3.9,6.406,5.84,17.4a165.018,165.018,0,0,1,1.95,27.972,162.912,162.912,0,0,1-1.95,27.694q-1.95,11-5.84,17.257a21.158,21.158,0,0,1-10.01,8.767,38.849,38.849,0,0,1-14.73,2.5A40.8,40.8,0,0,1,3271.11,565.267Zm297.1,25.467q24.75-26.3,24.75-79.185t-24.75-79.463q-24.75-26.577-69.79-26.581t-69.93,26.581q-24.885,26.583-24.89,79.463t24.89,79.185q24.885,26.3,69.93,26.3T3568.21,590.734Zm-84.94-25.467a20.787,20.787,0,0,1-10.15-8.906q-3.9-6.4-5.7-17.257a172.183,172.183,0,0,1-1.81-27.555,177.142,177.142,0,0,1,1.81-27.972q1.8-10.992,5.7-17.4a20.807,20.807,0,0,1,10.15-8.906,40.747,40.747,0,0,1,15.15-2.5,38.9,38.9,0,0,1,14.74,2.5,21.04,21.04,0,0,1,10.01,8.906q3.885,6.406,5.84,17.4a166.2,166.2,0,0,1,1.94,27.972,164.085,164.085,0,0,1-1.94,27.694q-1.95,11-5.84,17.257a21.2,21.2,0,0,1-10.01,8.767,38.9,38.9,0,0,1-14.74,2.5A40.747,40.747,0,0,1,3483.27,565.267Z"/>
  <path id="UNIVERSITY_LIBRARIES_PROVIDES-2" data-name="UNIVERSITY LIBRARIES PROVIDES" class="cls-3" d="M4412.92,313.56a12.245,12.245,0,0,0,5.23-3.218,13.245,13.245,0,0,0,3.04-5.588,30.375,30.375,0,0,0,.97-8.192V270.7h-3.98v25.687a25.208,25.208,0,0,1-.79,6.788,11.006,11.006,0,0,1-2.39,4.564,9.3,9.3,0,0,1-4.01,2.545,20.314,20.314,0,0,1-11.22,0,9.237,9.237,0,0,1-4.01-2.545,11.006,11.006,0,0,1-2.39-4.564,25.208,25.208,0,0,1-.79-6.788V270.7h-3.92v25.863a29.98,29.98,0,0,0,.97,8.192,13.313,13.313,0,0,0,3.01,5.588,11.963,11.963,0,0,0,5.2,3.218A28.272,28.272,0,0,0,4412.92,313.56ZM4433.14,314h3.69V276.96h0.29l3.33,4.973L4463.78,314h3.62V270.7h-3.68v37.1h-0.3l-3.5-5.149L4436.71,270.7h-3.57V314Zm45.72,0h3.97V270.7h-3.97V314Zm26.71,0h5.38l16.19-43.3h-4.15l-11.57,31.07-2.99,8.251h-0.35l-2.92-8.251-11.57-31.07h-4.15Zm28.12,0h26.94v-3.453h-22.97V293.7h21.1V290.3h-21.1v-16.15h22.51V270.7h-26.48V314Zm62.13,0h4.45l-10.93-17.32a12.7,12.7,0,0,0,7.3-4.418,13.7,13.7,0,0,0,2.34-8.4q0-7.2-4.53-10.474t-14.47-3.276a63.279,63.279,0,0,0-10.29.877V314h3.98V297.264q1.815,0.175,3.51.292t3.09,0.118c0.98,0,1.9-.02,2.78-0.059a25.5,25.5,0,0,0,2.54-.234Zm-19.2-19.866a18.878,18.878,0,0,1-2.95-.38V274.034q1.455-.232,3.33-0.38t3.51-.147q7.65,0,11.05,2.458t3.39,7.9a13.139,13.139,0,0,1-.79,4.8,7.181,7.181,0,0,1-2.49,3.219,11.611,11.611,0,0,1-4.38,1.814,31.346,31.346,0,0,1-6.55.585C4579.34,294.28,4577.97,294.231,4576.62,294.133Zm53.11,17.5q3.855-3.014,3.86-8.631a11.307,11.307,0,0,0-1-5,10.115,10.115,0,0,0-2.72-3.423,15.353,15.353,0,0,0-4.09-2.34q-2.37-.936-5.11-1.756a35.059,35.059,0,0,1-4.88-1.7,11.948,11.948,0,0,1-3.16-1.96,6.576,6.576,0,0,1-1.73-2.4,8.081,8.081,0,0,1-.52-3.013,7.192,7.192,0,0,1,2.83-5.969,12.051,12.051,0,0,1,7.63-2.223,37.656,37.656,0,0,1,5.06.38,49.364,49.364,0,0,1,5.52,1.083l0.12-3.511a50.776,50.776,0,0,0-10.93-1.4,19.9,19.9,0,0,0-5.91.819,13.1,13.1,0,0,0-4.5,2.37,10.784,10.784,0,0,0-2.89,3.715,11.12,11.12,0,0,0-1.02,4.8,12.248,12.248,0,0,0,.7,4.33,9.012,9.012,0,0,0,2.22,3.336,14.645,14.645,0,0,0,3.92,2.6,38.9,38.9,0,0,0,5.78,2.136c1.48,0.43,2.87.888,4.15,1.375a14.581,14.581,0,0,1,3.36,1.756,7.013,7.013,0,0,1,3.07,6.173,6.915,6.915,0,0,1-2.83,5.939q-2.835,2.077-8.16,2.077a44.64,44.64,0,0,1-6.19-.5,62.445,62.445,0,0,1-6.72-1.317l-0.12,3.452a61.7,61.7,0,0,0,6.78,1.317,46.742,46.742,0,0,0,6.37.5Q4625.865,314.642,4629.73,311.629ZM4642,314h3.98V270.7H4642V314Zm25.2,0h3.97V274.151h14.32V270.7h-32.56v3.452h14.27V314Zm35.77,0h3.98V299.253L4722.5,270.7h-4.27l-11.4,21.065-1.7,3.686h-0.41l-1.75-3.686L4691.63,270.7h-4.33l15.67,28.671V314Zm38.64,0h24.02v-3.394h-20.05V270.7h-3.97V314Zm30.86,0h3.98V270.7h-3.98V314Zm45.13-11.293a9.92,9.92,0,0,0-8.88-10.65v-0.234a8.43,8.43,0,0,0,5.49-3.364,11.085,11.085,0,0,0,1.99-6.7q0-6.144-3.69-8.865-3.675-2.721-11.98-2.721-2.685,0-5.58.2t-7.04.614v42.715q3.495,0.468,6.86.673t6.35,0.2q16.485,0,16.48-11.878h0Zm-21.98,8.513a29.694,29.694,0,0,1-3.86-.438V293.636h10.17q6.03,0,8.86,2.165t2.84,6.671c0,3.042-1.03,5.286-3.07,6.729s-5.22,2.165-9.5,2.165C4799.03,311.366,4797.22,311.317,4795.62,311.219Zm-3.86-20.743V273.917a35.257,35.257,0,0,1,4.01-.38c1.42-.059,3.07-0.088,4.94-0.088a25.753,25.753,0,0,1,5.29.468,9.319,9.319,0,0,1,3.56,1.463,5.775,5.775,0,0,1,2.02,2.633,10.705,10.705,0,0,1,.64,3.92q0,4.623-2.42,6.583t-8.1,1.96h-9.94ZM4852.73,314h4.44l-10.93-17.32a12.693,12.693,0,0,0,7.31-4.418,13.7,13.7,0,0,0,2.34-8.4q0-7.2-4.53-10.474t-14.47-3.276a63.279,63.279,0,0,0-10.29.877V314h3.98V297.264c1.2,0.117,2.37.215,3.5,0.292s2.17,0.118,3.1.118c0.98,0,1.9-.02,2.78-0.059s1.72-.117,2.54-0.234Zm-19.2-19.866a18.7,18.7,0,0,1-2.95-.38V274.034q1.455-.232,3.33-0.38t3.51-.147q7.65,0,11.04,2.458c2.26,1.638,3.4,4.271,3.4,7.9a13.139,13.139,0,0,1-.79,4.8,7.181,7.181,0,0,1-2.49,3.219,11.611,11.611,0,0,1-4.38,1.814,31.413,31.413,0,0,1-6.55.585C4836.25,294.28,4834.87,294.231,4833.53,294.133ZM4860.33,314h3.92l5.02-13.517h19.88L4894.23,314h3.92v-0.351l-15.9-42.949h-6.02l-15.9,42.949V314Zm10.11-17.028,5.97-15.915,2.63-7.315h0.35l2.69,7.315,5.96,15.915h-17.6ZM4930.83,314h4.44l-10.93-17.32a12.726,12.726,0,0,0,7.31-4.418,13.767,13.767,0,0,0,2.33-8.4q0-7.2-4.53-10.474t-14.46-3.276a63.093,63.093,0,0,0-10.29.877V314h3.97V297.264q1.815,0.175,3.51.292c1.13,0.079,2.16.118,3.1,0.118,0.97,0,1.9-.02,2.77-0.059s1.73-.117,2.55-0.234Zm-19.21-19.866a19.056,19.056,0,0,1-2.95-.38V274.034q1.47-.232,3.33-0.38t3.51-.147q7.665,0,11.05,2.458t3.39,7.9a12.931,12.931,0,0,1-.79,4.8,7.092,7.092,0,0,1-2.48,3.219,11.662,11.662,0,0,1-4.39,1.814,31.244,31.244,0,0,1-6.54.585C4914.34,294.28,4912.97,294.231,4911.62,294.133ZM4943.34,314h3.97V270.7h-3.97V314Zm15.43,0h26.95v-3.453h-22.98V293.7h21.11V290.3h-21.11v-16.15h22.51V270.7h-26.48V314Zm57.4-2.37q3.855-3.014,3.86-8.631a11.17,11.17,0,0,0-1-5,10.087,10.087,0,0,0-2.71-3.423,15.417,15.417,0,0,0-4.1-2.34c-1.57-.624-3.28-1.209-5.11-1.756a35.059,35.059,0,0,1-4.88-1.7,11.948,11.948,0,0,1-3.16-1.96,6.431,6.431,0,0,1-1.72-2.4,8.078,8.078,0,0,1-.53-3.013,7.2,7.2,0,0,1,2.84-5.969,12.031,12.031,0,0,1,7.63-2.223,37.517,37.517,0,0,1,5.05.38,49.982,49.982,0,0,1,5.53,1.083l0.11-3.511a50.776,50.776,0,0,0-10.93-1.4,19.788,19.788,0,0,0-5.9.819,12.919,12.919,0,0,0-4.5,2.37,10.693,10.693,0,0,0-2.9,3.715,11.12,11.12,0,0,0-1.02,4.8,12.248,12.248,0,0,0,.7,4.33,9.012,9.012,0,0,0,2.22,3.336,14.807,14.807,0,0,0,3.92,2.6,39.487,39.487,0,0,0,5.79,2.136c1.48,0.43,2.86.888,4.15,1.375a15,15,0,0,1,3.36,1.756,7.073,7.073,0,0,1,3.07,6.173,6.923,6.923,0,0,1-2.84,5.939q-2.835,2.077-8.15,2.077a44.656,44.656,0,0,1-6.2-.5,62.445,62.445,0,0,1-6.72-1.317l-0.12,3.452a61.7,61.7,0,0,0,6.78,1.317,46.742,46.742,0,0,0,6.37.5Q5012.32,314.642,5016.17,311.629Zm26.89,2.37h3.97v-14.57q1.935,0.234,3.54.292c1.07,0.04,2.08.059,3.01,0.059q9.765,0,14.26-3.54t4.51-11.322q0-7.725-4.56-11.264t-14.44-3.54a64.607,64.607,0,0,0-10.29.877V314Zm9.09-17.671c-0.68-.039-1.35-0.088-1.99-0.147s-1.24-.117-1.78-0.175a12.347,12.347,0,0,1-1.35-.2V274.034c0.94-.155,2.03-0.282,3.28-0.38s2.43-.147,3.56-0.147q7.665,0,11.05,2.692t3.39,8.719a15.351,15.351,0,0,1-.79,5.266,7.914,7.914,0,0,1-2.48,3.54,10.854,10.854,0,0,1-4.39,2.019,28.5,28.5,0,0,1-6.54.643C5053.48,296.386,5052.83,296.367,5052.15,296.328ZM5106.72,314h4.44l-10.93-17.32a12.665,12.665,0,0,0,7.3-4.418,13.7,13.7,0,0,0,2.34-8.4q0-7.2-4.53-10.474t-14.46-3.276a63.093,63.093,0,0,0-10.29.877V314h3.97V297.264q1.815,0.175,3.51.292c1.13,0.079,2.16.118,3.1,0.118,0.97,0,1.9-.02,2.77-0.059s1.73-.117,2.55-0.234Zm-19.21-19.866a18.878,18.878,0,0,1-2.95-.38V274.034q1.47-.232,3.33-0.38t3.51-.147q7.665,0,11.05,2.458t3.39,7.9a12.931,12.931,0,0,1-.79,4.8,7.161,7.161,0,0,1-2.48,3.219,11.662,11.662,0,0,1-4.39,1.814,31.279,31.279,0,0,1-6.55.585C5090.23,294.28,5088.86,294.231,5087.51,294.133Zm61.32,14.834q4.77-5.618,4.77-16.56,0-11-4.77-16.647-4.755-5.646-13.53-5.646-8.88,0-13.62,5.646t-4.73,16.647q0,11,4.73,16.589t13.62,5.588Q5144.075,314.584,5148.83,308.967Zm-24.23-2.516q-3.615-4.682-3.62-14.044,0-9.42,3.62-14.131t10.7-4.71q7.08,0,10.67,4.71t3.59,14.131q0,9.3-3.59,14.014t-10.67,4.711Q5128.22,311.132,5124.6,306.451ZM5173.18,314h5.38l16.19-43.3h-4.15l-11.58,31.07-2.98,8.251h-0.35l-2.92-8.251L5161.2,270.7h-4.15Zm28.12,0h3.97V270.7h-3.97V314Zm43.28-4.74q5.46-5.382,5.47-16.91,0-11.467-5.26-16.823t-16.55-5.354c-0.7,0-1.54.02-2.51,0.059s-1.98.087-3.01,0.146-2.08.127-3.13,0.2-2.01.156-2.86,0.234v42.949a19.766,19.766,0,0,0,4.32.673q2.865,0.2,6.2.2Q5239.115,314.642,5244.58,309.259Zm-18.24,1.9c-0.6-.019-1.2-0.049-1.78-0.088s-1.19-.1-1.81-0.175-1.31-.176-2.05-0.293V274.151c1.17-.155,2.5-0.272,3.98-0.351s2.76-.117,3.86-0.117q9.06,0,13.26,4.476t4.21,14.19q0,9.772-4.29,14.306t-13.48,4.535C5227.58,311.19,5226.95,311.181,5226.34,311.161ZM5259.22,314h26.95v-3.453H5263.2V293.7h21.1V290.3h-21.1v-16.15h22.5V270.7h-26.48V314Zm57.41-2.37q3.855-3.014,3.85-8.631a11.312,11.312,0,0,0-.99-5,10.115,10.115,0,0,0-2.72-3.423,15.353,15.353,0,0,0-4.09-2.34q-2.37-.936-5.11-1.756a35.713,35.713,0,0,1-4.89-1.7,12.043,12.043,0,0,1-3.15-1.96,6.462,6.462,0,0,1-1.73-2.4,8.081,8.081,0,0,1-.52-3.013,7.192,7.192,0,0,1,2.83-5.969,12.051,12.051,0,0,1,7.63-2.223,37.656,37.656,0,0,1,5.06.38,49.364,49.364,0,0,1,5.52,1.083l0.12-3.511a50.851,50.851,0,0,0-10.93-1.4,19.856,19.856,0,0,0-5.91.819,13.1,13.1,0,0,0-4.5,2.37,10.665,10.665,0,0,0-2.89,3.715,11.12,11.12,0,0,0-1.02,4.8,12.248,12.248,0,0,0,.7,4.33,8.775,8.775,0,0,0,2.22,3.336,14.645,14.645,0,0,0,3.92,2.6,38.9,38.9,0,0,0,5.78,2.136c1.48,0.43,2.87.888,4.15,1.375a14.581,14.581,0,0,1,3.36,1.756,7.385,7.385,0,0,1,2.25,2.516,7.464,7.464,0,0,1,.82,3.657,6.915,6.915,0,0,1-2.83,5.939q-2.835,2.077-8.16,2.077a44.524,44.524,0,0,1-6.19-.5,63.12,63.12,0,0,1-6.73-1.317l-0.11,3.452a61.7,61.7,0,0,0,6.78,1.317,46.624,46.624,0,0,0,6.37.5Q5312.765,314.642,5316.63,311.629Z"/>
  <path id="documents_lent_to_scholars_government_agencies_and_institutio" data-name="documents lent to scholars,  government agencies and institutio" class="cls-3" d="M4427.72,663.835q5.475-5.382,5.47-16.91,0-11.467-5.26-16.823t-16.55-5.354c-0.7,0-1.54.021-2.51,0.059s-1.98.088-3.01,0.146-2.08.127-3.13,0.205-2.01.156-2.86,0.234v42.949a19.644,19.644,0,0,0,4.32.673q2.865,0.2,6.2.205Q4422.255,669.219,4427.72,663.835Zm-18.24,1.9c-0.6-.019-1.19-0.048-1.78-0.088s-1.19-.1-1.81-0.175-1.31-.176-2.05-0.293V628.727c1.17-.155,2.5-0.272,3.98-0.351s2.76-.117,3.86-0.117q9.06,0,13.26,4.477,4.215,4.476,4.21,14.189,0,9.773-4.29,14.307t-13.48,4.534C4410.72,665.766,4410.09,665.757,4409.48,665.737Zm62.49-2.194q4.77-5.617,4.77-16.559,0-11-4.77-16.648t-13.53-5.646q-8.88,0-13.62,5.646t-4.74,16.648q0,11,4.74,16.588t13.62,5.588Q4467.215,669.16,4471.97,663.543Zm-24.23-2.516q-3.615-4.682-3.62-14.043,0-9.422,3.62-14.131t10.7-4.711q7.065,0,10.67,4.711,3.585,4.71,3.59,14.131,0,9.3-3.59,14.014t-10.67,4.71Q4451.36,665.708,4447.74,661.027Zm57.26,7.987c0.84-.059,1.68-0.146,2.54-0.263s1.7-.254,2.52-0.41,1.55-.331,2.22-0.527v-3.393c-0.59.156-1.31,0.3-2.17,0.438s-1.73.264-2.63,0.381-1.76.205-2.6,0.263-1.57.088-2.19,0.088q-14.97,0-14.96-18.607,0-9.6,3.79-14.161c2.54-3.042,6.41-4.564,11.64-4.564a37.586,37.586,0,0,1,4.15.264c1.56,0.175,3.21.419,4.97,0.731v-3.511c-1.6-.312-3.26-0.565-4.97-0.761a40.856,40.856,0,0,0-4.5-.292q-19.185,0-19.18,22.352,0,21.942,19.06,22.06Q4503.74,669.1,4505,669.014Zm39.49-.878a12.306,12.306,0,0,0,5.23-3.218,13.348,13.348,0,0,0,3.04-5.588,30.407,30.407,0,0,0,.96-8.192V625.275h-3.97v25.687a25.606,25.606,0,0,1-.79,6.788,11.135,11.135,0,0,1-2.4,4.564,9.262,9.262,0,0,1-4,2.545,20.35,20.35,0,0,1-11.23,0,9.2,9.2,0,0,1-4-2.545,11.135,11.135,0,0,1-2.4-4.564,25.606,25.606,0,0,1-.79-6.788V625.275h-3.91v25.863a30.407,30.407,0,0,0,.96,8.192,13.419,13.419,0,0,0,3.01,5.588,12.021,12.021,0,0,0,5.2,3.218A28.308,28.308,0,0,0,4544.49,668.136Zm20.22,0.439h3.68V630.717h0.3l5.08,12.288,10.29,23.873h3.8l10.29-23.873,5.02-12.288h0.35v37.858h3.69v-43.3h-5.44l-11.87,27.852-3.8,9.421h-0.35l-3.74-9.421-11.86-27.852h-5.44v43.3Zm53.95,0h26.95v-3.452h-22.97V648.271h21.1v-3.394h-21.1v-16.15h22.5v-3.452h-26.48v43.3Zm36.01,0h3.68V631.536h0.3l3.33,4.974,23.32,32.065h3.63v-43.3h-3.69v37.1h-0.29l-3.51-5.15-23.2-31.948h-3.57v43.3Zm55.48,0h3.97V628.727h14.32v-3.452h-32.56v3.452h14.27v39.848Zm46.35-2.37q3.855-3.012,3.86-8.631a11.3,11.3,0,0,0-.99-5,10.218,10.218,0,0,0-2.72-3.423,15.486,15.486,0,0,0-4.09-2.341q-2.37-.936-5.12-1.755a35.322,35.322,0,0,1-4.88-1.7,11.949,11.949,0,0,1-3.16-1.961,6.431,6.431,0,0,1-1.72-2.4,8.078,8.078,0,0,1-.53-3.013,7.2,7.2,0,0,1,2.84-5.968,12.032,12.032,0,0,1,7.63-2.224,37.517,37.517,0,0,1,5.05.38,50.214,50.214,0,0,1,5.53,1.083l0.11-3.511a50.776,50.776,0,0,0-10.93-1.4,19.788,19.788,0,0,0-5.9.819,12.936,12.936,0,0,0-4.5,2.37,10.7,10.7,0,0,0-2.9,3.715,11.121,11.121,0,0,0-1.02,4.8,12.252,12.252,0,0,0,.7,4.33,9.016,9.016,0,0,0,2.22,3.335,14.833,14.833,0,0,0,3.92,2.6,39.494,39.494,0,0,0,5.79,2.135c1.48,0.43,2.86.888,4.15,1.375a15.044,15.044,0,0,1,3.36,1.756,7.073,7.073,0,0,1,3.07,6.173,6.921,6.921,0,0,1-2.84,5.939q-2.835,2.077-8.15,2.077a44.656,44.656,0,0,1-6.2-.5,62.445,62.445,0,0,1-6.72-1.317l-0.12,3.453a62.4,62.4,0,0,0,6.78,1.316,46.756,46.756,0,0,0,6.37.5Q4752.65,669.219,4756.5,666.205Zm26.89,2.37h24.02v-3.394h-20.05V625.275h-3.97v43.3Zm30.86,0h26.95v-3.452h-22.97V648.271h21.1v-3.394h-21.1v-16.15h22.5v-3.452h-26.48v43.3Zm36.01,0h3.68V631.536h0.3l3.33,4.974,23.32,32.065h3.63v-43.3h-3.69v37.1h-0.29l-3.51-5.15-23.2-31.948h-3.57v43.3Zm55.47,0h3.98V628.727h14.32v-3.452h-32.56v3.452h14.26v39.848Zm46.59,0h3.98V628.727h14.32v-3.452h-32.56v3.452h14.26v39.848Zm52.64-5.032q4.77-5.617,4.77-16.559,0-11-4.77-16.648t-13.53-5.646q-8.88,0-13.62,5.646t-4.73,16.648q0,11,4.73,16.588t13.62,5.588Q5000.205,669.16,5004.96,663.543Zm-24.23-2.516q-3.615-4.682-3.62-14.043,0-9.422,3.62-14.131t10.7-4.711q7.08,0,10.67,4.711t3.59,14.131q0,9.3-3.59,14.014t-10.67,4.71Q4984.35,665.708,4980.73,661.027Zm74.18,5.178q3.855-3.012,3.86-8.631a11.3,11.3,0,0,0-.99-5,10.218,10.218,0,0,0-2.72-3.423,15.486,15.486,0,0,0-4.09-2.341q-2.37-.936-5.12-1.755a35.8,35.8,0,0,1-4.88-1.7,11.949,11.949,0,0,1-3.16-1.961,6.431,6.431,0,0,1-1.72-2.4,8.078,8.078,0,0,1-.53-3.013,7.2,7.2,0,0,1,2.84-5.968,12.032,12.032,0,0,1,7.63-2.224,37.517,37.517,0,0,1,5.05.38,50.214,50.214,0,0,1,5.53,1.083l0.11-3.511a50.776,50.776,0,0,0-10.93-1.4,19.788,19.788,0,0,0-5.9.819,13.025,13.025,0,0,0-4.5,2.37,10.821,10.821,0,0,0-2.9,3.715,11.121,11.121,0,0,0-1.02,4.8,12.482,12.482,0,0,0,.7,4.33,9.016,9.016,0,0,0,2.22,3.335,14.833,14.833,0,0,0,3.92,2.6,39.494,39.494,0,0,0,5.79,2.135c1.48,0.43,2.86.888,4.15,1.375a15.044,15.044,0,0,1,3.36,1.756,7.073,7.073,0,0,1,3.07,6.173,6.921,6.921,0,0,1-2.84,5.939q-2.835,2.077-8.15,2.077a44.773,44.773,0,0,1-6.2-.5,62.445,62.445,0,0,1-6.72-1.317l-0.12,3.453a62.876,62.876,0,0,0,6.78,1.316,46.774,46.774,0,0,0,6.38.5Q5051.055,669.219,5054.91,666.205Zm31.36,2.809q1.26-.088,2.55-0.263c0.85-.117,1.69-0.254,2.51-0.41a22.545,22.545,0,0,0,2.22-.527v-3.393a21.942,21.942,0,0,1-2.16.438c-0.86.138-1.74,0.264-2.63,0.381s-1.77.205-2.6,0.263-1.57.088-2.2,0.088q-14.955,0-14.96-18.607,0-9.6,3.8-14.161t11.63-4.564a37.44,37.44,0,0,1,4.15.264c1.56,0.175,3.22.419,4.97,0.731v-3.511c-1.6-.312-3.25-0.565-4.97-0.761a40.558,40.558,0,0,0-4.5-.292q-19.17,0-19.17,22.352,0,21.942,19.05,22.06C5084.67,669.1,5085.43,669.072,5086.27,669.014Zm15.64-.439h3.97V648.1h25.32v20.48h3.91v-43.3h-3.91V644.7h-25.32V625.275h-3.97v43.3Zm74.27-5.032q4.755-5.617,4.76-16.559,0-11-4.76-16.648t-13.54-5.646q-8.88,0-13.62,5.646t-4.73,16.648q0,11,4.73,16.588t13.62,5.588Q5171.415,669.16,5176.18,663.543Zm-24.23-2.516q-3.63-4.682-3.63-14.043,0-9.422,3.63-14.131,3.615-4.71,10.69-4.711t10.67,4.711q3.6,4.71,3.6,14.131,0,9.3-3.6,14.014t-10.67,4.71Q5155.575,665.708,5151.95,661.027Zm38.17,7.548h24.02v-3.394h-20.05V625.275h-3.97v43.3Zm25.95,0h3.92l5.03-13.517h19.87l5.09,13.517h3.91v-0.351l-15.9-42.949h-6.02l-15.9,42.949v0.351Zm10.11-17.027,5.97-15.916,2.63-7.314h0.35l2.69,7.314,5.96,15.916h-17.6Zm60.39,17.027h4.44l-10.93-17.32a12.721,12.721,0,0,0,7.31-4.418,13.7,13.7,0,0,0,2.34-8.4c0-4.8-1.52-8.289-4.53-10.474q-4.545-3.277-14.47-3.277a62.986,62.986,0,0,0-10.29.878v43.007h3.97V651.84q1.815,0.175,3.51.293c1.13,0.078,2.16.117,3.1,0.117,0.97,0,1.9-.019,2.78-0.059s1.72-.117,2.54-0.234Zm-19.2-19.865a19.019,19.019,0,0,1-2.96-.381V628.61c0.98-.155,2.09-0.282,3.34-0.38s2.41-.146,3.5-0.146q7.665,0,11.05,2.457t3.39,7.9a12.939,12.939,0,0,1-.79,4.8,7.09,7.09,0,0,1-2.48,3.218,11.593,11.593,0,0,1-4.39,1.814,31.244,31.244,0,0,1-6.54.585C5270.08,648.856,5268.71,648.808,5267.37,648.71Zm53.1,17.5q3.855-3.012,3.86-8.631a11.3,11.3,0,0,0-.99-5,10.218,10.218,0,0,0-2.72-3.423,15.486,15.486,0,0,0-4.09-2.341q-2.37-.936-5.12-1.755a35.8,35.8,0,0,1-4.88-1.7,11.949,11.949,0,0,1-3.16-1.961,6.431,6.431,0,0,1-1.72-2.4,8.078,8.078,0,0,1-.53-3.013,7.2,7.2,0,0,1,2.84-5.968,12.032,12.032,0,0,1,7.63-2.224,37.517,37.517,0,0,1,5.05.38,49.762,49.762,0,0,1,5.53,1.083l0.11-3.511a50.776,50.776,0,0,0-10.93-1.4,19.788,19.788,0,0,0-5.9.819,13.025,13.025,0,0,0-4.5,2.37,10.821,10.821,0,0,0-2.9,3.715,11.121,11.121,0,0,0-1.02,4.8,12.482,12.482,0,0,0,.7,4.33,9.016,9.016,0,0,0,2.22,3.335,14.833,14.833,0,0,0,3.92,2.6,39.494,39.494,0,0,0,5.79,2.135c1.48,0.43,2.86.888,4.15,1.375a15.044,15.044,0,0,1,3.36,1.756,7.6,7.6,0,0,1,2.25,2.516,7.467,7.467,0,0,1,.82,3.657,6.921,6.921,0,0,1-2.84,5.939q-2.835,2.077-8.15,2.077a44.773,44.773,0,0,1-6.2-.5,62.445,62.445,0,0,1-6.72-1.317l-0.12,3.453a62.876,62.876,0,0,0,6.78,1.316,46.774,46.774,0,0,0,6.38.5Q5316.615,669.219,5320.47,666.205Zm11.93,11.44,3.74-14.1h-4.09l-2.69,13.516ZM4422.72,737.6a44.841,44.841,0,0,0,5.91-1.288V715.544h-3.8v18.2c-1.25.234-2.59,0.429-4.04,0.585a34.672,34.672,0,0,1-3.62.234q-15.495,0-15.49-18.607,0-9.537,3.97-14.131t12.28-4.594q1.17,0,2.28.059t2.34,0.234c0.82,0.117,1.68.263,2.6,0.439s1.96,0.4,3.13.673v-3.511a54.423,54.423,0,0,0-5.47-1.083,36.2,36.2,0,0,0-5.11-.38q-20.115,0-20.11,22.352,0,21.942,19.58,22.06A37.572,37.572,0,0,0,4422.72,737.6Zm45.39-5.091q4.77-5.617,4.77-16.559,0-11-4.77-16.648-4.755-5.646-13.53-5.646-8.88,0-13.62,5.646t-4.73,16.648q0,11,4.73,16.588t13.62,5.588Q4463.355,738.13,4468.11,732.513ZM4443.88,730q-3.615-4.682-3.62-14.043,0-9.421,3.62-14.131t10.7-4.711q7.08,0,10.67,4.711t3.59,14.131q0,9.3-3.59,14.014t-10.67,4.71Q4447.515,734.678,4443.88,730Zm48.58,7.548h5.38l16.19-43.3h-4.15l-11.58,31.071-2.98,8.25h-0.35l-2.92-8.25-11.57-31.071h-4.15Zm28.12,0h26.94v-3.452h-22.97V717.241h21.1v-3.394h-21.1V697.7h22.51v-3.452h-26.48v43.3Zm62.13,0h4.45l-10.94-17.32a12.688,12.688,0,0,0,7.31-4.418,13.7,13.7,0,0,0,2.34-8.4q0-7.2-4.53-10.474t-14.47-3.277a63.172,63.172,0,0,0-10.29.878v43.007h3.98V720.81q1.815,0.176,3.51.293t3.09,0.117c0.98,0,1.9-.019,2.78-0.059a25.5,25.5,0,0,0,2.54-.234Zm-19.2-19.865a18.851,18.851,0,0,1-2.95-.381V697.58q1.455-.233,3.33-0.38t3.51-.146q7.65,0,11.05,2.457t3.39,7.9a13.146,13.146,0,0,1-.79,4.8,7.179,7.179,0,0,1-2.49,3.218,11.611,11.611,0,0,1-4.38,1.814,31.346,31.346,0,0,1-6.55.585C4566.23,717.826,4564.86,717.778,4563.51,717.68Zm31.71,19.865h3.68V700.506h0.3l3.33,4.974,23.32,32.065h3.63v-43.3h-3.69v37.1h-0.29l-3.51-5.15-23.2-31.948h-3.57v43.3Zm45.71,0h3.69V699.687h0.29l5.08,12.288,10.29,23.873h3.8l10.29-23.873,5.03-12.288h0.35v37.858h3.68v-43.3h-5.44L4666.13,722.1l-3.8,9.421h-0.35l-3.74-9.421-11.87-27.852h-5.44v43.3Zm53.96,0h26.95v-3.452h-22.98V717.241h21.1v-3.394h-21.1V697.7h22.51v-3.452h-26.48v43.3Zm36.01,0h3.68V700.506h0.29l3.33,4.974,23.33,32.065h3.62v-43.3h-3.68v37.1h-0.29l-3.51-5.15-23.21-31.948h-3.56v43.3Zm55.47,0h3.97V697.7h14.33v-3.452h-32.56V697.7h14.26v39.848Zm31.8,0h3.91l5.03-13.517h19.88l5.08,13.517h3.92v-0.351l-15.9-42.949h-6.02l-15.9,42.949v0.351Zm10.11-17.027,5.96-15.916,2.63-7.314h0.35l2.69,7.314,5.97,15.916h-17.6Zm56.41,17.086a44.688,44.688,0,0,0,5.9-1.288V715.544h-3.8v18.2c-1.24.234-2.59,0.429-4.03,0.585a34.672,34.672,0,0,1-3.62.234q-15.495,0-15.49-18.607,0-9.537,3.97-14.131t12.28-4.594q1.17,0,2.28.059t2.34,0.234c0.81,0.117,1.68.263,2.6,0.439s1.95,0.4,3.12.673v-3.511a54.246,54.246,0,0,0-5.46-1.083,36.341,36.341,0,0,0-5.12-.38q-20.1,0-20.11,22.352,0,21.942,19.59,22.06A37.791,37.791,0,0,0,4884.69,737.6Zm15.78-.059h26.95v-3.452h-22.97V717.241h21.1v-3.394h-21.1V697.7h22.5v-3.452h-26.48v43.3Zm36.01,0h3.68V700.506h0.3l3.33,4.974,23.32,32.065h3.63v-43.3h-3.69v37.1h-0.29l-3.51-5.15-23.2-31.948h-3.57v43.3Zm64.8,0.439c0.84-.059,1.68-0.146,2.54-0.263s1.7-.254,2.51-0.41,1.56-.331,2.23-0.527v-3.393c-0.59.156-1.31,0.3-2.17,0.438s-1.73.264-2.63,0.381-1.76.2-2.6,0.263-1.57.088-2.19,0.088q-14.97,0-14.97-18.607,0-9.6,3.8-14.161c2.54-3.042,6.41-4.564,11.64-4.564a37.586,37.586,0,0,1,4.15.264c1.55,0.175,3.21.419,4.97,0.731v-3.511c-1.6-.312-3.26-0.565-4.97-0.761a40.856,40.856,0,0,0-4.5-.292q-19.185,0-19.18,22.352,0,21.942,19.06,22.06Q5000.02,738.072,5001.28,737.984Zm15.63-.439h3.98v-43.3h-3.98v43.3Zm15.44,0h26.94v-3.452h-22.97V717.241h21.1v-3.394h-21.1V697.7h22.51v-3.452h-26.48v43.3Zm57.4-2.37q3.855-3.012,3.86-8.631a11.162,11.162,0,0,0-1-5,10.19,10.19,0,0,0-2.71-3.423,15.392,15.392,0,0,0-4.1-2.341c-1.57-.624-3.28-1.209-5.11-1.755a35.322,35.322,0,0,1-4.88-1.7,11.974,11.974,0,0,1-3.16-1.96,6.442,6.442,0,0,1-1.72-2.4,8.078,8.078,0,0,1-.53-3.013,7.172,7.172,0,0,1,2.84-5.968,12.021,12.021,0,0,1,7.62-2.224,37.656,37.656,0,0,1,5.06.38,49.591,49.591,0,0,1,5.52,1.083l0.12-3.511a50.776,50.776,0,0,0-10.93-1.4,19.788,19.788,0,0,0-5.9.819,12.936,12.936,0,0,0-4.5,2.37,10.7,10.7,0,0,0-2.9,3.715,11.121,11.121,0,0,0-1.02,4.8,12.252,12.252,0,0,0,.7,4.33,9.016,9.016,0,0,0,2.22,3.335,14.67,14.67,0,0,0,3.92,2.6,39.333,39.333,0,0,0,5.78,2.135c1.49,0.43,2.87.888,4.16,1.375a15.044,15.044,0,0,1,3.36,1.756,7.073,7.073,0,0,1,3.07,6.173,6.921,6.921,0,0,1-2.84,5.939q-2.835,2.077-8.15,2.077a44.656,44.656,0,0,1-6.2-.5,62.445,62.445,0,0,1-6.72-1.317l-0.12,3.453a61.939,61.939,0,0,0,6.78,1.316,46.756,46.756,0,0,0,6.37.5Q5085.885,738.189,5089.75,735.175Zm20.34,2.37h3.92l5.02-13.517h19.88l5.08,13.517h3.92v-0.351l-15.9-42.949h-6.02l-15.9,42.949v0.351Zm10.11-17.027,5.97-15.916,2.63-7.314h0.35l2.69,7.314,5.96,15.916h-17.6Zm34.26,17.027h3.68V700.506h0.29l3.34,4.974,23.32,32.065h3.62v-43.3h-3.68v37.1h-0.29l-3.51-5.15-23.21-31.948h-3.56v43.3Zm73.56-4.74q5.475-5.382,5.47-16.91,0-11.467-5.26-16.823t-16.54-5.354c-0.71,0-1.54.021-2.52,0.059s-1.98.088-3.01,0.146-2.07.127-3.13,0.205-2,.156-2.86.234v42.949a19.754,19.754,0,0,0,4.33.673c1.9,0.136,3.97.2,6.19,0.2Q5222.555,738.189,5228.02,732.805Zm-18.23,1.9c-0.61-.019-1.2-0.048-1.79-0.088s-1.19-.1-1.81-0.175-1.31-.176-2.05-0.293V697.7c1.17-.155,2.5-0.272,3.98-0.351s2.77-.117,3.86-0.117q9.06,0,13.27,4.477t4.21,14.189q0,9.773-4.3,14.307t-13.47,4.534C5211.02,734.736,5210.39,734.727,5209.79,734.707Zm-809.92,71.808h3.97v-43.3h-3.97v43.3Zm15.43,0h3.68V769.476h0.29l3.34,4.974,23.32,32.065h3.62v-43.3h-3.68v37.1h-0.29l-3.51-5.15-23.2-31.948h-3.57v43.3Zm67.11-2.37q3.855-3.012,3.85-8.631a11.3,11.3,0,0,0-.99-5,10.1,10.1,0,0,0-2.72-3.423,15.328,15.328,0,0,0-4.09-2.341q-2.37-.936-5.11-1.755a35.985,35.985,0,0,1-4.89-1.7,12.07,12.07,0,0,1-3.15-1.96,6.473,6.473,0,0,1-1.73-2.4,8.081,8.081,0,0,1-.52-3.013,7.19,7.19,0,0,1,2.83-5.968,12.032,12.032,0,0,1,7.63-2.224,37.656,37.656,0,0,1,5.06.38,49.591,49.591,0,0,1,5.52,1.083l0.12-3.511a50.851,50.851,0,0,0-10.93-1.4,19.856,19.856,0,0,0-5.91.819,13.116,13.116,0,0,0-4.5,2.37,10.674,10.674,0,0,0-2.89,3.715,11.121,11.121,0,0,0-1.02,4.8,12.252,12.252,0,0,0,.7,4.33,8.779,8.779,0,0,0,2.22,3.335,14.769,14.769,0,0,0,3.91,2.6,39.494,39.494,0,0,0,5.79,2.135c1.48,0.43,2.87.888,4.15,1.375a14.619,14.619,0,0,1,3.36,1.756,7.385,7.385,0,0,1,2.25,2.516,7.467,7.467,0,0,1,.82,3.657,6.914,6.914,0,0,1-2.83,5.939q-2.835,2.077-8.16,2.077a44.524,44.524,0,0,1-6.19-.5,63.12,63.12,0,0,1-6.73-1.317l-0.11,3.453a61.939,61.939,0,0,0,6.78,1.316,46.638,46.638,0,0,0,6.37.5Q4478.545,807.159,4482.41,804.145Zm22.03,2.37h3.98V766.667h14.32v-3.452h-32.56v3.452h14.26v39.848Zm25.26,0h3.97v-43.3h-3.97v43.3Zm25.19,0h3.97V766.667h14.33v-3.452h-32.56v3.452h14.26v39.848Zm49.1-.439a12.186,12.186,0,0,0,5.23-3.218,13.131,13.131,0,0,0,3.04-5.588,29.98,29.98,0,0,0,.97-8.192V763.215h-3.98V788.9a25.2,25.2,0,0,1-.79,6.788,11.006,11.006,0,0,1-2.39,4.564,9.3,9.3,0,0,1-4.01,2.545,20.314,20.314,0,0,1-11.22,0,9.3,9.3,0,0,1-4.01-2.545,11.006,11.006,0,0,1-2.39-4.564,25.2,25.2,0,0,1-.79-6.788V763.215h-3.92v25.863a29.98,29.98,0,0,0,.97,8.192,13.307,13.307,0,0,0,3.01,5.588,12.021,12.021,0,0,0,5.2,3.218A28.272,28.272,0,0,0,4603.99,806.076Zm29.99,0.439h3.97V766.667h14.33v-3.452h-32.56v3.452h14.26v39.848Zm25.25,0h3.98v-43.3h-3.98v43.3Zm45.04-5.032q4.77-5.617,4.76-16.559,0-11-4.76-16.648t-13.53-5.646q-8.895,0-13.62,5.646t-4.74,16.648q0,11,4.74,16.588t13.62,5.588Q4699.5,807.1,4704.27,801.483Zm-24.23-2.516q-3.63-4.682-3.62-14.043,0-9.421,3.62-14.131t10.7-4.711q7.065,0,10.67,4.711,3.585,4.71,3.59,14.131,0,9.3-3.59,14.014t-10.67,4.71Q4683.66,803.648,4680.04,798.967Zm38.17,7.548h3.68V769.476h0.3l3.33,4.974,23.32,32.065h3.63v-43.3h-3.69v37.1h-0.29l-3.51-5.15-23.2-31.948h-3.57v43.3Zm67.11-2.37q3.855-3.012,3.86-8.631a11.3,11.3,0,0,0-1-5,10.1,10.1,0,0,0-2.72-3.423,15.328,15.328,0,0,0-4.09-2.341q-2.37-.936-5.11-1.755a35.322,35.322,0,0,1-4.88-1.7,11.974,11.974,0,0,1-3.16-1.96,6.587,6.587,0,0,1-1.73-2.4,8.081,8.081,0,0,1-.52-3.013,7.19,7.19,0,0,1,2.83-5.968,12.051,12.051,0,0,1,7.63-2.224,37.656,37.656,0,0,1,5.06.38,49.591,49.591,0,0,1,5.52,1.083l0.12-3.511a50.776,50.776,0,0,0-10.93-1.4,19.9,19.9,0,0,0-5.91.819,13.116,13.116,0,0,0-4.5,2.37,10.793,10.793,0,0,0-2.89,3.715,11.121,11.121,0,0,0-1.02,4.8,12.252,12.252,0,0,0,.7,4.33,9.016,9.016,0,0,0,2.22,3.335,14.67,14.67,0,0,0,3.92,2.6,38.907,38.907,0,0,0,5.78,2.135c1.48,0.43,2.87.888,4.15,1.375a14.619,14.619,0,0,1,3.36,1.756,7.013,7.013,0,0,1,3.07,6.173,6.914,6.914,0,0,1-2.83,5.939q-2.835,2.077-8.16,2.077a44.64,44.64,0,0,1-6.19-.5,62.445,62.445,0,0,1-6.72-1.317l-0.12,3.453a61.939,61.939,0,0,0,6.78,1.316,46.756,46.756,0,0,0,6.37.5Q4781.455,807.159,4785.32,804.145Zm20.34,2.37h3.92L4814.6,793h19.88l5.08,13.517h3.92v-0.351l-15.9-42.949h-6.02l-15.9,42.949v0.351Zm10.11-17.027,5.96-15.916,2.63-7.314h0.36l2.68,7.314,5.97,15.916h-17.6Zm60.39,17.027h4.44l-10.93-17.32a12.66,12.66,0,0,0,7.3-4.418,13.7,13.7,0,0,0,2.34-8.4q0-7.2-4.53-10.474t-14.47-3.277a62.96,62.96,0,0,0-10.28.878v43.007H4854V789.78q1.815,0.176,3.51.293c1.13,0.078,2.16.117,3.1,0.117,0.97,0,1.9-.019,2.77-0.059s1.73-.117,2.55-0.234Zm-19.21-19.865a18.851,18.851,0,0,1-2.95-.381V766.55c0.97-.155,2.09-0.282,3.33-0.38s2.42-.146,3.51-0.146q7.665,0,11.05,2.457t3.39,7.9a12.939,12.939,0,0,1-.79,4.8,7.158,7.158,0,0,1-2.48,3.218,11.732,11.732,0,0,1-4.39,1.814,31.279,31.279,0,0,1-6.55.585C4859.67,786.8,4858.3,786.748,4856.95,786.65Zm61.32,14.833q4.77-5.617,4.77-16.559,0-11-4.77-16.648t-13.53-5.646q-8.88,0-13.62,5.646t-4.74,16.648q0,11,4.74,16.588t13.62,5.588Q4913.515,807.1,4918.27,801.483Zm-24.23-2.516q-3.615-4.682-3.62-14.043,0-9.421,3.62-14.131t10.7-4.711q7.065,0,10.67,4.711,3.585,4.71,3.59,14.131,0,9.3-3.59,14.014t-10.67,4.71Q4897.66,803.648,4894.04,798.967Zm62.02,7.109a12.186,12.186,0,0,0,5.23-3.218,13.131,13.131,0,0,0,3.04-5.588,29.98,29.98,0,0,0,.97-8.192V763.215h-3.98V788.9a25.2,25.2,0,0,1-.79,6.788,11.006,11.006,0,0,1-2.39,4.564,9.237,9.237,0,0,1-4.01,2.545,20.314,20.314,0,0,1-11.22,0,9.2,9.2,0,0,1-4-2.545,11.018,11.018,0,0,1-2.4-4.564,25.2,25.2,0,0,1-.79-6.788V763.215h-3.92v25.863a30.375,30.375,0,0,0,.97,8.192,13.307,13.307,0,0,0,3.01,5.588,12.021,12.021,0,0,0,5.2,3.218A28.272,28.272,0,0,0,4956.06,806.076Zm20.23,0.439h3.68V769.476h0.29l3.33,4.974,23.33,32.065h3.62v-43.3h-3.68v37.1h-0.29l-3.51-5.15-23.21-31.948h-3.56v43.3Zm73.56-4.74q5.475-5.382,5.47-16.91,0-11.467-5.26-16.823t-16.54-5.354c-0.71,0-1.54.021-2.52,0.059s-1.98.088-3.01,0.146-2.07.127-3.13,0.2-2,.156-2.86.234v42.949a19.754,19.754,0,0,0,4.33.673c1.9,0.136,3.97.205,6.19,0.205Q5044.385,807.159,5049.85,801.775Zm-18.23,1.9c-0.61-.019-1.2-0.048-1.79-0.088s-1.19-.1-1.81-0.175-1.31-.176-2.05-0.293V766.667c1.17-.155,2.5-0.272,3.98-0.351s2.77-.117,3.86-0.117q9.06,0,13.27,4.477t4.21,14.189q0,9.773-4.3,14.307t-13.47,4.534C5032.85,803.706,5032.22,803.7,5031.62,803.677Zm55.73,2.838h3.98V766.667h14.32v-3.452h-32.56v3.452h14.26v39.848Zm25.25,0h3.98v-20.48h25.31v20.48h3.92v-43.3h-3.92v19.427h-25.31V763.215h-3.98v43.3Zm44.66,0h26.95v-3.452h-22.97V786.211h21.1v-3.394h-21.1v-16.15h22.5v-3.452h-26.48v43.3Zm56.94,0h5.38l8.65-30.368,1.75-7.315h0.29l1.76,7.256,8.53,30.427h5.32l12.22-43.3h-4.15l-8.42,30.486-2.16,8.426h-0.35l-2.28-8.426-8.48-30.486h-4.21l-8.71,30.486-2.22,8.426h-0.35l-2.16-8.426-8.24-30.486h-4.15Zm80.23-5.032q4.77-5.617,4.76-16.559,0-11-4.76-16.648t-13.53-5.646q-8.895,0-13.62,5.646t-4.74,16.648q0,11,4.74,16.588t13.62,5.588Q5289.66,807.1,5294.43,801.483Zm-24.23-2.516q-3.63-4.682-3.62-14.043,0-9.421,3.62-14.131t10.7-4.711q7.065,0,10.67,4.711,3.585,4.71,3.59,14.131,0,9.3-3.59,14.014t-10.67,4.71Q5273.82,803.648,5270.2,798.967Zm64.3,7.548h4.44l-10.93-17.32a12.721,12.721,0,0,0,7.31-4.418,13.7,13.7,0,0,0,2.34-8.4q0-7.2-4.53-10.474t-14.47-3.277a63.172,63.172,0,0,0-10.29.878v43.007h3.98V789.78c1.2,0.117,2.37.215,3.5,0.293s2.17,0.117,3.1.117c0.97,0,1.9-.019,2.78-0.059s1.72-.117,2.54-0.234Zm-19.2-19.865a18.677,18.677,0,0,1-2.95-.381V766.55q1.455-.232,3.33-0.38c1.24-.1,2.41-0.146,3.5-0.146q7.665,0,11.05,2.457t3.39,7.9a12.939,12.939,0,0,1-.79,4.8,7.09,7.09,0,0,1-2.48,3.218,11.611,11.611,0,0,1-4.38,1.814,31.413,31.413,0,0,1-6.55.585C5318.02,786.8,5316.64,786.748,5315.3,786.65Zm31.71,19.865h24.02v-3.394h-20.05V763.215h-3.97v43.3Zm58.72-4.74q5.46-5.382,5.46-16.91,0-11.467-5.26-16.823t-16.54-5.354q-1.05,0-2.52.059c-0.97.039-1.97,0.088-3.01,0.146s-2.07.127-3.12,0.2-2.01.156-2.87,0.234v42.949a19.86,19.86,0,0,0,4.33.673q2.865,0.2,6.19.205Q5400.255,807.159,5405.73,801.775Zm-18.24,1.9c-0.61-.019-1.2-0.048-1.78-0.088s-1.19-.1-1.82-0.175-1.3-.176-2.04-0.293V766.667c1.17-.155,2.49-0.272,3.97-0.351s2.77-.117,3.86-0.117q9.06,0,13.27,4.477t4.21,14.189q0,9.773-4.3,14.307t-13.47,4.534C5388.72,803.706,5388.09,803.7,5387.49,803.677Z"/>
  <path id="The_East_Asia_Library_houses_" data-name="The East Asia Library houses " class="cls-2" d="M2356.56,350.345h3.97V310.5h14.32v-3.452h-32.56V310.5h14.27v39.846Zm25.25,0h3.97V329.866h25.31v20.479h3.92v-43.3h-3.92v19.425h-25.31V307.047h-3.97v43.3Zm44.65,0h26.95v-3.453h-22.97v-16.85h21.1v-3.394h-21.1V310.5h22.5v-3.452h-26.48v43.3Zm50.62,0h26.95v-3.453h-22.97v-16.85h21.1v-3.394h-21.1V310.5h22.5v-3.452h-26.48v43.3Zm31.1,0h3.91l5.03-13.516h19.87l5.09,13.516H2546v-0.352l-15.9-42.946h-6.02l-15.9,42.946v0.352Zm10.11-17.027,5.96-15.915,2.63-7.313h0.35l2.69,7.313,5.96,15.915h-17.59Zm55.65,14.657q3.855-3.014,3.85-8.63a11.309,11.309,0,0,0-.99-5,10.1,10.1,0,0,0-2.72-3.423,15.353,15.353,0,0,0-4.09-2.34q-2.37-.936-5.11-1.755a35.985,35.985,0,0,1-4.89-1.7,12.07,12.07,0,0,1-3.15-1.96,6.478,6.478,0,0,1-1.73-2.4,8.09,8.09,0,0,1-.52-3.014,7.192,7.192,0,0,1,2.83-5.968,12.057,12.057,0,0,1,7.63-2.223,37.656,37.656,0,0,1,5.06.38,49.591,49.591,0,0,1,5.52,1.083l0.12-3.511a50.851,50.851,0,0,0-10.93-1.4,19.856,19.856,0,0,0-5.91.819,13.116,13.116,0,0,0-4.5,2.37,10.793,10.793,0,0,0-2.89,3.715,11.12,11.12,0,0,0-1.02,4.8,12.252,12.252,0,0,0,.7,4.33,9.008,9.008,0,0,0,2.22,3.335,14.645,14.645,0,0,0,3.92,2.6,38.9,38.9,0,0,0,5.78,2.136c1.48,0.43,2.87.888,4.15,1.375a14.579,14.579,0,0,1,3.36,1.755,7.394,7.394,0,0,1,2.25,2.516,7.47,7.47,0,0,1,.82,3.657,6.914,6.914,0,0,1-2.83,5.939q-2.835,2.077-8.16,2.077a44.524,44.524,0,0,1-6.19-.5,63.12,63.12,0,0,1-6.73-1.317l-0.11,3.452a61.7,61.7,0,0,0,6.78,1.317,46.624,46.624,0,0,0,6.37.5Q2570.075,350.988,2573.94,347.975Zm22.03,2.37h3.98V310.5h14.32v-3.452h-32.56V310.5h14.26v39.846Zm31.8,0h3.92l5.02-13.516h19.88l5.08,13.516h3.92v-0.352l-15.9-42.946h-6.02l-15.9,42.946v0.352Zm10.11-17.027,5.96-15.915,2.63-7.313h0.35l2.69,7.313,5.97,15.915h-17.6Zm55.65,14.657q3.855-3.014,3.86-8.63a11.3,11.3,0,0,0-1-5,10.1,10.1,0,0,0-2.72-3.423,15.353,15.353,0,0,0-4.09-2.34q-2.37-.936-5.11-1.755a35.322,35.322,0,0,1-4.88-1.7,11.974,11.974,0,0,1-3.16-1.96,6.447,6.447,0,0,1-1.72-2.4,8.087,8.087,0,0,1-.53-3.014,7.192,7.192,0,0,1,2.83-5.968,12.057,12.057,0,0,1,7.63-2.223,37.656,37.656,0,0,1,5.06.38,49.591,49.591,0,0,1,5.52,1.083l0.12-3.511a50.776,50.776,0,0,0-10.93-1.4,19.788,19.788,0,0,0-5.9.819,13.074,13.074,0,0,0-4.51,2.37,10.793,10.793,0,0,0-2.89,3.715,11.12,11.12,0,0,0-1.02,4.8,12.252,12.252,0,0,0,.7,4.33,9.008,9.008,0,0,0,2.22,3.335,14.645,14.645,0,0,0,3.92,2.6,38.9,38.9,0,0,0,5.78,2.136c1.48,0.43,2.87.888,4.15,1.375a14.579,14.579,0,0,1,3.36,1.755,7.013,7.013,0,0,1,3.07,6.173,6.914,6.914,0,0,1-2.83,5.939q-2.835,2.077-8.16,2.077a44.64,44.64,0,0,1-6.19-.5,62.445,62.445,0,0,1-6.72-1.317l-0.12,3.452a61.7,61.7,0,0,0,6.78,1.317,46.742,46.742,0,0,0,6.37.5Q2689.665,350.988,2693.53,347.975Zm12.27,2.37h3.98v-43.3h-3.98v43.3Zm10.52,0h3.92l5.03-13.516h19.87l5.09,13.516h3.91v-0.352l-15.9-42.946h-6.02l-15.9,42.946v0.352Zm10.12-17.027,5.96-15.915,2.63-7.313h0.35l2.69,7.313,5.96,15.915h-17.59Zm47.22,17.027h24.03v-3.394h-20.05v-39.9h-3.98v43.3Zm30.87,0h3.97v-43.3h-3.97v43.3Zm45.12-11.293a9.92,9.92,0,0,0-8.88-10.649v-0.234a8.406,8.406,0,0,0,5.49-3.364,11.082,11.082,0,0,0,1.99-6.7q0-6.144-3.68-8.865t-11.99-2.72q-2.685,0-5.58.2t-7.04.615v42.712c2.34,0.312,4.62.536,6.87,0.673s4.35,0.2,6.34.2q16.485,0,16.48-11.878h0Zm-21.98,8.513a29.694,29.694,0,0,1-3.86-.438V329.983h10.18q6.015,0,8.85,2.165t2.84,6.67c0,3.043-1.03,5.286-3.07,6.729s-5.22,2.165-9.5,2.165C2831.08,347.712,2829.27,347.663,2827.67,347.565Zm-3.86-20.741V310.265a35.479,35.479,0,0,1,4.01-.38c1.42-.059,3.07-0.088,4.94-0.088a25.753,25.753,0,0,1,5.29.468,9.319,9.319,0,0,1,3.56,1.463,5.775,5.775,0,0,1,2.02,2.633,10.7,10.7,0,0,1,.64,3.92q0,4.623-2.42,6.582t-8.1,1.961h-9.94Zm60.97,23.521h4.44l-10.93-17.319a12.726,12.726,0,0,0,7.31-4.418,13.7,13.7,0,0,0,2.34-8.4q0-7.2-4.53-10.473t-14.47-3.277a63.283,63.283,0,0,0-10.29.878v43.005h3.98V333.611c1.2,0.117,2.37.215,3.5,0.292s2.17,0.117,3.1.117c0.98,0,1.9-.019,2.78-0.058s1.72-.117,2.54-0.234Zm-19.2-19.865a18.825,18.825,0,0,1-2.95-.38V310.382q1.455-.233,3.33-0.38,1.86-.146,3.51-0.146,7.65,0,11.04,2.457t3.39,7.9a12.939,12.939,0,0,1-.79,4.8,7.09,7.09,0,0,1-2.48,3.218,11.611,11.611,0,0,1-4.38,1.814,31.413,31.413,0,0,1-6.55.585C2868.3,330.627,2866.92,330.578,2865.58,330.48Zm26.8,19.865h3.91l5.03-13.516h19.87l5.09,13.516h3.92v-0.352l-15.9-42.946h-6.02l-15.9,42.946v0.352Zm10.11-17.027,5.96-15.915,2.63-7.313h0.35l2.69,7.313,5.96,15.915h-17.59Zm60.38,17.027h4.44l-10.93-17.319a12.726,12.726,0,0,0,7.31-4.418,13.7,13.7,0,0,0,2.34-8.4q0-7.2-4.53-10.473t-14.47-3.277a63.283,63.283,0,0,0-10.29.878v43.005h3.98V333.611c1.2,0.117,2.37.215,3.5,0.292s2.17,0.117,3.1.117c0.98,0,1.9-.019,2.78-0.058s1.72-.117,2.54-0.234Zm-19.2-19.865a18.825,18.825,0,0,1-2.95-.38V310.382q1.455-.233,3.33-0.38c1.25-.1,2.41-0.146,3.51-0.146q7.65,0,11.04,2.457t3.39,7.9a12.939,12.939,0,0,1-.79,4.8,7.09,7.09,0,0,1-2.48,3.218,11.611,11.611,0,0,1-4.38,1.814,31.413,31.413,0,0,1-6.55.585C2946.39,330.627,2945.01,330.578,2943.67,330.48Zm41.3,19.865h3.97V335.6l15.55-28.553h-4.27l-11.4,21.064-1.69,3.686h-0.41l-1.75-3.686-11.34-21.064h-4.33l15.67,28.67v14.628Zm38.63,0h3.98V329.866h25.31v20.479h3.91v-43.3h-3.91v19.425h-25.31V307.047h-3.98v43.3Zm74.26-5.032q4.77-5.618,4.77-16.559,0-11-4.77-16.646t-13.53-5.646q-8.88,0-13.62,5.646t-4.73,16.646q0,11,4.73,16.588t13.62,5.588Q3093.1,350.93,3097.86,345.313Zm-24.22-2.516q-3.63-4.68-3.63-14.043,0-9.418,3.63-14.13t10.69-4.71q7.08,0,10.67,4.71t3.59,14.13q0,9.3-3.59,14.014t-10.67,4.71Q3077.265,347.478,3073.64,342.8Zm62.01,7.109a12.2,12.2,0,0,0,5.23-3.218,13.131,13.131,0,0,0,3.04-5.588,29.977,29.977,0,0,0,.97-8.191V307.047h-3.98v25.686a25.2,25.2,0,0,1-.79,6.787,11,11,0,0,1-2.39,4.564,9.237,9.237,0,0,1-4.01,2.545,20.314,20.314,0,0,1-11.22,0,9.2,9.2,0,0,1-4-2.545,11.011,11.011,0,0,1-2.4-4.564,25.2,25.2,0,0,1-.79-6.787V307.047h-3.92v25.862a30.372,30.372,0,0,0,.97,8.191,13.419,13.419,0,0,0,3.01,5.588,12.031,12.031,0,0,0,5.2,3.218A28.272,28.272,0,0,0,3135.65,349.906Zm41.62-1.931q3.855-3.014,3.86-8.63a11.167,11.167,0,0,0-1-5,10.19,10.19,0,0,0-2.71-3.423,15.417,15.417,0,0,0-4.1-2.34c-1.57-.624-3.28-1.209-5.11-1.755a35.322,35.322,0,0,1-4.88-1.7,11.974,11.974,0,0,1-3.16-1.96,6.447,6.447,0,0,1-1.72-2.4,8.087,8.087,0,0,1-.53-3.014,7.2,7.2,0,0,1,2.84-5.968,12.027,12.027,0,0,1,7.62-2.223,37.656,37.656,0,0,1,5.06.38,49.591,49.591,0,0,1,5.52,1.083l0.12-3.511a50.776,50.776,0,0,0-10.93-1.4,19.788,19.788,0,0,0-5.9.819,12.936,12.936,0,0,0-4.5,2.37,10.7,10.7,0,0,0-2.9,3.715,11.12,11.12,0,0,0-1.02,4.8,12.252,12.252,0,0,0,.7,4.33,9.008,9.008,0,0,0,2.22,3.335,14.807,14.807,0,0,0,3.92,2.6,39.487,39.487,0,0,0,5.79,2.136c1.48,0.43,2.86.888,4.15,1.375a15,15,0,0,1,3.36,1.755,7.073,7.073,0,0,1,3.07,6.173,6.921,6.921,0,0,1-2.84,5.939q-2.835,2.077-8.15,2.077a44.656,44.656,0,0,1-6.2-.5,62.445,62.445,0,0,1-6.72-1.317l-0.12,3.452a62.162,62.162,0,0,0,6.78,1.317,46.742,46.742,0,0,0,6.37.5Q3173.42,350.988,3177.27,347.975Zm12.27,2.37h26.95v-3.453h-22.97v-16.85h21.1v-3.394h-21.1V310.5h22.5v-3.452h-26.48v43.3Zm57.4-2.37q3.87-3.014,3.86-8.63a11.309,11.309,0,0,0-.99-5,10.218,10.218,0,0,0-2.72-3.423,15.353,15.353,0,0,0-4.09-2.34q-2.37-.936-5.12-1.755a35.8,35.8,0,0,1-4.88-1.7,11.9,11.9,0,0,1-3.15-1.96,6.478,6.478,0,0,1-1.73-2.4,8.09,8.09,0,0,1-.52-3.014,7.192,7.192,0,0,1,2.83-5.968,12.037,12.037,0,0,1,7.63-2.223,37.517,37.517,0,0,1,5.05.38,49.318,49.318,0,0,1,5.53,1.083l0.12-3.511a50.851,50.851,0,0,0-10.93-1.4,19.809,19.809,0,0,0-5.91.819,13.116,13.116,0,0,0-4.5,2.37,10.674,10.674,0,0,0-2.89,3.715,10.981,10.981,0,0,0-1.03,4.8,12.245,12.245,0,0,0,.71,4.33,8.771,8.771,0,0,0,2.22,3.335,14.581,14.581,0,0,0,3.91,2.6,39.487,39.487,0,0,0,5.79,2.136c1.48,0.43,2.86.888,4.15,1.375a14.579,14.579,0,0,1,3.36,1.755,7.394,7.394,0,0,1,2.25,2.516,7.47,7.47,0,0,1,.82,3.657,6.921,6.921,0,0,1-2.84,5.939c-1.89,1.385-4.6,2.077-8.15,2.077a44.773,44.773,0,0,1-6.2-.5,63.422,63.422,0,0,1-6.72-1.317l-0.11,3.452a61.7,61.7,0,0,0,6.78,1.317,46.624,46.624,0,0,0,6.37.5Q3243.085,350.988,3246.94,347.975Z"/>
  <path id="volumes_" data-name="volumes " class="cls-2" d="M3325.05,692.182h5.38l16.19-43.3h-4.15l-11.57,31.069-2.99,8.25h-0.35l-2.92-8.25-11.57-31.069h-4.15Zm56.84-5.032q4.77-5.617,4.77-16.558,0-11-4.77-16.646t-13.53-5.647q-8.88,0-13.62,5.647-4.725,5.646-4.73,16.646t4.73,16.587q4.74,5.589,13.62,5.588Q3377.135,692.767,3381.89,687.15Zm-24.22-2.516q-3.63-4.68-3.63-14.042,0-9.42,3.63-14.131,3.615-4.708,10.69-4.71t10.67,4.71q3.6,4.711,3.6,14.131,0,9.3-3.6,14.013t-10.67,4.71Q3361.3,689.315,3357.67,684.634Zm38.16,7.548h24.03v-3.394h-20.05v-39.9h-3.98v43.3Zm52.67-.439a12.245,12.245,0,0,0,5.23-3.218,13.239,13.239,0,0,0,3.04-5.588,30.367,30.367,0,0,0,.97-8.191V648.884h-3.98V674.57a25.2,25.2,0,0,1-.79,6.787,10.9,10.9,0,0,1-2.4,4.564,9.2,9.2,0,0,1-4,2.545,20.314,20.314,0,0,1-11.22,0,9.3,9.3,0,0,1-4.01-2.545,11,11,0,0,1-2.39-4.564,25.2,25.2,0,0,1-.79-6.787V648.884h-3.92v25.862a29.972,29.972,0,0,0,.97,8.191,13.307,13.307,0,0,0,3.01,5.588,11.963,11.963,0,0,0,5.2,3.218A28.272,28.272,0,0,0,3448.5,691.743Zm20.22,0.439h3.69V654.326h0.29l5.08,12.287,10.29,23.872h3.8l10.29-23.872,5.03-12.287h0.35v37.856h3.68v-43.3h-5.44l-11.86,27.851-3.8,9.42h-0.35l-3.74-9.42-11.87-27.851h-5.44v43.3Zm53.95,0h26.95V688.73h-22.97V671.879h21.1v-3.394h-21.1V652.337h22.5v-3.453h-26.48v43.3Zm57.4-2.37q3.87-3.012,3.86-8.63a11.312,11.312,0,0,0-.99-5,10.238,10.238,0,0,0-2.72-3.423,15.381,15.381,0,0,0-4.09-2.34q-2.37-.935-5.12-1.755a35.8,35.8,0,0,1-4.88-1.7,11.9,11.9,0,0,1-3.15-1.96,6.462,6.462,0,0,1-1.73-2.4,8.085,8.085,0,0,1-.52-3.013,7.19,7.19,0,0,1,2.83-5.968,12.032,12.032,0,0,1,7.63-2.224,37.622,37.622,0,0,1,5.06.381,49.359,49.359,0,0,1,5.52,1.082l0.12-3.511a50.851,50.851,0,0,0-10.93-1.4,19.889,19.889,0,0,0-5.91.819,13.116,13.116,0,0,0-4.5,2.37,10.674,10.674,0,0,0-2.89,3.715,11.125,11.125,0,0,0-1.03,4.8,12.241,12.241,0,0,0,.71,4.33,8.764,8.764,0,0,0,2.22,3.335,14.583,14.583,0,0,0,3.91,2.6,39.494,39.494,0,0,0,5.79,2.135c1.48,0.43,2.86.888,4.15,1.375a14.619,14.619,0,0,1,3.36,1.756,7.385,7.385,0,0,1,2.25,2.516,7.463,7.463,0,0,1,.82,3.656A6.921,6.921,0,0,1,3577,687.3c-1.89,1.385-4.6,2.077-8.15,2.077a44.773,44.773,0,0,1-6.2-.5,63.676,63.676,0,0,1-6.72-1.316l-0.11,3.452a61.939,61.939,0,0,0,6.78,1.316,46.624,46.624,0,0,0,6.37.5Q3576.215,692.825,3580.07,689.812Z"/>
  <rect class="cls-4" x="-11" y="984" width="1998" height="36"/>
  <rect id="Rectangle_10_copy" data-name="Rectangle 10 copy" class="cls-5" x="1987" y="984" width="1998" height="36"/>
  <rect id="Rectangle_10_copy_2" data-name="Rectangle 10 copy 2" class="cls-6" x="3985" y="984" width="1998" height="36"/>
</svg>
