<svg xmlns="http://www.w3.org/2000/svg" width="1159" height="579" viewBox="0 0 1159 579">
  <metadata><?xpacket begin="﻿" id="W5M0MpCehiHzreSzNTczkc9d"?>
<x:xmpmeta xmlns:x="adobe:ns:meta/" x:xmptk="Adobe XMP Core 5.6-c142 79.160924, 2017/07/13-01:06:39        ">
   <rdf:RDF xmlns:rdf="http://www.w3.org/1999/02/22-rdf-syntax-ns#">
      <rdf:Description rdf:about=""/>
   </rdf:RDF>
</x:xmpmeta>
                                                                                                    
                                                                                                    
                                                                                                    
                                                                                                    
                                                                                                    
                                                                                                    
                                                                                                    
                                                                                                    
                                                                                                    
                                                                                                    
                                                                                                    
                                                                                                    
                                                                                                    
                                                                                                    
                                                                                                    
                                                                                                    
                                                                                                    
                                                                                                    
                                                                                                    
                                                                                                    
                           
<?xpacket end="w"?></metadata>
<defs>
    <style>
      .cls-1, .cls-4 {
        fill: #84754d;
      }

      .cls-1, .cls-2, .cls-3 {
        fill-rule: evenodd;
      }

      .cls-2, .cls-5 {
        fill: #4b2e83;
      }

      .cls-3, .cls-6 {
        fill: #b7a57a;
      }
    </style>
  </defs>
  <path id="_9_000_000" data-name="9,000,000" class="cls-1" d="M-4183.45,173.515a81.982,81.982,0,0,0-28.36,14.474,63.316,63.316,0,0,0-17.93,23.1,72.471,72.471,0,0,0-6.26,30.616,62.163,62.163,0,0,0,5.28,25.885,54.415,54.415,0,0,0,15.02,19.762,70.231,70.231,0,0,0,23.35,12.524,98.1,98.1,0,0,0,30.59,4.454,88.242,88.242,0,0,0,24.47-3.2,65.112,65.112,0,0,0,19.18-8.768q-3.885,23.38-17.51,33.122t-40.6,9.741a162.8,162.8,0,0,1-17.24-.974q-9.18-.972-21.69-3.2l-7.5,43.42q13.62,2.785,25.72,4.175a203.6,203.6,0,0,0,23.21,1.392q119.565,0,119.57-115.229,0-47.315-23.78-71.81t-67.7-24.493Q-4166.765,168.505-4183.45,173.515Zm17.38,86.422q-6.255-5.982-6.26-19.9,0-14.195,6.4-20.735t20.3-6.541q14.445,0,21.41,10.02,6.945,10.02,8.06,33.121a39.317,39.317,0,0,1-12.93,7.1,48.981,48.981,0,0,1-16.54,2.922Q-4159.82,265.921-4166.07,259.937ZM-3995.21,420.4l27.53-101.313h-61.17l-11.68,98.529Zm211.05-66.661q24.75-26.3,24.75-79.185t-24.75-79.463q-24.75-26.577-69.79-26.581t-69.93,26.581q-24.885,26.583-24.89,79.463t24.89,79.185q24.885,26.3,69.93,26.3T-3784.16,353.734Zm-84.95-25.467a20.809,20.809,0,0,1-10.14-8.906q-3.9-6.4-5.7-17.257a172.183,172.183,0,0,1-1.81-27.555,177.142,177.142,0,0,1,1.81-27.972q1.8-10.992,5.7-17.4a20.829,20.829,0,0,1,10.14-8.906,40.839,40.839,0,0,1,15.16-2.5,38.9,38.9,0,0,1,14.74,2.5,21.04,21.04,0,0,1,10.01,8.906q3.885,6.406,5.83,17.4a165.018,165.018,0,0,1,1.95,27.972,162.912,162.912,0,0,1-1.95,27.694q-1.935,11-5.83,17.257a21.2,21.2,0,0,1-10.01,8.767,38.9,38.9,0,0,1-14.74,2.5A40.839,40.839,0,0,1-3869.11,328.267Zm297.1,25.467q24.75-26.3,24.75-79.185t-24.75-79.463q-24.75-26.577-69.79-26.581t-69.93,26.581q-24.885,26.583-24.88,79.463t24.88,79.185q24.885,26.3,69.93,26.3T-3572.01,353.734Zm-84.94-25.467a20.83,20.83,0,0,1-10.15-8.906q-3.9-6.4-5.7-17.257a172.183,172.183,0,0,1-1.81-27.555,177.142,177.142,0,0,1,1.81-27.972q1.8-10.992,5.7-17.4a20.85,20.85,0,0,1,10.15-8.906,40.784,40.784,0,0,1,15.15-2.5,38.867,38.867,0,0,1,14.74,2.5,21.04,21.04,0,0,1,10.01,8.906q3.885,6.406,5.84,17.4a166.2,166.2,0,0,1,1.94,27.972,164.085,164.085,0,0,1-1.94,27.694q-1.95,11-5.84,17.257a21.2,21.2,0,0,1-10.01,8.767,38.867,38.867,0,0,1-14.74,2.5A40.784,40.784,0,0,1-3656.95,328.267Zm297.1,25.467q24.735-26.3,24.74-79.185t-24.74-79.463q-24.75-26.577-69.79-26.581t-69.94,26.581q-24.885,26.583-24.88,79.463t24.88,79.185q24.885,26.3,69.94,26.3T-3359.85,353.734Zm-84.95-25.467a20.873,20.873,0,0,1-10.15-8.906q-3.9-6.4-5.7-17.257a172.183,172.183,0,0,1-1.81-27.555,177.142,177.142,0,0,1,1.81-27.972q1.815-10.992,5.7-17.4a20.893,20.893,0,0,1,10.15-8.906,40.8,40.8,0,0,1,15.16-2.5,38.849,38.849,0,0,1,14.73,2.5,21,21,0,0,1,10.01,8.906q3.9,6.406,5.84,17.4a165.018,165.018,0,0,1,1.95,27.972,162.912,162.912,0,0,1-1.95,27.694q-1.95,11-5.84,17.257a21.158,21.158,0,0,1-10.01,8.767,38.849,38.849,0,0,1-14.73,2.5A40.8,40.8,0,0,1-3444.8,328.267Zm170.31,92.128,27.53-101.313h-61.18l-11.67,98.529Zm211.04-66.661q24.75-26.3,24.75-79.185t-24.75-79.463q-24.75-26.577-69.79-26.581t-69.93,26.581q-24.885,26.583-24.88,79.463t24.88,79.185q24.885,26.3,69.93,26.3T-3063.45,353.734Zm-84.94-25.467a20.83,20.83,0,0,1-10.15-8.906q-3.9-6.4-5.7-17.257a172.183,172.183,0,0,1-1.81-27.555,177.142,177.142,0,0,1,1.81-27.972q1.8-10.992,5.7-17.4a20.85,20.85,0,0,1,10.15-8.906,40.784,40.784,0,0,1,15.15-2.5,38.867,38.867,0,0,1,14.74,2.5,21,21,0,0,1,10.01,8.906q3.885,6.406,5.84,17.4a166.066,166.066,0,0,1,1.95,27.972,163.953,163.953,0,0,1-1.95,27.694q-1.95,11-5.84,17.257a21.158,21.158,0,0,1-10.01,8.767,38.867,38.867,0,0,1-14.74,2.5A40.784,40.784,0,0,1-3148.39,328.267Zm297.1,25.467q24.735-26.3,24.74-79.185t-24.74-79.463q-24.75-26.577-69.79-26.581t-69.93,26.581q-24.9,26.583-24.89,79.463t24.89,79.185q24.87,26.3,69.93,26.3T-2851.29,353.734Zm-84.95-25.467a20.873,20.873,0,0,1-10.15-8.906q-3.885-6.4-5.7-17.257a173.516,173.516,0,0,1-1.8-27.555,178.514,178.514,0,0,1,1.8-27.972q1.815-10.992,5.7-17.4a20.893,20.893,0,0,1,10.15-8.906,40.8,40.8,0,0,1,15.16-2.5,38.849,38.849,0,0,1,14.73,2.5,20.95,20.95,0,0,1,10.01,8.906q3.9,6.406,5.84,17.4a165.018,165.018,0,0,1,1.95,27.972,162.912,162.912,0,0,1-1.95,27.694q-1.95,11-5.84,17.257a21.112,21.112,0,0,1-10.01,8.767,38.849,38.849,0,0,1-14.73,2.5A40.8,40.8,0,0,1-2936.24,328.267Zm297.1,25.467q24.75-26.3,24.75-79.185t-24.75-79.463q-24.75-26.577-69.79-26.581t-69.93,26.581q-24.885,26.583-24.89,79.463t24.89,79.185q24.885,26.3,69.93,26.3T-2639.14,353.734Zm-84.94-25.467a20.787,20.787,0,0,1-10.15-8.906q-3.9-6.4-5.7-17.257a172.183,172.183,0,0,1-1.81-27.555,177.142,177.142,0,0,1,1.81-27.972q1.8-10.992,5.7-17.4a20.807,20.807,0,0,1,10.15-8.906,40.747,40.747,0,0,1,15.15-2.5,38.9,38.9,0,0,1,14.74,2.5,21.04,21.04,0,0,1,10.01,8.906q3.885,6.406,5.84,17.4a166.2,166.2,0,0,1,1.94,27.972,164.085,164.085,0,0,1-1.94,27.694q-1.95,11-5.84,17.257a21.2,21.2,0,0,1-10.01,8.767,38.9,38.9,0,0,1-14.74,2.5A40.747,40.747,0,0,1-2724.08,328.267Z"/>
  <path id="_" data-name="+" class="cls-1" d="M-2640.33,135.919h47.27V179.06h37.26V135.919h47.27v-37.3h-47.27V55.482h-37.26V98.623h-47.27v37.3Z"/>
  <path id="_copy" data-name="+ copy" class="cls-2" d="M-748.332,135.919h47.269V179.06H-663.8V135.919h47.269v-37.3H-663.8V55.482h-37.259V98.623h-47.269v37.3Z"/>
  <path id="_2" data-name="+" class="cls-3" d="M1023.67,85.919h47.27V129.06h37.26V85.919h47.27v-37.3H1108.2V5.482h-37.26V48.623h-47.27v37.3Z"/>
  <path id="UNIVERSITY_LIBRARIES_PROVIDES" data-name="UNIVERSITY LIBRARIES PROVIDES" class="cls-1" d="M-4195.08,118.56a12.245,12.245,0,0,0,5.23-3.218,13.245,13.245,0,0,0,3.04-5.588,30.375,30.375,0,0,0,.97-8.192V75.7h-3.98v25.687a25.208,25.208,0,0,1-.79,6.788,11.006,11.006,0,0,1-2.39,4.564,9.3,9.3,0,0,1-4.01,2.545,17.962,17.962,0,0,1-5.61.79,17.918,17.918,0,0,1-5.61-.79,9.237,9.237,0,0,1-4.01-2.545,11.006,11.006,0,0,1-2.39-4.564,25.208,25.208,0,0,1-.79-6.788V75.7h-3.92v25.863a29.98,29.98,0,0,0,.97,8.192,13.313,13.313,0,0,0,3.01,5.588,11.963,11.963,0,0,0,5.2,3.218,24.575,24.575,0,0,0,7.54,1.024A24.575,24.575,0,0,0-4195.08,118.56Zm20.22,0.439h3.69V81.96h0.29l3.33,4.974L-4144.22,119h3.62V75.7h-3.68v37.1h-0.3l-3.5-5.149L-4171.29,75.7h-3.57V119Zm45.72,0h3.97V75.7h-3.97V119Zm26.71,0h5.38l16.19-43.3h-4.15l-11.57,31.07-2.99,8.251h-0.35l-2.92-8.251-11.57-31.07h-4.15Zm28.12,0h26.94v-3.453h-22.97V98.695h21.1V95.3h-21.1V79.151h22.51V75.7h-26.48V119Zm62.13,0h4.45l-10.93-17.32a12.7,12.7,0,0,0,7.3-4.418,13.7,13.7,0,0,0,2.34-8.4q0-7.2-4.53-10.474t-14.47-3.277a63.26,63.26,0,0,0-10.29.878V119h3.98V102.264q1.815,0.176,3.51.292t3.09,0.118c0.98,0,1.9-.02,2.78-0.059a25.5,25.5,0,0,0,2.54-.234Zm-19.2-19.866a18.944,18.944,0,0,1-2.95-.38V79.034q1.455-.233,3.33-0.38t3.51-.146q7.65,0,11.05,2.458t3.39,7.9a13.144,13.144,0,0,1-.79,4.8,7.177,7.177,0,0,1-2.49,3.218,11.6,11.6,0,0,1-4.38,1.814,31.318,31.318,0,0,1-6.55.585C-4028.66,99.28-4030.03,99.231-4031.38,99.133Zm53.11,17.5q3.855-3.014,3.86-8.631a11.307,11.307,0,0,0-1-5,10.111,10.111,0,0,0-2.72-3.423,15.36,15.36,0,0,0-4.09-2.34q-2.37-.935-5.11-1.756a35.285,35.285,0,0,1-4.88-1.7,11.974,11.974,0,0,1-3.16-1.96,6.582,6.582,0,0,1-1.73-2.4,8.087,8.087,0,0,1-.52-3.013,7.191,7.191,0,0,1,2.83-5.968,12.051,12.051,0,0,1,7.63-2.224,37.627,37.627,0,0,1,5.06.38,49.384,49.384,0,0,1,5.52,1.082l0.12-3.511a50.765,50.765,0,0,0-10.93-1.4,19.907,19.907,0,0,0-5.91.819,13.107,13.107,0,0,0-4.5,2.37,10.787,10.787,0,0,0-2.89,3.716,11.118,11.118,0,0,0-1.02,4.8,12.25,12.25,0,0,0,.7,4.33,9.007,9.007,0,0,0,2.22,3.335,14.649,14.649,0,0,0,3.92,2.6,38.914,38.914,0,0,0,5.78,2.136c1.48,0.43,2.87.888,4.15,1.375a14.581,14.581,0,0,1,3.36,1.756,7.52,7.52,0,0,1,2.26,2.516,7.578,7.578,0,0,1,.81,3.657,6.915,6.915,0,0,1-2.83,5.939q-2.835,2.078-8.16,2.077a44.64,44.64,0,0,1-6.19-.5,62.445,62.445,0,0,1-6.72-1.317l-0.12,3.452a61.7,61.7,0,0,0,6.78,1.317,46.742,46.742,0,0,0,6.37.5Q-3982.135,119.642-3978.27,116.629ZM-3966,119h3.98V75.7H-3966V119Zm25.2,0h3.97V79.151h14.32V75.7h-32.56v3.452h14.27V119Zm35.77,0h3.98V104.253L-3885.5,75.7h-4.27l-11.4,21.065-1.7,3.686h-0.41l-1.75-3.686L-3916.37,75.7h-4.33l15.67,28.671V119Zm38.64,0h24.02v-3.394h-20.05V75.7h-3.97V119Zm30.86,0h3.98V75.7h-3.98V119Zm45.13-11.293a10.794,10.794,0,0,0-2.25-7.11,10.833,10.833,0,0,0-6.63-3.54V96.822a8.43,8.43,0,0,0,5.49-3.365,11.084,11.084,0,0,0,1.99-6.7q0-6.144-3.69-8.865t-11.98-2.721q-2.685,0-5.58.2t-7.04.614v42.715q3.495,0.468,6.86.673t6.35,0.2q16.485,0,16.48-11.878h0Zm-21.98,8.513a29.694,29.694,0,0,1-3.86-.438V98.636h10.17q6.03,0,8.86,2.165t2.84,6.671c0,3.042-1.03,5.286-3.07,6.729s-5.22,2.165-9.5,2.165C-3808.97,116.366-3810.78,116.317-3812.38,116.219Zm-3.86-20.743V78.917a35.439,35.439,0,0,1,4.01-.38c1.42-.058,3.07-0.088,4.94-0.088a25.773,25.773,0,0,1,5.29.468,9.316,9.316,0,0,1,3.56,1.463,5.775,5.775,0,0,1,2.02,2.633,10.7,10.7,0,0,1,.64,3.92q0,4.623-2.42,6.583t-8.1,1.96h-9.94ZM-3755.27,119h4.44l-10.93-17.32a12.692,12.692,0,0,0,7.31-4.418,13.7,13.7,0,0,0,2.34-8.4q0-7.2-4.53-10.474t-14.47-3.277a63.26,63.26,0,0,0-10.29.878V119h3.98V102.264c1.2,0.117,2.37.215,3.5,0.292s2.17,0.118,3.1.118c0.98,0,1.9-.02,2.78-0.059s1.72-.117,2.54-0.234Zm-19.2-19.866a18.768,18.768,0,0,1-2.95-.38V79.034q1.455-.233,3.33-0.38t3.51-.146q7.65,0,11.04,2.458c2.26,1.638,3.4,4.272,3.4,7.9a13.144,13.144,0,0,1-.79,4.8,7.177,7.177,0,0,1-2.49,3.218,11.6,11.6,0,0,1-4.38,1.814,31.385,31.385,0,0,1-6.55.585C-3771.75,99.28-3773.13,99.231-3774.47,99.133Zm26.8,19.866h3.92l5.02-13.517h19.88l5.08,13.517h3.92v-0.351l-15.9-42.949h-6.02l-15.9,42.949V119Zm10.11-17.028,5.97-15.915,2.63-7.314h0.35l2.69,7.314,5.96,15.915h-17.6ZM-3677.17,119h4.44l-10.93-17.32a12.725,12.725,0,0,0,7.31-4.418,13.768,13.768,0,0,0,2.33-8.4q0-7.2-4.53-10.474t-14.46-3.277a63.073,63.073,0,0,0-10.29.878V119h3.97V102.264q1.815,0.176,3.51.292c1.13,0.079,2.16.118,3.1,0.118,0.97,0,1.9-.02,2.77-0.059s1.73-.117,2.55-0.234Zm-19.21-19.866a19.123,19.123,0,0,1-2.95-.38V79.034q1.47-.233,3.33-0.38,1.875-.145,3.51-0.146,7.665,0,11.05,2.458t3.39,7.9a12.936,12.936,0,0,1-.79,4.8,7.088,7.088,0,0,1-2.48,3.218,11.651,11.651,0,0,1-4.39,1.814,31.216,31.216,0,0,1-6.54.585C-3693.66,99.28-3695.03,99.231-3696.38,99.133ZM-3664.66,119h3.97V75.7h-3.97V119Zm15.43,0h26.95v-3.453h-22.98V98.695h21.11V95.3h-21.11V79.151h22.51V75.7h-26.48V119Zm57.4-2.37q3.855-3.014,3.86-8.631a11.17,11.17,0,0,0-1-5,10.083,10.083,0,0,0-2.71-3.423,15.423,15.423,0,0,0-4.1-2.34c-1.57-.624-3.28-1.209-5.11-1.756a35.285,35.285,0,0,1-4.88-1.7,11.974,11.974,0,0,1-3.16-1.96,6.437,6.437,0,0,1-1.72-2.4,8.083,8.083,0,0,1-.53-3.013,7.2,7.2,0,0,1,2.84-5.968,12.031,12.031,0,0,1,7.63-2.224,37.488,37.488,0,0,1,5.05.38,50,50,0,0,1,5.53,1.082l0.11-3.511a50.765,50.765,0,0,0-10.93-1.4,19.791,19.791,0,0,0-5.9.819,12.927,12.927,0,0,0-4.5,2.37,10.7,10.7,0,0,0-2.9,3.716,11.118,11.118,0,0,0-1.02,4.8,12.25,12.25,0,0,0,.7,4.33,9.007,9.007,0,0,0,2.22,3.335,14.811,14.811,0,0,0,3.92,2.6,39.5,39.5,0,0,0,5.79,2.136c1.48,0.43,2.86.888,4.15,1.375a15,15,0,0,1,3.36,1.756,7.6,7.6,0,0,1,2.25,2.516,7.577,7.577,0,0,1,.82,3.657,6.923,6.923,0,0,1-2.84,5.939q-2.835,2.078-8.15,2.077a44.656,44.656,0,0,1-6.2-.5,62.445,62.445,0,0,1-6.72-1.317l-0.12,3.452a61.7,61.7,0,0,0,6.78,1.317,46.742,46.742,0,0,0,6.37.5Q-3595.68,119.642-3591.83,116.629Zm26.89,2.37h3.97v-14.57q1.935,0.234,3.54.292c1.07,0.04,2.08.059,3.01,0.059q9.765,0,14.26-3.54t4.51-11.322q0-7.724-4.56-11.264t-14.44-3.54a64.588,64.588,0,0,0-10.29.878V119Zm9.09-17.671c-0.68-.039-1.35-0.088-1.99-0.147s-1.24-.117-1.78-0.175a12.347,12.347,0,0,1-1.35-.2V79.034c0.94-.155,2.03-0.282,3.28-0.38s2.43-.146,3.56-0.146q7.665,0,11.05,2.692t3.39,8.718a15.35,15.35,0,0,1-.79,5.266,7.911,7.911,0,0,1-2.48,3.54,10.853,10.853,0,0,1-4.39,2.019,28.5,28.5,0,0,1-6.54.643C-3554.52,101.386-3555.17,101.367-3555.85,101.328ZM-3501.28,119h4.44l-10.93-17.32a12.664,12.664,0,0,0,7.3-4.418,13.7,13.7,0,0,0,2.34-8.4q0-7.2-4.53-10.474t-14.46-3.277a63.073,63.073,0,0,0-10.29.878V119h3.97V102.264q1.815,0.176,3.51.292c1.13,0.079,2.16.118,3.1,0.118,0.97,0,1.9-.02,2.77-0.059s1.73-.117,2.55-0.234Zm-19.21-19.866a18.944,18.944,0,0,1-2.95-.38V79.034q1.47-.233,3.33-0.38t3.51-.146q7.665,0,11.05,2.458t3.39,7.9a12.936,12.936,0,0,1-.79,4.8,7.157,7.157,0,0,1-2.48,3.218,11.651,11.651,0,0,1-4.39,1.814,31.252,31.252,0,0,1-6.55.585C-3517.77,99.28-3519.14,99.231-3520.49,99.133Zm61.32,14.834q4.77-5.618,4.77-16.56,0-11-4.77-16.647t-13.53-5.647q-8.88,0-13.62,5.647t-4.73,16.647q0,11,4.73,16.589t13.62,5.588Q-3463.925,119.584-3459.17,113.967Zm-24.23-2.516q-3.615-4.681-3.62-14.044,0-9.42,3.62-14.131t10.7-4.71q7.08,0,10.67,4.71t3.59,14.131q0,9.3-3.59,14.014t-10.67,4.711Q-3479.78,116.132-3483.4,111.451Zm48.58,7.548h5.38l16.19-43.3h-4.15l-11.58,31.07-2.98,8.251h-0.35l-2.92-8.251L-3446.8,75.7h-4.15Zm28.12,0h3.97V75.7h-3.97V119Zm43.28-4.74q5.46-5.382,5.47-16.91,0-11.468-5.26-16.823t-16.55-5.354c-0.7,0-1.54.02-2.51,0.058s-1.98.088-3.01,0.146-2.08.127-3.13,0.2-2.01.156-2.86,0.234v42.949a19.766,19.766,0,0,0,4.32.673q2.865,0.2,6.2.2Q-3368.885,119.642-3363.42,114.259Zm-18.24,1.9c-0.6-.019-1.2-0.049-1.78-0.088s-1.19-.1-1.81-0.175-1.31-.176-2.05-0.293V79.151c1.17-.155,2.5-0.272,3.98-0.351s2.76-.117,3.86-0.117q9.06,0,13.26,4.476t4.21,14.189q0,9.773-4.29,14.306t-13.48,4.535C-3380.42,116.19-3381.05,116.181-3381.66,116.161Zm32.88,2.838h26.95v-3.453h-22.97V98.695h21.1V95.3h-21.1V79.151h22.5V75.7h-26.48V119Zm57.41-2.37q3.855-3.014,3.85-8.631a11.312,11.312,0,0,0-.99-5,10.111,10.111,0,0,0-2.72-3.423,15.36,15.36,0,0,0-4.09-2.34q-2.37-.935-5.11-1.756a35.946,35.946,0,0,1-4.89-1.7,12.07,12.07,0,0,1-3.15-1.96,6.467,6.467,0,0,1-1.73-2.4,8.087,8.087,0,0,1-.52-3.013,7.191,7.191,0,0,1,2.83-5.968,12.051,12.051,0,0,1,7.63-2.224,37.627,37.627,0,0,1,5.06.38,49.384,49.384,0,0,1,5.52,1.082l0.12-3.511a50.841,50.841,0,0,0-10.93-1.4,19.859,19.859,0,0,0-5.91.819,13.107,13.107,0,0,0-4.5,2.37,10.669,10.669,0,0,0-2.89,3.716,11.118,11.118,0,0,0-1.02,4.8,12.25,12.25,0,0,0,.7,4.33,8.77,8.77,0,0,0,2.22,3.335,14.649,14.649,0,0,0,3.92,2.6,38.914,38.914,0,0,0,5.78,2.136c1.48,0.43,2.87.888,4.15,1.375a14.581,14.581,0,0,1,3.36,1.756,7.385,7.385,0,0,1,2.25,2.516,7.464,7.464,0,0,1,.82,3.657,6.915,6.915,0,0,1-2.83,5.939q-2.835,2.078-8.16,2.077a44.524,44.524,0,0,1-6.19-.5,63.12,63.12,0,0,1-6.73-1.317l-0.11,3.452a61.7,61.7,0,0,0,6.78,1.317,46.624,46.624,0,0,0,6.37.5Q-3295.235,119.642-3291.37,116.629Z"/>
  <path id="total_volumes_Including_e-books_" data-name="total volumes (Including e-books)" class="cls-1" d="M-4210.37,514.575h3.97V474.727h14.33v-3.452h-32.56v3.452h14.26v39.848Zm52.64-5.032q4.755-5.618,4.76-16.559,0-11-4.76-16.648t-13.53-5.646q-8.895,0-13.62,5.646t-4.74,16.648q0,11,4.74,16.588t13.62,5.588Q-4162.5,515.16-4157.73,509.543Zm-24.23-2.516q-3.63-4.681-3.63-14.043,0-9.421,3.63-14.131,3.615-4.71,10.7-4.711,7.065,0,10.66,4.711t3.6,14.131q0,9.3-3.6,14.014-3.585,4.71-10.66,4.71T-4181.96,507.027Zm45.71,7.548h3.98V474.727h14.32v-3.452h-32.56v3.452h14.26v39.848Zm15.96,0h3.91l5.03-13.517h19.88l5.08,13.517h3.92v-0.351l-15.9-42.949h-6.02l-15.9,42.949v0.351Zm10.11-17.027,5.96-15.916,2.63-7.314h0.35l2.69,7.314,5.97,15.916h-17.6Zm34.26,17.027h24.02v-3.394h-20.05V471.275h-3.97v43.3Zm53.6,0h5.38l16.19-43.3h-4.15l-11.58,31.071-2.98,8.25h-0.35l-2.92-8.25-11.57-31.071h-4.15Zm56.85-5.032q4.755-5.618,4.76-16.559,0-11-4.76-16.648t-13.54-5.646q-8.88,0-13.62,5.646-4.725,5.647-4.73,16.648t4.73,16.588q4.74,5.589,13.62,5.588Q-3970.235,515.16-3965.47,509.543Zm-24.23-2.516q-3.63-4.681-3.63-14.043,0-9.421,3.63-14.131,3.615-4.71,10.69-4.711t10.67,4.711q3.6,4.71,3.6,14.131,0,9.3-3.6,14.014-3.585,4.71-10.67,4.71Q-3986.075,511.708-3989.7,507.027Zm38.17,7.548h24.02v-3.394h-20.05V471.275h-3.97v43.3Zm52.67-.439a12.306,12.306,0,0,0,5.23-3.218,13.348,13.348,0,0,0,3.04-5.588,30.407,30.407,0,0,0,.96-8.192V471.275h-3.97v25.687a25.606,25.606,0,0,1-.79,6.788,11.135,11.135,0,0,1-2.4,4.564,9.262,9.262,0,0,1-4,2.545,17.984,17.984,0,0,1-5.62.79,17.962,17.962,0,0,1-5.61-.79,9.2,9.2,0,0,1-4-2.545,11.135,11.135,0,0,1-2.4-4.564,25.606,25.606,0,0,1-.79-6.788V471.275h-3.91v25.863a30.407,30.407,0,0,0,.96,8.192,13.419,13.419,0,0,0,3.01,5.588,12.08,12.08,0,0,0,5.2,3.218,24.62,24.62,0,0,0,7.54,1.024A24.643,24.643,0,0,0-3898.86,514.136Zm20.22,0.439h3.68V476.717h0.3l5.08,12.288,10.29,23.873h3.8l10.29-23.873,5.02-12.288h0.35v37.858h3.69v-43.3h-5.44l-11.87,27.852-3.79,9.421h-0.36l-3.74-9.421-11.86-27.852h-5.44v43.3Zm53.95,0h26.95v-3.452h-22.97V494.271h21.1v-3.394h-21.1v-16.15h22.5v-3.452h-26.48v43.3Zm57.41-2.37q3.855-3.012,3.86-8.631a11.3,11.3,0,0,0-1-5,10.1,10.1,0,0,0-2.72-3.423,15.328,15.328,0,0,0-4.09-2.341q-2.37-.936-5.11-1.755a35.322,35.322,0,0,1-4.88-1.7,11.949,11.949,0,0,1-3.16-1.961,6.576,6.576,0,0,1-1.73-2.4,8.081,8.081,0,0,1-.52-3.013,7.19,7.19,0,0,1,2.83-5.968,12.051,12.051,0,0,1,7.63-2.224,37.656,37.656,0,0,1,5.06.38,49.591,49.591,0,0,1,5.52,1.083l0.12-3.511a50.776,50.776,0,0,0-10.93-1.4,19.9,19.9,0,0,0-5.91.819,13.116,13.116,0,0,0-4.5,2.37,10.793,10.793,0,0,0-2.89,3.715,11.121,11.121,0,0,0-1.02,4.8,12.252,12.252,0,0,0,.7,4.33,9.016,9.016,0,0,0,2.22,3.335,14.67,14.67,0,0,0,3.92,2.6,38.907,38.907,0,0,0,5.78,2.135c1.48,0.43,2.87.888,4.15,1.375a14.619,14.619,0,0,1,3.36,1.756,7.385,7.385,0,0,1,2.25,2.516,7.467,7.467,0,0,1,.82,3.657,6.914,6.914,0,0,1-2.83,5.939q-2.835,2.077-8.16,2.077a44.64,44.64,0,0,1-6.19-.5,63.12,63.12,0,0,1-6.73-1.317l-0.11,3.453a61.939,61.939,0,0,0,6.78,1.316,46.756,46.756,0,0,0,6.37.5Q-3771.145,515.219-3767.28,512.205Zm33.37,11.732h3.63V523.7a50.5,50.5,0,0,1-6.9-13.955,52.3,52.3,0,0,1-2.4-15.887,52.391,52.391,0,0,1,2.4-15.857,50.434,50.434,0,0,1,6.9-13.985v-0.234h-3.63a51.58,51.58,0,0,0-6.78,14.19,54.29,54.29,0,0,0-2.33,15.886,54.287,54.287,0,0,0,2.33,15.887,51.574,51.574,0,0,0,6.78,14.189h0Zm10.06-9.362h3.97v-43.3h-3.97v43.3Zm15.43,0h3.68V477.536h0.3l3.33,4.974,23.32,32.065h3.63v-43.3h-3.69v37.1h-0.29l-3.51-5.15-23.2-31.948h-3.57v43.3Zm64.8,0.439c0.84-.059,1.68-0.146,2.54-0.263s1.7-.254,2.51-0.41,1.56-.331,2.23-0.527v-3.393c-0.59.156-1.31,0.3-2.17,0.438s-1.73.264-2.63,0.381-1.76.2-2.6,0.263-1.57.088-2.19,0.088q-14.97,0-14.97-18.607,0-9.6,3.8-14.161c2.54-3.042,6.41-4.564,11.64-4.564a37.586,37.586,0,0,1,4.15.264c1.55,0.175,3.21.419,4.97,0.731v-3.511c-1.6-.312-3.26-0.565-4.97-0.761a40.856,40.856,0,0,0-4.5-.292q-19.185,0-19.18,22.352,0,21.942,19.06,22.06Q-3644.88,515.1-3643.62,515.014Zm15.63-.439h24.03v-3.394h-20.05V471.275h-3.98v43.3Zm52.67-.439a12.186,12.186,0,0,0,5.23-3.218,13.131,13.131,0,0,0,3.04-5.588,29.98,29.98,0,0,0,.97-8.192V471.275h-3.98v25.687a25.2,25.2,0,0,1-.79,6.788,11.006,11.006,0,0,1-2.39,4.564,9.237,9.237,0,0,1-4.01,2.545,17.918,17.918,0,0,1-5.61.79,17.962,17.962,0,0,1-5.61-.79,9.2,9.2,0,0,1-4-2.545,11.018,11.018,0,0,1-2.4-4.564,25.2,25.2,0,0,1-.79-6.788V471.275h-3.92v25.863a30.375,30.375,0,0,0,.97,8.192,13.307,13.307,0,0,0,3.01,5.588,12.021,12.021,0,0,0,5.2,3.218,24.62,24.62,0,0,0,7.54,1.024A24.575,24.575,0,0,0-3575.32,514.136Zm48.08-4.3q5.475-5.382,5.47-16.91,0-11.468-5.26-16.823t-16.55-5.354c-0.7,0-1.54.021-2.51,0.059s-1.98.088-3.01,0.146-2.08.127-3.13,0.205-2.01.156-2.86,0.234v42.949a19.644,19.644,0,0,0,4.32.673q2.865,0.2,6.2.205Q-3532.7,515.219-3527.24,509.835Zm-18.24,1.9c-0.6-.019-1.19-0.048-1.78-0.088s-1.19-.1-1.81-0.175-1.31-.176-2.05-0.293V474.727c1.17-.155,2.5-0.272,3.98-0.351s2.76-.117,3.86-0.117q9.06,0,13.27,4.477t4.2,14.189q0,9.772-4.29,14.307t-13.48,4.534C-3544.24,511.766-3544.87,511.757-3545.48,511.737Zm32.88,2.838h3.98v-43.3h-3.98v43.3Zm15.44,0h3.68V477.536h0.29l3.33,4.974,23.33,32.065h3.62v-43.3h-3.68v37.1h-0.29l-3.51-5.15-23.21-31.948h-3.56v43.3Zm68.56,0.059a44.841,44.841,0,0,0,5.91-1.288V492.574h-3.8v18.2c-1.25.234-2.59,0.429-4.03,0.585a35.006,35.006,0,0,1-3.63.234q-15.495,0-15.49-18.607,0-9.537,3.98-14.131t12.27-4.594q1.17,0,2.28.059t2.34,0.234c0.82,0.117,1.68.263,2.6,0.439s1.96,0.4,3.13.673v-3.511a54.423,54.423,0,0,0-5.47-1.083,36.2,36.2,0,0,0-5.11-.38q-20.115,0-20.11,22.352,0,21.942,19.58,22.06A37.572,37.572,0,0,0-3428.6,514.634Zm30.4-.059h26.95v-3.452h-22.98V494.271h21.11v-3.394h-21.11v-16.15h22.51v-3.452h-26.48v43.3Zm34.55-14.687h17.83v-3.394h-17.83v3.394Zm57.63,3.394a10.789,10.789,0,0,0-2.25-7.109,10.833,10.833,0,0,0-6.63-3.541V492.4a8.378,8.378,0,0,0,5.49-3.364,11.019,11.019,0,0,0,1.99-6.7q0-6.144-3.68-8.865t-11.99-2.721q-2.685,0-5.58.2t-7.04.615v42.714c2.34,0.312,4.62.536,6.87,0.673s4.35,0.2,6.34.2q16.485,0,16.48-11.878h0ZM-3328,511.8a29.484,29.484,0,0,1-3.85-.439V494.212h10.17q6.015,0,8.85,2.165t2.84,6.671q0,4.565-3.07,6.729c-2.05,1.444-5.21,2.165-9.5,2.165C-3324.59,511.942-3326.4,511.893-3328,511.8Zm-3.85-20.743v-16.56a35.3,35.3,0,0,1,4-.38c1.42-.059,3.07-0.088,4.94-0.088a25.823,25.823,0,0,1,5.29.468,9.438,9.438,0,0,1,3.57,1.463,5.829,5.829,0,0,1,2.01,2.633,10.7,10.7,0,0,1,.65,3.921q0,4.623-2.43,6.582t-8.1,1.961h-9.93Zm64.44,18.49q4.77-5.618,4.77-16.559,0-11-4.77-16.648t-13.53-5.646q-8.88,0-13.62,5.646t-4.74,16.648q0,11,4.74,16.588t13.62,5.588Q-3272.165,515.16-3267.41,509.543Zm-24.23-2.516q-3.615-4.681-3.62-14.043,0-9.421,3.62-14.131t10.7-4.711q7.065,0,10.67,4.711,3.585,4.71,3.59,14.131,0,9.3-3.59,14.014t-10.67,4.71Q-3288.02,511.708-3291.64,507.027Zm67.78,2.516q4.77-5.618,4.76-16.559,0-11-4.76-16.648t-13.53-5.646q-8.9,0-13.62,5.646t-4.74,16.648q0,11,4.74,16.588t13.62,5.588Q-3228.63,515.16-3223.86,509.543Zm-24.23-2.516q-3.63-4.681-3.62-14.043,0-9.421,3.62-14.131t10.7-4.711q7.065,0,10.67,4.711,3.585,4.71,3.59,14.131,0,9.3-3.59,14.014t-10.67,4.71Q-3244.47,511.708-3248.09,507.027Zm38.17,7.548h3.98V494.212h9.17l14.5,20.363h4.62l-14.79-20.655-1.87-1.405v-0.351l1.69-1.462,13.92-19.427h-4.62l-13.86,19.485h-8.76V471.275h-3.98v43.3Zm60.09-2.37q3.87-3.012,3.86-8.631a11.3,11.3,0,0,0-.99-5,10.218,10.218,0,0,0-2.72-3.423,15.328,15.328,0,0,0-4.09-2.341q-2.37-.936-5.12-1.755a35.8,35.8,0,0,1-4.88-1.7,11.879,11.879,0,0,1-3.15-1.961,6.462,6.462,0,0,1-1.73-2.4,8.078,8.078,0,0,1-.53-3.013,7.2,7.2,0,0,1,2.84-5.968,12.032,12.032,0,0,1,7.63-2.224,37.517,37.517,0,0,1,5.05.38,49.318,49.318,0,0,1,5.53,1.083l0.12-3.511a50.859,50.859,0,0,0-10.94-1.4,19.788,19.788,0,0,0-5.9.819,13.116,13.116,0,0,0-4.5,2.37,10.674,10.674,0,0,0-2.89,3.715,10.983,10.983,0,0,0-1.03,4.8,12.482,12.482,0,0,0,.7,4.33,8.923,8.923,0,0,0,2.23,3.335,14.606,14.606,0,0,0,3.91,2.6,39.494,39.494,0,0,0,5.79,2.135c1.48,0.43,2.86.888,4.15,1.375a14.619,14.619,0,0,1,3.36,1.756,7.385,7.385,0,0,1,2.25,2.516,7.467,7.467,0,0,1,.82,3.657,6.921,6.921,0,0,1-2.84,5.939c-1.89,1.385-4.6,2.077-8.15,2.077a44.773,44.773,0,0,1-6.2-.5,62.93,62.93,0,0,1-6.72-1.317l-0.12,3.453a62.594,62.594,0,0,0,6.79,1.316,46.638,46.638,0,0,0,6.37.5Q-3153.685,515.219-3149.83,512.205Zm10.88,11.732a49.991,49.991,0,0,0,6.81-14.189,54.948,54.948,0,0,0,2.31-15.887,54.951,54.951,0,0,0-2.31-15.886,50,50,0,0,0-6.81-14.19h-3.57v0.234A49.809,49.809,0,0,1-3135.65,478a53,53,0,0,1,2.37,15.857,52.911,52.911,0,0,1-2.37,15.887,49.875,49.875,0,0,1-6.87,13.955v0.234h3.57Z"/>
  <path id="_11_000" data-name="11,000" class="cls-3" d="M60.883,327.253h62.563V121.289H76.176L5.828,157.472l-0.556,2.5L12.224,195.6h3.059l44.489-9.185h1.112V327.253Zm144.307,0h62.562V121.289H220.483l-70.348,36.183-0.556,2.5,6.952,35.626h3.058l44.489-9.185h1.112V327.253ZM343.1,370.4l27.527-101.313H309.457l-11.678,98.529Zm211.046-66.661q24.744-26.3,24.747-79.185t-24.747-79.463q-24.751-26.577-69.792-26.581t-69.931,26.581q-24.888,26.583-24.886,79.463t24.886,79.185q24.882,26.3,69.931,26.3T554.148,303.734ZM469.2,278.267a20.84,20.84,0,0,1-10.149-8.906q-3.9-6.4-5.7-17.257a172.463,172.463,0,0,1-1.807-27.555,177.431,177.431,0,0,1,1.807-27.972q1.8-10.992,5.7-17.4a20.86,20.86,0,0,1,10.149-8.906,40.791,40.791,0,0,1,15.154-2.5,38.873,38.873,0,0,1,14.737,2.5,21.008,21.008,0,0,1,10.01,8.906q3.891,6.406,5.839,17.4a165.582,165.582,0,0,1,1.947,27.972,163.47,163.47,0,0,1-1.947,27.694q-1.948,11-5.839,17.257a21.172,21.172,0,0,1-10.01,8.767,38.873,38.873,0,0,1-14.737,2.5A40.791,40.791,0,0,1,469.2,278.267Zm297.1,25.467q24.745-26.3,24.747-79.185T766.3,145.086q-24.752-26.577-69.792-26.581t-69.93,26.581q-24.889,26.583-24.886,79.463t24.886,79.185q24.881,26.3,69.93,26.3T766.3,303.734Zm-84.946-25.467a20.84,20.84,0,0,1-10.149-8.906q-3.9-6.4-5.7-17.257a172.463,172.463,0,0,1-1.807-27.555,177.431,177.431,0,0,1,1.807-27.972q1.806-10.992,5.7-17.4a20.86,20.86,0,0,1,10.149-8.906,40.8,40.8,0,0,1,15.154-2.5,38.869,38.869,0,0,1,14.737,2.5,21.008,21.008,0,0,1,10.01,8.906q3.891,6.406,5.839,17.4a165.582,165.582,0,0,1,1.947,27.972,163.47,163.47,0,0,1-1.947,27.694q-1.948,11-5.839,17.257a21.172,21.172,0,0,1-10.01,8.767,38.869,38.869,0,0,1-14.737,2.5A40.8,40.8,0,0,1,681.355,278.267Zm297.1,25.467q24.746-26.3,24.746-79.185t-24.746-79.463q-24.751-26.577-69.792-26.581t-69.93,26.581q-24.888,26.583-24.886,79.463t24.886,79.185q24.88,26.3,69.93,26.3T978.454,303.734Zm-84.945-25.467a20.836,20.836,0,0,1-10.149-8.906q-3.9-6.4-5.7-17.257a172.58,172.58,0,0,1-1.807-27.555,177.551,177.551,0,0,1,1.807-27.972q1.806-10.992,5.7-17.4a20.856,20.856,0,0,1,10.149-8.906,40.786,40.786,0,0,1,15.153-2.5,38.869,38.869,0,0,1,14.737,2.5,21,21,0,0,1,10.01,8.906q3.891,6.406,5.84,17.4a165.7,165.7,0,0,1,1.946,27.972,163.588,163.588,0,0,1-1.946,27.694q-1.948,11-5.84,17.257a21.167,21.167,0,0,1-10.01,8.767,38.869,38.869,0,0,1-14.737,2.5A40.786,40.786,0,0,1,893.509,278.267Z"/>
  <path id="_770_000" data-name="770,000" class="cls-2" d="M-1930.19,376.975l70.34-168.668v-3.619l-8.06-33.4h-142.64l-6.12,5.288,1.95,47.038h86.19l-68.12,147.793v5.845l53.11,7.237Zm166.27,0,70.35-168.668v-3.619l-8.06-33.4h-142.65l-6.11,5.288,1.94,47.038h86.2l-68.12,147.793v5.845l53.11,7.237Zm249.42-23.241q24.735-26.3,24.74-79.185t-24.74-79.463q-24.75-26.577-69.8-26.581t-69.93,26.581q-24.885,26.583-24.88,79.463t24.88,79.185q24.885,26.3,69.93,26.3T-1514.5,353.734Zm-84.95-25.467a20.873,20.873,0,0,1-10.15-8.906q-3.9-6.4-5.7-17.257a172.183,172.183,0,0,1-1.81-27.555,177.142,177.142,0,0,1,1.81-27.972q1.815-10.992,5.7-17.4a20.893,20.893,0,0,1,10.15-8.906,40.784,40.784,0,0,1,15.15-2.5,38.867,38.867,0,0,1,14.74,2.5,21,21,0,0,1,10.01,8.906q3.9,6.406,5.84,17.4a165.018,165.018,0,0,1,1.95,27.972,162.912,162.912,0,0,1-1.95,27.694q-1.95,11-5.84,17.257a21.158,21.158,0,0,1-10.01,8.767,38.867,38.867,0,0,1-14.74,2.5A40.784,40.784,0,0,1-1599.45,328.267Zm170.31,92.128,27.53-101.313h-61.18l-11.67,98.529Zm211.04-66.661q24.75-26.3,24.75-79.185t-24.75-79.463q-24.75-26.577-69.79-26.581t-69.93,26.581q-24.885,26.583-24.88,79.463t24.88,79.185q24.885,26.3,69.93,26.3T-1218.1,353.734Zm-84.94-25.467a20.83,20.83,0,0,1-10.15-8.906q-3.9-6.4-5.7-17.257a172.183,172.183,0,0,1-1.81-27.555,177.142,177.142,0,0,1,1.81-27.972q1.8-10.992,5.7-17.4a20.85,20.85,0,0,1,10.15-8.906,40.784,40.784,0,0,1,15.15-2.5,38.867,38.867,0,0,1,14.74,2.5,21.04,21.04,0,0,1,10.01,8.906q3.885,6.406,5.84,17.4a166.066,166.066,0,0,1,1.95,27.972,163.953,163.953,0,0,1-1.95,27.694q-1.95,11-5.84,17.257a21.2,21.2,0,0,1-10.01,8.767,38.867,38.867,0,0,1-14.74,2.5A40.784,40.784,0,0,1-1303.04,328.267Zm297.1,25.467q24.741-26.3,24.745-79.185t-24.745-79.463q-24.75-26.577-69.79-26.581t-69.93,26.581q-24.9,26.583-24.89,79.463t24.89,79.185q24.87,26.3,69.93,26.3T-1005.94,353.734Zm-84.95-25.467a20.873,20.873,0,0,1-10.15-8.906q-3.9-6.4-5.7-17.257a172.336,172.336,0,0,1-1.8-27.555,177.3,177.3,0,0,1,1.8-27.972q1.815-10.992,5.7-17.4a20.893,20.893,0,0,1,10.15-8.906,40.8,40.8,0,0,1,15.16-2.5,38.849,38.849,0,0,1,14.73,2.5,21,21,0,0,1,10.01,8.906q3.9,6.406,5.84,17.4a165.018,165.018,0,0,1,1.95,27.972,162.912,162.912,0,0,1-1.95,27.694q-1.95,11-5.84,17.257a21.158,21.158,0,0,1-10.01,8.767,38.849,38.849,0,0,1-14.73,2.5A40.8,40.8,0,0,1-1090.89,328.267Zm297.1,25.467q24.744-26.3,24.747-79.185t-24.747-79.463q-24.751-26.577-69.792-26.581t-69.931,26.581Q-958.4,221.669-958.4,274.549t24.886,79.185q24.882,26.3,69.931,26.3T-793.789,353.734Zm-84.946-25.467a20.84,20.84,0,0,1-10.149-8.906q-3.9-6.4-5.7-17.257a172.463,172.463,0,0,1-1.807-27.555,177.431,177.431,0,0,1,1.807-27.972q1.8-10.992,5.7-17.4a20.86,20.86,0,0,1,10.149-8.906,40.791,40.791,0,0,1,15.154-2.5,38.873,38.873,0,0,1,14.737,2.5,21.008,21.008,0,0,1,10.01,8.906q3.891,6.406,5.839,17.4a165.6,165.6,0,0,1,1.946,27.972,163.483,163.483,0,0,1-1.946,27.694q-1.948,11-5.839,17.257a21.172,21.172,0,0,1-10.01,8.767,38.873,38.873,0,0,1-14.737,2.5A40.791,40.791,0,0,1-878.735,328.267Z"/>
  <path id="UNIVERSITY_LIBRARIES_has_leant" data-name="UNIVERSITY LIBRARIES has leant" class="cls-3" d="M50.92,76.56a12.251,12.251,0,0,0,5.232-3.218,13.242,13.242,0,0,0,3.04-5.588,30.271,30.271,0,0,0,.965-8.192V33.7H56.181V59.386a25.362,25.362,0,0,1-.789,6.788A11.068,11.068,0,0,1,53,70.738a9.25,9.25,0,0,1-4,2.545,17.967,17.967,0,0,1-5.612.79,17.958,17.958,0,0,1-5.612-.79,9.239,9.239,0,0,1-4-2.545,11.057,11.057,0,0,1-2.4-4.564,25.362,25.362,0,0,1-.789-6.788V33.7H26.661V59.562a30.271,30.271,0,0,0,.964,8.192,13.4,13.4,0,0,0,3.01,5.588,12.028,12.028,0,0,0,5.2,3.218,24.585,24.585,0,0,0,7.541,1.024A24.585,24.585,0,0,0,50.92,76.56ZM71.145,77h3.683V39.96H75.12l3.332,4.974L101.775,77H105.4V33.7h-3.683V70.8h-0.292l-3.508-5.149L74.711,33.7H71.145V77Zm45.711,0h3.975V33.7h-3.975V77Zm26.714,0h5.378L165.14,33.7h-4.15L149.416,64.769l-2.981,8.25h-0.351l-2.923-8.25L131.587,33.7h-4.15Zm28.117,0h26.948V73.547H175.662V56.695h21.1V53.3h-21.1V37.151h22.5V33.7h-26.48V77Zm62.137,0h4.443l-10.931-17.32a12.7,12.7,0,0,0,7.306-4.418,13.709,13.709,0,0,0,2.339-8.4q0-7.2-4.531-10.474t-14.467-3.277a63.182,63.182,0,0,0-10.289.878V77h3.975V60.264q1.812,0.175,3.508.293t3.1,0.117q1.461,0,2.777-.058t2.542-.234Zm-19.2-19.865a18.96,18.96,0,0,1-2.952-.38V37.034q1.461-.233,3.332-0.38t3.508-.146q7.658,0,11.048,2.458t3.39,7.9a13.02,13.02,0,0,1-.789,4.8,7.137,7.137,0,0,1-2.484,3.218,11.613,11.613,0,0,1-4.384,1.814,31.294,31.294,0,0,1-6.547.585Q216.639,57.28,214.621,57.133Zm53.106,17.5q3.858-3.013,3.858-8.631a11.28,11.28,0,0,0-.993-5,10.143,10.143,0,0,0-2.718-3.423,15.4,15.4,0,0,0-4.092-2.34q-2.368-.935-5.115-1.755a35.587,35.587,0,0,1-4.881-1.7,11.986,11.986,0,0,1-3.157-1.96,6.461,6.461,0,0,1-1.724-2.4,8.065,8.065,0,0,1-.526-3.013,7.193,7.193,0,0,1,2.835-5.968,12.033,12.033,0,0,1,7.628-2.224,37.609,37.609,0,0,1,5.057.38,49.586,49.586,0,0,1,5.524,1.083l0.117-3.511a50.8,50.8,0,0,0-10.932-1.4,19.823,19.823,0,0,0-5.9.819,13.058,13.058,0,0,0-4.5,2.37,10.724,10.724,0,0,0-2.893,3.716,11.076,11.076,0,0,0-1.023,4.8,12.318,12.318,0,0,0,.7,4.33,8.939,8.939,0,0,0,2.222,3.335,14.688,14.688,0,0,0,3.916,2.6,39.366,39.366,0,0,0,5.787,2.136q2.221,0.645,4.15,1.375A14.791,14.791,0,0,1,264.425,60a7.07,7.07,0,0,1,3.069,6.173,6.921,6.921,0,0,1-2.835,5.939q-2.837,2.078-8.155,2.077a44.7,44.7,0,0,1-6.2-.5,62.77,62.77,0,0,1-6.723-1.317l-0.117,3.452a62.044,62.044,0,0,0,6.781,1.316,46.728,46.728,0,0,0,6.372.5Q263.869,77.642,267.727,74.629ZM280,77h3.975V33.7H280V77ZM305.2,77h3.975V37.151h14.321V33.7H290.934v3.452H305.2V77Zm35.774,0h3.975V62.253L360.5,33.7h-4.267l-11.4,21.065-1.695,3.686h-0.409l-1.754-3.686L329.631,33.7h-4.326L340.971,62.37V77Zm38.638,0h24.025V73.605h-20.05V33.7h-3.975V77Zm30.864,0h3.975V33.7h-3.975V77ZM455.6,65.706a9.921,9.921,0,0,0-8.886-10.649V54.822a8.407,8.407,0,0,0,5.5-3.365,11.05,11.05,0,0,0,1.988-6.7q0-6.144-3.683-8.865t-11.983-2.721q-2.69,0-5.583.2t-7.044.614V76.706q3.507,0.468,6.869.673t6.342,0.2q16.485,0,16.485-11.878h0Zm-21.98,8.514a29.411,29.411,0,0,1-3.858-.439V56.636h10.172q6.019,0,8.856,2.165t2.835,6.67q0,4.564-3.069,6.729t-9.5,2.165Q436.018,74.366,433.621,74.219Zm-3.858-20.743V36.917a35.417,35.417,0,0,1,4-.38q2.135-.088,4.94-0.088a25.746,25.746,0,0,1,5.29.468,9.374,9.374,0,0,1,3.566,1.463,5.8,5.8,0,0,1,2.017,2.633,10.743,10.743,0,0,1,.643,3.92q0,4.623-2.426,6.583t-8.1,1.96h-9.938ZM490.732,77h4.443l-10.932-17.32a12.7,12.7,0,0,0,7.307-4.418,13.709,13.709,0,0,0,2.338-8.4q0-7.2-4.53-10.474T474.89,33.114a63.18,63.18,0,0,0-10.288.878V77h3.975V60.264q1.812,0.175,3.508.293t3.1,0.117c0.973,0,1.9-.019,2.776-0.058s1.725-.117,2.543-0.234Zm-19.2-19.865a18.96,18.96,0,0,1-2.952-.38V37.034q1.461-.233,3.332-0.38t3.508-.146q7.656,0,11.048,2.458t3.39,7.9a13.02,13.02,0,0,1-.789,4.8,7.144,7.144,0,0,1-2.484,3.218,11.611,11.611,0,0,1-4.385,1.814,31.294,31.294,0,0,1-6.547.585Q473.546,57.28,471.529,57.133ZM498.33,77h3.917l5.027-13.517h19.875L532.235,77h3.916V76.648L520.251,33.7H514.23l-15.9,42.949V77Zm10.113-17.028,5.963-15.916,2.63-7.314h0.351l2.689,7.314,5.962,15.916h-17.6ZM568.827,77h4.443l-10.931-17.32a12.707,12.707,0,0,0,7.307-4.418,13.716,13.716,0,0,0,2.338-8.4q0-7.2-4.53-10.474t-14.468-3.277a63.161,63.161,0,0,0-10.288.878V77h3.975V60.264q1.811,0.175,3.507.293t3.1,0.117q1.461,0,2.777-.058t2.543-.234Zm-19.2-19.865a18.942,18.942,0,0,1-2.952-.38V37.034q1.459-.233,3.332-0.38t3.507-.146q7.658,0,11.048,2.458t3.39,7.9a13.02,13.02,0,0,1-.789,4.8,7.137,7.137,0,0,1-2.484,3.218,11.613,11.613,0,0,1-4.384,1.814,31.294,31.294,0,0,1-6.547.585Q551.642,57.28,549.625,57.133ZM581.336,77h3.975V33.7h-3.975V77Zm15.432,0h26.948V73.547H600.743V56.695h21.1V53.3h-21.1V37.151h22.5V33.7h-26.48V77Zm57.4-2.37q3.858-3.013,3.858-8.631a11.28,11.28,0,0,0-.994-5,10.143,10.143,0,0,0-2.718-3.423,15.4,15.4,0,0,0-4.092-2.34q-2.369-.935-5.115-1.755a35.587,35.587,0,0,1-4.881-1.7,12,12,0,0,1-3.157-1.96,6.472,6.472,0,0,1-1.724-2.4,8.065,8.065,0,0,1-.526-3.013,7.193,7.193,0,0,1,2.835-5.968,12.033,12.033,0,0,1,7.628-2.224,37.609,37.609,0,0,1,5.057.38,49.541,49.541,0,0,1,5.524,1.083l0.117-3.511a50.8,50.8,0,0,0-10.932-1.4,19.828,19.828,0,0,0-5.9.819,13.058,13.058,0,0,0-4.5,2.37,10.724,10.724,0,0,0-2.893,3.716,11.09,11.09,0,0,0-1.023,4.8,12.318,12.318,0,0,0,.7,4.33,8.939,8.939,0,0,0,2.222,3.335,14.7,14.7,0,0,0,3.916,2.6,39.366,39.366,0,0,0,5.787,2.136q2.221,0.645,4.151,1.375A14.8,14.8,0,0,1,650.868,60a7.07,7.07,0,0,1,3.069,6.173,6.921,6.921,0,0,1-2.835,5.939q-2.837,2.078-8.155,2.077a44.7,44.7,0,0,1-6.2-.5,62.818,62.818,0,0,1-6.723-1.317l-0.117,3.452a62.044,62.044,0,0,0,6.781,1.316,46.728,46.728,0,0,0,6.372.5Q650.312,77.642,654.171,74.629ZM681.059,77h3.975V56.519h25.311V77h3.917V33.7h-3.917V53.125H685.034V33.7h-3.975V77Zm39.75,0h3.916l5.027-13.517h19.875L754.713,77h3.916V76.648L742.73,33.7h-6.021l-15.9,42.949V77Zm10.113-17.028,5.962-15.916,2.63-7.314h0.351l2.689,7.314,5.963,15.916h-17.6Zm55.649,14.658q3.858-3.013,3.858-8.631a11.28,11.28,0,0,0-.994-5,10.143,10.143,0,0,0-2.718-3.423,15.4,15.4,0,0,0-4.092-2.34q-2.367-.935-5.115-1.755a35.587,35.587,0,0,1-4.881-1.7,12,12,0,0,1-3.157-1.96,6.472,6.472,0,0,1-1.724-2.4,8.065,8.065,0,0,1-.526-3.013,7.193,7.193,0,0,1,2.835-5.968,12.035,12.035,0,0,1,7.628-2.224,37.609,37.609,0,0,1,5.057.38,49.541,49.541,0,0,1,5.524,1.083l0.117-3.511a50.8,50.8,0,0,0-10.931-1.4,19.818,19.818,0,0,0-5.9.819,13.04,13.04,0,0,0-4.5,2.37,10.715,10.715,0,0,0-2.894,3.716,11.09,11.09,0,0,0-1.023,4.8,12.294,12.294,0,0,0,.7,4.33,8.925,8.925,0,0,0,2.221,3.335,14.7,14.7,0,0,0,3.916,2.6,39.366,39.366,0,0,0,5.787,2.136q2.221,0.645,4.151,1.375A14.783,14.783,0,0,1,783.268,60a7.064,7.064,0,0,1,3.069,6.173,6.919,6.919,0,0,1-2.835,5.939q-2.836,2.078-8.155,2.077a44.7,44.7,0,0,1-6.2-.5,62.751,62.751,0,0,1-6.722-1.317l-0.117,3.452a61.952,61.952,0,0,0,6.781,1.316,46.714,46.714,0,0,0,6.371.5Q782.712,77.642,786.571,74.629ZM813.459,77h24.026V73.605H817.434V33.7h-3.975V77Zm30.864,0h26.948V73.547H848.3V56.695h21.1V53.3H848.3V37.151H870.8V33.7H844.323V77Zm31.1,0h3.916l5.028-13.517h19.874L909.325,77h3.917V76.648L897.342,33.7h-6.021l-15.9,42.949V77Zm10.113-17.028L891.5,44.056l2.631-7.314h0.35l2.689,7.314,5.963,15.916h-17.6ZM919.788,77h3.683V39.96h0.292l3.332,4.974L950.419,77h3.624V33.7H950.36V70.8h-0.292l-3.507-5.149L923.354,33.7h-3.566V77Zm55.474,0h3.975V37.151h14.321V33.7H961v3.452h14.263V77Z"/>
  <path id="documents_lent_to_scholars_government_agencies_and_institutio" data-name="documents lent to scholars,  government agencies and institutio" class="cls-3" d="M65.722,426.835q5.465-5.382,5.466-16.91,0-11.468-5.261-16.823t-16.543-5.354q-1.052,0-2.514.059t-3.011.146q-1.55.089-3.127,0.205t-2.864.234v42.949a19.748,19.748,0,0,0,4.326.673q2.864,0.2,6.2.2Q60.256,432.219,65.722,426.835Zm-18.238,1.9q-0.907-.029-1.783-0.088t-1.812-.175q-0.936-.117-2.046-0.293V391.727q1.754-.232,3.975-0.351t3.858-.117q9.06,0,13.269,4.477t4.209,14.189q0,9.772-4.3,14.307t-13.474,4.534Q48.389,428.766,47.484,428.737Zm62.488-2.194q4.764-5.618,4.764-16.559,0-11-4.764-16.648T96.44,387.69q-8.886,0-13.62,5.646t-4.735,16.648q0,11,4.735,16.588t13.62,5.588Q105.208,432.16,109.972,426.543Zm-24.23-2.516q-3.625-4.681-3.624-14.043,0-9.421,3.624-14.131t10.7-4.711q7.071,0,10.668,4.711t3.595,14.131q0,9.3-3.595,14.014t-10.668,4.71Q89.366,428.708,85.742,424.027ZM143,432.014q1.256-.089,2.542-0.263t2.514-.41q1.227-.233,2.221-0.527v-3.393a21.841,21.841,0,0,1-2.163.438q-1.286.207-2.63,0.381t-2.6.263q-1.258.089-2.192,0.088-14.966,0-14.965-18.607,0-9.6,3.8-14.161t11.632-4.564a37.471,37.471,0,0,1,4.151.264q2.337,0.262,4.968.731v-3.511q-2.4-.468-4.968-0.761a40.723,40.723,0,0,0-4.5-.292q-19.174,0-19.174,22.352,0,21.942,19.057,22.06Q141.741,432.1,143,432.014Zm39.486-.878a12.247,12.247,0,0,0,5.232-3.218,13.239,13.239,0,0,0,3.04-5.588,30.275,30.275,0,0,0,.964-8.192V388.275h-3.975v25.687a25.363,25.363,0,0,1-.789,6.788,11.061,11.061,0,0,1-2.4,4.564,9.24,9.24,0,0,1-4,2.545,20.325,20.325,0,0,1-11.223,0,9.228,9.228,0,0,1-4-2.545,11.049,11.049,0,0,1-2.4-4.564,25.363,25.363,0,0,1-.789-6.788V388.275h-3.917v25.863a30.271,30.271,0,0,0,.965,8.192,13.408,13.408,0,0,0,3.01,5.588,12.026,12.026,0,0,0,5.2,3.218A28.275,28.275,0,0,0,182.485,431.136Zm20.225,0.439h3.683V393.717h0.292l5.086,12.288,10.288,23.873h3.8l10.288-23.873,5.027-12.288h0.351v37.858h3.682v-43.3h-5.436l-11.866,27.852-3.8,9.421h-0.351l-3.741-9.421-11.866-27.852H202.71v43.3Zm53.954,0h26.948v-3.452H260.639V411.271h21.1v-3.394h-21.1v-16.15h22.506v-3.452H256.664v43.3Zm36.008,0h3.683V394.536h0.292l3.332,4.974L323.3,431.575h3.624v-43.3h-3.683v37.1h-0.292l-3.507-5.15-23.207-31.948h-3.566v43.3Zm55.474,0h3.975V391.727h14.321v-3.452H333.883v3.452h14.263v39.848Zm46.355-2.37q3.858-3.012,3.858-8.631a11.274,11.274,0,0,0-.994-5,10.139,10.139,0,0,0-2.718-3.423,15.372,15.372,0,0,0-4.092-2.341q-2.367-.936-5.115-1.755a35.625,35.625,0,0,1-4.881-1.7A11.954,11.954,0,0,1,377.4,404.4a6.458,6.458,0,0,1-1.725-2.4,8.059,8.059,0,0,1-.526-3.013,7.2,7.2,0,0,1,2.835-5.968,12.036,12.036,0,0,1,7.629-2.224,37.624,37.624,0,0,1,5.056.38,49.7,49.7,0,0,1,5.524,1.083l0.117-3.511a50.807,50.807,0,0,0-10.931-1.4,19.815,19.815,0,0,0-5.9.819,13.048,13.048,0,0,0-4.5,2.37,10.733,10.733,0,0,0-2.894,3.715,11.094,11.094,0,0,0-1.023,4.8,12.3,12.3,0,0,0,.7,4.33,8.934,8.934,0,0,0,2.221,3.335,14.716,14.716,0,0,0,3.917,2.6,39.274,39.274,0,0,0,5.787,2.135q2.22,0.645,4.15,1.375a14.816,14.816,0,0,1,3.361,1.756,7.063,7.063,0,0,1,3.069,6.173,6.918,6.918,0,0,1-2.835,5.939q-2.837,2.077-8.155,2.077a44.661,44.661,0,0,1-6.2-.5,62.724,62.724,0,0,1-6.722-1.317l-0.117,3.453a62.189,62.189,0,0,0,6.781,1.316,46.723,46.723,0,0,0,6.371.5Q390.642,432.219,394.5,429.205Zm26.888,2.37h24.026v-3.394H425.364V388.275h-3.975v43.3Zm30.864,0H479.2v-3.452H456.228V411.271h21.1v-3.394h-21.1v-16.15h22.506v-3.452H452.253v43.3Zm36.008,0h3.683V394.536h0.292l3.332,4.974,23.324,32.065h3.624v-43.3h-3.683v37.1h-0.292l-3.507-5.15-23.207-31.948h-3.566v43.3Zm55.474,0h3.975V391.727h14.321v-3.452H529.472v3.452h14.263v39.848Zm46.589,0H594.3V391.727h14.322v-3.452h-32.56v3.452h14.263v39.848Zm52.639-5.032q4.764-5.618,4.764-16.559,0-11-4.764-16.648t-13.532-5.646q-8.886,0-13.62,5.646t-4.735,16.648q0,11,4.735,16.588t13.62,5.588Q638.2,432.16,642.963,426.543Zm-24.23-2.516q-3.624-4.681-3.624-14.043,0-9.421,3.624-14.131t10.7-4.711q7.072,0,10.668,4.711t3.595,14.131q0,9.3-3.595,14.014t-10.668,4.71Q622.357,428.708,618.733,424.027Zm74.179,5.178q3.858-3.012,3.858-8.631a11.274,11.274,0,0,0-.994-5,10.139,10.139,0,0,0-2.718-3.423,15.372,15.372,0,0,0-4.092-2.341q-2.367-.936-5.115-1.755a35.625,35.625,0,0,1-4.881-1.7,11.954,11.954,0,0,1-3.156-1.961,6.458,6.458,0,0,1-1.725-2.4,8.059,8.059,0,0,1-.526-3.013,7.2,7.2,0,0,1,2.835-5.968,12.036,12.036,0,0,1,7.629-2.224,37.612,37.612,0,0,1,5.056.38,49.7,49.7,0,0,1,5.524,1.083l0.117-3.511a50.807,50.807,0,0,0-10.931-1.4,19.815,19.815,0,0,0-5.9.819,13.057,13.057,0,0,0-4.5,2.37,10.733,10.733,0,0,0-2.894,3.715,11.094,11.094,0,0,0-1.023,4.8,12.3,12.3,0,0,0,.7,4.33,8.934,8.934,0,0,0,2.221,3.335,14.716,14.716,0,0,0,3.917,2.6,39.274,39.274,0,0,0,5.787,2.135q2.22,0.645,4.15,1.375a14.816,14.816,0,0,1,3.361,1.756,7.063,7.063,0,0,1,3.069,6.173,6.918,6.918,0,0,1-2.835,5.939q-2.837,2.077-8.155,2.077a44.661,44.661,0,0,1-6.2-.5,62.724,62.724,0,0,1-6.722-1.317l-0.117,3.453a62.189,62.189,0,0,0,6.781,1.316,46.723,46.723,0,0,0,6.371.5Q689.053,432.219,692.912,429.205Zm31.361,2.809q1.255-.089,2.543-0.263t2.513-.41q1.229-.233,2.222-0.527v-3.393a21.961,21.961,0,0,1-2.163.438q-1.287.207-2.631,0.381t-2.6.263q-1.258.089-2.192,0.088Q707,428.591,707,409.984q0-9.6,3.8-14.161t11.633-4.564a37.469,37.469,0,0,1,4.15.264q2.337,0.262,4.969.731v-3.511q-2.4-.468-4.969-0.761a40.708,40.708,0,0,0-4.5-.292q-19.174,0-19.174,22.352,0,21.942,19.057,22.06Q723.016,432.1,724.273,432.014Zm15.637-.439h3.975V411.1H769.2v20.48h3.917v-43.3H769.2V407.7H743.885V388.275H739.91v43.3Zm74.267-5.032q4.764-5.618,4.764-16.559,0-11-4.764-16.648t-13.532-5.646q-8.886,0-13.62,5.646t-4.735,16.648q0,11,4.735,16.588t13.62,5.588Q809.413,432.16,814.177,426.543Zm-24.23-2.516q-3.624-4.681-3.624-14.043,0-9.421,3.624-14.131t10.7-4.711q7.072,0,10.668,4.711t3.6,14.131q0,9.3-3.6,14.014t-10.668,4.71Q793.571,428.708,789.947,424.027Zm38.171,7.548h24.025v-3.394h-20.05V388.275h-3.975v43.3Zm25.954,0h3.916l5.027-13.517H882.89l5.086,13.517h3.916v-0.351l-15.9-42.949h-6.021l-15.9,42.949v0.351Zm10.113-17.027,5.962-15.916,2.63-7.314h0.351l2.689,7.314,5.963,15.916h-17.6Zm60.384,17.027h4.442l-10.931-17.32a12.7,12.7,0,0,0,7.307-4.418,13.714,13.714,0,0,0,2.338-8.4q0-7.2-4.53-10.474t-14.468-3.277a63.092,63.092,0,0,0-10.288.878v43.007h3.975V414.84q1.812,0.175,3.507.293t3.1,0.117q1.46,0,2.776-.059t2.543-.234Zm-19.2-19.865a18.867,18.867,0,0,1-2.952-.381V391.61q1.461-.233,3.332-0.38t3.507-.146q7.657,0,11.049,2.457t3.39,7.9a13.022,13.022,0,0,1-.789,4.8,7.141,7.141,0,0,1-2.485,3.218,11.617,11.617,0,0,1-4.384,1.814,31.322,31.322,0,0,1-6.547.585Q907.382,411.856,905.366,411.71Zm53.106,17.5q3.858-3.012,3.858-8.631a11.274,11.274,0,0,0-.994-5,10.139,10.139,0,0,0-2.718-3.423,15.357,15.357,0,0,0-4.092-2.341q-2.367-.936-5.115-1.755a35.607,35.607,0,0,1-4.88-1.7,11.944,11.944,0,0,1-3.157-1.961,6.469,6.469,0,0,1-1.725-2.4,8.079,8.079,0,0,1-.526-3.013,7.2,7.2,0,0,1,2.835-5.968,12.036,12.036,0,0,1,7.629-2.224,37.612,37.612,0,0,1,5.056.38,49.7,49.7,0,0,1,5.524,1.083l0.117-3.511a50.807,50.807,0,0,0-10.931-1.4,19.82,19.82,0,0,0-5.9.819,13.057,13.057,0,0,0-4.5,2.37,10.733,10.733,0,0,0-2.894,3.715,11.094,11.094,0,0,0-1.023,4.8,12.3,12.3,0,0,0,.7,4.33,8.934,8.934,0,0,0,2.221,3.335,14.716,14.716,0,0,0,3.917,2.6,39.274,39.274,0,0,0,5.787,2.135q2.22,0.645,4.15,1.375a14.816,14.816,0,0,1,3.361,1.756,7.063,7.063,0,0,1,3.069,6.173,6.918,6.918,0,0,1-2.835,5.939q-2.835,2.077-8.154,2.077a44.674,44.674,0,0,1-6.2-.5,62.724,62.724,0,0,1-6.722-1.317l-0.117,3.453a62.189,62.189,0,0,0,6.781,1.316,46.723,46.723,0,0,0,6.371.5Q954.613,432.219,958.472,429.205Zm11.925,11.44,3.741-14.1h-4.092l-2.689,13.516ZM60.724,500.6a44.936,44.936,0,0,0,5.9-1.288V478.544h-3.8v18.2q-1.871.351-4.033,0.585a34.72,34.72,0,0,1-3.624.234q-15.491,0-15.491-18.607,0-9.537,3.975-14.131t12.276-4.594q1.169,0,2.28.059t2.338,0.234q1.228,0.175,2.6.439t3.127,0.673v-3.511a54.218,54.218,0,0,0-5.466-1.083,36.237,36.237,0,0,0-5.115-.38q-20.11,0-20.109,22.352,0,21.942,19.583,22.06A37.714,37.714,0,0,0,60.724,500.6Zm45.389-5.091q4.764-5.618,4.765-16.559,0-11-4.765-16.648T92.581,456.66q-8.886,0-13.62,5.646t-4.735,16.648q0,11,4.735,16.588t13.62,5.588Q101.349,501.13,106.113,495.513ZM81.884,493q-3.625-4.682-3.624-14.043,0-9.421,3.624-14.131t10.7-4.711q7.072,0,10.668,4.711t3.595,14.131q0,9.3-3.595,14.014t-10.668,4.71Q85.507,497.678,81.884,493Zm48.575,7.548h5.378l16.192-43.3h-4.15l-11.574,31.071-2.981,8.25h-0.351l-2.923-8.25-11.574-31.071h-4.15Zm28.117,0h26.948v-3.452H162.551V480.241h21.1v-3.394h-21.1V460.7h22.505v-3.452h-26.48v43.3Zm62.137,0h4.443l-10.931-17.32a12.709,12.709,0,0,0,7.307-4.418,13.714,13.714,0,0,0,2.338-8.4q0-7.2-4.531-10.474t-14.467-3.277a63.073,63.073,0,0,0-10.288.878v43.007h3.975V483.81q1.81,0.175,3.507.293t3.1,0.117q1.461,0,2.777-.059t2.542-.234Zm-19.2-19.865a18.832,18.832,0,0,1-2.952-.381V460.58q1.46-.232,3.331-0.38t3.508-.146q7.657,0,11.048,2.457t3.39,7.9a13.022,13.022,0,0,1-.789,4.8,7.139,7.139,0,0,1-2.484,3.218,11.624,11.624,0,0,1-4.384,1.814,31.322,31.322,0,0,1-6.547.585Q203.528,480.826,201.511,480.68Zm31.711,19.865H236.9V463.506H237.2l3.332,4.974,23.323,32.065h3.625v-43.3h-3.683v37.1H263.5l-3.508-5.15-23.206-31.948h-3.566v43.3Zm45.711,0h3.683V462.687h0.292l5.086,12.288,10.288,23.873h3.8l10.288-23.873,5.027-12.288h0.351v37.858h3.682v-43.3h-5.436L304.128,485.1l-3.8,9.421h-0.351l-3.741-9.421L284.37,457.245h-5.437v43.3Zm53.954,0h26.948v-3.452H336.862V480.241h21.1v-3.394h-21.1V460.7h22.506v-3.452H332.887v43.3Zm36.008,0h3.683V463.506h0.292l3.332,4.974,23.324,32.065h3.624v-43.3h-3.683v37.1h-0.292l-3.507-5.15-23.207-31.948H368.9v43.3Zm55.474,0h3.975V460.7h14.321v-3.452H410.106V460.7h14.263v39.848Zm31.8,0h3.917l5.027-13.517h19.875l5.085,13.517h3.917v-0.351l-15.9-42.949h-6.021l-15.9,42.949v0.351Zm10.113-17.027,5.962-15.916,2.631-7.314h0.351l2.689,7.314,5.962,15.916H466.281Zm56.41,17.086a44.961,44.961,0,0,0,5.9-1.288V478.544h-3.8v18.2q-1.872.351-4.033,0.585a34.74,34.74,0,0,1-3.625.234q-15.49,0-15.49-18.607,0-9.537,3.975-14.131t12.275-4.594q1.168,0,2.28.059t2.338,0.234q1.228,0.175,2.6.439t3.128,0.673v-3.511a54.242,54.242,0,0,0-5.466-1.083,36.24,36.24,0,0,0-5.115-.38q-20.109,0-20.108,22.352,0,21.942,19.582,22.06A37.721,37.721,0,0,0,522.691,500.6Zm15.782-.059h26.948v-3.452H542.448V480.241h21.1v-3.394h-21.1V460.7h22.5v-3.452h-26.48v43.3Zm36.008,0h3.682V463.506h0.293l3.331,4.974,23.324,32.065h3.624v-43.3h-3.682v37.1H604.76l-3.507-5.15-23.207-31.948h-3.565v43.3Zm64.8,0.439q1.255-.088,2.543-0.263t2.513-.41q1.229-.232,2.221-0.527v-3.393a21.874,21.874,0,0,1-2.162.438q-1.287.207-2.631,0.381t-2.6.263q-1.258.088-2.192,0.088Q622,497.561,622,478.954q0-9.6,3.8-14.161t11.632-4.564a37.471,37.471,0,0,1,4.151.264q2.337,0.262,4.968.731v-3.511q-2.4-.468-4.968-0.761a40.723,40.723,0,0,0-4.5-.292q-19.175,0-19.174,22.352,0,21.942,19.057,22.06Q638.02,501.072,639.278,500.984Zm15.637-.439h3.975v-43.3h-3.975v43.3Zm15.432,0H697.3v-3.452H674.322V480.241h21.1v-3.394h-21.1V460.7h22.5v-3.452h-26.48v43.3Zm57.4-2.37q3.858-3.012,3.858-8.631a11.275,11.275,0,0,0-.993-5,10.154,10.154,0,0,0-2.719-3.423,15.357,15.357,0,0,0-4.092-2.341q-2.367-.936-5.114-1.755a35.625,35.625,0,0,1-4.881-1.7,11.969,11.969,0,0,1-3.157-1.96,6.466,6.466,0,0,1-1.724-2.4,8.059,8.059,0,0,1-.527-3.013,7.193,7.193,0,0,1,2.836-5.968,12.031,12.031,0,0,1,7.628-2.224,37.612,37.612,0,0,1,5.056.38,49.7,49.7,0,0,1,5.524,1.083l0.117-3.511a50.807,50.807,0,0,0-10.931-1.4,19.82,19.82,0,0,0-5.9.819,13.057,13.057,0,0,0-4.5,2.37,10.718,10.718,0,0,0-2.893,3.715,11.079,11.079,0,0,0-1.023,4.8,12.3,12.3,0,0,0,.7,4.33,8.946,8.946,0,0,0,2.221,3.335,14.716,14.716,0,0,0,3.917,2.6,39.274,39.274,0,0,0,5.787,2.135q2.222,0.645,4.15,1.375a14.816,14.816,0,0,1,3.361,1.756,7.063,7.063,0,0,1,3.069,6.173,6.918,6.918,0,0,1-2.835,5.939q-2.835,2.077-8.154,2.077a44.686,44.686,0,0,1-6.2-.5,62.724,62.724,0,0,1-6.722-1.317l-0.117,3.453a62.189,62.189,0,0,0,6.781,1.316,46.736,46.736,0,0,0,6.372.5Q723.89,501.189,727.749,498.175Zm20.342,2.37h3.916l5.027-13.517h19.875L782,500.545h3.916v-0.351l-15.9-42.949h-6.021l-15.9,42.949v0.351ZM758.2,483.518l5.962-15.916,2.631-7.314h0.35l2.689,7.314,5.963,15.916H758.2Zm34.254,17.027h3.683V463.506h0.292l3.332,4.974,23.324,32.065h3.624v-43.3H823.03v37.1h-0.292l-3.507-5.15-23.207-31.948h-3.566v43.3Zm73.566-4.74q5.465-5.382,5.465-16.91,0-11.467-5.261-16.823t-16.543-5.354q-1.051,0-2.513.059t-3.011.146q-1.549.089-3.127,0.2t-2.864.234v42.949a19.731,19.731,0,0,0,4.325.673q2.864,0.2,6.2.205Q860.557,501.189,866.024,495.805Zm-18.239,1.9q-0.906-.029-1.782-0.088t-1.813-.175c-0.623-.078-1.306-0.176-2.045-0.293V460.7q1.754-.233,3.975-0.351t3.858-.117q9.06,0,13.269,4.477t4.209,14.189q0,9.773-4.3,14.307t-13.474,4.534Q848.691,497.736,847.785,497.707ZM37.868,569.515h3.975v-43.3H37.868v43.3Zm15.432,0h3.683V532.476h0.292l3.332,4.974L83.93,569.515h3.624v-43.3H83.872v37.1H83.58l-3.507-5.15L56.865,526.215H53.3v43.3Zm67.106-2.37q3.858-3.012,3.858-8.631a11.274,11.274,0,0,0-.994-5,10.139,10.139,0,0,0-2.718-3.423,15.372,15.372,0,0,0-4.092-2.341q-2.367-.936-5.115-1.755a35.625,35.625,0,0,1-4.881-1.7,11.979,11.979,0,0,1-3.156-1.96,6.469,6.469,0,0,1-1.725-2.4,8.059,8.059,0,0,1-.526-3.013,7.2,7.2,0,0,1,2.835-5.968,12.036,12.036,0,0,1,7.629-2.224,37.624,37.624,0,0,1,5.056.38,49.7,49.7,0,0,1,5.524,1.083l0.117-3.511a50.807,50.807,0,0,0-10.931-1.4,19.815,19.815,0,0,0-5.9.819,13.048,13.048,0,0,0-4.5,2.37,10.726,10.726,0,0,0-2.894,3.715,11.089,11.089,0,0,0-1.023,4.8,12.3,12.3,0,0,0,.7,4.33,8.945,8.945,0,0,0,2.221,3.335,14.716,14.716,0,0,0,3.917,2.6,39.274,39.274,0,0,0,5.787,2.135q2.22,0.645,4.15,1.375a14.816,14.816,0,0,1,3.361,1.756,7.063,7.063,0,0,1,3.069,6.173,6.918,6.918,0,0,1-2.835,5.939q-2.837,2.077-8.155,2.077a44.661,44.661,0,0,1-6.2-.5,62.72,62.72,0,0,1-6.722-1.317l-0.117,3.453a62.184,62.184,0,0,0,6.781,1.316,46.723,46.723,0,0,0,6.371.5Q116.547,570.159,120.406,567.145Zm22.037,2.37h3.975V529.667H160.74v-3.452H128.18v3.452h14.263v39.848Zm25.252,0h3.975v-43.3H167.7v43.3Zm25.195,0h3.975V529.667h14.321v-3.452h-32.56v3.452H192.89v39.848Zm49.1-.439a12.243,12.243,0,0,0,5.231-3.218,13.239,13.239,0,0,0,3.04-5.588,30.271,30.271,0,0,0,.965-8.192V526.215h-3.975V551.9a25.319,25.319,0,0,1-.79,6.788,11.071,11.071,0,0,1-2.4,4.564,9.252,9.252,0,0,1-4,2.545,20.328,20.328,0,0,1-11.224,0,9.234,9.234,0,0,1-4-2.545,11.061,11.061,0,0,1-2.4-4.564,25.363,25.363,0,0,1-.789-6.788V526.215h-3.916v25.863a30.275,30.275,0,0,0,.964,8.192,13.4,13.4,0,0,0,3.011,5.588,12.022,12.022,0,0,0,5.2,3.218A28.279,28.279,0,0,0,241.992,569.076Zm29.987,0.439h3.975V529.667h14.321v-3.452h-32.56v3.452h14.264v39.848Zm25.252,0h3.975v-43.3h-3.975v43.3Zm45.04-5.032q4.762-5.617,4.764-16.559,0-11-4.764-16.648t-13.533-5.646q-8.886,0-13.62,5.646t-4.735,16.648q0,11,4.735,16.588t13.62,5.588Q337.507,570.1,342.271,564.483Zm-24.23-2.516q-3.625-4.682-3.625-14.043,0-9.421,3.625-14.131t10.7-4.711q7.072,0,10.668,4.711T343,547.924q0,9.3-3.595,14.014t-10.668,4.71Q321.664,566.648,318.041,561.967Zm38.17,7.548h3.683V532.476h0.292l3.332,4.974,23.324,32.065h3.624v-43.3h-3.683v37.1h-0.292l-3.507-5.15-23.207-31.948h-3.566v43.3Zm67.106-2.37q3.858-3.012,3.859-8.631a11.274,11.274,0,0,0-.994-5,10.139,10.139,0,0,0-2.718-3.423,15.372,15.372,0,0,0-4.092-2.341q-2.368-.936-5.115-1.755a35.625,35.625,0,0,1-4.881-1.7,11.986,11.986,0,0,1-3.157-1.96,6.466,6.466,0,0,1-1.724-2.4,8.059,8.059,0,0,1-.526-3.013,7.192,7.192,0,0,1,2.835-5.968,12.033,12.033,0,0,1,7.628-2.224,37.638,37.638,0,0,1,5.057.38,49.794,49.794,0,0,1,5.524,1.083l0.117-3.511a50.815,50.815,0,0,0-10.932-1.4,19.82,19.82,0,0,0-5.9.819,13.067,13.067,0,0,0-4.5,2.37,10.73,10.73,0,0,0-2.893,3.715,11.079,11.079,0,0,0-1.023,4.8,12.319,12.319,0,0,0,.7,4.33,8.949,8.949,0,0,0,2.222,3.335,14.709,14.709,0,0,0,3.916,2.6,39.359,39.359,0,0,0,5.787,2.135q2.221,0.645,4.151,1.375a14.837,14.837,0,0,1,3.361,1.756,7.069,7.069,0,0,1,3.069,6.173,6.92,6.92,0,0,1-2.835,5.939q-2.837,2.077-8.155,2.077a44.661,44.661,0,0,1-6.2-.5,62.7,62.7,0,0,1-6.723-1.317l-0.117,3.453a62.236,62.236,0,0,0,6.781,1.316,46.736,46.736,0,0,0,6.372.5Q419.459,570.159,423.317,567.145Zm20.342,2.37h3.917L452.6,556h19.875l5.085,13.517h3.917v-0.351l-15.9-42.949h-6.021l-15.9,42.949v0.351Zm10.113-17.027,5.962-15.916,2.631-7.314h0.351l2.688,7.314,5.963,15.916h-17.6Zm60.384,17.027H518.6L507.667,552.2a12.7,12.7,0,0,0,7.307-4.418,13.708,13.708,0,0,0,2.339-8.4q0-7.2-4.531-10.474t-14.468-3.277a63.092,63.092,0,0,0-10.288.878v43.007H492V552.78q1.812,0.176,3.508.293t3.1,0.117q1.459,0,2.777-.059t2.542-.234Zm-19.2-19.865a18.867,18.867,0,0,1-2.952-.381V529.55q1.461-.232,3.332-0.38t3.508-.146q7.656,0,11.048,2.457t3.39,7.9a13.022,13.022,0,0,1-.789,4.8,7.139,7.139,0,0,1-2.484,3.218,11.624,11.624,0,0,1-4.384,1.814,31.326,31.326,0,0,1-6.548.585Q496.971,549.8,494.953,549.65Zm61.319,14.833q4.764-5.617,4.764-16.559,0-11-4.764-16.648T542.74,525.63q-8.886,0-13.62,5.646t-4.735,16.648q0,11,4.735,16.588t13.62,5.588Q551.508,570.1,556.272,564.483Zm-24.23-2.516q-3.624-4.682-3.624-14.043,0-9.421,3.624-14.131t10.7-4.711q7.072,0,10.668,4.711t3.6,14.131q0,9.3-3.6,14.014t-10.668,4.71Q535.666,566.648,532.042,561.967Zm62.021,7.109a12.253,12.253,0,0,0,5.232-3.218,13.237,13.237,0,0,0,3.039-5.588,30.271,30.271,0,0,0,.965-8.192V526.215h-3.975V551.9a25.363,25.363,0,0,1-.789,6.788,11.072,11.072,0,0,1-2.4,4.564,9.246,9.246,0,0,1-4,2.545,20.328,20.328,0,0,1-11.224,0,9.24,9.24,0,0,1-4-2.545,11.059,11.059,0,0,1-2.4-4.564,25.319,25.319,0,0,1-.79-6.788V526.215H569.8v25.863a30.275,30.275,0,0,0,.964,8.192,13.4,13.4,0,0,0,3.011,5.588,12.028,12.028,0,0,0,5.2,3.218A28.279,28.279,0,0,0,594.063,569.076Zm20.225,0.439h3.682V532.476h0.293l3.332,4.974,23.324,32.065h3.624v-43.3H644.86v37.1h-0.292l-3.508-5.15-23.206-31.948h-3.566v43.3Zm73.565-4.74q5.466-5.382,5.466-16.91,0-11.467-5.261-16.823t-16.543-5.354q-1.052,0-2.513.059t-3.011.146q-1.55.088-3.127,0.2t-2.865.234v42.949a19.752,19.752,0,0,0,4.326.673q2.863,0.2,6.2.205Q682.388,570.159,687.853,564.775Zm-18.238,1.9q-0.906-.029-1.783-0.088t-1.812-.175q-0.936-.117-2.046-0.293V529.667q1.753-.233,3.975-0.351t3.858-.117q9.06,0,13.27,4.477t4.209,14.189q0,9.773-4.3,14.307t-13.474,4.534Q670.521,566.706,669.615,566.677Zm55.738,2.838h3.975V529.667h14.321v-3.452h-32.56v3.452h14.264v39.848Zm25.252,0h3.975v-20.48h25.311v20.48h3.916v-43.3h-3.916v19.427H754.58V526.215h-3.975v43.3Zm44.66,0h26.948v-3.452H799.24V549.211h21.1v-3.394h-21.1v-16.15h22.5v-3.452h-26.48v43.3Zm56.934,0h5.378l8.652-30.368,1.753-7.315h0.293l1.753,7.256,8.535,30.427h5.319l12.217-43.3h-4.15L883.531,556.7l-2.162,8.426h-0.351l-2.28-8.426-8.476-30.486h-4.209l-8.71,30.486-2.221,8.426h-0.351l-2.163-8.426-8.242-30.486h-4.15Zm80.23-5.032q4.764-5.617,4.764-16.559,0-11-4.764-16.648T918.9,525.63q-8.886,0-13.62,5.646t-4.735,16.648q0,11,4.735,16.588T918.9,570.1Q927.664,570.1,932.429,564.483ZM908.2,561.967q-3.626-4.682-3.625-14.043,0-9.421,3.625-14.131t10.7-4.711q7.072,0,10.668,4.711t3.595,14.131q0,9.3-3.595,14.014t-10.668,4.71Q911.823,566.648,908.2,561.967Zm64.3,7.548h4.442L966.011,552.2a12.7,12.7,0,0,0,7.307-4.418,13.714,13.714,0,0,0,2.338-8.4q0-7.2-4.53-10.474t-14.468-3.277a63.083,63.083,0,0,0-10.288.878v43.007h3.975V552.78q1.811,0.176,3.507.293t3.1,0.117q1.461,0,2.777-.059t2.543-.234ZM953.3,549.65a18.867,18.867,0,0,1-2.952-.381V529.55q1.461-.232,3.332-0.38t3.507-.146q7.658,0,11.048,2.457t3.391,7.9a13.022,13.022,0,0,1-.789,4.8,7.141,7.141,0,0,1-2.485,3.218,11.617,11.617,0,0,1-4.384,1.814,31.322,31.322,0,0,1-6.547.585Q955.314,549.8,953.3,549.65Zm31.711,19.865h24.022v-3.394H988.983V526.215h-3.975v43.3Zm58.722-4.74q5.46-5.382,5.46-16.91,0-11.467-5.26-16.823t-16.54-5.354q-1.05,0-2.52.059c-0.97.039-1.97,0.088-3.01,0.146s-2.07.127-3.12,0.2-2.01.156-2.87,0.234v42.949a19.86,19.86,0,0,0,4.33.673q2.865,0.2,6.19.205Q1038.255,570.159,1043.73,564.775Zm-18.24,1.9c-0.61-.019-1.2-0.048-1.78-0.088s-1.19-.1-1.82-0.175-1.3-.176-2.04-0.293V529.667c1.17-.155,2.49-0.272,3.97-0.351s2.77-.117,3.86-0.117q9.06,0,13.27,4.477t4.21,14.189q0,9.773-4.3,14.307t-13.47,4.534C1026.72,566.706,1026.09,566.7,1025.49,566.677Z"/>
  <path id="The_East_Asia_Library_houses_" data-name="The East Asia Library houses " class="cls-2" d="M-2005.44,113.345h3.97V73.5h14.32V70.047h-32.56V73.5h14.27v39.846Zm25.25,0h3.97V92.866h25.31v20.479h3.92v-43.3h-3.92V89.473h-25.31V70.047h-3.97v43.3Zm44.65,0h26.95v-3.453h-22.97V93.042h21.1V89.648h-21.1V73.5h22.5V70.047h-26.48v43.3Zm50.62,0h26.95v-3.453h-22.97V93.042h21.1V89.648h-21.1V73.5h22.5V70.047h-26.48v43.3Zm31.1,0h3.91l5.03-13.516h19.87l5.09,13.516h3.92v-0.352l-15.9-42.946h-6.02l-15.9,42.946v0.352Zm10.11-17.027,5.96-15.915,2.63-7.314h0.35l2.69,7.314,5.96,15.915h-17.59Zm55.65,14.657q3.855-3.013,3.85-8.63a11.307,11.307,0,0,0-.99-5,10.1,10.1,0,0,0-2.72-3.423,15.362,15.362,0,0,0-4.09-2.34q-2.37-.935-5.11-1.755a35.946,35.946,0,0,1-4.89-1.7,12.067,12.067,0,0,1-3.15-1.96,6.467,6.467,0,0,1-1.73-2.4,8.085,8.085,0,0,1-.52-3.013,7.19,7.19,0,0,1,2.83-5.968,12.051,12.051,0,0,1,7.63-2.223,37.627,37.627,0,0,1,5.06.38,49.384,49.384,0,0,1,5.52,1.082l0.12-3.511a50.846,50.846,0,0,0-10.93-1.4,19.863,19.863,0,0,0-5.91.819,13.109,13.109,0,0,0-4.5,2.37,10.788,10.788,0,0,0-2.89,3.715,11.117,11.117,0,0,0-1.02,4.8,12.249,12.249,0,0,0,.7,4.33,9.006,9.006,0,0,0,2.22,3.335,14.649,14.649,0,0,0,3.92,2.6,38.926,38.926,0,0,0,5.78,2.136c1.48,0.43,2.87.888,4.15,1.375a14.587,14.587,0,0,1,3.36,1.755,7.388,7.388,0,0,1,2.25,2.516,7.468,7.468,0,0,1,.82,3.657,6.914,6.914,0,0,1-2.83,5.939q-2.835,2.077-8.16,2.077a44.524,44.524,0,0,1-6.19-.5,63.12,63.12,0,0,1-6.73-1.317l-0.11,3.452a61.7,61.7,0,0,0,6.78,1.317,46.624,46.624,0,0,0,6.37.5Q-1791.925,113.988-1788.06,110.975Zm22.03,2.37h3.98V73.5h14.32V70.047h-32.56V73.5h14.26v39.846Zm31.8,0h3.92l5.02-13.516h19.88l5.08,13.516h3.92v-0.352l-15.9-42.946h-6.02l-15.9,42.946v0.352Zm10.11-17.027,5.96-15.915,2.63-7.314h0.35l2.69,7.314,5.97,15.915h-17.6Zm55.65,14.657q3.855-3.013,3.86-8.63a11.3,11.3,0,0,0-1-5,10.1,10.1,0,0,0-2.72-3.423,15.362,15.362,0,0,0-4.09-2.34q-2.37-.935-5.11-1.755a35.285,35.285,0,0,1-4.88-1.7,11.971,11.971,0,0,1-3.16-1.96,6.437,6.437,0,0,1-1.72-2.4,8.082,8.082,0,0,1-.53-3.013,7.19,7.19,0,0,1,2.83-5.968,12.051,12.051,0,0,1,7.63-2.223,37.627,37.627,0,0,1,5.06.38,49.384,49.384,0,0,1,5.52,1.082l0.12-3.511a50.771,50.771,0,0,0-10.93-1.4,19.794,19.794,0,0,0-5.9.819A13.067,13.067,0,0,0-1688,72.3a10.788,10.788,0,0,0-2.89,3.715,11.117,11.117,0,0,0-1.02,4.8,12.249,12.249,0,0,0,.7,4.33,9.006,9.006,0,0,0,2.22,3.335,14.649,14.649,0,0,0,3.92,2.6,38.926,38.926,0,0,0,5.78,2.136c1.48,0.43,2.87.888,4.15,1.375a14.587,14.587,0,0,1,3.36,1.755,7.523,7.523,0,0,1,2.26,2.516,7.581,7.581,0,0,1,.81,3.657,6.914,6.914,0,0,1-2.83,5.939q-2.835,2.077-8.16,2.077a44.64,44.64,0,0,1-6.19-.5,62.445,62.445,0,0,1-6.72-1.317l-0.12,3.452a61.7,61.7,0,0,0,6.78,1.317,46.742,46.742,0,0,0,6.37.5Q-1672.335,113.988-1668.47,110.975Zm12.27,2.37h3.98v-43.3h-3.98v43.3Zm10.52,0h3.92l5.03-13.516h19.87l5.09,13.516h3.91v-0.352l-15.9-42.946h-6.02l-15.9,42.946v0.352Zm10.12-17.027,5.96-15.915,2.63-7.314h0.35l2.69,7.314,5.96,15.915h-17.59Zm47.22,17.027h24.03v-3.394h-20.05v-39.9h-3.98v43.3Zm30.87,0h3.97v-43.3h-3.97v43.3Zm45.12-11.293a10.791,10.791,0,0,0-2.25-7.109,10.832,10.832,0,0,0-6.63-3.54V91.169a8.407,8.407,0,0,0,5.49-3.364,11.083,11.083,0,0,0,1.99-6.7q0-6.144-3.68-8.864t-11.99-2.721q-2.685,0-5.58.2t-7.04.614v42.712c2.34,0.312,4.62.536,6.87,0.673s4.35,0.205,6.34.205q16.485,0,16.48-11.878h0Zm-21.98,8.513a29.694,29.694,0,0,1-3.86-.438V92.983h10.18q6.015,0,8.85,2.165t2.84,6.67c0,3.043-1.03,5.286-3.07,6.729s-5.22,2.165-9.5,2.165C-1530.92,110.712-1532.73,110.663-1534.33,110.565Zm-3.86-20.742V73.265a35.663,35.663,0,0,1,4.01-.38c1.42-.058,3.07-0.088,4.94-0.088a25.773,25.773,0,0,1,5.29.468,9.318,9.318,0,0,1,3.56,1.463,5.776,5.776,0,0,1,2.02,2.633,10.7,10.7,0,0,1,.64,3.92q0,4.623-2.42,6.582t-8.1,1.96h-9.94Zm60.97,23.522h4.44l-10.93-17.319a12.723,12.723,0,0,0,7.31-4.418,13.7,13.7,0,0,0,2.34-8.4q0-7.2-4.53-10.473t-14.47-3.276a63.27,63.27,0,0,0-10.29.878v43.005h3.98V96.611c1.2,0.117,2.37.215,3.5,0.293s2.17,0.117,3.1.117c0.98,0,1.9-.019,2.78-0.059s1.72-.117,2.54-0.234Zm-19.2-19.865a18.768,18.768,0,0,1-2.95-.38V73.382q1.455-.233,3.33-0.38,1.86-.145,3.51-0.146,7.65,0,11.04,2.458t3.39,7.9a12.935,12.935,0,0,1-.79,4.8,7.088,7.088,0,0,1-2.48,3.218,11.6,11.6,0,0,1-4.38,1.814,31.385,31.385,0,0,1-6.55.585C-1493.7,93.627-1495.08,93.578-1496.42,93.48Zm26.8,19.865h3.91l5.03-13.516h19.87l5.09,13.516h3.92v-0.352l-15.9-42.946h-6.02l-15.9,42.946v0.352Zm10.11-17.027,5.96-15.915,2.63-7.314h0.35l2.69,7.314,5.96,15.915h-17.59Zm60.38,17.027h4.44l-10.93-17.319a12.723,12.723,0,0,0,7.31-4.418,13.7,13.7,0,0,0,2.34-8.4q0-7.2-4.53-10.473t-14.47-3.276a63.27,63.27,0,0,0-10.29.878v43.005h3.98V96.611c1.2,0.117,2.37.215,3.5,0.293s2.17,0.117,3.1.117c0.98,0,1.9-.019,2.78-0.059s1.72-.117,2.54-0.234Zm-19.2-19.865a18.768,18.768,0,0,1-2.95-.38V73.382q1.455-.233,3.33-0.38c1.25-.1,2.41-0.146,3.51-0.146q7.65,0,11.04,2.458t3.39,7.9a12.935,12.935,0,0,1-.79,4.8,7.088,7.088,0,0,1-2.48,3.218,11.6,11.6,0,0,1-4.38,1.814,31.385,31.385,0,0,1-6.55.585C-1415.61,93.627-1416.99,93.578-1418.33,93.48Zm41.3,19.865h3.97V98.6l15.55-28.553h-4.27l-11.4,21.064-1.69,3.686h-0.41l-1.75-3.686-11.34-21.064h-4.33l15.67,28.67v14.628Zm38.63,0h3.98V92.866h25.31v20.479h3.91v-43.3h-3.91V89.473h-25.31V70.047h-3.98v43.3Zm74.26-5.032q4.77-5.618,4.77-16.559,0-11-4.77-16.646-4.755-5.646-13.53-5.646-8.88,0-13.62,5.646-4.725,5.647-4.73,16.646t4.73,16.588q4.74,5.587,13.62,5.588Q-1268.895,113.93-1264.14,108.313Zm-24.22-2.516q-3.63-4.68-3.63-14.043,0-9.42,3.63-14.13,3.615-4.709,10.69-4.71t10.67,4.71q3.6,4.71,3.59,14.13,0,9.3-3.59,14.014t-10.67,4.71Q-1284.735,110.478-1288.36,105.8Zm62.01,7.109a12.2,12.2,0,0,0,5.23-3.218,13.131,13.131,0,0,0,3.04-5.588,29.976,29.976,0,0,0,.97-8.191V70.047h-3.98V95.733a25.2,25.2,0,0,1-.79,6.787,11,11,0,0,1-2.39,4.564,9.237,9.237,0,0,1-4.01,2.545,17.918,17.918,0,0,1-5.61.79,17.962,17.962,0,0,1-5.61-.79,9.2,9.2,0,0,1-4-2.545,11.011,11.011,0,0,1-2.4-4.564,25.2,25.2,0,0,1-.79-6.787V70.047h-3.92V95.909a30.371,30.371,0,0,0,.97,8.191,13.419,13.419,0,0,0,3.01,5.588,12.031,12.031,0,0,0,5.2,3.218,24.62,24.62,0,0,0,7.54,1.024A24.575,24.575,0,0,0-1226.35,112.906Zm41.62-1.931q3.855-3.013,3.86-8.63a11.165,11.165,0,0,0-1-5,10.194,10.194,0,0,0-2.71-3.423,15.426,15.426,0,0,0-4.1-2.34c-1.57-.624-3.28-1.209-5.11-1.755a35.285,35.285,0,0,1-4.88-1.7,11.971,11.971,0,0,1-3.16-1.96,6.437,6.437,0,0,1-1.72-2.4,8.082,8.082,0,0,1-.53-3.013,7.2,7.2,0,0,1,2.84-5.968,12.021,12.021,0,0,1,7.62-2.223,37.627,37.627,0,0,1,5.06.38,49.384,49.384,0,0,1,5.52,1.082l0.12-3.511a50.771,50.771,0,0,0-10.93-1.4,19.794,19.794,0,0,0-5.9.819,12.929,12.929,0,0,0-4.5,2.37,10.7,10.7,0,0,0-2.9,3.715,11.117,11.117,0,0,0-1.02,4.8,12.249,12.249,0,0,0,.7,4.33,9.006,9.006,0,0,0,2.22,3.335,14.811,14.811,0,0,0,3.92,2.6,39.513,39.513,0,0,0,5.79,2.136c1.48,0.43,2.86.888,4.15,1.375a15.01,15.01,0,0,1,3.36,1.755,7.6,7.6,0,0,1,2.25,2.516,7.58,7.58,0,0,1,.82,3.657,6.921,6.921,0,0,1-2.84,5.939q-2.835,2.077-8.15,2.077a44.656,44.656,0,0,1-6.2-.5,62.445,62.445,0,0,1-6.72-1.317l-0.12,3.452a62.162,62.162,0,0,0,6.78,1.317,46.742,46.742,0,0,0,6.37.5Q-1188.58,113.988-1184.73,110.975Zm12.27,2.37h26.95v-3.453h-22.97V93.042h21.1V89.648h-21.1V73.5h22.5V70.047h-26.48v43.3Zm57.4-2.37q3.87-3.013,3.86-8.63a11.307,11.307,0,0,0-.99-5,10.222,10.222,0,0,0-2.72-3.423,15.362,15.362,0,0,0-4.09-2.34q-2.37-.935-5.12-1.755a35.761,35.761,0,0,1-4.88-1.7,11.9,11.9,0,0,1-3.15-1.96,6.467,6.467,0,0,1-1.73-2.4,8.085,8.085,0,0,1-.52-3.013,7.19,7.19,0,0,1,2.83-5.968,12.031,12.031,0,0,1,7.63-2.223,37.488,37.488,0,0,1,5.05.38,49.114,49.114,0,0,1,5.53,1.082l0.12-3.511a50.846,50.846,0,0,0-10.93-1.4,19.816,19.816,0,0,0-5.91.819,13.109,13.109,0,0,0-4.5,2.37,10.669,10.669,0,0,0-2.89,3.715,10.978,10.978,0,0,0-1.03,4.8,12.242,12.242,0,0,0,.71,4.33,8.769,8.769,0,0,0,2.22,3.335,14.585,14.585,0,0,0,3.91,2.6,39.513,39.513,0,0,0,5.79,2.136c1.48,0.43,2.86.888,4.15,1.375a14.587,14.587,0,0,1,3.36,1.755,7.388,7.388,0,0,1,2.25,2.516,7.468,7.468,0,0,1,.82,3.657,6.921,6.921,0,0,1-2.84,5.939c-1.89,1.385-4.6,2.077-8.15,2.077a44.773,44.773,0,0,1-6.2-.5,63.422,63.422,0,0,1-6.72-1.317l-0.11,3.452a61.7,61.7,0,0,0,6.78,1.317,46.624,46.624,0,0,0,6.37.5Q-1118.915,113.988-1115.06,110.975Z"/>
  <path id="volumes_" data-name="volumes " class="cls-2" d="M-1036.95,485.182h5.38l16.19-43.3h-4.15l-11.57,31.069-2.99,8.25h-0.35l-2.92-8.25-11.57-31.069h-4.15Zm56.845-5.032q4.763-5.618,4.763-16.558,0-11-4.763-16.646t-13.532-5.647q-8.886,0-13.623,5.647t-4.73,16.646q0,11,4.73,16.587t13.623,5.588Q-984.869,485.767-980.1,480.15Zm-24.225-2.516q-3.63-4.68-3.63-14.042,0-9.42,3.63-14.131t10.693-4.71q7.071,0,10.667,4.71t3.6,14.131q0,9.3-3.6,14.013t-10.667,4.71Q-1000.711,482.315-1004.33,477.634Zm38.164,7.548h24.024v-3.394h-20.049v-39.9h-3.975v43.3Zm52.666-.439a12.243,12.243,0,0,0,5.231-3.218,13.239,13.239,0,0,0,3.04-5.588,30.267,30.267,0,0,0,.964-8.191V441.884h-3.974V467.57a25.316,25.316,0,0,1-.79,6.787,11.065,11.065,0,0,1-2.4,4.564,9.246,9.246,0,0,1-4,2.545,17.951,17.951,0,0,1-5.611.79,17.949,17.949,0,0,1-5.612-.79,9.24,9.24,0,0,1-4-2.545,11.053,11.053,0,0,1-2.4-4.564,25.36,25.36,0,0,1-.789-6.787V441.884h-3.917v25.862a30.264,30.264,0,0,0,.965,8.191,13.408,13.408,0,0,0,3.01,5.588,12.028,12.028,0,0,0,5.2,3.218,24.591,24.591,0,0,0,7.541,1.024A24.584,24.584,0,0,0-913.5,484.743Zm20.224,0.439h3.682V447.326h0.292l5.086,12.287,10.287,23.872h3.8l10.287-23.872,5.027-12.287h0.351v37.856h3.682v-43.3h-5.436l-11.866,27.851-3.8,9.42h-0.351l-3.741-9.42-11.865-27.851h-5.436v43.3Zm53.95,0h26.947V481.73h-22.972V464.879h21.1v-3.394h-21.1V445.337h22.5v-3.453h-26.479v43.3Zm57.4-2.37q3.858-3.012,3.857-8.63a11.283,11.283,0,0,0-.993-5,10.158,10.158,0,0,0-2.718-3.423,15.425,15.425,0,0,0-4.092-2.34q-2.367-.935-5.114-1.755a35.625,35.625,0,0,1-4.881-1.7,12,12,0,0,1-3.157-1.96,6.466,6.466,0,0,1-1.724-2.4,8.063,8.063,0,0,1-.526-3.013,7.192,7.192,0,0,1,2.835-5.968,12.033,12.033,0,0,1,7.628-2.224,37.461,37.461,0,0,1,5.056.381,49.516,49.516,0,0,1,5.524,1.082l0.117-3.511a50.814,50.814,0,0,0-10.931-1.4,19.852,19.852,0,0,0-5.9.819,13.053,13.053,0,0,0-4.5,2.37,10.733,10.733,0,0,0-2.894,3.715,11.092,11.092,0,0,0-1.023,4.8,12.292,12.292,0,0,0,.7,4.33,8.919,8.919,0,0,0,2.221,3.335,14.7,14.7,0,0,0,3.916,2.6,39.359,39.359,0,0,0,5.787,2.135q2.22,0.645,4.15,1.375a14.816,14.816,0,0,1,3.361,1.756,7.514,7.514,0,0,1,2.251,2.516,7.519,7.519,0,0,1,.818,3.656,6.918,6.918,0,0,1-2.835,5.939q-2.837,2.077-8.154,2.077a44.661,44.661,0,0,1-6.2-.5,62.974,62.974,0,0,1-6.722-1.316l-0.117,3.452a62.189,62.189,0,0,0,6.781,1.316,46.7,46.7,0,0,0,6.371.5Q-785.785,485.825-781.926,482.812Z"/>
  <rect class="cls-4" x="-4373" y="747" width="1998" height="36"/>
  <rect id="Rectangle_10_copy" data-name="Rectangle 10 copy" class="cls-5" x="-2375" y="747" width="1998" height="36"/>
  <rect id="Rectangle_10_copy_2" data-name="Rectangle 10 copy 2" class="cls-6" x="-377" y="747" width="1998" height="36"/>
</svg>
