<svg xmlns="http://www.w3.org/2000/svg" width="1411" height="441" viewBox="0 0 1411 441">
  <metadata><?xpacket begin="﻿" id="W5M0MpCehiHzreSzNTczkc9d"?>
<x:xmpmeta xmlns:x="adobe:ns:meta/" x:xmptk="Adobe XMP Core 5.6-c142 79.160924, 2017/07/13-01:06:39        ">
   <rdf:RDF xmlns:rdf="http://www.w3.org/1999/02/22-rdf-syntax-ns#">
      <rdf:Description rdf:about=""/>
   </rdf:RDF>
</x:xmpmeta>
                                                                                                    
                                                                                                    
                                                                                                    
                                                                                                    
                                                                                                    
                                                                                                    
                                                                                                    
                                                                                                    
                                                                                                    
                                                                                                    
                                                                                                    
                                                                                                    
                                                                                                    
                                                                                                    
                                                                                                    
                                                                                                    
                                                                                                    
                                                                                                    
                                                                                                    
                                                                                                    
                           
<?xpacket end="w"?></metadata>
<defs>
    <style>
      .cls-1, .cls-4 {
        fill: #84754d;
      }

      .cls-1, .cls-2, .cls-3 {
        fill-rule: evenodd;
      }

      .cls-2, .cls-5 {
        fill: #4b2e83;
      }

      .cls-3, .cls-6 {
        fill: #b7a57a;
      }
    </style>
  </defs>
  <path id="_9_000_000" data-name="9,000,000" class="cls-1" d="M-2162.45,125.515a81.982,81.982,0,0,0-28.36,14.474,63.316,63.316,0,0,0-17.93,23.1,72.471,72.471,0,0,0-6.26,30.616,62.163,62.163,0,0,0,5.28,25.885,54.415,54.415,0,0,0,15.02,19.762,70.231,70.231,0,0,0,23.35,12.524,98.1,98.1,0,0,0,30.59,4.454,88.242,88.242,0,0,0,24.47-3.2,65.112,65.112,0,0,0,19.18-8.768q-3.885,23.381-17.51,33.122t-40.6,9.741a162.8,162.8,0,0,1-17.24-.974q-9.18-.972-21.69-3.2l-7.5,43.42q13.62,2.785,25.72,4.175a203.6,203.6,0,0,0,23.21,1.392q119.565,0,119.57-115.229,0-47.315-23.78-71.81t-67.7-24.493Q-2145.765,120.505-2162.45,125.515Zm17.38,86.422q-6.255-5.982-6.26-19.9,0-14.195,6.4-20.735t20.3-6.541q14.445,0,21.41,10.02,6.945,10.02,8.06,33.121a39.317,39.317,0,0,1-12.93,7.1,48.981,48.981,0,0,1-16.54,2.922Q-2138.82,217.921-2145.07,211.937ZM-1974.21,372.4l27.53-101.313h-61.17l-11.68,98.529Zm211.05-66.661q24.75-26.3,24.75-79.185t-24.75-79.463q-24.75-26.577-69.79-26.581t-69.93,26.581q-24.885,26.583-24.89,79.463t24.89,79.185q24.885,26.3,69.93,26.3T-1763.16,305.734Zm-84.95-25.467a20.809,20.809,0,0,1-10.14-8.906q-3.9-6.4-5.7-17.257a172.183,172.183,0,0,1-1.81-27.555,177.142,177.142,0,0,1,1.81-27.972q1.8-10.992,5.7-17.4a20.829,20.829,0,0,1,10.14-8.906,40.839,40.839,0,0,1,15.16-2.5,38.9,38.9,0,0,1,14.74,2.5,21.04,21.04,0,0,1,10.01,8.906q3.885,6.406,5.83,17.4a165.018,165.018,0,0,1,1.95,27.972,162.912,162.912,0,0,1-1.95,27.694q-1.935,11-5.83,17.257a21.2,21.2,0,0,1-10.01,8.767,38.9,38.9,0,0,1-14.74,2.5A40.839,40.839,0,0,1-1848.11,280.267Zm297.1,25.467q24.75-26.3,24.75-79.185t-24.75-79.463q-24.75-26.577-69.79-26.581t-69.93,26.581q-24.885,26.583-24.88,79.463t24.88,79.185q24.885,26.3,69.93,26.3T-1551.01,305.734Zm-84.94-25.467a20.83,20.83,0,0,1-10.15-8.906q-3.9-6.4-5.7-17.257a172.183,172.183,0,0,1-1.81-27.555,177.142,177.142,0,0,1,1.81-27.972q1.8-10.992,5.7-17.4a20.85,20.85,0,0,1,10.15-8.906,40.784,40.784,0,0,1,15.15-2.5,38.867,38.867,0,0,1,14.74,2.5,21.04,21.04,0,0,1,10.01,8.906q3.885,6.406,5.84,17.4a166.2,166.2,0,0,1,1.94,27.972,164.085,164.085,0,0,1-1.94,27.694q-1.95,11-5.84,17.257a21.2,21.2,0,0,1-10.01,8.767,38.867,38.867,0,0,1-14.74,2.5A40.784,40.784,0,0,1-1635.95,280.267Zm297.1,25.467q24.735-26.3,24.74-79.185t-24.74-79.463q-24.75-26.577-69.79-26.581t-69.94,26.581q-24.885,26.583-24.88,79.463t24.88,79.185q24.885,26.3,69.94,26.3T-1338.85,305.734Zm-84.95-25.467a20.873,20.873,0,0,1-10.15-8.906q-3.9-6.4-5.7-17.257a172.183,172.183,0,0,1-1.81-27.555,177.142,177.142,0,0,1,1.81-27.972q1.815-10.992,5.7-17.4a20.893,20.893,0,0,1,10.15-8.906,40.8,40.8,0,0,1,15.16-2.5,38.849,38.849,0,0,1,14.73,2.5,21,21,0,0,1,10.01,8.906q3.9,6.406,5.84,17.4a165.018,165.018,0,0,1,1.95,27.972,162.912,162.912,0,0,1-1.95,27.694q-1.95,11-5.84,17.257a21.158,21.158,0,0,1-10.01,8.767,38.849,38.849,0,0,1-14.73,2.5A40.8,40.8,0,0,1-1423.8,280.267Zm170.31,92.128,27.53-101.313h-61.18l-11.67,98.529Zm211.04-66.661q24.75-26.3,24.75-79.185t-24.75-79.463q-24.75-26.577-69.79-26.581t-69.93,26.581q-24.885,26.583-24.88,79.463t24.88,79.185q24.885,26.3,69.93,26.3T-1042.45,305.734Zm-84.94-25.467a20.83,20.83,0,0,1-10.15-8.906q-3.9-6.4-5.7-17.257a172.183,172.183,0,0,1-1.81-27.555,177.142,177.142,0,0,1,1.81-27.972q1.8-10.992,5.7-17.4a20.85,20.85,0,0,1,10.15-8.906,40.784,40.784,0,0,1,15.15-2.5,38.867,38.867,0,0,1,14.74,2.5,21,21,0,0,1,10.01,8.906q3.885,6.406,5.84,17.4a166.066,166.066,0,0,1,1.95,27.972,163.953,163.953,0,0,1-1.95,27.694q-1.95,11-5.84,17.257a21.158,21.158,0,0,1-10.01,8.767,38.867,38.867,0,0,1-14.74,2.5A40.784,40.784,0,0,1-1127.39,280.267Zm297.1,25.467q24.744-26.3,24.747-79.185t-24.747-79.463q-24.751-26.577-69.792-26.581t-69.931,26.581Q-994.9,173.669-994.9,226.549t24.885,79.185q24.882,26.3,69.931,26.3T-830.292,305.734Zm-84.946-25.467a20.84,20.84,0,0,1-10.149-8.906q-3.9-6.4-5.7-17.257a172.463,172.463,0,0,1-1.807-27.555,177.431,177.431,0,0,1,1.807-27.972q1.806-10.992,5.7-17.4a20.86,20.86,0,0,1,10.149-8.906,40.8,40.8,0,0,1,15.154-2.5,38.869,38.869,0,0,1,14.737,2.5,21.008,21.008,0,0,1,10.01,8.906q3.891,6.406,5.839,17.4a165.582,165.582,0,0,1,1.947,27.972,163.47,163.47,0,0,1-1.947,27.694q-1.948,11-5.839,17.257a21.172,21.172,0,0,1-10.01,8.767,38.869,38.869,0,0,1-14.737,2.5A40.8,40.8,0,0,1-915.238,280.267Zm297.1,25.467q24.745-26.3,24.747-79.185t-24.747-79.463q-24.751-26.577-69.792-26.581t-69.93,26.581q-24.888,26.583-24.886,79.463t24.886,79.185q24.88,26.3,69.93,26.3T-618.139,305.734Zm-84.946-25.467a20.845,20.845,0,0,1-10.149-8.906q-3.9-6.4-5.7-17.257a172.58,172.58,0,0,1-1.807-27.555,177.551,177.551,0,0,1,1.807-27.972q1.806-10.992,5.7-17.4a20.865,20.865,0,0,1,10.149-8.906,40.8,40.8,0,0,1,15.154-2.5,38.869,38.869,0,0,1,14.737,2.5,21,21,0,0,1,10.01,8.906q3.891,6.406,5.839,17.4a165.582,165.582,0,0,1,1.947,27.972,163.47,163.47,0,0,1-1.947,27.694q-1.948,11-5.839,17.257a21.167,21.167,0,0,1-10.01,8.767,38.869,38.869,0,0,1-14.737,2.5A40.8,40.8,0,0,1-703.085,280.267Z"/>
  <path id="_" data-name="+" class="cls-1" d="M-619.332,87.919h47.269V131.06H-534.8V87.919h47.269v-37.3H-534.8V7.482h-37.259V50.623h-47.269v37.3Z"/>
  <path id="_copy" data-name="+ copy" class="cls-2" d="M1272.67,87.919h47.27V131.06h37.26V87.919h47.27v-37.3H1357.2V7.482h-37.26V50.623h-47.27v37.3Z"/>
  <path id="_2" data-name="+" class="cls-3" d="M3044.67,37.919h47.27V81.06h37.26V37.919h47.27V0.623H3129.2V-42.518h-37.26V0.623h-47.27v37.3Z"/>
  <path id="UNIVERSITY_LIBRARIES_PROVIDES" data-name="UNIVERSITY LIBRARIES PROVIDES" class="cls-1" d="M-2174.08,70.56a12.248,12.248,0,0,0,5.23-3.218,13.239,13.239,0,0,0,3.04-5.588,30.373,30.373,0,0,0,.97-8.192V27.7h-3.98V53.386a25.2,25.2,0,0,1-.79,6.788,11,11,0,0,1-2.39,4.564,9.3,9.3,0,0,1-4.01,2.545,17.974,17.974,0,0,1-5.61.79,17.93,17.93,0,0,1-5.61-.79,9.241,9.241,0,0,1-4.01-2.545,11,11,0,0,1-2.39-4.564,25.2,25.2,0,0,1-.79-6.788V27.7h-3.92V53.562a29.978,29.978,0,0,0,.97,8.192,13.308,13.308,0,0,0,3.01,5.588,11.965,11.965,0,0,0,5.2,3.218,24.572,24.572,0,0,0,7.54,1.024A24.572,24.572,0,0,0-2174.08,70.56ZM-2153.86,71h3.69V33.96h0.29l3.33,4.974L-2123.22,71h3.62V27.7h-3.68V64.8h-0.3l-3.5-5.149L-2150.29,27.7h-3.57V71Zm45.72,0h3.97V27.7h-3.97V71Zm26.71,0h5.38l16.19-43.3h-4.15l-11.57,31.071-2.99,8.25h-0.35l-2.92-8.25L-2093.41,27.7h-4.15Zm28.12,0h26.94V67.547h-22.97V50.695h21.1V47.3h-21.1V31.151h22.51V27.7h-26.48V71Zm62.13,0h4.45l-10.93-17.32a12.694,12.694,0,0,0,7.3-4.418,13.7,13.7,0,0,0,2.34-8.4q0-7.2-4.53-10.474t-14.47-3.277a63.26,63.26,0,0,0-10.29.878V71h3.98V54.264q1.815,0.175,3.51.293t3.09,0.117c0.98,0,1.9-.019,2.78-0.058s1.73-.117,2.54-0.234Zm-19.2-19.865a18.944,18.944,0,0,1-2.95-.38V31.034q1.455-.233,3.33-0.38t3.51-.146q7.65,0,11.05,2.458t3.39,7.9a13.144,13.144,0,0,1-.79,4.8,7.177,7.177,0,0,1-2.49,3.218,11.6,11.6,0,0,1-4.38,1.814,31.318,31.318,0,0,1-6.55.585C-2007.66,51.28-2009.03,51.231-2010.38,51.133Zm53.11,17.5q3.855-3.013,3.86-8.631a11.3,11.3,0,0,0-1-5,10.1,10.1,0,0,0-2.72-3.423,15.36,15.36,0,0,0-4.09-2.34q-2.37-.935-5.11-1.755a35.285,35.285,0,0,1-4.88-1.7,11.974,11.974,0,0,1-3.16-1.96,6.582,6.582,0,0,1-1.73-2.4,8.087,8.087,0,0,1-.52-3.013,7.191,7.191,0,0,1,2.83-5.968,12.051,12.051,0,0,1,7.63-2.224,37.627,37.627,0,0,1,5.06.38,49.384,49.384,0,0,1,5.52,1.083l0.12-3.511a50.765,50.765,0,0,0-10.93-1.4,19.907,19.907,0,0,0-5.91.819,13.107,13.107,0,0,0-4.5,2.37,10.787,10.787,0,0,0-2.89,3.716,11.118,11.118,0,0,0-1.02,4.8,12.25,12.25,0,0,0,.7,4.33,9.007,9.007,0,0,0,2.22,3.335,14.649,14.649,0,0,0,3.92,2.6,38.914,38.914,0,0,0,5.78,2.136c1.48,0.43,2.87.888,4.15,1.375A14.587,14.587,0,0,1-1960.58,54a7.523,7.523,0,0,1,2.26,2.516,7.581,7.581,0,0,1,.81,3.657,6.915,6.915,0,0,1-2.83,5.939q-2.835,2.078-8.16,2.077a44.676,44.676,0,0,1-6.19-.5,62.519,62.519,0,0,1-6.72-1.317l-0.12,3.452a61.749,61.749,0,0,0,6.78,1.316,46.748,46.748,0,0,0,6.37.5Q-1961.135,71.642-1957.27,68.629ZM-1945,71h3.98V27.7H-1945V71Zm25.2,0h3.97V31.151h14.32V27.7h-32.56v3.452h14.27V71Zm35.77,0h3.98V56.253L-1864.5,27.7h-4.27l-11.4,21.065-1.7,3.686h-0.41l-1.75-3.686L-1895.37,27.7h-4.33l15.67,28.672V71Zm38.64,0h24.02V67.605h-20.05V27.7h-3.97V71Zm30.86,0h3.98V27.7h-3.98V71Zm45.13-11.293a10.793,10.793,0,0,0-2.25-7.109,10.832,10.832,0,0,0-6.63-3.54V48.822a8.43,8.43,0,0,0,5.49-3.365,11.084,11.084,0,0,0,1.99-6.7q0-6.144-3.69-8.865-3.675-2.721-11.98-2.721-2.685,0-5.58.2t-7.04.614V70.706q3.495,0.468,6.86.673t6.35,0.2q16.485,0,16.48-11.878h0Zm-21.98,8.514a29.532,29.532,0,0,1-3.86-.439V50.636h10.17q6.03,0,8.86,2.165t2.84,6.671c0,3.043-1.03,5.286-3.07,6.729s-5.22,2.165-9.5,2.165C-1787.97,68.366-1789.78,68.317-1791.38,68.219Zm-3.86-20.743V30.917a35.439,35.439,0,0,1,4.01-.38c1.42-.058,3.07-0.088,4.94-0.088a25.773,25.773,0,0,1,5.29.468,9.316,9.316,0,0,1,3.56,1.463,5.775,5.775,0,0,1,2.02,2.633,10.7,10.7,0,0,1,.64,3.92q0,4.623-2.42,6.583t-8.1,1.96h-9.94ZM-1734.27,71h4.44l-10.93-17.32a12.689,12.689,0,0,0,7.31-4.418,13.7,13.7,0,0,0,2.34-8.4q0-7.2-4.53-10.474t-14.47-3.277a63.26,63.26,0,0,0-10.29.878V71h3.98V54.264c1.2,0.117,2.37.215,3.5,0.293s2.17,0.117,3.1.117c0.98,0,1.9-.019,2.78-0.058s1.72-.117,2.54-0.234Zm-19.2-19.865a18.768,18.768,0,0,1-2.95-.38V31.034q1.455-.233,3.33-0.38t3.51-.146q7.65,0,11.04,2.458c2.26,1.638,3.4,4.271,3.4,7.9a13.144,13.144,0,0,1-.79,4.8,7.177,7.177,0,0,1-2.49,3.218,11.6,11.6,0,0,1-4.38,1.814,31.385,31.385,0,0,1-6.55.585C-1750.75,51.28-1752.13,51.231-1753.47,51.133ZM-1726.67,71h3.92l5.02-13.517h19.88L-1692.77,71h3.92V70.648l-15.9-42.949h-6.02l-15.9,42.949V71Zm10.11-17.028,5.97-15.916,2.63-7.314h0.35l2.69,7.314,5.96,15.916h-17.6ZM-1656.17,71h4.44l-10.93-17.32a12.722,12.722,0,0,0,7.31-4.418,13.768,13.768,0,0,0,2.33-8.4q0-7.2-4.53-10.474t-14.46-3.277a63.073,63.073,0,0,0-10.29.878V71h3.97V54.264q1.815,0.175,3.51.293c1.13,0.079,2.16.117,3.1,0.117,0.97,0,1.9-.019,2.77-0.058s1.73-.117,2.55-0.234Zm-19.21-19.865a19.123,19.123,0,0,1-2.95-.38V31.034q1.47-.233,3.33-0.38,1.875-.145,3.51-0.146,7.665,0,11.05,2.458t3.39,7.9a12.936,12.936,0,0,1-.79,4.8,7.088,7.088,0,0,1-2.48,3.218,11.651,11.651,0,0,1-4.39,1.814,31.216,31.216,0,0,1-6.54.585C-1672.66,51.28-1674.03,51.231-1675.38,51.133ZM-1643.66,71h3.97V27.7h-3.97V71Zm15.43,0h26.95V67.547h-22.98V50.695h21.11V47.3h-21.11V31.151h22.51V27.7h-26.48V71Zm57.4-2.37q3.855-3.013,3.86-8.631a11.167,11.167,0,0,0-1-5,10.072,10.072,0,0,0-2.71-3.423,15.423,15.423,0,0,0-4.1-2.34c-1.57-.624-3.28-1.209-5.11-1.755a35.285,35.285,0,0,1-4.88-1.7,11.974,11.974,0,0,1-3.16-1.96,6.437,6.437,0,0,1-1.72-2.4,8.083,8.083,0,0,1-.53-3.013,7.2,7.2,0,0,1,2.84-5.968,12.031,12.031,0,0,1,7.63-2.224,37.488,37.488,0,0,1,5.05.38,50,50,0,0,1,5.53,1.083l0.11-3.511a50.765,50.765,0,0,0-10.93-1.4,19.791,19.791,0,0,0-5.9.819,12.927,12.927,0,0,0-4.5,2.37,10.7,10.7,0,0,0-2.9,3.716,11.118,11.118,0,0,0-1.02,4.8,12.25,12.25,0,0,0,.7,4.33,9.007,9.007,0,0,0,2.22,3.335,14.811,14.811,0,0,0,3.92,2.6,39.5,39.5,0,0,0,5.79,2.136c1.48,0.43,2.86.888,4.15,1.375A15.01,15.01,0,0,1-1574.13,54a7.6,7.6,0,0,1,2.25,2.516,7.58,7.58,0,0,1,.82,3.657,6.922,6.922,0,0,1-2.84,5.939q-2.835,2.078-8.15,2.077a44.691,44.691,0,0,1-6.2-.5,62.519,62.519,0,0,1-6.72-1.317l-0.12,3.452a61.749,61.749,0,0,0,6.78,1.316,46.748,46.748,0,0,0,6.37.5Q-1574.68,71.642-1570.83,68.629Zm26.89,2.37h3.97V56.429q1.935,0.234,3.54.293c1.07,0.039,2.08.059,3.01,0.059q9.765,0,14.26-3.54t4.51-11.322q0-7.724-4.56-11.264t-14.44-3.54a64.588,64.588,0,0,0-10.29.878V71Zm9.09-17.671c-0.68-.038-1.35-0.088-1.99-0.146s-1.24-.117-1.78-0.175a12.329,12.329,0,0,1-1.35-.2V31.034c0.94-.155,2.03-0.282,3.28-0.38s2.43-.146,3.56-0.146q7.665,0,11.05,2.692t3.39,8.718a15.35,15.35,0,0,1-.79,5.266,7.911,7.911,0,0,1-2.48,3.54,10.85,10.85,0,0,1-4.39,2.019,28.456,28.456,0,0,1-6.54.644C-1533.52,53.386-1534.17,53.367-1534.85,53.328ZM-1480.28,71h4.44l-10.93-17.32a12.662,12.662,0,0,0,7.3-4.418,13.7,13.7,0,0,0,2.34-8.4q0-7.2-4.53-10.474t-14.46-3.277a63.073,63.073,0,0,0-10.29.878V71h3.97V54.264q1.815,0.175,3.51.293c1.13,0.079,2.16.117,3.1,0.117,0.97,0,1.9-.019,2.77-0.058s1.73-.117,2.55-0.234Zm-19.21-19.865a18.944,18.944,0,0,1-2.95-.38V31.034q1.47-.233,3.33-0.38t3.51-.146q7.665,0,11.05,2.458t3.39,7.9a12.936,12.936,0,0,1-.79,4.8,7.157,7.157,0,0,1-2.48,3.218,11.651,11.651,0,0,1-4.39,1.814,31.252,31.252,0,0,1-6.55.585C-1496.77,51.28-1498.14,51.231-1499.49,51.133Zm61.32,14.833q4.77-5.617,4.77-16.559,0-11-4.77-16.647-4.755-5.646-13.53-5.646-8.88,0-13.62,5.646t-4.73,16.647q0,11,4.73,16.589t13.62,5.588Q-1442.925,71.584-1438.17,65.967Zm-24.23-2.516q-3.615-4.681-3.62-14.043,0-9.42,3.62-14.131t10.7-4.71q7.08,0,10.67,4.71t3.59,14.131q0,9.3-3.59,14.014t-10.67,4.71Q-1458.78,68.132-1462.4,63.451ZM-1413.82,71h5.38l16.19-43.3h-4.15l-11.58,31.071-2.98,8.25h-0.35l-2.92-8.25L-1425.8,27.7h-4.15Zm28.12,0h3.97V27.7h-3.97V71Zm43.28-4.74q5.46-5.383,5.47-16.91,0-11.468-5.26-16.823t-16.55-5.354c-0.7,0-1.54.02-2.51,0.058s-1.98.088-3.01,0.146-2.08.127-3.13,0.2-2.01.156-2.86,0.234V70.765a19.663,19.663,0,0,0,4.32.673q2.865,0.2,6.2.2Q-1347.885,71.642-1342.42,66.259Zm-18.24,1.9c-0.6-.019-1.2-0.049-1.78-0.088s-1.19-.1-1.81-0.176-1.31-.175-2.05-0.292V31.151c1.17-.155,2.5-0.273,3.98-0.351s2.76-.117,3.86-0.117q9.06,0,13.26,4.476t4.21,14.189q0,9.773-4.29,14.307-4.305,4.535-13.48,4.535C-1359.42,68.19-1360.05,68.181-1360.66,68.161ZM-1327.78,71h26.95V67.547h-22.97V50.695h21.1V47.3h-21.1V31.151h22.5V27.7h-26.48V71Zm57.41-2.37q3.855-3.013,3.85-8.631a11.31,11.31,0,0,0-.99-5,10.1,10.1,0,0,0-2.72-3.423,15.36,15.36,0,0,0-4.09-2.34q-2.37-.935-5.11-1.755a35.946,35.946,0,0,1-4.89-1.7,12.07,12.07,0,0,1-3.15-1.96,6.467,6.467,0,0,1-1.73-2.4,8.087,8.087,0,0,1-.52-3.013,7.191,7.191,0,0,1,2.83-5.968,12.051,12.051,0,0,1,7.63-2.224,37.627,37.627,0,0,1,5.06.38,49.384,49.384,0,0,1,5.52,1.083l0.12-3.511a50.841,50.841,0,0,0-10.93-1.4,19.859,19.859,0,0,0-5.91.819,13.107,13.107,0,0,0-4.5,2.37,10.669,10.669,0,0,0-2.89,3.716,11.118,11.118,0,0,0-1.02,4.8,12.25,12.25,0,0,0,.7,4.33,8.77,8.77,0,0,0,2.22,3.335,14.649,14.649,0,0,0,3.92,2.6,38.914,38.914,0,0,0,5.78,2.136c1.48,0.43,2.87.888,4.15,1.375A14.587,14.587,0,0,1-1273.68,54a7.387,7.387,0,0,1,2.25,2.516,7.467,7.467,0,0,1,.82,3.657,6.915,6.915,0,0,1-2.83,5.939q-2.835,2.078-8.16,2.077a44.559,44.559,0,0,1-6.19-.5,63.2,63.2,0,0,1-6.73-1.317l-0.11,3.452a61.749,61.749,0,0,0,6.78,1.316,46.63,46.63,0,0,0,6.37.5Q-1274.235,71.642-1270.37,68.629Z"/>
  <path id="total_volumes_Including_e-books_" data-name="total volumes (Including e-books)" class="cls-1" d="M-2189.37,466.575h3.97V426.727h14.33v-3.452h-32.56v3.452h14.26v39.848Zm52.64-5.032q4.755-5.618,4.76-16.559,0-11-4.76-16.648t-13.53-5.646q-8.895,0-13.62,5.646t-4.74,16.648q0,11,4.74,16.588t13.62,5.588Q-2141.5,467.16-2136.73,461.543Zm-24.23-2.516q-3.63-4.681-3.63-14.043,0-9.421,3.63-14.131,3.615-4.71,10.7-4.711,7.065,0,10.66,4.711t3.6,14.131q0,9.3-3.6,14.014-3.585,4.71-10.66,4.71T-2160.96,459.027Zm45.71,7.548h3.98V426.727h14.32v-3.452h-32.56v3.452h14.26v39.848Zm15.96,0h3.91l5.03-13.517h19.88l5.08,13.517h3.92v-0.351l-15.9-42.949h-6.02l-15.9,42.949v0.351Zm10.11-17.027,5.96-15.916,2.63-7.314h0.35l2.69,7.314,5.97,15.916h-17.6Zm34.26,17.027h24.02v-3.394h-20.05V423.275h-3.97v43.3Zm53.6,0h5.38l16.19-43.3h-4.15l-11.58,31.071-2.98,8.25h-0.35l-2.92-8.25-11.57-31.071h-4.15Zm56.85-5.032q4.755-5.618,4.76-16.559,0-11-4.76-16.648t-13.54-5.646q-8.88,0-13.62,5.646-4.725,5.647-4.73,16.648t4.73,16.588q4.74,5.589,13.62,5.588Q-1949.235,467.16-1944.47,461.543Zm-24.23-2.516q-3.63-4.681-3.63-14.043,0-9.421,3.63-14.131t10.69-4.711q7.08,0,10.67,4.711t3.6,14.131q0,9.3-3.6,14.014t-10.67,4.71Q-1965.075,463.708-1968.7,459.027Zm38.17,7.548h24.02v-3.394h-20.05V423.275h-3.97v43.3Zm52.67-.439a12.306,12.306,0,0,0,5.23-3.218,13.348,13.348,0,0,0,3.04-5.588,30.407,30.407,0,0,0,.96-8.192V423.275h-3.97v25.687a25.606,25.606,0,0,1-.79,6.788,11.135,11.135,0,0,1-2.4,4.564,9.262,9.262,0,0,1-4,2.545,17.984,17.984,0,0,1-5.62.79,17.962,17.962,0,0,1-5.61-.79,9.2,9.2,0,0,1-4-2.545,11.135,11.135,0,0,1-2.4-4.564,25.606,25.606,0,0,1-.79-6.788V423.275h-3.91v25.863a30.407,30.407,0,0,0,.96,8.192,13.419,13.419,0,0,0,3.01,5.588,12.08,12.08,0,0,0,5.2,3.218,24.62,24.62,0,0,0,7.54,1.024A24.643,24.643,0,0,0-1877.86,466.136Zm20.22,0.439h3.68V428.717h0.3l5.08,12.288,10.29,23.873h3.8l10.29-23.873,5.02-12.288h0.35v37.858h3.69v-43.3h-5.44l-11.87,27.852-3.79,9.421h-0.36l-3.74-9.421-11.86-27.852h-5.44v43.3Zm53.95,0h26.95v-3.452h-22.97V446.271h21.1v-3.394h-21.1v-16.15h22.5v-3.452h-26.48v43.3Zm57.41-2.37q3.855-3.012,3.86-8.631a11.3,11.3,0,0,0-1-5,10.1,10.1,0,0,0-2.72-3.423,15.328,15.328,0,0,0-4.09-2.341q-2.37-.936-5.11-1.755a35.322,35.322,0,0,1-4.88-1.7,11.949,11.949,0,0,1-3.16-1.961,6.576,6.576,0,0,1-1.73-2.4,8.081,8.081,0,0,1-.52-3.013,7.19,7.19,0,0,1,2.83-5.968,12.051,12.051,0,0,1,7.63-2.224,37.656,37.656,0,0,1,5.06.38,49.591,49.591,0,0,1,5.52,1.083l0.12-3.511a50.776,50.776,0,0,0-10.93-1.4,19.9,19.9,0,0,0-5.91.819,13.116,13.116,0,0,0-4.5,2.37,10.793,10.793,0,0,0-2.89,3.715,11.121,11.121,0,0,0-1.02,4.8,12.252,12.252,0,0,0,.7,4.33,9.016,9.016,0,0,0,2.22,3.335,14.67,14.67,0,0,0,3.92,2.6,38.907,38.907,0,0,0,5.78,2.135c1.48,0.43,2.87.888,4.15,1.375a14.619,14.619,0,0,1,3.36,1.756,7.385,7.385,0,0,1,2.25,2.516,7.467,7.467,0,0,1,.82,3.657,6.914,6.914,0,0,1-2.83,5.939q-2.835,2.077-8.16,2.077a44.64,44.64,0,0,1-6.19-.5,63.12,63.12,0,0,1-6.73-1.317l-0.11,3.453a61.939,61.939,0,0,0,6.78,1.316,46.756,46.756,0,0,0,6.37.5Q-1750.145,467.219-1746.28,464.205Zm33.37,11.732h3.63V475.7a50.5,50.5,0,0,1-6.9-13.955,52.3,52.3,0,0,1-2.4-15.887,52.391,52.391,0,0,1,2.4-15.857,50.434,50.434,0,0,1,6.9-13.985v-0.234h-3.63a51.58,51.58,0,0,0-6.78,14.19,54.29,54.29,0,0,0-2.33,15.886,54.287,54.287,0,0,0,2.33,15.887,51.574,51.574,0,0,0,6.78,14.189h0Zm10.06-9.362h3.97v-43.3h-3.97v43.3Zm15.43,0h3.68V429.536h0.3l3.33,4.974,23.32,32.065h3.63v-43.3h-3.69v37.1h-0.29l-3.51-5.15-23.2-31.948h-3.57v43.3Zm64.8,0.439c0.84-.059,1.68-0.146,2.54-0.263s1.7-.254,2.51-0.41,1.56-.331,2.23-0.527v-3.393c-0.59.156-1.31,0.3-2.17,0.438s-1.73.264-2.63,0.381-1.76.2-2.6,0.263-1.57.088-2.19,0.088q-14.97,0-14.97-18.607,0-9.6,3.8-14.161c2.54-3.042,6.41-4.564,11.64-4.564a37.586,37.586,0,0,1,4.15.264c1.55,0.175,3.21.419,4.97,0.731v-3.511c-1.6-.312-3.26-0.565-4.97-0.761a40.856,40.856,0,0,0-4.5-.292q-19.185,0-19.18,22.352,0,21.942,19.06,22.06Q-1623.88,467.1-1622.62,467.014Zm15.63-.439h24.03v-3.394h-20.05V423.275h-3.98v43.3Zm52.67-.439a12.186,12.186,0,0,0,5.23-3.218,13.131,13.131,0,0,0,3.04-5.588,29.98,29.98,0,0,0,.97-8.192V423.275h-3.98v25.687a25.2,25.2,0,0,1-.79,6.788,11.006,11.006,0,0,1-2.39,4.564,9.237,9.237,0,0,1-4.01,2.545,17.918,17.918,0,0,1-5.61.79,17.962,17.962,0,0,1-5.61-.79,9.2,9.2,0,0,1-4-2.545,11.018,11.018,0,0,1-2.4-4.564,25.2,25.2,0,0,1-.79-6.788V423.275h-3.92v25.863a30.375,30.375,0,0,0,.97,8.192,13.307,13.307,0,0,0,3.01,5.588,12.021,12.021,0,0,0,5.2,3.218,24.62,24.62,0,0,0,7.54,1.024A24.575,24.575,0,0,0-1554.32,466.136Zm48.08-4.3q5.475-5.382,5.47-16.91,0-11.468-5.26-16.823t-16.55-5.354c-0.7,0-1.54.021-2.51,0.059s-1.98.088-3.01,0.146-2.08.127-3.13,0.205-2.01.156-2.86,0.234v42.949a19.644,19.644,0,0,0,4.32.673q2.865,0.2,6.2.2Q-1511.705,467.219-1506.24,461.835Zm-18.24,1.9c-0.6-.019-1.19-0.048-1.78-0.088s-1.19-.1-1.81-0.175-1.31-.176-2.05-0.293V426.727c1.17-.155,2.5-0.272,3.98-0.351s2.76-.117,3.86-0.117q9.06,0,13.27,4.477t4.2,14.189q0,9.772-4.29,14.307-4.305,4.534-13.48,4.534C-1523.24,463.766-1523.87,463.757-1524.48,463.737Zm32.88,2.838h3.98v-43.3h-3.98v43.3Zm15.44,0h3.68V429.536h0.29l3.33,4.974,23.33,32.065h3.62v-43.3h-3.68v37.1h-0.29l-3.51-5.15-23.21-31.948h-3.56v43.3Zm68.56,0.059a44.841,44.841,0,0,0,5.91-1.288V444.574h-3.8v18.2c-1.25.234-2.59,0.429-4.03,0.585a35.006,35.006,0,0,1-3.63.234q-15.495,0-15.49-18.607,0-9.537,3.98-14.131t12.27-4.594q1.17,0,2.28.059t2.34,0.234c0.82,0.117,1.68.263,2.6,0.439s1.96,0.4,3.13.673v-3.511a54.423,54.423,0,0,0-5.47-1.083,36.2,36.2,0,0,0-5.11-.38q-20.115,0-20.11,22.352,0,21.942,19.58,22.06A37.572,37.572,0,0,0-1407.6,466.634Zm30.4-.059h26.95v-3.452h-22.98V446.271h21.11v-3.394h-21.11v-16.15h22.51v-3.452h-26.48v43.3Zm34.55-14.687h17.83v-3.394h-17.83v3.394Zm57.63,3.394a10.789,10.789,0,0,0-2.25-7.109,10.833,10.833,0,0,0-6.63-3.541V444.4a8.378,8.378,0,0,0,5.49-3.364,11.019,11.019,0,0,0,1.99-6.7q0-6.144-3.68-8.865t-11.99-2.721q-2.685,0-5.58.2t-7.04.615v42.714c2.34,0.312,4.62.536,6.87,0.673s4.35,0.205,6.34.205q16.485,0,16.48-11.878h0ZM-1307,463.8a29.484,29.484,0,0,1-3.85-.439V446.212h10.17q6.015,0,8.85,2.165t2.84,6.671q0,4.565-3.07,6.729c-2.05,1.444-5.21,2.165-9.5,2.165C-1303.59,463.942-1305.4,463.893-1307,463.8Zm-3.85-20.743v-16.56a35.3,35.3,0,0,1,4-.38c1.42-.059,3.07-0.088,4.94-0.088a25.823,25.823,0,0,1,5.29.468,9.438,9.438,0,0,1,3.57,1.463,5.829,5.829,0,0,1,2.01,2.633,10.7,10.7,0,0,1,.65,3.921q0,4.623-2.43,6.582t-8.1,1.961h-9.93Zm64.44,18.49q4.77-5.618,4.77-16.559,0-11-4.77-16.648-4.755-5.646-13.53-5.646-8.88,0-13.62,5.646t-4.74,16.648q0,11,4.74,16.588t13.62,5.588Q-1251.165,467.16-1246.41,461.543Zm-24.23-2.516q-3.615-4.681-3.62-14.043,0-9.421,3.62-14.131t10.7-4.711q7.065,0,10.67,4.711,3.585,4.71,3.59,14.131,0,9.3-3.59,14.014t-10.67,4.71Q-1267.02,463.708-1270.64,459.027Zm67.78,2.516q4.77-5.618,4.76-16.559,0-11-4.76-16.648t-13.53-5.646q-8.895,0-13.62,5.646t-4.74,16.648q0,11,4.74,16.588t13.62,5.588Q-1207.63,467.16-1202.86,461.543Zm-24.23-2.516q-3.63-4.681-3.62-14.043,0-9.421,3.62-14.131t10.7-4.711q7.065,0,10.67,4.711,3.585,4.71,3.59,14.131,0,9.3-3.59,14.014t-10.67,4.71Q-1223.47,463.708-1227.09,459.027Zm38.17,7.548h3.98V446.212h9.17l14.5,20.363h4.62l-14.79-20.655-1.87-1.405v-0.351l1.69-1.462,13.92-19.427h-4.62l-13.86,19.485h-8.76V423.275h-3.98v43.3Zm60.09-2.37q3.87-3.012,3.86-8.631a11.3,11.3,0,0,0-.99-5,10.218,10.218,0,0,0-2.72-3.423,15.328,15.328,0,0,0-4.09-2.341q-2.37-.936-5.12-1.755a35.8,35.8,0,0,1-4.88-1.7,11.879,11.879,0,0,1-3.15-1.961,6.462,6.462,0,0,1-1.73-2.4,8.078,8.078,0,0,1-.53-3.013,7.2,7.2,0,0,1,2.84-5.968,12.032,12.032,0,0,1,7.63-2.224,37.517,37.517,0,0,1,5.05.38,49.318,49.318,0,0,1,5.53,1.083l0.12-3.511a50.859,50.859,0,0,0-10.94-1.4,19.788,19.788,0,0,0-5.9.819,13.116,13.116,0,0,0-4.5,2.37,10.674,10.674,0,0,0-2.89,3.715,10.983,10.983,0,0,0-1.03,4.8,12.482,12.482,0,0,0,.7,4.33,8.923,8.923,0,0,0,2.23,3.335,14.606,14.606,0,0,0,3.91,2.6,39.494,39.494,0,0,0,5.79,2.135c1.48,0.43,2.86.888,4.15,1.375a14.619,14.619,0,0,1,3.36,1.756,7.385,7.385,0,0,1,2.25,2.516,7.467,7.467,0,0,1,.82,3.657,6.921,6.921,0,0,1-2.84,5.939c-1.89,1.385-4.6,2.077-8.15,2.077a44.773,44.773,0,0,1-6.2-.5,62.93,62.93,0,0,1-6.72-1.317l-0.12,3.453a62.594,62.594,0,0,0,6.79,1.316,46.638,46.638,0,0,0,6.37.5Q-1132.685,467.219-1128.83,464.205Zm10.88,11.732a49.991,49.991,0,0,0,6.81-14.189,54.948,54.948,0,0,0,2.31-15.887,54.951,54.951,0,0,0-2.31-15.886,50,50,0,0,0-6.81-14.19h-3.57v0.234A49.809,49.809,0,0,1-1114.65,430a53,53,0,0,1,2.37,15.857,52.911,52.911,0,0,1-2.37,15.887,49.875,49.875,0,0,1-6.87,13.955v0.234h3.57Z"/>
  <path id="_11_000" data-name="11,000" class="cls-3" d="M2081.88,279.253h62.57V73.289h-47.27l-70.35,36.183-0.56,2.505,6.95,35.626h3.06l44.49-9.185h1.11V279.253Zm144.31,0h62.56V73.289h-47.27l-70.34,36.183-0.56,2.505,6.95,35.626h3.06l44.49-9.185h1.11V279.253ZM2364.1,322.4l27.53-101.313h-61.17l-11.68,98.529Zm211.05-66.661q24.735-26.3,24.74-79.185t-24.74-79.463q-24.75-26.576-69.79-26.581t-69.93,26.581q-24.9,26.583-24.89,79.463t24.89,79.185q24.87,26.3,69.93,26.3Q2550.4,282.037,2575.15,255.734Zm-84.95-25.467a20.873,20.873,0,0,1-10.15-8.906q-3.885-6.4-5.7-17.257a173.516,173.516,0,0,1-1.8-27.555,178.514,178.514,0,0,1,1.8-27.972q1.815-10.992,5.7-17.4a20.893,20.893,0,0,1,10.15-8.906,40.8,40.8,0,0,1,15.16-2.505,38.849,38.849,0,0,1,14.73,2.505,21,21,0,0,1,10.01,8.906q3.9,6.406,5.84,17.4a165.018,165.018,0,0,1,1.95,27.972,162.912,162.912,0,0,1-1.95,27.694q-1.95,11-5.84,17.257a21.158,21.158,0,0,1-10.01,8.767,38.849,38.849,0,0,1-14.73,2.5A40.8,40.8,0,0,1,2490.2,230.267Zm297.1,25.467q24.75-26.3,24.75-79.185T2787.3,97.086q-24.75-26.576-69.79-26.581t-69.93,26.581q-24.885,26.583-24.89,79.463t24.89,79.185q24.885,26.3,69.93,26.3T2787.3,255.734Zm-84.94-25.467a20.787,20.787,0,0,1-10.15-8.906q-3.9-6.4-5.7-17.257a172.183,172.183,0,0,1-1.81-27.555,177.142,177.142,0,0,1,1.81-27.972q1.8-10.992,5.7-17.4a20.807,20.807,0,0,1,10.15-8.906,40.747,40.747,0,0,1,15.15-2.505,38.9,38.9,0,0,1,14.74,2.505,21.04,21.04,0,0,1,10.01,8.906q3.885,6.406,5.84,17.4a166.2,166.2,0,0,1,1.94,27.972,164.085,164.085,0,0,1-1.94,27.694q-1.95,11-5.84,17.257a21.2,21.2,0,0,1-10.01,8.767,38.9,38.9,0,0,1-14.74,2.5A40.747,40.747,0,0,1,2702.36,230.267Zm297.09,25.467q24.75-26.3,24.75-79.185t-24.75-79.463q-24.75-26.576-69.79-26.581t-69.93,26.581q-24.885,26.583-24.88,79.463t24.88,79.185q24.885,26.3,69.93,26.3T2999.45,255.734Zm-84.94-25.467a20.83,20.83,0,0,1-10.15-8.906q-3.9-6.4-5.7-17.257a172.183,172.183,0,0,1-1.81-27.555,177.142,177.142,0,0,1,1.81-27.972q1.8-10.992,5.7-17.4a20.85,20.85,0,0,1,10.15-8.906,40.784,40.784,0,0,1,15.15-2.505,38.867,38.867,0,0,1,14.74,2.505,21.04,21.04,0,0,1,10.01,8.906q3.885,6.406,5.84,17.4a166.2,166.2,0,0,1,1.94,27.972,164.085,164.085,0,0,1-1.94,27.694q-1.95,11-5.84,17.257a21.2,21.2,0,0,1-10.01,8.767,38.867,38.867,0,0,1-14.74,2.5A40.784,40.784,0,0,1,2914.51,230.267Z"/>
  <path id="_770_000" data-name="770,000" class="cls-2" d="M90.806,328.975l70.348-168.668v-3.619l-8.064-33.4H10.448l-6.117,5.288,1.946,47.038h86.2L24.351,323.408v5.845l53.109,7.237Zm166.276,0L327.43,160.307v-3.619l-8.064-33.4H176.724l-6.117,5.288,1.946,47.038h86.2L190.627,323.408v5.845l53.108,7.237ZM506.5,305.734q24.744-26.3,24.746-79.185T506.5,147.086q-24.752-26.577-69.792-26.581t-69.931,26.581q-24.888,26.583-24.886,79.463t24.886,79.185q24.882,26.3,69.931,26.3T506.5,305.734Zm-84.946-25.467a20.84,20.84,0,0,1-10.149-8.906q-3.9-6.4-5.7-17.257a172.448,172.448,0,0,1-1.808-27.555,177.415,177.415,0,0,1,1.808-27.972q1.8-10.992,5.7-17.4a20.86,20.86,0,0,1,10.149-8.906,40.791,40.791,0,0,1,15.154-2.5,38.876,38.876,0,0,1,14.737,2.5,21.008,21.008,0,0,1,10.01,8.906q3.889,6.406,5.839,17.4a165.6,165.6,0,0,1,1.946,27.972,163.483,163.483,0,0,1-1.946,27.694q-1.948,11-5.839,17.257a21.172,21.172,0,0,1-10.01,8.767,38.876,38.876,0,0,1-14.737,2.5A40.791,40.791,0,0,1,421.551,280.267ZM591.858,372.4l27.528-101.313H558.214l-11.679,98.529ZM802.9,305.734q24.745-26.3,24.747-79.185T802.9,147.086q-24.75-26.577-69.791-26.581t-69.931,26.581q-24.888,26.583-24.886,79.463t24.886,79.185q24.882,26.3,69.931,26.3T802.9,305.734Zm-84.945-25.467a20.836,20.836,0,0,1-10.149-8.906q-3.9-6.4-5.7-17.257a172.448,172.448,0,0,1-1.808-27.555,177.415,177.415,0,0,1,1.808-27.972q1.8-10.992,5.7-17.4a20.856,20.856,0,0,1,10.149-8.906,40.791,40.791,0,0,1,15.154-2.5,38.876,38.876,0,0,1,14.737,2.5,21.013,21.013,0,0,1,10.01,8.906q3.889,6.406,5.839,17.4a165.7,165.7,0,0,1,1.946,27.972,163.588,163.588,0,0,1-1.946,27.694q-1.948,11-5.839,17.257a21.176,21.176,0,0,1-10.01,8.767,38.876,38.876,0,0,1-14.737,2.5A40.791,40.791,0,0,1,717.959,280.267Zm297.1,25.467q24.735-26.3,24.74-79.185t-24.74-79.463q-24.754-26.577-69.794-26.581t-69.931,26.581q-24.888,26.583-24.886,79.463t24.886,79.185q24.882,26.3,69.931,26.3T1015.06,305.734Zm-84.948-25.467a20.84,20.84,0,0,1-10.149-8.906q-3.9-6.4-5.7-17.257a172.448,172.448,0,0,1-1.808-27.555,177.415,177.415,0,0,1,1.808-27.972q1.8-10.992,5.7-17.4a20.86,20.86,0,0,1,10.149-8.906,40.791,40.791,0,0,1,15.154-2.5,38.876,38.876,0,0,1,14.737,2.5,21.008,21.008,0,0,1,10.01,8.906q3.889,6.406,5.839,17.4a165.6,165.6,0,0,1,1.946,27.972,163.483,163.483,0,0,1-1.946,27.694q-1.948,11-5.839,17.257A21.172,21.172,0,0,1,960,280.267a38.876,38.876,0,0,1-14.737,2.5A40.791,40.791,0,0,1,930.112,280.267Zm297.1,25.467q24.75-26.3,24.75-79.185t-24.75-79.463q-24.75-26.577-69.79-26.581t-69.93,26.581q-24.885,26.583-24.89,79.463t24.89,79.185q24.885,26.3,69.93,26.3T1227.21,305.734Zm-84.94-25.467a20.787,20.787,0,0,1-10.15-8.906q-3.9-6.4-5.7-17.257a172.183,172.183,0,0,1-1.81-27.555,177.142,177.142,0,0,1,1.81-27.972q1.8-10.992,5.7-17.4a20.807,20.807,0,0,1,10.15-8.906,40.747,40.747,0,0,1,15.15-2.5,38.9,38.9,0,0,1,14.74,2.5,21.04,21.04,0,0,1,10.01,8.906q3.885,6.406,5.84,17.4a166.2,166.2,0,0,1,1.94,27.972,164.085,164.085,0,0,1-1.94,27.694q-1.95,11-5.84,17.257a21.2,21.2,0,0,1-10.01,8.767,38.9,38.9,0,0,1-14.74,2.5A40.747,40.747,0,0,1,1142.27,280.267Z"/>
  <path id="UNIVERSITY_LIBRARIES_has_leant" data-name="UNIVERSITY LIBRARIES has leant" class="cls-3" d="M2071.92,28.56a12.248,12.248,0,0,0,5.23-3.218,13.239,13.239,0,0,0,3.04-5.588,30.373,30.373,0,0,0,.97-8.192V-14.3h-3.98V11.386a25.2,25.2,0,0,1-.79,6.788,11,11,0,0,1-2.39,4.564,9.3,9.3,0,0,1-4.01,2.545,20.317,20.317,0,0,1-11.22,0,9.241,9.241,0,0,1-4.01-2.545,11,11,0,0,1-2.39-4.564,25.2,25.2,0,0,1-.79-6.788V-14.3h-3.92V11.562a29.978,29.978,0,0,0,.97,8.192,13.308,13.308,0,0,0,3.01,5.588,11.965,11.965,0,0,0,5.2,3.218A28.272,28.272,0,0,0,2071.92,28.56ZM2092.14,29h3.69V-8.04h0.29l3.33,4.974L2122.78,29h3.62V-14.3h-3.68V22.8h-0.3l-3.5-5.149L2095.71-14.3h-3.57V29Zm45.72,0h3.97V-14.3h-3.97V29Zm26.71,0h5.38l16.19-43.3h-4.15l-11.57,31.071-2.99,8.25h-0.35l-2.92-8.25L2152.59-14.3h-4.15Zm28.12,0h26.94V25.547h-22.97V8.695h21.1V5.3h-21.1v-16.15h22.51V-14.3h-26.48V29Zm62.13,0h4.45l-10.93-17.32a12.7,12.7,0,0,0,7.3-4.418,13.7,13.7,0,0,0,2.34-8.4q0-7.2-4.53-10.474t-14.47-3.277a63.26,63.26,0,0,0-10.29.878V29h3.98V12.264q1.815,0.176,3.51.293t3.09,0.117c0.98,0,1.9-.019,2.78-0.059s1.73-.117,2.54-0.234Zm-19.2-19.865a18.939,18.939,0,0,1-2.95-.38V-10.966q1.455-.233,3.33-0.38t3.51-.146q7.65,0,11.05,2.458t3.39,7.9a13.144,13.144,0,0,1-.79,4.8,7.177,7.177,0,0,1-2.49,3.218,11.6,11.6,0,0,1-4.38,1.814,31.319,31.319,0,0,1-6.55.585C2238.34,9.28,2236.97,9.231,2235.62,9.133Zm53.11,17.5q3.855-3.013,3.86-8.631a11.3,11.3,0,0,0-1-5,10.1,10.1,0,0,0-2.72-3.423,15.361,15.361,0,0,0-4.09-2.341q-2.37-.935-5.11-1.755a35.282,35.282,0,0,1-4.88-1.7,11.97,11.97,0,0,1-3.16-1.96,6.582,6.582,0,0,1-1.73-2.4,8.087,8.087,0,0,1-.52-3.013,7.191,7.191,0,0,1,2.83-5.968,12.051,12.051,0,0,1,7.63-2.223,37.627,37.627,0,0,1,5.06.38,49.384,49.384,0,0,1,5.52,1.082l0.12-3.511a50.765,50.765,0,0,0-10.93-1.4,19.907,19.907,0,0,0-5.91.819,13.107,13.107,0,0,0-4.5,2.37,10.788,10.788,0,0,0-2.89,3.716,11.118,11.118,0,0,0-1.02,4.8,12.25,12.25,0,0,0,.7,4.33,9.007,9.007,0,0,0,2.22,3.335,14.65,14.65,0,0,0,3.92,2.6,38.923,38.923,0,0,0,5.78,2.136c1.48,0.43,2.87.888,4.15,1.375A14.587,14.587,0,0,1,2285.42,12a7.523,7.523,0,0,1,2.26,2.516,7.581,7.581,0,0,1,.81,3.657,6.915,6.915,0,0,1-2.83,5.939q-2.835,2.078-8.16,2.077a44.676,44.676,0,0,1-6.19-.5,62.519,62.519,0,0,1-6.72-1.317l-0.12,3.452a61.749,61.749,0,0,0,6.78,1.317,46.748,46.748,0,0,0,6.37.5Q2284.865,29.642,2288.73,26.629ZM2301,29h3.98V-14.3H2301V29Zm25.2,0h3.97V-10.849h14.32V-14.3h-32.56v3.452h14.27V29Zm35.77,0h3.98V14.253L2381.5-14.3h-4.27l-11.4,21.065-1.7,3.686h-0.41l-1.75-3.686L2350.63-14.3h-4.33l15.67,28.672V29Zm38.64,0h24.02V25.605h-20.05V-14.3h-3.97V29Zm30.86,0h3.98V-14.3h-3.98V29Zm45.13-11.293a10.793,10.793,0,0,0-2.25-7.109,10.832,10.832,0,0,0-6.63-3.54V6.822a8.43,8.43,0,0,0,5.49-3.365,11.084,11.084,0,0,0,1.99-6.7q0-6.144-3.69-8.865t-11.98-2.721q-2.685,0-5.58.2t-7.04.614V28.706q3.495,0.468,6.86.673t6.35,0.2q16.485,0,16.48-11.878h0Zm-21.98,8.514a29.532,29.532,0,0,1-3.86-.439V8.636h10.17q6.03,0,8.86,2.165t2.84,6.67c0,3.043-1.03,5.286-3.07,6.729s-5.22,2.165-9.5,2.165C2458.03,26.366,2456.22,26.317,2454.62,26.219Zm-3.86-20.743V-11.083a35.439,35.439,0,0,1,4.01-.38c1.42-.059,3.07-0.088,4.94-0.088a25.773,25.773,0,0,1,5.29.468,9.317,9.317,0,0,1,3.56,1.463,5.776,5.776,0,0,1,2.02,2.633,10.7,10.7,0,0,1,.64,3.92q0,4.623-2.42,6.583t-8.1,1.96h-9.94ZM2511.73,29h4.44l-10.93-17.32a12.689,12.689,0,0,0,7.31-4.418,13.7,13.7,0,0,0,2.34-8.4q0-7.2-4.53-10.474t-14.47-3.277a63.26,63.26,0,0,0-10.29.878V29h3.98V12.264c1.2,0.117,2.37.215,3.5,0.293s2.17,0.117,3.1.117c0.98,0,1.9-.019,2.78-0.059s1.72-.117,2.54-0.234Zm-19.2-19.865a18.764,18.764,0,0,1-2.95-.38V-10.966q1.455-.233,3.33-0.38t3.51-.146q7.65,0,11.04,2.458c2.26,1.638,3.4,4.271,3.4,7.9a13.144,13.144,0,0,1-.79,4.8,7.177,7.177,0,0,1-2.49,3.218,11.6,11.6,0,0,1-4.38,1.814,31.385,31.385,0,0,1-6.55.585C2495.25,9.28,2493.87,9.231,2492.53,9.133ZM2519.33,29h3.92l5.02-13.517h19.88L2553.23,29h3.92V28.648L2541.25-14.3h-6.02l-15.9,42.949V29Zm10.11-17.027,5.97-15.916,2.63-7.314h0.35l2.69,7.314,5.96,15.916h-17.6ZM2589.83,29h4.44l-10.93-17.32a12.722,12.722,0,0,0,7.31-4.418,13.768,13.768,0,0,0,2.33-8.4q0-7.2-4.53-10.474t-14.46-3.277a63.073,63.073,0,0,0-10.29.878V29h3.97V12.264q1.815,0.176,3.51.293c1.13,0.079,2.16.117,3.1,0.117,0.97,0,1.9-.019,2.77-0.059s1.73-.117,2.55-0.234ZM2570.62,9.133a19.118,19.118,0,0,1-2.95-.38V-10.966q1.47-.233,3.33-0.38,1.875-.145,3.51-0.146,7.665,0,11.05,2.458t3.39,7.9a12.936,12.936,0,0,1-.79,4.8,7.088,7.088,0,0,1-2.48,3.218,11.651,11.651,0,0,1-4.39,1.814,31.217,31.217,0,0,1-6.54.585C2573.34,9.28,2571.97,9.231,2570.62,9.133ZM2602.34,29h3.97V-14.3h-3.97V29Zm15.43,0h26.95V25.547h-22.98V8.695h21.11V5.3h-21.11v-16.15h22.51V-14.3h-26.48V29Zm57.4-2.37q3.855-3.013,3.86-8.631a11.167,11.167,0,0,0-1-5,10.072,10.072,0,0,0-2.71-3.423,15.425,15.425,0,0,0-4.1-2.341c-1.57-.624-3.28-1.209-5.11-1.755a35.282,35.282,0,0,1-4.88-1.7,11.97,11.97,0,0,1-3.16-1.96,6.437,6.437,0,0,1-1.72-2.4,8.083,8.083,0,0,1-.53-3.013,7.2,7.2,0,0,1,2.84-5.968,12.031,12.031,0,0,1,7.63-2.223,37.488,37.488,0,0,1,5.05.38,50,50,0,0,1,5.53,1.082l0.11-3.511a50.765,50.765,0,0,0-10.93-1.4,19.791,19.791,0,0,0-5.9.819,12.927,12.927,0,0,0-4.5,2.37,10.7,10.7,0,0,0-2.9,3.716,11.118,11.118,0,0,0-1.02,4.8,12.25,12.25,0,0,0,.7,4.33,9.007,9.007,0,0,0,2.22,3.335,14.812,14.812,0,0,0,3.92,2.6,39.51,39.51,0,0,0,5.79,2.136c1.48,0.43,2.86.888,4.15,1.375A15.01,15.01,0,0,1,2671.87,12a7.6,7.6,0,0,1,2.25,2.516,7.58,7.58,0,0,1,.82,3.657,6.922,6.922,0,0,1-2.84,5.939q-2.835,2.078-8.15,2.077a44.691,44.691,0,0,1-6.2-.5,62.519,62.519,0,0,1-6.72-1.317l-0.12,3.452a61.749,61.749,0,0,0,6.78,1.317,46.748,46.748,0,0,0,6.37.5Q2671.32,29.642,2675.17,26.629ZM2702.06,29h3.97V8.519h25.32V29h3.91V-14.3h-3.91V5.125h-25.32V-14.3h-3.97V29Zm39.75,0h3.92l5.02-13.517h19.88L2775.71,29h3.92V28.648L2763.73-14.3h-6.02l-15.9,42.949V29Zm10.11-17.027,5.96-15.916,2.63-7.314h0.36l2.68,7.314,5.97,15.916h-17.6Zm55.65,14.658q3.855-3.013,3.86-8.631a11.31,11.31,0,0,0-.99-5,10.222,10.222,0,0,0-2.72-3.423,15.425,15.425,0,0,0-4.1-2.341c-1.57-.624-3.28-1.209-5.11-1.755a35.282,35.282,0,0,1-4.88-1.7,11.97,11.97,0,0,1-3.16-1.96,6.437,6.437,0,0,1-1.72-2.4,8.083,8.083,0,0,1-.53-3.013,7.2,7.2,0,0,1,2.84-5.968,12.031,12.031,0,0,1,7.63-2.223,37.488,37.488,0,0,1,5.05.38,50,50,0,0,1,5.53,1.082l0.11-3.511a50.765,50.765,0,0,0-10.93-1.4,19.791,19.791,0,0,0-5.9.819,12.927,12.927,0,0,0-4.5,2.37,10.7,10.7,0,0,0-2.9,3.716,11.118,11.118,0,0,0-1.02,4.8,12.25,12.25,0,0,0,.7,4.33,9.007,9.007,0,0,0,2.22,3.335,14.812,14.812,0,0,0,3.92,2.6,39.51,39.51,0,0,0,5.79,2.136c1.48,0.43,2.86.888,4.15,1.375A15.01,15.01,0,0,1,2804.27,12a7.6,7.6,0,0,1,2.25,2.516,7.58,7.58,0,0,1,.82,3.657,6.922,6.922,0,0,1-2.84,5.939q-2.835,2.078-8.15,2.077a44.691,44.691,0,0,1-6.2-.5,62.519,62.519,0,0,1-6.72-1.317l-0.12,3.452a62.211,62.211,0,0,0,6.78,1.317,46.748,46.748,0,0,0,6.37.5Q2803.72,29.642,2807.57,26.629ZM2834.46,29h24.02V25.605h-20.05V-14.3h-3.97V29Zm30.86,0h26.95V25.547H2869.3V8.695h21.1V5.3h-21.1v-16.15h22.5V-14.3h-26.48V29Zm31.1,0h3.92l5.02-13.517h19.88L2930.33,29h3.91V28.648L2918.34-14.3h-6.02l-15.9,42.949V29Zm10.11-17.027,5.97-15.916,2.63-7.314h0.35l2.69,7.314,5.96,15.916h-17.6ZM2940.79,29h3.68V-8.04h0.29l3.34,4.974L2971.42,29h3.62V-14.3h-3.68V22.8h-0.29l-3.51-5.149L2944.35-14.3h-3.56V29Zm55.47,0h3.98V-10.849h14.32V-14.3H2982v3.452h14.26V29Z"/>
  <path id="documents_lent_to_scholars_government_agencies_and_institutio" data-name="documents lent to scholars,  government agencies and institutio" class="cls-3" d="M2086.72,378.835q5.475-5.382,5.47-16.91,0-11.468-5.26-16.823t-16.55-5.354c-0.7,0-1.54.021-2.51,0.059s-1.98.088-3.01,0.146-2.08.127-3.13,0.205-2.01.156-2.86,0.234v42.949a19.644,19.644,0,0,0,4.32.673q2.865,0.2,6.2.2Q2081.255,384.219,2086.72,378.835Zm-18.24,1.9c-0.6-.019-1.19-0.048-1.78-0.088s-1.19-.1-1.81-0.175-1.31-.176-2.05-0.293V343.727c1.17-.155,2.5-0.272,3.98-0.351s2.76-.117,3.86-0.117q9.06,0,13.26,4.477t4.21,14.189q0,9.772-4.29,14.307-4.305,4.534-13.48,4.534C2069.72,380.766,2069.09,380.757,2068.48,380.737Zm62.49-2.194q4.77-5.618,4.77-16.559,0-11-4.77-16.648-4.755-5.646-13.53-5.646-8.88,0-13.62,5.646t-4.74,16.648q0,11,4.74,16.588t13.62,5.588Q2126.215,384.16,2130.97,378.543Zm-24.23-2.516q-3.615-4.681-3.62-14.043,0-9.421,3.62-14.131t10.7-4.711q7.065,0,10.67,4.711,3.585,4.71,3.59,14.131,0,9.3-3.59,14.014t-10.67,4.71Q2110.36,380.708,2106.74,376.027Zm57.26,7.987c0.84-.059,1.68-0.146,2.54-0.263s1.7-.254,2.52-0.41,1.55-.331,2.22-0.527v-3.393c-0.59.156-1.31,0.3-2.17,0.438s-1.73.264-2.63,0.381-1.76.2-2.6,0.263-1.57.088-2.19,0.088q-14.97,0-14.96-18.607,0-9.6,3.79-14.161c2.54-3.042,6.41-4.564,11.64-4.564a37.586,37.586,0,0,1,4.15.264c1.56,0.175,3.21.419,4.97,0.731v-3.511c-1.6-.312-3.26-0.565-4.97-0.761a40.856,40.856,0,0,0-4.5-.292q-19.185,0-19.18,22.352,0,21.942,19.06,22.06Q2162.74,384.1,2164,384.014Zm39.49-.878a12.306,12.306,0,0,0,5.23-3.218,13.348,13.348,0,0,0,3.04-5.588,30.407,30.407,0,0,0,.96-8.192V340.275h-3.97v25.687a25.606,25.606,0,0,1-.79,6.788,11.135,11.135,0,0,1-2.4,4.564,9.262,9.262,0,0,1-4,2.545,20.35,20.35,0,0,1-11.23,0,9.2,9.2,0,0,1-4-2.545,11.135,11.135,0,0,1-2.4-4.564,25.606,25.606,0,0,1-.79-6.788V340.275h-3.91v25.863a30.407,30.407,0,0,0,.96,8.192,13.419,13.419,0,0,0,3.01,5.588,12.021,12.021,0,0,0,5.2,3.218A28.308,28.308,0,0,0,2203.49,383.136Zm20.22,0.439h3.68V345.717h0.3l5.08,12.288,10.29,23.873h3.8l10.29-23.873,5.02-12.288h0.35v37.858h3.69v-43.3h-5.44l-11.87,27.852-3.8,9.421h-0.35l-3.74-9.421-11.86-27.852h-5.44v43.3Zm53.95,0h26.95v-3.452h-22.97V363.271h21.1v-3.394h-21.1v-16.15h22.5v-3.452h-26.48v43.3Zm36.01,0h3.68V346.536h0.3l3.33,4.974,23.32,32.065h3.63v-43.3h-3.69v37.1h-0.29l-3.51-5.15-23.2-31.948h-3.57v43.3Zm55.48,0h3.97V343.727h14.32v-3.452h-32.56v3.452h14.27v39.848Zm46.35-2.37q3.855-3.012,3.86-8.631a11.3,11.3,0,0,0-.99-5,10.218,10.218,0,0,0-2.72-3.423,15.486,15.486,0,0,0-4.09-2.341q-2.37-.936-5.12-1.755a35.322,35.322,0,0,1-4.88-1.7,11.949,11.949,0,0,1-3.16-1.961,6.431,6.431,0,0,1-1.72-2.4,8.078,8.078,0,0,1-.53-3.013,7.2,7.2,0,0,1,2.84-5.968,12.032,12.032,0,0,1,7.63-2.224,37.517,37.517,0,0,1,5.05.38,50.214,50.214,0,0,1,5.53,1.083l0.11-3.511a50.776,50.776,0,0,0-10.93-1.4,19.788,19.788,0,0,0-5.9.819,12.936,12.936,0,0,0-4.5,2.37,10.7,10.7,0,0,0-2.9,3.715,11.121,11.121,0,0,0-1.02,4.8,12.252,12.252,0,0,0,.7,4.33,9.016,9.016,0,0,0,2.22,3.335,14.833,14.833,0,0,0,3.92,2.6,39.494,39.494,0,0,0,5.79,2.135c1.48,0.43,2.86.888,4.15,1.375a15.044,15.044,0,0,1,3.36,1.756,7.073,7.073,0,0,1,3.07,6.173,6.921,6.921,0,0,1-2.84,5.939q-2.835,2.077-8.15,2.077a44.656,44.656,0,0,1-6.2-.5,62.445,62.445,0,0,1-6.72-1.317l-0.12,3.453a62.4,62.4,0,0,0,6.78,1.316,46.756,46.756,0,0,0,6.37.5Q2411.65,384.219,2415.5,381.205Zm26.89,2.37h24.02v-3.394h-20.05V340.275h-3.97v43.3Zm30.86,0h26.95v-3.452h-22.97V363.271h21.1v-3.394h-21.1v-16.15h22.5v-3.452h-26.48v43.3Zm36.01,0h3.68V346.536h0.3l3.33,4.974,23.32,32.065h3.63v-43.3h-3.69v37.1h-0.29l-3.51-5.15-23.2-31.948h-3.57v43.3Zm55.47,0h3.98V343.727h14.32v-3.452h-32.56v3.452h14.26v39.848Zm46.59,0h3.98V343.727h14.32v-3.452h-32.56v3.452h14.26v39.848Zm52.64-5.032q4.77-5.618,4.77-16.559,0-11-4.77-16.648t-13.53-5.646q-8.88,0-13.62,5.646t-4.73,16.648q0,11,4.73,16.588t13.62,5.588Q2659.205,384.16,2663.96,378.543Zm-24.23-2.516q-3.615-4.681-3.62-14.043,0-9.421,3.62-14.131t10.7-4.711q7.08,0,10.67,4.711t3.59,14.131q0,9.3-3.59,14.014t-10.67,4.71Q2643.35,380.708,2639.73,376.027Zm74.18,5.178q3.855-3.012,3.86-8.631a11.3,11.3,0,0,0-.99-5,10.218,10.218,0,0,0-2.72-3.423,15.486,15.486,0,0,0-4.09-2.341q-2.37-.936-5.12-1.755a35.8,35.8,0,0,1-4.88-1.7,11.949,11.949,0,0,1-3.16-1.961,6.431,6.431,0,0,1-1.72-2.4,8.078,8.078,0,0,1-.53-3.013,7.2,7.2,0,0,1,2.84-5.968,12.032,12.032,0,0,1,7.63-2.224,37.517,37.517,0,0,1,5.05.38,50.214,50.214,0,0,1,5.53,1.083l0.11-3.511a50.776,50.776,0,0,0-10.93-1.4,19.788,19.788,0,0,0-5.9.819,13.025,13.025,0,0,0-4.5,2.37,10.821,10.821,0,0,0-2.9,3.715,11.121,11.121,0,0,0-1.02,4.8,12.482,12.482,0,0,0,.7,4.33,9.016,9.016,0,0,0,2.22,3.335,14.833,14.833,0,0,0,3.92,2.6,39.494,39.494,0,0,0,5.79,2.135c1.48,0.43,2.86.888,4.15,1.375a15.044,15.044,0,0,1,3.36,1.756,7.073,7.073,0,0,1,3.07,6.173,6.921,6.921,0,0,1-2.84,5.939q-2.835,2.077-8.15,2.077a44.773,44.773,0,0,1-6.2-.5,62.445,62.445,0,0,1-6.72-1.317l-0.12,3.453a62.876,62.876,0,0,0,6.78,1.316,46.774,46.774,0,0,0,6.38.5Q2710.055,384.219,2713.91,381.205Zm31.36,2.809q1.26-.089,2.55-0.263c0.85-.117,1.69-0.254,2.51-0.41a22.545,22.545,0,0,0,2.22-.527v-3.393a21.942,21.942,0,0,1-2.16.438c-0.86.138-1.74,0.264-2.63,0.381s-1.77.2-2.6,0.263-1.57.088-2.2,0.088q-14.955,0-14.96-18.607,0-9.6,3.8-14.161t11.63-4.564a37.44,37.44,0,0,1,4.15.264c1.56,0.175,3.22.419,4.97,0.731v-3.511c-1.6-.312-3.25-0.565-4.97-0.761a40.558,40.558,0,0,0-4.5-.292q-19.17,0-19.17,22.352,0,21.942,19.05,22.06C2743.67,384.1,2744.43,384.072,2745.27,384.014Zm15.64-.439h3.97V363.1h25.32v20.48h3.91v-43.3h-3.91V359.7h-25.32V340.275h-3.97v43.3Zm74.27-5.032q4.755-5.618,4.76-16.559,0-11-4.76-16.648t-13.54-5.646q-8.88,0-13.62,5.646t-4.73,16.648q0,11,4.73,16.588t13.62,5.588Q2830.415,384.16,2835.18,378.543Zm-24.23-2.516q-3.63-4.681-3.63-14.043,0-9.421,3.63-14.131t10.69-4.711q7.08,0,10.67,4.711t3.6,14.131q0,9.3-3.6,14.014-3.585,4.71-10.67,4.71Q2814.575,380.708,2810.95,376.027Zm38.17,7.548h24.02v-3.394h-20.05V340.275h-3.97v43.3Zm25.95,0h3.92l5.03-13.517h19.87l5.09,13.517h3.91v-0.351l-15.9-42.949h-6.02l-15.9,42.949v0.351Zm10.11-17.027,5.97-15.916,2.63-7.314h0.35l2.69,7.314,5.96,15.916h-17.6Zm60.39,17.027h4.44l-10.93-17.32a12.721,12.721,0,0,0,7.31-4.418,13.7,13.7,0,0,0,2.34-8.4c0-4.8-1.52-8.289-4.53-10.474q-4.545-3.278-14.47-3.277a62.986,62.986,0,0,0-10.29.878v43.007h3.97V366.84q1.815,0.175,3.51.293c1.13,0.078,2.16.117,3.1,0.117,0.97,0,1.9-.019,2.78-0.059s1.72-.117,2.54-0.234Zm-19.2-19.865a19.019,19.019,0,0,1-2.96-.381V343.61c0.98-.155,2.09-0.282,3.34-0.38s2.41-.146,3.5-0.146q7.665,0,11.05,2.457t3.39,7.9a12.939,12.939,0,0,1-.79,4.8,7.09,7.09,0,0,1-2.48,3.218,11.593,11.593,0,0,1-4.39,1.814,31.244,31.244,0,0,1-6.54.585C2929.08,363.856,2927.71,363.808,2926.37,363.71Zm53.1,17.5q3.855-3.012,3.86-8.631a11.3,11.3,0,0,0-.99-5,10.218,10.218,0,0,0-2.72-3.423,15.486,15.486,0,0,0-4.09-2.341q-2.37-.936-5.12-1.755a35.8,35.8,0,0,1-4.88-1.7,11.949,11.949,0,0,1-3.16-1.961,6.431,6.431,0,0,1-1.72-2.4,8.078,8.078,0,0,1-.53-3.013,7.2,7.2,0,0,1,2.84-5.968,12.032,12.032,0,0,1,7.63-2.224,37.517,37.517,0,0,1,5.05.38,49.762,49.762,0,0,1,5.53,1.083l0.11-3.511a50.776,50.776,0,0,0-10.93-1.4,19.788,19.788,0,0,0-5.9.819,13.025,13.025,0,0,0-4.5,2.37,10.821,10.821,0,0,0-2.9,3.715,11.121,11.121,0,0,0-1.02,4.8,12.482,12.482,0,0,0,.7,4.33,9.016,9.016,0,0,0,2.22,3.335,14.833,14.833,0,0,0,3.92,2.6,39.494,39.494,0,0,0,5.79,2.135c1.48,0.43,2.86.888,4.15,1.375a15.044,15.044,0,0,1,3.36,1.756,7.6,7.6,0,0,1,2.25,2.516,7.467,7.467,0,0,1,.82,3.657,6.921,6.921,0,0,1-2.84,5.939q-2.835,2.077-8.15,2.077a44.773,44.773,0,0,1-6.2-.5,62.445,62.445,0,0,1-6.72-1.317l-0.12,3.453a62.876,62.876,0,0,0,6.78,1.316,46.774,46.774,0,0,0,6.38.5Q2975.615,384.219,2979.47,381.205Zm11.93,11.44,3.74-14.1h-4.09l-2.69,13.516ZM2081.72,452.6a44.841,44.841,0,0,0,5.91-1.288V430.544h-3.8v18.2c-1.25.234-2.59,0.429-4.04,0.585a34.672,34.672,0,0,1-3.62.234q-15.495,0-15.49-18.607,0-9.537,3.97-14.131t12.28-4.594q1.17,0,2.28.059t2.34,0.234c0.82,0.117,1.68.263,2.6,0.439s1.96,0.4,3.13.673v-3.511a54.423,54.423,0,0,0-5.47-1.083,36.2,36.2,0,0,0-5.11-.38q-20.115,0-20.11,22.352,0,21.942,19.58,22.06A37.572,37.572,0,0,0,2081.72,452.6Zm45.39-5.091q4.77-5.618,4.77-16.559,0-11-4.77-16.648t-13.53-5.646q-8.88,0-13.62,5.646t-4.73,16.648q0,11,4.73,16.588t13.62,5.588Q2122.355,453.13,2127.11,447.513ZM2102.88,445q-3.615-4.682-3.62-14.043,0-9.421,3.62-14.131t10.7-4.711q7.08,0,10.67,4.711t3.59,14.131q0,9.3-3.59,14.014t-10.67,4.71Q2106.515,449.678,2102.88,445Zm48.58,7.548h5.38l16.19-43.3h-4.15l-11.58,31.071-2.98,8.25h-0.35l-2.92-8.25-11.57-31.071h-4.15Zm28.12,0h26.94v-3.452h-22.97V432.241h21.1v-3.394h-21.1V412.7h22.51v-3.452h-26.48v43.3Zm62.13,0h4.45l-10.94-17.32a12.688,12.688,0,0,0,7.31-4.418,13.7,13.7,0,0,0,2.34-8.4q0-7.2-4.53-10.474t-14.47-3.277a63.172,63.172,0,0,0-10.29.878v43.007h3.98V435.81q1.815,0.175,3.51.293t3.09,0.117c0.98,0,1.9-.019,2.78-0.059a25.5,25.5,0,0,0,2.54-.234Zm-19.2-19.865a18.851,18.851,0,0,1-2.95-.381V412.58q1.455-.232,3.33-0.38t3.51-.146q7.65,0,11.05,2.457t3.39,7.9a13.146,13.146,0,0,1-.79,4.8,7.179,7.179,0,0,1-2.49,3.218,11.611,11.611,0,0,1-4.38,1.814,31.346,31.346,0,0,1-6.55.585C2225.23,432.826,2223.86,432.778,2222.51,432.68Zm31.71,19.865h3.68V415.506h0.3l3.33,4.974,23.32,32.065h3.63v-43.3h-3.69v37.1h-0.29l-3.51-5.15-23.2-31.948h-3.57v43.3Zm45.71,0h3.69V414.687h0.29l5.08,12.288,10.29,23.873h3.8l10.29-23.873,5.03-12.288h0.35v37.858h3.68v-43.3h-5.44L2325.13,437.1l-3.8,9.421h-0.35l-3.74-9.421-11.87-27.852h-5.44v43.3Zm53.96,0h26.95v-3.452h-22.98V432.241h21.1v-3.394h-21.1V412.7h22.51v-3.452h-26.48v43.3Zm36.01,0h3.68V415.506h0.29l3.33,4.974,23.33,32.065h3.62v-43.3h-3.68v37.1h-0.29l-3.51-5.15-23.21-31.948h-3.56v43.3Zm55.47,0h3.97V412.7h14.33v-3.452h-32.56V412.7h14.26v39.848Zm31.8,0h3.91l5.03-13.517h19.88l5.08,13.517h3.92v-0.351l-15.9-42.949h-6.02l-15.9,42.949v0.351Zm10.11-17.027,5.96-15.916,2.63-7.314h0.35l2.69,7.314,5.97,15.916h-17.6Zm56.41,17.086a44.688,44.688,0,0,0,5.9-1.288V430.544h-3.8v18.2c-1.24.234-2.59,0.429-4.03,0.585a34.672,34.672,0,0,1-3.62.234q-15.495,0-15.49-18.607,0-9.537,3.97-14.131t12.28-4.594q1.17,0,2.28.059t2.34,0.234c0.81,0.117,1.68.263,2.6,0.439s1.95,0.4,3.12.673v-3.511a54.246,54.246,0,0,0-5.46-1.083,36.341,36.341,0,0,0-5.12-.38q-20.1,0-20.11,22.352,0,21.942,19.59,22.06A37.791,37.791,0,0,0,2543.69,452.6Zm15.78-.059h26.95v-3.452h-22.97V432.241h21.1v-3.394h-21.1V412.7h22.5v-3.452h-26.48v43.3Zm36.01,0h3.68V415.506h0.3l3.33,4.974,23.32,32.065h3.63v-43.3h-3.69v37.1h-0.29l-3.51-5.15-23.2-31.948h-3.57v43.3Zm64.8,0.439c0.84-.059,1.68-0.146,2.54-0.263s1.7-.254,2.51-0.41,1.56-.331,2.23-0.527v-3.393c-0.59.156-1.31,0.3-2.17,0.438s-1.73.264-2.63,0.381-1.76.205-2.6,0.263-1.57.088-2.19,0.088q-14.97,0-14.97-18.607,0-9.6,3.8-14.161c2.54-3.042,6.41-4.564,11.64-4.564a37.586,37.586,0,0,1,4.15.264c1.55,0.175,3.21.419,4.97,0.731v-3.511c-1.6-.312-3.26-0.565-4.97-0.761a40.856,40.856,0,0,0-4.5-.292q-19.185,0-19.18,22.352,0,21.942,19.06,22.06Q2659.02,453.072,2660.28,452.984Zm15.63-.439h3.98v-43.3h-3.98v43.3Zm15.44,0h26.94v-3.452h-22.97V432.241h21.1v-3.394h-21.1V412.7h22.51v-3.452h-26.48v43.3Zm57.4-2.37q3.855-3.012,3.86-8.631a11.162,11.162,0,0,0-1-5,10.19,10.19,0,0,0-2.71-3.423,15.392,15.392,0,0,0-4.1-2.341c-1.57-.624-3.28-1.209-5.11-1.755a35.322,35.322,0,0,1-4.88-1.7,11.974,11.974,0,0,1-3.16-1.96,6.442,6.442,0,0,1-1.72-2.4,8.078,8.078,0,0,1-.53-3.013,7.172,7.172,0,0,1,2.84-5.968,12.021,12.021,0,0,1,7.62-2.224,37.656,37.656,0,0,1,5.06.38,49.591,49.591,0,0,1,5.52,1.083l0.12-3.511a50.776,50.776,0,0,0-10.93-1.4,19.788,19.788,0,0,0-5.9.819,12.936,12.936,0,0,0-4.5,2.37,10.7,10.7,0,0,0-2.9,3.715,11.121,11.121,0,0,0-1.02,4.8,12.252,12.252,0,0,0,.7,4.33,9.016,9.016,0,0,0,2.22,3.335,14.67,14.67,0,0,0,3.92,2.6,39.333,39.333,0,0,0,5.78,2.135c1.49,0.43,2.87.888,4.16,1.375a15.044,15.044,0,0,1,3.36,1.756,7.073,7.073,0,0,1,3.07,6.173,6.921,6.921,0,0,1-2.84,5.939q-2.835,2.077-8.15,2.077a44.656,44.656,0,0,1-6.2-.5,62.445,62.445,0,0,1-6.72-1.317l-0.12,3.453a61.939,61.939,0,0,0,6.78,1.316,46.756,46.756,0,0,0,6.37.5Q2744.885,453.189,2748.75,450.175Zm20.34,2.37h3.92l5.02-13.517h19.88l5.08,13.517h3.92v-0.351l-15.9-42.949h-6.02l-15.9,42.949v0.351Zm10.11-17.027,5.97-15.916,2.63-7.314h0.35l2.69,7.314,5.96,15.916h-17.6Zm34.26,17.027h3.68V415.506h0.29l3.34,4.974,23.32,32.065h3.62v-43.3h-3.68v37.1h-0.29l-3.51-5.15-23.21-31.948h-3.56v43.3Zm73.56-4.74q5.475-5.382,5.47-16.91,0-11.467-5.26-16.823t-16.54-5.354c-0.71,0-1.54.021-2.52,0.059s-1.98.088-3.01,0.146-2.07.127-3.13,0.2-2,.156-2.86.234v42.949a19.754,19.754,0,0,0,4.33.673c1.9,0.136,3.97.205,6.19,0.205Q2881.555,453.189,2887.02,447.805Zm-18.23,1.9c-0.61-.019-1.2-0.048-1.79-0.088s-1.19-.1-1.81-0.175-1.31-.176-2.05-0.293V412.7c1.17-.155,2.5-0.272,3.98-0.351s2.77-.117,3.86-0.117q9.06,0,13.27,4.477t4.21,14.189q0,9.773-4.3,14.307t-13.47,4.534C2870.02,449.736,2869.39,449.727,2868.79,449.707Zm-809.92,71.808h3.97v-43.3h-3.97v43.3Zm15.43,0h3.68V484.476h0.29l3.34,4.974,23.32,32.065h3.62v-43.3h-3.68v37.1h-0.29l-3.51-5.15-23.2-31.948h-3.57v43.3Zm67.11-2.37q3.855-3.012,3.85-8.631a11.3,11.3,0,0,0-.99-5,10.1,10.1,0,0,0-2.72-3.423,15.328,15.328,0,0,0-4.09-2.341q-2.37-.936-5.11-1.755a35.985,35.985,0,0,1-4.89-1.7,12.07,12.07,0,0,1-3.15-1.96,6.473,6.473,0,0,1-1.73-2.4,8.081,8.081,0,0,1-.52-3.013,7.19,7.19,0,0,1,2.83-5.968,12.032,12.032,0,0,1,7.63-2.224,37.656,37.656,0,0,1,5.06.38,49.591,49.591,0,0,1,5.52,1.083l0.12-3.511a50.851,50.851,0,0,0-10.93-1.4,19.856,19.856,0,0,0-5.91.819,13.116,13.116,0,0,0-4.5,2.37,10.674,10.674,0,0,0-2.89,3.715,11.121,11.121,0,0,0-1.02,4.8,12.252,12.252,0,0,0,.7,4.33,8.779,8.779,0,0,0,2.22,3.335,14.769,14.769,0,0,0,3.91,2.6,39.494,39.494,0,0,0,5.79,2.135c1.48,0.43,2.87.888,4.15,1.375a14.619,14.619,0,0,1,3.36,1.756,7.385,7.385,0,0,1,2.25,2.516,7.467,7.467,0,0,1,.82,3.657,6.914,6.914,0,0,1-2.83,5.939q-2.835,2.077-8.16,2.077a44.524,44.524,0,0,1-6.19-.5,63.12,63.12,0,0,1-6.73-1.317l-0.11,3.453a61.939,61.939,0,0,0,6.78,1.316,46.638,46.638,0,0,0,6.37.5Q2137.545,522.159,2141.41,519.145Zm22.03,2.37h3.98V481.667h14.32v-3.452h-32.56v3.452h14.26v39.848Zm25.26,0h3.97v-43.3h-3.97v43.3Zm25.19,0h3.97V481.667h14.33v-3.452h-32.56v3.452h14.26v39.848Zm49.1-.439a12.186,12.186,0,0,0,5.23-3.218,13.131,13.131,0,0,0,3.04-5.588,29.98,29.98,0,0,0,.97-8.192V478.215h-3.98V503.9a25.2,25.2,0,0,1-.79,6.788,11.006,11.006,0,0,1-2.39,4.564,9.3,9.3,0,0,1-4.01,2.545,20.314,20.314,0,0,1-11.22,0,9.3,9.3,0,0,1-4.01-2.545,11.006,11.006,0,0,1-2.39-4.564,25.2,25.2,0,0,1-.79-6.788V478.215h-3.92v25.863a29.98,29.98,0,0,0,.97,8.192,13.307,13.307,0,0,0,3.01,5.588,12.021,12.021,0,0,0,5.2,3.218A28.272,28.272,0,0,0,2262.99,521.076Zm29.99,0.439h3.97V481.667h14.33v-3.452h-32.56v3.452h14.26v39.848Zm25.25,0h3.98v-43.3h-3.98v43.3Zm45.04-5.032q4.77-5.617,4.76-16.559,0-11-4.76-16.648t-13.53-5.646q-8.895,0-13.62,5.646t-4.74,16.648q0,11,4.74,16.588t13.62,5.588Q2358.5,522.1,2363.27,516.483Zm-24.23-2.516q-3.63-4.681-3.62-14.043,0-9.422,3.62-14.131t10.7-4.711q7.065,0,10.67,4.711,3.585,4.71,3.59,14.131,0,9.3-3.59,14.014t-10.67,4.71Q2342.66,518.648,2339.04,513.967Zm38.17,7.548h3.68V484.476h0.3l3.33,4.974,23.32,32.065h3.63v-43.3h-3.69v37.1h-0.29l-3.51-5.15-23.2-31.948h-3.57v43.3Zm67.11-2.37q3.855-3.012,3.86-8.631a11.3,11.3,0,0,0-1-5,10.1,10.1,0,0,0-2.72-3.423,15.328,15.328,0,0,0-4.09-2.341q-2.37-.936-5.11-1.755a35.322,35.322,0,0,1-4.88-1.7,11.974,11.974,0,0,1-3.16-1.96,6.587,6.587,0,0,1-1.73-2.4,8.081,8.081,0,0,1-.52-3.013,7.19,7.19,0,0,1,2.83-5.968,12.051,12.051,0,0,1,7.63-2.224,37.656,37.656,0,0,1,5.06.38,49.591,49.591,0,0,1,5.52,1.083l0.12-3.511a50.776,50.776,0,0,0-10.93-1.4,19.9,19.9,0,0,0-5.91.819,13.116,13.116,0,0,0-4.5,2.37,10.793,10.793,0,0,0-2.89,3.715,11.121,11.121,0,0,0-1.02,4.8,12.252,12.252,0,0,0,.7,4.33,9.016,9.016,0,0,0,2.22,3.335,14.67,14.67,0,0,0,3.92,2.6,38.907,38.907,0,0,0,5.78,2.135c1.48,0.43,2.87.888,4.15,1.375a14.619,14.619,0,0,1,3.36,1.756,7.013,7.013,0,0,1,3.07,6.173,6.914,6.914,0,0,1-2.83,5.939q-2.835,2.077-8.16,2.077a44.64,44.64,0,0,1-6.19-.5,62.445,62.445,0,0,1-6.72-1.317l-0.12,3.453a61.939,61.939,0,0,0,6.78,1.316,46.756,46.756,0,0,0,6.37.5Q2440.455,522.159,2444.32,519.145Zm20.34,2.37h3.92L2473.6,508h19.88l5.08,13.517h3.92v-0.351l-15.9-42.949h-6.02l-15.9,42.949v0.351Zm10.11-17.027,5.96-15.916,2.63-7.314h0.36l2.68,7.314,5.97,15.916h-17.6Zm60.39,17.027h4.44l-10.93-17.32a12.66,12.66,0,0,0,7.3-4.418,13.7,13.7,0,0,0,2.34-8.4q0-7.2-4.53-10.474t-14.47-3.277a62.96,62.96,0,0,0-10.28.878v43.007H2513V504.78q1.815,0.176,3.51.293c1.13,0.078,2.16.117,3.1,0.117,0.97,0,1.9-.019,2.77-0.059s1.73-.117,2.55-0.234Zm-19.21-19.865a18.851,18.851,0,0,1-2.95-.381V481.55c0.97-.155,2.09-0.282,3.33-0.38s2.42-.146,3.51-0.146q7.665,0,11.05,2.457t3.39,7.9a12.939,12.939,0,0,1-.79,4.8,7.158,7.158,0,0,1-2.48,3.218,11.732,11.732,0,0,1-4.39,1.814,31.279,31.279,0,0,1-6.55.585C2518.67,501.8,2517.3,501.748,2515.95,501.65Zm61.32,14.833q4.77-5.617,4.77-16.559,0-11-4.77-16.648t-13.53-5.646q-8.88,0-13.62,5.646t-4.74,16.648q0,11,4.74,16.588t13.62,5.588Q2572.515,522.1,2577.27,516.483Zm-24.23-2.516q-3.615-4.681-3.62-14.043,0-9.422,3.62-14.131t10.7-4.711q7.065,0,10.67,4.711,3.585,4.71,3.59,14.131,0,9.3-3.59,14.014t-10.67,4.71Q2556.66,518.648,2553.04,513.967Zm62.02,7.109a12.186,12.186,0,0,0,5.23-3.218,13.131,13.131,0,0,0,3.04-5.588,29.98,29.98,0,0,0,.97-8.192V478.215h-3.98V503.9a25.2,25.2,0,0,1-.79,6.788,11.006,11.006,0,0,1-2.39,4.564,9.237,9.237,0,0,1-4.01,2.545,20.314,20.314,0,0,1-11.22,0,9.2,9.2,0,0,1-4-2.545,11.018,11.018,0,0,1-2.4-4.564,25.2,25.2,0,0,1-.79-6.788V478.215h-3.92v25.863a30.375,30.375,0,0,0,.97,8.192,13.307,13.307,0,0,0,3.01,5.588,12.021,12.021,0,0,0,5.2,3.218A28.272,28.272,0,0,0,2615.06,521.076Zm20.23,0.439h3.68V484.476h0.29l3.33,4.974,23.33,32.065h3.62v-43.3h-3.68v37.1h-0.29l-3.51-5.15-23.21-31.948h-3.56v43.3Zm73.56-4.74q5.475-5.382,5.47-16.91,0-11.467-5.26-16.823t-16.54-5.354c-0.71,0-1.54.021-2.52,0.059s-1.98.088-3.01,0.146-2.07.127-3.13,0.205-2,.156-2.86.234v42.949a19.754,19.754,0,0,0,4.33.673c1.9,0.136,3.97.205,6.19,0.205Q2703.385,522.159,2708.85,516.775Zm-18.23,1.9c-0.61-.019-1.2-0.048-1.79-0.088s-1.19-.1-1.81-0.175-1.31-.176-2.05-0.293V481.667c1.17-.155,2.5-0.272,3.98-0.351s2.77-.117,3.86-0.117q9.06,0,13.27,4.477t4.21,14.189q0,9.772-4.3,14.307t-13.47,4.534C2691.85,518.706,2691.22,518.7,2690.62,518.677Zm55.73,2.838h3.98V481.667h14.32v-3.452h-32.56v3.452h14.26v39.848Zm25.25,0h3.98v-20.48h25.31v20.48h3.92v-43.3h-3.92v19.427h-25.31V478.215h-3.98v43.3Zm44.66,0h26.95v-3.452h-22.97V501.211h21.1v-3.394h-21.1v-16.15h22.5v-3.452h-26.48v43.3Zm56.94,0h5.38l8.65-30.368,1.75-7.315h0.29l1.76,7.256,8.53,30.427h5.32l12.22-43.3h-4.15l-8.42,30.486-2.16,8.426h-0.35l-2.28-8.426-8.48-30.486h-4.21l-8.71,30.486-2.22,8.426h-0.35l-2.16-8.426-8.24-30.486h-4.15Zm80.23-5.032q4.77-5.617,4.76-16.559,0-11-4.76-16.648t-13.53-5.646q-8.9,0-13.62,5.646-4.74,5.647-4.74,16.648t4.74,16.588Q2931,522.1,2939.9,522.1,2948.66,522.1,2953.43,516.483Zm-24.23-2.516q-3.63-4.681-3.62-14.043,0-9.422,3.62-14.131t10.7-4.711q7.065,0,10.67,4.711,3.585,4.71,3.59,14.131,0,9.3-3.59,14.014t-10.67,4.71Q2932.82,518.648,2929.2,513.967Zm64.3,7.548h4.44l-10.93-17.32a12.721,12.721,0,0,0,7.31-4.418,13.7,13.7,0,0,0,2.34-8.4q0-7.2-4.53-10.474t-14.47-3.277a63.172,63.172,0,0,0-10.29.878v43.007h3.98V504.78c1.2,0.117,2.37.215,3.5,0.293s2.17,0.117,3.1.117c0.97,0,1.9-.019,2.78-0.059s1.72-.117,2.54-0.234Zm-19.2-19.865a18.677,18.677,0,0,1-2.95-.381V481.55q1.455-.233,3.33-0.38c1.24-.1,2.41-0.146,3.5-0.146q7.665,0,11.05,2.457t3.39,7.9a12.939,12.939,0,0,1-.79,4.8,7.09,7.09,0,0,1-2.48,3.218,11.611,11.611,0,0,1-4.38,1.814,31.413,31.413,0,0,1-6.55.585C2977.02,501.8,2975.64,501.748,2974.3,501.65Zm31.71,19.865h24.02v-3.394h-20.05V478.215h-3.97v43.3Zm58.72-4.74q5.46-5.382,5.46-16.91,0-11.467-5.26-16.823t-16.54-5.354q-1.05,0-2.52.059c-0.97.039-1.97,0.088-3.01,0.146s-2.07.127-3.12,0.205-2.01.156-2.87,0.234v42.949a19.86,19.86,0,0,0,4.33.673q2.865,0.2,6.19.205Q3059.255,522.159,3064.73,516.775Zm-18.24,1.9c-0.61-.019-1.2-0.048-1.78-0.088s-1.19-.1-1.82-0.175-1.3-.176-2.04-0.293V481.667c1.17-.155,2.49-0.272,3.97-0.351s2.77-.117,3.86-0.117q9.06,0,13.27,4.477t4.21,14.189q0,9.772-4.3,14.307t-13.47,4.534C3047.72,518.706,3047.09,518.7,3046.49,518.677Z"/>
  <path id="The_East_Asia_Library_houses_" data-name="The East Asia Library houses " class="cls-2" d="M15.556,65.345H19.53V25.5H33.851V22.047H1.293V25.5H15.556V65.345Zm25.251,0h3.975V44.866h25.31V65.345h3.916v-43.3H70.091V41.473H44.781V22.047H40.806v43.3Zm44.657,0H112.41V61.893H89.438V45.042h21.1V41.648h-21.1V25.5h22.5V22.047H85.464v43.3Zm50.619,0h26.946V61.893H140.056V45.042h21.1V41.648h-21.1V25.5h22.5V22.047H136.082v43.3Zm31.1,0h3.917l5.027-13.516h19.873l5.086,13.516H205V64.994L189.1,22.047h-6.021l-15.9,42.946v0.351ZM177.29,48.318L183.252,32.4l2.63-7.314h0.351l2.689,7.314,5.962,15.915H177.29Zm55.646,14.657q3.858-3.013,3.857-8.63a11.279,11.279,0,0,0-.993-5,10.142,10.142,0,0,0-2.718-3.423,15.407,15.407,0,0,0-4.092-2.34q-2.367-.935-5.114-1.755a35.587,35.587,0,0,1-4.881-1.7,12,12,0,0,1-3.157-1.96,6.472,6.472,0,0,1-1.724-2.4,8.063,8.063,0,0,1-.526-3.013,7.192,7.192,0,0,1,2.835-5.968,12.033,12.033,0,0,1,7.628-2.223,37.583,37.583,0,0,1,5.056.38,49.541,49.541,0,0,1,5.524,1.082l0.117-3.511a50.809,50.809,0,0,0-10.931-1.4,19.826,19.826,0,0,0-5.9.819,13.045,13.045,0,0,0-4.5,2.37,10.728,10.728,0,0,0-2.894,3.715,11.089,11.089,0,0,0-1.023,4.8,12.293,12.293,0,0,0,.7,4.33,8.924,8.924,0,0,0,2.221,3.335,14.7,14.7,0,0,0,3.916,2.6,39.378,39.378,0,0,0,5.787,2.136q2.22,0.645,4.15,1.375a14.783,14.783,0,0,1,3.361,1.755A7.069,7.069,0,0,1,232.7,54.52a6.918,6.918,0,0,1-2.835,5.939q-2.836,2.078-8.154,2.077a44.683,44.683,0,0,1-6.2-.5,62.775,62.775,0,0,1-6.722-1.316l-0.117,3.452a62,62,0,0,0,6.78,1.316,46.728,46.728,0,0,0,6.372.5Q229.077,65.988,232.936,62.975Zm22.036,2.37h3.974V25.5h14.321V22.047H240.709V25.5h14.263V65.345Zm31.8,0h3.917l5.026-13.516h19.874l5.085,13.516h3.917V64.994l-15.9-42.946h-6.021l-15.9,42.946v0.351Zm10.112-17.026L302.844,32.4l2.63-7.314h0.351l2.688,7.314,5.963,15.915h-17.6Zm55.646,14.657q3.858-3.013,3.858-8.63a11.279,11.279,0,0,0-.993-5,10.157,10.157,0,0,0-2.719-3.423,15.384,15.384,0,0,0-4.091-2.34q-2.367-.935-5.115-1.755a35.569,35.569,0,0,1-4.88-1.7,11.983,11.983,0,0,1-3.157-1.96,6.472,6.472,0,0,1-1.724-2.4,8.063,8.063,0,0,1-.526-3.013,7.192,7.192,0,0,1,2.835-5.968,12.031,12.031,0,0,1,7.628-2.223,37.607,37.607,0,0,1,5.056.38,49.524,49.524,0,0,1,5.523,1.082l0.117-3.511a50.793,50.793,0,0,0-10.93-1.4,19.826,19.826,0,0,0-5.9.819A13.059,13.059,0,0,0,333,24.3a10.725,10.725,0,0,0-2.893,3.715,11.089,11.089,0,0,0-1.023,4.8,12.293,12.293,0,0,0,.7,4.33,8.924,8.924,0,0,0,2.221,3.335,14.7,14.7,0,0,0,3.916,2.6,39.293,39.293,0,0,0,5.787,2.136q2.22,0.645,4.15,1.375a14.783,14.783,0,0,1,3.361,1.755,7.069,7.069,0,0,1,3.069,6.173,6.921,6.921,0,0,1-2.835,5.939q-2.837,2.078-8.154,2.077a44.683,44.683,0,0,1-6.2-.5,62.726,62.726,0,0,1-6.722-1.316l-0.117,3.452a61.955,61.955,0,0,0,6.78,1.316,46.726,46.726,0,0,0,6.371.5Q348.669,65.988,352.527,62.975Zm12.275,2.37h3.975v-43.3H364.8v43.3Zm10.521,0h3.916l5.027-13.516H404.14l5.085,13.516h3.917V64.994l-15.9-42.946h-6.021l-15.9,42.946v0.351Zm10.112-17.026L391.4,32.4l2.631-7.314h0.351l2.688,7.314,5.962,15.915H385.435Zm47.229,17.027h24.023V61.951H436.638v-39.9h-3.974v43.3Zm30.862,0H467.5v-43.3h-3.975v43.3Zm45.125-11.292a10.792,10.792,0,0,0-2.251-7.109,10.834,10.834,0,0,0-6.634-3.54V43.169A8.408,8.408,0,0,0,505.26,39.8a11.049,11.049,0,0,0,1.988-6.7q0-6.144-3.683-8.864t-11.982-2.721q-2.69,0-5.583.2t-7.043.614V65.052q3.507,0.468,6.868.673t6.342,0.2q16.484,0,16.484-11.878h0Zm-21.978,8.513a29.388,29.388,0,0,1-3.858-.439V44.983h10.17q6.021,0,8.856,2.165t2.835,6.67q0,4.564-3.069,6.729t-9.5,2.165Q489.069,62.712,486.673,62.565Zm-3.858-20.742V25.265a35.4,35.4,0,0,1,4-.38q2.133-.088,4.939-0.088a25.746,25.746,0,0,1,5.29.468,9.377,9.377,0,0,1,3.565,1.463,5.791,5.791,0,0,1,2.017,2.633,10.742,10.742,0,0,1,.643,3.92q0,4.623-2.426,6.582t-8.095,1.96h-9.937ZM543.78,65.345h4.442l-10.93-17.319a12.7,12.7,0,0,0,7.306-4.417,13.714,13.714,0,0,0,2.338-8.4q0-7.2-4.53-10.473t-14.467-3.277a63.169,63.169,0,0,0-10.287.878v43h3.975V48.611q1.811,0.175,3.507.292t3.1,0.117q1.46,0,2.776-.059t2.543-.234Zm-19.2-19.864a18.926,18.926,0,0,1-2.951-.38V25.382q1.46-.233,3.331-0.38t3.507-.146q7.658,0,11.048,2.457t3.39,7.9a13.018,13.018,0,0,1-.789,4.8,7.137,7.137,0,0,1-2.484,3.218,11.615,11.615,0,0,1-4.384,1.814,31.294,31.294,0,0,1-6.547.585Q526.595,45.627,524.578,45.48Zm26.8,19.864h3.916l5.027-13.516H580.2l5.085,13.516H589.2V64.994L573.3,22.047h-6.02l-15.9,42.946v0.351ZM561.49,48.318L567.452,32.4l2.63-7.314h0.351l2.689,7.314,5.962,15.915H561.49Zm60.381,17.027h4.442L615.382,48.026a12.7,12.7,0,0,0,7.307-4.417,13.714,13.714,0,0,0,2.338-8.4q0-7.2-4.53-10.473T606.03,21.462a63.16,63.16,0,0,0-10.287.878v43h3.974V48.611q1.812,0.175,3.507.292t3.1,0.117q1.461,0,2.777-.059t2.543-.234Zm-19.2-19.864a18.96,18.96,0,0,1-2.952-.38V25.382q1.461-.233,3.332-0.38t3.507-.146q7.657,0,11.048,2.457t3.39,7.9a13.018,13.018,0,0,1-.789,4.8,7.139,7.139,0,0,1-2.485,3.218,11.6,11.6,0,0,1-4.383,1.814,31.294,31.294,0,0,1-6.547.585Q604.685,45.627,602.669,45.48Zm41.3,19.864h3.975V50.6l15.548-28.553h-4.267l-11.4,21.064L646.128,46.8h-0.409l-1.754-3.686-11.34-21.064H628.3l15.665,28.67V65.345Zm38.636,0h3.975V44.866h25.309V65.345H715.8v-43.3h-3.917V41.473H686.576V22.047H682.6v43.3Zm74.263-5.032q4.764-5.617,4.764-16.558,0-11-4.764-16.646t-13.531-5.646q-8.886,0-13.62,5.646t-4.734,16.646q0,11,4.734,16.588t13.62,5.588Q752.1,65.93,756.864,60.313ZM732.636,57.8q-3.625-4.68-3.624-14.042,0-9.42,3.624-14.13t10.7-4.71q7.071,0,10.667,4.71t3.6,14.13q0,9.3-3.6,14.013t-10.667,4.71Q736.259,62.478,732.636,57.8Zm62.017,7.109a12.252,12.252,0,0,0,5.231-3.218,13.238,13.238,0,0,0,3.04-5.588,30.27,30.27,0,0,0,.964-8.191V22.047h-3.975V47.733a25.363,25.363,0,0,1-.789,6.787,11.07,11.07,0,0,1-2.4,4.564,9.256,9.256,0,0,1-4,2.545,20.327,20.327,0,0,1-11.223,0,9.238,9.238,0,0,1-4-2.545,11.059,11.059,0,0,1-2.4-4.564,25.363,25.363,0,0,1-.789-6.787V22.047H770.4V47.909a30.27,30.27,0,0,0,.964,8.191,13.4,13.4,0,0,0,3.011,5.588,12.025,12.025,0,0,0,5.2,3.218A28.275,28.275,0,0,0,794.653,64.906Zm41.617-1.931q3.858-3.013,3.858-8.63a11.278,11.278,0,0,0-.994-5,10.142,10.142,0,0,0-2.718-3.423,15.407,15.407,0,0,0-4.092-2.34q-2.367-.935-5.114-1.755a35.587,35.587,0,0,1-4.881-1.7,12,12,0,0,1-3.157-1.96,6.472,6.472,0,0,1-1.724-2.4,8.063,8.063,0,0,1-.526-3.013,7.192,7.192,0,0,1,2.835-5.968,12.033,12.033,0,0,1,7.628-2.223,37.583,37.583,0,0,1,5.056.38,49.541,49.541,0,0,1,5.524,1.082l0.117-3.511a50.8,50.8,0,0,0-10.931-1.4,19.815,19.815,0,0,0-5.9.819,13.041,13.041,0,0,0-4.5,2.37,10.728,10.728,0,0,0-2.894,3.715,11.089,11.089,0,0,0-1.023,4.8,12.293,12.293,0,0,0,.7,4.33,8.924,8.924,0,0,0,2.221,3.335,14.7,14.7,0,0,0,3.916,2.6,39.378,39.378,0,0,0,5.787,2.136q2.221,0.645,4.15,1.375a14.783,14.783,0,0,1,3.361,1.755,7.063,7.063,0,0,1,3.069,6.173,6.918,6.918,0,0,1-2.835,5.939q-2.837,2.078-8.154,2.077a44.683,44.683,0,0,1-6.2-.5,62.775,62.775,0,0,1-6.722-1.316l-0.117,3.452a61.974,61.974,0,0,0,6.781,1.316,46.7,46.7,0,0,0,6.371.5Q832.411,65.988,836.27,62.975Zm12.274,2.37h26.947V61.893H852.519V45.042h21.1V41.648h-21.1V25.5h22.5V22.047H848.544v43.3Zm57.4-2.37q3.857-3.013,3.857-8.63a11.279,11.279,0,0,0-.993-5,10.142,10.142,0,0,0-2.718-3.423A15.407,15.407,0,0,0,902,43.579q-2.367-.935-5.115-1.755a35.569,35.569,0,0,1-4.88-1.7,11.983,11.983,0,0,1-3.157-1.96,6.472,6.472,0,0,1-1.724-2.4,8.063,8.063,0,0,1-.526-3.013,7.192,7.192,0,0,1,2.835-5.968,12.031,12.031,0,0,1,7.628-2.223,37.583,37.583,0,0,1,5.056.38,49.541,49.541,0,0,1,5.524,1.082l0.117-3.511a50.809,50.809,0,0,0-10.931-1.4,19.826,19.826,0,0,0-5.9.819,13.045,13.045,0,0,0-4.5,2.37,10.728,10.728,0,0,0-2.894,3.715,11.089,11.089,0,0,0-1.023,4.8,12.293,12.293,0,0,0,.7,4.33,8.924,8.924,0,0,0,2.221,3.335,14.7,14.7,0,0,0,3.916,2.6,39.293,39.293,0,0,0,5.787,2.136q2.22,0.645,4.15,1.375a14.783,14.783,0,0,1,3.361,1.755,7.069,7.069,0,0,1,3.069,6.173,6.921,6.921,0,0,1-2.835,5.939q-2.836,2.078-8.154,2.077a44.683,44.683,0,0,1-6.2-.5,62.726,62.726,0,0,1-6.722-1.316l-0.117,3.452a61.955,61.955,0,0,0,6.78,1.316,46.728,46.728,0,0,0,6.372.5Q902.084,65.988,905.944,62.975Z"/>
  <path id="volumes_" data-name="volumes " class="cls-2" d="M984.051,437.182h5.377l16.192-43.3h-4.15L989.9,424.953l-2.981,8.25h-0.351l-2.922-8.25-11.574-31.069h-4.15Zm56.839-5.032q4.77-5.618,4.77-16.558,0-11-4.77-16.646t-13.53-5.647q-8.88,0-13.62,5.647-4.725,5.646-4.73,16.646t4.73,16.587q4.74,5.589,13.62,5.588Q1036.135,437.767,1040.89,432.15Zm-24.22-2.516q-3.63-4.68-3.63-14.042,0-9.42,3.63-14.131t10.69-4.71q7.08,0,10.67,4.71t3.6,14.131q0,9.3-3.6,14.013t-10.67,4.71Q1020.3,434.315,1016.67,429.634Zm38.16,7.548h24.03v-3.394h-20.05v-39.9h-3.98v43.3Zm52.67-.439a12.245,12.245,0,0,0,5.23-3.218,13.239,13.239,0,0,0,3.04-5.588,30.367,30.367,0,0,0,.97-8.191V393.884h-3.98V419.57a25.2,25.2,0,0,1-.79,6.787,10.9,10.9,0,0,1-2.4,4.564,9.2,9.2,0,0,1-4,2.545,20.314,20.314,0,0,1-11.22,0,9.3,9.3,0,0,1-4.01-2.545,11,11,0,0,1-2.39-4.564,25.2,25.2,0,0,1-.79-6.787V393.884h-3.92v25.862a29.972,29.972,0,0,0,.97,8.191,13.307,13.307,0,0,0,3.01,5.588,11.963,11.963,0,0,0,5.2,3.218A28.272,28.272,0,0,0,1107.5,436.743Zm20.22,0.439h3.69V399.326h0.29l5.08,12.287,10.29,23.872h3.8l10.29-23.872,5.03-12.287h0.35v37.856h3.68v-43.3h-5.44l-11.86,27.851-3.8,9.42h-0.35l-3.74-9.42-11.87-27.851h-5.44v43.3Zm53.95,0h26.95V433.73h-22.97V416.879h21.1v-3.394h-21.1V397.337h22.5v-3.453h-26.48v43.3Zm57.4-2.37q3.87-3.012,3.86-8.63a11.312,11.312,0,0,0-.99-5,10.238,10.238,0,0,0-2.72-3.423,15.381,15.381,0,0,0-4.09-2.34q-2.37-.935-5.12-1.755a35.8,35.8,0,0,1-4.88-1.7,11.9,11.9,0,0,1-3.15-1.96,6.462,6.462,0,0,1-1.73-2.4,8.085,8.085,0,0,1-.52-3.013,7.19,7.19,0,0,1,2.83-5.968,12.032,12.032,0,0,1,7.63-2.224,37.622,37.622,0,0,1,5.06.381,49.359,49.359,0,0,1,5.52,1.082l0.12-3.511a50.851,50.851,0,0,0-10.93-1.4,19.889,19.889,0,0,0-5.91.819,13.116,13.116,0,0,0-4.5,2.37,10.674,10.674,0,0,0-2.89,3.715,11.125,11.125,0,0,0-1.03,4.8,12.241,12.241,0,0,0,.71,4.33,8.764,8.764,0,0,0,2.22,3.335,14.583,14.583,0,0,0,3.91,2.6,39.494,39.494,0,0,0,5.79,2.135c1.48,0.43,2.86.888,4.15,1.375a14.619,14.619,0,0,1,3.36,1.756,7.385,7.385,0,0,1,2.25,2.516,7.463,7.463,0,0,1,.82,3.656A6.921,6.921,0,0,1,1236,432.3c-1.89,1.385-4.6,2.077-8.15,2.077a44.773,44.773,0,0,1-6.2-.5,63.676,63.676,0,0,1-6.72-1.316l-0.11,3.452a61.939,61.939,0,0,0,6.78,1.316,46.624,46.624,0,0,0,6.37.5Q1235.215,437.825,1239.07,434.812Z"/>
  <rect class="cls-4" x="-2352" y="699" width="1998" height="36"/>
  <rect id="Rectangle_10_copy" data-name="Rectangle 10 copy" class="cls-5" x="-354" y="699" width="1998" height="36"/>
  <rect id="Rectangle_10_copy_2" data-name="Rectangle 10 copy 2" class="cls-6" x="1644" y="699" width="1998" height="36"/>
</svg>
