<svg xmlns="http://www.w3.org/2000/svg" width="1762" height="477" viewBox="0 0 1762 477">
  <metadata><?xpacket begin="﻿" id="W5M0MpCehiHzreSzNTczkc9d"?>
<x:xmpmeta xmlns:x="adobe:ns:meta/" x:xmptk="Adobe XMP Core 5.6-c142 79.160924, 2017/07/13-01:06:39        ">
   <rdf:RDF xmlns:rdf="http://www.w3.org/1999/02/22-rdf-syntax-ns#">
      <rdf:Description rdf:about=""/>
   </rdf:RDF>
</x:xmpmeta>
                                                                                                    
                                                                                                    
                                                                                                    
                                                                                                    
                                                                                                    
                                                                                                    
                                                                                                    
                                                                                                    
                                                                                                    
                                                                                                    
                                                                                                    
                                                                                                    
                                                                                                    
                                                                                                    
                                                                                                    
                                                                                                    
                                                                                                    
                                                                                                    
                                                                                                    
                                                                                                    
                           
<?xpacket end="w"?></metadata>
<defs>
    <style>
      .cls-1, .cls-4 {
        fill: #84754d;
      }

      .cls-1, .cls-2, .cls-3 {
        fill-rule: evenodd;
      }

      .cls-2, .cls-5 {
        fill: #4b2e83;
      }

      .cls-3, .cls-6 {
        fill: #b7a57a;
      }
    </style>
  </defs>
  <path id="_9_000_000" data-name="9,000,000" class="cls-1" d="M56.552,124.515A81.931,81.931,0,0,0,28.19,138.989a63.384,63.384,0,0,0-17.935,23.1A72.61,72.61,0,0,0,4,192.706a62.11,62.11,0,0,0,5.283,25.885A54.383,54.383,0,0,0,24.3,238.353a70.283,70.283,0,0,0,23.357,12.524,98.08,98.08,0,0,0,30.586,4.454,88.23,88.23,0,0,0,24.469-3.2,65.214,65.214,0,0,0,19.185-8.768q-3.9,23.381-17.517,33.122t-40.6,9.741a162.771,162.771,0,0,1-17.239-.974q-9.176-.972-21.688-3.2l-7.507,43.42q13.62,2.785,25.72,4.175a203.688,203.688,0,0,0,23.218,1.392q119.56,0,119.564-115.229,0-47.315-23.774-71.81T94.367,119.505Q73.233,119.505,56.552,124.515ZM73.93,210.937q-6.256-5.982-6.256-19.9,0-14.195,6.4-20.735t20.3-6.541q14.454,0,21.41,10.02t8.064,33.121a39.4,39.4,0,0,1-12.93,7.1,49,49,0,0,1-16.544,2.922Q80.186,216.921,73.93,210.937ZM244.794,371.4l27.528-101.313H211.15l-11.679,98.529Zm211.047-66.661q24.744-26.3,24.746-79.185t-24.746-79.463q-24.752-26.577-69.792-26.581t-69.931,26.581q-24.888,26.583-24.886,79.463t24.886,79.185q24.882,26.3,69.931,26.3T455.841,304.734ZM370.9,279.267a20.84,20.84,0,0,1-10.149-8.906q-3.9-6.4-5.7-17.257a172.448,172.448,0,0,1-1.808-27.555,177.415,177.415,0,0,1,1.808-27.972q1.8-10.992,5.7-17.4a20.86,20.86,0,0,1,10.149-8.906,40.791,40.791,0,0,1,15.154-2.5,38.876,38.876,0,0,1,14.737,2.5,21.008,21.008,0,0,1,10.01,8.906q3.89,6.406,5.839,17.4a165.6,165.6,0,0,1,1.946,27.972,163.483,163.483,0,0,1-1.946,27.694q-1.948,11-5.839,17.257a21.172,21.172,0,0,1-10.01,8.767,38.876,38.876,0,0,1-14.737,2.5A40.791,40.791,0,0,1,370.9,279.267Zm297.1,25.467q24.744-26.3,24.747-79.185t-24.747-79.463q-24.751-26.577-69.792-26.581t-69.931,26.581q-24.888,26.583-24.886,79.463t24.886,79.185q24.882,26.3,69.931,26.3T667.994,304.734Zm-84.946-25.467a20.84,20.84,0,0,1-10.149-8.906q-3.9-6.4-5.7-17.257a172.463,172.463,0,0,1-1.807-27.555,177.431,177.431,0,0,1,1.807-27.972q1.8-10.992,5.7-17.4a20.86,20.86,0,0,1,10.149-8.906,40.791,40.791,0,0,1,15.154-2.5,38.873,38.873,0,0,1,14.737,2.5,21.008,21.008,0,0,1,10.01,8.906q3.891,6.406,5.839,17.4a165.6,165.6,0,0,1,1.946,27.972,163.483,163.483,0,0,1-1.946,27.694q-1.948,11-5.839,17.257a21.172,21.172,0,0,1-10.01,8.767,38.873,38.873,0,0,1-14.737,2.5A40.791,40.791,0,0,1,583.048,279.267Zm297.1,25.467q24.744-26.3,24.747-79.185t-24.747-79.463q-24.752-26.577-69.792-26.581t-69.931,26.581q-24.888,26.583-24.886,79.463t24.886,79.185q24.882,26.3,69.931,26.3T880.147,304.734ZM795.2,279.267a20.84,20.84,0,0,1-10.149-8.906q-3.9-6.4-5.7-17.257a172.463,172.463,0,0,1-1.807-27.555,177.431,177.431,0,0,1,1.807-27.972q1.806-10.992,5.7-17.4a20.86,20.86,0,0,1,10.149-8.906,40.791,40.791,0,0,1,15.154-2.5,38.873,38.873,0,0,1,14.737,2.5,21.008,21.008,0,0,1,10.01,8.906q3.891,6.406,5.839,17.4a165.582,165.582,0,0,1,1.947,27.972,163.47,163.47,0,0,1-1.947,27.694q-1.948,11-5.839,17.257a21.172,21.172,0,0,1-10.01,8.767,38.873,38.873,0,0,1-14.737,2.5A40.791,40.791,0,0,1,795.2,279.267ZM965.509,371.4l27.527-101.313H931.864l-11.678,98.529Zm211.041-66.661q24.75-26.3,24.75-79.185t-24.75-79.463q-24.75-26.577-69.79-26.581t-69.93,26.581q-24.885,26.583-24.88,79.463t24.88,79.185q24.885,26.3,69.93,26.3T1176.55,304.734Zm-84.94-25.467a20.83,20.83,0,0,1-10.15-8.906q-3.9-6.4-5.7-17.257a172.183,172.183,0,0,1-1.81-27.555,177.142,177.142,0,0,1,1.81-27.972q1.8-10.992,5.7-17.4a20.85,20.85,0,0,1,10.15-8.906,40.784,40.784,0,0,1,15.15-2.5,38.867,38.867,0,0,1,14.74,2.5,21,21,0,0,1,10.01,8.906q3.885,6.406,5.84,17.4a166.066,166.066,0,0,1,1.95,27.972,163.953,163.953,0,0,1-1.95,27.694q-1.95,11-5.84,17.257a21.158,21.158,0,0,1-10.01,8.767,38.867,38.867,0,0,1-14.74,2.5A40.784,40.784,0,0,1,1091.61,279.267Zm297.1,25.467q24.735-26.3,24.74-79.185t-24.74-79.463q-24.75-26.577-69.79-26.581t-69.93,26.581q-24.9,26.583-24.89,79.463t24.89,79.185q24.87,26.3,69.93,26.3Q1363.965,331.037,1388.71,304.734Zm-84.95-25.467a20.873,20.873,0,0,1-10.15-8.906q-3.885-6.4-5.7-17.257a173.516,173.516,0,0,1-1.8-27.555,178.514,178.514,0,0,1,1.8-27.972q1.815-10.992,5.7-17.4a20.893,20.893,0,0,1,10.15-8.906,40.8,40.8,0,0,1,15.16-2.5,38.849,38.849,0,0,1,14.73,2.5,20.95,20.95,0,0,1,10.01,8.906q3.9,6.406,5.84,17.4a165.018,165.018,0,0,1,1.95,27.972,162.912,162.912,0,0,1-1.95,27.694q-1.95,11-5.84,17.257a21.112,21.112,0,0,1-10.01,8.767,38.849,38.849,0,0,1-14.73,2.5A40.8,40.8,0,0,1,1303.76,279.267Zm297.1,25.467q24.75-26.3,24.75-79.185t-24.75-79.463q-24.75-26.577-69.79-26.581t-69.93,26.581q-24.885,26.583-24.89,79.463t24.89,79.185q24.885,26.3,69.93,26.3T1600.86,304.734Zm-84.94-25.467a20.787,20.787,0,0,1-10.15-8.906q-3.9-6.4-5.7-17.257a172.183,172.183,0,0,1-1.81-27.555,177.142,177.142,0,0,1,1.81-27.972q1.8-10.992,5.7-17.4a20.807,20.807,0,0,1,10.15-8.906,40.747,40.747,0,0,1,15.15-2.5,38.9,38.9,0,0,1,14.74,2.5,21.04,21.04,0,0,1,10.01,8.906q3.885,6.406,5.84,17.4a166.2,166.2,0,0,1,1.94,27.972,164.085,164.085,0,0,1-1.94,27.694q-1.95,11-5.84,17.257a21.2,21.2,0,0,1-10.01,8.767,38.9,38.9,0,0,1-14.74,2.5A40.747,40.747,0,0,1,1515.92,279.267Z"/>
  <path id="_" data-name="+" class="cls-1" d="M1599.67,86.919h47.27V130.06h37.26V86.919h47.27v-37.3H1684.2V6.482h-37.26V49.623h-47.27v37.3Z"/>
  <path id="_copy" data-name="+ copy" class="cls-2" d="M3491.67,86.919h47.27V130.06h37.26V86.919h47.27v-37.3H3576.2V6.482h-37.26V49.623h-47.27v37.3Z"/>
  <path id="_2" data-name="+" class="cls-3" d="M5263.67,36.919h47.27V80.06h37.26V36.919h47.27v-37.3H5348.2V-43.518h-37.26V-0.377h-47.27v37.3Z"/>
  <path id="UNIVERSITY_LIBRARIES_PROVIDES" data-name="UNIVERSITY LIBRARIES PROVIDES" class="cls-1" d="M44.92,69.56a12.251,12.251,0,0,0,5.232-3.218,13.242,13.242,0,0,0,3.04-5.588,30.271,30.271,0,0,0,.965-8.192V26.7H50.181V52.386a25.362,25.362,0,0,1-.789,6.788A11.068,11.068,0,0,1,47,63.738a9.25,9.25,0,0,1-4,2.545,17.967,17.967,0,0,1-5.612.79,17.958,17.958,0,0,1-5.612-.79,9.239,9.239,0,0,1-4-2.545,11.057,11.057,0,0,1-2.4-4.564,25.362,25.362,0,0,1-.789-6.788V26.7H20.661V52.562a30.271,30.271,0,0,0,.964,8.192,13.4,13.4,0,0,0,3.01,5.588,12.028,12.028,0,0,0,5.2,3.218,24.585,24.585,0,0,0,7.541,1.024A24.585,24.585,0,0,0,44.92,69.56ZM65.145,70h3.683V32.96H69.12l3.332,4.974L95.776,70H99.4V26.7H95.717V63.8H95.425l-3.507-5.149L68.711,26.7H65.145V70Zm45.711,0h3.975V26.7h-3.975V70Zm26.714,0h5.378L159.14,26.7h-4.15L143.416,57.769l-2.981,8.25h-0.351l-2.923-8.25L125.587,26.7h-4.15Zm28.117,0h26.948V66.547H169.662V49.695h21.1V46.3h-21.1V30.151h22.5V26.7h-26.48V70Zm62.137,0h4.443l-10.931-17.32a12.7,12.7,0,0,0,7.306-4.418,13.709,13.709,0,0,0,2.339-8.4q0-7.2-4.531-10.474t-14.467-3.277a63.182,63.182,0,0,0-10.289.878V70h3.975V53.264q1.812,0.175,3.508.293t3.1,0.117q1.461,0,2.777-.058t2.542-.234Zm-19.2-19.865a18.96,18.96,0,0,1-2.952-.38V30.034q1.461-.233,3.332-0.38t3.508-.146q7.658,0,11.048,2.458t3.39,7.9a13.02,13.02,0,0,1-.789,4.8,7.137,7.137,0,0,1-2.484,3.218,11.613,11.613,0,0,1-4.384,1.814,31.294,31.294,0,0,1-6.547.585Q210.639,50.28,208.621,50.133Zm53.106,17.5q3.858-3.013,3.858-8.631a11.28,11.28,0,0,0-.993-5,10.143,10.143,0,0,0-2.718-3.423,15.4,15.4,0,0,0-4.092-2.34q-2.369-.935-5.115-1.755a35.587,35.587,0,0,1-4.881-1.7,11.986,11.986,0,0,1-3.157-1.96,6.461,6.461,0,0,1-1.724-2.4,8.065,8.065,0,0,1-.526-3.013,7.193,7.193,0,0,1,2.835-5.968,12.033,12.033,0,0,1,7.628-2.224,37.609,37.609,0,0,1,5.057.38,49.586,49.586,0,0,1,5.524,1.083l0.117-3.511a50.8,50.8,0,0,0-10.932-1.4,19.823,19.823,0,0,0-5.9.819,13.058,13.058,0,0,0-4.5,2.37,10.724,10.724,0,0,0-2.893,3.716,11.076,11.076,0,0,0-1.023,4.8,12.318,12.318,0,0,0,.7,4.33,8.939,8.939,0,0,0,2.222,3.335,14.688,14.688,0,0,0,3.916,2.6,39.366,39.366,0,0,0,5.787,2.136q2.221,0.645,4.15,1.375A14.791,14.791,0,0,1,258.425,53a7.07,7.07,0,0,1,3.069,6.173,6.921,6.921,0,0,1-2.835,5.939q-2.837,2.078-8.155,2.077a44.7,44.7,0,0,1-6.2-.5,62.77,62.77,0,0,1-6.723-1.317l-0.117,3.452a62.044,62.044,0,0,0,6.781,1.316,46.728,46.728,0,0,0,6.372.5Q257.869,70.642,261.727,67.629ZM274,70h3.975V26.7H274V70ZM299.2,70h3.975V30.151h14.321V26.7H284.934v3.452H299.2V70Zm35.774,0h3.975V55.253L354.5,26.7h-4.267l-11.4,21.065-1.695,3.686h-0.409l-1.754-3.686L323.631,26.7h-4.326L334.971,55.37V70Zm38.638,0h24.025V66.605h-20.05V26.7h-3.975V70Zm30.864,0h3.975V26.7h-3.975V70ZM449.6,58.706A10.793,10.793,0,0,0,447.35,51.6a10.84,10.84,0,0,0-6.635-3.54V47.822a8.407,8.407,0,0,0,5.5-3.365,11.05,11.05,0,0,0,1.988-6.7q0-6.144-3.683-8.865t-11.983-2.721q-2.69,0-5.583.2t-7.044.614V69.706q3.507,0.468,6.869.673t6.342,0.2q16.485,0,16.485-11.878h0Zm-21.98,8.514a29.411,29.411,0,0,1-3.858-.439V49.636h10.172q6.019,0,8.856,2.165t2.835,6.671q0,4.564-3.069,6.729t-9.5,2.165Q430.018,67.366,427.621,67.219Zm-3.858-20.743V29.917a35.417,35.417,0,0,1,4-.38q2.135-.088,4.94-0.088a25.746,25.746,0,0,1,5.29.468,9.374,9.374,0,0,1,3.566,1.463,5.8,5.8,0,0,1,2.017,2.633,10.743,10.743,0,0,1,.643,3.92q0,4.623-2.426,6.583t-8.1,1.96h-9.938ZM484.732,70h4.443l-10.932-17.32a12.7,12.7,0,0,0,7.307-4.418,13.709,13.709,0,0,0,2.338-8.4q0-7.2-4.53-10.474T468.89,26.114a63.18,63.18,0,0,0-10.288.878V70h3.975V53.264q1.812,0.175,3.508.293t3.1,0.117c0.973,0,1.9-.019,2.776-0.058s1.725-.117,2.543-0.234Zm-19.2-19.865a18.96,18.96,0,0,1-2.952-.38V30.034q1.461-.233,3.332-0.38t3.508-.146q7.656,0,11.048,2.458t3.39,7.9a13.02,13.02,0,0,1-.789,4.8,7.144,7.144,0,0,1-2.484,3.218,11.611,11.611,0,0,1-4.385,1.814,31.294,31.294,0,0,1-6.547.585Q467.546,50.28,465.529,50.133ZM492.33,70h3.917l5.027-13.517h19.875L526.235,70h3.916V69.648L514.251,26.7H508.23l-15.9,42.949V70Zm10.113-17.028,5.963-15.916,2.63-7.314h0.351l2.689,7.314,5.962,15.916h-17.6ZM562.827,70h4.443l-10.931-17.32a12.707,12.707,0,0,0,7.307-4.418,13.716,13.716,0,0,0,2.338-8.4q0-7.2-4.53-10.474t-14.468-3.277a63.161,63.161,0,0,0-10.288.878V70h3.975V53.264q1.811,0.175,3.507.293t3.1,0.117q1.461,0,2.777-.058t2.543-.234Zm-19.2-19.865a18.942,18.942,0,0,1-2.952-.38V30.034q1.459-.233,3.332-0.38t3.507-.146q7.658,0,11.048,2.458t3.39,7.9a13.02,13.02,0,0,1-.789,4.8,7.137,7.137,0,0,1-2.484,3.218,11.613,11.613,0,0,1-4.384,1.814,31.294,31.294,0,0,1-6.547.585Q545.642,50.28,543.625,50.133ZM575.336,70h3.975V26.7h-3.975V70Zm15.432,0h26.948V66.547H594.743V49.695h21.1V46.3h-21.1V30.151h22.5V26.7h-26.48V70Zm57.4-2.37q3.858-3.013,3.858-8.631a11.28,11.28,0,0,0-.994-5,10.143,10.143,0,0,0-2.718-3.423,15.4,15.4,0,0,0-4.092-2.34q-2.369-.935-5.115-1.755a35.587,35.587,0,0,1-4.881-1.7,12,12,0,0,1-3.157-1.96,6.472,6.472,0,0,1-1.724-2.4,8.065,8.065,0,0,1-.526-3.013,7.193,7.193,0,0,1,2.835-5.968,12.033,12.033,0,0,1,7.628-2.224,37.609,37.609,0,0,1,5.057.38,49.541,49.541,0,0,1,5.524,1.083l0.117-3.511a50.8,50.8,0,0,0-10.932-1.4,19.828,19.828,0,0,0-5.9.819,13.058,13.058,0,0,0-4.5,2.37,10.724,10.724,0,0,0-2.893,3.716,11.09,11.09,0,0,0-1.023,4.8,12.318,12.318,0,0,0,.7,4.33,8.939,8.939,0,0,0,2.222,3.335,14.7,14.7,0,0,0,3.916,2.6,39.366,39.366,0,0,0,5.787,2.136q2.221,0.645,4.151,1.375A14.8,14.8,0,0,1,644.868,53a7.07,7.07,0,0,1,3.069,6.173,6.921,6.921,0,0,1-2.835,5.939q-2.837,2.078-8.155,2.077a44.7,44.7,0,0,1-6.2-.5,62.818,62.818,0,0,1-6.723-1.317l-0.117,3.452a62.044,62.044,0,0,0,6.781,1.316,46.728,46.728,0,0,0,6.372.5Q644.312,70.642,648.171,67.629ZM675.059,70h3.975V55.429q1.929,0.234,3.537.293t3.01,0.059q9.762,0,14.263-3.54t4.5-11.322q0-7.724-4.559-11.264t-14.439-3.54a64.65,64.65,0,0,0-10.288.878V70Zm9.09-17.671q-1.023-.058-1.988-0.146t-1.782-.175a12.367,12.367,0,0,1-1.345-.2V30.034q1.4-.233,3.274-0.38t3.565-.146q7.657,0,11.048,2.692t3.391,8.718a15.449,15.449,0,0,1-.789,5.266,7.968,7.968,0,0,1-2.485,3.54,10.873,10.873,0,0,1-4.384,2.019,28.527,28.527,0,0,1-6.547.644Q685.171,52.386,684.149,52.328ZM738.716,70h4.443l-10.931-17.32a12.7,12.7,0,0,0,7.307-4.418,13.716,13.716,0,0,0,2.338-8.4q0-7.2-4.53-10.474t-14.468-3.277a63.17,63.17,0,0,0-10.288.878V70h3.975V53.264q1.81,0.175,3.507.293t3.1,0.117q1.461,0,2.777-.058t2.543-.234Zm-19.2-19.865a18.942,18.942,0,0,1-2.952-.38V30.034q1.461-.233,3.332-0.38t3.507-.146q7.658,0,11.048,2.458t3.391,7.9a13,13,0,0,1-.79,4.8,7.137,7.137,0,0,1-2.484,3.218,11.613,11.613,0,0,1-4.384,1.814,31.294,31.294,0,0,1-6.547.585Q721.531,50.28,719.514,50.133Zm61.319,14.833q4.764-5.617,4.764-16.559,0-11-4.764-16.647T767.3,26.114q-8.886,0-13.62,5.647t-4.735,16.647q0,11,4.735,16.589t13.62,5.588Q776.069,70.584,780.833,64.967ZM756.6,62.451q-3.625-4.681-3.624-14.043,0-9.42,3.624-14.131t10.7-4.71q7.072,0,10.669,4.71t3.595,14.131q0,9.3-3.595,14.014T767.3,67.132Q760.228,67.132,756.6,62.451ZM805.179,70h5.378l16.192-43.3H822.6L811.024,57.769l-2.981,8.25h-0.351l-2.922-8.25L793.2,26.7h-4.15ZM833.3,70h3.975V26.7H833.3V70Zm43.286-4.74q5.466-5.383,5.466-16.91,0-11.468-5.261-16.823t-16.543-5.354q-1.053,0-2.514.058t-3.01.146q-1.55.088-3.128,0.2t-2.864.234V69.765a19.772,19.772,0,0,0,4.326.673q2.864,0.2,6.2.2Q871.115,70.642,876.581,65.259Zm-18.238,1.9c-0.6-.019-1.2-0.049-1.783-0.088s-1.189-.1-1.812-0.176-1.306-.175-2.046-0.292V30.151q1.754-.233,3.975-0.351t3.858-.117q9.06,0,13.27,4.476t4.208,14.189q0,9.773-4.3,14.307T860.243,67.19Q859.249,67.19,858.343,67.161ZM891.224,70h26.948V66.547H895.2V49.695h21.1V46.3H895.2V30.151h22.5V26.7h-26.48V70Zm57.4-2.37q3.86-3.013,3.859-8.631a11.28,11.28,0,0,0-.994-5,10.143,10.143,0,0,0-2.718-3.423,15.4,15.4,0,0,0-4.092-2.34q-2.369-.935-5.115-1.755a35.587,35.587,0,0,1-4.881-1.7,11.986,11.986,0,0,1-3.157-1.96,6.472,6.472,0,0,1-1.724-2.4,8.065,8.065,0,0,1-.526-3.013,7.193,7.193,0,0,1,2.835-5.968,12.033,12.033,0,0,1,7.628-2.224,37.609,37.609,0,0,1,5.057.38,49.541,49.541,0,0,1,5.524,1.083l0.117-3.511a50.8,50.8,0,0,0-10.932-1.4,19.823,19.823,0,0,0-5.9.819,13.058,13.058,0,0,0-4.5,2.37,10.724,10.724,0,0,0-2.893,3.716,11.09,11.09,0,0,0-1.023,4.8,12.318,12.318,0,0,0,.7,4.33,8.939,8.939,0,0,0,2.222,3.335,14.7,14.7,0,0,0,3.916,2.6,39.366,39.366,0,0,0,5.787,2.136q2.221,0.645,4.151,1.375A14.8,14.8,0,0,1,945.324,53a7.07,7.07,0,0,1,3.069,6.173,6.921,6.921,0,0,1-2.835,5.939q-2.836,2.078-8.155,2.077a44.7,44.7,0,0,1-6.2-.5,62.818,62.818,0,0,1-6.723-1.317l-0.117,3.452a62.044,62.044,0,0,0,6.781,1.316,46.728,46.728,0,0,0,6.372.5Q944.768,70.642,948.626,67.629Z"/>
  <path id="total_volumes_Including_e-books_" data-name="total volumes (Including e-books)" class="cls-1" d="M29.63,465.575H33.6V425.727H47.926v-3.452H15.367v3.452H29.63v39.848Zm52.639-5.032q4.764-5.618,4.764-16.559,0-11-4.764-16.648T68.736,421.69q-8.886,0-13.62,5.646t-4.735,16.648q0,11,4.735,16.588t13.62,5.588Q77.5,466.16,82.269,460.543Zm-24.23-2.516q-3.625-4.681-3.624-14.043,0-9.421,3.624-14.131t10.7-4.711q7.072,0,10.668,4.711T83,443.984q0,9.3-3.595,14.014t-10.668,4.71Q61.662,462.708,58.039,458.027Zm45.711,7.548h3.975V425.727h14.322v-3.452H89.487v3.452H103.75v39.848Zm15.958,0h3.917l5.027-13.517h19.875l5.085,13.517h3.917v-0.351l-15.9-42.949h-6.021l-15.9,42.949v0.351Zm10.113-17.027,5.963-15.916,2.63-7.314h0.351l2.689,7.314,5.962,15.916H129.821Zm34.255,17.027H188.1v-3.394h-20.05V422.275h-3.975v43.3Zm53.6,0h5.378l16.192-43.3H235.1l-11.574,31.071-2.982,8.25h-0.35l-2.923-8.25L205.7,422.275h-4.151Zm56.847-5.032q4.764-5.618,4.764-16.559,0-11-4.764-16.648t-13.532-5.646q-8.886,0-13.62,5.646t-4.735,16.648q0,11,4.735,16.588t13.62,5.588Q269.761,466.16,274.526,460.543Zm-24.23-2.516q-3.624-4.681-3.624-14.043,0-9.421,3.624-14.131t10.7-4.711q7.072,0,10.668,4.711t3.6,14.131q0,9.3-3.6,14.014t-10.668,4.71Q253.92,462.708,250.3,458.027Zm38.171,7.548h24.025v-3.394h-20.05V422.275h-3.975v43.3Zm52.668-.439a12.247,12.247,0,0,0,5.232-3.218,13.239,13.239,0,0,0,3.04-5.588,30.275,30.275,0,0,0,.964-8.192V422.275H346.4v25.687a25.363,25.363,0,0,1-.789,6.788,11.071,11.071,0,0,1-2.4,4.564,9.249,9.249,0,0,1-4,2.545,20.325,20.325,0,0,1-11.223,0,9.234,9.234,0,0,1-4-2.545,11.061,11.061,0,0,1-2.4-4.564,25.363,25.363,0,0,1-.789-6.788V422.275h-3.917v25.863a30.271,30.271,0,0,0,.965,8.192,13.408,13.408,0,0,0,3.01,5.588,12.032,12.032,0,0,0,5.2,3.218A28.275,28.275,0,0,0,341.135,465.136Zm20.225,0.439h3.683V427.717h0.292l5.086,12.288,10.288,23.873h3.8L394.8,440.005l5.027-12.288h0.351v37.858h3.683v-43.3h-5.437l-11.866,27.852-3.8,9.421H382.4l-3.741-9.421L366.8,422.275H361.36v43.3Zm53.954,0h26.948v-3.452H419.289V445.271h21.1v-3.394h-21.1v-16.15H441.8v-3.452H415.314v43.3Zm57.4-2.37q3.858-3.012,3.858-8.631a11.261,11.261,0,0,0-.994-5,10.139,10.139,0,0,0-2.718-3.423,15.357,15.357,0,0,0-4.092-2.341q-2.367-.936-5.115-1.755a35.673,35.673,0,0,1-4.881-1.7,11.954,11.954,0,0,1-3.156-1.961,6.469,6.469,0,0,1-1.725-2.4,8.079,8.079,0,0,1-.526-3.013,7.2,7.2,0,0,1,2.835-5.968,12.036,12.036,0,0,1,7.629-2.224,37.612,37.612,0,0,1,5.056.38,49.7,49.7,0,0,1,5.524,1.083l0.117-3.511a50.807,50.807,0,0,0-10.931-1.4,19.82,19.82,0,0,0-5.9.819,13.057,13.057,0,0,0-4.5,2.37,10.733,10.733,0,0,0-2.894,3.715,11.094,11.094,0,0,0-1.023,4.8,12.3,12.3,0,0,0,.7,4.33,8.946,8.946,0,0,0,2.221,3.335,14.716,14.716,0,0,0,3.917,2.6,39.274,39.274,0,0,0,5.787,2.135q2.22,0.645,4.15,1.375a14.816,14.816,0,0,1,3.361,1.756,7.063,7.063,0,0,1,3.069,6.173,6.918,6.918,0,0,1-2.835,5.939q-2.837,2.077-8.154,2.077a44.686,44.686,0,0,1-6.2-.5,62.724,62.724,0,0,1-6.722-1.317l-0.117,3.453a62.189,62.189,0,0,0,6.781,1.316,46.724,46.724,0,0,0,6.372.5Q468.858,466.219,472.717,463.205Zm33.377,11.732h3.624V474.7a50.386,50.386,0,0,1-6.9-13.955,53.748,53.748,0,0,1,0-31.744,50.316,50.316,0,0,1,6.9-13.985v-0.234h-3.624a51.5,51.5,0,0,0-6.781,14.19,55.143,55.143,0,0,0,0,31.773,51.491,51.491,0,0,0,6.781,14.189h0Zm10.054-9.362h3.975v-43.3h-3.975v43.3Zm15.432,0h3.683V428.536h0.292l3.332,4.974,23.324,32.065h3.624v-43.3h-3.682v37.1H561.86l-3.507-5.15-23.207-31.948H531.58v43.3Zm64.8,0.439q1.255-.089,2.542-0.263t2.514-.41q1.227-.233,2.221-0.527v-3.393a21.841,21.841,0,0,1-2.163.438q-1.285.207-2.63,0.381t-2.6.263q-1.258.089-2.192,0.088-14.966,0-14.965-18.607,0-9.6,3.8-14.161t11.632-4.564a37.485,37.485,0,0,1,4.151.264q2.337,0.262,4.968.731v-3.511q-2.4-.468-4.968-0.761a40.723,40.723,0,0,0-4.5-.292q-19.174,0-19.174,22.352,0,21.942,19.057,22.06Q595.121,466.1,596.378,466.014Zm15.636-.439H636.04v-3.394H615.989V422.275h-3.975v43.3Zm52.669-.439a12.253,12.253,0,0,0,5.232-3.218,13.237,13.237,0,0,0,3.039-5.588,30.271,30.271,0,0,0,.965-8.192V422.275h-3.975v25.687a25.363,25.363,0,0,1-.789,6.788,11.061,11.061,0,0,1-2.4,4.564,9.246,9.246,0,0,1-4,2.545,20.328,20.328,0,0,1-11.224,0,9.24,9.24,0,0,1-4-2.545,11.059,11.059,0,0,1-2.4-4.564,25.319,25.319,0,0,1-.79-6.788V422.275h-3.916v25.863a30.275,30.275,0,0,0,.964,8.192,13.4,13.4,0,0,0,3.011,5.588,12.028,12.028,0,0,0,5.2,3.218A28.279,28.279,0,0,0,664.683,465.136Zm48.079-4.3q5.465-5.382,5.465-16.91,0-11.468-5.261-16.823t-16.542-5.354q-1.053,0-2.514.059t-3.011.146q-1.548.089-3.127,0.205t-2.864.234v42.949a19.742,19.742,0,0,0,4.326.673q2.862,0.2,6.2.2Q707.3,466.219,712.762,460.835Zm-18.238,1.9q-0.908-.029-1.783-0.088t-1.812-.175q-0.936-.117-2.046-0.293V425.727q1.754-.232,3.975-0.351t3.858-.117q9.06,0,13.269,4.477t4.209,14.189q0,9.772-4.3,14.307t-13.474,4.534C695.76,462.766,695.128,462.757,694.524,462.737Zm32.881,2.838h3.975v-43.3h-3.975v43.3Zm15.432,0h3.682V428.536h0.293l3.332,4.974,23.323,32.065h3.625v-43.3h-3.683v37.1h-0.292l-3.508-5.15L746.4,422.275h-3.566v43.3Zm68.567,0.059a44.89,44.89,0,0,0,5.9-1.288V443.574h-3.8v18.2q-1.872.351-4.034,0.585a34.707,34.707,0,0,1-3.624.234q-15.49,0-15.491-18.607,0-9.537,3.975-14.131t12.276-4.594q1.168,0,2.28.059t2.338,0.234q1.227,0.175,2.6.439t3.128,0.673v-3.511a54.242,54.242,0,0,0-5.466-1.083,36.24,36.24,0,0,0-5.115-.38q-20.109,0-20.109,22.352,0,21.942,19.583,22.06A37.708,37.708,0,0,0,811.4,465.634Zm30.4-.059h26.948v-3.452H845.775V445.271h21.1v-3.394h-21.1v-16.15h22.5v-3.452H841.8v43.3Zm34.546-14.687h17.829v-3.394H876.346v3.394Zm57.637,3.394a9.921,9.921,0,0,0-8.885-10.65V443.4a8.408,8.408,0,0,0,5.5-3.364,11.057,11.057,0,0,0,1.987-6.7q0-6.144-3.683-8.865t-11.983-2.721q-2.689,0-5.583.2t-7.043.615v42.714q3.507,0.468,6.868.673t6.343,0.205q16.484,0,16.484-11.878h0ZM912,462.8a29.5,29.5,0,0,1-3.858-.439V445.212h10.171q6.02,0,8.856,2.165t2.835,6.671q0,4.565-3.069,6.729t-9.5,2.165Q914.4,462.942,912,462.8Zm-3.858-20.743v-16.56a35.444,35.444,0,0,1,4-.38q2.133-.089,4.939-0.088a25.813,25.813,0,0,1,5.291.468,9.379,9.379,0,0,1,3.565,1.463,5.8,5.8,0,0,1,2.017,2.633,10.746,10.746,0,0,1,.643,3.921q0,4.623-2.426,6.582t-8.1,1.961h-9.937Zm64.446,18.49q4.764-5.618,4.764-16.559,0-11-4.764-16.648T959.06,421.69q-8.886,0-13.62,5.646t-4.735,16.648q0,11,4.735,16.588t13.62,5.588Q967.828,466.16,972.592,460.543Zm-24.23-2.516q-3.624-4.681-3.624-14.043,0-9.421,3.624-14.131t10.7-4.711q7.072,0,10.668,4.711t3.6,14.131q0,9.3-3.6,14.014t-10.668,4.71Q951.986,462.708,948.362,458.027Zm67.778,2.516q4.77-5.618,4.76-16.559,0-11-4.76-16.648t-13.53-5.646q-8.889,0-13.622,5.646t-4.735,16.648q0,11,4.735,16.588t13.622,5.588Q1011.37,466.16,1016.14,460.543Zm-24.229-2.516q-3.625-4.681-3.624-14.043,0-9.421,3.624-14.131t10.7-4.711q7.065,0,10.67,4.711,3.585,4.71,3.59,14.131,0,9.3-3.59,14.014t-10.67,4.71Q995.535,462.708,991.911,458.027Zm38.169,7.548h3.98V445.212h9.17l14.5,20.363h4.62l-14.79-20.655-1.87-1.405v-0.351l1.69-1.462,13.92-19.427h-4.62l-13.86,19.485h-8.76V422.275h-3.98v43.3Zm60.09-2.37q3.87-3.012,3.86-8.631a11.3,11.3,0,0,0-.99-5,10.218,10.218,0,0,0-2.72-3.423,15.328,15.328,0,0,0-4.09-2.341q-2.37-.936-5.12-1.755a35.8,35.8,0,0,1-4.88-1.7,11.879,11.879,0,0,1-3.15-1.961,6.462,6.462,0,0,1-1.73-2.4,8.078,8.078,0,0,1-.53-3.013,7.2,7.2,0,0,1,2.84-5.968,12.032,12.032,0,0,1,7.63-2.224,37.517,37.517,0,0,1,5.05.38,49.318,49.318,0,0,1,5.53,1.083l0.12-3.511a50.859,50.859,0,0,0-10.94-1.4,19.788,19.788,0,0,0-5.9.819,13.116,13.116,0,0,0-4.5,2.37,10.674,10.674,0,0,0-2.89,3.715,10.983,10.983,0,0,0-1.03,4.8,12.482,12.482,0,0,0,.7,4.33,8.923,8.923,0,0,0,2.23,3.335,14.606,14.606,0,0,0,3.91,2.6,39.494,39.494,0,0,0,5.79,2.135c1.48,0.43,2.86.888,4.15,1.375a14.619,14.619,0,0,1,3.36,1.756,7.385,7.385,0,0,1,2.25,2.516,7.467,7.467,0,0,1,.82,3.657,6.921,6.921,0,0,1-2.84,5.939c-1.89,1.385-4.6,2.077-8.15,2.077a44.773,44.773,0,0,1-6.2-.5,62.93,62.93,0,0,1-6.72-1.317l-0.12,3.453a62.594,62.594,0,0,0,6.79,1.316,46.638,46.638,0,0,0,6.37.5Q1086.315,466.219,1090.17,463.205Zm10.88,11.732a49.991,49.991,0,0,0,6.81-14.189,55.783,55.783,0,0,0,0-31.773,50,50,0,0,0-6.81-14.19h-3.57v0.234A49.809,49.809,0,0,1,1104.35,429a54.333,54.333,0,0,1,0,31.744,49.875,49.875,0,0,1-6.87,13.955v0.234h3.57Z"/>
  <path id="_11_000" data-name="11,000" class="cls-3" d="M4300.88,278.253h62.57V72.289h-47.27l-70.35,36.183-0.56,2.505,6.95,35.626h3.06l44.49-9.185h1.11V278.253Zm144.31,0h62.56V72.289h-47.27l-70.34,36.183-0.56,2.505,6.95,35.626h3.06l44.49-9.185h1.11V278.253ZM4583.1,321.4l27.53-101.313h-61.17l-11.68,98.529Zm211.05-66.661q24.735-26.3,24.74-79.185t-24.74-79.463q-24.75-26.576-69.79-26.581t-69.93,26.581q-24.9,26.583-24.89,79.463t24.89,79.185q24.87,26.3,69.93,26.3T4794.15,254.734Zm-84.95-25.467a20.873,20.873,0,0,1-10.15-8.906q-3.885-6.4-5.7-17.257a173.516,173.516,0,0,1-1.8-27.555,178.514,178.514,0,0,1,1.8-27.972q1.815-10.992,5.7-17.4a20.893,20.893,0,0,1,10.15-8.906,40.8,40.8,0,0,1,15.16-2.505,38.849,38.849,0,0,1,14.73,2.505,21,21,0,0,1,10.01,8.906q3.9,6.406,5.84,17.4a165.018,165.018,0,0,1,1.95,27.972,162.912,162.912,0,0,1-1.95,27.694q-1.95,11-5.84,17.257a21.158,21.158,0,0,1-10.01,8.767,38.849,38.849,0,0,1-14.73,2.5A40.8,40.8,0,0,1,4709.2,229.267Zm297.1,25.467q24.75-26.3,24.75-79.185T5006.3,96.086q-24.75-26.576-69.79-26.581t-69.93,26.581q-24.885,26.583-24.89,79.463t24.89,79.185q24.885,26.3,69.93,26.3T5006.3,254.734Zm-84.94-25.467a20.787,20.787,0,0,1-10.15-8.906q-3.9-6.4-5.7-17.257a172.183,172.183,0,0,1-1.81-27.555,177.142,177.142,0,0,1,1.81-27.972q1.8-10.992,5.7-17.4a20.807,20.807,0,0,1,10.15-8.906,40.747,40.747,0,0,1,15.15-2.505,38.9,38.9,0,0,1,14.74,2.505,21.04,21.04,0,0,1,10.01,8.906q3.885,6.406,5.84,17.4a166.2,166.2,0,0,1,1.94,27.972,164.085,164.085,0,0,1-1.94,27.694q-1.95,11-5.84,17.257a21.2,21.2,0,0,1-10.01,8.767,38.9,38.9,0,0,1-14.74,2.5A40.747,40.747,0,0,1,4921.36,229.267Zm297.09,25.467q24.75-26.3,24.75-79.185t-24.75-79.463q-24.75-26.576-69.79-26.581t-69.93,26.581q-24.885,26.583-24.88,79.463t24.88,79.185q24.885,26.3,69.93,26.3T5218.45,254.734Zm-84.94-25.467a20.83,20.83,0,0,1-10.15-8.906q-3.9-6.4-5.7-17.257a172.183,172.183,0,0,1-1.81-27.555,177.142,177.142,0,0,1,1.81-27.972q1.8-10.992,5.7-17.4a20.85,20.85,0,0,1,10.15-8.906,40.784,40.784,0,0,1,15.15-2.505,38.867,38.867,0,0,1,14.74,2.505,21.04,21.04,0,0,1,10.01,8.906q3.885,6.406,5.84,17.4a166.2,166.2,0,0,1,1.94,27.972,164.085,164.085,0,0,1-1.94,27.694q-1.95,11-5.84,17.257a21.2,21.2,0,0,1-10.01,8.767,38.867,38.867,0,0,1-14.74,2.5A40.784,40.784,0,0,1,5133.51,229.267Z"/>
  <path id="_770_000" data-name="770,000" class="cls-2" d="M2309.81,327.975l70.34-168.668v-3.619l-8.06-33.4H2229.45l-6.12,5.288,1.95,47.038h86.19l-68.12,147.793v5.845l53.11,7.237Zm166.27,0,70.35-168.668v-3.619l-8.06-33.4H2395.72l-6.11,5.288,1.94,47.038h86.2l-68.12,147.793v5.845l53.11,7.237Zm249.42-23.241q24.735-26.3,24.74-79.185t-24.74-79.463q-24.75-26.577-69.8-26.581t-69.93,26.581q-24.885,26.583-24.88,79.463t24.88,79.185q24.885,26.3,69.93,26.3T2725.5,304.734Zm-84.95-25.467a20.873,20.873,0,0,1-10.15-8.906q-3.9-6.4-5.7-17.257a172.183,172.183,0,0,1-1.81-27.555,177.142,177.142,0,0,1,1.81-27.972q1.815-10.992,5.7-17.4a20.893,20.893,0,0,1,10.15-8.906,40.784,40.784,0,0,1,15.15-2.5,38.867,38.867,0,0,1,14.74,2.5,21,21,0,0,1,10.01,8.906q3.9,6.406,5.84,17.4a165.018,165.018,0,0,1,1.95,27.972,162.912,162.912,0,0,1-1.95,27.694q-1.95,11-5.84,17.257a21.158,21.158,0,0,1-10.01,8.767,38.867,38.867,0,0,1-14.74,2.5A40.784,40.784,0,0,1,2640.55,279.267ZM2810.86,371.4l27.53-101.313h-61.18l-11.67,98.529Zm211.04-66.661q24.75-26.3,24.75-79.185t-24.75-79.463q-24.75-26.577-69.79-26.581t-69.93,26.581q-24.885,26.583-24.88,79.463t24.88,79.185q24.885,26.3,69.93,26.3T3021.9,304.734Zm-84.94-25.467a20.83,20.83,0,0,1-10.15-8.906q-3.9-6.4-5.7-17.257a172.183,172.183,0,0,1-1.81-27.555,177.142,177.142,0,0,1,1.81-27.972q1.8-10.992,5.7-17.4a20.85,20.85,0,0,1,10.15-8.906,40.784,40.784,0,0,1,15.15-2.5,38.867,38.867,0,0,1,14.74,2.5,21.04,21.04,0,0,1,10.01,8.906q3.885,6.406,5.84,17.4a166.066,166.066,0,0,1,1.95,27.972,163.953,163.953,0,0,1-1.95,27.694q-1.95,11-5.84,17.257a21.2,21.2,0,0,1-10.01,8.767,38.867,38.867,0,0,1-14.74,2.5A40.784,40.784,0,0,1,2936.96,279.267Zm297.1,25.467q24.735-26.3,24.74-79.185t-24.74-79.463q-24.75-26.577-69.79-26.581t-69.93,26.581q-24.9,26.583-24.89,79.463t24.89,79.185q24.87,26.3,69.93,26.3T3234.06,304.734Zm-84.95-25.467a20.873,20.873,0,0,1-10.15-8.906q-3.9-6.4-5.7-17.257a172.336,172.336,0,0,1-1.8-27.555,177.3,177.3,0,0,1,1.8-27.972q1.815-10.992,5.7-17.4a20.893,20.893,0,0,1,10.15-8.906,40.8,40.8,0,0,1,15.16-2.5,38.849,38.849,0,0,1,14.73,2.5,21,21,0,0,1,10.01,8.906q3.9,6.406,5.84,17.4a165.018,165.018,0,0,1,1.95,27.972,162.912,162.912,0,0,1-1.95,27.694q-1.95,11-5.84,17.257a21.158,21.158,0,0,1-10.01,8.767,38.849,38.849,0,0,1-14.73,2.5A40.8,40.8,0,0,1,3149.11,279.267Zm297.1,25.467q24.75-26.3,24.75-79.185t-24.75-79.463q-24.75-26.577-69.79-26.581t-69.93,26.581q-24.885,26.583-24.89,79.463t24.89,79.185q24.885,26.3,69.93,26.3T3446.21,304.734Zm-84.94-25.467a20.787,20.787,0,0,1-10.15-8.906q-3.9-6.4-5.7-17.257a172.183,172.183,0,0,1-1.81-27.555,177.142,177.142,0,0,1,1.81-27.972q1.8-10.992,5.7-17.4a20.807,20.807,0,0,1,10.15-8.906,40.747,40.747,0,0,1,15.15-2.5,38.9,38.9,0,0,1,14.74,2.5,21.04,21.04,0,0,1,10.01,8.906q3.885,6.406,5.84,17.4a166.2,166.2,0,0,1,1.94,27.972,164.085,164.085,0,0,1-1.94,27.694q-1.95,11-5.84,17.257a21.2,21.2,0,0,1-10.01,8.767,38.9,38.9,0,0,1-14.74,2.5A40.747,40.747,0,0,1,3361.27,279.267Z"/>
  <path id="UNIVERSITY_LIBRARIES_has_leant" data-name="UNIVERSITY LIBRARIES has leant" class="cls-3" d="M4290.92,27.56a12.248,12.248,0,0,0,5.23-3.218,13.239,13.239,0,0,0,3.04-5.588,30.373,30.373,0,0,0,.97-8.192V-15.3h-3.98V10.386a25.2,25.2,0,0,1-.79,6.788,11,11,0,0,1-2.39,4.564,9.3,9.3,0,0,1-4.01,2.545,20.317,20.317,0,0,1-11.22,0,9.241,9.241,0,0,1-4.01-2.545,11,11,0,0,1-2.39-4.564,25.2,25.2,0,0,1-.79-6.788V-15.3h-3.92V10.562a29.978,29.978,0,0,0,.97,8.192,13.308,13.308,0,0,0,3.01,5.588,11.965,11.965,0,0,0,5.2,3.218A28.272,28.272,0,0,0,4290.92,27.56ZM4311.14,28h3.69V-9.04h0.29l3.33,4.974L4341.78,28h3.62V-15.3h-3.68V21.8h-0.3l-3.5-5.149L4314.71-15.3h-3.57V28Zm45.72,0h3.97V-15.3h-3.97V28Zm26.71,0h5.38l16.19-43.3h-4.15l-11.57,31.071-2.99,8.25h-0.35l-2.92-8.25L4371.59-15.3h-4.15Zm28.12,0h26.94V24.547h-22.97V7.695h21.1V4.3h-21.1v-16.15h22.51V-15.3h-26.48V28Zm62.13,0h4.45l-10.93-17.32a12.7,12.7,0,0,0,7.3-4.418,13.7,13.7,0,0,0,2.34-8.4q0-7.2-4.53-10.474t-14.47-3.277a63.26,63.26,0,0,0-10.29.878V28h3.98V11.264q1.815,0.176,3.51.293t3.09,0.117c0.98,0,1.9-.019,2.78-0.059s1.73-.117,2.54-0.234Zm-19.2-19.865a18.939,18.939,0,0,1-2.95-.38V-11.966q1.455-.233,3.33-0.38t3.51-.146q7.65,0,11.05,2.458t3.39,7.9a13.144,13.144,0,0,1-.79,4.8,7.177,7.177,0,0,1-2.49,3.218,11.6,11.6,0,0,1-4.38,1.814,31.319,31.319,0,0,1-6.55.585C4457.34,8.28,4455.97,8.231,4454.62,8.133Zm53.11,17.5q3.855-3.013,3.86-8.631a11.3,11.3,0,0,0-1-5,10.1,10.1,0,0,0-2.72-3.423,15.361,15.361,0,0,0-4.09-2.341q-2.37-.935-5.11-1.755a35.282,35.282,0,0,1-4.88-1.7,11.97,11.97,0,0,1-3.16-1.96,6.582,6.582,0,0,1-1.73-2.4,8.087,8.087,0,0,1-.52-3.013,7.191,7.191,0,0,1,2.83-5.968,12.051,12.051,0,0,1,7.63-2.223,37.627,37.627,0,0,1,5.06.38,49.384,49.384,0,0,1,5.52,1.082l0.12-3.511a50.765,50.765,0,0,0-10.93-1.4,19.907,19.907,0,0,0-5.91.819,13.107,13.107,0,0,0-4.5,2.37,10.788,10.788,0,0,0-2.89,3.716,11.118,11.118,0,0,0-1.02,4.8,12.25,12.25,0,0,0,.7,4.33,9.007,9.007,0,0,0,2.22,3.335,14.65,14.65,0,0,0,3.92,2.6,38.923,38.923,0,0,0,5.78,2.136c1.48,0.43,2.87.888,4.15,1.375A14.589,14.589,0,0,1,4504.42,11a7.523,7.523,0,0,1,2.26,2.516,7.581,7.581,0,0,1,.81,3.657,6.915,6.915,0,0,1-2.83,5.939q-2.835,2.078-8.16,2.077a44.676,44.676,0,0,1-6.19-.5,62.519,62.519,0,0,1-6.72-1.317l-0.12,3.452a61.749,61.749,0,0,0,6.78,1.317,46.748,46.748,0,0,0,6.37.5Q4503.865,28.642,4507.73,25.629ZM4520,28h3.98V-15.3H4520V28Zm25.2,0h3.97V-11.849h14.32V-15.3h-32.56v3.452h14.27V28Zm35.77,0h3.98V13.253L4600.5-15.3h-4.27l-11.4,21.065-1.7,3.686h-0.41l-1.75-3.686L4569.63-15.3h-4.33l15.67,28.672V28Zm38.64,0h24.02V24.605h-20.05V-15.3h-3.97V28Zm30.86,0h3.98V-15.3h-3.98V28Zm45.13-11.293a10.793,10.793,0,0,0-2.25-7.109,10.832,10.832,0,0,0-6.63-3.54V5.822a8.43,8.43,0,0,0,5.49-3.365,11.084,11.084,0,0,0,1.99-6.7q0-6.144-3.69-8.865-3.675-2.721-11.98-2.721-2.685,0-5.58.2t-7.04.614V27.706q3.495,0.468,6.86.673t6.35,0.2q16.485,0,16.48-11.878h0Zm-21.98,8.514a29.532,29.532,0,0,1-3.86-.439V7.636h10.17q6.03,0,8.86,2.165t2.84,6.671c0,3.043-1.03,5.286-3.07,6.729s-5.22,2.165-9.5,2.165C4677.03,25.366,4675.22,25.317,4673.62,25.219Zm-3.86-20.743V-12.083a35.439,35.439,0,0,1,4.01-.38c1.42-.059,3.07-0.088,4.94-0.088a25.773,25.773,0,0,1,5.29.468,9.316,9.316,0,0,1,3.56,1.463,5.776,5.776,0,0,1,2.02,2.633,10.7,10.7,0,0,1,.64,3.92q0,4.623-2.42,6.583t-8.1,1.96h-9.94ZM4730.73,28h4.44l-10.93-17.32a12.69,12.69,0,0,0,7.31-4.418,13.7,13.7,0,0,0,2.34-8.4q0-7.2-4.53-10.474t-14.47-3.277a63.26,63.26,0,0,0-10.29.878V28h3.98V11.264c1.2,0.117,2.37.215,3.5,0.293s2.17,0.117,3.1.117c0.98,0,1.9-.019,2.78-0.059s1.72-.117,2.54-0.234Zm-19.2-19.865a18.764,18.764,0,0,1-2.95-.38V-11.966q1.455-.233,3.33-0.38t3.51-.146q7.65,0,11.04,2.458c2.26,1.638,3.4,4.271,3.4,7.9a13.144,13.144,0,0,1-.79,4.8,7.177,7.177,0,0,1-2.49,3.218,11.6,11.6,0,0,1-4.38,1.814,31.385,31.385,0,0,1-6.55.585C4714.25,8.28,4712.87,8.231,4711.53,8.133ZM4738.33,28h3.92l5.02-13.517h19.88L4772.23,28h3.92V27.648L4760.25-15.3h-6.02l-15.9,42.949V28Zm10.11-17.027,5.97-15.916,2.63-7.314h0.35l2.69,7.314,5.96,15.916h-17.6ZM4808.83,28h4.44l-10.93-17.32a12.722,12.722,0,0,0,7.31-4.418,13.768,13.768,0,0,0,2.33-8.4q0-7.2-4.53-10.474t-14.46-3.277a63.073,63.073,0,0,0-10.29.878V28h3.97V11.264q1.815,0.176,3.51.293c1.13,0.079,2.16.117,3.1,0.117,0.97,0,1.9-.019,2.77-0.059s1.73-.117,2.55-0.234ZM4789.62,8.133a19.118,19.118,0,0,1-2.95-.38V-11.966q1.47-.233,3.33-0.38t3.51-.146q7.665,0,11.05,2.458t3.39,7.9a12.936,12.936,0,0,1-.79,4.8,7.088,7.088,0,0,1-2.48,3.218,11.651,11.651,0,0,1-4.39,1.814,31.217,31.217,0,0,1-6.54.585C4792.34,8.28,4790.97,8.231,4789.62,8.133ZM4821.34,28h3.97V-15.3h-3.97V28Zm15.43,0h26.95V24.547h-22.98V7.695h21.11V4.3h-21.11v-16.15h22.51V-15.3h-26.48V28Zm57.4-2.37q3.855-3.013,3.86-8.631a11.167,11.167,0,0,0-1-5,10.072,10.072,0,0,0-2.71-3.423,15.425,15.425,0,0,0-4.1-2.341c-1.57-.624-3.28-1.209-5.11-1.755a35.282,35.282,0,0,1-4.88-1.7,11.97,11.97,0,0,1-3.16-1.96,6.437,6.437,0,0,1-1.72-2.4,8.083,8.083,0,0,1-.53-3.013,7.2,7.2,0,0,1,2.84-5.968,12.031,12.031,0,0,1,7.63-2.223,37.488,37.488,0,0,1,5.05.38,50,50,0,0,1,5.53,1.082l0.11-3.511a50.765,50.765,0,0,0-10.93-1.4,19.791,19.791,0,0,0-5.9.819,12.927,12.927,0,0,0-4.5,2.37,10.7,10.7,0,0,0-2.9,3.716,11.118,11.118,0,0,0-1.02,4.8,12.25,12.25,0,0,0,.7,4.33,9.007,9.007,0,0,0,2.22,3.335,14.812,14.812,0,0,0,3.92,2.6,39.51,39.51,0,0,0,5.79,2.136c1.48,0.43,2.86.888,4.15,1.375A15.012,15.012,0,0,1,4890.87,11a7.6,7.6,0,0,1,2.25,2.516,7.58,7.58,0,0,1,.82,3.657,6.922,6.922,0,0,1-2.84,5.939q-2.835,2.078-8.15,2.077a44.691,44.691,0,0,1-6.2-.5,62.519,62.519,0,0,1-6.72-1.317l-0.12,3.452a61.749,61.749,0,0,0,6.78,1.317,46.748,46.748,0,0,0,6.37.5Q4890.32,28.642,4894.17,25.629ZM4921.06,28h3.97V7.519h25.32V28h3.91V-15.3h-3.91V4.125h-25.32V-15.3h-3.97V28Zm39.75,0h3.92l5.02-13.517h19.88L4994.71,28h3.92V27.648L4982.73-15.3h-6.02l-15.9,42.949V28Zm10.11-17.027,5.96-15.916,2.63-7.314h0.36l2.68,7.314,5.97,15.916h-17.6Zm55.65,14.658q3.855-3.013,3.86-8.631a11.31,11.31,0,0,0-.99-5,10.222,10.222,0,0,0-2.72-3.423,15.425,15.425,0,0,0-4.1-2.341c-1.57-.624-3.28-1.209-5.11-1.755a35.282,35.282,0,0,1-4.88-1.7,11.97,11.97,0,0,1-3.16-1.96,6.437,6.437,0,0,1-1.72-2.4,8.083,8.083,0,0,1-.53-3.013,7.2,7.2,0,0,1,2.84-5.968,12.031,12.031,0,0,1,7.63-2.223,37.488,37.488,0,0,1,5.05.38,50,50,0,0,1,5.53,1.082l0.11-3.511a50.765,50.765,0,0,0-10.93-1.4,19.791,19.791,0,0,0-5.9.819,12.927,12.927,0,0,0-4.5,2.37,10.7,10.7,0,0,0-2.9,3.716,11.118,11.118,0,0,0-1.02,4.8,12.25,12.25,0,0,0,.7,4.33,9.007,9.007,0,0,0,2.22,3.335,14.812,14.812,0,0,0,3.92,2.6,39.51,39.51,0,0,0,5.79,2.136c1.48,0.43,2.86.888,4.15,1.375A15.012,15.012,0,0,1,5023.27,11a7.6,7.6,0,0,1,2.25,2.516,7.58,7.58,0,0,1,.82,3.657,6.922,6.922,0,0,1-2.84,5.939q-2.835,2.078-8.15,2.077a44.691,44.691,0,0,1-6.2-.5,62.519,62.519,0,0,1-6.72-1.317l-0.12,3.452a62.211,62.211,0,0,0,6.78,1.317,46.748,46.748,0,0,0,6.37.5Q5022.72,28.642,5026.57,25.629ZM5053.46,28h24.02V24.605h-20.05V-15.3h-3.97V28Zm30.86,0h26.95V24.547H5088.3V7.695h21.1V4.3h-21.1v-16.15h22.5V-15.3h-26.48V28Zm31.1,0h3.92l5.02-13.517h19.88L5149.33,28h3.91V27.648L5137.34-15.3h-6.02l-15.9,42.949V28Zm10.11-17.027,5.97-15.916,2.63-7.314h0.35l2.69,7.314,5.96,15.916h-17.6ZM5159.79,28h3.68V-9.04h0.29l3.34,4.974L5190.42,28h3.62V-15.3h-3.68V21.8h-0.29l-3.51-5.149L5163.35-15.3h-3.56V28Zm55.47,0h3.98V-11.849h14.32V-15.3H5201v3.452h14.26V28Z"/>
  <path id="documents_lent_to_scholars_government_agencies_and_institutio" data-name="documents lent to scholars,  government agencies and institutio" class="cls-3" d="M4305.72,377.835q5.475-5.382,5.47-16.91,0-11.468-5.26-16.823t-16.55-5.354c-0.7,0-1.54.021-2.51,0.059s-1.98.088-3.01,0.146-2.08.127-3.13,0.205-2.01.156-2.86,0.234v42.949a19.644,19.644,0,0,0,4.32.673q2.865,0.2,6.2.2Q4300.255,383.219,4305.72,377.835Zm-18.24,1.9c-0.6-.019-1.19-0.048-1.78-0.088s-1.19-.1-1.81-0.175-1.31-.176-2.05-0.293V342.727c1.17-.155,2.5-0.272,3.98-0.351s2.76-.117,3.86-0.117q9.06,0,13.26,4.477,4.215,4.476,4.21,14.189,0,9.772-4.29,14.307t-13.48,4.534C4288.72,379.766,4288.09,379.757,4287.48,379.737Zm62.49-2.194q4.77-5.618,4.77-16.559,0-11-4.77-16.648t-13.53-5.646q-8.88,0-13.62,5.646t-4.74,16.648q0,11,4.74,16.588t13.62,5.588Q4345.215,383.16,4349.97,377.543Zm-24.23-2.516q-3.615-4.681-3.62-14.043,0-9.421,3.62-14.131t10.7-4.711q7.065,0,10.67,4.711,3.585,4.71,3.59,14.131,0,9.3-3.59,14.014t-10.67,4.71Q4329.36,379.708,4325.74,375.027Zm57.26,7.987c0.84-.059,1.68-0.146,2.54-0.263s1.7-.254,2.52-0.41,1.55-.331,2.22-0.527v-3.393c-0.59.156-1.31,0.3-2.17,0.438s-1.73.264-2.63,0.381-1.76.2-2.6,0.263-1.57.088-2.19,0.088q-14.97,0-14.96-18.607,0-9.6,3.79-14.161c2.54-3.042,6.41-4.564,11.64-4.564a37.586,37.586,0,0,1,4.15.264c1.56,0.175,3.21.419,4.97,0.731v-3.511c-1.6-.312-3.26-0.565-4.97-0.761a40.856,40.856,0,0,0-4.5-.292q-19.185,0-19.18,22.352,0,21.942,19.06,22.06Q4381.74,383.1,4383,383.014Zm39.49-.878a12.306,12.306,0,0,0,5.23-3.218,13.348,13.348,0,0,0,3.04-5.588,30.407,30.407,0,0,0,.96-8.192V339.275h-3.97v25.687a25.606,25.606,0,0,1-.79,6.788,11.135,11.135,0,0,1-2.4,4.564,9.262,9.262,0,0,1-4,2.545,20.35,20.35,0,0,1-11.23,0,9.2,9.2,0,0,1-4-2.545,11.135,11.135,0,0,1-2.4-4.564,25.606,25.606,0,0,1-.79-6.788V339.275h-3.91v25.863a30.407,30.407,0,0,0,.96,8.192,13.419,13.419,0,0,0,3.01,5.588,12.021,12.021,0,0,0,5.2,3.218A28.308,28.308,0,0,0,4422.49,382.136Zm20.22,0.439h3.68V344.717h0.3l5.08,12.288,10.29,23.873h3.8l10.29-23.873,5.02-12.288h0.35v37.858h3.69v-43.3h-5.44l-11.87,27.852-3.8,9.421h-0.35l-3.74-9.421-11.86-27.852h-5.44v43.3Zm53.95,0h26.95v-3.452h-22.97V362.271h21.1v-3.394h-21.1v-16.15h22.5v-3.452h-26.48v43.3Zm36.01,0h3.68V345.536h0.3l3.33,4.974,23.32,32.065h3.63v-43.3h-3.69v37.1h-0.29l-3.51-5.15-23.2-31.948h-3.57v43.3Zm55.48,0h3.97V342.727h14.32v-3.452h-32.56v3.452h14.27v39.848Zm46.35-2.37q3.855-3.012,3.86-8.631a11.3,11.3,0,0,0-.99-5,10.218,10.218,0,0,0-2.72-3.423,15.486,15.486,0,0,0-4.09-2.341q-2.37-.936-5.12-1.755a35.322,35.322,0,0,1-4.88-1.7,11.949,11.949,0,0,1-3.16-1.961,6.431,6.431,0,0,1-1.72-2.4,8.078,8.078,0,0,1-.53-3.013,7.2,7.2,0,0,1,2.84-5.968,12.032,12.032,0,0,1,7.63-2.224,37.517,37.517,0,0,1,5.05.38,50.214,50.214,0,0,1,5.53,1.083l0.11-3.511a50.776,50.776,0,0,0-10.93-1.4,19.788,19.788,0,0,0-5.9.819,12.936,12.936,0,0,0-4.5,2.37,10.7,10.7,0,0,0-2.9,3.715,11.121,11.121,0,0,0-1.02,4.8,12.252,12.252,0,0,0,.7,4.33,9.016,9.016,0,0,0,2.22,3.335,14.833,14.833,0,0,0,3.92,2.6,39.494,39.494,0,0,0,5.79,2.135c1.48,0.43,2.86.888,4.15,1.375a15.044,15.044,0,0,1,3.36,1.756,7.073,7.073,0,0,1,3.07,6.173,6.921,6.921,0,0,1-2.84,5.939q-2.835,2.077-8.15,2.077a44.656,44.656,0,0,1-6.2-.5,62.445,62.445,0,0,1-6.72-1.317l-0.12,3.453a62.4,62.4,0,0,0,6.78,1.316,46.756,46.756,0,0,0,6.37.5Q4630.65,383.219,4634.5,380.205Zm26.89,2.37h24.02v-3.394h-20.05V339.275h-3.97v43.3Zm30.86,0h26.95v-3.452h-22.97V362.271h21.1v-3.394h-21.1v-16.15h22.5v-3.452h-26.48v43.3Zm36.01,0h3.68V345.536h0.3l3.33,4.974,23.32,32.065h3.63v-43.3h-3.69v37.1h-0.29l-3.51-5.15-23.2-31.948h-3.57v43.3Zm55.47,0h3.98V342.727h14.32v-3.452h-32.56v3.452h14.26v39.848Zm46.59,0h3.98V342.727h14.32v-3.452h-32.56v3.452h14.26v39.848Zm52.64-5.032q4.77-5.618,4.77-16.559,0-11-4.77-16.648t-13.53-5.646q-8.88,0-13.62,5.646t-4.73,16.648q0,11,4.73,16.588t13.62,5.588Q4878.205,383.16,4882.96,377.543Zm-24.23-2.516q-3.615-4.681-3.62-14.043,0-9.421,3.62-14.131t10.7-4.711q7.08,0,10.67,4.711t3.59,14.131q0,9.3-3.59,14.014t-10.67,4.71Q4862.35,379.708,4858.73,375.027Zm74.18,5.178q3.855-3.012,3.86-8.631a11.3,11.3,0,0,0-.99-5,10.218,10.218,0,0,0-2.72-3.423,15.486,15.486,0,0,0-4.09-2.341q-2.37-.936-5.12-1.755a35.8,35.8,0,0,1-4.88-1.7,11.949,11.949,0,0,1-3.16-1.961,6.431,6.431,0,0,1-1.72-2.4,8.078,8.078,0,0,1-.53-3.013,7.2,7.2,0,0,1,2.84-5.968,12.032,12.032,0,0,1,7.63-2.224,37.517,37.517,0,0,1,5.05.38,50.214,50.214,0,0,1,5.53,1.083l0.11-3.511a50.776,50.776,0,0,0-10.93-1.4,19.788,19.788,0,0,0-5.9.819,13.025,13.025,0,0,0-4.5,2.37,10.821,10.821,0,0,0-2.9,3.715,11.121,11.121,0,0,0-1.02,4.8,12.482,12.482,0,0,0,.7,4.33,9.016,9.016,0,0,0,2.22,3.335,14.833,14.833,0,0,0,3.92,2.6,39.494,39.494,0,0,0,5.79,2.135c1.48,0.43,2.86.888,4.15,1.375a15.044,15.044,0,0,1,3.36,1.756,7.073,7.073,0,0,1,3.07,6.173,6.921,6.921,0,0,1-2.84,5.939q-2.835,2.077-8.15,2.077a44.773,44.773,0,0,1-6.2-.5,62.445,62.445,0,0,1-6.72-1.317l-0.12,3.453a62.876,62.876,0,0,0,6.78,1.316,46.774,46.774,0,0,0,6.38.5Q4929.055,383.219,4932.91,380.205Zm31.36,2.809q1.26-.089,2.55-0.263c0.85-.117,1.69-0.254,2.51-0.41a22.545,22.545,0,0,0,2.22-.527v-3.393a21.942,21.942,0,0,1-2.16.438c-0.86.138-1.74,0.264-2.63,0.381s-1.77.2-2.6,0.263-1.57.088-2.2,0.088q-14.955,0-14.96-18.607,0-9.6,3.8-14.161t11.63-4.564a37.44,37.44,0,0,1,4.15.264c1.56,0.175,3.22.419,4.97,0.731v-3.511c-1.6-.312-3.25-0.565-4.97-0.761a40.558,40.558,0,0,0-4.5-.292q-19.17,0-19.17,22.352,0,21.942,19.05,22.06C4962.67,383.1,4963.43,383.072,4964.27,383.014Zm15.64-.439h3.97V362.1h25.32v20.48h3.91v-43.3h-3.91V358.7h-25.32V339.275h-3.97v43.3Zm74.27-5.032q4.755-5.618,4.76-16.559,0-11-4.76-16.648t-13.54-5.646q-8.88,0-13.62,5.646t-4.73,16.648q0,11,4.73,16.588t13.62,5.588Q5049.415,383.16,5054.18,377.543Zm-24.23-2.516q-3.63-4.681-3.63-14.043,0-9.421,3.63-14.131,3.615-4.71,10.69-4.711t10.67,4.711q3.6,4.71,3.6,14.131,0,9.3-3.6,14.014t-10.67,4.71Q5033.575,379.708,5029.95,375.027Zm38.17,7.548h24.02v-3.394h-20.05V339.275h-3.97v43.3Zm25.95,0h3.92l5.03-13.517h19.87l5.09,13.517h3.91v-0.351l-15.9-42.949h-6.02l-15.9,42.949v0.351Zm10.11-17.027,5.97-15.916,2.63-7.314h0.35l2.69,7.314,5.96,15.916h-17.6Zm60.39,17.027h4.44l-10.93-17.32a12.721,12.721,0,0,0,7.31-4.418,13.7,13.7,0,0,0,2.34-8.4c0-4.8-1.52-8.289-4.53-10.474q-4.545-3.278-14.47-3.277a62.986,62.986,0,0,0-10.29.878v43.007h3.97V365.84q1.815,0.175,3.51.293c1.13,0.078,2.16.117,3.1,0.117,0.97,0,1.9-.019,2.78-0.059s1.72-.117,2.54-0.234Zm-19.2-19.865a19.019,19.019,0,0,1-2.96-.381V342.61c0.98-.155,2.09-0.282,3.34-0.38s2.41-.146,3.5-0.146q7.665,0,11.05,2.457t3.39,7.9a12.939,12.939,0,0,1-.79,4.8,7.09,7.09,0,0,1-2.48,3.218,11.593,11.593,0,0,1-4.39,1.814,31.244,31.244,0,0,1-6.54.585C5148.08,362.856,5146.71,362.808,5145.37,362.71Zm53.1,17.5q3.855-3.012,3.86-8.631a11.3,11.3,0,0,0-.99-5,10.218,10.218,0,0,0-2.72-3.423,15.486,15.486,0,0,0-4.09-2.341q-2.37-.936-5.12-1.755a35.8,35.8,0,0,1-4.88-1.7,11.949,11.949,0,0,1-3.16-1.961,6.431,6.431,0,0,1-1.72-2.4,8.078,8.078,0,0,1-.53-3.013,7.2,7.2,0,0,1,2.84-5.968,12.032,12.032,0,0,1,7.63-2.224,37.517,37.517,0,0,1,5.05.38,49.762,49.762,0,0,1,5.53,1.083l0.11-3.511a50.776,50.776,0,0,0-10.93-1.4,19.788,19.788,0,0,0-5.9.819,13.025,13.025,0,0,0-4.5,2.37,10.821,10.821,0,0,0-2.9,3.715,11.121,11.121,0,0,0-1.02,4.8,12.482,12.482,0,0,0,.7,4.33,9.016,9.016,0,0,0,2.22,3.335,14.833,14.833,0,0,0,3.92,2.6,39.494,39.494,0,0,0,5.79,2.135c1.48,0.43,2.86.888,4.15,1.375a15.044,15.044,0,0,1,3.36,1.756,7.6,7.6,0,0,1,2.25,2.516,7.467,7.467,0,0,1,.82,3.657,6.921,6.921,0,0,1-2.84,5.939q-2.835,2.077-8.15,2.077a44.773,44.773,0,0,1-6.2-.5,62.445,62.445,0,0,1-6.72-1.317l-0.12,3.453a62.876,62.876,0,0,0,6.78,1.316,46.774,46.774,0,0,0,6.38.5Q5194.615,383.219,5198.47,380.205Zm11.93,11.44,3.74-14.1h-4.09l-2.69,13.516ZM4300.72,451.6a44.841,44.841,0,0,0,5.91-1.288V429.544h-3.8v18.2c-1.25.234-2.59,0.429-4.04,0.585a34.672,34.672,0,0,1-3.62.234q-15.495,0-15.49-18.607,0-9.537,3.97-14.131t12.28-4.594q1.17,0,2.28.059t2.34,0.234c0.82,0.117,1.68.263,2.6,0.439s1.96,0.4,3.13.673v-3.511a54.423,54.423,0,0,0-5.47-1.083,36.2,36.2,0,0,0-5.11-.38q-20.115,0-20.11,22.352,0,21.942,19.58,22.06A37.572,37.572,0,0,0,4300.72,451.6Zm45.39-5.091q4.77-5.618,4.77-16.559,0-11-4.77-16.648-4.755-5.646-13.53-5.646-8.88,0-13.62,5.646t-4.73,16.648q0,11,4.73,16.588t13.62,5.588Q4341.355,452.13,4346.11,446.513ZM4321.88,444q-3.615-4.682-3.62-14.043,0-9.421,3.62-14.131t10.7-4.711q7.08,0,10.67,4.711t3.59,14.131q0,9.3-3.59,14.014t-10.67,4.71Q4325.515,448.678,4321.88,444Zm48.58,7.548h5.38l16.19-43.3h-4.15l-11.58,31.071-2.98,8.25h-0.35l-2.92-8.25-11.57-31.071h-4.15Zm28.12,0h26.94v-3.452h-22.97V431.241h21.1v-3.394h-21.1V411.7h22.51v-3.452h-26.48v43.3Zm62.13,0h4.45l-10.94-17.32a12.688,12.688,0,0,0,7.31-4.418,13.7,13.7,0,0,0,2.34-8.4q0-7.2-4.53-10.474t-14.47-3.277a63.172,63.172,0,0,0-10.29.878v43.007h3.98V434.81q1.815,0.175,3.51.293t3.09,0.117c0.98,0,1.9-.019,2.78-0.059a25.5,25.5,0,0,0,2.54-.234Zm-19.2-19.865a18.851,18.851,0,0,1-2.95-.381V411.58q1.455-.232,3.33-0.38t3.51-.146q7.65,0,11.05,2.457t3.39,7.9a13.146,13.146,0,0,1-.79,4.8,7.179,7.179,0,0,1-2.49,3.218,11.611,11.611,0,0,1-4.38,1.814,31.346,31.346,0,0,1-6.55.585C4444.23,431.826,4442.86,431.778,4441.51,431.68Zm31.71,19.865h3.68V414.506h0.3l3.33,4.974,23.32,32.065h3.63v-43.3h-3.69v37.1h-0.29l-3.51-5.15-23.2-31.948h-3.57v43.3Zm45.71,0h3.69V413.687h0.29l5.08,12.288,10.29,23.873h3.8l10.29-23.873,5.03-12.288h0.35v37.858h3.68v-43.3h-5.44L4544.13,436.1l-3.8,9.421h-0.35l-3.74-9.421-11.87-27.852h-5.44v43.3Zm53.96,0h26.95v-3.452h-22.98V431.241h21.1v-3.394h-21.1V411.7h22.51v-3.452h-26.48v43.3Zm36.01,0h3.68V414.506h0.29l3.33,4.974,23.33,32.065h3.62v-43.3h-3.68v37.1h-0.29l-3.51-5.15-23.21-31.948h-3.56v43.3Zm55.47,0h3.97V411.7h14.33v-3.452h-32.56V411.7h14.26v39.848Zm31.8,0h3.91l5.03-13.517h19.88l5.08,13.517h3.92v-0.351l-15.9-42.949h-6.02l-15.9,42.949v0.351Zm10.11-17.027,5.96-15.916,2.63-7.314h0.35l2.69,7.314,5.97,15.916h-17.6Zm56.41,17.086a44.688,44.688,0,0,0,5.9-1.288V429.544h-3.8v18.2c-1.24.234-2.59,0.429-4.03,0.585a34.672,34.672,0,0,1-3.62.234q-15.495,0-15.49-18.607,0-9.537,3.97-14.131t12.28-4.594q1.17,0,2.28.059t2.34,0.234c0.81,0.117,1.68.263,2.6,0.439s1.95,0.4,3.12.673v-3.511a54.246,54.246,0,0,0-5.46-1.083,36.341,36.341,0,0,0-5.12-.38q-20.1,0-20.11,22.352,0,21.942,19.59,22.06A37.791,37.791,0,0,0,4762.69,451.6Zm15.78-.059h26.95v-3.452h-22.97V431.241h21.1v-3.394h-21.1V411.7h22.5v-3.452h-26.48v43.3Zm36.01,0h3.68V414.506h0.3l3.33,4.974,23.32,32.065h3.63v-43.3h-3.69v37.1h-0.29l-3.51-5.15-23.2-31.948h-3.57v43.3Zm64.8,0.439c0.84-.059,1.68-0.146,2.54-0.263s1.7-.254,2.51-0.41,1.56-.331,2.23-0.527v-3.393c-0.59.156-1.31,0.3-2.17,0.438s-1.73.264-2.63,0.381-1.76.205-2.6,0.263-1.57.088-2.19,0.088q-14.97,0-14.97-18.607,0-9.6,3.8-14.161c2.54-3.042,6.41-4.564,11.64-4.564a37.586,37.586,0,0,1,4.15.264c1.55,0.175,3.21.419,4.97,0.731v-3.511c-1.6-.312-3.26-0.565-4.97-0.761a40.856,40.856,0,0,0-4.5-.292q-19.185,0-19.18,22.352,0,21.942,19.06,22.06Q4878.02,452.072,4879.28,451.984Zm15.63-.439h3.98v-43.3h-3.98v43.3Zm15.44,0h26.94v-3.452h-22.97V431.241h21.1v-3.394h-21.1V411.7h22.51v-3.452h-26.48v43.3Zm57.4-2.37q3.855-3.012,3.86-8.631a11.162,11.162,0,0,0-1-5,10.19,10.19,0,0,0-2.71-3.423,15.392,15.392,0,0,0-4.1-2.341c-1.57-.624-3.28-1.209-5.11-1.755a35.322,35.322,0,0,1-4.88-1.7,11.974,11.974,0,0,1-3.16-1.96,6.442,6.442,0,0,1-1.72-2.4,8.078,8.078,0,0,1-.53-3.013,7.172,7.172,0,0,1,2.84-5.968,12.021,12.021,0,0,1,7.62-2.224,37.656,37.656,0,0,1,5.06.38,49.591,49.591,0,0,1,5.52,1.083l0.12-3.511a50.776,50.776,0,0,0-10.93-1.4,19.788,19.788,0,0,0-5.9.819,12.936,12.936,0,0,0-4.5,2.37,10.7,10.7,0,0,0-2.9,3.715,11.121,11.121,0,0,0-1.02,4.8,12.252,12.252,0,0,0,.7,4.33,9.016,9.016,0,0,0,2.22,3.335,14.67,14.67,0,0,0,3.92,2.6,39.333,39.333,0,0,0,5.78,2.135c1.49,0.43,2.87.888,4.16,1.375a15.044,15.044,0,0,1,3.36,1.756,7.073,7.073,0,0,1,3.07,6.173,6.921,6.921,0,0,1-2.84,5.939q-2.835,2.077-8.15,2.077a44.656,44.656,0,0,1-6.2-.5,62.445,62.445,0,0,1-6.72-1.317l-0.12,3.453a61.939,61.939,0,0,0,6.78,1.316,46.756,46.756,0,0,0,6.37.5Q4963.885,452.189,4967.75,449.175Zm20.34,2.37h3.92l5.02-13.517h19.88l5.08,13.517h3.92v-0.351l-15.9-42.949h-6.02l-15.9,42.949v0.351Zm10.11-17.027,5.97-15.916,2.63-7.314h0.35l2.69,7.314,5.96,15.916h-17.6Zm34.26,17.027h3.68V414.506h0.29l3.34,4.974,23.32,32.065h3.62v-43.3h-3.68v37.1h-0.29l-3.51-5.15-23.21-31.948h-3.56v43.3Zm73.56-4.74q5.475-5.382,5.47-16.91,0-11.467-5.26-16.823t-16.54-5.354c-0.71,0-1.54.021-2.52,0.059s-1.98.088-3.01,0.146-2.07.127-3.13,0.2-2,.156-2.86.234v42.949a19.754,19.754,0,0,0,4.33.673c1.9,0.136,3.97.205,6.19,0.205Q5100.555,452.189,5106.02,446.805Zm-18.23,1.9c-0.61-.019-1.2-0.048-1.79-0.088s-1.19-.1-1.81-0.175-1.31-.176-2.05-0.293V411.7c1.17-.155,2.5-0.272,3.98-0.351s2.77-.117,3.86-0.117q9.06,0,13.27,4.477t4.21,14.189q0,9.773-4.3,14.307t-13.47,4.534C5089.02,448.736,5088.39,448.727,5087.79,448.707Zm-809.92,71.808h3.97v-43.3h-3.97v43.3Zm15.43,0h3.68V483.476h0.29l3.34,4.974,23.32,32.065h3.62v-43.3h-3.68v37.1h-0.29l-3.51-5.15-23.2-31.948h-3.57v43.3Zm67.11-2.37q3.855-3.012,3.85-8.631a11.3,11.3,0,0,0-.99-5,10.1,10.1,0,0,0-2.72-3.423,15.328,15.328,0,0,0-4.09-2.341q-2.37-.936-5.11-1.755a35.985,35.985,0,0,1-4.89-1.7,12.07,12.07,0,0,1-3.15-1.96,6.473,6.473,0,0,1-1.73-2.4,8.081,8.081,0,0,1-.52-3.013,7.19,7.19,0,0,1,2.83-5.968,12.032,12.032,0,0,1,7.63-2.224,37.656,37.656,0,0,1,5.06.38,49.591,49.591,0,0,1,5.52,1.083l0.12-3.511a50.851,50.851,0,0,0-10.93-1.4,19.856,19.856,0,0,0-5.91.819,13.116,13.116,0,0,0-4.5,2.37,10.674,10.674,0,0,0-2.89,3.715,11.121,11.121,0,0,0-1.02,4.8,12.252,12.252,0,0,0,.7,4.33,8.779,8.779,0,0,0,2.22,3.335,14.769,14.769,0,0,0,3.91,2.6,39.494,39.494,0,0,0,5.79,2.135c1.48,0.43,2.87.888,4.15,1.375a14.619,14.619,0,0,1,3.36,1.756,7.385,7.385,0,0,1,2.25,2.516,7.467,7.467,0,0,1,.82,3.657,6.914,6.914,0,0,1-2.83,5.939q-2.835,2.077-8.16,2.077a44.524,44.524,0,0,1-6.19-.5,63.12,63.12,0,0,1-6.73-1.317l-0.11,3.453a61.939,61.939,0,0,0,6.78,1.316,46.638,46.638,0,0,0,6.37.5Q4356.545,521.159,4360.41,518.145Zm22.03,2.37h3.98V480.667h14.32v-3.452h-32.56v3.452h14.26v39.848Zm25.26,0h3.97v-43.3h-3.97v43.3Zm25.19,0h3.97V480.667h14.33v-3.452h-32.56v3.452h14.26v39.848Zm49.1-.439a12.186,12.186,0,0,0,5.23-3.218,13.131,13.131,0,0,0,3.04-5.588,29.98,29.98,0,0,0,.97-8.192V477.215h-3.98V502.9a25.2,25.2,0,0,1-.79,6.788,11.006,11.006,0,0,1-2.39,4.564,9.3,9.3,0,0,1-4.01,2.545,20.314,20.314,0,0,1-11.22,0,9.3,9.3,0,0,1-4.01-2.545,11.006,11.006,0,0,1-2.39-4.564,25.2,25.2,0,0,1-.79-6.788V477.215h-3.92v25.863a29.98,29.98,0,0,0,.97,8.192,13.307,13.307,0,0,0,3.01,5.588,12.021,12.021,0,0,0,5.2,3.218A28.272,28.272,0,0,0,4481.99,520.076Zm29.99,0.439h3.97V480.667h14.33v-3.452h-32.56v3.452h14.26v39.848Zm25.25,0h3.98v-43.3h-3.98v43.3Zm45.04-5.032q4.77-5.617,4.76-16.559,0-11-4.76-16.648t-13.53-5.646q-8.895,0-13.62,5.646t-4.74,16.648q0,11,4.74,16.588t13.62,5.588Q4577.5,521.1,4582.27,515.483Zm-24.23-2.516q-3.63-4.681-3.62-14.043,0-9.422,3.62-14.131t10.7-4.711q7.065,0,10.67,4.711,3.585,4.71,3.59,14.131,0,9.3-3.59,14.014t-10.67,4.71Q4561.66,517.648,4558.04,512.967Zm38.17,7.548h3.68V483.476h0.3l3.33,4.974,23.32,32.065h3.63v-43.3h-3.69v37.1h-0.29l-3.51-5.15-23.2-31.948h-3.57v43.3Zm67.11-2.37q3.855-3.012,3.86-8.631a11.3,11.3,0,0,0-1-5,10.1,10.1,0,0,0-2.72-3.423,15.328,15.328,0,0,0-4.09-2.341q-2.37-.936-5.11-1.755a35.322,35.322,0,0,1-4.88-1.7,11.974,11.974,0,0,1-3.16-1.96,6.587,6.587,0,0,1-1.73-2.4,8.081,8.081,0,0,1-.52-3.013,7.19,7.19,0,0,1,2.83-5.968,12.051,12.051,0,0,1,7.63-2.224,37.656,37.656,0,0,1,5.06.38,49.591,49.591,0,0,1,5.52,1.083l0.12-3.511a50.776,50.776,0,0,0-10.93-1.4,19.9,19.9,0,0,0-5.91.819,13.116,13.116,0,0,0-4.5,2.37,10.793,10.793,0,0,0-2.89,3.715,11.121,11.121,0,0,0-1.02,4.8,12.252,12.252,0,0,0,.7,4.33,9.016,9.016,0,0,0,2.22,3.335,14.67,14.67,0,0,0,3.92,2.6,38.907,38.907,0,0,0,5.78,2.135c1.48,0.43,2.87.888,4.15,1.375a14.619,14.619,0,0,1,3.36,1.756,7.013,7.013,0,0,1,3.07,6.173,6.914,6.914,0,0,1-2.83,5.939q-2.835,2.077-8.16,2.077a44.64,44.64,0,0,1-6.19-.5,62.445,62.445,0,0,1-6.72-1.317l-0.12,3.453a61.939,61.939,0,0,0,6.78,1.316,46.756,46.756,0,0,0,6.37.5Q4659.455,521.159,4663.32,518.145Zm20.34,2.37h3.92L4692.6,507h19.88l5.08,13.517h3.92v-0.351l-15.9-42.949h-6.02l-15.9,42.949v0.351Zm10.11-17.027,5.96-15.916,2.63-7.314h0.36l2.68,7.314,5.97,15.916h-17.6Zm60.39,17.027h4.44l-10.93-17.32a12.66,12.66,0,0,0,7.3-4.418,13.7,13.7,0,0,0,2.34-8.4q0-7.2-4.53-10.474t-14.47-3.277a62.96,62.96,0,0,0-10.28.878v43.007H4732V503.78q1.815,0.176,3.51.293c1.13,0.078,2.16.117,3.1,0.117,0.97,0,1.9-.019,2.77-0.059s1.73-.117,2.55-0.234Zm-19.21-19.865a18.851,18.851,0,0,1-2.95-.381V480.55c0.97-.155,2.09-0.282,3.33-0.38s2.42-.146,3.51-0.146q7.665,0,11.05,2.457t3.39,7.9a12.939,12.939,0,0,1-.79,4.8,7.158,7.158,0,0,1-2.48,3.218,11.732,11.732,0,0,1-4.39,1.814,31.279,31.279,0,0,1-6.55.585C4737.67,500.8,4736.3,500.748,4734.95,500.65Zm61.32,14.833q4.77-5.617,4.77-16.559,0-11-4.77-16.648t-13.53-5.646q-8.88,0-13.62,5.646t-4.74,16.648q0,11,4.74,16.588t13.62,5.588Q4791.515,521.1,4796.27,515.483Zm-24.23-2.516q-3.615-4.681-3.62-14.043,0-9.422,3.62-14.131t10.7-4.711q7.065,0,10.67,4.711,3.585,4.71,3.59,14.131,0,9.3-3.59,14.014t-10.67,4.71Q4775.66,517.648,4772.04,512.967Zm62.02,7.109a12.186,12.186,0,0,0,5.23-3.218,13.131,13.131,0,0,0,3.04-5.588,29.98,29.98,0,0,0,.97-8.192V477.215h-3.98V502.9a25.2,25.2,0,0,1-.79,6.788,11.006,11.006,0,0,1-2.39,4.564,9.237,9.237,0,0,1-4.01,2.545,20.314,20.314,0,0,1-11.22,0,9.2,9.2,0,0,1-4-2.545,11.018,11.018,0,0,1-2.4-4.564,25.2,25.2,0,0,1-.79-6.788V477.215h-3.92v25.863a30.375,30.375,0,0,0,.97,8.192,13.307,13.307,0,0,0,3.01,5.588,12.021,12.021,0,0,0,5.2,3.218A28.272,28.272,0,0,0,4834.06,520.076Zm20.23,0.439h3.68V483.476h0.29l3.33,4.974,23.33,32.065h3.62v-43.3h-3.68v37.1h-0.29l-3.51-5.15-23.21-31.948h-3.56v43.3Zm73.56-4.74q5.475-5.382,5.47-16.91,0-11.467-5.26-16.823t-16.54-5.354c-0.71,0-1.54.021-2.52,0.059s-1.98.088-3.01,0.146-2.07.127-3.13,0.205-2,.156-2.86.234v42.949a19.754,19.754,0,0,0,4.33.673c1.9,0.136,3.97.205,6.19,0.205Q4922.385,521.159,4927.85,515.775Zm-18.23,1.9c-0.61-.019-1.2-0.048-1.79-0.088s-1.19-.1-1.81-0.175-1.31-.176-2.05-0.293V480.667c1.17-.155,2.5-0.272,3.98-0.351s2.77-.117,3.86-0.117q9.06,0,13.27,4.477t4.21,14.189q0,9.772-4.3,14.307t-13.47,4.534C4910.85,517.706,4910.22,517.7,4909.62,517.677Zm55.73,2.838h3.98V480.667h14.32v-3.452h-32.56v3.452h14.26v39.848Zm25.25,0h3.98v-20.48h25.31v20.48h3.92v-43.3h-3.92v19.427h-25.31V477.215h-3.98v43.3Zm44.66,0h26.95v-3.452h-22.97V500.211h21.1v-3.394h-21.1v-16.15h22.5v-3.452h-26.48v43.3Zm56.94,0h5.38l8.65-30.368,1.75-7.315h0.29l1.76,7.256,8.53,30.427h5.32l12.22-43.3h-4.15l-8.42,30.486-2.16,8.426h-0.35l-2.28-8.426-8.48-30.486h-4.21l-8.71,30.486-2.22,8.426h-0.35l-2.16-8.426-8.24-30.486h-4.15Zm80.23-5.032q4.77-5.617,4.76-16.559,0-11-4.76-16.648t-13.53-5.646q-8.895,0-13.62,5.646t-4.74,16.648q0,11,4.74,16.588t13.62,5.588Q5167.66,521.1,5172.43,515.483Zm-24.23-2.516q-3.63-4.681-3.62-14.043,0-9.422,3.62-14.131t10.7-4.711q7.065,0,10.67,4.711,3.585,4.71,3.59,14.131,0,9.3-3.59,14.014t-10.67,4.71Q5151.82,517.648,5148.2,512.967Zm64.3,7.548h4.44l-10.93-17.32a12.721,12.721,0,0,0,7.31-4.418,13.7,13.7,0,0,0,2.34-8.4q0-7.2-4.53-10.474t-14.47-3.277a63.172,63.172,0,0,0-10.29.878v43.007h3.98V503.78c1.2,0.117,2.37.215,3.5,0.293s2.17,0.117,3.1.117c0.97,0,1.9-.019,2.78-0.059s1.72-.117,2.54-0.234Zm-19.2-19.865a18.677,18.677,0,0,1-2.95-.381V480.55q1.455-.233,3.33-0.38c1.24-.1,2.41-0.146,3.5-0.146q7.665,0,11.05,2.457t3.39,7.9a12.939,12.939,0,0,1-.79,4.8,7.09,7.09,0,0,1-2.48,3.218,11.611,11.611,0,0,1-4.38,1.814,31.413,31.413,0,0,1-6.55.585C5196.02,500.8,5194.64,500.748,5193.3,500.65Zm31.71,19.865h24.02v-3.394h-20.05V477.215h-3.97v43.3Zm58.72-4.74q5.46-5.382,5.46-16.91,0-11.467-5.26-16.823t-16.54-5.354q-1.05,0-2.52.059c-0.97.039-1.97,0.088-3.01,0.146s-2.07.127-3.12,0.205-2.01.156-2.87,0.234v42.949a19.86,19.86,0,0,0,4.33.673q2.865,0.2,6.19.205Q5278.255,521.159,5283.73,515.775Zm-18.24,1.9c-0.61-.019-1.2-0.048-1.78-0.088s-1.19-.1-1.82-0.175-1.3-.176-2.04-0.293V480.667c1.17-.155,2.49-0.272,3.97-0.351s2.77-.117,3.86-0.117q9.06,0,13.27,4.477t4.21,14.189q0,9.772-4.3,14.307t-13.47,4.534C5266.72,517.706,5266.09,517.7,5265.49,517.677Z"/>
  <path id="The_East_Asia_Library_houses_" data-name="The East Asia Library houses " class="cls-2" d="M2234.56,64.345h3.97V24.5h14.32V21.047h-32.56V24.5h14.27V64.345Zm25.25,0h3.97V43.866h25.31V64.345h3.92v-43.3h-3.92V40.473h-25.31V21.047h-3.97v43.3Zm44.65,0h26.95V60.893h-22.97V44.042h21.1V40.648h-21.1V24.5h22.5V21.047h-26.48v43.3Zm50.62,0h26.95V60.893h-22.97V44.042h21.1V40.648h-21.1V24.5h22.5V21.047h-26.48v43.3Zm31.1,0h3.91l5.03-13.516h19.87l5.09,13.516H2424V63.994l-15.9-42.946h-6.02l-15.9,42.946v0.351Zm10.11-17.026,5.96-15.915,2.63-7.314h0.35l2.69,7.314,5.96,15.915h-17.59Zm55.65,14.657q3.855-3.013,3.85-8.63a11.308,11.308,0,0,0-.99-5,10.1,10.1,0,0,0-2.72-3.423,15.362,15.362,0,0,0-4.09-2.34q-2.37-.935-5.11-1.755a35.946,35.946,0,0,1-4.89-1.7,12.067,12.067,0,0,1-3.15-1.96,6.467,6.467,0,0,1-1.73-2.4,8.085,8.085,0,0,1-.52-3.013,7.19,7.19,0,0,1,2.83-5.968,12.051,12.051,0,0,1,7.63-2.223,37.627,37.627,0,0,1,5.06.38,49.384,49.384,0,0,1,5.52,1.082l0.12-3.511a50.846,50.846,0,0,0-10.93-1.4,19.863,19.863,0,0,0-5.91.819,13.109,13.109,0,0,0-4.5,2.37,10.788,10.788,0,0,0-2.89,3.715,11.117,11.117,0,0,0-1.02,4.8,12.249,12.249,0,0,0,.7,4.33,9.006,9.006,0,0,0,2.22,3.335,14.649,14.649,0,0,0,3.92,2.6,38.926,38.926,0,0,0,5.78,2.136c1.48,0.43,2.87.888,4.15,1.375a14.587,14.587,0,0,1,3.36,1.755,7.388,7.388,0,0,1,2.25,2.516,7.467,7.467,0,0,1,.82,3.657,6.914,6.914,0,0,1-2.83,5.939q-2.835,2.078-8.16,2.077a44.545,44.545,0,0,1-6.19-.5,63.171,63.171,0,0,1-6.73-1.316l-0.11,3.452a61.725,61.725,0,0,0,6.78,1.316,46.63,46.63,0,0,0,6.37.5Q2448.075,64.988,2451.94,61.975Zm22.03,2.37h3.98V24.5h14.32V21.047h-32.56V24.5h14.26V64.345Zm31.8,0h3.92l5.02-13.516h19.88l5.08,13.516h3.92V63.994l-15.9-42.946h-6.02l-15.9,42.946v0.351Zm10.11-17.026,5.96-15.915,2.63-7.314h0.35l2.69,7.314,5.97,15.915h-17.6Zm55.65,14.657q3.855-3.013,3.86-8.63a11.3,11.3,0,0,0-1-5,10.1,10.1,0,0,0-2.72-3.423,15.362,15.362,0,0,0-4.09-2.34q-2.37-.935-5.11-1.755a35.285,35.285,0,0,1-4.88-1.7,11.971,11.971,0,0,1-3.16-1.96,6.437,6.437,0,0,1-1.72-2.4,8.082,8.082,0,0,1-.53-3.013,7.19,7.19,0,0,1,2.83-5.968,12.051,12.051,0,0,1,7.63-2.223,37.627,37.627,0,0,1,5.06.38,49.384,49.384,0,0,1,5.52,1.082l0.12-3.511a50.771,50.771,0,0,0-10.93-1.4,19.794,19.794,0,0,0-5.9.819A13.067,13.067,0,0,0,2552,23.3a10.788,10.788,0,0,0-2.89,3.715,11.117,11.117,0,0,0-1.02,4.8,12.249,12.249,0,0,0,.7,4.33,9.006,9.006,0,0,0,2.22,3.335,14.649,14.649,0,0,0,3.92,2.6,38.926,38.926,0,0,0,5.78,2.136c1.48,0.43,2.87.888,4.15,1.375a14.587,14.587,0,0,1,3.36,1.755,7.012,7.012,0,0,1,3.07,6.173,6.914,6.914,0,0,1-2.83,5.939q-2.835,2.078-8.16,2.077a44.662,44.662,0,0,1-6.19-.5,62.5,62.5,0,0,1-6.72-1.316l-0.12,3.452a61.725,61.725,0,0,0,6.78,1.316,46.748,46.748,0,0,0,6.37.5Q2567.665,64.988,2571.53,61.975Zm12.27,2.37h3.98v-43.3h-3.98v43.3Zm10.52,0h3.92l5.03-13.516h19.87l5.09,13.516h3.91V63.994l-15.9-42.946h-6.02l-15.9,42.946v0.351Zm10.12-17.026L2610.4,31.4l2.63-7.314h0.35l2.69,7.314,5.96,15.915h-17.59Zm47.22,17.027h24.03V60.951h-20.05v-39.9h-3.98v43.3Zm30.87,0h3.97v-43.3h-3.97v43.3Zm45.12-11.292a10.791,10.791,0,0,0-2.25-7.109,10.832,10.832,0,0,0-6.63-3.54V42.169a8.407,8.407,0,0,0,5.49-3.364,11.083,11.083,0,0,0,1.99-6.7q0-6.144-3.68-8.864t-11.99-2.721q-2.685,0-5.58.2t-7.04.614V64.052c2.34,0.312,4.62.536,6.87,0.673s4.35,0.2,6.34.2q16.485,0,16.48-11.878h0Zm-21.98,8.513a29.552,29.552,0,0,1-3.86-.439V43.983h10.18q6.015,0,8.85,2.165t2.84,6.67c0,3.042-1.03,5.286-3.07,6.729s-5.22,2.165-9.5,2.165C2709.08,61.712,2707.27,61.663,2705.67,61.565Zm-3.86-20.742V24.265a35.663,35.663,0,0,1,4.01-.38c1.42-.058,3.07-0.088,4.94-0.088a25.773,25.773,0,0,1,5.29.468,9.318,9.318,0,0,1,3.56,1.463,5.776,5.776,0,0,1,2.02,2.633,10.7,10.7,0,0,1,.64,3.92q0,4.623-2.42,6.582t-8.1,1.96h-9.94Zm60.97,23.521h4.44l-10.93-17.319a12.723,12.723,0,0,0,7.31-4.417,13.7,13.7,0,0,0,2.34-8.4q0-7.2-4.53-10.473t-14.47-3.277a63.27,63.27,0,0,0-10.29.878v43h3.98V47.611c1.2,0.117,2.37.215,3.5,0.292s2.17,0.117,3.1.117c0.98,0,1.9-.019,2.78-0.059s1.72-.117,2.54-0.234Zm-19.2-19.864a18.768,18.768,0,0,1-2.95-.38V24.382q1.455-.233,3.33-0.38,1.86-.145,3.51-0.146,7.65,0,11.04,2.457t3.39,7.9a12.935,12.935,0,0,1-.79,4.8,7.088,7.088,0,0,1-2.48,3.218,11.6,11.6,0,0,1-4.38,1.814,31.385,31.385,0,0,1-6.55.585C2746.3,44.627,2744.92,44.578,2743.58,44.48Zm26.8,19.864h3.91l5.03-13.516h19.87l5.09,13.516h3.92V63.994l-15.9-42.946h-6.02l-15.9,42.946v0.351Zm10.11-17.026,5.96-15.915,2.63-7.314h0.35l2.69,7.314,5.96,15.915h-17.59Zm60.38,17.027h4.44l-10.93-17.319a12.723,12.723,0,0,0,7.31-4.417,13.7,13.7,0,0,0,2.34-8.4q0-7.2-4.53-10.473t-14.47-3.277a63.27,63.27,0,0,0-10.29.878v43h3.98V47.611c1.2,0.117,2.37.215,3.5,0.292s2.17,0.117,3.1.117c0.98,0,1.9-.019,2.78-0.059s1.72-.117,2.54-0.234Zm-19.2-19.864a18.768,18.768,0,0,1-2.95-.38V24.382q1.455-.233,3.33-0.38c1.25-.1,2.41-0.146,3.51-0.146q7.65,0,11.04,2.457t3.39,7.9a12.935,12.935,0,0,1-.79,4.8,7.088,7.088,0,0,1-2.48,3.218,11.6,11.6,0,0,1-4.38,1.814,31.385,31.385,0,0,1-6.55.585C2824.39,44.627,2823.01,44.578,2821.67,44.48Zm41.3,19.864h3.97V49.6l15.55-28.553h-4.27l-11.4,21.064-1.69,3.686h-0.41l-1.75-3.686-11.34-21.064h-4.33l15.67,28.67V64.345Zm38.63,0h3.98V43.866h25.31V64.345h3.91v-43.3h-3.91V40.473h-25.31V21.047h-3.98v43.3Zm74.26-5.032q4.77-5.617,4.77-16.558,0-11-4.77-16.646t-13.53-5.646q-8.88,0-13.62,5.646t-4.73,16.646q0,11,4.73,16.588t13.62,5.588Q2971.1,64.93,2975.86,59.313ZM2951.64,56.8q-3.63-4.68-3.63-14.042,0-9.42,3.63-14.13t10.69-4.71q7.08,0,10.67,4.71t3.59,14.13q0,9.3-3.59,14.013t-10.67,4.71Q2955.265,61.478,2951.64,56.8Zm62.01,7.109a12.188,12.188,0,0,0,5.23-3.218,13.13,13.13,0,0,0,3.04-5.588,29.975,29.975,0,0,0,.97-8.191V21.047h-3.98V46.733a25.2,25.2,0,0,1-.79,6.787,11,11,0,0,1-2.39,4.564,9.241,9.241,0,0,1-4.01,2.545,20.317,20.317,0,0,1-11.22,0,9.207,9.207,0,0,1-4-2.545,11.016,11.016,0,0,1-2.4-4.564,25.2,25.2,0,0,1-.79-6.787V21.047h-3.92V46.909a30.37,30.37,0,0,0,.97,8.191,13.418,13.418,0,0,0,3.01,5.588,12.024,12.024,0,0,0,5.2,3.218A28.272,28.272,0,0,0,3013.65,63.906Zm41.62-1.931q3.855-3.013,3.86-8.63a11.166,11.166,0,0,0-1-5,10.194,10.194,0,0,0-2.71-3.423,15.426,15.426,0,0,0-4.1-2.34c-1.57-.623-3.28-1.209-5.11-1.755a35.285,35.285,0,0,1-4.88-1.7,11.971,11.971,0,0,1-3.16-1.96,6.437,6.437,0,0,1-1.72-2.4,8.082,8.082,0,0,1-.53-3.013,7.2,7.2,0,0,1,2.84-5.968,12.021,12.021,0,0,1,7.62-2.223,37.627,37.627,0,0,1,5.06.38,49.384,49.384,0,0,1,5.52,1.082l0.12-3.511a50.771,50.771,0,0,0-10.93-1.4,19.794,19.794,0,0,0-5.9.819,12.929,12.929,0,0,0-4.5,2.37,10.7,10.7,0,0,0-2.9,3.715,11.117,11.117,0,0,0-1.02,4.8,12.249,12.249,0,0,0,.7,4.33,9.006,9.006,0,0,0,2.22,3.335,14.811,14.811,0,0,0,3.92,2.6,39.513,39.513,0,0,0,5.79,2.136c1.48,0.43,2.86.888,4.15,1.375a15.01,15.01,0,0,1,3.36,1.755,7.073,7.073,0,0,1,3.07,6.173,6.922,6.922,0,0,1-2.84,5.939q-2.835,2.078-8.15,2.077a44.677,44.677,0,0,1-6.2-.5,62.5,62.5,0,0,1-6.72-1.316l-0.12,3.452a62.187,62.187,0,0,0,6.78,1.316,46.748,46.748,0,0,0,6.37.5Q3051.42,64.988,3055.27,61.975Zm12.27,2.37h26.95V60.893h-22.97V44.042h21.1V40.648h-21.1V24.5h22.5V21.047h-26.48v43.3Zm57.4-2.37q3.87-3.013,3.86-8.63a11.308,11.308,0,0,0-.99-5,10.222,10.222,0,0,0-2.72-3.423,15.362,15.362,0,0,0-4.09-2.34q-2.37-.935-5.12-1.755a35.761,35.761,0,0,1-4.88-1.7,11.9,11.9,0,0,1-3.15-1.96,6.467,6.467,0,0,1-1.73-2.4,8.085,8.085,0,0,1-.52-3.013,7.19,7.19,0,0,1,2.83-5.968,12.031,12.031,0,0,1,7.63-2.223,37.488,37.488,0,0,1,5.05.38,49.114,49.114,0,0,1,5.53,1.082l0.12-3.511a50.846,50.846,0,0,0-10.93-1.4,19.816,19.816,0,0,0-5.91.819,13.109,13.109,0,0,0-4.5,2.37,10.669,10.669,0,0,0-2.89,3.715,10.978,10.978,0,0,0-1.03,4.8,12.242,12.242,0,0,0,.71,4.33,8.769,8.769,0,0,0,2.22,3.335,14.585,14.585,0,0,0,3.91,2.6,39.513,39.513,0,0,0,5.79,2.136c1.48,0.43,2.86.888,4.15,1.375a14.587,14.587,0,0,1,3.36,1.755,7.388,7.388,0,0,1,2.25,2.516,7.467,7.467,0,0,1,.82,3.657,6.922,6.922,0,0,1-2.84,5.939c-1.89,1.385-4.6,2.077-8.15,2.077a44.794,44.794,0,0,1-6.2-.5,63.473,63.473,0,0,1-6.72-1.316l-0.11,3.452a61.725,61.725,0,0,0,6.78,1.316,46.63,46.63,0,0,0,6.37.5Q3121.085,64.988,3124.94,61.975Z"/>
  <path id="volumes_" data-name="volumes " class="cls-2" d="M3203.05,436.182h5.38l16.19-43.3h-4.15l-11.57,31.069-2.99,8.25h-0.35l-2.92-8.25-11.57-31.069h-4.15Zm56.84-5.032q4.77-5.618,4.77-16.558,0-11-4.77-16.646t-13.53-5.647q-8.88,0-13.62,5.647-4.725,5.646-4.73,16.646t4.73,16.587q4.74,5.589,13.62,5.588Q3255.135,436.767,3259.89,431.15Zm-24.22-2.516q-3.63-4.68-3.63-14.042,0-9.42,3.63-14.131,3.615-4.709,10.69-4.71t10.67,4.71q3.6,4.711,3.6,14.131,0,9.3-3.6,14.013t-10.67,4.71Q3239.3,433.315,3235.67,428.634Zm38.16,7.548h24.03v-3.394h-20.05v-39.9h-3.98v43.3Zm52.67-.439a12.245,12.245,0,0,0,5.23-3.218,13.239,13.239,0,0,0,3.04-5.588,30.367,30.367,0,0,0,.97-8.191V392.884h-3.98V418.57a25.2,25.2,0,0,1-.79,6.787,10.9,10.9,0,0,1-2.4,4.564,9.2,9.2,0,0,1-4,2.545,20.314,20.314,0,0,1-11.22,0,9.3,9.3,0,0,1-4.01-2.545,11,11,0,0,1-2.39-4.564,25.2,25.2,0,0,1-.79-6.787V392.884h-3.92v25.862a29.972,29.972,0,0,0,.97,8.191,13.307,13.307,0,0,0,3.01,5.588,11.963,11.963,0,0,0,5.2,3.218A28.272,28.272,0,0,0,3326.5,435.743Zm20.22,0.439h3.69V398.326h0.29l5.08,12.287,10.29,23.872h3.8l10.29-23.872,5.03-12.287h0.35v37.856h3.68v-43.3h-5.44l-11.86,27.851-3.8,9.42h-0.35l-3.74-9.42-11.87-27.851h-5.44v43.3Zm53.95,0h26.95V432.73h-22.97V415.879h21.1v-3.394h-21.1V396.337h22.5v-3.453h-26.48v43.3Zm57.4-2.37q3.87-3.012,3.86-8.63a11.312,11.312,0,0,0-.99-5,10.238,10.238,0,0,0-2.72-3.423,15.381,15.381,0,0,0-4.09-2.34q-2.37-.935-5.12-1.755a35.8,35.8,0,0,1-4.88-1.7,11.9,11.9,0,0,1-3.15-1.96,6.462,6.462,0,0,1-1.73-2.4,8.085,8.085,0,0,1-.52-3.013,7.19,7.19,0,0,1,2.83-5.968,12.032,12.032,0,0,1,7.63-2.224,37.622,37.622,0,0,1,5.06.381,49.359,49.359,0,0,1,5.52,1.082l0.12-3.511a50.851,50.851,0,0,0-10.93-1.4,19.889,19.889,0,0,0-5.91.819,13.116,13.116,0,0,0-4.5,2.37,10.674,10.674,0,0,0-2.89,3.715,11.125,11.125,0,0,0-1.03,4.8,12.241,12.241,0,0,0,.71,4.33,8.764,8.764,0,0,0,2.22,3.335,14.583,14.583,0,0,0,3.91,2.6,39.494,39.494,0,0,0,5.79,2.135c1.48,0.43,2.86.888,4.15,1.375a14.619,14.619,0,0,1,3.36,1.756,7.385,7.385,0,0,1,2.25,2.516,7.463,7.463,0,0,1,.82,3.656A6.921,6.921,0,0,1,3455,431.3c-1.89,1.385-4.6,2.077-8.15,2.077a44.773,44.773,0,0,1-6.2-.5,63.676,63.676,0,0,1-6.72-1.316l-0.11,3.452a61.939,61.939,0,0,0,6.78,1.316,46.624,46.624,0,0,0,6.37.5Q3454.215,436.825,3458.07,433.812Z"/>
  <rect class="cls-4" x="-133" y="698" width="1998" height="36"/>
  <rect id="Rectangle_10_copy" data-name="Rectangle 10 copy" class="cls-5" x="1865" y="698" width="1998" height="36"/>
  <rect id="Rectangle_10_copy_2" data-name="Rectangle 10 copy 2" class="cls-6" x="3863" y="698" width="1998" height="36"/>
</svg>
