<?xml version="1.0" encoding="utf-8"?>
<!-- Generator: Adobe Illustrator 16.0.0, SVG Export Plug-In . SVG Version: 6.00 Build 0)  -->
<!DOCTYPE svg PUBLIC "-//W3C//DTD SVG 1.1//EN" "http://www.w3.org/Graphics/SVG/1.1/DTD/svg11.dtd">
<svg version="1.1" id="Layer_1" xmlns="http://www.w3.org/2000/svg" xmlns:xlink="http://www.w3.org/1999/xlink" x="0px" y="0px"
	 width="70px" height="70px" viewBox="0 0 70 70" enable-background="new 0 0 70 70" xml:space="preserve">
<g>
	<g>
		
			<ellipse fill="none" stroke="#4C2E82" stroke-width="2.5052" stroke-linecap="round" stroke-miterlimit="10" cx="19.702" cy="12.957" rx="7.146" ry="7.209"/>
		<g>
			<path fill="none" stroke="#4C2E82" stroke-width="2.5052" stroke-linecap="round" stroke-miterlimit="10" d="M19.701,32.821
				H6.224c0-9.4,7.486-14.805,7.486-14.805"/>
			<path fill="none" stroke="#4C2E82" stroke-width="2.5052" stroke-linecap="round" stroke-miterlimit="10" d="M19.701,32.821
				H33.18c0-9.4-7.486-14.805-7.486-14.805"/>
		</g>
	</g>
	<g>
		
			<ellipse fill="none" stroke="#4C2E82" stroke-width="2.5052" stroke-linecap="round" stroke-miterlimit="10" cx="50.745" cy="44.381" rx="7.146" ry="7.206"/>
		<g>
			<path fill="none" stroke="#4C2E82" stroke-width="2.5052" stroke-linecap="round" stroke-miterlimit="10" d="M50.744,64.244
				H37.266c0-9.401,7.486-14.805,7.486-14.805"/>
			<path fill="none" stroke="#4C2E82" stroke-width="2.5052" stroke-linecap="round" stroke-miterlimit="10" d="M50.744,64.244
				h13.48c0-9.401-7.486-14.805-7.486-14.805"/>
		</g>
	</g>
	<g>
		<path fill="none" stroke="#4C2E82" stroke-width="2.5052" stroke-linecap="round" stroke-miterlimit="10" d="M35.225,11.49
			c11.105,0,20.109,9.083,20.109,20.287"/>
		<polyline fill="none" stroke="#4C2E82" stroke-width="2.5052" stroke-linecap="round" stroke-miterlimit="10" points="
			59.668,27.192 55.334,32.472 50.227,28.512 		"/>
	</g>
	<g>
		<path fill="none" stroke="#4C2E82" stroke-width="2.5052" stroke-linecap="round" stroke-miterlimit="10" d="M33.18,59.733
			c-11.109,0-20.113-9.082-20.113-20.284"/>
		<polyline fill="none" stroke="#4C2E82" stroke-width="2.5052" stroke-linecap="round" stroke-miterlimit="10" points="
			8.617,43.998 12.951,38.718 18.059,42.678 		"/>
	</g>
</g>
</svg>
