<?xml version="1.0" encoding="utf-8"?>
<!-- Generator: Adobe Illustrator 16.0.0, SVG Export Plug-In . SVG Version: 6.00 Build 0)  -->
<!DOCTYPE svg PUBLIC "-//W3C//DTD SVG 1.1//EN" "http://www.w3.org/Graphics/SVG/1.1/DTD/svg11.dtd">
<svg version="1.1" id="Layer_1" xmlns="http://www.w3.org/2000/svg" xmlns:xlink="http://www.w3.org/1999/xlink" x="0px" y="0px"
	 width="70px" height="70px" viewBox="0 0 70 70" enable-background="new 0 0 70 70" xml:space="preserve">
<g>
	<g>
		
			<polyline fill="none" stroke="#4C2E82" stroke-width="2.5052" stroke-linecap="round" stroke-linejoin="round" stroke-miterlimit="10" points="
			26.992,26.557 35.449,19.345 40.8,21.273 		"/>
		
			<polyline fill="none" stroke="#4C2E82" stroke-width="2.5052" stroke-linecap="round" stroke-linejoin="round" stroke-miterlimit="10" points="
			51.452,25.111 64.37,29.766 39.374,54.907 9.27,41.672 15.526,36.336 		"/>
		
			<path fill="none" stroke="#4C2E82" stroke-width="2.5052" stroke-linecap="round" stroke-linejoin="round" stroke-miterlimit="10" d="
			M9.27,41.672c-2.231,0.72-5.825,7.331,1.35,10.378c8.58,3.641,29.001,12.407,29.001,12.407L62.194,41.65"/>
		
			<path fill="none" stroke="#4C2E82" stroke-width="2.5052" stroke-linecap="round" stroke-linejoin="round" stroke-miterlimit="10" d="
			M60.753,33.535c0,0-2.803,5.242,0.142,9.427"/>
		
			<path fill="none" stroke="#4C2E82" stroke-width="2.5052" stroke-linecap="round" stroke-linejoin="round" stroke-miterlimit="10" d="
			M39.233,55.629c0,0-2.804,4.575,0.14,8.231"/>
	</g>
	<g>
		<g>
			
				<ellipse fill="none" stroke="#4C2E82" stroke-width="2.5052" stroke-linecap="round" stroke-miterlimit="10" cx="18.607" cy="28.928" rx="8.849" ry="7.439"/>
			
				<ellipse fill="none" stroke="#4C2E82" stroke-width="2.5052" stroke-linecap="round" stroke-miterlimit="10" cx="43.433" cy="28.928" rx="8.849" ry="7.439"/>
		</g>
		<path fill="none" stroke="#4C2E82" stroke-width="2.5052" stroke-linecap="round" stroke-miterlimit="10" d="M26.777,25.214
			c0,0,4.301-3.399,8.989,0"/>
		<path fill="none" stroke="#4C2E82" stroke-width="2.5052" stroke-linecap="round" stroke-miterlimit="10" d="M11,24.778
			l8.194-17.5c0,0,2.371-2.957,6.026,0"/>
		<path fill="none" stroke="#4C2E82" stroke-width="2.5052" stroke-linecap="round" stroke-miterlimit="10" d="M50.885,24.778
			l-8.192-17.5c0,0-2.372-2.957-6.028,0"/>
	</g>
</g>
</svg>
