<?xml version="1.0" encoding="utf-8"?>
<!-- Generator: Adobe Illustrator 16.0.0, SVG Export Plug-In . SVG Version: 6.00 Build 0)  -->
<!DOCTYPE svg PUBLIC "-//W3C//DTD SVG 1.1//EN" "http://www.w3.org/Graphics/SVG/1.1/DTD/svg11.dtd">
<svg version="1.1" id="Layer_1" xmlns="http://www.w3.org/2000/svg" xmlns:xlink="http://www.w3.org/1999/xlink" x="0px" y="0px"
	 width="70px" height="70px" viewBox="0 0 70 70" enable-background="new 0 0 70 70" xml:space="preserve">
<g>
	
		<path fill="none" stroke="#4C2E82" stroke-width="2.5054" stroke-linecap="round" stroke-linejoin="round" stroke-miterlimit="10" d="
		M52.038,31.41c0-9.05-7.478-16.387-16.697-16.387c-9.219,0-16.693,7.336-16.693,16.387c0,6.297,3.62,11.762,8.929,14.506
		l3.538,9.708h4.227h4.228l3.538-9.708C48.415,43.172,52.038,37.707,52.038,31.41z"/>
	
		<line fill="none" stroke="#4C2E82" stroke-width="2.5054" stroke-linecap="round" stroke-linejoin="round" stroke-miterlimit="10" x1="31.394" y1="60.095" x2="38.929" y2="60.095"/>
	
		<line fill="none" stroke="#4C2E82" stroke-width="2.5054" stroke-linecap="round" stroke-linejoin="round" stroke-miterlimit="10" x1="31.394" y1="63.736" x2="38.929" y2="63.736"/>
	
		<line fill="none" stroke="#4C2E82" stroke-width="2.5054" stroke-linecap="round" stroke-linejoin="round" stroke-miterlimit="10" x1="35.34" y1="4.611" x2="35.34" y2="11.007"/>
	
		<line fill="none" stroke="#4C2E82" stroke-width="2.5054" stroke-linecap="round" stroke-linejoin="round" stroke-miterlimit="10" x1="15.367" y1="12.652" x2="19.738" y2="17.391"/>
	
		<line fill="none" stroke="#4C2E82" stroke-width="2.5054" stroke-linecap="round" stroke-linejoin="round" stroke-miterlimit="10" x1="55.317" y1="12.652" x2="50.944" y2="17.391"/>
	
		<line fill="none" stroke="#4C2E82" stroke-width="2.5054" stroke-linecap="round" stroke-linejoin="round" stroke-miterlimit="10" x1="6.026" y1="31.4" x2="12.541" y2="31.4"/>
	
		<line fill="none" stroke="#4C2E82" stroke-width="2.5054" stroke-linecap="round" stroke-linejoin="round" stroke-miterlimit="10" x1="57.511" y1="31.4" x2="64.026" y2="31.4"/>
	
		<line fill="none" stroke="#4C2E82" stroke-width="2.5054" stroke-linecap="round" stroke-linejoin="round" stroke-miterlimit="10" x1="34.369" y1="52.654" x2="31.202" y2="30.017"/>
	
		<line fill="none" stroke="#4C2E82" stroke-width="2.5054" stroke-linecap="round" stroke-linejoin="round" stroke-miterlimit="10" x1="36.313" y1="52.654" x2="39.483" y2="30.017"/>
</g>
</svg>
