<?xml version="1.0" encoding="utf-8"?>
<!-- Generator: Adobe Illustrator 16.0.0, SVG Export Plug-In . SVG Version: 6.00 Build 0)  -->
<!DOCTYPE svg PUBLIC "-//W3C//DTD SVG 1.1//EN" "http://www.w3.org/Graphics/SVG/1.1/DTD/svg11.dtd">
<svg version="1.1" id="Layer_1" xmlns="http://www.w3.org/2000/svg" xmlns:xlink="http://www.w3.org/1999/xlink" x="0px" y="0px"
	 width="70px" height="70px" viewBox="0 0 70 70" enable-background="new 0 0 70 70" xml:space="preserve">
<g>
	<path fill="#4C2E82" d="M63.314,53.078L52.12,38.04l-0.181-0.251l0.117-0.253l0.109-0.179c0.147-0.162,0.488-0.477,0.776-0.742
		c0.945-0.863,2.016-1.841,2.503-3.096c0.492-1.272,0.357-2.663,0.228-4.008c-0.032-0.328-0.075-0.791-0.078-1.01l-0.001-0.068
		l0.018-0.066c0.058-0.219,0.221-0.678,0.335-0.997c0.448-1.258,0.911-2.559,0.747-3.898c-0.169-1.354-0.998-2.595-1.729-3.691
		c-0.183-0.273-0.42-0.631-0.522-0.82l-0.045-0.119c-0.052-0.213-0.119-0.653-0.176-1.028c-0.19-1.261-0.405-2.689-1.188-3.8
		c-0.771-1.097-2.005-1.772-3.198-2.424c-0.301-0.165-0.729-0.4-0.919-0.526l-0.096-0.084c-0.152-0.171-0.446-0.564-0.65-0.838
		c-0.8-1.076-1.626-2.188-2.833-2.808c-1.19-0.611-2.598-0.647-3.957-0.682c-0.355-0.009-0.853-0.023-1.075-0.05L40.19,6.574
		c-0.204-0.075-0.633-0.28-1.002-0.456c-1.15-0.555-2.455-1.185-3.801-1.185c-1.319,0-2.517,0.586-3.676,1.154
		c-0.311,0.153-0.768,0.374-0.989,0.458l-0.124,0.029c-0.226,0.023-0.716,0.039-1.063,0.048c-1.348,0.041-2.876,0.086-4.096,0.713
		c-1.234,0.637-2.15,1.856-2.958,2.931l-0.066,0.088c-0.188,0.248-0.423,0.56-0.557,0.714l-0.101,0.088
		c-0.179,0.12-0.559,0.326-0.938,0.532c-1.083,0.584-2.311,1.245-3.074,2.326c-0.783,1.109-0.988,2.474-1.187,3.794
		c-0.049,0.329-0.124,0.813-0.176,1.032l-0.047,0.121c-0.105,0.193-0.366,0.588-0.57,0.895c-0.708,1.064-1.511,2.269-1.678,3.61
		c-0.167,1.347,0.309,2.68,0.769,3.968c0.11,0.309,0.257,0.724,0.312,0.936l0.017,0.064l-0.001,0.066
		c-0.003,0.229-0.048,0.706-0.081,1.033c-0.129,1.333-0.263,2.712,0.226,3.979c0.486,1.259,1.568,2.247,2.522,3.117l0.535,0.494
		L6.104,48.072c-0.383,0.342-0.518,0.876-0.342,1.358c0.172,0.477,0.628,0.808,1.135,0.824l11.127,0.354l2.371,10.772
		c0.113,0.514,0.537,0.903,1.049,0.97c0.551,0.073,1.04-0.197,1.283-0.664l7.82-15.125l0.34,0.035
		c1.057,0.11,2.302-0.137,3.353-0.363c0.348-0.075,0.862-0.185,1.092-0.211l0.056-0.006l0.059,0.007
		c0.229,0.025,0.741,0.135,1.101,0.213c0.854,0.183,1.822,0.39,2.756,0.39c0.002,0,0.277-0.011,0.524-0.02l5.213,17.704
		c0.149,0.509,0.6,0.869,1.137,0.896l0.063,0.001c0.503,0,0.968-0.313,1.156-0.778l4.52-11.124l10.173,1.748
		c0.504,0.095,1.023-0.146,1.286-0.576C63.644,54.04,63.62,53.49,63.314,53.078z M19.542,39.444l0.297,0.569
		c0.42,0.804,0.846,1.378,1.34,1.808c1.014,0.88,2.444,1.264,3.705,1.602c0.339,0.092,0.808,0.219,1.01,0.294l0.107,0.055
		c0.186,0.126,0.579,0.447,0.859,0.678c0.335,0.275,0.688,0.563,1.057,0.837l0.343,0.254l-6.167,11.929l-1.836-8.346
		c-0.123-0.56-0.608-0.962-1.18-0.98l-8.971-0.285L19.542,39.444z M22.817,39.934c-0.579-0.504-0.996-1.502-1.4-2.47
		c-0.24-0.576-0.489-1.172-0.72-1.5c-0.229-0.326-0.709-0.764-1.173-1.188c-0.782-0.714-1.59-1.453-1.864-2.165
		c-0.277-0.714-0.171-1.793-0.07-2.837c0.063-0.647,0.123-1.259,0.075-1.647c-0.049-0.391-0.256-0.972-0.477-1.587
		c-0.353-0.987-0.717-2.008-0.624-2.766c0.094-0.754,0.696-1.658,1.279-2.535c0.365-0.547,0.709-1.065,0.851-1.433
		c0.142-0.365,0.234-0.97,0.333-1.625c0.155-1.033,0.316-2.101,0.757-2.727c0.422-0.599,1.337-1.092,2.222-1.569
		c0.718-0.387,1.247-0.681,1.524-0.951c0.266-0.261,0.598-0.703,0.948-1.17c0.677-0.902,1.376-1.834,2.101-2.207
		c0.721-0.371,1.898-0.405,3.039-0.438c0.594-0.017,1.155-0.034,1.528-0.101c0.384-0.07,0.932-0.329,1.664-0.688
		c0.903-0.442,1.836-0.899,2.577-0.899c0.773,0,1.761,0.477,2.731,0.945c0.592,0.285,1.15,0.554,1.539,0.647
		c0.396,0.096,1.054,0.112,1.694,0.128c1.062,0.027,2.159,0.056,2.841,0.406c0.688,0.353,1.34,1.229,1.991,2.105
		c0.382,0.513,0.743,0.997,1.035,1.252c0.3,0.26,0.846,0.558,1.433,0.879c0.933,0.51,1.897,1.038,2.338,1.662
		c0.441,0.626,0.603,1.697,0.76,2.739c0.091,0.612,0.186,1.245,0.328,1.614c0.144,0.372,0.504,0.91,0.853,1.433
		c0.584,0.875,1.188,1.781,1.281,2.537c0.093,0.755-0.271,1.775-0.624,2.762c-0.22,0.616-0.428,1.197-0.477,1.59
		c-0.045,0.366,0.002,0.915,0.073,1.652c0.102,1.04,0.207,2.116-0.069,2.831c-0.276,0.71-1.08,1.446-1.882,2.179
		c-0.478,0.438-0.93,0.852-1.155,1.172c-0.229,0.325-0.467,0.896-0.721,1.5c-0.403,0.967-0.82,1.966-1.401,2.471
		c-0.576,0.501-1.637,0.785-2.679,1.065c-0.639,0.172-1.242,0.334-1.597,0.518c-0.357,0.184-0.84,0.58-1.352,1.001
		c-0.813,0.671-1.655,1.365-2.405,1.546c-0.691,0.167-1.805-0.046-2.87-0.274c-0.649-0.14-1.263-0.271-1.666-0.271
		c-0.403,0-1.015,0.131-1.673,0.271c-1.046,0.225-2.144,0.444-2.864,0.273c-0.747-0.18-1.588-0.873-2.402-1.543
		c-0.512-0.422-0.996-0.82-1.355-1.004c-0.359-0.187-0.996-0.357-1.613-0.521C24.457,40.72,23.396,40.435,22.817,39.934z
		 M42.486,45.554c0.503-0.344,0.983-0.735,1.432-1.105c0.271-0.223,0.671-0.55,0.859-0.676l0.104-0.055
		c0.211-0.077,0.699-0.211,1.072-0.311c1.296-0.349,2.637-0.71,3.646-1.588c0.255-0.221,0.497-0.495,0.763-0.863l0.398-0.554
		l8.683,11.662l-8.083-1.389c-0.595-0.112-1.163,0.229-1.378,0.759l-3.554,8.741l-4.244-14.417L42.486,45.554z"/>
	<path fill="#4C2E82" d="M35.394,37.728c3.246,0,6.302-1.245,8.603-3.506c2.299-2.259,3.565-5.256,3.565-8.441
		c0-6.588-5.461-11.947-12.173-11.947c-6.71,0-12.17,5.359-12.17,11.947s5.459,11.947,12.17,11.947H35.394z M35.389,16.334
		c5.334,0,9.673,4.238,9.673,9.447c0,5.21-4.339,9.448-9.673,9.448c-5.332,0-9.67-4.238-9.67-9.448
		C25.719,20.572,30.057,16.334,35.389,16.334z"/>
</g>
</svg>
