<?xml version="1.0" encoding="utf-8"?>
<!-- Generator: Adobe Illustrator 16.0.0, SVG Export Plug-In . SVG Version: 6.00 Build 0)  -->
<!DOCTYPE svg PUBLIC "-//W3C//DTD SVG 1.1//EN" "http://www.w3.org/Graphics/SVG/1.1/DTD/svg11.dtd">
<svg version="1.1" id="Layer_1" xmlns="http://www.w3.org/2000/svg" xmlns:xlink="http://www.w3.org/1999/xlink" x="0px" y="0px"
	 width="70px" height="70px" viewBox="0 0 70 70" enable-background="new 0 0 70 70" xml:space="preserve">
<g>
	<g>
		
			<path fill="none" stroke="#4C2E82" stroke-width="2.5052" stroke-linecap="round" stroke-linejoin="round" stroke-miterlimit="10" d="
			M5.657,9.952c0,0,15.094-10.039,27.996,0V47.42c0,0-14.12-6.611-27.996,0V9.952z"/>
		
			<path fill="none" stroke="#4C2E82" stroke-width="2.5052" stroke-linecap="round" stroke-linejoin="round" stroke-miterlimit="10" d="
			M61.65,40V9.952c0,0-15.093-10.039-27.997,0V47.42c0,0,1.986-0.931,5.2-1.744"/>
	</g>
	
		<path fill="none" stroke="#4C2E82" stroke-width="2.5052" stroke-linecap="round" stroke-linejoin="round" stroke-miterlimit="10" d="
		M59.343,63.984v-6.511l4.314-14.161c0,0-0.112-3.312-2.157-3.312c-2.042,0-3.519,1.713-3.519,1.713s0.113-2.855-1.703-2.855
		c-1.817,0-3.294,2.055-3.294,2.055s-1.021-2.283-2.497-2.624c-1.476-0.342-1.702-12.45-1.702-12.45s-0.794-2.167-2.157-2.167
		c-1.363,0-3.293,1.14-3.293,3.083c0,1.941-0.566,14.044-0.566,14.044l-4.654,1.941l6.017,15.419l0.112,5.825H59.343z"/>
	
		<path fill="none" stroke="#4C2E82" stroke-width="2.5052" stroke-linecap="round" stroke-linejoin="round" stroke-miterlimit="10" d="
		M11.867,14.563c0,0,8.829-3.066,15.409,0"/>
	
		<path fill="none" stroke="#4C2E82" stroke-width="2.5052" stroke-linecap="round" stroke-linejoin="round" stroke-miterlimit="10" d="
		M39.153,14.563c0,0,8.827-3.066,15.407,0"/>
	
		<path fill="none" stroke="#4C2E82" stroke-width="2.5052" stroke-linecap="round" stroke-linejoin="round" stroke-miterlimit="10" d="
		M11.867,22.357c0,0,8.829-3.068,15.409,0"/>
	
		<path fill="none" stroke="#4C2E82" stroke-width="2.5052" stroke-linecap="round" stroke-linejoin="round" stroke-miterlimit="10" d="
		M11.867,30.148c0,0,8.829-3.069,15.409,0"/>
	
		<path fill="none" stroke="#4C2E82" stroke-width="2.5052" stroke-linecap="round" stroke-linejoin="round" stroke-miterlimit="10" d="
		M11.867,37.939c0,0,8.829-3.066,15.409,0"/>
</g>
</svg>
