<?xml version="1.0" encoding="utf-8"?>
<!-- Generator: Adobe Illustrator 16.0.0, SVG Export Plug-In . SVG Version: 6.00 Build 0)  -->
<!DOCTYPE svg PUBLIC "-//W3C//DTD SVG 1.1//EN" "http://www.w3.org/Graphics/SVG/1.1/DTD/svg11.dtd">
<svg version="1.1" id="Layer_1" xmlns="http://www.w3.org/2000/svg" xmlns:xlink="http://www.w3.org/1999/xlink" x="0px" y="0px"
	 width="4178.588px" height="106px" viewBox="0 0 4178.588 106" enable-background="new 0 0 4178.588 106" xml:space="preserve">
<polygon fill="#F3F0E6" points="4182.964,106 4.49,106 4.49,0 4183.516,0 "/>
<g>
	
		<linearGradient id="SVGID_1_" gradientUnits="userSpaceOnUse" x1="267.9194" y1="54.001" x2="-49.9314" y2="54.0009" gradientTransform="matrix(1 0 0.0835 -1 -0.0842 107)">
		<stop  offset="0" style="stop-color:#F3F0E6"/>
		<stop  offset="1" style="stop-color:#4B2E83"/>
	</linearGradient>
	<polygon fill="url(#SVGID_1_)" points="1.229,106 9.334,106 38.478,0 30.374,0 	"/>
	
		<linearGradient id="SVGID_2_" gradientUnits="userSpaceOnUse" x1="225.1934" y1="54.001" x2="-92.6635" y2="54.0009" gradientTransform="matrix(1 0 0.0835 -1 -0.0842 107)">
		<stop  offset="0" style="stop-color:#F3F0E6"/>
		<stop  offset="1" style="stop-color:#4B2E83"/>
	</linearGradient>
	<polygon fill="url(#SVGID_2_)" points="13.699,106 21.803,106 50.946,0 42.842,0 	"/>
	
		<linearGradient id="SVGID_3_" gradientUnits="userSpaceOnUse" x1="182.4604" y1="54.001" x2="-135.3909" y2="54.0009" gradientTransform="matrix(1 0 0.0835 -1 -0.0842 107)">
		<stop  offset="0" style="stop-color:#F3F0E6"/>
		<stop  offset="1" style="stop-color:#4B2E83"/>
	</linearGradient>
	<polygon fill="url(#SVGID_3_)" points="26.168,106 34.271,106 63.415,0 55.311,0 	"/>
	
		<linearGradient id="SVGID_4_" gradientUnits="userSpaceOnUse" x1="139.7275" y1="54.001" x2="-178.1107" y2="54.0009" gradientTransform="matrix(1 0 0.0835 -1 -0.0842 107)">
		<stop  offset="0" style="stop-color:#F3F0E6"/>
		<stop  offset="1" style="stop-color:#4B2E83"/>
	</linearGradient>
	<polygon fill="url(#SVGID_4_)" points="38.637,106 46.741,106 75.885,0 67.781,0 	"/>
	
		<linearGradient id="SVGID_5_" gradientUnits="userSpaceOnUse" x1="97" y1="54.001" x2="-220.8458" y2="54.0009" gradientTransform="matrix(1 0 0.0835 -1 -0.0842 107)">
		<stop  offset="0" style="stop-color:#F3F0E6"/>
		<stop  offset="1" style="stop-color:#4B2E83"/>
	</linearGradient>
	<polygon fill="url(#SVGID_5_)" points="51.106,106 59.211,106 88.353,0 80.25,0 	"/>
</g>
<g>
	<polygon fill="#4B2E83" points="0,106 0,95.25 25.906,0 0.018,0 	"/>
</g>
</svg>
