<?xml version="1.0" encoding="utf-8"?>
<!-- Generator: Adobe Illustrator 16.0.0, SVG Export Plug-In . SVG Version: 6.00 Build 0)  -->
<!DOCTYPE svg PUBLIC "-//W3C//DTD SVG 1.1//EN" "http://www.w3.org/Graphics/SVG/1.1/DTD/svg11.dtd">
<svg version="1.1" id="Layer_1" xmlns="http://www.w3.org/2000/svg" xmlns:xlink="http://www.w3.org/1999/xlink" x="0px" y="0px"
	 width="4178.588px" height="106px" viewBox="0 0 4178.588 106" enable-background="new 0 0 4178.588 106" xml:space="preserve">
<polygon fill="#F3F0E6" points="4182.964,106 4.49,106 4.49,0 4183.516,0 "/>
<g>
	<linearGradient id="SVGID_1_" gradientUnits="userSpaceOnUse" x1="434.6836" y1="53" x2="-18.4662" y2="53">
		<stop  offset="0" style="stop-color:#F3F0E6"/>
		<stop  offset="1" style="stop-color:#4B2E83"/>
	</linearGradient>
	<polygon fill="url(#SVGID_1_)" points="2.014,106 13.567,106 42.503,0 30.95,0 	"/>
	<linearGradient id="SVGID_2_" gradientUnits="userSpaceOnUse" x1="424.374" y1="53" x2="-28.7758" y2="53">
		<stop  offset="0" style="stop-color:#F3F0E6"/>
		<stop  offset="1" style="stop-color:#4B2E83"/>
	</linearGradient>
	<polygon fill="url(#SVGID_2_)" points="17.936,106 29.488,106 58.425,0 46.871,0 	"/>
	<linearGradient id="SVGID_3_" gradientUnits="userSpaceOnUse" x1="414.0635" y1="53" x2="-39.0863" y2="53">
		<stop  offset="0" style="stop-color:#F3F0E6"/>
		<stop  offset="1" style="stop-color:#4B2E83"/>
	</linearGradient>
	<polygon fill="url(#SVGID_3_)" points="33.856,106 45.41,106 74.346,0 62.793,0 	"/>
	<linearGradient id="SVGID_4_" gradientUnits="userSpaceOnUse" x1="403.752" y1="53" x2="-49.3958" y2="53">
		<stop  offset="0" style="stop-color:#F3F0E6"/>
		<stop  offset="1" style="stop-color:#4B2E83"/>
	</linearGradient>
	<polygon fill="url(#SVGID_4_)" points="49.779,106 61.332,106 90.268,0 78.714,0 	"/>
	<linearGradient id="SVGID_5_" gradientUnits="userSpaceOnUse" x1="393.4492" y1="53" x2="-59.7095" y2="53">
		<stop  offset="0" style="stop-color:#F3F0E6"/>
		<stop  offset="1" style="stop-color:#4B2E83"/>
	</linearGradient>
	<polygon fill="url(#SVGID_5_)" points="65.7,106 77.254,106 106.189,0 94.637,0 	"/>
	<linearGradient id="SVGID_6_" gradientUnits="userSpaceOnUse" x1="383.1338" y1="53" x2="-70.016" y2="53">
		<stop  offset="0" style="stop-color:#F3F0E6"/>
		<stop  offset="1" style="stop-color:#4B2E83"/>
	</linearGradient>
	<polygon fill="url(#SVGID_6_)" points="81.622,106 93.175,106 122.111,0 110.558,0 	"/>
	<linearGradient id="SVGID_7_" gradientUnits="userSpaceOnUse" x1="372.8232" y1="53" x2="-80.3265" y2="53">
		<stop  offset="0" style="stop-color:#F3F0E6"/>
		<stop  offset="1" style="stop-color:#4B2E83"/>
	</linearGradient>
	<polygon fill="url(#SVGID_7_)" points="97.543,106 109.097,106 138.032,0 126.479,0 	"/>
	<linearGradient id="SVGID_8_" gradientUnits="userSpaceOnUse" x1="362.5127" y1="53" x2="-90.6371" y2="53">
		<stop  offset="0" style="stop-color:#F3F0E6"/>
		<stop  offset="1" style="stop-color:#4B2E83"/>
	</linearGradient>
	<polygon fill="url(#SVGID_8_)" points="113.464,106 125.018,106 153.953,0 142.4,0 	"/>
	<linearGradient id="SVGID_9_" gradientUnits="userSpaceOnUse" x1="352.2031" y1="53" x2="-100.9467" y2="53">
		<stop  offset="0" style="stop-color:#F3F0E6"/>
		<stop  offset="1" style="stop-color:#4B2E83"/>
	</linearGradient>
	<polygon fill="url(#SVGID_9_)" points="129.386,106 140.938,106 169.875,0 158.321,0 	"/>
	<linearGradient id="SVGID_10_" gradientUnits="userSpaceOnUse" x1="341.8926" y1="53" x2="-111.2572" y2="53">
		<stop  offset="0" style="stop-color:#F3F0E6"/>
		<stop  offset="1" style="stop-color:#4B2E83"/>
	</linearGradient>
	<polygon fill="url(#SVGID_10_)" points="145.307,106 156.86,106 185.796,0 174.243,0 	"/>
	<linearGradient id="SVGID_11_" gradientUnits="userSpaceOnUse" x1="331.585" y1="53" x2="-121.5717" y2="53">
		<stop  offset="0" style="stop-color:#F3F0E6"/>
		<stop  offset="1" style="stop-color:#4B2E83"/>
	</linearGradient>
	<polygon fill="url(#SVGID_11_)" points="161.229,106 172.782,106 201.718,0 190.164,0 	"/>
	<linearGradient id="SVGID_12_" gradientUnits="userSpaceOnUse" x1="321.2705" y1="53" x2="-131.8723" y2="53">
		<stop  offset="0" style="stop-color:#F3F0E6"/>
		<stop  offset="1" style="stop-color:#4B2E83"/>
	</linearGradient>
	<polygon fill="url(#SVGID_12_)" points="177.149,106 188.703,106 217.64,0 206.087,0 	"/>
	<linearGradient id="SVGID_13_" gradientUnits="userSpaceOnUse" x1="310.959" y1="53" x2="-142.1798" y2="53">
		<stop  offset="0" style="stop-color:#F3F0E6"/>
		<stop  offset="1" style="stop-color:#4B2E83"/>
	</linearGradient>
	<polygon fill="url(#SVGID_13_)" points="193.072,106 204.625,106 233.561,0 222.008,0 	"/>
	<linearGradient id="SVGID_14_" gradientUnits="userSpaceOnUse" x1="300.6509" y1="53" x2="-152.4989" y2="53">
		<stop  offset="0" style="stop-color:#F3F0E6"/>
		<stop  offset="1" style="stop-color:#4B2E83"/>
	</linearGradient>
	<polygon fill="url(#SVGID_14_)" points="208.993,106 220.547,106 249.482,0 237.929,0 	"/>
	<linearGradient id="SVGID_15_" gradientUnits="userSpaceOnUse" x1="290.3403" y1="53" x2="-162.8094" y2="53">
		<stop  offset="0" style="stop-color:#F3F0E6"/>
		<stop  offset="1" style="stop-color:#4B2E83"/>
	</linearGradient>
	<polygon fill="url(#SVGID_15_)" points="224.914,106 236.468,106 265.403,0 253.851,0 	"/>
</g>
<g>
	<polygon fill="#4B2E83" points="0,106 0,95.25 25.906,0 0.018,0 	"/>
</g>
</svg>
