<?xml version="1.0" encoding="utf-8"?>
<!-- Generator: Adobe Illustrator 16.0.0, SVG Export Plug-In . SVG Version: 6.00 Build 0)  -->
<!DOCTYPE svg PUBLIC "-//W3C//DTD SVG 1.1//EN" "http://www.w3.org/Graphics/SVG/1.1/DTD/svg11.dtd">
<svg version="1.1" id="Layer_1" xmlns="http://www.w3.org/2000/svg" xmlns:xlink="http://www.w3.org/1999/xlink" x="0px" y="0px"
	 width="225px" height="252px" viewBox="0 0 225 252" enable-background="new 0 0 225 252" xml:space="preserve">
<g>
	<path fill="#33006F" d="M178.224,134.852c0,40.117-32.521,72.639-72.639,72.639c-40.116,0-72.637-32.521-72.637-72.639
		s32.521-72.639,72.637-72.639C145.703,62.213,178.224,94.735,178.224,134.852"/>
	<path fill="#33006F" d="M210.952,53.272c0,17.649-14.308,31.959-31.959,31.959c-17.649,0-31.959-14.31-31.959-31.959
		c0-17.65,14.31-31.959,31.959-31.959C196.644,21.313,210.952,35.622,210.952,53.272"/>
	<path fill="#FFFFFF" d="M136.048,94.331c0.603,0.469,1.436,0.434,1.996-0.041c0.489,0.016,0.979-0.195,1.301-0.611
		c0.35-0.448,0.418-1.023,0.236-1.521c0.159-0.097,0.305-0.224,0.426-0.379c0.537-0.693,0.412-1.688-0.278-2.226
		c-0.043-0.033-0.086-0.063-0.132-0.091c-0.078-0.344-0.271-0.663-0.571-0.896c-0.69-0.537-1.687-0.412-2.224,0.28
		c-0.09,0.114-0.162,0.239-0.215,0.368c-0.465,0.006-0.926,0.216-1.233,0.611c-0.271,0.351-0.374,0.777-0.319,1.185
		c-0.102,0.079-0.195,0.172-0.277,0.278c-0.537,0.691-0.414,1.688,0.278,2.225c0.175,0.135,0.368,0.229,0.569,0.281
		C135.708,93.997,135.856,94.182,136.048,94.331"/>
	<path fill="#FFFFFF" d="M146.231,85.912c0.556,0.522,1.39,0.565,1.991,0.147c0.486,0.061,0.992-0.104,1.354-0.487
		c0.389-0.413,0.514-0.979,0.379-1.492c0.168-0.082,0.323-0.194,0.459-0.339c0.6-0.639,0.569-1.641-0.068-2.241
		c-0.039-0.036-0.08-0.071-0.122-0.103c-0.046-0.35-0.208-0.686-0.485-0.945c-0.638-0.6-1.641-0.568-2.24,0.068
		c-0.101,0.107-0.183,0.224-0.248,0.348c-0.465-0.039-0.941,0.127-1.285,0.493c-0.303,0.321-0.445,0.737-0.43,1.147
		c-0.108,0.069-0.211,0.153-0.303,0.252c-0.6,0.637-0.568,1.642,0.068,2.24c0.16,0.152,0.346,0.264,0.541,0.334
		C145.923,85.547,146.054,85.745,146.231,85.912"/>
	<g>
		<defs>
			<rect id="SVGID_1_" x="169.193" y="37.374" width="19.639" height="6.277"/>
		</defs>
		<clipPath id="SVGID_2_">
			<use xlink:href="#SVGID_1_"  overflow="visible"/>
		</clipPath>
		<path clip-path="url(#SVGID_2_)" fill="#FFFFFF" d="M188.697,40.512c0,1.658-4.336,3.004-9.685,3.004s-9.685-1.346-9.685-3.004
			c0-1.66,4.336-3.004,9.685-3.004S188.697,38.852,188.697,40.512"/>
		
			<ellipse clip-path="url(#SVGID_2_)" fill="none" stroke="#404041" stroke-width="0.269" stroke-miterlimit="10" cx="179.012" cy="40.512" rx="9.685" ry="3.004"/>
	</g>
	<path fill="#00B8F1" d="M188.697,48.583c0,1.659-4.336,3.004-9.685,3.004s-9.685-1.345-9.685-3.004
		c0-1.658,4.336-3.004,9.685-3.004S188.697,46.924,188.697,48.583"/>
	<g>
		<defs>
			<rect id="SVGID_3_" x="169.193" y="62.572" width="19.639" height="6.278"/>
		</defs>
		<clipPath id="SVGID_4_">
			<use xlink:href="#SVGID_3_"  overflow="visible"/>
		</clipPath>
		<path clip-path="url(#SVGID_4_)" fill="#FFFFFF" d="M188.697,65.711c0,1.658-4.336,3.004-9.685,3.004s-9.685-1.346-9.685-3.004
			c0-1.66,4.336-3.004,9.685-3.004S188.697,64.051,188.697,65.711"/>
		
			<ellipse clip-path="url(#SVGID_4_)" fill="none" stroke="#929497" stroke-width="0.269" stroke-miterlimit="10" cx="179.012" cy="65.711" rx="9.685" ry="3.004"/>
	</g>
	<g>
		<defs>
			<rect id="SVGID_5_" x="169.193" y="40.499" width="19.627" height="28.352"/>
		</defs>
		<clipPath id="SVGID_6_">
			<use xlink:href="#SVGID_5_"  overflow="visible"/>
		</clipPath>
		<path clip-path="url(#SVGID_6_)" fill="#FFFFFF" d="M188.685,65.868c0,0-1.041,2.87-9.672,2.848
			c-8.633-0.022-9.686-2.848-9.686-2.848V40.512c0,0,0.291,2.914,9.686,3.004c9.393,0.09,9.672-3.004,9.672-3.004V65.868z"/>
		<path clip-path="url(#SVGID_6_)" fill="none" stroke="#404041" stroke-width="0.268" stroke-miterlimit="10" d="M188.685,65.868
			c0,0-1.041,2.87-9.672,2.848c-8.633-0.022-9.686-2.848-9.686-2.848V40.512c0,0,0.291,2.914,9.686,3.004
			c9.393,0.09,9.672-3.004,9.672-3.004V65.868z"/>
	</g>
	<path fill="#6DCEF5" d="M188.832,66.059c0,0-1.111,2.998-9.742,2.977c-8.633-0.023-9.936-3.024-9.936-3.024l0.049-17.375
		c0,0,0.394,2.86,9.787,2.95c9.395,0.09,9.746-3.238,9.746-3.238L188.832,66.059z"/>
	<g>
		<defs>
			<path id="SVGID_7_" d="M32.948,134.852c0,40.117,32.522,72.639,72.638,72.639c40.117,0,72.639-32.521,72.639-72.639
				c0-40.116-32.521-72.639-72.639-72.639C65.47,62.213,32.948,94.736,32.948,134.852"/>
		</defs>
		<clipPath id="SVGID_8_">
			<use xlink:href="#SVGID_7_"  overflow="visible"/>
		</clipPath>
		<polygon clip-path="url(#SVGID_8_)" fill="#A87C4F" points="51.476,191.256 57.529,157.11 66.066,147.774 93.541,140.438 
			93.808,125.767 117.949,126.033 118.349,140.971 145.032,148.125 154.494,157.644 159.696,191.92 73.947,201.752 		"/>
		<polygon clip-path="url(#SVGID_8_)" fill="#8A6640" points="106.248,125.694 117.949,126.034 118.349,140.971 145.031,148.125 
			154.494,157.643 159.695,191.92 136.701,201.53 105.746,191.653 		"/>
		<polygon clip-path="url(#SVGID_8_)" fill="#754C28" points="106.078,73.75 120.75,77.084 130.886,89.754 131.019,110.829 
			122.083,126.7 89.406,123.633 81.137,110.162 81.27,89.622 91.408,76.284 		"/>
		<polygon clip-path="url(#SVGID_8_)" fill="#603813" points="106.078,73.75 120.75,77.084 130.886,89.754 131.019,110.829 
			122.083,126.7 105.74,125.167 		"/>
		<polygon clip-path="url(#SVGID_8_)" fill="#A87C4F" points="88.74,128.167 88.339,118.831 86.472,117.364 86.205,111.095 
			88.74,112.962 88.873,98.157 92.474,93.356 106.478,91.755 120.484,93.889 123.55,97.09 123.818,112.295 125.285,111.229 
			125.152,117.897 123.684,119.231 123.283,128.034 113.281,139.372 99.542,139.637 		"/>
		<polygon clip-path="url(#SVGID_8_)" fill="#5F338B" points="106.054,157.314 118.059,151.846 121.527,141.842 145.068,148.111 
			154.07,157.447 157.671,181.188 140.066,187.19 133.171,215.008 75.741,214.786 71.376,187.324 53.238,180.254 57.106,156.914 
			65.642,147.578 89.382,141.309 92.583,152.112 		"/>
		<polygon clip-path="url(#SVGID_8_)" fill="#8A6640" points="106.478,91.755 120.484,93.889 123.55,97.09 123.818,112.295 
			125.285,111.229 125.152,117.897 123.684,119.231 123.283,128.034 113.281,139.371 106.145,139.51 		"/>
		<polygon clip-path="url(#SVGID_8_)" fill="#4A1B7D" points="106.044,157.366 118.048,151.899 121.527,141.842 145.061,148.099 
			154.494,157.643 158.095,181.384 140.489,187.386 133.595,215.204 105.065,214.983 		"/>
		<polygon clip-path="url(#SVGID_8_)" fill="#8A6640" points="106.248,139.553 93.608,133.456 93.608,137.114 106.386,143.822 		"/>
	</g>
	<g>
		<defs>
			<rect id="SVGID_9_" x="169.193" y="37.374" width="19.639" height="6.277"/>
		</defs>
		<clipPath id="SVGID_10_">
			<use xlink:href="#SVGID_9_"  overflow="visible"/>
		</clipPath>
		<path clip-path="url(#SVGID_10_)" fill="#FFFFFF" d="M188.697,40.512c0,1.658-4.336,3.004-9.685,3.004s-9.685-1.346-9.685-3.004
			c0-1.66,4.336-3.004,9.685-3.004S188.697,38.852,188.697,40.512"/>
		
			<ellipse clip-path="url(#SVGID_10_)" fill="none" stroke="#404041" stroke-width="0.269" stroke-miterlimit="10" cx="179.012" cy="40.512" rx="9.685" ry="3.004"/>
	</g>
	<path fill="#00B8F1" d="M188.697,48.583c0,1.659-4.336,3.004-9.685,3.004s-9.685-1.345-9.685-3.004
		c0-1.658,4.336-3.004,9.685-3.004S188.697,46.924,188.697,48.583"/>
	<g>
		<defs>
			<rect id="SVGID_11_" x="169.193" y="62.572" width="19.639" height="6.278"/>
		</defs>
		<clipPath id="SVGID_12_">
			<use xlink:href="#SVGID_11_"  overflow="visible"/>
		</clipPath>
		<path clip-path="url(#SVGID_12_)" fill="#FFFFFF" d="M188.697,65.711c0,1.658-4.336,3.004-9.685,3.004s-9.685-1.346-9.685-3.004
			c0-1.66,4.336-3.004,9.685-3.004S188.697,64.051,188.697,65.711"/>
		
			<ellipse clip-path="url(#SVGID_12_)" fill="none" stroke="#929497" stroke-width="0.269" stroke-miterlimit="10" cx="179.012" cy="65.711" rx="9.685" ry="3.004"/>
	</g>
	<g>
		<defs>
			<rect id="SVGID_13_" x="169.193" y="40.499" width="19.627" height="28.352"/>
		</defs>
		<clipPath id="SVGID_14_">
			<use xlink:href="#SVGID_13_"  overflow="visible"/>
		</clipPath>
		<path clip-path="url(#SVGID_14_)" fill="#FFFFFF" d="M188.685,65.868c0,0-1.041,2.87-9.672,2.848
			c-8.633-0.022-9.686-2.848-9.686-2.848V40.512c0,0,0.291,2.914,9.686,3.004c9.393,0.09,9.672-3.004,9.672-3.004V65.868z"/>
		<path clip-path="url(#SVGID_14_)" fill="none" stroke="#404041" stroke-width="0.268" stroke-miterlimit="10" d="M188.685,65.868
			c0,0-1.041,2.87-9.672,2.848c-8.633-0.022-9.686-2.848-9.686-2.848V40.512c0,0,0.291,2.914,9.686,3.004
			c9.393,0.09,9.672-3.004,9.672-3.004V65.868z"/>
	</g>
	<path fill="#6DCEF5" d="M188.832,66.059c0,0-1.111,2.998-9.742,2.977c-8.633-0.023-9.936-3.024-9.936-3.024l0.049-17.375
		c0,0,0.394,2.86,9.787,2.95c9.395,0.09,9.746-3.238,9.746-3.238L188.832,66.059z"/>
	<path fill="none" stroke="#86754D" stroke-width="0.872" stroke-miterlimit="10" d="M152.103,184.114
		c0,1.08-0.875,1.955-1.953,1.955c-1.08,0-1.955-0.875-1.955-1.955c0-1.078,0.875-1.953,1.955-1.953c0.652,0,1.231,0.32,1.586,0.812
		C151.967,183.294,152.103,183.688,152.103,184.114z"/>
	<g>
		<path fill="#86754D" d="M126.63,210.644c0.594-0.09,1.179-0.135,1.755-0.135c0.527,0,0.983,0.045,1.368,0.135
			c0.384,0.09,0.698,0.232,0.944,0.428s0.428,0.442,0.545,0.742c0.117,0.301,0.175,0.657,0.175,1.071
			c0,0.816-0.239,1.413-0.72,1.791c-0.479,0.378-1.236,0.567-2.268,0.567h-0.414v2.016h-1.386V210.644z M128.618,214.136
			c0.252,0,0.467-0.021,0.644-0.062s0.319-0.113,0.428-0.212s0.186-0.228,0.234-0.387c0.048-0.159,0.071-0.355,0.071-0.59
			c0-0.456-0.101-0.78-0.301-0.972c-0.201-0.192-0.557-0.288-1.066-0.288c-0.097,0-0.203,0.006-0.32,0.018
			c-0.116,0.013-0.214,0.024-0.292,0.036v2.412c0.084,0.012,0.182,0.022,0.292,0.031
			C128.419,214.131,128.522,214.136,128.618,214.136z"/>
		<path fill="#86754D" d="M131.301,217.195l1.89-6.597h2.079l1.89,6.597v0.063h-1.322l-0.478-1.656h-2.268l-0.468,1.656h-1.323
			V217.195z M135.071,214.496l-0.504-1.782l-0.288-1.089h-0.107l-0.288,1.089l-0.504,1.782H135.071z"/>
		<path fill="#86754D" d="M140.111,214.964c-0.078,0.006-0.156,0.011-0.234,0.014c-0.077,0.003-0.158,0.004-0.242,0.004
			c-0.024,0-0.059,0-0.104,0s-0.095,0-0.148,0c-0.055,0-0.105-0.001-0.153-0.004s-0.084-0.005-0.108-0.005v2.286h-1.386v-6.615
			c0.282-0.048,0.57-0.082,0.864-0.104c0.294-0.021,0.591-0.031,0.891-0.031c1.062,0,1.833,0.179,2.313,0.535
			c0.479,0.357,0.72,0.932,0.72,1.724c0,0.973-0.396,1.623-1.188,1.953l1.396,2.538h-1.485L140.111,214.964z M139.725,213.911
			c0.258,0,0.474-0.021,0.647-0.063s0.315-0.107,0.424-0.198c0.107-0.09,0.186-0.207,0.233-0.351s0.072-0.321,0.072-0.531
			s-0.024-0.389-0.072-0.535c-0.048-0.147-0.126-0.266-0.233-0.355c-0.108-0.09-0.25-0.154-0.424-0.193s-0.387-0.059-0.639-0.059
			c-0.084,0-0.185,0.006-0.302,0.018c-0.117,0.013-0.221,0.024-0.311,0.036v2.188c0.084,0.012,0.181,0.022,0.288,0.031
			C139.518,213.906,139.622,213.911,139.725,213.911z"/>
		<path fill="#86754D" d="M142.838,217.195l1.891-6.597h2.079l1.89,6.597v0.063h-1.323l-0.477-1.656h-2.269l-0.468,1.656h-1.323
			V217.195z M146.609,214.496l-0.504-1.782l-0.288-1.089h-0.108l-0.288,1.089l-0.504,1.782H146.609z"/>
		<path fill="#86754D" d="M149.273,210.599h1.386v5.526h2.357v1.134h-3.743V210.599z"/>
		<path fill="#86754D" d="M154.529,215.036l-2.313-4.438h1.539l1.242,2.61l0.18,0.54h0.081l0.189-0.54l1.242-2.61h1.521
			l-2.295,4.419v2.241h-1.386V215.036z"/>
		<path fill="#86754D" d="M158.399,216.089l2.897-4.266v-0.072h-2.771v-1.152h4.364v1.161l-2.897,4.284v0.072h3.033v1.143h-4.626
			V216.089z"/>
		<path fill="#86754D" d="M163.835,210.599h4.23v1.144h-2.845v1.602h2.547v1.134h-2.547v1.639h2.926v1.143h-4.312V210.599z"/>
		<path fill="#86754D" d="M170.666,217.376c-0.517,0-1.065-0.036-1.647-0.108v-6.65c0.396-0.03,0.741-0.055,1.035-0.072
			c0.294-0.019,0.558-0.027,0.792-0.027c0.6,0,1.111,0.064,1.534,0.193c0.423,0.13,0.77,0.332,1.04,0.607
			c0.27,0.276,0.468,0.631,0.594,1.062s0.188,0.951,0.188,1.557c0,0.612-0.065,1.136-0.197,1.57
			c-0.132,0.436-0.339,0.791-0.621,1.067c-0.282,0.275-0.646,0.479-1.094,0.607S171.302,217.376,170.666,217.376z M171.151,216.251
			c0.3,0,0.554-0.039,0.761-0.117s0.373-0.207,0.5-0.387c0.126-0.181,0.217-0.419,0.274-0.716c0.057-0.297,0.085-0.664,0.085-1.103
			c0-0.432-0.028-0.795-0.085-1.089c-0.058-0.294-0.152-0.531-0.284-0.711s-0.306-0.309-0.521-0.387s-0.483-0.117-0.801-0.117
			c-0.229,0-0.459,0.018-0.693,0.054v4.519c0.156,0.018,0.294,0.031,0.414,0.04S171.037,216.251,171.151,216.251z"/>
	</g>
	<g>
		<path fill="#86754D" d="M140.48,221.596h1.386v5.526h2.358v1.134h-3.744V221.596z"/>
		<path fill="#86754D" d="M144.908,221.596h1.386v6.66h-1.386V221.596z"/>
		<path fill="#86754D" d="M147.446,221.596h1.944l1.224,3.483l0.288,1.17h0.063l0.287-1.17l1.225-3.483h1.953v6.66h-1.287v-4.968
			h-0.054l-0.405,1.332l-1.17,3.32h-1.17l-1.17-3.32l-0.414-1.332h-0.055v4.968h-1.26V221.596z"/>
		<path fill="#86754D" d="M157.607,228.346c-0.33,0-0.669-0.011-1.018-0.031c-0.348-0.021-0.684-0.056-1.008-0.104v-6.57
			c0.414-0.048,0.777-0.082,1.089-0.104c0.312-0.021,0.612-0.031,0.9-0.031c0.912,0,1.576,0.148,1.993,0.445
			s0.626,0.772,0.626,1.427c0,0.786-0.346,1.266-1.035,1.439v0.036c0.396,0.078,0.699,0.254,0.909,0.526
			c0.21,0.273,0.314,0.629,0.314,1.067C160.379,227.713,159.455,228.346,157.607,228.346z M157.661,224.413
			c0.204,0,0.378-0.017,0.521-0.05c0.145-0.033,0.26-0.087,0.347-0.162s0.15-0.172,0.189-0.292s0.059-0.268,0.059-0.441
			c0-0.324-0.087-0.558-0.262-0.702c-0.174-0.144-0.449-0.216-0.827-0.216c-0.145,0-0.282,0.005-0.414,0.014
			c-0.133,0.009-0.268,0.022-0.405,0.04v1.81H157.661z M157.742,227.311c0.815-0.012,1.224-0.33,1.224-0.954
			c0-0.348-0.096-0.595-0.288-0.742c-0.191-0.146-0.516-0.221-0.972-0.221h-0.837v1.863
			C157.031,227.293,157.322,227.311,157.742,227.311z"/>
	</g>
	
		<line fill="none" stroke="#86754D" stroke-width="0.872" stroke-miterlimit="10" x1="150.16" y1="186.05" x2="150.16" y2="206.633"/>
	<path fill="none" stroke="#86754D" stroke-width="0.872" stroke-miterlimit="10" d="M109.02,149.364
		c0,1.08-0.875,1.955-1.954,1.955c-1.08,0-1.955-0.875-1.955-1.955c0-1.078,0.875-1.953,1.955-1.953c0.652,0,1.232,0.32,1.587,0.812
		C108.884,148.544,109.02,148.938,109.02,149.364z"/>
	<polyline fill="none" stroke="#86754D" stroke-width="0.872" stroke-miterlimit="10" points="30.035,187.258 65.08,148.928 
		105.37,148.928 	"/>
	<g>
		<path fill="#86754D" d="M17.265,191.348h1.386v6.66h-1.386V191.348z"/>
		<path fill="#86754D" d="M19.803,191.348h1.151l2.466,3.627l0.414,0.738h0.072v-4.365h1.233v6.66h-1.152l-2.457-3.618l-0.423-0.756
			h-0.081v4.374h-1.224V191.348z"/>
		<path fill="#86754D" d="M25.607,199.439c0.132-0.306,0.243-0.584,0.333-0.833c0.09-0.249,0.162-0.495,0.216-0.738
			c0.054-0.243,0.092-0.492,0.112-0.747c0.021-0.255,0.032-0.538,0.032-0.85v-4.923h1.395v5.031c0,0.306-0.021,0.597-0.063,0.873
			s-0.11,0.552-0.206,0.828c-0.097,0.276-0.221,0.557-0.374,0.842c-0.153,0.285-0.341,0.592-0.562,0.922L25.607,199.439z"/>
		<path fill="#86754D" d="M31.412,198.098c-0.486,0-0.897-0.055-1.233-0.167c-0.336-0.111-0.608-0.277-0.818-0.5
			c-0.211-0.222-0.362-0.502-0.455-0.841s-0.14-0.739-0.14-1.202v-4.041h1.387v3.996c0,0.564,0.097,0.971,0.292,1.22
			s0.518,0.374,0.968,0.374s0.772-0.123,0.968-0.369c0.194-0.246,0.292-0.654,0.292-1.224v-3.996h1.386v4.041
			c0,0.462-0.046,0.863-0.14,1.202c-0.093,0.339-0.244,0.621-0.454,0.846c-0.21,0.225-0.483,0.391-0.819,0.5
			C32.309,198.044,31.897,198.098,31.412,198.098z"/>
		<path fill="#86754D" d="M37.532,195.713c-0.078,0.006-0.156,0.01-0.234,0.013c-0.078,0.003-0.159,0.005-0.243,0.005
			c-0.023,0-0.059,0-0.104,0s-0.095,0-0.148,0s-0.104-0.001-0.153-0.005c-0.048-0.003-0.084-0.004-0.107-0.004v2.286h-1.386v-6.615
			c0.281-0.048,0.569-0.082,0.863-0.103s0.591-0.032,0.892-0.032c1.062,0,1.833,0.179,2.312,0.536c0.48,0.357,0.72,0.931,0.72,1.723
			c0,0.972-0.396,1.624-1.188,1.953l1.395,2.538h-1.484L37.532,195.713z M37.145,194.66c0.258,0,0.475-0.021,0.648-0.063
			s0.314-0.108,0.423-0.198c0.108-0.09,0.186-0.207,0.234-0.351c0.048-0.144,0.071-0.321,0.071-0.531
			c0-0.21-0.023-0.388-0.071-0.535c-0.049-0.147-0.126-0.266-0.234-0.355c-0.108-0.09-0.249-0.155-0.423-0.194
			c-0.174-0.039-0.387-0.058-0.639-0.058c-0.085,0-0.185,0.006-0.302,0.018c-0.117,0.012-0.221,0.024-0.311,0.036v2.187
			c0.084,0.012,0.18,0.022,0.288,0.032C36.938,194.656,37.043,194.66,37.145,194.66z"/>
		<path fill="#86754D" d="M42.275,195.785l-2.313-4.437h1.539l1.242,2.61l0.18,0.54h0.081l0.189-0.54l1.242-2.61h1.521l-2.295,4.419
			v2.241h-1.386V195.785z"/>
	</g>
	<g>
		<path fill="#86754D" d="M24.689,209.114c-0.318,0-0.659-0.027-1.021-0.081c-0.363-0.055-0.716-0.136-1.058-0.243l0.018-1.152
			c0.139,0.048,0.287,0.092,0.446,0.131c0.158,0.039,0.32,0.073,0.485,0.104s0.325,0.054,0.481,0.072
			c0.156,0.018,0.303,0.026,0.441,0.026c0.744,0,1.116-0.267,1.116-0.801c0-0.138-0.027-0.255-0.081-0.351
			c-0.055-0.096-0.134-0.179-0.239-0.248c-0.104-0.068-0.229-0.131-0.373-0.185s-0.306-0.108-0.486-0.161
			c-0.264-0.072-0.502-0.156-0.715-0.253c-0.214-0.096-0.396-0.223-0.55-0.382c-0.152-0.159-0.271-0.353-0.355-0.581
			s-0.126-0.51-0.126-0.846c0-0.294,0.053-0.56,0.158-0.797c0.104-0.237,0.258-0.439,0.459-0.607c0.2-0.168,0.445-0.295,0.733-0.382
			s0.611-0.13,0.972-0.13c0.258,0,0.523,0.02,0.797,0.058c0.272,0.039,0.577,0.101,0.913,0.185l-0.009,1.125
			c-0.264-0.072-0.542-0.13-0.833-0.175s-0.541-0.067-0.751-0.067c-0.33,0-0.584,0.066-0.761,0.198
			c-0.177,0.132-0.266,0.324-0.266,0.576c0,0.138,0.028,0.255,0.086,0.351c0.057,0.096,0.14,0.181,0.247,0.256
			c0.108,0.075,0.24,0.144,0.396,0.207c0.155,0.063,0.333,0.127,0.531,0.193c0.252,0.084,0.479,0.177,0.684,0.279
			c0.204,0.103,0.379,0.229,0.526,0.378s0.26,0.329,0.338,0.536c0.077,0.207,0.117,0.457,0.117,0.751
			c0,0.637-0.203,1.131-0.608,1.485C25.999,208.937,25.427,209.114,24.689,209.114z"/>
		<path fill="#86754D" d="M27.804,202.346h1.386v6.66h-1.386V202.346z"/>
		<path fill="#86754D" d="M31.592,203.507h-1.674v-1.161h4.761v1.161h-1.691v5.499h-1.396V203.507z"/>
		<path fill="#86754D" d="M35.399,202.346h4.229v1.143h-2.844v1.602h2.547v1.135h-2.547v1.638h2.925v1.143h-4.311V202.346z"/>
	</g>
</g>
</svg>
