<?xml version="1.0" encoding="utf-8"?>
<!-- Generator: Adobe Illustrator 16.0.0, SVG Export Plug-In . SVG Version: 6.00 Build 0)  -->
<!DOCTYPE svg PUBLIC "-//W3C//DTD SVG 1.1//EN" "http://www.w3.org/Graphics/SVG/1.1/DTD/svg11.dtd">
<svg version="1.1" id="Layer_1" xmlns="http://www.w3.org/2000/svg" xmlns:xlink="http://www.w3.org/1999/xlink" x="0px" y="0px"
	 width="450px" height="252px" viewBox="0 0 450 252" enable-background="new 0 0 450 252" xml:space="preserve">
<g>
	<path fill="#33006F" d="M-148.037,133.709c0,40.117-32.521,72.639-72.639,72.639s-72.638-32.521-72.638-72.639
		s32.521-72.638,72.638-72.638S-148.037,93.592-148.037,133.709"/>
	<path fill="#FFFFFF" d="M-189.126,100.015c0.603,0.468,1.436,0.433,1.996-0.041c0.49,0.015,0.979-0.196,1.302-0.612
		c0.349-0.447,0.418-1.023,0.236-1.521c0.159-0.097,0.305-0.224,0.426-0.38c0.537-0.692,0.412-1.688-0.279-2.225
		c-0.043-0.033-0.086-0.063-0.131-0.092c-0.079-0.344-0.271-0.662-0.572-0.896c-0.69-0.537-1.687-0.412-2.224,0.28
		c-0.09,0.114-0.161,0.238-0.214,0.367c-0.466,0.006-0.926,0.217-1.234,0.612c-0.271,0.351-0.374,0.776-0.318,1.185
		c-0.103,0.078-0.195,0.172-0.278,0.277c-0.537,0.691-0.412,1.688,0.279,2.225c0.174,0.135,0.367,0.229,0.568,0.282
		C-189.466,99.681-189.318,99.865-189.126,100.015"/>
	<path fill="#FFFFFF" d="M-178.943,91.596c0.557,0.522,1.39,0.565,1.991,0.146c0.486,0.061,0.993-0.104,1.354-0.486
		c0.389-0.414,0.513-0.98,0.378-1.492c0.168-0.082,0.324-0.195,0.46-0.34c0.599-0.638,0.568-1.641-0.069-2.24
		c-0.039-0.037-0.08-0.071-0.122-0.104c-0.046-0.349-0.208-0.685-0.484-0.945c-0.639-0.6-1.642-0.568-2.241,0.069
		c-0.101,0.106-0.183,0.224-0.247,0.347c-0.465-0.039-0.942,0.127-1.286,0.494c-0.303,0.321-0.445,0.737-0.429,1.147
		c-0.109,0.069-0.211,0.153-0.304,0.251c-0.6,0.638-0.568,1.643,0.068,2.24c0.161,0.152,0.346,0.264,0.541,0.334
		C-179.25,91.231-179.12,91.428-178.943,91.596"/>
	<path fill="#33006F" d="M-116.681,53.271c0,17.65-14.308,31.959-31.959,31.959c-17.649,0-31.959-14.309-31.959-31.959
		c0-17.649,14.31-31.959,31.959-31.959C-130.988,21.312-116.681,35.622-116.681,53.271"/>
	<g>
		<defs>
			<rect id="SVGID_1_" x="-158.439" y="37.373" width="19.64" height="6.278"/>
		</defs>
		<clipPath id="SVGID_2_">
			<use xlink:href="#SVGID_1_"  overflow="visible"/>
		</clipPath>
		<path clip-path="url(#SVGID_2_)" fill="#FFFFFF" d="M-138.935,40.512c0,1.66-4.336,3.005-9.685,3.005
			c-5.35,0-9.686-1.345-9.686-3.005c0-1.658,4.336-3.004,9.686-3.004C-143.271,37.508-138.935,38.854-138.935,40.512"/>
		
			<ellipse clip-path="url(#SVGID_2_)" fill="none" stroke="#404041" stroke-width="0.269" stroke-miterlimit="10" cx="-148.62" cy="40.512" rx="9.685" ry="3.005"/>
	</g>
	<path fill="#00B8F1" d="M-138.935,48.584c0,1.658-4.336,3.004-9.685,3.004c-5.35,0-9.686-1.346-9.686-3.004
		c0-1.66,4.336-3.004,9.686-3.004C-143.271,45.58-138.935,46.924-138.935,48.584"/>
	<g>
		<defs>
			<rect id="SVGID_3_" x="-158.439" y="62.573" width="19.64" height="6.277"/>
		</defs>
		<clipPath id="SVGID_4_">
			<use xlink:href="#SVGID_3_"  overflow="visible"/>
		</clipPath>
		<path clip-path="url(#SVGID_4_)" fill="#FFFFFF" d="M-138.935,65.712c0,1.659-4.336,3.004-9.685,3.004
			c-5.35,0-9.686-1.345-9.686-3.004s4.336-3.005,9.686-3.005C-143.271,62.707-138.935,64.053-138.935,65.712"/>
		
			<ellipse clip-path="url(#SVGID_4_)" fill="none" stroke="#929497" stroke-width="0.269" stroke-miterlimit="10" cx="-148.62" cy="65.712" rx="9.685" ry="3.004"/>
	</g>
	<g>
		<defs>
			<rect id="SVGID_5_" x="-158.438" y="40.5" width="19.626" height="28.351"/>
		</defs>
		<clipPath id="SVGID_6_">
			<use xlink:href="#SVGID_5_"  overflow="visible"/>
		</clipPath>
		<path clip-path="url(#SVGID_6_)" fill="#FFFFFF" d="M-138.946,65.869c0,0-1.042,2.869-9.673,2.847
			c-8.633-0.022-9.686-2.847-9.686-2.847V40.513c0,0,0.291,2.914,9.686,3.004c9.393,0.09,9.673-3.004,9.673-3.004V65.869z"/>
		<path clip-path="url(#SVGID_6_)" fill="none" stroke="#404041" stroke-width="0.268" stroke-miterlimit="10" d="M-138.946,65.869
			c0,0-1.042,2.869-9.673,2.847c-8.633-0.022-9.686-2.847-9.686-2.847V40.513c0,0,0.291,2.914,9.686,3.004
			c9.393,0.09,9.673-3.004,9.673-3.004V65.869z"/>
	</g>
	<path fill="#6DCEF5" d="M-138.8,66.06c0,0-1.112,2.998-9.743,2.976c-8.632-0.022-9.936-3.023-9.936-3.023l0.049-17.375
		c0,0,0.394,2.861,9.787,2.951c9.395,0.089,9.746-3.239,9.746-3.239L-138.8,66.06z"/>
	<g>
		<defs>
			<path id="SVGID_7_" d="M-293.313,133.709c0,40.117,32.521,72.639,72.638,72.639s72.638-32.521,72.638-72.639
				s-32.521-72.638-72.638-72.638S-293.313,93.592-293.313,133.709"/>
		</defs>
		<clipPath id="SVGID_8_">
			<use xlink:href="#SVGID_7_"  overflow="visible"/>
		</clipPath>
		<polygon clip-path="url(#SVGID_8_)" fill="#A87C4F" points="-275.87,191.529 -269.817,157.384 -261.281,148.048 -233.806,140.712 
			-233.539,126.041 -209.397,126.307 -208.998,141.245 -182.314,148.398 -172.853,157.918 -167.65,192.195 -253.399,202.026 		"/>
		<polygon clip-path="url(#SVGID_8_)" fill="#8A6640" points="-221.1,125.968 -209.397,126.307 -208.997,141.245 -182.315,148.398 
			-172.853,157.917 -167.651,192.195 -190.646,201.804 -221.602,191.927 		"/>
		<polygon clip-path="url(#SVGID_8_)" fill="#754C28" points="-221.269,74.023 -206.598,77.357 -196.46,90.029 -196.327,111.103 
			-205.264,126.974 -237.94,123.906 -246.209,110.436 -246.076,89.896 -235.939,76.558 		"/>
		<polygon clip-path="url(#SVGID_8_)" fill="#603813" points="-221.269,74.023 -206.598,77.357 -196.46,90.029 -196.327,111.103 
			-205.264,126.974 -221.607,125.439 		"/>
		<polygon clip-path="url(#SVGID_8_)" fill="#A87C4F" points="-238.607,128.441 -239.007,119.105 -240.874,117.639 
			-241.142,111.369 -238.607,113.236 -238.475,98.432 -234.872,93.631 -220.868,92.029 -206.863,94.163 -203.796,97.364 
			-203.529,112.569 -202.062,111.502 -202.195,118.172 -203.662,119.506 -204.063,128.309 -214.066,139.645 -227.805,139.911 		"/>
		<polygon clip-path="url(#SVGID_8_)" fill="#5F338B" points="-221.292,157.588 -209.288,152.119 -205.819,142.115 
			-182.278,148.385 -173.276,157.721 -169.675,181.462 -187.28,187.464 -194.175,215.281 -251.605,215.06 -255.97,187.598 
			-274.108,180.529 -270.24,157.188 -261.705,147.852 -237.964,141.582 -234.763,152.386 		"/>
		<polygon clip-path="url(#SVGID_8_)" fill="#8A6640" points="-220.868,92.029 -206.863,94.164 -203.796,97.364 -203.529,112.569 
			-202.062,111.502 -202.195,118.172 -203.662,119.504 -204.063,128.308 -214.066,139.645 -221.201,139.783 		"/>
		<polygon clip-path="url(#SVGID_8_)" fill="#4A1B7D" points="-221.303,157.641 -209.299,152.172 -205.819,142.116 
			-182.286,148.373 -172.853,157.917 -169.252,181.658 -186.857,187.66 -193.751,215.479 -222.281,215.256 		"/>
		<polygon clip-path="url(#SVGID_8_)" fill="#8A6640" points="-221.1,139.826 -233.738,133.729 -233.738,137.388 -220.96,144.096 		
			"/>
		<path clip-path="url(#SVGID_8_)" fill="#808184" d="M-197.772,159.621c-0.043,0.476-0.463,0.826-0.938,0.783
			s-0.826-0.463-0.783-0.938s0.463-0.826,0.938-0.783S-197.729,159.146-197.772,159.621"/>
		
			<rect x="-197.826" y="159.924" transform="matrix(0.921 0.3895 -0.3895 0.921 47.1687 88.9629)" clip-path="url(#SVGID_8_)" fill="#808184" width="4.072" height="1.742"/>
		<polygon clip-path="url(#SVGID_8_)" fill="#808184" points="-199.873,160.226 -202.522,159.294 -202.237,157.666 
			-199.376,158.074 		"/>
		<polygon clip-path="url(#SVGID_8_)" fill="#808184" points="-203.144,158.926 -205.038,157.795 -204.634,156.785 
			-202.519,157.613 		"/>
		<g opacity="0.6" clip-path="url(#SVGID_8_)">
			<g>
				<defs>
					<rect id="SVGID_9_" x="-221.688" y="143.739" width="25.688" height="8.211"/>
				</defs>
				<clipPath id="SVGID_10_">
					<use xlink:href="#SVGID_9_"  overflow="visible"/>
				</clipPath>
				<path clip-path="url(#SVGID_10_)" fill="#FFFFFF" d="M-196.176,147.845c0,2.17-5.672,3.929-12.668,3.929
					s-12.668-1.759-12.668-3.929s5.672-3.929,12.668-3.929S-196.176,145.675-196.176,147.845"/>
				
					<ellipse clip-path="url(#SVGID_10_)" fill="none" stroke="#929497" stroke-width="0.352" stroke-miterlimit="10" cx="-208.844" cy="147.845" rx="12.668" ry="3.929"/>
			</g>
		</g>
		<g opacity="0.6" clip-path="url(#SVGID_8_)">
			<g>
				<defs>
					<rect id="SVGID_11_" x="-221.512" y="154.471" width="25.336" height="7.859"/>
				</defs>
				<clipPath id="SVGID_12_">
					<use xlink:href="#SVGID_11_"  overflow="visible"/>
				</clipPath>
				<path clip-path="url(#SVGID_12_)" fill="#ABE0F9" d="M-196.176,158.401c0,2.17-5.672,3.929-12.668,3.929
					s-12.668-1.759-12.668-3.929s5.672-3.929,12.668-3.929S-196.176,156.231-196.176,158.401"/>
			</g>
		</g>
		<g opacity="0.6" clip-path="url(#SVGID_8_)">
			<g>
				<defs>
					<rect id="SVGID_13_" x="-221.688" y="176.699" width="25.688" height="8.211"/>
				</defs>
				<clipPath id="SVGID_14_">
					<use xlink:href="#SVGID_13_"  overflow="visible"/>
				</clipPath>
				<path clip-path="url(#SVGID_14_)" fill="#FFFFFF" d="M-196.176,180.805c0,2.17-5.672,3.93-12.668,3.93s-12.668-1.76-12.668-3.93
					s5.672-3.929,12.668-3.929S-196.176,178.635-196.176,180.805"/>
				
					<ellipse clip-path="url(#SVGID_14_)" fill="none" stroke="#929497" stroke-width="0.352" stroke-miterlimit="10" cx="-208.844" cy="180.805" rx="12.668" ry="3.93"/>
			</g>
		</g>
		<g opacity="0.6" clip-path="url(#SVGID_8_)">
			<g>
				<defs>
					<rect id="SVGID_15_" x="-221.687" y="147.827" width="25.671" height="37.082"/>
				</defs>
				<clipPath id="SVGID_16_">
					<use xlink:href="#SVGID_15_"  overflow="visible"/>
				</clipPath>
				<path clip-path="url(#SVGID_16_)" fill="#FFFFFF" d="M-196.191,181.01c0,0-1.362,3.754-12.651,3.725
					c-11.29-0.029-12.668-3.725-12.668-3.725v-33.164c0,0,0.381,3.812,12.668,3.928c12.286,0.117,12.651-3.928,12.651-3.928V181.01z
					"/>
				<path clip-path="url(#SVGID_16_)" fill="none" stroke="#929497" stroke-width="0.351" stroke-miterlimit="10" d="
					M-196.191,181.01c0,0-1.362,3.754-12.651,3.725c-11.29-0.029-12.668-3.725-12.668-3.725v-33.164c0,0,0.381,3.812,12.668,3.928
					c12.286,0.117,12.651-3.928,12.651-3.928V181.01z"/>
			</g>
		</g>
		<g opacity="0.6" clip-path="url(#SVGID_8_)">
			<g>
				<defs>
					<rect id="SVGID_17_" x="-221.541" y="158.401" width="25.351" height="26.333"/>
				</defs>
				<clipPath id="SVGID_18_">
					<use xlink:href="#SVGID_17_"  overflow="visible"/>
				</clipPath>
				<path clip-path="url(#SVGID_18_)" fill="#C6E9FA" d="M-196.191,181.01c0,0-1.362,3.754-12.651,3.725
					c-11.29-0.029-12.668-3.725-12.668-3.725l-0.03-22.609c0,0,0.381,3.812,12.668,3.931c12.287,0.117,12.653-3.931,12.653-3.931
					L-196.191,181.01z"/>
			</g>
		</g>
		<path clip-path="url(#SVGID_8_)" fill="#D0D2D3" d="M-178.885,176.066c-0.193,2.15-2.094,3.734-4.241,3.539
			c-2.149-0.194-3.733-2.094-3.539-4.242s2.094-3.732,4.241-3.538C-180.274,172.02-178.69,173.918-178.885,176.066"/>
		<path clip-path="url(#SVGID_8_)" fill="#808184" d="M-189.949,163.064c-0.102,1.111-1.083,1.93-2.194,1.83
			c-1.111-0.101-1.93-1.083-1.829-2.193c0.1-1.111,1.082-1.931,2.193-1.83C-190.669,160.972-189.85,161.953-189.949,163.064"/>
		<path clip-path="url(#SVGID_8_)" fill="#D0D2D3" d="M-186.146,168.701l-10.084-5.258l-3.488-0.133c0,0,0.812,1.702,0.731,3.264
			s-1.801,2.553-1.801,2.553s-1.507,0.648-1.729,1.773c-0.223,1.127,1.742,2.09,1.682,2.748c-0.059,0.657-0.358,0.631-0.51,1.643
			c-0.152,1.013,0.616,2.529,0.616,2.529s-0.218,1.067-0.099,1.742c0.12,0.674,0.671,1.268,0.671,1.268l6.534,1.134l5.642-1.662
			L-186.146,168.701z"/>
		
			<rect x="-203.511" y="164.433" transform="matrix(0.9959 0.0902 -0.0902 0.9959 14.1419 18.856)" clip-path="url(#SVGID_8_)" fill="#808184" width="3.726" height="3.065"/>
		
			<rect x="-210.037" y="163.979" transform="matrix(0.9959 0.09 -0.09 0.9959 14.0579 19.305)" clip-path="url(#SVGID_8_)" fill="#808184" width="6.065" height="3.065"/>
		<polygon clip-path="url(#SVGID_8_)" fill="#808184" points="-205.816,176.691 -211.367,175.019 -211.091,171.967 -205.54,173.64 
					"/>
		<polygon clip-path="url(#SVGID_8_)" fill="#808184" points="-204.43,180.709 -208.542,179.468 -208.266,176.416 -204.153,177.656 
					"/>
		<polygon clip-path="url(#SVGID_8_)" fill="#808184" points="-205.846,172.012 -211.858,170.78 -211.609,168.413 -205.569,168.961 
					"/>
		<polygon clip-path="url(#SVGID_8_)" fill="#808184" points="-213.154,165.756 -217.093,164.937 -216.902,162.826 
			-212.963,163.646 		"/>
		<polygon clip-path="url(#SVGID_8_)" fill="#808184" points="-213.862,170.247 -216.315,168.01 -216.124,165.898 -213.671,168.137 
					"/>
		<polygon clip-path="url(#SVGID_8_)" fill="#808184" points="-213.321,174.278 -215.39,171.457 -215.198,169.346 -213.131,172.168 
					"/>
		<polygon clip-path="url(#SVGID_8_)" fill="#808184" points="-210.455,178.942 -211.68,177.479 -211.49,175.369 -210.264,176.832 
					"/>
		
			<rect x="-203.511" y="165.373" transform="matrix(0.9959 0.0901 -0.0901 0.9959 14.1384 18.8509)" clip-path="url(#SVGID_8_)" fill="#BBBDBF" width="3.727" height="1.187"/>
		
			<rect x="-212.69" y="164.426" transform="matrix(0.9959 0.0901 -0.0901 0.9959 14.0049 19.7169)" clip-path="url(#SVGID_8_)" fill="#808184" width="2.494" height="1.186"/>
		
			<rect x="-213.513" y="168.773" transform="matrix(0.9959 0.09 -0.09 0.9959 14.381 19.838)" clip-path="url(#SVGID_8_)" fill="#808184" width="1.508" height="1.186"/>
		
			<rect x="-212.938" y="172.747" transform="matrix(0.9959 0.09 -0.09 0.9959 14.7411 19.8023)" clip-path="url(#SVGID_8_)" fill="#808184" width="1.508" height="1.186"/>
		
			<rect x="-210.082" y="177.198" transform="matrix(0.9959 0.09 -0.09 0.9959 15.1534 19.5633)" clip-path="url(#SVGID_8_)" fill="#808184" width="1.508" height="1.186"/>
		
			<rect x="-219.973" y="162.611" transform="matrix(0.9959 0.0901 -0.0901 0.9959 13.8524 20.3587)" clip-path="url(#SVGID_8_)" fill="#808184" width="2.689" height="2.079"/>
		
			<rect x="-205.203" y="169.099" transform="matrix(0.9959 0.09 -0.09 0.9959 14.5249 19.0564)" clip-path="url(#SVGID_8_)" fill="#808184" width="2.203" height="3.065"/>
		
			<rect x="-205.204" y="170.038" transform="matrix(0.9959 0.0901 -0.0901 0.9959 14.5488 19.0916)" clip-path="url(#SVGID_8_)" fill="#BBBDBF" width="2.189" height="1.187"/>
		
			<rect x="-205.268" y="173.853" transform="matrix(0.9959 0.0901 -0.0901 0.9959 14.9772 19.0599)" clip-path="url(#SVGID_8_)" fill="#808184" width="3.381" height="3.064"/>
		
			<rect x="-205.269" y="174.792" transform="matrix(0.9959 0.09 -0.09 0.9959 14.9566 19.0314)" clip-path="url(#SVGID_8_)" fill="#BBBDBF" width="3.375" height="1.186"/>
		
			<rect x="-203.932" y="177.739" transform="matrix(0.9959 0.0899 -0.0899 0.9959 15.2996 18.9482)" clip-path="url(#SVGID_8_)" fill="#808184" width="2.585" height="3.065"/>
		
			<rect x="-203.932" y="178.678" transform="matrix(0.9959 0.09 -0.09 0.9959 15.3051 18.9556)" clip-path="url(#SVGID_8_)" fill="#BBBDBF" width="2.584" height="1.186"/>
		<polygon clip-path="url(#SVGID_8_)" fill="#D0D2D3" points="-169.972,173.139 -156.104,176.26 -160.429,190.743 -164.196,189.35 
			-169.851,187.148 -173.752,185.589 		"/>
		<polygon clip-path="url(#SVGID_8_)" fill="#D0D2D3" points="-169.972,173.139 -177.752,173.764 -179.864,180.451 
			-173.752,185.589 		"/>
		<polygon clip-path="url(#SVGID_8_)" fill="#808184" points="-169.972,173.139 -156.104,176.26 -158.207,183.305 -171.824,179.238 
			-171.823,179.238 		"/>
		<polygon clip-path="url(#SVGID_8_)" fill="#808184" points="-169.972,173.139 -177.752,173.764 -178.822,177.146 
			-171.824,179.238 		"/>
		<path clip-path="url(#SVGID_8_)" fill="#808184" d="M-178.885,176.066c-0.034,0.392-0.127,0.765-0.267,1.111l-7.453-2.231
			c0.385-1.933,2.175-3.304,4.181-3.121C-180.274,172.02-178.69,173.918-178.885,176.066"/>
		<path clip-path="url(#SVGID_8_)" fill="#808184" d="M-186.146,168.701l-10.084-5.258l-3.488-0.133c0,0,0.812,1.702,0.731,3.264
			s-1.801,2.553-1.801,2.553s-0.918,0.395-1.426,1.104l15.108,4.535L-186.146,168.701z"/>
	</g>
</g>
<g>
	<path fill="#33006F" d="M424.516,127.743c0,40.117-32.521,72.638-72.638,72.638c-40.117,0-72.639-32.521-72.639-72.638
		c0-40.117,32.521-72.638,72.639-72.638C391.994,55.104,424.516,87.625,424.516,127.743"/>
	<path fill="#33006F" d="M166.451,122.384c0,40.117-32.521,72.638-72.638,72.638c-40.116,0-72.638-32.521-72.638-72.638
		c0-40.117,32.521-72.638,72.638-72.638C133.931,49.747,166.451,82.268,166.451,122.384"/>
	<g>
		<defs>
			<path id="SVGID_19_" d="M21.176,122.384c0,40.118,32.521,72.638,72.638,72.638c40.117,0,72.638-32.52,72.638-72.638
				c0-40.117-32.521-72.638-72.638-72.638C53.697,49.746,21.176,82.267,21.176,122.384"/>
		</defs>
		<clipPath id="SVGID_20_">
			<use xlink:href="#SVGID_19_"  overflow="visible"/>
		</clipPath>
		<polygon clip-path="url(#SVGID_20_)" fill="#FFFFFF" points="142.302,160.71 132.84,151.191 106.156,144.038 105.966,136.91 
			111.092,131.101 111.263,127.33 118.828,113.895 118.693,92.822 108.558,80.151 93.886,76.816 79.215,79.351 69.078,92.688 
			68.945,113.228 76.289,125.191 76.548,131.234 81.477,136.468 81.349,143.504 53.873,150.84 45.337,160.177 39.285,194.322 
			61.755,204.818 94.277,223.224 147.504,194.988 		"/>
		<g opacity="0.2" clip-path="url(#SVGID_20_)">
			<g>
				<defs>
					<rect id="SVGID_21_" x="39.284" y="76.816" width="108.22" height="146.407"/>
				</defs>
				<clipPath id="SVGID_22_">
					<use xlink:href="#SVGID_21_"  overflow="visible"/>
				</clipPath>
				<polygon clip-path="url(#SVGID_22_)" fill="#A87C4F" points="142.302,160.71 132.84,151.191 106.156,144.038 105.966,136.91 
					111.092,131.101 111.263,127.33 118.828,113.895 118.693,92.822 108.558,80.151 93.886,76.816 79.215,79.351 69.078,92.688 
					68.945,113.228 76.289,125.191 76.548,131.234 81.477,136.468 81.349,143.504 53.873,150.84 45.337,160.177 39.285,194.322 
					61.755,204.818 94.277,223.224 147.504,194.988 				"/>
			</g>
		</g>
		<g opacity="0.2" clip-path="url(#SVGID_20_)">
			<g>
				<defs>
					<rect id="SVGID_23_" x="81.416" y="84.745" width="66.088" height="137.591"/>
				</defs>
				<clipPath id="SVGID_24_">
					<use xlink:href="#SVGID_23_"  overflow="visible"/>
				</clipPath>
				<polygon clip-path="url(#SVGID_24_)" fill="#8A6640" points="142.302,160.71 132.84,151.191 106.156,144.038 105.966,136.91 
					111.092,131.101 111.24,127.061 115.896,115.234 114.787,96.83 106.806,85.964 94.287,84.745 93.953,142.57 81.416,136.522 
					81.416,140.18 93.928,146.748 93.39,222.336 124.508,204.598 147.504,194.988 				"/>
			</g>
		</g>
		<g opacity="0.65" clip-path="url(#SVGID_20_)">
			<g>
				<defs>
					<rect id="SVGID_25_" x="73.176" y="87.539" width="41.355" height="22.439"/>
				</defs>
				<clipPath id="SVGID_26_">
					<use xlink:href="#SVGID_25_"  overflow="visible"/>
				</clipPath>
				<path clip-path="url(#SVGID_26_)" fill="#694092" d="M114.531,100.055c0-1.992-1.096-3.727-2.718-4.637
					c0.054-0.242,0.084-0.493,0.084-0.751c0-1.911-1.55-3.46-3.459-3.46c-0.72,0-1.386,0.22-1.94,0.595
					c-0.052,0.006-0.104,0.015-0.156,0.024c-0.06-1.858-1.582-3.346-3.453-3.346c-0.551,0-1.069,0.131-1.531,0.36
					c-0.635-0.792-1.607-1.301-2.702-1.301c-0.66,0-1.276,0.189-1.801,0.51c-1.732,0.189-3.081,1.655-3.081,3.438
					c0,0.826,0.291,1.584,0.773,2.178c-0.107,0.284-0.17,0.59-0.17,0.912c0,0.653,0.246,1.247,0.647,1.701
					c-0.534,0.471-0.873,1.159-0.873,1.928c0,0.001,0,0.001,0,0.002c-0.12-0.537-0.408-1.009-0.806-1.361
					c0.455-0.464,0.736-1.099,0.736-1.8c0-0.828-0.393-1.562-1-2.032c0.408-0.568,0.652-1.263,0.652-2.016
					c0-1.911-1.549-3.46-3.46-3.46c-1.345,0-2.509,0.769-3.08,1.889c-0.62-0.586-1.455-0.948-2.375-0.948
					c-1.873,0-3.394,1.488-3.455,3.346c-0.051-0.009-0.103-0.018-0.155-0.024c-0.554-0.375-1.221-0.595-1.939-0.595
					c-1.911,0-3.461,1.549-3.461,3.46c0,0.258,0.031,0.509,0.085,0.751c-1.621,0.91-2.718,2.645-2.718,4.637
					c0,1.533,0.649,2.913,1.688,3.883c-0.178,0.417-0.278,0.876-0.278,1.358c0,1.91,1.549,3.459,3.461,3.459
					c0.43,0,0.84-0.082,1.219-0.225c0.953,0.897,2.234,1.448,3.646,1.448c1.3,0,2.49-0.467,3.414-1.243
					c0.431,0.193,0.907,0.303,1.409,0.303c0.266,0,0.523-0.033,0.771-0.09c0.59,0.467,1.334,0.748,2.145,0.748
					c1.911,0,3.46-1.549,3.46-3.46c0-0.692-0.205-1.335-0.556-1.876c0.576-0.618,0.932-1.445,0.932-2.356
					c0-0.729-0.227-1.404-0.609-1.961c0.213-0.376,0.338-0.809,0.338-1.273c0-0.001,0-0.001,0-0.002
					c0.133,0.596,0.473,1.113,0.94,1.474c-0.213,0.449-0.336,0.949-0.336,1.479c0,0.721,0.221,1.39,0.599,1.944
					c-0.492,0.597-0.787,1.362-0.787,2.195c0,1.911,1.549,3.46,3.461,3.46c0.512,0,0.996-0.115,1.435-0.314
					c0.146,0.019,0.295,0.032,0.446,0.032c0.502,0,0.979-0.11,1.41-0.303c0.922,0.776,2.113,1.243,3.414,1.243
					c1.41,0,2.692-0.551,3.644-1.448c0.38,0.143,0.79,0.225,1.22,0.225c1.911,0,3.46-1.549,3.46-3.459
					c0-0.482-0.099-0.941-0.276-1.358C113.881,102.968,114.531,101.588,114.531,100.055"/>
				<path clip-path="url(#SVGID_26_)" fill="none" stroke="#9B7BB6" stroke-width="0.188" stroke-miterlimit="10" d="M77.715,95.893
					c0,0,2.187,1.129,3.315,0.188c1.128-0.94,0.681-2.892,0.681-2.892"/>
				<path clip-path="url(#SVGID_26_)" fill="none" stroke="#9B7BB6" stroke-width="0.188" stroke-miterlimit="10" d="M91.611,95.117
					c0,0-0.906-0.124-1.001,1.22c-0.094,1.343,1.565,1.766,1.565,1.766"/>
				<path clip-path="url(#SVGID_26_)" fill="none" stroke="#9B7BB6" stroke-width="0.188" stroke-miterlimit="10" d="
					M86.023,102.116c0,0,1.301-0.217,1.827,0.247s0.762,1.177,0.762,1.177"/>
				<path clip-path="url(#SVGID_26_)" fill="none" stroke="#9B7BB6" stroke-width="0.188" stroke-miterlimit="10" d="M87.309,89.803
					c0,0,0.234,1.035,0.941,1.505c0.704,0.47,1.809,0.588,1.809,0.588"/>
				<path clip-path="url(#SVGID_26_)" fill="none" stroke="#9B7BB6" stroke-width="0.188" stroke-miterlimit="10" d="M76.137,95.458
					c0,0,0.626-0.083,1.492,0.372s0.469,2.046,0.469,2.046"/>
				<path clip-path="url(#SVGID_26_)" fill="none" stroke="#9B7BB6" stroke-width="0.188" stroke-miterlimit="10" d="M84.486,96.622
					c0,0,0.564-0.894,1.67-0.823s1.504,0.917,1.504,0.917"/>
				<path clip-path="url(#SVGID_26_)" fill="none" stroke="#9B7BB6" stroke-width="0.188" stroke-miterlimit="10" d="M88.742,94.129
					c0,0-1.151-0.118-1.717,0.353c-0.563,0.47-0.492,1.411-0.492,1.411"/>
				<path clip-path="url(#SVGID_26_)" fill="none" stroke="#9B7BB6" stroke-width="0.188" stroke-miterlimit="10" d="
					M87.854,102.269c0,0-0.064-0.943,0.783-1.669c0.847-0.725,2.352-0.677,2.352-0.677"/>
				<path clip-path="url(#SVGID_26_)" fill="none" stroke="#9B7BB6" stroke-width="0.188" stroke-miterlimit="10" d="
					M79.783,105.769c0,0-0.094,1.129,0.823,1.599c0.917,0.47,2.414-0.431,2.414-0.431"/>
				<path clip-path="url(#SVGID_26_)" fill="none" stroke="#9B7BB6" stroke-width="0.188" stroke-miterlimit="10" d="
					M79.854,102.806c0,0,1.199,0.094,1.67-0.447s0.236-1.857,0.236-1.857"/>
				<path clip-path="url(#SVGID_26_)" fill="none" stroke="#9B7BB6" stroke-width="0.188" stroke-miterlimit="10" d="M77.221,104.83
					c0,0,0.666-0.849,0.256-1.913s-1.455-1.274-1.455-1.274"/>
				<path clip-path="url(#SVGID_26_)" fill="none" stroke="#9B7BB6" stroke-width="0.188" stroke-miterlimit="10" d="
					M88.848,106.712c0,0,0.199-1.299,1.623-2.092c1.422-0.792,2.554-0.252,2.554-0.252"/>
				<path clip-path="url(#SVGID_26_)" fill="none" stroke="#9B7BB6" stroke-width="0.188" stroke-miterlimit="10" d="M81.383,107.65
					c0,0,0.541,1.34,1.787,1.458"/>
				<path clip-path="url(#SVGID_26_)" fill="none" stroke="#9B7BB6" stroke-width="0.188" stroke-miterlimit="10" d="
					M81.641,102.195c0,0,0.776-0.282,1.787,0.823c1.012,1.105,0.541,2.563,0.541,2.563"/>
				<path clip-path="url(#SVGID_26_)" fill="none" stroke="#9B7BB6" stroke-width="0.188" stroke-miterlimit="10" d="M88.131,91.229
					c0,0-0.47,1.411-1.379,1.662c-0.91,0.251-1.725-0.565-1.725-0.565"/>
				<path clip-path="url(#SVGID_26_)" fill="none" stroke="#9B7BB6" stroke-width="0.188" stroke-miterlimit="10" d="M80.826,96.246
					c0,0-0.658,1.38-0.251,2.195s1.944,0.533,1.944,0.533"/>
				<path clip-path="url(#SVGID_26_)" fill="none" stroke="#9B7BB6" stroke-width="0.188" stroke-miterlimit="10" d="
					M77.252,102.547c0,0,1.035-0.47,1.16-1.254s-0.533-1.505-0.533-1.505"/>
				<path clip-path="url(#SVGID_26_)" fill="none" stroke="#9B7BB6" stroke-width="0.188" stroke-miterlimit="10" d="M84.98,99.021
					c0,0,0.658,0.894,1.834,0.517c1.176-0.376,1.035-1.458,1.035-1.458"/>
				<path clip-path="url(#SVGID_26_)" fill="none" stroke="#9B7BB6" stroke-width="0.188" stroke-miterlimit="10" d="M85.779,99.679
					c0,0-1.035,0-1.363,0.988c-0.329,0.987,0.423,1.693,0.423,1.693"/>
				<path clip-path="url(#SVGID_26_)" fill="none" stroke="#9B7BB6" stroke-width="0.188" stroke-miterlimit="10" d="
					M109.957,95.893c0,0-2.188,1.129-3.316,0.188c-1.129-0.94-0.682-2.892-0.682-2.892"/>
				<path clip-path="url(#SVGID_26_)" fill="none" stroke="#9B7BB6" stroke-width="0.188" stroke-miterlimit="10" d="M96.105,91.308
					c0,0,0.908-0.124,1.002,1.22c0.094,1.343-1.565,1.766-1.565,1.766"/>
				<path clip-path="url(#SVGID_26_)" fill="none" stroke="#9B7BB6" stroke-width="0.188" stroke-miterlimit="10" d="
					M100.612,100.329c0,0-1.301-0.217-1.827,0.247c-0.525,0.464-0.762,1.177-0.762,1.177"/>
				<path clip-path="url(#SVGID_26_)" fill="none" stroke="#9B7BB6" stroke-width="0.188" stroke-miterlimit="10" d="
					M100.362,89.803c0,0-0.235,1.035-0.94,1.505c-0.705,0.47-1.811,0.588-1.811,0.588"/>
				<path clip-path="url(#SVGID_26_)" fill="none" stroke="#9B7BB6" stroke-width="0.188" stroke-miterlimit="10" d="
					M111.533,95.458c0,0-0.625-0.083-1.492,0.372c-0.865,0.455-0.469,2.046-0.469,2.046"/>
				<path clip-path="url(#SVGID_26_)" fill="none" stroke="#9B7BB6" stroke-width="0.188" stroke-miterlimit="10" d="
					M103.184,96.622c0,0-0.563-0.894-1.67-0.823c-1.104,0.071-1.504,0.917-1.504,0.917"/>
				<path clip-path="url(#SVGID_26_)" fill="none" stroke="#9B7BB6" stroke-width="0.188" stroke-miterlimit="10" d="M98.928,94.129
					c0,0,1.152-0.118,1.717,0.353c0.564,0.47,0.493,1.411,0.493,1.411"/>
				<path clip-path="url(#SVGID_26_)" fill="none" stroke="#9B7BB6" stroke-width="0.188" stroke-miterlimit="10" d="
					M98.782,100.482c0,0,0.063-0.943-0.782-1.669c-0.848-0.725-2.352-0.677-2.352-0.677"/>
				<path clip-path="url(#SVGID_26_)" fill="none" stroke="#9B7BB6" stroke-width="0.188" stroke-miterlimit="10" d="
					M107.887,105.769c0,0,0.094,1.129-0.822,1.599c-0.918,0.47-2.414-0.431-2.414-0.431"/>
				<path clip-path="url(#SVGID_26_)" fill="none" stroke="#9B7BB6" stroke-width="0.188" stroke-miterlimit="10" d="
					M107.816,102.806c0,0-1.199,0.094-1.67-0.447s-0.234-1.857-0.234-1.857"/>
				<path clip-path="url(#SVGID_26_)" fill="none" stroke="#9B7BB6" stroke-width="0.188" stroke-miterlimit="10" d="
					M111.509,104.995c0,0-0.666-0.849-0.256-1.913c0.409-1.064,1.454-1.274,1.454-1.274"/>
				<path clip-path="url(#SVGID_26_)" fill="none" stroke="#9B7BB6" stroke-width="0.188" stroke-miterlimit="10" d="
					M102.285,106.587c0,0-0.794-1.048-2.422-1.068c-1.629-0.02-2.368,0.993-2.368,0.993"/>
				<path clip-path="url(#SVGID_26_)" fill="none" stroke="#9B7BB6" stroke-width="0.188" stroke-miterlimit="10" d="
					M106.288,107.65c0,0-0.541,1.34-1.787,1.458"/>
				<path clip-path="url(#SVGID_26_)" fill="none" stroke="#9B7BB6" stroke-width="0.188" stroke-miterlimit="10" d="
					M106.029,102.195c0,0-0.775-0.282-1.787,0.823c-1.011,1.105-0.541,2.563-0.541,2.563"/>
				<path clip-path="url(#SVGID_26_)" fill="none" stroke="#9B7BB6" stroke-width="0.188" stroke-miterlimit="10" d="M99.539,91.229
					c0,0,0.471,1.411,1.381,1.662c0.908,0.251,1.723-0.565,1.723-0.565"/>
				<path clip-path="url(#SVGID_26_)" fill="none" stroke="#9B7BB6" stroke-width="0.188" stroke-miterlimit="10" d="
					M106.845,96.246c0,0,0.657,1.38,0.251,2.195c-0.408,0.815-1.944,0.533-1.944,0.533"/>
				<path clip-path="url(#SVGID_26_)" fill="none" stroke="#9B7BB6" stroke-width="0.188" stroke-miterlimit="10" d="
					M110.419,102.547c0,0-1.035-0.47-1.16-1.254s0.532-1.505,0.532-1.505"/>
				<path clip-path="url(#SVGID_26_)" fill="none" stroke="#9B7BB6" stroke-width="0.188" stroke-miterlimit="10" d="
					M103.631,100.948c0,0-0.658,0.894-1.834,0.517c-1.176-0.376-1.035-1.458-1.035-1.458"/>
				<path clip-path="url(#SVGID_26_)" fill="none" stroke="#9B7BB6" stroke-width="0.188" stroke-miterlimit="10" d="
					M99.116,102.688c0,0,1.034,0,1.364,0.988c0.328,0.987-0.424,1.693-0.424,1.693"/>
			</g>
		</g>
		<path clip-path="url(#SVGID_20_)" fill="#FFFFFF" d="M83.604,93.49c0,0.318-0.259,0.576-0.576,0.576s-0.575-0.258-0.575-0.576
			c0-0.318,0.258-0.576,0.575-0.576S83.604,93.172,83.604,93.49"/>
		<path clip-path="url(#SVGID_20_)" fill="#FFFFFF" d="M83.604,96.888c0,0.318-0.259,0.576-0.576,0.576s-0.575-0.258-0.575-0.576
			c0-0.318,0.258-0.576,0.575-0.576S83.604,96.569,83.604,96.888"/>
		<path clip-path="url(#SVGID_20_)" fill="#FFFFFF" d="M80.239,96.888c0,0.318-0.258,0.576-0.575,0.576
			c-0.318,0-0.576-0.258-0.576-0.576c0-0.318,0.258-0.576,0.576-0.576C79.981,96.312,80.239,96.569,80.239,96.888"/>
		<path clip-path="url(#SVGID_20_)" fill="#FFFFFF" d="M90.357,90.324c0,0.318-0.258,0.576-0.576,0.576
			c-0.316,0-0.574-0.258-0.574-0.576c0-0.318,0.258-0.576,0.574-0.576C90.1,89.748,90.357,90.006,90.357,90.324"/>
		<path clip-path="url(#SVGID_20_)" fill="#FFFFFF" d="M90.357,93.537c0,0.318-0.258,0.576-0.576,0.576
			c-0.316,0-0.574-0.258-0.574-0.576s0.258-0.576,0.574-0.576C90.1,92.961,90.357,93.219,90.357,93.537"/>
		<path clip-path="url(#SVGID_20_)" fill="#FFFFFF" d="M93.721,93.537c0,0.318-0.258,0.576-0.576,0.576s-0.574-0.258-0.574-0.576
			s0.256-0.576,0.574-0.576S93.721,93.219,93.721,93.537"/>
		<path clip-path="url(#SVGID_20_)" fill="#FFFFFF" d="M93.721,90.324c0,0.318-0.258,0.576-0.576,0.576s-0.574-0.258-0.574-0.576
			c0-0.318,0.256-0.576,0.574-0.576S93.721,90.006,93.721,90.324"/>
		<path clip-path="url(#SVGID_20_)" fill="#FFFFFF" d="M93.721,96.935c0,0.318-0.258,0.576-0.576,0.576s-0.574-0.258-0.574-0.576
			s0.256-0.576,0.574-0.576S93.721,96.617,93.721,96.935"/>
		<path clip-path="url(#SVGID_20_)" fill="#FFFFFF" d="M90.357,96.935c0,0.318-0.258,0.576-0.576,0.576
			c-0.316,0-0.574-0.258-0.574-0.576s0.258-0.576,0.574-0.576C90.1,96.358,90.357,96.617,90.357,96.935"/>
		<path clip-path="url(#SVGID_20_)" fill="#FFFFFF" d="M86.963,96.935c0,0.318-0.258,0.576-0.576,0.576s-0.575-0.258-0.575-0.576
			s0.257-0.576,0.575-0.576S86.963,96.617,86.963,96.935"/>
		<path clip-path="url(#SVGID_20_)" fill="#FFFFFF" d="M86.963,93.537c0,0.318-0.258,0.576-0.576,0.576s-0.575-0.258-0.575-0.576
			s0.257-0.576,0.575-0.576S86.963,93.219,86.963,93.537"/>
		<path clip-path="url(#SVGID_20_)" fill="#FFFFFF" d="M80.239,99.95c0,0.318-0.258,0.576-0.575,0.576
			c-0.318,0-0.576-0.258-0.576-0.576c0-0.318,0.258-0.576,0.576-0.576C79.981,99.375,80.239,99.632,80.239,99.95"/>
		<path clip-path="url(#SVGID_20_)" fill="#FFFFFF" d="M80.239,103.331c0,0.318-0.258,0.576-0.575,0.576
			c-0.318,0-0.576-0.258-0.576-0.576c0-0.318,0.258-0.576,0.576-0.576C79.981,102.755,80.239,103.013,80.239,103.331"/>
		<path clip-path="url(#SVGID_20_)" fill="#FFFFFF" d="M83.604,103.331c0,0.318-0.259,0.576-0.576,0.576s-0.575-0.258-0.575-0.576
			c0-0.318,0.258-0.576,0.575-0.576S83.604,103.013,83.604,103.331"/>
		<path clip-path="url(#SVGID_20_)" fill="#FFFFFF" d="M83.604,99.95c0,0.318-0.259,0.576-0.576,0.576s-0.575-0.258-0.575-0.576
			c0-0.318,0.258-0.576,0.575-0.576S83.604,99.632,83.604,99.95"/>
		<path clip-path="url(#SVGID_20_)" fill="#FFFFFF" d="M83.604,106.728c0,0.318-0.259,0.576-0.576,0.576s-0.575-0.258-0.575-0.576
			c0-0.318,0.258-0.576,0.575-0.576S83.604,106.41,83.604,106.728"/>
		<path clip-path="url(#SVGID_20_)" fill="#FFFFFF" d="M80.239,106.728c0,0.318-0.258,0.576-0.575,0.576
			c-0.318,0-0.576-0.258-0.576-0.576c0-0.318,0.258-0.576,0.576-0.576C79.981,106.152,80.239,106.41,80.239,106.728"/>
		<path clip-path="url(#SVGID_20_)" fill="#FFFFFF" d="M86.963,99.997c0,0.318-0.258,0.576-0.576,0.576s-0.575-0.258-0.575-0.576
			c0-0.318,0.257-0.576,0.575-0.576S86.963,99.679,86.963,99.997"/>
		<path clip-path="url(#SVGID_20_)" fill="#FFFFFF" d="M90.357,99.997c0,0.318-0.258,0.576-0.576,0.576
			c-0.316,0-0.574-0.258-0.574-0.576c0-0.318,0.258-0.576,0.574-0.576C90.1,99.421,90.357,99.679,90.357,99.997"/>
		<path clip-path="url(#SVGID_20_)" fill="#FFFFFF" d="M90.357,103.378c0,0.318-0.258,0.576-0.576,0.576
			c-0.316,0-0.574-0.258-0.574-0.576c0-0.318,0.258-0.576,0.574-0.576C90.1,102.802,90.357,103.06,90.357,103.378"/>
		<path clip-path="url(#SVGID_20_)" fill="#FFFFFF" d="M93.721,103.378c0,0.318-0.258,0.576-0.576,0.576s-0.574-0.258-0.574-0.576
			c0-0.318,0.256-0.576,0.574-0.576S93.721,103.06,93.721,103.378"/>
		<path clip-path="url(#SVGID_20_)" fill="#FFFFFF" d="M93.721,99.997c0,0.318-0.258,0.576-0.576,0.576s-0.574-0.258-0.574-0.576
			c0-0.318,0.256-0.576,0.574-0.576S93.721,99.679,93.721,99.997"/>
		<path clip-path="url(#SVGID_20_)" fill="#FFFFFF" d="M93.721,106.775c0,0.318-0.258,0.576-0.576,0.576s-0.574-0.258-0.574-0.576
			c0-0.318,0.256-0.576,0.574-0.576S93.721,106.457,93.721,106.775"/>
		<path clip-path="url(#SVGID_20_)" fill="#FFFFFF" d="M90.357,106.775c0,0.318-0.258,0.576-0.576,0.576
			c-0.316,0-0.574-0.258-0.574-0.576c0-0.318,0.258-0.576,0.574-0.576C90.1,106.199,90.357,106.457,90.357,106.775"/>
		<path clip-path="url(#SVGID_20_)" fill="#FFFFFF" d="M86.963,106.775c0,0.318-0.258,0.576-0.576,0.576s-0.575-0.258-0.575-0.576
			c0-0.318,0.257-0.576,0.575-0.576S86.963,106.457,86.963,106.775"/>
		<path clip-path="url(#SVGID_20_)" fill="#FFFFFF" d="M86.963,103.378c0,0.318-0.258,0.576-0.576,0.576s-0.575-0.258-0.575-0.576
			c0-0.318,0.257-0.576,0.575-0.576S86.963,103.06,86.963,103.378"/>
		<path clip-path="url(#SVGID_20_)" fill="#FFFFFF" d="M97.033,90.324c0,0.318-0.258,0.576-0.576,0.576
			c-0.317,0-0.574-0.258-0.574-0.576c0-0.318,0.257-0.576,0.574-0.576C96.775,89.748,97.033,90.006,97.033,90.324"/>
		<path clip-path="url(#SVGID_20_)" fill="#FFFFFF" d="M100.428,90.324c0,0.318-0.258,0.576-0.575,0.576s-0.575-0.258-0.575-0.576
			c0-0.318,0.258-0.576,0.575-0.576S100.428,90.006,100.428,90.324"/>
		<path clip-path="url(#SVGID_20_)" fill="#FFFFFF" d="M100.428,93.346c0,0.318-0.258,0.576-0.575,0.576s-0.575-0.258-0.575-0.576
			c0-0.318,0.258-0.576,0.575-0.576S100.428,93.028,100.428,93.346"/>
		<path clip-path="url(#SVGID_20_)" fill="#FFFFFF" d="M103.792,93.346c0,0.318-0.259,0.576-0.576,0.576s-0.575-0.258-0.575-0.576
			c0-0.318,0.258-0.576,0.575-0.576S103.792,93.028,103.792,93.346"/>
		<path clip-path="url(#SVGID_20_)" fill="#FFFFFF" d="M103.792,96.743c0,0.318-0.259,0.576-0.576,0.576s-0.575-0.258-0.575-0.576
			s0.258-0.576,0.575-0.576S103.792,96.425,103.792,96.743"/>
		<path clip-path="url(#SVGID_20_)" fill="#FFFFFF" d="M100.428,96.743c0,0.318-0.258,0.576-0.575,0.576s-0.575-0.258-0.575-0.576
			s0.258-0.576,0.575-0.576S100.428,96.425,100.428,96.743"/>
		<path clip-path="url(#SVGID_20_)" fill="#FFFFFF" d="M97.033,96.743c0,0.318-0.258,0.576-0.576,0.576
			c-0.317,0-0.574-0.258-0.574-0.576s0.257-0.576,0.574-0.576C96.775,96.167,97.033,96.425,97.033,96.743"/>
		<path clip-path="url(#SVGID_20_)" fill="#FFFFFF" d="M97.033,93.346c0,0.318-0.258,0.576-0.576,0.576
			c-0.317,0-0.574-0.258-0.574-0.576c0-0.318,0.257-0.576,0.574-0.576C96.775,92.77,97.033,93.028,97.033,93.346"/>
		<path clip-path="url(#SVGID_20_)" fill="#FFFFFF" d="M110.547,96.79c0,0.318-0.259,0.576-0.576,0.576s-0.576-0.258-0.576-0.576
			c0-0.318,0.259-0.576,0.576-0.576S110.547,96.472,110.547,96.79"/>
		<path clip-path="url(#SVGID_20_)" fill="#FFFFFF" d="M107.151,96.79c0,0.318-0.258,0.576-0.576,0.576
			c-0.317,0-0.575-0.258-0.575-0.576c0-0.318,0.258-0.576,0.575-0.576C106.894,96.214,107.151,96.472,107.151,96.79"/>
		<path clip-path="url(#SVGID_20_)" fill="#FFFFFF" d="M107.151,93.393c0,0.318-0.258,0.576-0.576,0.576
			c-0.317,0-0.575-0.258-0.575-0.576c0-0.318,0.258-0.576,0.575-0.576C106.894,92.817,107.151,93.075,107.151,93.393"/>
		<path clip-path="url(#SVGID_20_)" fill="#FFFFFF" d="M97.033,99.806c0,0.318-0.258,0.576-0.576,0.576
			c-0.317,0-0.574-0.258-0.574-0.576c0-0.318,0.257-0.576,0.574-0.576C96.775,99.23,97.033,99.488,97.033,99.806"/>
		<path clip-path="url(#SVGID_20_)" fill="#FFFFFF" d="M100.428,99.806c0,0.318-0.258,0.576-0.575,0.576s-0.575-0.258-0.575-0.576
			c0-0.318,0.258-0.576,0.575-0.576S100.428,99.488,100.428,99.806"/>
		<path clip-path="url(#SVGID_20_)" fill="#FFFFFF" d="M100.428,103.187c0,0.318-0.258,0.576-0.575,0.576s-0.575-0.258-0.575-0.576
			c0-0.318,0.258-0.576,0.575-0.576S100.428,102.868,100.428,103.187"/>
		<path clip-path="url(#SVGID_20_)" fill="#FFFFFF" d="M103.792,103.187c0,0.318-0.259,0.576-0.576,0.576s-0.575-0.258-0.575-0.576
			c0-0.318,0.258-0.576,0.575-0.576S103.792,102.868,103.792,103.187"/>
		<path clip-path="url(#SVGID_20_)" fill="#FFFFFF" d="M103.792,99.806c0,0.318-0.259,0.576-0.576,0.576s-0.575-0.258-0.575-0.576
			c0-0.318,0.258-0.576,0.575-0.576S103.792,99.488,103.792,99.806"/>
		<path clip-path="url(#SVGID_20_)" fill="#FFFFFF" d="M103.792,106.584c0,0.318-0.259,0.576-0.576,0.576s-0.575-0.258-0.575-0.576
			s0.258-0.576,0.575-0.576S103.792,106.266,103.792,106.584"/>
		<path clip-path="url(#SVGID_20_)" fill="#FFFFFF" d="M100.428,106.584c0,0.318-0.258,0.576-0.575,0.576s-0.575-0.258-0.575-0.576
			s0.258-0.576,0.575-0.576S100.428,106.266,100.428,106.584"/>
		<path clip-path="url(#SVGID_20_)" fill="#FFFFFF" d="M97.033,106.584c0,0.318-0.258,0.576-0.576,0.576
			c-0.317,0-0.574-0.258-0.574-0.576s0.257-0.576,0.574-0.576C96.775,106.008,97.033,106.266,97.033,106.584"/>
		<path clip-path="url(#SVGID_20_)" fill="#FFFFFF" d="M97.033,103.187c0,0.318-0.258,0.576-0.576,0.576
			c-0.317,0-0.574-0.258-0.574-0.576c0-0.318,0.257-0.576,0.574-0.576C96.775,102.61,97.033,102.868,97.033,103.187"/>
		<path clip-path="url(#SVGID_20_)" fill="#FFFFFF" d="M107.151,99.853c0,0.318-0.258,0.576-0.576,0.576
			c-0.317,0-0.575-0.258-0.575-0.576c0-0.318,0.258-0.576,0.575-0.576C106.894,99.277,107.151,99.535,107.151,99.853"/>
		<path clip-path="url(#SVGID_20_)" fill="#FFFFFF" d="M110.547,99.853c0,0.318-0.259,0.576-0.576,0.576s-0.576-0.258-0.576-0.576
			c0-0.318,0.259-0.576,0.576-0.576S110.547,99.535,110.547,99.853"/>
		<path clip-path="url(#SVGID_20_)" fill="#FFFFFF" d="M110.547,103.233c0,0.318-0.259,0.576-0.576,0.576s-0.576-0.258-0.576-0.576
			s0.259-0.576,0.576-0.576S110.547,102.916,110.547,103.233"/>
		<path clip-path="url(#SVGID_20_)" fill="#FFFFFF" d="M110.547,106.631c0,0.318-0.259,0.576-0.576,0.576s-0.576-0.258-0.576-0.576
			s0.259-0.576,0.576-0.576S110.547,106.313,110.547,106.631"/>
		<path clip-path="url(#SVGID_20_)" fill="#FFFFFF" d="M107.151,106.631c0,0.318-0.258,0.576-0.576,0.576
			c-0.317,0-0.575-0.258-0.575-0.576s0.258-0.576,0.575-0.576C106.894,106.055,107.151,106.313,107.151,106.631"/>
		<path clip-path="url(#SVGID_20_)" fill="#FFFFFF" d="M107.151,103.233c0,0.318-0.258,0.576-0.576,0.576
			c-0.317,0-0.575-0.258-0.575-0.576s0.258-0.576,0.575-0.576C106.894,102.657,107.151,102.916,107.151,103.233"/>
		
			<line clip-path="url(#SVGID_20_)" fill="none" stroke="#FFFFFF" stroke-width="0.443" stroke-miterlimit="10" x1="89.99" y1="89.217" x2="93.418" y2="72.554"/>
		
			<line clip-path="url(#SVGID_20_)" fill="none" stroke="#FFFFFF" stroke-width="0.443" stroke-miterlimit="10" x1="93.021" y1="89.069" x2="93.916" y2="72.554"/>
		
			<line clip-path="url(#SVGID_20_)" fill="none" stroke="#FFFFFF" stroke-width="0.443" stroke-miterlimit="10" x1="96.301" y1="89.027" x2="94.43" y2="72.803"/>
		
			<line clip-path="url(#SVGID_20_)" fill="none" stroke="#FFFFFF" stroke-width="0.443" stroke-miterlimit="10" x1="99.201" y1="88.884" x2="94.951" y2="73.062"/>
		<path clip-path="url(#SVGID_20_)" fill="none" stroke="#FFFFFF" stroke-width="2.217" stroke-miterlimit="10" d="M94.203,73.104
			c0,0,2.217-12.639,20.252-9.535s17.888,15.818,21.436,43.905c3.547,28.087,29.812,46.22,29.812,46.22"/>
	</g>
	<path fill="none" stroke="#86754D" stroke-width="0.872" stroke-miterlimit="10" d="M90.938,92.705
		c0,1.079-0.875,1.954-1.955,1.954s-1.955-0.875-1.955-1.954s0.875-1.954,1.955-1.954c0.653,0,1.232,0.32,1.588,0.813
		C90.801,91.885,90.938,92.279,90.938,92.705z"/>
	<path fill="none" stroke="#86754D" stroke-width="0.872" stroke-miterlimit="10" d="M143.541,125.219
		c0,1.079-0.875,1.954-1.953,1.954c-1.08,0-1.955-0.875-1.955-1.954s0.875-1.954,1.955-1.954c0.652,0,1.231,0.32,1.586,0.813
		C143.405,124.399,143.541,124.793,143.541,125.219z"/>
	<polyline fill="none" stroke="#86754D" stroke-width="0.872" stroke-miterlimit="10" points="170.352,77.084 156.598,92.968 
		90.937,92.705 	"/>
	<polyline fill="none" stroke="#86754D" stroke-width="0.872" stroke-miterlimit="10" points="194.516,135.146 184.201,124.783 
		143.912,124.783 	"/>
	<path fill="none" stroke="#FFFFFF" stroke-width="1.725" stroke-miterlimit="10" d="M219.062,192.374c0,0,0.207,0.945,0.855,2.437"
		/>
	<path fill="none" stroke="#FFFFFF" stroke-width="1.725" stroke-miterlimit="10" stroke-dasharray="5.132,5.132" d="
		M222.462,199.256c1.993,2.785,5.088,5.969,9.821,8.64c11.209,6.323,37.078,7.473,37.078,7.473s32.767-5.749,54.323-14.945
		c21.558-9.198,41.964-20.409,54.611-30.468c9.511-7.565,22.436-24.072,28.261-31.792"/>
	<path fill="none" stroke="#FFFFFF" stroke-width="1.725" stroke-miterlimit="10" d="M408.095,136.108
		c0.979-1.317,1.53-2.081,1.53-2.081"/>
	<g>
		<defs>
			<path id="SVGID_27_" d="M279.239,127.743c0,40.116,32.521,72.637,72.638,72.637c40.117,0,72.64-32.521,72.64-72.637
				c0-40.118-32.522-72.638-72.64-72.638C311.761,55.105,279.239,87.625,279.239,127.743"/>
		</defs>
		<clipPath id="SVGID_28_">
			<use xlink:href="#SVGID_27_"  overflow="visible"/>
		</clipPath>
		<path clip-path="url(#SVGID_28_)" fill="#D0D2D3" d="M394.093,116.155c2.051,4.451,0.104,9.722-4.348,11.772
			c-4.451,2.05-9.722,0.104-11.772-4.348c-2.05-4.451-0.103-9.721,4.349-11.772C386.772,109.757,392.043,111.704,394.093,116.155"/>
		<path clip-path="url(#SVGID_28_)" fill="#808184" d="M357.578,103.078c1.061,2.302,0.055,5.027-2.248,6.087
			c-2.302,1.06-5.026,0.054-6.087-2.248c-1.061-2.302-0.054-5.027,2.248-6.087S356.519,100.776,357.578,103.078"/>
		<path clip-path="url(#SVGID_28_)" fill="#808184" d="M338.274,105.156c0.454,0.985,0.022,2.152-0.962,2.605
			c-0.985,0.454-2.152,0.023-2.606-0.962c-0.453-0.985-0.022-2.151,0.963-2.605C336.654,103.74,337.82,104.171,338.274,105.156"/>
		<path clip-path="url(#SVGID_28_)" fill="#D0D2D3" d="M371.45,109.872l-25.812,1.067l-7.021,3.684c0,0,3.526,2.434,5.135,5.601
			c1.609,3.167-0.653,7.065-0.653,7.065s-2.234,2.983-1.397,5.453c0.838,2.47,5.796,2.14,6.424,3.504
			c0.628,1.364,0.009,1.65,0.855,3.815c0.847,2.165,4.078,4.284,4.078,4.284s0.779,2.346,1.779,3.539
			c1,1.192,2.755,1.737,2.755,1.737l14.153-5.166l9.229-9.661L371.45,109.872z"/>
		
			<rect x="333.593" y="118.557" transform="matrix(0.9083 -0.4184 0.4184 0.9083 -20.0706 152.5296)" clip-path="url(#SVGID_28_)" fill="#808184" width="8.464" height="6.963"/>
		
			<rect x="319.872" y="123.728" transform="matrix(0.9083 -0.4183 0.4183 0.9083 -23.2495 148.3662)" clip-path="url(#SVGID_28_)" fill="#808184" width="13.777" height="6.962"/>
		<polygon clip-path="url(#SVGID_28_)" fill="#BBBDBF" points="341.762,147.88 328.936,150.872 326.022,144.547 338.849,141.557 		
			"/>
		<polygon clip-path="url(#SVGID_28_)" fill="#BBBDBF" points="349.041,154.222 339.539,156.434 336.626,150.11 346.128,147.898 		
			"/>
		<polygon clip-path="url(#SVGID_28_)" fill="#BBBDBF" points="336.405,138.699 323.168,143.082 320.979,138.139 333.492,132.375 		
			"/>
		<polygon clip-path="url(#SVGID_28_)" fill="#808184" points="314.927,134.652 306.244,137.5 304.23,133.128 312.913,130.28 		"/>
		<polygon clip-path="url(#SVGID_28_)" fill="#BBBDBF" points="318.619,144.3 311.255,142.671 309.242,138.299 316.605,139.928 		
			"/>
		<polygon clip-path="url(#SVGID_28_)" fill="#BBBDBF" points="324.248,151.627 316.98,148.412 314.968,144.04 322.234,147.255 		
			"/>
		<polygon clip-path="url(#SVGID_28_)" fill="#BBBDBF" points="335.176,157.566 331.106,156.073 329.093,151.701 333.161,153.194 		
			"/>
		
			<rect x="333.593" y="120.69" transform="matrix(0.9083 -0.4184 0.4184 0.9083 -20.0705 152.5298)" clip-path="url(#SVGID_28_)" fill="#BBBDBF" width="8.464" height="2.695"/>
		
			<rect x="314.632" y="129.918" transform="matrix(0.9082 -0.4184 0.4184 0.9082 -25.7978 144.882)" clip-path="url(#SVGID_28_)" fill="#BBBDBF" width="5.664" height="2.695"/>
		
			<rect x="318.08" y="139.967" transform="matrix(0.9083 -0.4184 0.4184 0.9083 -29.7897 146.7504)" clip-path="url(#SVGID_28_)" fill="#808184" width="3.426" height="2.696"/>
		
			<rect x="323.714" y="147.142" transform="matrix(0.9082 -0.4185 0.4185 0.9082 -32.2743 149.8083)" clip-path="url(#SVGID_28_)" fill="#808184" width="3.425" height="2.695"/>
		
			<rect x="334.38" y="152.676" transform="matrix(0.9083 -0.4184 0.4184 0.9083 -33.6115 154.7313)" clip-path="url(#SVGID_28_)" fill="#808184" width="3.424" height="2.695"/>
		
			<rect x="298.709" y="134.345" transform="matrix(0.9083 -0.4183 0.4183 0.9083 -29.5147 138.7764)" clip-path="url(#SVGID_28_)" fill="#808184" width="6.109" height="4.721"/>
		
			<rect x="335.774" y="130.523" transform="matrix(0.9083 -0.4183 0.4183 0.9083 -25.0363 153.8042)" clip-path="url(#SVGID_28_)" fill="#808184" width="5.005" height="6.962"/>
		
			<rect x="335.775" y="132.664" transform="matrix(0.9083 -0.4184 0.4184 0.9083 -25.0401 153.8108)" clip-path="url(#SVGID_28_)" fill="#BBBDBF" width="4.969" height="2.695"/>
		
			<rect x="340.85" y="139.292" transform="matrix(0.9083 -0.4183 0.4183 0.9083 -28.1173 157.275)" clip-path="url(#SVGID_28_)" fill="#808184" width="7.681" height="6.963"/>
		
			<rect x="340.851" y="141.429" transform="matrix(0.9083 -0.4183 0.4183 0.9083 -28.1184 157.2919)" clip-path="url(#SVGID_28_)" fill="#BBBDBF" width="7.666" height="2.695"/>
		
			<rect x="348.002" y="145.884" transform="matrix(0.9083 -0.4184 0.4184 0.9083 -30.301 160.5228)" clip-path="url(#SVGID_28_)" fill="#808184" width="5.87" height="6.963"/>
		
			<rect x="348.002" y="148.018" transform="matrix(0.9083 -0.4184 0.4184 0.9083 -30.3008 160.523)" clip-path="url(#SVGID_28_)" fill="#BBBDBF" width="5.87" height="2.695"/>
		
			<rect x="338.882" y="103.244" transform="matrix(0.9926 -0.1214 0.1214 0.9926 -10.2349 42.4879)" clip-path="url(#SVGID_28_)" fill="#808184" width="9.249" height="3.959"/>
		<polygon clip-path="url(#SVGID_28_)" fill="#808184" points="334.821,108.724 328.549,109.887 327.268,106.358 333.364,103.925 		
			"/>
		<polygon clip-path="url(#SVGID_28_)" fill="#808184" points="326.907,109.867 321.896,109.785 321.549,107.337 326.653,106.575 		
			"/>
		<polygon clip-path="url(#SVGID_28_)" fill="#D0D2D3" points="408.33,100.296 439.178,90.739 447.058,124.159 438.06,125.682 
			424.433,127.75 414.982,129.096 		"/>
		<polygon clip-path="url(#SVGID_28_)" fill="#D0D2D3" points="408.33,100.296 393.716,110.334 397.125,125.898 414.982,129.096 		
			"/>
		<polygon clip-path="url(#SVGID_28_)" fill="#808184" points="408.33,100.296 439.178,90.739 443.011,106.995 411.588,114.404 
			411.589,114.404 		"/>
		<polygon clip-path="url(#SVGID_28_)" fill="#808184" points="408.33,100.296 393.716,110.334 395.438,118.212 411.588,114.404 		
			"/>
		<path clip-path="url(#SVGID_28_)" fill="#808184" d="M394.093,116.155c0.374,0.811,0.614,1.649,0.732,2.49l-17.206,4.044
			c-1.428-4.242,0.544-8.967,4.702-10.882C386.772,109.757,392.043,111.704,394.093,116.155"/>
		<path clip-path="url(#SVGID_28_)" fill="#808184" d="M371.45,109.872l-25.812,1.067l-7.021,3.684c0,0,3.526,2.434,5.135,5.601
			c1.609,3.167-0.653,7.065-0.653,7.065s-1.36,1.816-1.561,3.788l34.892-8.175L371.45,109.872z"/>
	</g>
	<g>
		<path fill="#86754D" d="M395.821,49.651c-0.078,0.006-0.156,0.01-0.234,0.013c-0.078,0.003-0.159,0.005-0.243,0.005
			c-0.023,0-0.059,0-0.104,0s-0.094,0-0.148,0c-0.054,0-0.104-0.001-0.152-0.005c-0.049-0.003-0.084-0.004-0.108-0.004v2.286h-1.386
			v-6.615c0.282-0.048,0.569-0.082,0.864-0.103c0.294-0.021,0.591-0.032,0.891-0.032c1.062,0,1.833,0.179,2.312,0.536
			c0.48,0.357,0.721,0.931,0.721,1.723c0,0.972-0.396,1.624-1.188,1.953l1.396,2.538h-1.485L395.821,49.651z M395.435,48.598
			c0.258,0,0.474-0.021,0.647-0.063s0.315-0.108,0.423-0.198c0.108-0.09,0.187-0.207,0.234-0.351s0.072-0.321,0.072-0.531
			c0-0.21-0.024-0.388-0.072-0.535s-0.126-0.266-0.234-0.355c-0.107-0.09-0.249-0.155-0.423-0.194
			c-0.174-0.039-0.387-0.058-0.639-0.058c-0.084,0-0.185,0.006-0.302,0.018c-0.117,0.012-0.221,0.024-0.311,0.036v2.187
			c0.084,0.012,0.18,0.022,0.288,0.032C395.228,48.594,395.332,48.598,395.435,48.598z"/>
		<path fill="#86754D" d="M401.707,52.036c-1.896,0-2.844-1.137-2.844-3.411c0-2.286,0.947-3.429,2.844-3.429
			c1.896,0,2.844,1.143,2.844,3.429C404.551,50.899,403.603,52.036,401.707,52.036z M401.707,50.893
			c0.258,0,0.477-0.039,0.657-0.117c0.18-0.078,0.326-0.207,0.44-0.387c0.114-0.18,0.196-0.414,0.248-0.702
			c0.051-0.288,0.076-0.642,0.076-1.062s-0.025-0.775-0.076-1.067c-0.052-0.291-0.134-0.528-0.248-0.711
			c-0.114-0.183-0.261-0.315-0.44-0.396c-0.181-0.081-0.399-0.122-0.657-0.122s-0.478,0.041-0.657,0.122s-0.327,0.213-0.441,0.396
			c-0.113,0.183-0.196,0.42-0.247,0.711c-0.051,0.292-0.076,0.647-0.076,1.067c0,0.414,0.025,0.765,0.076,1.053
			s0.134,0.522,0.247,0.702c0.114,0.18,0.262,0.311,0.441,0.392S401.449,50.893,401.707,50.893z"/>
		<path fill="#86754D" d="M407.467,52.036c-0.33,0-0.669-0.01-1.017-0.031s-0.684-0.056-1.008-0.104v-6.57
			c0.414-0.048,0.776-0.082,1.089-0.103c0.312-0.021,0.612-0.032,0.9-0.032c0.911,0,1.576,0.148,1.993,0.445
			c0.417,0.297,0.625,0.773,0.625,1.427c0,0.786-0.345,1.266-1.034,1.44v0.036c0.396,0.078,0.698,0.253,0.908,0.526
			s0.315,0.628,0.315,1.066C410.239,51.403,409.315,52.036,407.467,52.036z M407.521,48.104c0.204,0,0.378-0.017,0.521-0.05
			c0.145-0.033,0.26-0.087,0.347-0.162c0.087-0.075,0.15-0.172,0.189-0.292c0.038-0.12,0.059-0.267,0.059-0.441
			c0-0.324-0.088-0.558-0.262-0.702c-0.174-0.144-0.45-0.216-0.828-0.216c-0.144,0-0.281,0.004-0.414,0.014
			c-0.132,0.009-0.267,0.022-0.404,0.041v1.809H407.521z M407.603,51.001c0.815-0.012,1.224-0.33,1.224-0.954
			c0-0.348-0.096-0.596-0.288-0.743s-0.516-0.22-0.972-0.22h-0.837v1.863C406.892,50.983,407.183,51.001,407.603,51.001z"/>
		<path fill="#86754D" d="M413.677,52.036c-1.896,0-2.844-1.137-2.844-3.411c0-2.286,0.947-3.429,2.844-3.429
			c1.896,0,2.844,1.143,2.844,3.429C416.521,50.899,415.572,52.036,413.677,52.036z M413.677,50.893
			c0.258,0,0.477-0.039,0.657-0.117c0.18-0.078,0.326-0.207,0.44-0.387c0.114-0.18,0.196-0.414,0.248-0.702
			c0.051-0.288,0.076-0.642,0.076-1.062s-0.025-0.775-0.076-1.067c-0.052-0.291-0.134-0.528-0.248-0.711
			c-0.114-0.183-0.261-0.315-0.44-0.396c-0.181-0.081-0.399-0.122-0.657-0.122s-0.478,0.041-0.657,0.122s-0.327,0.213-0.441,0.396
			c-0.113,0.183-0.196,0.42-0.247,0.711c-0.051,0.292-0.076,0.647-0.076,1.067c0,0.414,0.025,0.765,0.076,1.053
			s0.134,0.522,0.247,0.702c0.114,0.18,0.262,0.311,0.441,0.392S413.419,50.893,413.677,50.893z"/>
		<path fill="#86754D" d="M418.501,46.447h-1.674v-1.161h4.761v1.161h-1.692v5.499h-1.395V46.447z"/>
		<path fill="#86754D" d="M422.308,45.286h1.386v6.66h-1.386V45.286z"/>
		<path fill="#86754D" d="M427.519,52.036c-0.99,0-1.727-0.276-2.21-0.828c-0.482-0.552-0.724-1.413-0.724-2.583
			c0-1.176,0.239-2.042,0.72-2.597c0.479-0.555,1.203-0.833,2.169-0.833c0.396,0,0.846,0.045,1.35,0.135v1.116
			c-0.228-0.036-0.437-0.063-0.625-0.081c-0.189-0.018-0.364-0.027-0.526-0.027c-0.307,0-0.564,0.036-0.774,0.108
			c-0.21,0.072-0.381,0.195-0.513,0.369s-0.227,0.408-0.284,0.702c-0.057,0.294-0.085,0.663-0.085,1.107
			c0,0.438,0.028,0.802,0.085,1.093c0.058,0.291,0.152,0.523,0.284,0.698c0.132,0.174,0.301,0.297,0.508,0.369
			c0.207,0.072,0.461,0.108,0.761,0.108c0.174,0,0.371-0.012,0.59-0.036s0.412-0.054,0.58-0.09v1.098
			c-0.156,0.048-0.351,0.088-0.585,0.122C428.005,52.02,427.765,52.036,427.519,52.036z"/>
	</g>
	<g>
		<path fill="#86754D" d="M401.14,62.881l1.89-6.597h2.079l1.891,6.597v0.063h-1.323l-0.478-1.656h-2.268l-0.468,1.656h-1.323
			V62.881z M404.911,60.181l-0.505-1.782l-0.288-1.089h-0.107l-0.288,1.089l-0.504,1.782H404.911z"/>
		<path fill="#86754D" d="M409.95,60.649c-0.078,0.006-0.156,0.01-0.234,0.013c-0.078,0.003-0.159,0.005-0.243,0.005
			c-0.023,0-0.059,0-0.104,0s-0.094,0-0.148,0c-0.054,0-0.104-0.001-0.152-0.005c-0.049-0.003-0.084-0.004-0.108-0.004v2.286h-1.386
			v-6.615c0.282-0.048,0.569-0.082,0.864-0.103c0.294-0.021,0.591-0.032,0.891-0.032c1.062,0,1.833,0.179,2.312,0.536
			c0.48,0.357,0.721,0.931,0.721,1.723c0,0.972-0.396,1.624-1.188,1.953l1.396,2.538h-1.485L409.95,60.649z M409.563,59.596
			c0.258,0,0.474-0.021,0.647-0.063s0.315-0.108,0.423-0.198c0.108-0.09,0.187-0.207,0.234-0.351s0.072-0.321,0.072-0.531
			c0-0.21-0.024-0.388-0.072-0.535s-0.126-0.266-0.234-0.355c-0.107-0.09-0.249-0.155-0.423-0.194
			c-0.174-0.039-0.387-0.058-0.639-0.058c-0.084,0-0.185,0.006-0.302,0.018c-0.117,0.012-0.221,0.024-0.311,0.036v2.187
			c0.084,0.012,0.18,0.022,0.288,0.032C409.356,59.592,409.461,59.596,409.563,59.596z"/>
		<path fill="#86754D" d="M413.254,56.284h1.943l1.225,3.483l0.288,1.17h0.062l0.288-1.17l1.225-3.483h1.952v6.66h-1.286v-4.968
			h-0.055l-0.404,1.332l-1.171,3.321h-1.17l-1.17-3.321l-0.414-1.332h-0.054v4.968h-1.26V56.284z"/>
	</g>
	<g>
		<path fill="#86754D" d="M169.939,224.116h4.229v1.144h-2.845v1.602h2.547v1.134h-2.547v1.639h2.926v1.143h-4.311V224.116z"/>
		<path fill="#86754D" d="M176.59,227.338l-1.962-3.222h1.565l1.197,2.088l0.108,0.234h0.036l0.107-0.234l1.18-2.088h1.512
			l-1.989,3.187l2.16,3.474h-1.548l-1.395-2.331l-0.1-0.216h-0.045l-0.09,0.216l-1.342,2.331h-1.521L176.59,227.338z"/>
		<path fill="#86754D" d="M182.242,225.277h-1.675v-1.161h4.761v1.161h-1.691v5.499h-1.395V225.277z"/>
		<path fill="#86754D" d="M186.049,224.116h4.23v1.144h-2.845v1.602h2.547v1.134h-2.547v1.639h2.925v1.143h-4.311V224.116z"/>
		<path fill="#86754D" d="M193.608,228.481c-0.078,0.006-0.156,0.011-0.234,0.014c-0.077,0.003-0.159,0.004-0.243,0.004
			c-0.023,0-0.059,0-0.104,0s-0.094,0-0.148,0c-0.054,0-0.104-0.001-0.152-0.004c-0.049-0.003-0.084-0.005-0.108-0.005v2.286h-1.386
			v-6.615c0.281-0.048,0.57-0.082,0.863-0.104c0.295-0.021,0.592-0.031,0.892-0.031c1.062,0,1.833,0.179,2.313,0.535
			c0.479,0.357,0.719,0.932,0.719,1.724c0,0.973-0.396,1.623-1.188,1.953l1.395,2.538h-1.484L193.608,228.481z M193.221,227.429
			c0.258,0,0.475-0.021,0.648-0.063s0.314-0.107,0.424-0.198c0.107-0.09,0.186-0.207,0.233-0.351s0.071-0.321,0.071-0.531
			s-0.023-0.389-0.071-0.535c-0.048-0.147-0.126-0.266-0.233-0.355c-0.109-0.09-0.25-0.154-0.424-0.193s-0.387-0.059-0.639-0.059
			c-0.084,0-0.185,0.006-0.302,0.018c-0.117,0.013-0.221,0.024-0.311,0.036v2.188c0.084,0.012,0.181,0.022,0.288,0.031
			S193.119,227.429,193.221,227.429z"/>
		<path fill="#86754D" d="M196.912,224.116h1.151l2.466,3.627l0.414,0.738h0.072v-4.365h1.232v6.66h-1.151l-2.457-3.618
			l-0.423-0.756h-0.082v4.374h-1.223V224.116z"/>
		<path fill="#86754D" d="M202.815,230.713l1.89-6.597h2.08l1.889,6.597v0.063h-1.322l-0.477-1.656h-2.269l-0.468,1.656h-1.323
			V230.713z M206.586,228.014l-0.504-1.782l-0.287-1.089h-0.108l-0.288,1.089l-0.504,1.782H206.586z"/>
		<path fill="#86754D" d="M209.25,224.116h1.387v5.526h2.357v1.134h-3.744V224.116z"/>
		<path fill="#86754D" d="M217.881,230.866c-0.99,0-1.727-0.275-2.209-0.828c-0.483-0.552-0.725-1.413-0.725-2.583
			c0-1.176,0.239-2.041,0.72-2.597c0.479-0.555,1.202-0.832,2.169-0.832c0.396,0,0.846,0.045,1.35,0.135v1.116
			c-0.229-0.036-0.436-0.062-0.625-0.081c-0.189-0.018-0.365-0.027-0.527-0.027c-0.305,0-0.563,0.036-0.773,0.108
			s-0.381,0.195-0.513,0.369s-0.227,0.408-0.284,0.702c-0.057,0.294-0.085,0.663-0.085,1.106c0,0.438,0.028,0.803,0.085,1.094
			c0.058,0.291,0.152,0.523,0.284,0.697c0.132,0.175,0.302,0.297,0.509,0.369s0.46,0.108,0.76,0.108c0.174,0,0.371-0.013,0.59-0.036
			c0.219-0.024,0.412-0.054,0.58-0.09v1.098c-0.156,0.048-0.351,0.089-0.584,0.121C218.367,230.85,218.127,230.866,217.881,230.866z
			"/>
		<path fill="#86754D" d="M222.498,230.866c-1.896,0-2.844-1.137-2.844-3.411c0-2.286,0.947-3.429,2.844-3.429
			c1.896,0,2.844,1.143,2.844,3.429C225.342,229.729,224.394,230.866,222.498,230.866z M222.498,229.724
			c0.258,0,0.477-0.039,0.656-0.117c0.181-0.078,0.328-0.207,0.441-0.387c0.114-0.181,0.197-0.414,0.248-0.702
			s0.076-0.643,0.076-1.062s-0.025-0.775-0.076-1.066s-0.134-0.527-0.248-0.711c-0.113-0.183-0.261-0.314-0.441-0.396
			c-0.18-0.081-0.398-0.122-0.656-0.122s-0.477,0.041-0.657,0.122s-0.327,0.213-0.44,0.396c-0.115,0.184-0.197,0.42-0.248,0.711
			s-0.076,0.646-0.076,1.066c0,0.414,0.025,0.766,0.076,1.054c0.051,0.287,0.133,0.521,0.248,0.701
			c0.113,0.181,0.26,0.311,0.44,0.392S222.24,229.724,222.498,229.724z"/>
		<path fill="#86754D" d="M226.232,224.116h1.944l1.224,3.483l0.289,1.17h0.062l0.287-1.17l1.225-3.483h1.953v6.66h-1.287v-4.968
			h-0.054l-0.405,1.332l-1.17,3.32h-1.17l-1.17-3.32l-0.414-1.332h-0.055v4.968h-1.26V224.116z"/>
		<path fill="#86754D" d="M234.369,224.161c0.594-0.09,1.179-0.135,1.755-0.135c0.528,0,0.983,0.045,1.368,0.135
			c0.384,0.09,0.699,0.232,0.945,0.428s0.427,0.442,0.544,0.742c0.117,0.301,0.175,0.657,0.175,1.071
			c0,0.816-0.239,1.413-0.719,1.791c-0.48,0.378-1.236,0.567-2.269,0.567h-0.414v2.016h-1.386V224.161z M236.357,227.653
			c0.252,0,0.467-0.021,0.645-0.062c0.176-0.042,0.318-0.113,0.428-0.212c0.107-0.099,0.186-0.228,0.233-0.387
			s0.071-0.355,0.071-0.59c0-0.456-0.1-0.78-0.301-0.972c-0.201-0.192-0.557-0.288-1.066-0.288c-0.096,0-0.203,0.006-0.32,0.018
			c-0.116,0.013-0.214,0.024-0.292,0.036v2.412c0.084,0.012,0.182,0.022,0.292,0.031
			C236.158,227.648,236.262,227.653,236.357,227.653z"/>
		<path fill="#86754D" d="M242.514,230.866c-0.486,0-0.896-0.056-1.232-0.166c-0.336-0.111-0.609-0.277-0.819-0.5
			c-0.21-0.222-0.362-0.502-0.454-0.842c-0.094-0.339-0.141-0.739-0.141-1.201v-4.041h1.387v3.996c0,0.564,0.098,0.971,0.293,1.22
			c0.194,0.249,0.517,0.373,0.967,0.373s0.772-0.123,0.968-0.369c0.194-0.245,0.292-0.653,0.292-1.224v-3.996h1.387v4.041
			c0,0.462-0.047,0.862-0.141,1.201c-0.092,0.34-0.244,0.621-0.453,0.847c-0.211,0.225-0.484,0.392-0.82,0.499
			C243.41,230.812,243,230.866,242.514,230.866z"/>
		<path fill="#86754D" d="M247.509,225.277h-1.675v-1.161h4.762v1.161h-1.691v5.499h-1.396V225.277z"/>
		<path fill="#86754D" d="M251.316,224.116h4.229v1.144h-2.845v1.602h2.547v1.134h-2.547v1.639h2.926v1.143h-4.311V224.116z"/>
		<path fill="#86754D" d="M258.875,228.481c-0.078,0.006-0.156,0.011-0.234,0.014c-0.077,0.003-0.158,0.004-0.242,0.004
			c-0.023,0-0.059,0-0.104,0s-0.095,0-0.148,0c-0.055,0-0.105-0.001-0.153-0.004s-0.084-0.005-0.108-0.005v2.286H256.5v-6.615
			c0.281-0.048,0.569-0.082,0.863-0.104c0.294-0.021,0.591-0.031,0.891-0.031c1.062,0,1.834,0.179,2.313,0.535
			c0.479,0.357,0.72,0.932,0.72,1.724c0,0.973-0.396,1.623-1.188,1.953l1.395,2.538h-1.484L258.875,228.481z M258.488,227.429
			c0.258,0,0.475-0.021,0.648-0.063s0.314-0.107,0.423-0.198c0.108-0.09,0.186-0.207,0.233-0.351
			c0.049-0.144,0.072-0.321,0.072-0.531s-0.023-0.389-0.072-0.535c-0.048-0.147-0.125-0.266-0.233-0.355s-0.249-0.154-0.423-0.193
			s-0.387-0.059-0.639-0.059c-0.085,0-0.186,0.006-0.303,0.018c-0.117,0.013-0.221,0.024-0.311,0.036v2.188
			c0.084,0.012,0.181,0.022,0.289,0.031C258.281,227.424,258.387,227.429,258.488,227.429z"/>
	</g>
	<path fill="#33006F" d="M259.219,79.919c0,25.181-20.414,45.594-45.595,45.594c-25.182,0-45.595-20.413-45.595-45.594
		c0-25.181,20.413-45.594,45.595-45.594C238.805,34.325,259.219,54.738,259.219,79.919"/>
	<path fill="#9B7BB6" d="M252.142,88.853c0-3.747-2.063-7.01-5.112-8.722c0.101-0.456,0.158-0.928,0.158-1.414
		c0-3.595-2.914-6.509-6.509-6.509c-1.353,0-2.608,0.413-3.647,1.119c-0.1,0.012-0.197,0.028-0.295,0.044
		c-0.113-3.494-2.976-6.294-6.498-6.294c-1.035,0-2.012,0.248-2.881,0.678c-1.192-1.49-3.023-2.448-5.082-2.448
		c-1.242,0-2.4,0.355-3.389,0.96c-3.258,0.355-5.795,3.114-5.795,6.468c0,1.553,0.546,2.978,1.455,4.098
		c-0.203,0.533-0.318,1.11-0.318,1.714c0,1.229,0.461,2.347,1.215,3.201c-1.004,0.886-1.642,2.18-1.642,3.626
		c0,0.002,0,0.003,0,0.005c-0.226-1.01-0.767-1.899-1.515-2.562c0.855-0.872,1.385-2.066,1.385-3.385
		c0-1.557-0.739-2.939-1.881-3.824c0.77-1.068,1.226-2.375,1.226-3.792c0-3.595-2.913-6.509-6.509-6.509
		c-2.529,0-4.717,1.446-5.794,3.554c-1.166-1.103-2.735-1.784-4.47-1.784c-3.521,0-6.383,2.8-6.496,6.294
		c-0.098-0.016-0.195-0.032-0.295-0.044c-1.04-0.706-2.295-1.119-3.647-1.119c-3.595,0-6.509,2.914-6.509,6.509
		c0,0.486,0.057,0.958,0.158,1.414c-3.051,1.712-5.113,4.975-5.113,8.722c0,2.884,1.223,5.48,3.176,7.305
		c-0.335,0.784-0.521,1.647-0.521,2.554c0,3.595,2.913,6.509,6.508,6.509c0.81,0,1.581-0.155,2.296-0.425
		c1.79,1.688,4.201,2.725,6.855,2.725c2.445,0,4.686-0.88,6.422-2.338c0.812,0.363,1.707,0.569,2.652,0.569
		c0.5,0,0.984-0.062,1.451-0.169c1.11,0.879,2.51,1.407,4.034,1.407c3.595,0,6.509-2.914,6.509-6.509
		c0-1.302-0.386-2.512-1.045-3.529c1.084-1.163,1.753-2.718,1.753-4.433c0-1.37-0.426-2.64-1.149-3.689
		c0.404-0.706,0.638-1.522,0.638-2.394c0-0.002,0-0.003,0-0.005c0.25,1.122,0.89,2.095,1.771,2.774
		c-0.4,0.844-0.631,1.786-0.631,2.783c0,1.356,0.414,2.614,1.123,3.656c-0.923,1.124-1.478,2.562-1.478,4.13
		c0,3.594,2.913,6.508,6.508,6.508c0.964,0,1.876-0.215,2.699-0.591c0.276,0.036,0.555,0.061,0.84,0.061
		c0.946,0,1.842-0.206,2.651-0.569c1.737,1.458,3.978,2.338,6.424,2.338c2.654,0,5.066-1.037,6.855-2.725
		c0.715,0.27,1.486,0.425,2.295,0.425c3.596,0,6.51-2.914,6.51-6.509c0-0.907-0.188-1.77-0.522-2.554
		C250.92,94.333,252.142,91.736,252.142,88.853"/>
	<path fill="#9B7BB6" d="M182.88,81.022c0,0,4.114,2.123,6.237,0.354c2.123-1.77,1.283-5.441,1.283-5.441"/>
	<path fill="none" stroke="#9B7BB6" stroke-width="0.354" stroke-miterlimit="10" d="M182.88,81.022c0,0,4.114,2.123,6.237,0.354
		c2.123-1.77,1.283-5.441,1.283-5.441"/>
	<path fill="#9B7BB6" d="M209.023,79.562c0,0-1.707-0.233-1.883,2.295c-0.177,2.527,2.945,3.323,2.945,3.323"/>
	<path fill="none" stroke="#9B7BB6" stroke-width="0.354" stroke-miterlimit="10" d="M209.023,79.562c0,0-1.707-0.233-1.883,2.295
		c-0.177,2.527,2.945,3.323,2.945,3.323"/>
	<path fill="#9B7BB6" d="M198.512,92.729c0,0,2.447-0.408,3.438,0.465c0.989,0.873,1.434,2.215,1.434,2.215"/>
	<path fill="none" stroke="#9B7BB6" stroke-width="0.354" stroke-miterlimit="10" d="M198.512,92.729c0,0,2.447-0.408,3.438,0.465
		c0.989,0.873,1.434,2.215,1.434,2.215"/>
	<path fill="#9B7BB6" d="M200.929,69.565c0,0,0.442,1.946,1.769,2.831c1.328,0.885,3.407,1.106,3.407,1.106"/>
	<path fill="none" stroke="#9B7BB6" stroke-width="0.354" stroke-miterlimit="10" d="M200.929,69.565c0,0,0.442,1.946,1.769,2.831
		c1.328,0.885,3.407,1.106,3.407,1.106"/>
	<path fill="#9B7BB6" d="M179.912,80.204c0,0,1.178-0.157,2.807,0.699c1.63,0.856,0.884,3.85,0.884,3.85"/>
	<path fill="none" stroke="#9B7BB6" stroke-width="0.354" stroke-miterlimit="10" d="M179.912,80.204c0,0,1.178-0.157,2.807,0.699
		c1.63,0.856,0.884,3.85,0.884,3.85"/>
	<path fill="#9B7BB6" d="M195.62,82.394c0,0,1.062-1.681,3.142-1.548c2.078,0.132,2.83,1.725,2.83,1.725"/>
	<path fill="none" stroke="#9B7BB6" stroke-width="0.354" stroke-miterlimit="10" d="M195.62,82.394c0,0,1.062-1.681,3.142-1.548
		c2.078,0.132,2.83,1.725,2.83,1.725"/>
	<path fill="#9B7BB6" d="M203.627,77.705c0,0-2.168-0.221-3.229,0.664c-1.062,0.884-0.93,2.654-0.93,2.654"/>
	<path fill="none" stroke="#9B7BB6" stroke-width="0.354" stroke-miterlimit="10" d="M203.627,77.705c0,0-2.168-0.221-3.229,0.664
		c-1.062,0.884-0.93,2.654-0.93,2.654"/>
	<path fill="#9B7BB6" d="M201.955,93.017c0,0-0.121-1.774,1.473-3.139c1.593-1.365,4.423-1.274,4.423-1.274"/>
	<path fill="none" stroke="#9B7BB6" stroke-width="0.354" stroke-miterlimit="10" d="M201.955,93.017c0,0-0.121-1.774,1.473-3.139
		c1.593-1.365,4.423-1.274,4.423-1.274"/>
	<path fill="#9B7BB6" d="M186.773,99.602c0,0-0.178,2.123,1.547,3.008c1.727,0.885,4.543-0.811,4.543-0.811"/>
	<path fill="none" stroke="#9B7BB6" stroke-width="0.354" stroke-miterlimit="10" d="M186.773,99.602c0,0-0.178,2.123,1.547,3.008
		c1.727,0.885,4.543-0.811,4.543-0.811"/>
	<path fill="#9B7BB6" d="M186.905,94.028c0,0,2.257,0.177,3.142-0.84c0.885-1.018,0.441-3.495,0.441-3.495"/>
	<path fill="none" stroke="#9B7BB6" stroke-width="0.354" stroke-miterlimit="10" d="M186.905,94.028c0,0,2.257,0.177,3.142-0.84
		c0.885-1.018,0.441-3.495,0.441-3.495"/>
	<path fill="#9B7BB6" d="M181.95,97.836c0,0,1.253-1.596,0.481-3.599c-0.771-2.002-2.734-2.397-2.734-2.397"/>
	<path fill="none" stroke="#9B7BB6" stroke-width="0.354" stroke-miterlimit="10" d="M181.95,97.836c0,0,1.253-1.596,0.481-3.599
		c-0.771-2.002-2.734-2.397-2.734-2.397"/>
	<path fill="#9B7BB6" d="M203.824,101.375c0,0,0.375-2.444,3.053-3.935c2.676-1.491,4.806-0.475,4.806-0.475"/>
	<path fill="none" stroke="#9B7BB6" stroke-width="0.354" stroke-miterlimit="10" d="M203.824,101.375c0,0,0.375-2.444,3.053-3.935
		c2.676-1.491,4.806-0.475,4.806-0.475"/>
	<path fill="#9B7BB6" d="M189.781,103.141c0,0,1.017,2.522,3.361,2.743"/>
	<path fill="none" stroke="#9B7BB6" stroke-width="0.354" stroke-miterlimit="10" d="M189.781,103.141c0,0,1.017,2.522,3.361,2.743"
		/>
	<path fill="#9B7BB6" d="M190.268,92.878c0,0,1.46-0.531,3.361,1.548c1.902,2.079,1.018,4.822,1.018,4.822"/>
	<path fill="none" stroke="#9B7BB6" stroke-width="0.354" stroke-miterlimit="10" d="M190.268,92.878c0,0,1.46-0.531,3.361,1.548
		c1.902,2.079,1.018,4.822,1.018,4.822"/>
	<path fill="#9B7BB6" d="M202.477,72.249c0,0-0.885,2.654-2.595,3.126c-1.711,0.472-3.244-1.062-3.244-1.062"/>
	<path fill="none" stroke="#9B7BB6" stroke-width="0.354" stroke-miterlimit="10" d="M202.477,72.249c0,0-0.885,2.654-2.595,3.126
		c-1.711,0.472-3.244-1.062-3.244-1.062"/>
	<path fill="#9B7BB6" d="M188.734,81.686c0,0-1.24,2.595-0.473,4.129c0.768,1.533,3.657,1.003,3.657,1.003"/>
	<path fill="none" stroke="#9B7BB6" stroke-width="0.354" stroke-miterlimit="10" d="M188.734,81.686c0,0-1.24,2.595-0.473,4.129
		c0.768,1.533,3.657,1.003,3.657,1.003"/>
	<path fill="#9B7BB6" d="M182.01,93.542c0,0,1.946-0.885,2.182-2.359c0.236-1.475-1.002-2.831-1.002-2.831"/>
	<path fill="none" stroke="#9B7BB6" stroke-width="0.354" stroke-miterlimit="10" d="M182.01,93.542c0,0,1.946-0.885,2.182-2.359
		c0.236-1.475-1.002-2.831-1.002-2.831"/>
	<path fill="#9B7BB6" d="M196.549,86.906c0,0,1.239,1.681,3.45,0.973c2.212-0.708,1.947-2.742,1.947-2.742"/>
	<path fill="none" stroke="#9B7BB6" stroke-width="0.354" stroke-miterlimit="10" d="M196.549,86.906c0,0,1.239,1.681,3.45,0.973
		c2.212-0.708,1.947-2.742,1.947-2.742"/>
	<path fill="#9B7BB6" d="M198.053,88.145c0,0-1.945,0-2.565,1.858c-0.619,1.858,0.796,3.185,0.796,3.185"/>
	<path fill="none" stroke="#9B7BB6" stroke-width="0.354" stroke-miterlimit="10" d="M198.053,88.145c0,0-1.945,0-2.565,1.858
		c-0.619,1.858,0.796,3.185,0.796,3.185"/>
	<path fill="#9B7BB6" d="M243.535,81.022c0,0-4.114,2.123-6.237,0.354c-2.124-1.77-1.282-5.441-1.282-5.441"/>
	<path fill="none" stroke="#9B7BB6" stroke-width="0.354" stroke-miterlimit="10" d="M243.535,81.022c0,0-4.114,2.123-6.237,0.354
		c-2.124-1.77-1.282-5.441-1.282-5.441"/>
	<path fill="#9B7BB6" d="M217.479,72.396c0,0,1.707-0.233,1.883,2.295c0.177,2.527-2.944,3.323-2.944,3.323"/>
	<path fill="none" stroke="#9B7BB6" stroke-width="0.354" stroke-miterlimit="10" d="M217.479,72.396c0,0,1.707-0.233,1.883,2.295
		c0.177,2.527-2.944,3.323-2.944,3.323"/>
	<path fill="#9B7BB6" d="M225.957,89.367c0,0-2.447-0.408-3.438,0.465s-1.434,2.215-1.434,2.215"/>
	<path fill="none" stroke="#9B7BB6" stroke-width="0.354" stroke-miterlimit="10" d="M225.957,89.367c0,0-2.447-0.408-3.438,0.465
		s-1.434,2.215-1.434,2.215"/>
	<path fill="#9B7BB6" d="M225.486,69.565c0,0-0.441,1.946-1.77,2.831c-1.328,0.885-3.406,1.106-3.406,1.106"/>
	<path fill="none" stroke="#9B7BB6" stroke-width="0.354" stroke-miterlimit="10" d="M225.486,69.565c0,0-0.441,1.946-1.77,2.831
		c-1.328,0.885-3.406,1.106-3.406,1.106"/>
	<path fill="#9B7BB6" d="M246.502,80.204c0,0-1.178-0.157-2.807,0.699s-0.883,3.85-0.883,3.85"/>
	<path fill="none" stroke="#9B7BB6" stroke-width="0.354" stroke-miterlimit="10" d="M246.502,80.204c0,0-1.178-0.157-2.807,0.699
		s-0.883,3.85-0.883,3.85"/>
	<path fill="#9B7BB6" d="M230.795,82.394c0,0-1.062-1.681-3.141-1.548c-2.08,0.132-2.832,1.725-2.832,1.725"/>
	<path fill="none" stroke="#9B7BB6" stroke-width="0.354" stroke-miterlimit="10" d="M230.795,82.394c0,0-1.062-1.681-3.141-1.548
		c-2.08,0.132-2.832,1.725-2.832,1.725"/>
	<path fill="#9B7BB6" d="M222.788,77.705c0,0,2.168-0.221,3.229,0.664c1.062,0.884,0.928,2.654,0.928,2.654"/>
	<path fill="none" stroke="#9B7BB6" stroke-width="0.354" stroke-miterlimit="10" d="M222.788,77.705c0,0,2.168-0.221,3.229,0.664
		c1.062,0.884,0.928,2.654,0.928,2.654"/>
	<path fill="#9B7BB6" d="M222.514,89.655c0,0,0.12-1.774-1.473-3.139c-1.593-1.365-4.423-1.274-4.423-1.274"/>
	<path fill="none" stroke="#9B7BB6" stroke-width="0.354" stroke-miterlimit="10" d="M222.514,89.655c0,0,0.12-1.774-1.473-3.139
		c-1.593-1.365-4.423-1.274-4.423-1.274"/>
	<path fill="#9B7BB6" d="M239.643,99.602c0,0,0.177,2.123-1.549,3.008c-1.726,0.885-4.541-0.811-4.541-0.811"/>
	<path fill="none" stroke="#9B7BB6" stroke-width="0.354" stroke-miterlimit="10" d="M239.643,99.602c0,0,0.177,2.123-1.549,3.008
		c-1.726,0.885-4.541-0.811-4.541-0.811"/>
	<path fill="#9B7BB6" d="M239.51,94.028c0,0-2.256,0.177-3.142-0.84c-0.885-1.018-0.442-3.495-0.442-3.495"/>
	<path fill="none" stroke="#9B7BB6" stroke-width="0.354" stroke-miterlimit="10" d="M239.51,94.028c0,0-2.256,0.177-3.142-0.84
		c-0.885-1.018-0.442-3.495-0.442-3.495"/>
	<path fill="#9B7BB6" d="M246.455,98.146c0,0-1.253-1.596-0.481-3.599c0.772-2.002,2.735-2.397,2.735-2.397"/>
	<path fill="none" stroke="#9B7BB6" stroke-width="0.354" stroke-miterlimit="10" d="M246.455,98.146c0,0-1.253-1.596-0.481-3.599
		c0.772-2.002,2.735-2.397,2.735-2.397"/>
	<path fill="#9B7BB6" d="M229.104,101.142c0,0-1.492-1.971-4.557-2.009c-3.062-0.039-4.453,1.868-4.453,1.868"/>
	<path fill="none" stroke="#9B7BB6" stroke-width="0.354" stroke-miterlimit="10" d="M229.104,101.142c0,0-1.492-1.971-4.557-2.009
		c-3.062-0.039-4.453,1.868-4.453,1.868"/>
	<path fill="#9B7BB6" d="M236.634,103.141c0,0-1.017,2.522-3.362,2.743"/>
	<path fill="none" stroke="#9B7BB6" stroke-width="0.354" stroke-miterlimit="10" d="M236.634,103.141c0,0-1.017,2.522-3.362,2.743"
		/>
	<path fill="#9B7BB6" d="M236.147,92.878c0,0-1.46-0.531-3.362,1.548s-1.017,4.822-1.017,4.822"/>
	<path fill="none" stroke="#9B7BB6" stroke-width="0.354" stroke-miterlimit="10" d="M236.147,92.878c0,0-1.46-0.531-3.362,1.548
		s-1.017,4.822-1.017,4.822"/>
	<path fill="#9B7BB6" d="M223.938,72.249c0,0,0.886,2.654,2.596,3.126c1.711,0.472,3.244-1.062,3.244-1.062"/>
	<path fill="none" stroke="#9B7BB6" stroke-width="0.354" stroke-miterlimit="10" d="M223.938,72.249c0,0,0.886,2.654,2.596,3.126
		c1.711,0.472,3.244-1.062,3.244-1.062"/>
	<path fill="#9B7BB6" d="M237.682,81.686c0,0,1.238,2.595,0.471,4.129c-0.766,1.533-3.656,1.003-3.656,1.003"/>
	<path fill="none" stroke="#9B7BB6" stroke-width="0.354" stroke-miterlimit="10" d="M237.682,81.686c0,0,1.238,2.595,0.471,4.129
		c-0.766,1.533-3.656,1.003-3.656,1.003"/>
	<path fill="#9B7BB6" d="M244.405,93.542c0,0-1.946-0.885-2.183-2.359c-0.236-1.475,1.002-2.831,1.002-2.831"/>
	<path fill="none" stroke="#9B7BB6" stroke-width="0.354" stroke-miterlimit="10" d="M244.405,93.542c0,0-1.946-0.885-2.183-2.359
		c-0.236-1.475,1.002-2.831,1.002-2.831"/>
	<path fill="#9B7BB6" d="M231.635,90.533c0,0-1.238,1.681-3.451,0.973c-2.211-0.708-1.945-2.742-1.945-2.742"/>
	<path fill="none" stroke="#9B7BB6" stroke-width="0.354" stroke-miterlimit="10" d="M231.635,90.533c0,0-1.238,1.681-3.451,0.973
		c-2.211-0.708-1.945-2.742-1.945-2.742"/>
	<path fill="#9B7BB6" d="M223.142,93.807c0,0,1.946,0,2.566,1.858c0.618,1.858-0.798,3.185-0.798,3.185"/>
	<path fill="none" stroke="#9B7BB6" stroke-width="0.354" stroke-miterlimit="10" d="M223.142,93.807c0,0,1.946,0,2.566,1.858
		c0.618,1.858-0.798,3.185-0.798,3.185"/>
	<path fill="#FFFFFF" d="M193.123,76.502c0,0.598-0.485,1.083-1.084,1.083c-0.598,0-1.082-0.485-1.082-1.083
		c0-0.598,0.484-1.083,1.082-1.083C192.638,75.419,193.123,75.904,193.123,76.502"/>
	<path fill="#FFFFFF" d="M193.123,82.894c0,0.598-0.485,1.083-1.084,1.083c-0.598,0-1.082-0.485-1.082-1.083
		s0.484-1.083,1.082-1.083C192.638,81.811,193.123,82.295,193.123,82.894"/>
	<path fill="#FFFFFF" d="M186.795,82.894c0,0.598-0.484,1.083-1.083,1.083c-0.598,0-1.083-0.485-1.083-1.083
		s0.485-1.083,1.083-1.083C186.311,81.811,186.795,82.295,186.795,82.894"/>
	<path fill="#FFFFFF" d="M205.83,70.546c0,0.598-0.486,1.083-1.084,1.083s-1.082-0.485-1.082-1.083c0-0.598,0.484-1.083,1.082-1.083
		S205.83,69.948,205.83,70.546"/>
	<path fill="#FFFFFF" d="M205.83,76.59c0,0.598-0.486,1.083-1.084,1.083s-1.082-0.485-1.082-1.083c0-0.598,0.484-1.083,1.082-1.083
		S205.83,75.993,205.83,76.59"/>
	<path fill="#FFFFFF" d="M212.157,76.59c0,0.598-0.485,1.083-1.083,1.083s-1.083-0.485-1.083-1.083c0-0.598,0.485-1.083,1.083-1.083
		S212.157,75.993,212.157,76.59"/>
	<path fill="#FFFFFF" d="M212.157,70.546c0,0.598-0.485,1.083-1.083,1.083s-1.083-0.485-1.083-1.083
		c0-0.598,0.485-1.083,1.083-1.083S212.157,69.948,212.157,70.546"/>
	<path fill="#FFFFFF" d="M212.157,82.982c0,0.598-0.485,1.083-1.083,1.083s-1.083-0.485-1.083-1.083s0.485-1.083,1.083-1.083
		S212.157,82.384,212.157,82.982"/>
	<path fill="#FFFFFF" d="M205.83,82.982c0,0.598-0.486,1.083-1.084,1.083s-1.082-0.485-1.082-1.083s0.484-1.083,1.082-1.083
		S205.83,82.384,205.83,82.982"/>
	<path fill="#FFFFFF" d="M199.443,82.982c0,0.598-0.485,1.083-1.084,1.083c-0.598,0-1.082-0.485-1.082-1.083
		s0.484-1.083,1.082-1.083C198.958,81.899,199.443,82.384,199.443,82.982"/>
	<path fill="#FFFFFF" d="M199.443,76.59c0,0.598-0.485,1.083-1.084,1.083c-0.598,0-1.082-0.485-1.082-1.083
		c0-0.598,0.484-1.083,1.082-1.083C198.958,75.507,199.443,75.993,199.443,76.59"/>
	<path fill="#FFFFFF" d="M186.795,88.655c0,0.598-0.484,1.083-1.083,1.083c-0.598,0-1.083-0.485-1.083-1.083
		s0.485-1.083,1.083-1.083C186.311,87.572,186.795,88.057,186.795,88.655"/>
	<path fill="#FFFFFF" d="M186.795,95.015c0,0.598-0.484,1.083-1.083,1.083c-0.598,0-1.083-0.485-1.083-1.083
		c0-0.598,0.485-1.083,1.083-1.083C186.311,93.932,186.795,94.417,186.795,95.015"/>
	<path fill="#FFFFFF" d="M193.123,95.015c0,0.598-0.485,1.083-1.084,1.083c-0.598,0-1.082-0.485-1.082-1.083
		c0-0.598,0.484-1.083,1.082-1.083C192.638,93.932,193.123,94.417,193.123,95.015"/>
	<path fill="#FFFFFF" d="M193.123,88.655c0,0.598-0.485,1.083-1.084,1.083c-0.598,0-1.082-0.485-1.082-1.083
		s0.484-1.083,1.082-1.083C192.638,87.572,193.123,88.057,193.123,88.655"/>
	<path fill="#FFFFFF" d="M193.123,101.406c0,0.598-0.485,1.083-1.084,1.083c-0.598,0-1.082-0.485-1.082-1.083
		s0.484-1.083,1.082-1.083C192.638,100.323,193.123,100.808,193.123,101.406"/>
	<path fill="#FFFFFF" d="M186.795,101.406c0,0.598-0.484,1.083-1.083,1.083c-0.598,0-1.083-0.485-1.083-1.083
		s0.485-1.083,1.083-1.083C186.311,100.323,186.795,100.808,186.795,101.406"/>
	<path fill="#FFFFFF" d="M199.443,88.744c0,0.598-0.485,1.083-1.084,1.083c-0.598,0-1.082-0.485-1.082-1.083
		s0.484-1.083,1.082-1.083C198.958,87.661,199.443,88.146,199.443,88.744"/>
	<path fill="#FFFFFF" d="M205.83,88.744c0,0.598-0.486,1.083-1.084,1.083s-1.082-0.485-1.082-1.083s0.484-1.083,1.082-1.083
		S205.83,88.146,205.83,88.744"/>
	<path fill="#FFFFFF" d="M205.83,95.103c0,0.598-0.486,1.083-1.084,1.083s-1.082-0.485-1.082-1.083s0.484-1.083,1.082-1.083
		S205.83,94.505,205.83,95.103"/>
	<path fill="#FFFFFF" d="M212.157,95.103c0,0.598-0.485,1.083-1.083,1.083s-1.083-0.485-1.083-1.083s0.485-1.083,1.083-1.083
		S212.157,94.505,212.157,95.103"/>
	<path fill="#FFFFFF" d="M212.157,88.744c0,0.598-0.485,1.083-1.083,1.083s-1.083-0.485-1.083-1.083s0.485-1.083,1.083-1.083
		S212.157,88.146,212.157,88.744"/>
	<path fill="#FFFFFF" d="M212.157,101.495c0,0.598-0.485,1.083-1.083,1.083s-1.083-0.485-1.083-1.083
		c0-0.598,0.485-1.083,1.083-1.083S212.157,100.896,212.157,101.495"/>
	<path fill="#FFFFFF" d="M205.83,101.495c0,0.598-0.486,1.083-1.084,1.083s-1.082-0.485-1.082-1.083
		c0-0.598,0.484-1.083,1.082-1.083S205.83,100.896,205.83,101.495"/>
	<path fill="#FFFFFF" d="M199.443,101.495c0,0.598-0.485,1.083-1.084,1.083c-0.598,0-1.082-0.485-1.082-1.083
		c0-0.598,0.484-1.083,1.082-1.083C198.958,100.412,199.443,100.896,199.443,101.495"/>
	<path fill="#FFFFFF" d="M199.443,95.103c0,0.598-0.485,1.083-1.084,1.083c-0.598,0-1.082-0.485-1.082-1.083
		s0.484-1.083,1.082-1.083C198.958,94.02,199.443,94.505,199.443,95.103"/>
	<path fill="#FFFFFF" d="M218.389,70.546c0,0.598-0.484,1.083-1.083,1.083c-0.598,0-1.083-0.485-1.083-1.083
		c0-0.598,0.485-1.083,1.083-1.083C217.904,69.463,218.389,69.948,218.389,70.546"/>
	<path fill="#FFFFFF" d="M224.775,70.546c0,0.598-0.484,1.083-1.083,1.083s-1.083-0.485-1.083-1.083
		c0-0.598,0.484-1.083,1.083-1.083S224.775,69.948,224.775,70.546"/>
	<path fill="#FFFFFF" d="M224.775,76.23c0,0.598-0.484,1.083-1.083,1.083s-1.083-0.485-1.083-1.083c0-0.598,0.484-1.083,1.083-1.083
		S224.775,75.633,224.775,76.23"/>
	<path fill="#FFFFFF" d="M231.104,76.23c0,0.598-0.485,1.083-1.084,1.083c-0.598,0-1.082-0.485-1.082-1.083
		c0-0.598,0.484-1.083,1.082-1.083C230.618,75.147,231.104,75.633,231.104,76.23"/>
	<path fill="#FFFFFF" d="M231.104,82.622c0,0.598-0.485,1.083-1.084,1.083c-0.598,0-1.082-0.485-1.082-1.083
		s0.484-1.083,1.082-1.083C230.618,81.539,231.104,82.024,231.104,82.622"/>
	<path fill="#FFFFFF" d="M224.775,82.622c0,0.598-0.484,1.083-1.083,1.083s-1.083-0.485-1.083-1.083s0.484-1.083,1.083-1.083
		S224.775,82.024,224.775,82.622"/>
	<path fill="#FFFFFF" d="M218.389,82.622c0,0.598-0.484,1.083-1.083,1.083c-0.598,0-1.083-0.485-1.083-1.083
		s0.485-1.083,1.083-1.083C217.904,81.539,218.389,82.024,218.389,82.622"/>
	<path fill="#FFFFFF" d="M218.389,76.23c0,0.598-0.484,1.083-1.083,1.083c-0.598,0-1.083-0.485-1.083-1.083
		c0-0.598,0.485-1.083,1.083-1.083C217.904,75.147,218.389,75.633,218.389,76.23"/>
	<path fill="#FFFFFF" d="M243.81,82.71c0,0.598-0.485,1.083-1.083,1.083s-1.083-0.485-1.083-1.083s0.485-1.083,1.083-1.083
		S243.81,82.112,243.81,82.71"/>
	<path fill="#FFFFFF" d="M237.424,82.71c0,0.598-0.486,1.083-1.084,1.083s-1.082-0.485-1.082-1.083s0.484-1.083,1.082-1.083
		S237.424,82.112,237.424,82.71"/>
	<path fill="#FFFFFF" d="M237.424,76.319c0,0.598-0.486,1.083-1.084,1.083s-1.082-0.485-1.082-1.083
		c0-0.598,0.484-1.083,1.082-1.083S237.424,75.721,237.424,76.319"/>
	<path fill="#FFFFFF" d="M218.389,88.384c0,0.598-0.484,1.083-1.083,1.083c-0.598,0-1.083-0.485-1.083-1.083
		s0.485-1.083,1.083-1.083C217.904,87.301,218.389,87.786,218.389,88.384"/>
	<path fill="#FFFFFF" d="M224.775,88.384c0,0.598-0.484,1.083-1.083,1.083s-1.083-0.485-1.083-1.083s0.484-1.083,1.083-1.083
		S224.775,87.786,224.775,88.384"/>
	<path fill="#FFFFFF" d="M224.775,94.743c0,0.598-0.484,1.083-1.083,1.083s-1.083-0.485-1.083-1.083
		c0-0.598,0.484-1.083,1.083-1.083S224.775,94.146,224.775,94.743"/>
	<path fill="#FFFFFF" d="M231.104,94.743c0,0.598-0.485,1.083-1.084,1.083c-0.598,0-1.082-0.485-1.082-1.083
		c0-0.598,0.484-1.083,1.082-1.083C230.618,93.66,231.104,94.146,231.104,94.743"/>
	<path fill="#FFFFFF" d="M231.104,88.384c0,0.598-0.485,1.083-1.084,1.083c-0.598,0-1.082-0.485-1.082-1.083
		s0.484-1.083,1.082-1.083C230.618,87.301,231.104,87.786,231.104,88.384"/>
	<path fill="#FFFFFF" d="M231.104,101.135c0,0.598-0.485,1.083-1.084,1.083c-0.598,0-1.082-0.485-1.082-1.083
		s0.484-1.083,1.082-1.083C230.618,100.052,231.104,100.537,231.104,101.135"/>
	<path fill="#FFFFFF" d="M224.775,101.135c0,0.598-0.484,1.083-1.083,1.083s-1.083-0.485-1.083-1.083s0.484-1.083,1.083-1.083
		S224.775,100.537,224.775,101.135"/>
	<path fill="#FFFFFF" d="M218.389,101.135c0,0.598-0.484,1.083-1.083,1.083c-0.598,0-1.083-0.485-1.083-1.083
		s0.485-1.083,1.083-1.083C217.904,100.052,218.389,100.537,218.389,101.135"/>
	<path fill="#FFFFFF" d="M218.389,94.743c0,0.598-0.484,1.083-1.083,1.083c-0.598,0-1.083-0.485-1.083-1.083
		c0-0.598,0.485-1.083,1.083-1.083C217.904,93.66,218.389,94.146,218.389,94.743"/>
	<path fill="#FFFFFF" d="M237.424,88.472c0,0.598-0.486,1.083-1.084,1.083s-1.082-0.485-1.082-1.083s0.484-1.083,1.082-1.083
		S237.424,87.874,237.424,88.472"/>
	<path fill="#FFFFFF" d="M243.81,88.472c0,0.598-0.485,1.083-1.083,1.083s-1.083-0.485-1.083-1.083s0.485-1.083,1.083-1.083
		S243.81,87.874,243.81,88.472"/>
	<path fill="#FFFFFF" d="M243.81,94.832c0,0.598-0.485,1.083-1.083,1.083s-1.083-0.485-1.083-1.083s0.485-1.083,1.083-1.083
		S243.81,94.233,243.81,94.832"/>
	<path fill="#FFFFFF" d="M243.81,101.223c0,0.598-0.485,1.083-1.083,1.083s-1.083-0.485-1.083-1.083
		c0-0.598,0.485-1.083,1.083-1.083S243.81,100.625,243.81,101.223"/>
	<path fill="#FFFFFF" d="M237.424,101.223c0,0.598-0.486,1.083-1.084,1.083s-1.082-0.485-1.082-1.083
		c0-0.598,0.484-1.083,1.082-1.083S237.424,100.625,237.424,101.223"/>
	<path fill="#FFFFFF" d="M237.424,94.832c0,0.598-0.486,1.083-1.084,1.083s-1.082-0.485-1.082-1.083s0.484-1.083,1.082-1.083
		S237.424,94.233,237.424,94.832"/>
	
		<line fill="none" stroke="#FFFFFF" stroke-width="0.834" stroke-miterlimit="10" x1="205.973" y1="68.463" x2="212.421" y2="37.116"/>
	
		<line fill="none" stroke="#FFFFFF" stroke-width="0.834" stroke-miterlimit="10" x1="211.674" y1="68.185" x2="213.36" y2="37.116"/>
	
		<line fill="none" stroke="#FFFFFF" stroke-width="0.834" stroke-miterlimit="10" x1="217.845" y1="68.106" x2="214.324" y2="37.584"/>
	
		<line fill="none" stroke="#FFFFFF" stroke-width="0.834" stroke-miterlimit="10" x1="223.303" y1="67.837" x2="215.307" y2="38.071"/>
	<path fill="none" stroke="#FFFFFF" stroke-width="4.172" stroke-miterlimit="10" d="M213.898,38.15c0,0-1.482-15.001,32.447-9.161"
		/>
	<g opacity="0.5">
		<g>
			<defs>
				<rect id="SVGID_29_" x="200.019" y="64.342" width="9.581" height="11.692"/>
			</defs>
			<clipPath id="SVGID_30_">
				<use xlink:href="#SVGID_29_"  overflow="visible"/>
			</clipPath>
			<polygon clip-path="url(#SVGID_30_)" fill="#FFF100" points="204.729,68.889 206.282,67.168 206.163,69.484 209.6,69.187 
				206.758,70.919 208.479,72.472 206.163,72.354 206.596,76.034 204.729,72.949 203.174,74.669 203.293,72.354 200.02,72.543 
				202.698,70.919 200.977,69.365 203.293,69.484 201.291,64.342 			"/>
		</g>
	</g>
	<g opacity="0.5">
		<g>
			<defs>
				<rect id="SVGID_31_" x="193.895" y="69.724" width="9.581" height="11.692"/>
			</defs>
			<clipPath id="SVGID_32_">
				<use xlink:href="#SVGID_31_"  overflow="visible"/>
			</clipPath>
			<polygon clip-path="url(#SVGID_32_)" fill="#FFF100" points="198.604,74.271 200.158,72.55 200.039,74.866 203.476,74.569 
				200.634,76.301 202.355,77.854 200.039,77.736 200.471,81.416 198.604,78.331 197.05,80.051 197.169,77.736 193.895,77.925 
				196.574,76.301 194.854,74.747 197.169,74.866 195.167,69.724 			"/>
		</g>
	</g>
	<path fill="none" stroke="#FFFFFF" stroke-width="4.172" stroke-miterlimit="10" d="M214.178,37.036
		c0,0-1.172-11.858,22.414-10.384"/>
	<path fill="#33006F" d="M260.787,173.97c0,24.92-20.203,45.124-45.123,45.124c-24.922,0-45.125-20.203-45.125-45.124
		c0-24.921,20.203-45.124,45.125-45.124C240.584,128.846,260.787,149.049,260.787,173.97"/>
	<path fill="none" stroke="#FFFFFF" stroke-width="4.128" stroke-miterlimit="10" d="M164.831,152.531
		c2.912,0.182,27.974,19.984,31.698,20.625"/>
	<rect x="192.396" y="163.834" fill="#CAC8C8" width="49.452" height="23.28"/>
	<path fill="none" stroke="#86754D" stroke-width="0.872" stroke-miterlimit="10" d="M361.591,128.208
		c0.987,0.436,1.436,1.59,0.999,2.577c-0.436,0.988-1.59,1.435-2.577,0.999s-1.435-1.59-0.999-2.577
		c0.265-0.598,0.791-0.998,1.385-1.124C360.786,128.001,361.201,128.036,361.591,128.208z"/>
	<polyline fill="none" stroke="#86754D" stroke-width="0.872" stroke-miterlimit="10" points="391.39,48.863 377.743,54.114 
		361.342,127.693 	"/>
	<g>
		<path fill="#86754D" d="M151.25,22.286h4.229v1.143h-2.845v1.602h2.547v1.134h-2.547v1.638h2.926v1.143h-4.311V22.286z"/>
		<path fill="#86754D" d="M159.043,29.036c-0.99,0-1.727-0.276-2.209-0.828c-0.482-0.552-0.725-1.413-0.725-2.583
			c0-1.176,0.24-2.042,0.721-2.597c0.479-0.555,1.202-0.833,2.168-0.833c0.396,0,0.846,0.045,1.351,0.135v1.116
			c-0.229-0.036-0.437-0.063-0.626-0.081s-0.364-0.027-0.526-0.027c-0.306,0-0.563,0.036-0.774,0.108
			c-0.209,0.072-0.381,0.195-0.512,0.369c-0.133,0.174-0.227,0.408-0.284,0.702c-0.058,0.294-0.085,0.663-0.085,1.107
			c0,0.438,0.027,0.802,0.085,1.093s0.151,0.523,0.284,0.698c0.131,0.174,0.301,0.297,0.508,0.369
			c0.207,0.072,0.461,0.108,0.76,0.108c0.175,0,0.371-0.012,0.59-0.036s0.412-0.054,0.581-0.09v1.098
			c-0.156,0.048-0.351,0.088-0.585,0.122C159.529,29.02,159.289,29.036,159.043,29.036z"/>
		<path fill="#86754D" d="M163.66,29.036c-1.896,0-2.844-1.137-2.844-3.411c0-2.286,0.947-3.429,2.844-3.429
			c1.896,0,2.844,1.143,2.844,3.429C166.504,27.899,165.556,29.036,163.66,29.036z M163.66,27.893c0.258,0,0.477-0.039,0.656-0.117
			c0.181-0.078,0.328-0.207,0.441-0.387c0.114-0.18,0.197-0.414,0.248-0.702c0.051-0.288,0.076-0.642,0.076-1.062
			s-0.025-0.775-0.076-1.067c-0.051-0.291-0.134-0.528-0.248-0.711c-0.113-0.183-0.261-0.315-0.441-0.396
			c-0.18-0.081-0.398-0.122-0.656-0.122s-0.477,0.041-0.657,0.122s-0.327,0.213-0.44,0.396c-0.115,0.183-0.197,0.42-0.248,0.711
			c-0.051,0.292-0.076,0.647-0.076,1.067c0,0.414,0.025,0.765,0.076,1.053s0.133,0.522,0.248,0.702
			c0.113,0.18,0.26,0.311,0.44,0.392S163.402,27.893,163.66,27.893z"/>
		<path fill="#86754D" d="M170.077,29.036c-1.002,0-1.745-0.28-2.228-0.841s-0.725-1.417-0.725-2.569
			c0-1.164,0.263-2.026,0.787-2.588c0.525-0.561,1.331-0.841,2.417-0.841c0.24,0,0.498,0.017,0.774,0.049
			c0.275,0.033,0.543,0.083,0.801,0.149v1.107c-0.611-0.108-1.096-0.162-1.449-0.162c-0.359,0-0.66,0.039-0.9,0.117
			c-0.239,0.078-0.435,0.207-0.584,0.387c-0.15,0.18-0.257,0.416-0.32,0.707c-0.062,0.291-0.094,0.649-0.094,1.076
			c0,0.426,0.028,0.784,0.085,1.075c0.058,0.291,0.149,0.525,0.279,0.702c0.129,0.177,0.298,0.303,0.509,0.378
			c0.209,0.075,0.468,0.112,0.773,0.112c0.156,0,0.33-0.009,0.521-0.027v-2.304h1.261v3.267c-0.39,0.066-0.739,0.117-1.048,0.153
			C170.628,29.018,170.342,29.036,170.077,29.036z"/>
		<path fill="#86754D" d="M174.717,28.19c-0.231-0.792-0.347-1.602-0.347-2.43c0-0.834,0.115-1.646,0.347-2.435
			c0.23-0.789,0.574-1.52,1.03-2.191h1.188v0.036c-0.457,0.672-0.814,1.398-1.076,2.178c-0.261,0.78-0.391,1.584-0.391,2.412
			s0.13,1.632,0.391,2.412c0.262,0.78,0.619,1.506,1.076,2.178v0.036h-1.188C175.291,29.714,174.947,28.982,174.717,28.19z"/>
		<path fill="#86754D" d="M179.851,29.036c-1.002,0-1.745-0.28-2.228-0.841s-0.725-1.417-0.725-2.569
			c0-1.164,0.263-2.026,0.787-2.588c0.525-0.561,1.331-0.841,2.417-0.841c0.24,0,0.498,0.017,0.774,0.049
			c0.275,0.033,0.543,0.083,0.801,0.149v1.107c-0.611-0.108-1.096-0.162-1.449-0.162c-0.359,0-0.66,0.039-0.9,0.117
			c-0.239,0.078-0.435,0.207-0.584,0.387c-0.15,0.18-0.257,0.416-0.32,0.707c-0.062,0.291-0.094,0.649-0.094,1.076
			c0,0.426,0.028,0.784,0.085,1.075c0.058,0.291,0.149,0.525,0.279,0.702c0.129,0.177,0.298,0.303,0.509,0.378
			c0.209,0.075,0.468,0.112,0.773,0.112c0.156,0,0.33-0.009,0.521-0.027v-2.304h1.261v3.267c-0.39,0.066-0.739,0.117-1.048,0.153
			C180.401,29.018,180.115,29.036,179.851,29.036z"/>
		<path fill="#86754D" d="M185.125,26.651c-0.078,0.006-0.156,0.01-0.234,0.013c-0.078,0.003-0.158,0.005-0.242,0.005
			c-0.024,0-0.059,0-0.104,0s-0.096,0-0.148,0c-0.055,0-0.105-0.001-0.154-0.005c-0.047-0.003-0.084-0.004-0.107-0.004v2.286h-1.386
			v-6.615c0.282-0.048,0.569-0.082,0.864-0.103c0.293-0.021,0.59-0.032,0.891-0.032c1.062,0,1.833,0.179,2.312,0.536
			c0.48,0.357,0.721,0.931,0.721,1.723c0,0.972-0.396,1.624-1.188,1.953l1.396,2.538h-1.485L185.125,26.651z M184.738,25.598
			c0.258,0,0.474-0.021,0.647-0.063s0.315-0.108,0.423-0.198c0.108-0.09,0.186-0.207,0.234-0.351
			c0.048-0.144,0.072-0.321,0.072-0.531c0-0.21-0.024-0.388-0.072-0.535c-0.049-0.147-0.126-0.266-0.234-0.355
			c-0.107-0.09-0.249-0.155-0.423-0.194c-0.174-0.039-0.387-0.058-0.639-0.058c-0.085,0-0.185,0.006-0.302,0.018
			c-0.117,0.012-0.221,0.024-0.311,0.036v2.187c0.084,0.012,0.18,0.022,0.288,0.032C184.531,25.594,184.636,25.598,184.738,25.598z"
			/>
		<path fill="#86754D" d="M188.428,22.286h1.387v6.66h-1.387V22.286z"/>
		<path fill="#86754D" d="M192.613,29.063c-0.517,0-1.066-0.036-1.647-0.108v-6.651c0.396-0.03,0.741-0.054,1.034-0.072
			c0.295-0.018,0.559-0.027,0.793-0.027c0.6,0,1.111,0.065,1.534,0.194s0.77,0.332,1.04,0.607c0.27,0.276,0.467,0.63,0.594,1.062
			c0.125,0.432,0.188,0.951,0.188,1.557c0,0.612-0.065,1.135-0.198,1.57c-0.131,0.435-0.338,0.791-0.621,1.066
			c-0.281,0.276-0.646,0.479-1.093,0.607C193.79,28.999,193.248,29.063,192.613,29.063z M193.099,27.938
			c0.3,0,0.554-0.039,0.761-0.117s0.373-0.207,0.5-0.387c0.125-0.18,0.217-0.418,0.273-0.715s0.086-0.665,0.086-1.103
			c0-0.432-0.029-0.795-0.086-1.089s-0.151-0.531-0.283-0.711c-0.132-0.18-0.307-0.309-0.521-0.387
			c-0.217-0.078-0.483-0.117-0.801-0.117c-0.229,0-0.459,0.018-0.693,0.054v4.518c0.156,0.018,0.293,0.032,0.414,0.041
			C192.867,27.934,192.984,27.938,193.099,27.938z"/>
		<path fill="#86754D" d="M196.132,30.386V30.35c0.456-0.672,0.813-1.398,1.071-2.178s0.387-1.584,0.387-2.412
			s-0.129-1.632-0.387-2.412c-0.258-0.78-0.615-1.506-1.071-2.178v-0.036h1.179c0.463,0.672,0.809,1.403,1.04,2.191
			c0.231,0.789,0.347,1.601,0.347,2.435c0,0.828-0.115,1.638-0.347,2.43s-0.577,1.524-1.04,2.196H196.132z"/>
		<path fill="#86754D" d="M203.818,29.036c-1.896,0-2.845-1.137-2.845-3.411c0-2.286,0.948-3.429,2.845-3.429
			c1.895,0,2.844,1.143,2.844,3.429C206.662,27.899,205.713,29.036,203.818,29.036z M203.818,27.893
			c0.258,0,0.477-0.039,0.656-0.117s0.327-0.207,0.441-0.387c0.113-0.18,0.196-0.414,0.247-0.702
			c0.051-0.288,0.077-0.642,0.077-1.062s-0.026-0.775-0.077-1.067c-0.051-0.291-0.134-0.528-0.247-0.711
			c-0.114-0.183-0.262-0.315-0.441-0.396s-0.398-0.122-0.656-0.122c-0.259,0-0.478,0.041-0.658,0.122
			c-0.18,0.081-0.326,0.213-0.44,0.396c-0.114,0.183-0.196,0.42-0.247,0.711c-0.051,0.292-0.077,0.647-0.077,1.067
			c0,0.414,0.026,0.765,0.077,1.053s0.133,0.522,0.247,0.702c0.114,0.18,0.261,0.311,0.44,0.392
			C203.341,27.853,203.56,27.893,203.818,27.893z"/>
		<path fill="#86754D" d="M207.553,22.286h1.152l2.465,3.627l0.414,0.738h0.072v-4.365h1.233v6.66h-1.151l-2.457-3.618l-0.424-0.756
			h-0.081v4.374h-1.224V22.286z"/>
		<path fill="#86754D" d="M217.758,29.036c-0.33,0-0.668-0.01-1.017-0.031s-0.685-0.056-1.008-0.104v-6.57
			c0.414-0.048,0.776-0.082,1.089-0.103s0.611-0.032,0.9-0.032c0.912,0,1.576,0.148,1.993,0.445
			c0.417,0.297,0.626,0.773,0.626,1.427c0,0.786-0.346,1.266-1.035,1.44v0.036c0.396,0.078,0.699,0.253,0.908,0.526
			c0.211,0.273,0.315,0.628,0.315,1.066C220.53,28.403,219.605,29.036,217.758,29.036z M217.812,25.104
			c0.203,0,0.378-0.017,0.521-0.05c0.145-0.033,0.26-0.087,0.347-0.162c0.087-0.075,0.149-0.172,0.188-0.292
			c0.039-0.12,0.059-0.267,0.059-0.441c0-0.324-0.086-0.558-0.261-0.702c-0.174-0.144-0.45-0.216-0.827-0.216
			c-0.145,0-0.283,0.004-0.414,0.014c-0.133,0.009-0.268,0.022-0.406,0.041v1.809H217.812z M217.893,28.001
			c0.816-0.012,1.225-0.33,1.225-0.954c0-0.348-0.096-0.596-0.288-0.743s-0.517-0.22-0.972-0.22h-0.838v1.863
			C217.182,27.983,217.473,28.001,217.893,28.001z"/>
		<path fill="#86754D" d="M223.762,26.651c-0.078,0.006-0.156,0.01-0.234,0.013c-0.078,0.003-0.159,0.005-0.243,0.005
			c-0.024,0-0.059,0-0.104,0s-0.095,0-0.148,0s-0.104-0.001-0.153-0.005c-0.048-0.003-0.084-0.004-0.107-0.004v2.286h-1.387v-6.615
			c0.282-0.048,0.57-0.082,0.864-0.103s0.591-0.032,0.892-0.032c1.062,0,1.832,0.179,2.312,0.536s0.72,0.931,0.72,1.723
			c0,0.972-0.396,1.624-1.188,1.953l1.396,2.538h-1.485L223.762,26.651z M223.374,25.598c0.258,0,0.474-0.021,0.647-0.063
			s0.315-0.108,0.424-0.198c0.107-0.09,0.186-0.207,0.234-0.351c0.047-0.144,0.071-0.321,0.071-0.531
			c0-0.21-0.024-0.388-0.071-0.535c-0.049-0.147-0.127-0.266-0.234-0.355c-0.108-0.09-0.25-0.155-0.424-0.194
			c-0.174-0.039-0.387-0.058-0.639-0.058c-0.084,0-0.184,0.006-0.301,0.018c-0.117,0.012-0.221,0.024-0.311,0.036v2.187
			c0.084,0.012,0.18,0.022,0.287,0.032C223.167,25.594,223.271,25.598,223.374,25.598z"/>
		<path fill="#86754D" d="M226.488,28.883l1.891-6.597h2.078l1.891,6.597v0.063h-1.323l-0.478-1.656h-2.268l-0.468,1.656h-1.323
			V28.883z M230.26,26.183l-0.504-1.782l-0.289-1.089h-0.107l-0.288,1.089l-0.504,1.782H230.26z"/>
		<path fill="#86754D" d="M232.924,22.286h1.385v6.66h-1.385V22.286z"/>
		<path fill="#86754D" d="M235.461,22.286h1.152l2.466,3.627l0.414,0.738h0.072v-4.365h1.233v6.66h-1.152l-2.457-3.618l-0.424-0.756
			h-0.08v4.374h-1.225V22.286z"/>
		<path fill="#86754D" d="M245.441,29.054c-0.317,0-0.658-0.027-1.021-0.081c-0.363-0.054-0.715-0.135-1.057-0.243l0.018-1.152
			c0.139,0.048,0.287,0.092,0.445,0.131c0.159,0.039,0.321,0.073,0.486,0.104c0.165,0.03,0.325,0.054,0.481,0.072
			c0.155,0.018,0.303,0.027,0.44,0.027c0.744,0,1.117-0.267,1.117-0.801c0-0.138-0.027-0.255-0.082-0.351
			c-0.054-0.096-0.133-0.178-0.238-0.248c-0.105-0.069-0.229-0.13-0.373-0.185c-0.145-0.054-0.307-0.108-0.486-0.162
			c-0.264-0.072-0.502-0.156-0.715-0.252c-0.214-0.096-0.396-0.223-0.55-0.382c-0.153-0.159-0.271-0.353-0.355-0.581
			s-0.126-0.51-0.126-0.846c0-0.294,0.053-0.56,0.158-0.797c0.104-0.237,0.258-0.439,0.459-0.607c0.2-0.168,0.445-0.295,0.732-0.382
			c0.289-0.087,0.612-0.13,0.973-0.13c0.258,0,0.523,0.02,0.797,0.058c0.272,0.039,0.576,0.101,0.913,0.185l-0.009,1.125
			c-0.264-0.072-0.542-0.13-0.833-0.175s-0.542-0.067-0.751-0.067c-0.33,0-0.584,0.066-0.761,0.198
			c-0.177,0.132-0.266,0.324-0.266,0.576c0,0.138,0.028,0.255,0.085,0.351c0.058,0.096,0.141,0.181,0.248,0.256
			s0.24,0.144,0.396,0.207c0.155,0.063,0.332,0.127,0.531,0.193c0.252,0.084,0.479,0.177,0.684,0.279
			c0.203,0.103,0.379,0.229,0.526,0.378s0.259,0.328,0.337,0.535s0.117,0.458,0.117,0.751c0,0.636-0.202,1.131-0.607,1.485
			C246.752,28.877,246.18,29.054,245.441,29.054z"/>
		<path fill="#86754D" d="M251.148,29.036c-0.486,0-0.897-0.055-1.233-0.167c-0.336-0.111-0.608-0.277-0.819-0.5
			c-0.21-0.222-0.361-0.502-0.454-0.841s-0.14-0.739-0.14-1.202v-4.041h1.387v3.996c0,0.564,0.097,0.971,0.292,1.22
			c0.194,0.249,0.517,0.374,0.968,0.374c0.449,0,0.771-0.123,0.967-0.369s0.293-0.654,0.293-1.224v-3.996h1.386v4.041
			c0,0.462-0.046,0.863-0.14,1.202c-0.093,0.339-0.244,0.621-0.454,0.846c-0.21,0.225-0.483,0.391-0.819,0.5
			C252.045,28.982,251.634,29.036,251.148,29.036z"/>
		<path fill="#86754D" d="M257.268,26.651c-0.078,0.006-0.156,0.01-0.234,0.013c-0.077,0.003-0.158,0.005-0.242,0.005
			c-0.023,0-0.059,0-0.104,0s-0.095,0-0.148,0c-0.055,0-0.105-0.001-0.153-0.005c-0.048-0.003-0.084-0.004-0.108-0.004v2.286h-1.385
			v-6.615c0.281-0.048,0.569-0.082,0.863-0.103s0.591-0.032,0.891-0.032c1.062,0,1.834,0.179,2.313,0.536s0.72,0.931,0.72,1.723
			c0,0.972-0.396,1.624-1.188,1.953l1.395,2.538h-1.484L257.268,26.651z M256.881,25.598c0.258,0,0.475-0.021,0.648-0.063
			s0.314-0.108,0.423-0.198c0.108-0.09,0.186-0.207,0.233-0.351c0.049-0.144,0.072-0.321,0.072-0.531
			c0-0.21-0.023-0.388-0.072-0.535c-0.048-0.147-0.125-0.266-0.233-0.355c-0.108-0.09-0.249-0.155-0.423-0.194
			c-0.174-0.039-0.387-0.058-0.639-0.058c-0.085,0-0.186,0.006-0.303,0.018c-0.117,0.012-0.221,0.024-0.311,0.036v2.187
			c0.084,0.012,0.181,0.022,0.289,0.032C256.674,25.594,256.779,25.598,256.881,25.598z"/>
		<path fill="#86754D" d="M260.57,22.286h4.141v1.143h-2.754v1.746h2.483v1.134h-2.483v2.637h-1.387V22.286z"/>
		<path fill="#86754D" d="M264.585,28.883l1.89-6.597h2.08l1.889,6.597v0.063h-1.322l-0.477-1.656h-2.269l-0.468,1.656h-1.323
			V28.883z M268.355,26.183l-0.504-1.782l-0.287-1.089h-0.108l-0.288,1.089l-0.504,1.782H268.355z"/>
		<path fill="#86754D" d="M273.576,29.036c-0.99,0-1.727-0.276-2.21-0.828c-0.483-0.552-0.725-1.413-0.725-2.583
			c0-1.176,0.239-2.042,0.72-2.597c0.48-0.555,1.203-0.833,2.17-0.833c0.396,0,0.846,0.045,1.35,0.135v1.116
			c-0.229-0.036-0.437-0.063-0.625-0.081c-0.189-0.018-0.365-0.027-0.527-0.027c-0.306,0-0.564,0.036-0.773,0.108
			c-0.211,0.072-0.381,0.195-0.514,0.369c-0.132,0.174-0.227,0.408-0.283,0.702c-0.057,0.294-0.086,0.663-0.086,1.107
			c0,0.438,0.029,0.802,0.086,1.093s0.151,0.523,0.283,0.698c0.133,0.174,0.302,0.297,0.509,0.369
			c0.207,0.072,0.46,0.108,0.761,0.108c0.174,0,0.37-0.012,0.59-0.036c0.219-0.024,0.412-0.054,0.58-0.09v1.098
			c-0.156,0.048-0.352,0.088-0.585,0.122C274.062,29.02,273.822,29.036,273.576,29.036z"/>
		<path fill="#86754D" d="M275.718,22.286h4.229v1.143h-2.844v1.602h2.547v1.134h-2.547v1.638h2.926v1.143h-4.312V22.286z"/>
	</g>
</g>
</svg>
