<?xml version="1.0" encoding="utf-8"?>
<!-- Generator: Adobe Illustrator 16.0.0, SVG Export Plug-In . SVG Version: 6.00 Build 0)  -->
<!DOCTYPE svg PUBLIC "-//W3C//DTD SVG 1.1//EN" "http://www.w3.org/Graphics/SVG/1.1/DTD/svg11.dtd">
<svg version="1.1" id="Layer_1" xmlns="http://www.w3.org/2000/svg" xmlns:xlink="http://www.w3.org/1999/xlink" x="0px" y="0px"
	 width="225px" height="252px" viewBox="0 0 225 252" enable-background="new 0 0 225 252" xml:space="preserve">
<g>
	<path fill="#33006F" d="M175.715,133.709c0,40.117-32.521,72.639-72.639,72.639s-72.638-32.521-72.638-72.639
		s32.521-72.638,72.638-72.638S175.715,93.592,175.715,133.709"/>
	<path fill="#FFFFFF" d="M134.626,100.015c0.603,0.468,1.436,0.433,1.996-0.041c0.49,0.015,0.979-0.196,1.302-0.612
		c0.349-0.447,0.418-1.023,0.236-1.521c0.159-0.097,0.305-0.224,0.426-0.38c0.537-0.692,0.412-1.688-0.279-2.225
		c-0.043-0.033-0.086-0.063-0.131-0.092c-0.079-0.344-0.271-0.662-0.572-0.896c-0.69-0.537-1.687-0.412-2.224,0.28
		c-0.09,0.114-0.161,0.238-0.214,0.367c-0.466,0.006-0.926,0.217-1.234,0.612c-0.271,0.351-0.374,0.776-0.318,1.185
		c-0.103,0.078-0.195,0.172-0.278,0.277c-0.537,0.691-0.412,1.688,0.279,2.225c0.174,0.135,0.367,0.229,0.568,0.282
		C134.286,99.681,134.434,99.865,134.626,100.015"/>
	<path fill="#FFFFFF" d="M144.809,91.596c0.557,0.522,1.39,0.565,1.991,0.146c0.486,0.061,0.993-0.104,1.354-0.486
		c0.389-0.414,0.513-0.98,0.378-1.492c0.168-0.082,0.324-0.195,0.46-0.34c0.599-0.638,0.568-1.641-0.069-2.24
		c-0.039-0.037-0.08-0.071-0.122-0.104c-0.046-0.349-0.208-0.685-0.484-0.945c-0.639-0.6-1.642-0.568-2.241,0.069
		c-0.101,0.106-0.183,0.224-0.247,0.347c-0.465-0.039-0.942,0.127-1.286,0.494c-0.303,0.321-0.445,0.737-0.429,1.147
		c-0.109,0.069-0.211,0.153-0.304,0.251c-0.6,0.638-0.568,1.643,0.068,2.24c0.161,0.152,0.346,0.264,0.541,0.334
		C144.502,91.231,144.632,91.428,144.809,91.596"/>
	<path fill="#33006F" d="M207.071,53.271c0,17.65-14.308,31.959-31.959,31.959c-17.649,0-31.959-14.309-31.959-31.959
		c0-17.649,14.31-31.959,31.959-31.959C192.764,21.312,207.071,35.622,207.071,53.271"/>
	<g>
		<defs>
			<rect id="SVGID_1_" x="165.312" y="37.373" width="19.64" height="6.278"/>
		</defs>
		<clipPath id="SVGID_2_">
			<use xlink:href="#SVGID_1_"  overflow="visible"/>
		</clipPath>
		<path clip-path="url(#SVGID_2_)" fill="#FFFFFF" d="M184.817,40.512c0,1.66-4.336,3.005-9.685,3.005
			c-5.35,0-9.686-1.345-9.686-3.005c0-1.658,4.336-3.004,9.686-3.004C180.481,37.508,184.817,38.854,184.817,40.512"/>
		
			<ellipse clip-path="url(#SVGID_2_)" fill="none" stroke="#404041" stroke-width="0.269" stroke-miterlimit="10" cx="175.132" cy="40.512" rx="9.685" ry="3.005"/>
	</g>
	<path fill="#00B8F1" d="M184.817,48.584c0,1.658-4.336,3.004-9.685,3.004c-5.35,0-9.686-1.346-9.686-3.004
		c0-1.66,4.336-3.004,9.686-3.004C180.481,45.58,184.817,46.924,184.817,48.584"/>
	<g>
		<defs>
			<rect id="SVGID_3_" x="165.312" y="62.573" width="19.64" height="6.277"/>
		</defs>
		<clipPath id="SVGID_4_">
			<use xlink:href="#SVGID_3_"  overflow="visible"/>
		</clipPath>
		<path clip-path="url(#SVGID_4_)" fill="#FFFFFF" d="M184.817,65.712c0,1.659-4.336,3.004-9.685,3.004
			c-5.35,0-9.686-1.345-9.686-3.004s4.336-3.005,9.686-3.005C180.481,62.707,184.817,64.053,184.817,65.712"/>
		
			<ellipse clip-path="url(#SVGID_4_)" fill="none" stroke="#929497" stroke-width="0.269" stroke-miterlimit="10" cx="175.132" cy="65.712" rx="9.685" ry="3.004"/>
	</g>
	<g>
		<defs>
			<rect id="SVGID_5_" x="165.313" y="40.5" width="19.626" height="28.351"/>
		</defs>
		<clipPath id="SVGID_6_">
			<use xlink:href="#SVGID_5_"  overflow="visible"/>
		</clipPath>
		<path clip-path="url(#SVGID_6_)" fill="#FFFFFF" d="M184.806,65.869c0,0-1.042,2.869-9.673,2.847
			c-8.633-0.022-9.686-2.847-9.686-2.847V40.513c0,0,0.291,2.914,9.686,3.004c9.393,0.09,9.673-3.004,9.673-3.004V65.869z"/>
		<path clip-path="url(#SVGID_6_)" fill="none" stroke="#404041" stroke-width="0.268" stroke-miterlimit="10" d="M184.806,65.869
			c0,0-1.042,2.869-9.673,2.847c-8.633-0.022-9.686-2.847-9.686-2.847V40.513c0,0,0.291,2.914,9.686,3.004
			c9.393,0.09,9.673-3.004,9.673-3.004V65.869z"/>
	</g>
	<path fill="#6DCEF5" d="M184.952,66.06c0,0-1.112,2.998-9.743,2.976c-8.632-0.022-9.936-3.023-9.936-3.023l0.049-17.375
		c0,0,0.394,2.861,9.787,2.951c9.395,0.089,9.746-3.239,9.746-3.239L184.952,66.06z"/>
	<g>
		<defs>
			<path id="SVGID_7_" d="M30.438,133.709c0,40.117,32.521,72.639,72.638,72.639s72.638-32.521,72.638-72.639
				s-32.521-72.638-72.638-72.638S30.438,93.592,30.438,133.709"/>
		</defs>
		<clipPath id="SVGID_8_">
			<use xlink:href="#SVGID_7_"  overflow="visible"/>
		</clipPath>
		<polygon clip-path="url(#SVGID_8_)" fill="#A87C4F" points="47.882,191.529 53.935,157.384 62.471,148.048 89.946,140.712 
			90.213,126.041 114.354,126.307 114.754,141.245 141.438,148.398 150.899,157.918 156.102,192.195 70.353,202.026 		"/>
		<polygon clip-path="url(#SVGID_8_)" fill="#8A6640" points="102.652,125.968 114.354,126.307 114.755,141.245 141.437,148.398 
			150.899,157.917 156.101,192.195 133.105,201.804 102.15,191.927 		"/>
		<polygon clip-path="url(#SVGID_8_)" fill="#754C28" points="102.483,74.023 117.154,77.357 127.292,90.029 127.425,111.103 
			118.488,126.974 85.812,123.906 77.543,110.436 77.676,89.896 87.812,76.558 		"/>
		<polygon clip-path="url(#SVGID_8_)" fill="#603813" points="102.483,74.023 117.154,77.357 127.292,90.029 127.425,111.103 
			118.488,126.974 102.145,125.439 		"/>
		<polygon clip-path="url(#SVGID_8_)" fill="#A87C4F" points="85.145,128.441 84.745,119.105 82.878,117.639 82.61,111.369 
			85.145,113.236 85.277,98.432 88.88,93.631 102.884,92.029 116.889,94.163 119.956,97.364 120.223,112.569 121.689,111.502 
			121.557,118.172 120.09,119.506 119.688,128.309 109.686,139.645 95.947,139.911 		"/>
		<polygon clip-path="url(#SVGID_8_)" fill="#5F338B" points="102.46,157.588 114.464,152.119 117.933,142.115 141.474,148.385 
			150.476,157.721 154.077,181.462 136.472,187.464 129.577,215.281 72.146,215.06 67.782,187.598 49.644,180.529 53.512,157.188 
			62.047,147.852 85.788,141.582 88.989,152.386 		"/>
		<polygon clip-path="url(#SVGID_8_)" fill="#8A6640" points="102.884,92.029 116.889,94.164 119.956,97.364 120.223,112.569 
			121.689,111.502 121.557,118.172 120.09,119.504 119.688,128.308 109.686,139.645 102.551,139.783 		"/>
		<polygon clip-path="url(#SVGID_8_)" fill="#4A1B7D" points="102.449,157.641 114.453,152.172 117.933,142.116 141.466,148.373 
			150.899,157.917 154.5,181.658 136.895,187.66 130.001,215.479 101.471,215.256 		"/>
		<polygon clip-path="url(#SVGID_8_)" fill="#8A6640" points="102.652,139.826 90.014,133.729 90.014,137.388 102.792,144.096 		"/>
		<path clip-path="url(#SVGID_8_)" fill="#808184" d="M125.979,159.621c-0.043,0.476-0.463,0.826-0.938,0.783
			s-0.826-0.463-0.783-0.938s0.463-0.826,0.938-0.783S126.022,159.146,125.979,159.621"/>
		
			<rect x="125.926" y="159.924" transform="matrix(0.921 0.3895 -0.3895 0.921 72.7386 -37.1433)" clip-path="url(#SVGID_8_)" fill="#808184" width="4.072" height="1.742"/>
		<polygon clip-path="url(#SVGID_8_)" fill="#808184" points="123.879,160.226 121.229,159.294 121.515,157.666 124.376,158.074 		
			"/>
		<polygon clip-path="url(#SVGID_8_)" fill="#808184" points="120.608,158.926 118.714,157.795 119.118,156.785 121.233,157.613 		
			"/>
		<g opacity="0.6" clip-path="url(#SVGID_8_)">
			<g>
				<defs>
					<rect id="SVGID_9_" x="102.064" y="143.739" width="25.688" height="8.211"/>
				</defs>
				<clipPath id="SVGID_10_">
					<use xlink:href="#SVGID_9_"  overflow="visible"/>
				</clipPath>
				<path clip-path="url(#SVGID_10_)" fill="#FFFFFF" d="M127.576,147.845c0,2.17-5.672,3.929-12.668,3.929
					s-12.668-1.759-12.668-3.929s5.672-3.929,12.668-3.929S127.576,145.675,127.576,147.845"/>
				
					<ellipse clip-path="url(#SVGID_10_)" fill="none" stroke="#929497" stroke-width="0.352" stroke-miterlimit="10" cx="114.908" cy="147.845" rx="12.668" ry="3.929"/>
			</g>
		</g>
		<g opacity="0.6" clip-path="url(#SVGID_8_)">
			<g>
				<defs>
					<rect id="SVGID_11_" x="102.24" y="154.471" width="25.336" height="7.859"/>
				</defs>
				<clipPath id="SVGID_12_">
					<use xlink:href="#SVGID_11_"  overflow="visible"/>
				</clipPath>
				<path clip-path="url(#SVGID_12_)" fill="#ABE0F9" d="M127.576,158.401c0,2.17-5.672,3.929-12.668,3.929
					s-12.668-1.759-12.668-3.929s5.672-3.929,12.668-3.929S127.576,156.231,127.576,158.401"/>
			</g>
		</g>
		<g opacity="0.6" clip-path="url(#SVGID_8_)">
			<g>
				<defs>
					<rect id="SVGID_13_" x="102.064" y="176.699" width="25.688" height="8.211"/>
				</defs>
				<clipPath id="SVGID_14_">
					<use xlink:href="#SVGID_13_"  overflow="visible"/>
				</clipPath>
				<path clip-path="url(#SVGID_14_)" fill="#FFFFFF" d="M127.576,180.805c0,2.17-5.672,3.93-12.668,3.93s-12.668-1.76-12.668-3.93
					s5.672-3.929,12.668-3.929S127.576,178.635,127.576,180.805"/>
				
					<ellipse clip-path="url(#SVGID_14_)" fill="none" stroke="#929497" stroke-width="0.352" stroke-miterlimit="10" cx="114.908" cy="180.805" rx="12.668" ry="3.93"/>
			</g>
		</g>
		<g opacity="0.6" clip-path="url(#SVGID_8_)">
			<g>
				<defs>
					<rect id="SVGID_15_" x="102.065" y="147.827" width="25.671" height="37.082"/>
				</defs>
				<clipPath id="SVGID_16_">
					<use xlink:href="#SVGID_15_"  overflow="visible"/>
				</clipPath>
				<path clip-path="url(#SVGID_16_)" fill="#FFFFFF" d="M127.561,181.01c0,0-1.362,3.754-12.651,3.725
					c-11.29-0.029-12.668-3.725-12.668-3.725v-33.164c0,0,0.381,3.812,12.668,3.928c12.286,0.117,12.651-3.928,12.651-3.928V181.01z
					"/>
				<path clip-path="url(#SVGID_16_)" fill="none" stroke="#929497" stroke-width="0.351" stroke-miterlimit="10" d="
					M127.561,181.01c0,0-1.362,3.754-12.651,3.725c-11.29-0.029-12.668-3.725-12.668-3.725v-33.164c0,0,0.381,3.812,12.668,3.928
					c12.286,0.117,12.651-3.928,12.651-3.928V181.01z"/>
			</g>
		</g>
		<g opacity="0.6" clip-path="url(#SVGID_8_)">
			<g>
				<defs>
					<rect id="SVGID_17_" x="102.211" y="158.401" width="25.351" height="26.333"/>
				</defs>
				<clipPath id="SVGID_18_">
					<use xlink:href="#SVGID_17_"  overflow="visible"/>
				</clipPath>
				<path clip-path="url(#SVGID_18_)" fill="#C6E9FA" d="M127.561,181.01c0,0-1.362,3.754-12.651,3.725
					c-11.29-0.029-12.668-3.725-12.668-3.725l-0.03-22.609c0,0,0.381,3.812,12.668,3.931c12.287,0.117,12.653-3.931,12.653-3.931
					L127.561,181.01z"/>
			</g>
		</g>
		<path clip-path="url(#SVGID_8_)" fill="#D0D2D3" d="M144.867,176.066c-0.193,2.15-2.094,3.734-4.241,3.539
			c-2.149-0.194-3.733-2.094-3.539-4.242s2.094-3.732,4.241-3.538C143.478,172.02,145.062,173.918,144.867,176.066"/>
		<path clip-path="url(#SVGID_8_)" fill="#808184" d="M133.803,163.064c-0.102,1.111-1.083,1.93-2.194,1.83
			c-1.111-0.101-1.93-1.083-1.829-2.193c0.1-1.111,1.082-1.931,2.193-1.83C133.083,160.972,133.902,161.953,133.803,163.064"/>
		<path clip-path="url(#SVGID_8_)" fill="#D0D2D3" d="M137.605,168.701l-10.084-5.258l-3.488-0.133c0,0,0.812,1.702,0.731,3.264
			s-1.801,2.553-1.801,2.553s-1.507,0.648-1.729,1.773c-0.223,1.127,1.742,2.09,1.682,2.748c-0.059,0.657-0.358,0.631-0.51,1.643
			c-0.152,1.013,0.616,2.529,0.616,2.529s-0.218,1.067-0.099,1.742c0.12,0.674,0.671,1.268,0.671,1.268l6.534,1.134l5.642-1.662
			L137.605,168.701z"/>
		
			<rect x="120.24" y="164.433" transform="matrix(0.9959 0.0902 -0.0902 0.9959 15.4604 -10.3327)" clip-path="url(#SVGID_8_)" fill="#808184" width="3.726" height="3.065"/>
		
			<rect x="113.715" y="163.979" transform="matrix(0.9959 0.09 -0.09 0.9959 15.3721 -9.8369)" clip-path="url(#SVGID_8_)" fill="#808184" width="6.065" height="3.065"/>
		<polygon clip-path="url(#SVGID_8_)" fill="#808184" points="117.936,176.691 112.385,175.019 112.661,171.967 118.212,173.64 		
			"/>
		<polygon clip-path="url(#SVGID_8_)" fill="#808184" points="119.322,180.709 115.21,179.468 115.486,176.416 119.599,177.656 		
			"/>
		<polygon clip-path="url(#SVGID_8_)" fill="#808184" points="117.906,172.012 111.894,170.78 112.143,168.413 118.183,168.961 		
			"/>
		<polygon clip-path="url(#SVGID_8_)" fill="#808184" points="110.598,165.756 106.659,164.937 106.85,162.826 110.789,163.646 		
			"/>
		<polygon clip-path="url(#SVGID_8_)" fill="#808184" points="109.89,170.247 107.437,168.01 107.628,165.898 110.081,168.137 		"/>
		<polygon clip-path="url(#SVGID_8_)" fill="#808184" points="110.431,174.278 108.362,171.457 108.554,169.346 110.621,172.168 		
			"/>
		<polygon clip-path="url(#SVGID_8_)" fill="#808184" points="113.297,178.942 112.072,177.479 112.262,175.369 113.488,176.832 		
			"/>
		
			<rect x="120.24" y="165.373" transform="matrix(0.9959 0.0901 -0.0901 0.9959 15.4562 -10.3302)" clip-path="url(#SVGID_8_)" fill="#BBBDBF" width="3.727" height="1.187"/>
		
			<rect x="111.062" y="164.426" transform="matrix(0.9959 0.0901 -0.0901 0.9959 15.321 -9.4455)" clip-path="url(#SVGID_8_)" fill="#808184" width="2.494" height="1.186"/>
		
			<rect x="110.239" y="168.773" transform="matrix(0.9959 0.09 -0.09 0.9959 15.6952 -9.303)" clip-path="url(#SVGID_8_)" fill="#808184" width="1.508" height="1.186"/>
		
			<rect x="110.814" y="172.747" transform="matrix(0.9959 0.09 -0.09 0.9959 16.0552 -9.3387)" clip-path="url(#SVGID_8_)" fill="#808184" width="1.508" height="1.186"/>
		
			<rect x="113.67" y="177.198" transform="matrix(0.9959 0.09 -0.09 0.9959 16.4675 -9.5777)" clip-path="url(#SVGID_8_)" fill="#808184" width="1.508" height="1.186"/>
		
			<rect x="103.779" y="162.611" transform="matrix(0.9959 0.0901 -0.0901 0.9959 15.1685 -8.804)" clip-path="url(#SVGID_8_)" fill="#808184" width="2.689" height="2.079"/>
		
			<rect x="118.549" y="169.099" transform="matrix(0.9959 0.09 -0.09 0.9959 15.8381 -10.0736)" clip-path="url(#SVGID_8_)" fill="#808184" width="2.203" height="3.065"/>
		
			<rect x="118.548" y="170.038" transform="matrix(0.9959 0.0901 -0.0901 0.9959 15.8665 -10.0893)" clip-path="url(#SVGID_8_)" fill="#BBBDBF" width="2.189" height="1.187"/>
		
			<rect x="118.484" y="173.853" transform="matrix(0.9959 0.0901 -0.0901 0.9959 16.2945 -10.1164)" clip-path="url(#SVGID_8_)" fill="#808184" width="3.381" height="3.064"/>
		
			<rect x="118.483" y="174.792" transform="matrix(0.9959 0.09 -0.09 0.9959 16.2701 -10.1023)" clip-path="url(#SVGID_8_)" fill="#BBBDBF" width="3.375" height="1.186"/>
		
			<rect x="119.819" y="177.739" transform="matrix(0.9959 0.0899 -0.0899 0.9959 16.6112 -10.1644)" clip-path="url(#SVGID_8_)" fill="#808184" width="2.585" height="3.065"/>
		
			<rect x="119.819" y="178.678" transform="matrix(0.9959 0.09 -0.09 0.9959 16.6176 -10.1679)" clip-path="url(#SVGID_8_)" fill="#BBBDBF" width="2.584" height="1.186"/>
		<polygon clip-path="url(#SVGID_8_)" fill="#D0D2D3" points="153.78,173.139 167.648,176.26 163.323,190.743 159.556,189.35 
			153.901,187.148 150,185.589 		"/>
		<polygon clip-path="url(#SVGID_8_)" fill="#D0D2D3" points="153.78,173.139 146,173.764 143.888,180.451 150,185.589 		"/>
		<polygon clip-path="url(#SVGID_8_)" fill="#808184" points="153.78,173.139 167.648,176.26 165.545,183.305 151.928,179.238 
			151.929,179.238 		"/>
		<polygon clip-path="url(#SVGID_8_)" fill="#808184" points="153.78,173.139 146,173.764 144.93,177.146 151.928,179.238 		"/>
		<path clip-path="url(#SVGID_8_)" fill="#808184" d="M144.867,176.066c-0.034,0.392-0.127,0.765-0.267,1.111l-7.453-2.231
			c0.385-1.933,2.175-3.304,4.181-3.121C143.478,172.02,145.062,173.918,144.867,176.066"/>
		<path clip-path="url(#SVGID_8_)" fill="#808184" d="M137.605,168.701l-10.084-5.258l-3.488-0.133c0,0,0.812,1.702,0.731,3.264
			s-1.801,2.553-1.801,2.553s-0.918,0.395-1.426,1.104l15.108,4.535L137.605,168.701z"/>
	</g>
</g>
</svg>
