<?xml version="1.0" encoding="utf-8"?>
<!-- Generator: Adobe Illustrator 16.0.0, SVG Export Plug-In . SVG Version: 6.00 Build 0)  -->
<!DOCTYPE svg PUBLIC "-//W3C//DTD SVG 1.1//EN" "http://www.w3.org/Graphics/SVG/1.1/DTD/svg11.dtd">
<svg version="1.1" id="Layer_1" xmlns="http://www.w3.org/2000/svg" xmlns:xlink="http://www.w3.org/1999/xlink" x="0px" y="0px"
	 width="176px" height="194px" viewBox="0 0 176 194" enable-background="new 0 0 176 194" xml:space="preserve">
<path fill="#33006F" d="M163.943,81.185c0,41.912-33.975,75.888-75.887,75.888s-75.889-33.976-75.889-75.888
	S46.145,5.297,88.057,5.297S163.943,39.273,163.943,81.185"/>
<g>
	<defs>
		<path id="SVGID_1_" d="M12.057,81.414c0,41.912,33.977,75.888,75.887,75.888c41.912,0,75.889-33.977,75.889-75.888
			c0-41.911-33.977-75.888-75.889-75.888C46.033,5.526,12.057,39.503,12.057,81.414"/>
	</defs>
	<clipPath id="SVGID_2_">
		<use xlink:href="#SVGID_1_"  overflow="visible"/>
	</clipPath>
	<polygon clip-path="url(#SVGID_2_)" fill="#603813" points="66.02,29.967 84.854,24.852 87.875,27.177 93.223,24.852 
		108.568,29.037 122.752,48.567 119.963,71.82 123.449,91.815 129.729,93.908 127.17,105.069 123.914,106.463 101.129,98.791 
		86.945,98.094 75.088,99.255 56.951,105.534 51.371,99.255 53.928,95.071 58.113,91.815 59.275,70.191 55.787,50.661 	"/>
	<polygon clip-path="url(#SVGID_2_)" fill="#3B2314" points="88.805,39.035 87.875,27.177 93.223,24.852 108.568,29.037 
		122.752,48.568 119.963,71.819 123.451,91.816 129.727,93.908 127.17,105.069 123.102,106.58 89.387,104.953 	"/>
	<polygon clip-path="url(#SVGID_2_)" fill="#F4D19F" points="60.205,104.139 75.088,99.255 75.088,88.561 69.508,83.212 
		68.809,71.354 65.785,69.494 65.785,60.659 67.879,61.355 68.344,47.638 71.135,42.987 84.387,42.987 88.805,39.035 
		107.406,50.195 107.871,61.82 110.195,59.729 110.43,69.958 108.104,71.354 107.174,84.375 101.129,88.792 101.129,98.791 
		117.404,104.139 103.686,115.997 72.529,116.229 	"/>
	<polygon clip-path="url(#SVGID_2_)" fill="#5F338B" points="39.744,160.407 40.443,118.088 50.906,105.999 60.439,103.209 
		72.762,113.672 101.826,113.439 117.637,102.744 126.705,106.463 136.006,117.857 136.471,161.336 	"/>
	<polygon clip-path="url(#SVGID_2_)" fill="#F3BC7B" points="88.457,113.323 88.805,39.035 107.406,50.196 107.871,61.821 
		110.197,59.729 110.43,69.959 108.104,71.354 107.174,84.375 101.129,88.793 101.129,98.792 117.404,104.139 103.688,115.997 
		88.631,116.026 	"/>
	<polygon clip-path="url(#SVGID_2_)" fill="#4A1B7D" points="88.805,161.104 88.461,113.556 101.826,113.44 117.637,102.743 
		126.705,106.463 136.006,117.856 136.471,161.337 	"/>
	<polygon clip-path="url(#SVGID_2_)" fill="#F7C995" points="103.922,130.12 102.201,126.251 100.359,121.726 97.455,119.429 
		95.109,121.44 96.83,124.065 99.943,130.618 103.734,133.728 	"/>
	<g clip-path="url(#SVGID_2_)">
		<defs>
			<rect id="SVGID_3_" x="79.732" y="109.098" width="19.639" height="6.277"/>
		</defs>
		<clipPath id="SVGID_4_">
			<use xlink:href="#SVGID_3_"  overflow="visible"/>
		</clipPath>
		<path clip-path="url(#SVGID_4_)" fill="#FFFFFF" d="M99.238,112.237c0,1.658-4.336,3.004-9.686,3.004s-9.686-1.346-9.686-3.004
			c0-1.659,4.336-3.004,9.686-3.004S99.238,110.578,99.238,112.237"/>
		
			<ellipse clip-path="url(#SVGID_4_)" fill="none" stroke="#404041" stroke-width="0.269" stroke-miterlimit="10" cx="89.553" cy="112.237" rx="9.686" ry="3.004"/>
	</g>
	<path clip-path="url(#SVGID_2_)" fill="#00B8F1" d="M99.238,120.307c0,1.66-4.336,3.004-9.686,3.004s-9.686-1.344-9.686-3.004
		c0-1.658,4.336-3.004,9.686-3.004S99.238,118.649,99.238,120.307"/>
	<g clip-path="url(#SVGID_2_)">
		<defs>
			<rect id="SVGID_5_" x="79.732" y="134.297" width="19.639" height="6.277"/>
		</defs>
		<clipPath id="SVGID_6_">
			<use xlink:href="#SVGID_5_"  overflow="visible"/>
		</clipPath>
		<path clip-path="url(#SVGID_6_)" fill="#FFFFFF" d="M99.238,137.436c0,1.658-4.336,3.004-9.686,3.004s-9.686-1.346-9.686-3.004
			c0-1.659,4.336-3.004,9.686-3.004S99.238,135.777,99.238,137.436"/>
		
			<ellipse clip-path="url(#SVGID_6_)" fill="none" stroke="#929497" stroke-width="0.269" stroke-miterlimit="10" cx="89.553" cy="137.436" rx="9.686" ry="3.004"/>
	</g>
	<g clip-path="url(#SVGID_2_)">
		<defs>
			<rect id="SVGID_7_" x="79.732" y="112.223" width="19.627" height="28.351"/>
		</defs>
		<clipPath id="SVGID_8_">
			<use xlink:href="#SVGID_7_"  overflow="visible"/>
		</clipPath>
		<path clip-path="url(#SVGID_8_)" fill="#FFFFFF" d="M99.225,137.592c0,0-1.041,2.87-9.672,2.848
			c-8.633-0.022-9.686-2.848-9.686-2.848v-25.355c0,0,0.291,2.914,9.686,3.004c9.393,0.09,9.672-3.004,9.672-3.004V137.592z"/>
		<path clip-path="url(#SVGID_8_)" fill="none" stroke="#404041" stroke-width="0.268" stroke-miterlimit="10" d="M99.225,137.592
			c0,0-1.041,2.87-9.672,2.848c-8.633-0.022-9.686-2.848-9.686-2.848v-25.355c0,0,0.291,2.914,9.686,3.004
			c9.393,0.09,9.672-3.004,9.672-3.004V137.592z"/>
	</g>
	<path clip-path="url(#SVGID_2_)" fill="#6DCEF5" d="M99.371,137.784c0,0-1.111,2.998-9.742,2.976
		c-8.633-0.022-9.936-3.023-9.936-3.023l0.049-17.375c0,0,0.395,2.86,9.787,2.951c9.395,0.089,9.746-3.239,9.746-3.239
		L99.371,137.784z"/>
	<path clip-path="url(#SVGID_2_)" fill="#F7C995" d="M132.32,148.783l-22.457-10.384l-6.762-5.189c0,0-0.984-2.261-2.045-3.519
		c-1.062-1.258-13.682-5.603-13.682-5.603l-3.895-0.826c0,0-3.717-1.348-4.188-1.002c-0.504,0.371-1.062,1.572-1.004,2.222
		s1.178,1.651,1.178,1.651l1.967,0.865l5.588,1.514l2.064,0.943l-8.555-1.593c0,0-0.588-0.354-1.297-0.708
		c-0.707-0.354-1.65,1.652-1.238,2.241c0.412,0.59,1.357,1.534,1.357,1.534l6.016,1.945l4.305,0.767l-4.953-0.06l-5.486-1.887
		c0,0,0.295-0.236-0.473-0.295c-0.766-0.059-0.941,2.536-0.471,3.008c0.471,0.473,2.004,1.415,2.004,1.415l5.547,2.536l2.83,0.531
		l-4.01-0.296l-3.836-1.18c0,0-1.178-0.825-1.592-0.647c-0.412,0.177-0.354,1.769-0.354,2.182c0,0.412,1.945,1.828,1.945,1.828
		l4.543,1.061l5.25,0.886l7.547,0.766l1.887,1.121l3.775,2.536l16.533,17.414l8.844,0.703l5.125-10.25L132.32,148.783z"/>
</g>
</svg>
