<?xml version="1.0" encoding="utf-8"?>
<!-- Generator: Adobe Illustrator 16.0.0, SVG Export Plug-In . SVG Version: 6.00 Build 0)  -->
<!DOCTYPE svg PUBLIC "-//W3C//DTD SVG 1.1//EN" "http://www.w3.org/Graphics/SVG/1.1/DTD/svg11.dtd">
<svg version="1.1" id="Layer_1" xmlns="http://www.w3.org/2000/svg" xmlns:xlink="http://www.w3.org/1999/xlink" x="0px" y="0px"
	 width="176px" height="194px" viewBox="0 0 176 194" enable-background="new 0 0 176 194" xml:space="preserve">
<g>
	<path fill="#33006F" d="M170.465,82.061c0,41.912-33.976,75.888-75.888,75.888c-41.912,0-75.888-33.977-75.888-75.888
		c0-41.912,33.976-75.888,75.888-75.888C136.489,6.173,170.465,40.149,170.465,82.061"/>
	<g>
		<defs>
			<path id="SVGID_1_" d="M18.689,82.061c0,41.912,33.976,75.889,75.888,75.889c41.913,0,75.888-33.977,75.888-75.889
				c0-41.912-33.975-75.888-75.888-75.888C52.665,6.173,18.689,40.149,18.689,82.061"/>
		</defs>
		<clipPath id="SVGID_2_">
			<use xlink:href="#SVGID_1_"  overflow="visible"/>
		</clipPath>
		<polygon clip-path="url(#SVGID_2_)" fill="#603813" points="72.652,30.613 91.487,25.498 94.509,27.823 99.856,25.498 
			115.203,29.683 129.386,49.214 126.596,72.466 130.083,92.462 136.362,94.554 133.804,105.715 130.548,107.11 107.763,99.437 
			93.579,98.74 81.721,99.902 63.584,106.18 58.004,99.902 60.562,95.717 64.748,92.462 65.91,70.838 62.421,51.307 		"/>
		<polygon clip-path="url(#SVGID_2_)" fill="#3B2314" points="95.439,39.681 94.509,27.823 99.857,25.498 115.203,29.683 
			129.386,49.214 126.596,72.465 130.084,92.462 136.361,94.554 133.804,105.715 129.735,107.227 96.02,105.6 		"/>
		<polygon clip-path="url(#SVGID_2_)" fill="#F4D19F" points="66.84,104.785 81.721,99.902 81.721,89.207 76.141,83.859 
			75.443,72.001 72.42,70.14 72.42,61.305 74.513,62.002 74.978,48.284 77.768,43.634 91.021,43.634 95.439,39.681 114.04,50.842 
			114.505,62.467 116.83,60.375 117.063,70.605 114.738,72.001 113.808,85.021 107.762,89.439 107.762,99.437 124.038,104.785 
			110.32,116.643 79.163,116.876 		"/>
		<polygon clip-path="url(#SVGID_2_)" fill="#5F338B" points="46.378,161.054 47.077,118.735 57.54,106.646 67.072,103.855 
			79.396,114.318 108.459,114.086 124.271,103.391 133.338,107.11 142.64,118.504 143.104,161.983 		"/>
		<polygon clip-path="url(#SVGID_2_)" fill="#F3BC7B" points="95.09,113.969 95.439,39.681 114.04,50.841 114.505,62.467 
			116.83,60.375 117.063,70.605 114.737,72 113.807,85.021 107.762,89.439 107.762,99.438 124.038,104.785 110.32,116.644 
			95.264,116.672 		"/>
		<polygon clip-path="url(#SVGID_2_)" fill="#4A1B7D" points="95.439,161.751 95.094,114.203 108.46,114.086 124.271,103.391 
			133.339,107.109 142.639,118.503 143.104,161.984 		"/>
	</g>
	<path fill="none" stroke="#86754D" stroke-width="0.872" stroke-miterlimit="10" d="M96.761,104.323
		c0,1.079-0.875,1.954-1.954,1.954c-1.08,0-1.955-0.875-1.955-1.954s0.875-1.954,1.955-1.954c0.653,0,1.232,0.32,1.587,0.813
		C96.625,103.504,96.761,103.897,96.761,104.323z"/>
	<path fill="none" stroke="#86754D" stroke-width="0.872" stroke-miterlimit="10" d="M139.844,139.073
		c0,1.079-0.875,1.954-1.954,1.954c-1.08,0-1.955-0.875-1.955-1.954s0.875-1.954,1.955-1.954c0.653,0,1.232,0.32,1.587,0.813
		C139.708,138.254,139.844,138.647,139.844,139.073z"/>
	<polyline fill="none" stroke="#86754D" stroke-width="0.872" stroke-miterlimit="10" points="17.776,142.218 52.821,103.888 
		93.111,103.888 	"/>
	<path fill="#86754D" d="M5.005,146.308h1.386v6.66H5.005V146.308z"/>
	<path fill="#86754D" d="M7.543,146.308h1.152l2.466,3.627l0.414,0.738h0.072v-4.365h1.233v6.66h-1.152l-2.457-3.618l-0.423-0.756
		H8.767v4.374H7.543V146.308z"/>
	<path fill="#86754D" d="M13.348,154.398c0.132-0.306,0.243-0.584,0.333-0.832c0.09-0.249,0.162-0.495,0.216-0.738
		c0.054-0.242,0.091-0.492,0.112-0.747s0.032-0.538,0.032-0.851v-4.923h1.395v5.031c0,0.306-0.021,0.597-0.063,0.873
		s-0.111,0.552-0.207,0.827c-0.096,0.277-0.221,0.557-0.374,0.842c-0.153,0.285-0.341,0.593-0.562,0.923L13.348,154.398z"/>
	<path fill="#86754D" d="M19.152,153.058c-0.486,0-0.897-0.056-1.233-0.167c-0.336-0.11-0.609-0.277-0.819-0.499
		c-0.21-0.222-0.362-0.503-0.455-0.841c-0.093-0.34-0.14-0.74-0.14-1.202v-4.041h1.386v3.996c0,0.563,0.097,0.971,0.292,1.22
		c0.195,0.249,0.517,0.373,0.967,0.373s0.772-0.123,0.968-0.369c0.195-0.246,0.292-0.653,0.292-1.224v-3.996h1.386v4.041
		c0,0.462-0.046,0.862-0.14,1.202c-0.093,0.338-0.244,0.621-0.454,0.846c-0.21,0.225-0.483,0.391-0.819,0.5
		C20.049,153.004,19.638,153.058,19.152,153.058z"/>
	<path fill="#86754D" d="M25.272,150.673c-0.078,0.006-0.156,0.011-0.234,0.013c-0.078,0.004-0.159,0.006-0.243,0.006
		c-0.024,0-0.059,0-0.104,0s-0.095,0-0.148,0c-0.054,0-0.105-0.002-0.153-0.006c-0.048-0.002-0.084-0.004-0.108-0.004v2.286h-1.386
		v-6.615c0.282-0.048,0.57-0.082,0.864-0.103c0.294-0.021,0.591-0.032,0.891-0.032c1.062,0,1.833,0.179,2.313,0.536
		c0.48,0.356,0.72,0.931,0.72,1.723c0,0.973-0.396,1.623-1.188,1.953l1.395,2.538h-1.485L25.272,150.673z M24.885,149.619
		c0.258,0,0.474-0.021,0.648-0.062s0.315-0.107,0.423-0.197c0.108-0.091,0.186-0.207,0.234-0.352
		c0.048-0.145,0.072-0.32,0.072-0.531c0-0.21-0.024-0.389-0.072-0.535c-0.048-0.146-0.126-0.266-0.234-0.355
		c-0.108-0.09-0.25-0.154-0.423-0.193s-0.387-0.059-0.639-0.059c-0.084,0-0.185,0.006-0.302,0.018s-0.221,0.024-0.311,0.036v2.187
		c0.084,0.013,0.18,0.023,0.288,0.032S24.783,149.619,24.885,149.619z"/>
	<path fill="#86754D" d="M30.016,150.744l-2.313-4.437h1.539l1.242,2.61l0.18,0.54h0.081l0.189-0.54l1.242-2.61h1.521l-2.295,4.419
		v2.241h-1.386V150.744z"/>
	<path fill="#86754D" d="M12.43,164.074c-0.318,0-0.659-0.027-1.021-0.081c-0.363-0.055-0.715-0.136-1.058-0.243l0.018-1.152
		c0.138,0.048,0.287,0.092,0.446,0.131c0.159,0.039,0.321,0.073,0.486,0.104s0.325,0.054,0.481,0.072
		c0.156,0.018,0.303,0.026,0.441,0.026c0.744,0,1.116-0.267,1.116-0.801c0-0.138-0.027-0.255-0.081-0.352
		c-0.054-0.096-0.134-0.178-0.239-0.247s-0.229-0.13-0.374-0.185c-0.144-0.054-0.306-0.107-0.486-0.162
		c-0.264-0.072-0.502-0.156-0.715-0.252c-0.213-0.096-0.396-0.224-0.549-0.382c-0.153-0.159-0.271-0.354-0.355-0.581
		s-0.126-0.51-0.126-0.846c0-0.294,0.053-0.56,0.158-0.797s0.258-0.439,0.459-0.607c0.201-0.168,0.445-0.296,0.733-0.382
		c0.288-0.088,0.612-0.131,0.972-0.131c0.258,0,0.523,0.02,0.796,0.059s0.577,0.1,0.914,0.184l-0.009,1.125
		c-0.264-0.071-0.542-0.13-0.833-0.175s-0.542-0.067-0.751-0.067c-0.33,0-0.583,0.066-0.76,0.197
		c-0.177,0.133-0.266,0.324-0.266,0.576c0,0.139,0.028,0.256,0.085,0.352s0.14,0.182,0.248,0.256
		c0.108,0.076,0.24,0.145,0.396,0.207c0.156,0.063,0.333,0.128,0.531,0.193c0.252,0.084,0.48,0.178,0.684,0.279
		c0.204,0.103,0.379,0.229,0.527,0.379c0.147,0.149,0.259,0.327,0.337,0.534c0.078,0.207,0.117,0.458,0.117,0.752
		c0,0.637-0.203,1.131-0.608,1.485C13.739,163.896,13.167,164.074,12.43,164.074z"/>
	<path fill="#86754D" d="M15.544,157.306h1.386v6.66h-1.386V157.306z"/>
	<path fill="#86754D" d="M19.333,158.467h-1.674v-1.161h4.761v1.161h-1.692v5.499h-1.395V158.467z"/>
	<path fill="#86754D" d="M23.14,157.306h4.23v1.144h-2.844v1.602h2.547v1.134h-2.547v1.639h2.925v1.143H23.14V157.306z"/>
	<path fill="#86754D" d="M114.373,165.604c0.594-0.09,1.179-0.135,1.755-0.135c0.528,0,0.984,0.045,1.368,0.135
		c0.384,0.09,0.699,0.232,0.945,0.428s0.427,0.442,0.544,0.742c0.117,0.301,0.175,0.657,0.175,1.071c0,0.816-0.24,1.413-0.72,1.791
		s-1.236,0.567-2.268,0.567h-0.414v2.016h-1.386V165.604z M116.362,169.096c0.252,0,0.466-0.021,0.644-0.062
		c0.177-0.042,0.319-0.113,0.428-0.212c0.108-0.099,0.186-0.228,0.234-0.387c0.048-0.159,0.072-0.355,0.072-0.59
		c0-0.456-0.101-0.78-0.301-0.972c-0.201-0.192-0.557-0.288-1.066-0.288c-0.096,0-0.203,0.006-0.32,0.018
		c-0.117,0.013-0.214,0.024-0.292,0.036v2.412c0.084,0.012,0.182,0.022,0.292,0.031S116.266,169.096,116.362,169.096z"/>
	<path fill="#86754D" d="M119.053,172.155l1.89-6.597h2.079l1.89,6.597v0.063h-1.323l-0.477-1.656h-2.268l-0.468,1.656h-1.323
		V172.155z M122.824,169.456l-0.504-1.782l-0.288-1.089h-0.108l-0.288,1.089l-0.504,1.782H122.824z"/>
	<path fill="#86754D" d="M127.864,169.924c-0.078,0.006-0.156,0.011-0.234,0.014c-0.078,0.003-0.159,0.004-0.243,0.004
		c-0.024,0-0.059,0-0.104,0s-0.095,0-0.148,0c-0.054,0-0.105-0.001-0.153-0.004c-0.048-0.003-0.084-0.005-0.108-0.005v2.286h-1.386
		v-6.615c0.282-0.048,0.57-0.082,0.864-0.104c0.294-0.021,0.591-0.031,0.891-0.031c1.062,0,1.833,0.179,2.313,0.535
		c0.48,0.357,0.72,0.932,0.72,1.724c0,0.973-0.396,1.623-1.188,1.953l1.395,2.538h-1.485L127.864,169.924z M127.477,168.871
		c0.258,0,0.474-0.021,0.648-0.063s0.315-0.107,0.423-0.198c0.108-0.09,0.186-0.207,0.234-0.351
		c0.048-0.144,0.072-0.321,0.072-0.531s-0.024-0.389-0.072-0.535c-0.048-0.147-0.126-0.266-0.234-0.355
		c-0.108-0.09-0.25-0.154-0.423-0.193s-0.387-0.059-0.639-0.059c-0.084,0-0.185,0.006-0.302,0.018
		c-0.117,0.013-0.221,0.024-0.311,0.036v2.188c0.084,0.012,0.18,0.022,0.288,0.031S127.375,168.871,127.477,168.871z"/>
	<path fill="#86754D" d="M130.591,172.155l1.89-6.597h2.079l1.89,6.597v0.063h-1.323l-0.477-1.656h-2.268l-0.468,1.656h-1.323
		V172.155z M134.362,169.456l-0.504-1.782l-0.288-1.089h-0.108l-0.288,1.089l-0.504,1.782H134.362z"/>
	<path fill="#86754D" d="M137.026,165.559h1.386v5.526h2.358v1.134h-3.744V165.559z"/>
	<path fill="#86754D" d="M142.291,169.996l-2.313-4.438h1.539l1.242,2.61l0.18,0.54h0.081l0.189-0.54l1.242-2.61h1.521l-2.295,4.419
		v2.241h-1.386V169.996z"/>
	<path fill="#86754D" d="M146.161,171.049l2.898-4.266v-0.072h-2.772v-1.152h4.365v1.161l-2.898,4.284v0.072h3.033v1.143h-4.626
		V171.049z"/>
	<path fill="#86754D" d="M151.597,165.559h4.23v1.144h-2.844v1.602h2.547v1.134h-2.547v1.639h2.925v1.143h-4.311V165.559z"/>
	<path fill="#86754D" d="M158.427,172.336c-0.516,0-1.065-0.036-1.647-0.108v-6.65c0.396-0.03,0.741-0.055,1.035-0.072
		c0.294-0.019,0.558-0.027,0.792-0.027c0.6,0,1.112,0.064,1.535,0.193c0.423,0.13,0.77,0.332,1.04,0.607
		c0.27,0.276,0.468,0.631,0.594,1.062s0.189,0.951,0.189,1.557c0,0.612-0.066,1.136-0.198,1.57
		c-0.132,0.436-0.339,0.791-0.621,1.067c-0.282,0.275-0.646,0.479-1.093,0.607C159.604,172.271,159.063,172.336,158.427,172.336z
		 M158.913,171.211c0.3,0,0.554-0.039,0.761-0.117c0.207-0.078,0.373-0.207,0.5-0.387c0.126-0.181,0.217-0.419,0.274-0.716
		c0.057-0.297,0.085-0.664,0.085-1.103c0-0.432-0.029-0.795-0.085-1.089c-0.057-0.294-0.152-0.531-0.284-0.711
		s-0.306-0.309-0.522-0.387s-0.483-0.117-0.801-0.117c-0.229,0-0.459,0.018-0.693,0.054v4.519c0.156,0.018,0.294,0.031,0.414,0.04
		S158.799,171.211,158.913,171.211z"/>
	<path fill="#86754D" d="M128.224,176.557h1.386v5.526h2.358v1.134h-3.744V176.557z"/>
	<path fill="#86754D" d="M132.651,176.557h1.386v6.66h-1.386V176.557z"/>
	<path fill="#86754D" d="M135.189,176.557h1.944l1.224,3.483l0.288,1.17h0.063l0.288-1.17l1.224-3.483h1.953v6.66h-1.287v-4.968
		h-0.054l-0.405,1.332l-1.17,3.32h-1.17l-1.17-3.32l-0.414-1.332h-0.054v4.968h-1.26V176.557z"/>
	<path fill="#86754D" d="M145.351,183.307c-0.33,0-0.669-0.011-1.017-0.031c-0.348-0.021-0.684-0.056-1.008-0.104v-6.57
		c0.414-0.048,0.777-0.082,1.089-0.104c0.312-0.021,0.612-0.031,0.9-0.031c0.912,0,1.577,0.148,1.994,0.445s0.625,0.772,0.625,1.427
		c0,0.786-0.345,1.266-1.035,1.439v0.036c0.396,0.078,0.699,0.254,0.909,0.526c0.21,0.273,0.315,0.629,0.315,1.067
		C148.123,182.674,147.198,183.307,145.351,183.307z M145.404,179.374c0.204,0,0.378-0.017,0.522-0.05
		c0.144-0.033,0.26-0.087,0.347-0.162s0.15-0.172,0.189-0.292s0.059-0.268,0.059-0.441c0-0.324-0.087-0.558-0.261-0.702
		c-0.174-0.144-0.45-0.216-0.828-0.216c-0.144,0-0.282,0.005-0.414,0.014c-0.132,0.009-0.267,0.022-0.405,0.04v1.81H145.404z
		 M145.485,182.271c0.816-0.012,1.224-0.33,1.224-0.954c0-0.348-0.096-0.595-0.288-0.742c-0.192-0.146-0.516-0.221-0.972-0.221
		h-0.837v1.863C144.774,182.254,145.065,182.271,145.485,182.271z"/>
	
		<line fill="none" stroke="#86754D" stroke-width="0.872" stroke-miterlimit="10" x1="137.901" y1="141.01" x2="137.901" y2="161.593"/>
</g>
</svg>
