<?xml version="1.0" encoding="utf-8"?>
<!-- Generator: Adobe Illustrator 16.0.0, SVG Export Plug-In . SVG Version: 6.00 Build 0)  -->
<!DOCTYPE svg PUBLIC "-//W3C//DTD SVG 1.1//EN" "http://www.w3.org/Graphics/SVG/1.1/DTD/svg11.dtd">
<svg version="1.1" id="Layer_1" xmlns="http://www.w3.org/2000/svg" xmlns:xlink="http://www.w3.org/1999/xlink" x="0px" y="0px"
	 width="176px" height="194px" viewBox="0 0 176 194" enable-background="new 0 0 176 194" xml:space="preserve">
<g>
	<path fill="#86754D" d="M1.795,149.37h1.386v6.66H1.795V149.37z"/>
	<path fill="#33006F" d="M169.861,88.102c0,43.366-35.156,78.521-78.521,78.521c-43.367,0-78.522-35.155-78.522-78.521
		S47.973,9.581,91.34,9.581C134.705,9.581,169.861,44.736,169.861,88.102"/>
	<g>
		<defs>
			<path id="SVGID_1_" d="M12.818,88.102c0,43.366,35.155,78.521,78.522,78.521c43.365,0,78.521-35.155,78.521-78.521
				c0-43.367-35.156-78.522-78.521-78.522C47.973,9.58,12.818,44.735,12.818,88.102"/>
		</defs>
		<clipPath id="SVGID_2_">
			<use xlink:href="#SVGID_1_"  overflow="visible"/>
		</clipPath>
		<polygon clip-path="url(#SVGID_2_)" fill="#FFFFFF" points="141.186,114.701 131.396,104.854 103.795,97.454 103.598,90.08 
			108.898,84.07 109.076,80.17 116.902,66.271 116.764,44.471 106.277,31.363 91.1,27.914 75.923,30.535 65.437,44.333 
			65.299,65.581 72.895,77.957 73.163,84.208 78.263,89.622 78.13,96.902 49.707,104.491 40.877,114.149 35.029,150.012 
			27.039,188.228 43.366,194.481 55.526,164.778 55.699,192.048 84.533,192.048 132.648,191.875 143.322,175.51 144.809,150.361 		
			"/>
		<g clip-path="url(#SVGID_2_)">
			<defs>
				<rect id="SVGID_3_" x="78.089" y="35.601" width="67.065" height="156.666"/>
			</defs>
			<clipPath id="SVGID_4_">
				<use xlink:href="#SVGID_3_"  overflow="visible"/>
			</clipPath>
			<polygon clip-path="url(#SVGID_4_)" fill="#8A6640" points="141.498,114.712 131.643,104.799 103.855,97.35 103.656,89.926 
				108.994,83.876 109.15,79.669 113.998,67.354 112.844,48.187 104.531,36.871 91.494,35.601 91.146,95.821 78.089,89.522 
				78.089,93.333 91.119,100.172 90.559,178.891 91.221,191.875 113.629,192.135 132.389,192.265 143.201,175.851 145.156,150.968 
							"/>
		</g>
		<g clip-path="url(#SVGID_2_)">
			<defs>
				<rect id="SVGID_5_" x="67.706" y="37.746" width="46.101" height="25.014"/>
			</defs>
			<clipPath id="SVGID_6_">
				<use xlink:href="#SVGID_5_"  overflow="visible"/>
			</clipPath>
			<path clip-path="url(#SVGID_6_)" fill="#694092" d="M113.807,51.698c0-2.22-1.223-4.154-3.029-5.169
				c0.059-0.27,0.094-0.549,0.094-0.837c0-2.13-1.727-3.857-3.857-3.857c-0.801,0-1.545,0.245-2.16,0.663
				c-0.061,0.007-0.117,0.016-0.176,0.026c-0.066-2.071-1.764-3.73-3.85-3.73c-0.615,0-1.191,0.147-1.707,0.402
				c-0.707-0.883-1.793-1.45-3.012-1.45c-0.736,0-1.422,0.21-2.008,0.568c-1.932,0.211-3.436,1.846-3.436,3.833
				c0,0.921,0.324,1.765,0.863,2.428c-0.119,0.316-0.188,0.658-0.188,1.016c0,0.728,0.271,1.391,0.719,1.897
				c-0.594,0.525-0.973,1.292-0.973,2.149c0,0.001,0,0.001,0,0.002c-0.133-0.598-0.453-1.125-0.896-1.517
				c0.506-0.518,0.82-1.225,0.82-2.007c0-0.922-0.438-1.741-1.115-2.265c0.455-0.633,0.727-1.408,0.727-2.247
				c0-2.131-1.727-3.857-3.857-3.857c-1.498,0-2.795,0.857-3.434,2.106c-0.69-0.654-1.621-1.058-2.647-1.058
				c-2.088,0-3.783,1.659-3.85,3.73c-0.058-0.01-0.116-0.019-0.174-0.026c-0.617-0.418-1.361-0.663-2.162-0.663
				c-2.13,0-3.857,1.727-3.857,3.857c0,0.288,0.034,0.567,0.094,0.837c-1.808,1.015-3.03,2.949-3.03,5.169
				c0,1.709,0.725,3.247,1.882,4.329c-0.199,0.464-0.309,0.976-0.309,1.513c0,2.13,1.727,3.857,3.857,3.857
				c0.479,0,0.936-0.092,1.36-0.252c1.061,1.001,2.488,1.615,4.062,1.615c1.449,0,2.776-0.521,3.806-1.385
				c0.481,0.214,1.012,0.336,1.572,0.336c0.297,0,0.584-0.036,0.859-0.099c0.658,0.52,1.486,0.833,2.391,0.833
				c2.131,0,3.857-1.726,3.857-3.856c0-0.772-0.229-1.489-0.621-2.092c0.645-0.689,1.039-1.61,1.039-2.627
				c0-0.812-0.252-1.564-0.68-2.186c0.238-0.418,0.377-0.902,0.377-1.418c0-0.001,0-0.002,0-0.003
				c0.148,0.665,0.527,1.241,1.049,1.643c-0.236,0.501-0.373,1.059-0.373,1.65c0,0.803,0.246,1.549,0.666,2.166
				c-0.547,0.666-0.877,1.518-0.877,2.447c0,2.13,1.729,3.857,3.857,3.857c0.572,0,1.111-0.128,1.6-0.35
				c0.162,0.021,0.328,0.035,0.498,0.035c0.561,0,1.09-0.122,1.57-0.336c1.029,0.864,2.357,1.385,3.807,1.385
				c1.572,0,3.002-0.614,4.062-1.615c0.424,0.16,0.881,0.252,1.359,0.252c2.131,0,3.857-1.727,3.857-3.857
				c0-0.537-0.111-1.049-0.309-1.513C113.082,54.945,113.807,53.407,113.807,51.698"/>
			<path clip-path="url(#SVGID_6_)" fill="none" stroke="#9B7BB6" stroke-width="0.21" stroke-miterlimit="10" d="M72.765,47.058
				c0,0,2.438,1.258,3.696,0.21c1.258-1.049,0.76-3.224,0.76-3.224"/>
			<path clip-path="url(#SVGID_6_)" fill="none" stroke="#9B7BB6" stroke-width="0.21" stroke-miterlimit="10" d="M88.258,46.193
				c0,0-1.012-0.138-1.117,1.36c-0.104,1.497,1.746,1.969,1.746,1.969"/>
			<path clip-path="url(#SVGID_6_)" fill="none" stroke="#9B7BB6" stroke-width="0.21" stroke-miterlimit="10" d="M82.026,53.995
				c0,0,1.452-0.242,2.038,0.275c0.586,0.518,0.85,1.313,0.85,1.313"/>
			<path clip-path="url(#SVGID_6_)" fill="none" stroke="#9B7BB6" stroke-width="0.21" stroke-miterlimit="10" d="M83.461,40.269
				c0,0,0.262,1.153,1.049,1.678c0.785,0.524,2.018,0.655,2.018,0.655"/>
			<path clip-path="url(#SVGID_6_)" fill="none" stroke="#9B7BB6" stroke-width="0.21" stroke-miterlimit="10" d="M71.006,46.573
				c0,0,0.698-0.093,1.663,0.414c0.965,0.508,0.523,2.282,0.523,2.282"/>
			<path clip-path="url(#SVGID_6_)" fill="none" stroke="#9B7BB6" stroke-width="0.21" stroke-miterlimit="10" d="M80.313,47.871
				c0,0,0.629-0.996,1.861-0.917c1.233,0.078,1.679,1.022,1.679,1.022"/>
			<path clip-path="url(#SVGID_6_)" fill="none" stroke="#9B7BB6" stroke-width="0.21" stroke-miterlimit="10" d="M85.059,45.092
				c0,0-1.283-0.131-1.914,0.393c-0.63,0.524-0.55,1.573-0.55,1.573"/>
			<path clip-path="url(#SVGID_6_)" fill="none" stroke="#9B7BB6" stroke-width="0.21" stroke-miterlimit="10" d="M84.068,54.166
				c0,0-0.072-1.051,0.873-1.86c0.943-0.809,2.621-0.755,2.621-0.755"/>
			<path clip-path="url(#SVGID_6_)" fill="none" stroke="#9B7BB6" stroke-width="0.21" stroke-miterlimit="10" d="M75.072,58.067
				c0,0-0.105,1.258,0.917,1.782c1.022,0.525,2.692-0.48,2.692-0.48"/>
			<path clip-path="url(#SVGID_6_)" fill="none" stroke="#9B7BB6" stroke-width="0.21" stroke-miterlimit="10" d="M75.15,54.765
				c0,0,1.337,0.105,1.861-0.498s0.262-2.071,0.262-2.071"/>
			<path clip-path="url(#SVGID_6_)" fill="none" stroke="#9B7BB6" stroke-width="0.21" stroke-miterlimit="10" d="M72.214,57.021
				c0,0,0.743-0.946,0.285-2.132c-0.457-1.187-1.62-1.421-1.62-1.421"/>
			<path clip-path="url(#SVGID_6_)" fill="none" stroke="#9B7BB6" stroke-width="0.21" stroke-miterlimit="10" d="M85.176,59.118
				c0,0,0.223-1.448,1.809-2.332c1.586-0.883,2.848-0.281,2.848-0.281"/>
			<path clip-path="url(#SVGID_6_)" fill="none" stroke="#9B7BB6" stroke-width="0.21" stroke-miterlimit="10" d="M76.854,60.165
				c0,0,0.603,1.494,1.992,1.625"/>
			<path clip-path="url(#SVGID_6_)" fill="none" stroke="#9B7BB6" stroke-width="0.21" stroke-miterlimit="10" d="M77.142,54.083
				c0,0,0.865-0.315,1.992,0.917c1.127,1.232,0.604,2.858,0.604,2.858"/>
			<path clip-path="url(#SVGID_6_)" fill="none" stroke="#9B7BB6" stroke-width="0.21" stroke-miterlimit="10" d="M84.377,41.859
				c0,0-0.523,1.573-1.538,1.852c-1.014,0.28-1.922-0.629-1.922-0.629"/>
			<path clip-path="url(#SVGID_6_)" fill="none" stroke="#9B7BB6" stroke-width="0.21" stroke-miterlimit="10" d="M76.234,47.451
				c0,0-0.734,1.538-0.28,2.447c0.455,0.908,2.167,0.594,2.167,0.594"/>
			<path clip-path="url(#SVGID_6_)" fill="none" stroke="#9B7BB6" stroke-width="0.21" stroke-miterlimit="10" d="M72.25,54.477
				c0,0,1.153-0.524,1.293-1.398c0.14-0.874-0.594-1.678-0.594-1.678"/>
			<path clip-path="url(#SVGID_6_)" fill="none" stroke="#9B7BB6" stroke-width="0.21" stroke-miterlimit="10" d="M80.864,50.544
				c0,0,0.734,0.996,2.045,0.577c1.312-0.42,1.153-1.626,1.153-1.626"/>
			<path clip-path="url(#SVGID_6_)" fill="none" stroke="#9B7BB6" stroke-width="0.21" stroke-miterlimit="10" d="M81.755,51.278
				c0,0-1.152,0-1.52,1.101s0.473,1.887,0.473,1.887"/>
			<path clip-path="url(#SVGID_6_)" fill="none" stroke="#9B7BB6" stroke-width="0.21" stroke-miterlimit="10" d="M108.707,47.058
				c0,0-2.438,1.258-3.695,0.21c-1.26-1.049-0.762-3.224-0.762-3.224"/>
			<path clip-path="url(#SVGID_6_)" fill="none" stroke="#9B7BB6" stroke-width="0.21" stroke-miterlimit="10" d="M93.268,41.947
				c0,0,1.012-0.138,1.115,1.36c0.105,1.497-1.744,1.969-1.744,1.969"/>
			<path clip-path="url(#SVGID_6_)" fill="none" stroke="#9B7BB6" stroke-width="0.21" stroke-miterlimit="10" d="M98.291,52.003
				c0,0-1.449-0.242-2.037,0.275c-0.586,0.518-0.85,1.313-0.85,1.313"/>
			<path clip-path="url(#SVGID_6_)" fill="none" stroke="#9B7BB6" stroke-width="0.21" stroke-miterlimit="10" d="M98.012,40.269
				c0,0-0.262,1.153-1.049,1.678c-0.785,0.524-2.018,0.655-2.018,0.655"/>
			<path clip-path="url(#SVGID_6_)" fill="none" stroke="#9B7BB6" stroke-width="0.21" stroke-miterlimit="10" d="M110.465,46.573
				c0,0-0.697-0.093-1.662,0.414c-0.965,0.508-0.523,2.282-0.523,2.282"/>
			<path clip-path="url(#SVGID_6_)" fill="none" stroke="#9B7BB6" stroke-width="0.21" stroke-miterlimit="10" d="M101.158,47.871
				c0,0-0.629-0.996-1.861-0.917c-1.232,0.078-1.678,1.022-1.678,1.022"/>
			<path clip-path="url(#SVGID_6_)" fill="none" stroke="#9B7BB6" stroke-width="0.21" stroke-miterlimit="10" d="M96.412,45.092
				c0,0,1.285-0.131,1.914,0.393s0.551,1.573,0.551,1.573"/>
			<path clip-path="url(#SVGID_6_)" fill="none" stroke="#9B7BB6" stroke-width="0.21" stroke-miterlimit="10" d="M96.25,52.173
				c0,0,0.072-1.051-0.873-1.86c-0.943-0.809-2.621-0.755-2.621-0.755"/>
			<path clip-path="url(#SVGID_6_)" fill="none" stroke="#9B7BB6" stroke-width="0.21" stroke-miterlimit="10" d="M106.4,58.067
				c0,0,0.105,1.258-0.918,1.782c-1.021,0.525-2.691-0.48-2.691-0.48"/>
			<path clip-path="url(#SVGID_6_)" fill="none" stroke="#9B7BB6" stroke-width="0.21" stroke-miterlimit="10" d="M106.322,54.765
				c0,0-1.338,0.105-1.861-0.498c-0.525-0.603-0.262-2.071-0.262-2.071"/>
			<path clip-path="url(#SVGID_6_)" fill="none" stroke="#9B7BB6" stroke-width="0.21" stroke-miterlimit="10" d="M110.438,57.205
				c0,0-0.744-0.946-0.285-2.132c0.457-1.187,1.619-1.421,1.619-1.421"/>
			<path clip-path="url(#SVGID_6_)" fill="none" stroke="#9B7BB6" stroke-width="0.21" stroke-miterlimit="10" d="M100.156,58.98
				c0,0-0.885-1.168-2.701-1.191c-1.816-0.022-2.639,1.107-2.639,1.107"/>
			<path clip-path="url(#SVGID_6_)" fill="none" stroke="#9B7BB6" stroke-width="0.21" stroke-miterlimit="10" d="M104.617,60.165
				c0,0-0.604,1.494-1.992,1.625"/>
			<path clip-path="url(#SVGID_6_)" fill="none" stroke="#9B7BB6" stroke-width="0.21" stroke-miterlimit="10" d="M104.33,54.083
				c0,0-0.865-0.315-1.992,0.917s-0.604,2.858-0.604,2.858"/>
			<path clip-path="url(#SVGID_6_)" fill="none" stroke="#9B7BB6" stroke-width="0.21" stroke-miterlimit="10" d="M97.094,41.859
				c0,0,0.525,1.573,1.539,1.852c1.014,0.28,1.922-0.629,1.922-0.629"/>
			<path clip-path="url(#SVGID_6_)" fill="none" stroke="#9B7BB6" stroke-width="0.21" stroke-miterlimit="10" d="M105.238,47.451
				c0,0,0.734,1.538,0.279,2.447c-0.455,0.908-2.166,0.594-2.166,0.594"/>
			<path clip-path="url(#SVGID_6_)" fill="none" stroke="#9B7BB6" stroke-width="0.21" stroke-miterlimit="10" d="M109.223,54.477
				c0,0-1.154-0.524-1.293-1.398c-0.141-0.874,0.594-1.678,0.594-1.678"/>
			<path clip-path="url(#SVGID_6_)" fill="none" stroke="#9B7BB6" stroke-width="0.21" stroke-miterlimit="10" d="M101.656,52.694
				c0,0-0.734,0.996-2.045,0.577c-1.311-0.42-1.154-1.626-1.154-1.626"/>
			<path clip-path="url(#SVGID_6_)" fill="none" stroke="#9B7BB6" stroke-width="0.21" stroke-miterlimit="10" d="M96.623,54.634
				c0,0,1.152,0,1.52,1.101c0.367,1.101-0.471,1.887-0.471,1.887"/>
		</g>
		<path clip-path="url(#SVGID_2_)" fill="#D0D2D3" d="M76.822,49.65c0,1.659-1.345,3.003-3.003,3.003
			c-1.659,0-3.004-1.344-3.004-3.003c0-1.659,1.345-3.003,3.004-3.003C75.477,46.647,76.822,47.991,76.822,49.65"/>
		<polyline clip-path="url(#SVGID_2_)" fill="none" stroke="#D0D2D3" stroke-width="1.042" stroke-miterlimit="10" points="
			67.771,120.745 79.235,101.03 79.147,85.396 73.417,72.89 73.646,51.699 		"/>
		<polyline clip-path="url(#SVGID_2_)" fill="none" stroke="#33006F" stroke-width="1.042" stroke-miterlimit="10" points="
			88.5,108.125 91.02,106.213 92.148,108.253 95.361,105.474 		"/>
		<rect x="62.387" y="120.223" clip-path="url(#SVGID_2_)" fill="#D0D2D3" width="11.464" height="6.254"/>
	</g>
	<path fill="none" stroke="#86754D" stroke-miterlimit="10" d="M94.801,106.969c0,1.954-1.584,3.538-3.537,3.538
		c-1.955,0-3.539-1.584-3.539-3.538s1.584-3.538,3.539-3.538c1.184,0,2.23,0.581,2.873,1.474
		C94.555,105.485,94.801,106.198,94.801,106.969z"/>
	<polyline fill="none" stroke="#86754D" stroke-width="0.872" stroke-miterlimit="10" points="14.566,145.28 49.611,106.951 
		87.727,106.951 	"/>
	<path fill="#86754D" d="M4.333,149.37h1.152l2.466,3.627l0.414,0.738h0.072v-4.365H9.67v6.66H8.518l-2.457-3.618l-0.423-0.756
		H5.557v4.374H4.333V149.37z"/>
	<path fill="#86754D" d="M10.138,157.46c0.132-0.306,0.243-0.583,0.333-0.832c0.09-0.249,0.162-0.495,0.216-0.738
		c0.054-0.243,0.091-0.492,0.112-0.747s0.032-0.538,0.032-0.851v-4.923h1.395v5.031c0,0.306-0.021,0.597-0.063,0.873
		s-0.111,0.552-0.207,0.828c-0.096,0.275-0.221,0.557-0.374,0.841c-0.153,0.285-0.341,0.593-0.562,0.923L10.138,157.46z"/>
	<path fill="#86754D" d="M15.942,156.12c-0.486,0-0.897-0.056-1.233-0.166c-0.336-0.111-0.609-0.277-0.819-0.5
		c-0.21-0.222-0.362-0.502-0.455-0.842c-0.093-0.339-0.14-0.739-0.14-1.201v-4.041h1.386v3.996c0,0.564,0.097,0.971,0.292,1.22
		c0.195,0.249,0.517,0.373,0.967,0.373s0.772-0.123,0.968-0.369c0.195-0.245,0.292-0.653,0.292-1.224v-3.996h1.386v4.041
		c0,0.462-0.046,0.862-0.14,1.201c-0.093,0.34-0.244,0.621-0.454,0.847c-0.21,0.225-0.483,0.392-0.819,0.499
		C16.839,156.066,16.428,156.12,15.942,156.12z"/>
	<path fill="#86754D" d="M22.062,153.735c-0.078,0.006-0.156,0.011-0.234,0.014c-0.078,0.003-0.159,0.004-0.243,0.004
		c-0.024,0-0.059,0-0.104,0s-0.095,0-0.148,0c-0.054,0-0.105-0.001-0.153-0.004c-0.048-0.003-0.084-0.005-0.108-0.005v2.286h-1.386
		v-6.615c0.282-0.048,0.57-0.082,0.864-0.104c0.294-0.021,0.591-0.031,0.891-0.031c1.062,0,1.833,0.179,2.313,0.535
		c0.48,0.357,0.72,0.932,0.72,1.724c0,0.973-0.396,1.623-1.188,1.953l1.395,2.538h-1.485L22.062,153.735z M21.675,152.682
		c0.258,0,0.474-0.021,0.648-0.063s0.315-0.107,0.423-0.198c0.108-0.09,0.186-0.207,0.234-0.351
		c0.048-0.144,0.072-0.321,0.072-0.531s-0.024-0.389-0.072-0.535c-0.048-0.147-0.126-0.266-0.234-0.355
		c-0.108-0.09-0.25-0.154-0.423-0.193s-0.387-0.059-0.639-0.059c-0.084,0-0.185,0.006-0.302,0.018
		c-0.117,0.013-0.221,0.024-0.311,0.036v2.188c0.084,0.012,0.18,0.022,0.288,0.031S21.573,152.682,21.675,152.682z"/>
	<path fill="#86754D" d="M26.806,153.807l-2.313-4.438h1.539l1.242,2.61l0.18,0.54h0.081l0.189-0.54l1.242-2.61h1.521l-2.295,4.419
		v2.241h-1.386V153.807z"/>
	<path fill="#86754D" d="M9.22,167.136c-0.318,0-0.659-0.027-1.021-0.081c-0.363-0.055-0.715-0.136-1.058-0.243l0.018-1.152
		c0.138,0.048,0.287,0.092,0.446,0.131c0.159,0.039,0.321,0.073,0.486,0.104s0.325,0.054,0.481,0.072
		c0.156,0.018,0.303,0.026,0.441,0.026c0.744,0,1.116-0.267,1.116-0.801c0-0.138-0.027-0.255-0.081-0.351
		c-0.054-0.097-0.134-0.179-0.239-0.248c-0.105-0.068-0.229-0.131-0.374-0.185c-0.144-0.054-0.306-0.107-0.486-0.162
		c-0.264-0.071-0.502-0.155-0.715-0.252c-0.213-0.096-0.396-0.224-0.549-0.382c-0.153-0.159-0.271-0.353-0.355-0.581
		c-0.084-0.228-0.126-0.51-0.126-0.846c0-0.294,0.053-0.56,0.158-0.797c0.105-0.236,0.258-0.439,0.459-0.607
		c0.201-0.168,0.445-0.295,0.733-0.383c0.288-0.087,0.612-0.13,0.972-0.13c0.258,0,0.523,0.02,0.796,0.059s0.577,0.101,0.914,0.185
		l-0.009,1.125c-0.264-0.072-0.542-0.131-0.833-0.176s-0.542-0.067-0.751-0.067c-0.33,0-0.583,0.065-0.76,0.198
		c-0.177,0.132-0.266,0.323-0.266,0.575c0,0.139,0.028,0.256,0.085,0.352s0.14,0.182,0.248,0.256
		c0.108,0.075,0.24,0.145,0.396,0.207c0.156,0.063,0.333,0.128,0.531,0.194c0.252,0.084,0.48,0.177,0.684,0.278
		c0.204,0.103,0.379,0.229,0.527,0.378c0.147,0.15,0.259,0.329,0.337,0.536c0.078,0.207,0.117,0.457,0.117,0.751
		c0,0.637-0.203,1.131-0.608,1.485C10.529,166.958,9.958,167.136,9.22,167.136z"/>
	<path fill="#86754D" d="M12.334,160.368h1.386v6.66h-1.386V160.368z"/>
	<path fill="#86754D" d="M16.123,161.529h-1.674v-1.161h4.761v1.161h-1.692v5.499h-1.395V161.529z"/>
	<path fill="#86754D" d="M19.93,160.368h4.23v1.144h-2.844v1.602h2.547v1.134h-2.547v1.639h2.925v1.143H19.93V160.368z"/>
	<path fill="#86754D" d="M124.941,169.701h1.387v6.66h-1.387V169.701z"/>
	<path fill="#86754D" d="M127.48,169.701h1.943l1.225,3.483l0.287,1.17H131l0.287-1.17l1.225-3.483h1.953v6.66h-1.287v-4.968h-0.055
		l-0.404,1.332l-1.17,3.32h-1.17l-1.17-3.32l-0.414-1.332h-0.055v4.968h-1.26V169.701z"/>
	<path fill="#86754D" d="M135.615,169.746c0.594-0.09,1.18-0.135,1.756-0.135c0.527,0,0.984,0.045,1.367,0.135
		c0.385,0.09,0.699,0.232,0.945,0.428s0.428,0.442,0.545,0.742c0.117,0.301,0.176,0.657,0.176,1.071c0,0.816-0.24,1.413-0.721,1.791
		s-1.236,0.567-2.268,0.567h-0.414v2.016h-1.387V169.746z M137.605,173.238c0.252,0,0.465-0.021,0.643-0.062s0.32-0.113,0.428-0.212
		s0.186-0.228,0.234-0.387c0.047-0.159,0.072-0.355,0.072-0.59c0-0.456-0.102-0.78-0.303-0.972
		c-0.201-0.192-0.557-0.288-1.066-0.288c-0.096,0-0.201,0.006-0.318,0.018c-0.117,0.013-0.215,0.024-0.293,0.036v2.412
		c0.084,0.012,0.182,0.022,0.293,0.031C137.404,173.233,137.508,173.238,137.605,173.238z"/>
	<path fill="#86754D" d="M141.168,169.701h1.387v5.526h2.357v1.134h-3.744V169.701z"/>
	<path fill="#86754D" d="M145.021,176.297l1.889-6.597h2.08l1.889,6.597v0.063h-1.322l-0.477-1.656h-2.268l-0.469,1.656h-1.322
		V176.297z M148.791,173.598l-0.504-1.782L148,170.727h-0.107l-0.289,1.089l-0.504,1.782H148.791z"/>
	<path fill="#86754D" d="M151.455,169.701h1.152l2.467,3.627l0.414,0.738h0.072v-4.365h1.232v6.66h-1.152l-2.457-3.618l-0.424-0.756
		h-0.08v4.374h-1.225V169.701z"/>
	<path fill="#86754D" d="M159.188,170.862h-1.676v-1.161h4.762v1.161h-1.691v5.499h-1.395V170.862z"/>
	<path fill="#86754D" d="M162.994,169.701h4.229v1.144h-2.844v1.602h2.547v1.134h-2.547v1.639h2.926v1.143h-4.311V169.701z"/>
	<path fill="#86754D" d="M169.824,176.478c-0.516,0-1.064-0.036-1.646-0.108v-6.65c0.396-0.03,0.74-0.055,1.035-0.072
		c0.293-0.019,0.557-0.027,0.791-0.027c0.6,0,1.111,0.064,1.535,0.193c0.422,0.13,0.77,0.332,1.039,0.607
		c0.27,0.276,0.469,0.631,0.594,1.062c0.127,0.432,0.189,0.951,0.189,1.557c0,0.612-0.066,1.136-0.197,1.57
		c-0.133,0.436-0.34,0.791-0.621,1.067c-0.283,0.275-0.646,0.479-1.094,0.607S170.461,176.478,169.824,176.478z M170.311,175.353
		c0.299,0,0.553-0.039,0.76-0.117s0.373-0.207,0.5-0.387c0.127-0.181,0.217-0.419,0.275-0.716c0.057-0.297,0.084-0.664,0.084-1.103
		c0-0.432-0.027-0.795-0.084-1.089c-0.059-0.294-0.152-0.531-0.285-0.711c-0.131-0.18-0.305-0.309-0.521-0.387
		c-0.215-0.078-0.482-0.117-0.801-0.117c-0.229,0-0.459,0.018-0.693,0.054v4.519c0.156,0.018,0.295,0.031,0.414,0.04
		C170.08,175.348,170.195,175.353,170.311,175.353z"/>
	<path fill="#86754D" d="M145.119,187.449c-0.33,0-0.668-0.011-1.016-0.031c-0.35-0.021-0.686-0.056-1.008-0.104v-6.57
		c0.414-0.048,0.775-0.082,1.088-0.104c0.312-0.021,0.611-0.031,0.9-0.031c0.912,0,1.576,0.148,1.994,0.445
		c0.416,0.297,0.625,0.772,0.625,1.427c0,0.786-0.346,1.266-1.035,1.439v0.036c0.396,0.078,0.699,0.254,0.908,0.526
		c0.211,0.273,0.316,0.629,0.316,1.067C147.893,186.816,146.967,187.449,145.119,187.449z M145.174,183.516
		c0.203,0,0.379-0.017,0.521-0.05c0.145-0.033,0.26-0.087,0.348-0.162c0.086-0.075,0.148-0.172,0.188-0.292s0.059-0.268,0.059-0.441
		c0-0.324-0.086-0.558-0.26-0.702c-0.174-0.144-0.451-0.216-0.828-0.216c-0.145,0-0.283,0.005-0.414,0.014
		c-0.133,0.009-0.268,0.022-0.406,0.04v1.81H145.174z M145.254,186.414c0.816-0.012,1.225-0.33,1.225-0.954
		c0-0.348-0.096-0.595-0.287-0.742c-0.193-0.146-0.518-0.221-0.973-0.221h-0.838v1.863
		C144.543,186.396,144.834,186.414,145.254,186.414z"/>
	<path fill="#86754D" d="M151.42,187.449c-0.99,0-1.727-0.275-2.209-0.828c-0.484-0.552-0.725-1.413-0.725-2.583
		c0-1.176,0.238-2.041,0.719-2.597c0.48-0.555,1.203-0.832,2.17-0.832c0.396,0,0.846,0.045,1.35,0.135v1.116
		c-0.229-0.036-0.436-0.062-0.625-0.081c-0.189-0.018-0.365-0.027-0.527-0.027c-0.305,0-0.564,0.036-0.773,0.108
		c-0.211,0.072-0.381,0.195-0.514,0.369c-0.131,0.174-0.227,0.408-0.283,0.702s-0.086,0.663-0.086,1.106
		c0,0.438,0.029,0.803,0.086,1.094s0.152,0.523,0.283,0.697c0.133,0.175,0.303,0.297,0.51,0.369s0.459,0.108,0.76,0.108
		c0.174,0,0.371-0.013,0.59-0.036c0.219-0.024,0.412-0.054,0.58-0.09v1.098c-0.156,0.048-0.352,0.089-0.584,0.121
		C151.906,187.432,151.666,187.449,151.42,187.449z"/>
	<path fill="#86754D" d="M153.562,180.699h1.385v6.66h-1.385V180.699z"/>
	<polyline fill="none" stroke="#86754D" stroke-width="0.872" stroke-miterlimit="10" points="143.393,161.947 108.348,123.618 
		70.232,123.618 	"/>
	<path fill="none" stroke="#86754D" stroke-width="0.872" stroke-miterlimit="10" d="M70.771,123.567
		c0,1.078-0.875,1.953-1.954,1.953c-1.08,0-1.955-0.875-1.955-1.953c0-1.08,0.875-1.955,1.955-1.955c0.653,0,1.232,0.32,1.587,0.813
		C70.634,122.747,70.771,123.14,70.771,123.567z"/>
</g>
</svg>
