<?xml version="1.0" encoding="utf-8"?>
<!-- Generator: Adobe Illustrator 16.0.0, SVG Export Plug-In . SVG Version: 6.00 Build 0)  -->
<!DOCTYPE svg PUBLIC "-//W3C//DTD SVG 1.1//EN" "http://www.w3.org/Graphics/SVG/1.1/DTD/svg11.dtd">
<svg version="1.1" id="Layer_1" xmlns="http://www.w3.org/2000/svg" xmlns:xlink="http://www.w3.org/1999/xlink" x="0px" y="0px"
	 width="176px" height="194px" viewBox="0 0 176 194" enable-background="new 0 0 176 194" xml:space="preserve">
<g>
	<path fill="#33006F" d="M167.758,79.642c0,43.366-35.156,78.521-78.521,78.521c-43.367,0-78.521-35.154-78.521-78.521
		S45.869,1.121,89.236,1.121C132.602,1.121,167.758,36.276,167.758,79.642"/>
	<g>
		<defs>
			<path id="SVGID_1_" d="M10.715,79.642c0,43.367,35.156,78.521,78.52,78.521c43.367,0,78.523-35.154,78.523-78.521
				c0-43.366-35.156-78.521-78.523-78.521C45.871,1.121,10.715,36.276,10.715,79.642"/>
		</defs>
		<clipPath id="SVGID_2_">
			<use xlink:href="#SVGID_1_"  overflow="visible"/>
		</clipPath>
		<polygon clip-path="url(#SVGID_2_)" fill="#FFFFFF" points="137.576,89.26 128.184,79.812 101.697,72.711 101.508,65.636 
			106.596,59.87 106.766,56.127 114.275,42.791 114.143,21.874 104.082,9.297 89.518,5.987 74.955,8.503 64.893,21.742 
			64.762,42.129 72.051,54.004 72.307,60.002 77.201,65.197 77.072,72.182 49.801,79.463 41.328,88.73 35.717,123.141 
			28.051,159.809 43.717,165.809 55.385,137.309 55.551,163.476 83.217,163.476 129.385,163.309 139.625,147.607 141.051,123.475 		
			"/>
		<g clip-path="url(#SVGID_2_)">
			<defs>
				<rect id="SVGID_3_" x="77.035" y="13.363" width="64.35" height="150.321"/>
			</defs>
			<clipPath id="SVGID_4_">
				<use xlink:href="#SVGID_3_"  overflow="visible"/>
			</clipPath>
			<polygon clip-path="url(#SVGID_4_)" fill="#8A6640" points="137.873,89.271 128.42,79.759 101.756,72.612 101.564,65.489 
				106.688,59.684 106.836,55.647 111.488,43.83 110.381,25.439 102.404,14.581 89.895,13.363 89.562,71.145 77.033,65.101 
				77.033,68.757 89.535,75.32 88.998,150.851 89.635,163.309 111.135,163.559 129.135,163.684 139.51,147.934 141.385,124.059 			
				"/>
		</g>
		<g clip-path="url(#SVGID_2_)">
			<defs>
				<rect id="SVGID_5_" x="67.072" y="15.421" width="44.232" height="24.002"/>
			</defs>
			<clipPath id="SVGID_6_">
				<use xlink:href="#SVGID_5_"  overflow="visible"/>
			</clipPath>
			<path clip-path="url(#SVGID_6_)" fill="#694092" d="M111.305,28.809c0-2.13-1.174-3.986-2.906-4.959
				c0.057-0.259,0.09-0.528,0.09-0.804c0-2.044-1.658-3.701-3.701-3.701c-0.768,0-1.482,0.235-2.074,0.636
				c-0.057,0.007-0.111,0.016-0.168,0.026c-0.064-1.987-1.691-3.579-3.693-3.579c-0.588,0-1.145,0.141-1.639,0.386
				c-0.678-0.848-1.719-1.392-2.889-1.392c-0.707,0-1.365,0.201-1.926,0.545c-1.854,0.202-3.295,1.771-3.295,3.678
				c0,0.883,0.309,1.693,0.826,2.33c-0.115,0.303-0.182,0.631-0.182,0.975c0,0.698,0.264,1.334,0.691,1.819
				c-0.57,0.504-0.934,1.24-0.934,2.062c0,0.001,0,0.002,0,0.002c-0.129-0.574-0.436-1.079-0.861-1.456
				c0.486-0.496,0.787-1.175,0.787-1.924c0-0.886-0.42-1.671-1.068-2.174c0.436-0.608,0.697-1.351,0.697-2.157
				c0-2.043-1.658-3.7-3.701-3.7c-1.439,0-2.684,0.822-3.295,2.021c-0.662-0.628-1.557-1.015-2.541-1.015
				c-2.002,0-3.629,1.592-3.693,3.579c-0.055-0.01-0.111-0.019-0.168-0.026c-0.592-0.401-1.305-0.636-2.074-0.636
				c-2.043,0-3.699,1.657-3.699,3.701c0,0.276,0.031,0.545,0.09,0.804c-1.734,0.973-2.908,2.829-2.908,4.959
				c0,1.64,0.695,3.116,1.807,4.153c-0.191,0.446-0.297,0.937-0.297,1.452c0,2.044,1.656,3.701,3.701,3.701
				c0.459,0,0.898-0.088,1.305-0.241c1.018,0.96,2.389,1.549,3.898,1.549c1.389,0,2.664-0.5,3.652-1.329
				c0.459,0.206,0.969,0.323,1.506,0.323c0.283,0,0.561-0.035,0.824-0.096c0.633,0.5,1.428,0.8,2.295,0.8
				c2.045,0,3.701-1.657,3.701-3.701c0-0.74-0.221-1.428-0.596-2.006c0.617-0.661,0.998-1.546,0.998-2.521
				c0-0.779-0.242-1.501-0.654-2.097c0.23-0.402,0.363-0.866,0.363-1.361c0,0,0-0.002,0-0.003c0.141,0.638,0.506,1.191,1.006,1.577
				c-0.227,0.48-0.359,1.015-0.359,1.582c0,0.771,0.236,1.487,0.641,2.079c-0.525,0.639-0.842,1.457-0.842,2.348
				c0,2.044,1.656,3.701,3.701,3.701c0.549,0,1.066-0.123,1.533-0.336c0.158,0.02,0.316,0.034,0.479,0.034
				c0.537,0,1.047-0.117,1.508-0.323c0.988,0.829,2.262,1.329,3.652,1.329c1.51,0,2.879-0.589,3.896-1.549
				c0.408,0.153,0.846,0.241,1.307,0.241c2.043,0,3.699-1.657,3.699-3.701c0-0.515-0.105-1.006-0.295-1.452
				C110.609,31.924,111.305,30.448,111.305,28.809"/>
			<path clip-path="url(#SVGID_6_)" fill="none" stroke="#9B7BB6" stroke-width="0.201" stroke-miterlimit="10" d="M71.926,24.356
				c0,0,2.338,1.207,3.545,0.201c1.209-1.006,0.73-3.093,0.73-3.093"/>
			<path clip-path="url(#SVGID_6_)" fill="none" stroke="#9B7BB6" stroke-width="0.201" stroke-miterlimit="10" d="M86.789,23.526
				c0,0-0.969-0.132-1.07,1.305c-0.1,1.437,1.674,1.889,1.674,1.889"/>
			<path clip-path="url(#SVGID_6_)" fill="none" stroke="#9B7BB6" stroke-width="0.201" stroke-miterlimit="10" d="M80.812,31.013
				c0,0,1.393-0.232,1.953,0.264c0.564,0.497,0.816,1.26,0.816,1.26"/>
			<path clip-path="url(#SVGID_6_)" fill="none" stroke="#9B7BB6" stroke-width="0.201" stroke-miterlimit="10" d="M82.188,17.842
				c0,0,0.252,1.107,1.006,1.61c0.754,0.503,1.938,0.628,1.938,0.628"/>
			<path clip-path="url(#SVGID_6_)" fill="none" stroke="#9B7BB6" stroke-width="0.201" stroke-miterlimit="10" d="M70.238,23.891
				c0,0,0.67-0.089,1.596,0.398c0.926,0.486,0.502,2.189,0.502,2.189"/>
			<path clip-path="url(#SVGID_6_)" fill="none" stroke="#9B7BB6" stroke-width="0.201" stroke-miterlimit="10" d="M79.168,25.136
				c0,0,0.605-0.956,1.787-0.88c1.182,0.075,1.609,0.981,1.609,0.981"/>
			<path clip-path="url(#SVGID_6_)" fill="none" stroke="#9B7BB6" stroke-width="0.201" stroke-miterlimit="10" d="M83.721,22.47
				c0,0-1.232-0.126-1.836,0.377s-0.527,1.509-0.527,1.509"/>
			<path clip-path="url(#SVGID_6_)" fill="none" stroke="#9B7BB6" stroke-width="0.201" stroke-miterlimit="10" d="M82.77,31.176
				c0,0-0.066-1.009,0.838-1.785c0.906-0.776,2.516-0.724,2.516-0.724"/>
			<path clip-path="url(#SVGID_6_)" fill="none" stroke="#9B7BB6" stroke-width="0.201" stroke-miterlimit="10" d="M74.139,34.92
				c0,0-0.102,1.207,0.879,1.71c0.982,0.503,2.584-0.461,2.584-0.461"/>
			<path clip-path="url(#SVGID_6_)" fill="none" stroke="#9B7BB6" stroke-width="0.201" stroke-miterlimit="10" d="M74.213,31.751
				c0,0,1.283,0.101,1.787-0.478c0.502-0.578,0.25-1.987,0.25-1.987"/>
			<path clip-path="url(#SVGID_6_)" fill="none" stroke="#9B7BB6" stroke-width="0.201" stroke-miterlimit="10" d="M71.396,33.916
				c0,0,0.713-0.908,0.273-2.046s-1.555-1.363-1.555-1.363"/>
			<path clip-path="url(#SVGID_6_)" fill="none" stroke="#9B7BB6" stroke-width="0.201" stroke-miterlimit="10" d="M83.834,35.928
				c0,0,0.213-1.39,1.734-2.237c1.521-0.848,2.732-0.27,2.732-0.27"/>
			<path clip-path="url(#SVGID_6_)" fill="none" stroke="#9B7BB6" stroke-width="0.201" stroke-miterlimit="10" d="M75.85,36.932
				c0,0,0.576,1.434,1.91,1.559"/>
			<path clip-path="url(#SVGID_6_)" fill="none" stroke="#9B7BB6" stroke-width="0.201" stroke-miterlimit="10" d="M76.125,31.097
				c0,0,0.83-0.302,1.912,0.88c1.082,1.182,0.578,2.742,0.578,2.742"/>
			<path clip-path="url(#SVGID_6_)" fill="none" stroke="#9B7BB6" stroke-width="0.201" stroke-miterlimit="10" d="M83.066,19.368
				c0,0-0.502,1.509-1.475,1.777c-0.973,0.269-1.844-0.603-1.844-0.603"/>
			<path clip-path="url(#SVGID_6_)" fill="none" stroke="#9B7BB6" stroke-width="0.201" stroke-miterlimit="10" d="M75.254,24.734
				c0,0-0.705,1.476-0.268,2.347c0.436,0.872,2.078,0.571,2.078,0.571"/>
			<path clip-path="url(#SVGID_6_)" fill="none" stroke="#9B7BB6" stroke-width="0.201" stroke-miterlimit="10" d="M71.43,31.475
				c0,0,1.107-0.503,1.242-1.341c0.133-0.839-0.57-1.61-0.57-1.61"/>
			<path clip-path="url(#SVGID_6_)" fill="none" stroke="#9B7BB6" stroke-width="0.201" stroke-miterlimit="10" d="M79.697,27.702
				c0,0,0.703,0.956,1.961,0.553c1.258-0.402,1.107-1.559,1.107-1.559"/>
			<path clip-path="url(#SVGID_6_)" fill="none" stroke="#9B7BB6" stroke-width="0.201" stroke-miterlimit="10" d="M80.553,28.406
				c0,0-1.107,0-1.459,1.056c-0.354,1.057,0.453,1.811,0.453,1.811"/>
			<path clip-path="url(#SVGID_6_)" fill="none" stroke="#9B7BB6" stroke-width="0.201" stroke-miterlimit="10" d="M106.412,24.356
				c0,0-2.34,1.207-3.547,0.201s-0.73-3.093-0.73-3.093"/>
			<path clip-path="url(#SVGID_6_)" fill="none" stroke="#9B7BB6" stroke-width="0.201" stroke-miterlimit="10" d="M91.598,19.452
				c0,0,0.969-0.132,1.07,1.305c0.1,1.437-1.676,1.889-1.676,1.889"/>
			<path clip-path="url(#SVGID_6_)" fill="none" stroke="#9B7BB6" stroke-width="0.201" stroke-miterlimit="10" d="M96.418,29.101
				c0,0-1.393-0.232-1.955,0.264c-0.562,0.497-0.814,1.26-0.814,1.26"/>
			<path clip-path="url(#SVGID_6_)" fill="none" stroke="#9B7BB6" stroke-width="0.201" stroke-miterlimit="10" d="M96.15,17.842
				c0,0-0.252,1.107-1.008,1.61c-0.754,0.503-1.936,0.628-1.936,0.628"/>
			<path clip-path="url(#SVGID_6_)" fill="none" stroke="#9B7BB6" stroke-width="0.201" stroke-miterlimit="10" d="M108.098,23.891
				c0,0-0.67-0.089-1.596,0.398c-0.926,0.486-0.502,2.189-0.502,2.189"/>
			<path clip-path="url(#SVGID_6_)" fill="none" stroke="#9B7BB6" stroke-width="0.201" stroke-miterlimit="10" d="M99.168,25.136
				c0,0-0.604-0.956-1.787-0.88c-1.182,0.075-1.607,0.981-1.607,0.981"/>
			<path clip-path="url(#SVGID_6_)" fill="none" stroke="#9B7BB6" stroke-width="0.201" stroke-miterlimit="10" d="M94.615,22.47
				c0,0,1.232-0.126,1.836,0.377s0.527,1.509,0.527,1.509"/>
			<path clip-path="url(#SVGID_6_)" fill="none" stroke="#9B7BB6" stroke-width="0.201" stroke-miterlimit="10" d="M94.459,29.265
				c0,0,0.068-1.009-0.838-1.785c-0.904-0.776-2.514-0.724-2.514-0.724"/>
			<path clip-path="url(#SVGID_6_)" fill="none" stroke="#9B7BB6" stroke-width="0.201" stroke-miterlimit="10" d="M104.197,34.92
				c0,0,0.102,1.207-0.879,1.71c-0.98,0.503-2.584-0.461-2.584-0.461"/>
			<path clip-path="url(#SVGID_6_)" fill="none" stroke="#9B7BB6" stroke-width="0.201" stroke-miterlimit="10" d="M104.123,31.751
				c0,0-1.283,0.101-1.787-0.478c-0.502-0.578-0.25-1.987-0.25-1.987"/>
			<path clip-path="url(#SVGID_6_)" fill="none" stroke="#9B7BB6" stroke-width="0.201" stroke-miterlimit="10" d="M108.072,34.092
				c0,0-0.713-0.908-0.275-2.046c0.439-1.138,1.557-1.363,1.557-1.363"/>
			<path clip-path="url(#SVGID_6_)" fill="none" stroke="#9B7BB6" stroke-width="0.201" stroke-miterlimit="10" d="M98.207,35.795
				c0,0-0.85-1.121-2.592-1.143c-1.742-0.021-2.531,1.063-2.531,1.063"/>
			<path clip-path="url(#SVGID_6_)" fill="none" stroke="#9B7BB6" stroke-width="0.201" stroke-miterlimit="10" d="M102.488,36.932
				c0,0-0.578,1.434-1.912,1.559"/>
			<path clip-path="url(#SVGID_6_)" fill="none" stroke="#9B7BB6" stroke-width="0.201" stroke-miterlimit="10" d="M102.211,31.097
				c0,0-0.83-0.302-1.91,0.88c-1.082,1.182-0.58,2.742-0.58,2.742"/>
			<path clip-path="url(#SVGID_6_)" fill="none" stroke="#9B7BB6" stroke-width="0.201" stroke-miterlimit="10" d="M95.27,19.368
				c0,0,0.502,1.509,1.477,1.777c0.971,0.269,1.844-0.603,1.844-0.603"/>
			<path clip-path="url(#SVGID_6_)" fill="none" stroke="#9B7BB6" stroke-width="0.201" stroke-miterlimit="10" d="M103.082,24.734
				c0,0,0.705,1.476,0.27,2.347c-0.438,0.872-2.08,0.571-2.08,0.571"/>
			<path clip-path="url(#SVGID_6_)" fill="none" stroke="#9B7BB6" stroke-width="0.201" stroke-miterlimit="10" d="M106.906,31.475
				c0,0-1.107-0.503-1.242-1.341c-0.133-0.839,0.57-1.61,0.57-1.61"/>
			<path clip-path="url(#SVGID_6_)" fill="none" stroke="#9B7BB6" stroke-width="0.201" stroke-miterlimit="10" d="M99.646,29.764
				c0,0-0.705,0.956-1.963,0.553c-1.258-0.402-1.105-1.559-1.105-1.559"/>
			<path clip-path="url(#SVGID_6_)" fill="none" stroke="#9B7BB6" stroke-width="0.201" stroke-miterlimit="10" d="M94.816,31.625
				c0,0,1.107,0,1.459,1.056c0.352,1.057-0.453,1.811-0.453,1.811"/>
		</g>
		<path clip-path="url(#SVGID_2_)" fill="#D0D2D3" d="M75.818,26.844c0,1.592-1.291,2.882-2.883,2.882
			c-1.59,0-2.881-1.29-2.881-2.882c0-1.592,1.291-2.882,2.881-2.882C74.527,23.962,75.818,25.252,75.818,26.844"/>
		<polyline clip-path="url(#SVGID_2_)" fill="none" stroke="#D0D2D3" stroke-miterlimit="10" points="67.135,95.059 78.135,76.142 
			78.051,61.142 72.551,49.142 72.77,28.809 		"/>
		<polyline clip-path="url(#SVGID_2_)" fill="none" stroke="#33006F" stroke-miterlimit="10" points="86.385,78.392 88.801,76.559 
			89.885,79.475 92.967,76.809 		"/>
		
			<line clip-path="url(#SVGID_2_)" fill="none" stroke="#A6A8AB" stroke-miterlimit="10" x1="70.467" y1="97.892" x2="117.717" y2="97.892"/>
		<rect x="61.967" y="94.559" clip-path="url(#SVGID_2_)" fill="#D0D2D3" width="11" height="6"/>
		<path clip-path="url(#SVGID_2_)" fill="none" stroke="#BBBDBF" stroke-miterlimit="10" d="M118.467,98.892
			c0,0,7.084,13,9.418,15.25c2.332,2.25,7.082,3,7.082,3"/>
		<path clip-path="url(#SVGID_2_)" fill="none" stroke="#BBBDBF" stroke-miterlimit="10" d="M117.967,99.309
			c0,0,9.5,37.917,13.918,40.167"/>
		<path clip-path="url(#SVGID_2_)" fill="#E0C3B0" d="M137.135,140.809l-27.936-12.916l-8.41-6.455c0,0-1.223-2.811-2.543-4.376
			s-17.018-6.97-17.018-6.97l-4.844-1.026c0,0-4.623-1.677-5.207-1.247c-0.629,0.463-1.324,1.957-1.25,2.764
			c0.072,0.807,1.467,2.053,1.467,2.053l2.443,1.076l6.951,1.883l2.566,1.174l-10.639-1.98c0,0-0.734-0.439-1.613-0.88
			c-0.881-0.44-2.055,2.054-1.541,2.787s1.688,1.907,1.688,1.907l7.484,2.421l5.355,0.953l-6.162-0.073l-6.824-2.348
			c0,0,0.367-0.293-0.586-0.366c-0.955-0.073-1.174,3.153-0.588,3.741c0.588,0.587,2.494,1.76,2.494,1.76l6.898,3.154l3.521,0.66
			l-4.988-0.367l-4.771-1.467c0,0-1.467-1.026-1.98-0.807c-0.514,0.221-0.441,2.2-0.441,2.714c0,0.513,2.422,2.274,2.422,2.274
			l5.65,1.32l6.529,1.1l9.389,0.954l2.346,1.394l4.695,3.154l20.566,21.66l11,0.875l6.375-12.75L137.135,140.809z"/>
		<polygon clip-path="url(#SVGID_2_)" fill="#E0C3B0" points="96.584,114.299 92.084,111.561 86.998,108.235 82.402,107.942 
			81.424,111.658 85.043,113.125 92.867,117.624 98.947,118.122 		"/>
		<path clip-path="url(#SVGID_2_)" fill="none" stroke="#BBBDBF" stroke-miterlimit="10" d="M118.885,103.309
			c0,0-2.625,5.875-9.125,4.75"/>
		
			<line clip-path="url(#SVGID_2_)" fill="none" stroke="#BBBDBF" stroke-miterlimit="10" x1="137.76" y1="142.934" x2="103.385" y2="129.934"/>
		
			<line clip-path="url(#SVGID_2_)" fill="none" stroke="#BBBDBF" stroke-miterlimit="10" x1="136.301" y1="155.017" x2="107.633" y2="136.059"/>
		<g clip-path="url(#SVGID_2_)">
			<defs>
				<rect id="SVGID_7_" x="105.188" y="104.225" width="9.582" height="9.041"/>
			</defs>
			<clipPath id="SVGID_8_">
				<use xlink:href="#SVGID_7_"  overflow="visible"/>
			</clipPath>
			<polygon clip-path="url(#SVGID_8_)" fill="#86754D" points="109.898,106.122 111.451,104.401 111.332,106.717 114.77,106.419 
				111.928,108.152 113.648,109.705 111.332,109.586 111.766,113.266 109.898,110.182 108.344,111.902 108.463,109.586 
				105.189,109.776 107.867,108.152 106.146,106.598 108.463,106.717 108.176,104.225 			"/>
		</g>
		<g clip-path="url(#SVGID_2_)">
			<defs>
				<rect id="SVGID_9_" x="98.98" y="125.934" width="9.58" height="9.041"/>
			</defs>
			<clipPath id="SVGID_10_">
				<use xlink:href="#SVGID_9_"  overflow="visible"/>
			</clipPath>
			<polygon clip-path="url(#SVGID_10_)" fill="#86754D" points="103.689,127.831 105.244,126.109 105.125,128.424 108.561,128.127 
				105.719,129.86 107.441,131.413 105.125,131.295 105.557,134.975 103.689,131.89 102.135,133.61 102.254,131.295 98.98,131.484 
				101.66,129.86 99.938,128.306 102.254,128.424 101.967,125.934 			"/>
		</g>
		<g clip-path="url(#SVGID_2_)">
			<defs>
				<rect id="SVGID_11_" x="103.162" y="132.523" width="8.516" height="8.461"/>
			</defs>
			<clipPath id="SVGID_12_">
				<use xlink:href="#SVGID_11_"  overflow="visible"/>
			</clipPath>
			<polygon clip-path="url(#SVGID_12_)" fill="#86754D" points="109.627,136.189 111.678,137.272 109.404,137.725 110.537,140.984 
				108.16,138.656 107.076,140.706 106.621,138.432 103.162,139.756 105.693,137.187 103.643,136.104 105.916,135.65 
				104.93,132.523 107.16,134.721 108.244,132.67 108.699,134.944 111.041,134.053 			"/>
		</g>
		<g clip-path="url(#SVGID_2_)">
			<defs>
				<rect id="SVGID_13_" x="129.396" y="110.242" width="9.58" height="11.69"/>
			</defs>
			<clipPath id="SVGID_14_">
				<use xlink:href="#SVGID_13_"  overflow="visible"/>
			</clipPath>
			<polygon clip-path="url(#SVGID_14_)" fill="#86754D" points="134.105,114.789 135.66,113.067 135.541,115.383 138.979,115.086 
				136.137,116.819 137.857,118.372 135.541,118.253 135.973,121.934 134.105,118.848 132.553,120.569 132.672,118.253 
				129.396,118.442 132.076,116.819 130.355,115.264 132.672,115.383 130.67,110.241 			"/>
		</g>
		<path clip-path="url(#SVGID_2_)" fill="#A6A8AB" d="M120.217,98.309c0,1.381-1.119,2.5-2.5,2.5s-2.5-1.119-2.5-2.5
			c0-1.381,1.119-2.5,2.5-2.5S120.217,96.928,120.217,98.309"/>
		<path clip-path="url(#SVGID_2_)" fill="#BBBDBF" d="M135.848,116.784c0,0.848-0.686,1.534-1.533,1.534
			c-0.846,0-1.533-0.687-1.533-1.534c0-0.847,0.688-1.533,1.533-1.533C135.162,115.25,135.848,115.937,135.848,116.784"/>
		<path clip-path="url(#SVGID_2_)" fill="#BBBDBF" d="M105.305,129.921c0,0.847-0.688,1.534-1.533,1.534s-1.533-0.688-1.533-1.534
			s0.688-1.534,1.533-1.534S105.305,129.075,105.305,129.921"/>
		<path clip-path="url(#SVGID_2_)" fill="#BBBDBF" d="M109.182,136.535c0,0.847-0.688,1.534-1.535,1.534
			c-0.846,0-1.531-0.688-1.531-1.534s0.686-1.534,1.531-1.534C108.494,135,109.182,135.688,109.182,136.535"/>
		<path clip-path="url(#SVGID_2_)" fill="#BBBDBF" d="M111.594,108.084c0,0.847-0.686,1.533-1.533,1.533
			c-0.846,0-1.533-0.687-1.533-1.533c0-0.848,0.688-1.535,1.533-1.535C110.908,106.549,111.594,107.237,111.594,108.084"/>
		<line clip-path="url(#SVGID_2_)" fill="#6D6E70" x1="119.523" y1="115.009" x2="122.104" y2="124.604"/>
		
			<line clip-path="url(#SVGID_2_)" fill="none" stroke="#6D6E70" stroke-miterlimit="10" x1="119.523" y1="115.009" x2="121.807" y2="123.5"/>
		<polygon clip-path="url(#SVGID_2_)" fill="#6D6E70" points="119.652,122.016 121.73,123.214 122.928,121.135 123.301,122.526 
			122.104,124.604 120.027,123.407 		"/>
		<line clip-path="url(#SVGID_2_)" fill="#6D6E70" x1="131.469" y1="134.268" x2="128.324" y2="124.844"/>
		
			<line clip-path="url(#SVGID_2_)" fill="none" stroke="#6D6E70" stroke-miterlimit="10" x1="131.469" y1="134.268" x2="128.688" y2="125.928"/>
		<polygon clip-path="url(#SVGID_2_)" fill="#6D6E70" points="130.926,127.282 128.781,126.208 127.709,128.354 127.254,126.989 
			128.326,124.844 130.469,125.916 		"/>
	</g>
</g>
</svg>
