<?xml version="1.0" encoding="utf-8"?>
<!-- Generator: Adobe Illustrator 16.0.0, SVG Export Plug-In . SVG Version: 6.00 Build 0)  -->
<!DOCTYPE svg PUBLIC "-//W3C//DTD SVG 1.1//EN" "http://www.w3.org/Graphics/SVG/1.1/DTD/svg11.dtd">
<svg version="1.1" id="Layer_1" xmlns="http://www.w3.org/2000/svg" xmlns:xlink="http://www.w3.org/1999/xlink" x="0px" y="0px"
	 width="176px" height="194px" viewBox="0 0 176 194" enable-background="new 0 0 176 194" xml:space="preserve">
<g>
	<path fill="#33006F" d="M164.803,81.556c0,43.366-35.154,78.521-78.52,78.521c-43.367,0-78.523-35.155-78.523-78.521
		c0-43.366,35.156-78.521,78.523-78.521C129.648,3.035,164.803,38.19,164.803,81.556"/>
	<g>
		<defs>
			<path id="SVGID_1_" d="M7.76,81.557c0,43.364,35.156,78.521,78.521,78.521c43.367,0,78.521-35.156,78.521-78.521
				c0-43.367-35.154-78.522-78.521-78.522C42.916,3.035,7.76,38.19,7.76,81.557"/>
		</defs>
		<clipPath id="SVGID_2_">
			<use xlink:href="#SVGID_1_"  overflow="visible"/>
		</clipPath>
		<polygon clip-path="url(#SVGID_2_)" fill="#FFFFFF" points="134.52,93.021 125.127,83.573 98.643,76.472 98.451,69.397 
			103.539,63.631 103.709,59.888 111.219,46.552 111.086,25.635 101.025,13.058 86.463,9.748 71.898,12.264 61.838,25.503 
			61.705,45.89 68.994,57.765 69.252,63.763 74.145,68.958 74.018,75.943 46.744,83.224 38.271,92.491 32.662,126.904 
			24.994,163.57 40.66,169.57 52.328,141.07 52.494,167.237 80.16,167.237 126.328,167.07 136.568,151.368 137.994,127.238 		"/>
		<g clip-path="url(#SVGID_2_)">
			<defs>
				<rect id="SVGID_3_" x="73.977" y="17.124" width="64.352" height="150.321"/>
			</defs>
			<clipPath id="SVGID_4_">
				<use xlink:href="#SVGID_3_"  overflow="visible"/>
			</clipPath>
			<polygon clip-path="url(#SVGID_4_)" fill="#8A6640" points="134.818,93.032 125.363,83.521 98.699,76.374 98.508,69.25 
				103.631,63.445 103.779,59.408 108.434,47.591 107.324,29.2 99.348,18.342 86.838,17.125 86.506,74.906 73.979,68.862 
				73.979,72.519 86.48,79.082 85.943,154.613 86.578,167.071 108.078,167.321 126.078,167.446 136.453,151.696 138.328,127.82 			
				"/>
		</g>
		<g clip-path="url(#SVGID_2_)">
			<defs>
				<rect id="SVGID_5_" x="64.014" y="19.183" width="44.234" height="24.001"/>
			</defs>
			<clipPath id="SVGID_6_">
				<use xlink:href="#SVGID_5_"  overflow="visible"/>
			</clipPath>
			<path clip-path="url(#SVGID_6_)" fill="#694092" d="M108.248,32.57c0-2.13-1.172-3.986-2.906-4.959
				c0.057-0.259,0.09-0.528,0.09-0.804c0-2.044-1.658-3.701-3.701-3.701c-0.768,0-1.482,0.235-2.074,0.636
				c-0.057,0.007-0.111,0.016-0.166,0.026c-0.066-1.987-1.693-3.579-3.695-3.579c-0.588,0-1.143,0.141-1.637,0.386
				c-0.68-0.848-1.721-1.392-2.891-1.392c-0.707,0-1.363,0.201-1.926,0.545c-1.854,0.202-3.295,1.771-3.295,3.678
				c0,0.883,0.309,1.693,0.826,2.33c-0.115,0.303-0.18,0.631-0.18,0.975c0,0.698,0.262,1.334,0.689,1.819
				c-0.57,0.504-0.934,1.24-0.934,2.062c0,0.001,0,0.002,0,0.002c-0.127-0.574-0.436-1.079-0.861-1.456
				c0.488-0.496,0.787-1.175,0.787-1.924c0-0.886-0.418-1.671-1.068-2.174c0.438-0.608,0.697-1.351,0.697-2.157
				c0-2.043-1.658-3.7-3.701-3.7c-1.438,0-2.682,0.822-3.295,2.021c-0.662-0.628-1.555-1.015-2.541-1.015
				c-2.002,0-3.629,1.592-3.693,3.579c-0.055-0.01-0.111-0.019-0.166-0.026c-0.594-0.401-1.307-0.636-2.074-0.636
				c-2.045,0-3.701,1.657-3.701,3.701c0,0.276,0.033,0.545,0.09,0.804c-1.734,0.973-2.908,2.829-2.908,4.959
				c0,1.64,0.695,3.116,1.807,4.153c-0.191,0.446-0.297,0.937-0.297,1.452c0,2.044,1.656,3.701,3.701,3.701
				c0.461,0,0.898-0.088,1.305-0.241c1.018,0.96,2.389,1.549,3.898,1.549c1.391,0,2.664-0.5,3.652-1.329
				c0.459,0.206,0.969,0.323,1.506,0.323c0.285,0,0.561-0.035,0.826-0.096c0.631,0.5,1.426,0.8,2.293,0.8
				c2.045,0,3.701-1.657,3.701-3.701c0-0.74-0.221-1.428-0.596-2.006c0.617-0.661,0.998-1.546,0.998-2.521
				c0-0.779-0.242-1.501-0.652-2.097c0.229-0.402,0.361-0.866,0.361-1.361c0,0,0-0.002,0-0.003c0.143,0.638,0.506,1.191,1.006,1.577
				c-0.227,0.48-0.359,1.015-0.359,1.582c0,0.771,0.238,1.487,0.641,2.079c-0.525,0.639-0.842,1.457-0.842,2.348
				c0,2.044,1.658,3.701,3.701,3.701c0.549,0,1.066-0.123,1.535-0.336c0.156,0.02,0.314,0.034,0.477,0.034
				c0.537,0,1.047-0.117,1.508-0.323c0.988,0.829,2.262,1.329,3.652,1.329c1.51,0,2.881-0.589,3.898-1.549
				c0.406,0.153,0.844,0.241,1.305,0.241c2.043,0,3.701-1.657,3.701-3.701c0-0.515-0.107-1.006-0.297-1.452
				C107.553,35.686,108.248,34.21,108.248,32.57"/>
			<path clip-path="url(#SVGID_6_)" fill="none" stroke="#9B7BB6" stroke-width="0.201" stroke-miterlimit="10" d="M68.869,28.118
				c0,0,2.338,1.207,3.545,0.201c1.209-1.006,0.73-3.093,0.73-3.093"/>
			<path clip-path="url(#SVGID_6_)" fill="none" stroke="#9B7BB6" stroke-width="0.201" stroke-miterlimit="10" d="M83.732,27.288
				c0,0-0.969-0.132-1.07,1.305c-0.1,1.437,1.676,1.889,1.676,1.889"/>
			<path clip-path="url(#SVGID_6_)" fill="none" stroke="#9B7BB6" stroke-width="0.201" stroke-miterlimit="10" d="M77.756,34.774
				c0,0,1.393-0.232,1.955,0.264c0.562,0.497,0.814,1.26,0.814,1.26"/>
			<path clip-path="url(#SVGID_6_)" fill="none" stroke="#9B7BB6" stroke-width="0.201" stroke-miterlimit="10" d="M79.131,21.604
				c0,0,0.252,1.107,1.006,1.61c0.756,0.503,1.938,0.628,1.938,0.628"/>
			<path clip-path="url(#SVGID_6_)" fill="none" stroke="#9B7BB6" stroke-width="0.201" stroke-miterlimit="10" d="M67.182,27.652
				c0,0,0.67-0.089,1.596,0.398c0.926,0.486,0.502,2.189,0.502,2.189"/>
			<path clip-path="url(#SVGID_6_)" fill="none" stroke="#9B7BB6" stroke-width="0.201" stroke-miterlimit="10" d="M76.113,28.897
				c0,0,0.604-0.956,1.785-0.88c1.182,0.075,1.609,0.981,1.609,0.981"/>
			<path clip-path="url(#SVGID_6_)" fill="none" stroke="#9B7BB6" stroke-width="0.201" stroke-miterlimit="10" d="M80.664,26.231
				c0,0-1.23-0.126-1.836,0.377c-0.604,0.503-0.527,1.509-0.527,1.509"/>
			<path clip-path="url(#SVGID_6_)" fill="none" stroke="#9B7BB6" stroke-width="0.201" stroke-miterlimit="10" d="M79.715,34.938
				c0,0-0.068-1.009,0.838-1.785c0.904-0.776,2.514-0.724,2.514-0.724"/>
			<path clip-path="url(#SVGID_6_)" fill="none" stroke="#9B7BB6" stroke-width="0.201" stroke-miterlimit="10" d="M71.082,38.682
				c0,0-0.102,1.207,0.881,1.71c0.98,0.503,2.582-0.461,2.582-0.461"/>
			<path clip-path="url(#SVGID_6_)" fill="none" stroke="#9B7BB6" stroke-width="0.201" stroke-miterlimit="10" d="M71.158,35.512
				c0,0,1.283,0.101,1.785-0.478c0.504-0.578,0.252-1.987,0.252-1.987"/>
			<path clip-path="url(#SVGID_6_)" fill="none" stroke="#9B7BB6" stroke-width="0.201" stroke-miterlimit="10" d="M68.34,37.677
				c0,0,0.713-0.908,0.275-2.046c-0.439-1.138-1.557-1.363-1.557-1.363"/>
			<path clip-path="url(#SVGID_6_)" fill="none" stroke="#9B7BB6" stroke-width="0.201" stroke-miterlimit="10" d="M80.777,39.69
				c0,0,0.213-1.39,1.734-2.237c1.521-0.848,2.732-0.27,2.732-0.27"/>
			<path clip-path="url(#SVGID_6_)" fill="none" stroke="#9B7BB6" stroke-width="0.201" stroke-miterlimit="10" d="M72.793,40.694
				c0,0,0.578,1.434,1.91,1.559"/>
			<path clip-path="url(#SVGID_6_)" fill="none" stroke="#9B7BB6" stroke-width="0.201" stroke-miterlimit="10" d="M73.068,34.858
				c0,0,0.83-0.302,1.912,0.88c1.082,1.182,0.578,2.742,0.578,2.742"/>
			<path clip-path="url(#SVGID_6_)" fill="none" stroke="#9B7BB6" stroke-width="0.201" stroke-miterlimit="10" d="M80.012,23.129
				c0,0-0.504,1.509-1.477,1.777c-0.973,0.269-1.844-0.603-1.844-0.603"/>
			<path clip-path="url(#SVGID_6_)" fill="none" stroke="#9B7BB6" stroke-width="0.201" stroke-miterlimit="10" d="M72.197,28.495
				c0,0-0.703,1.476-0.268,2.347c0.436,0.872,2.078,0.571,2.078,0.571"/>
			<path clip-path="url(#SVGID_6_)" fill="none" stroke="#9B7BB6" stroke-width="0.201" stroke-miterlimit="10" d="M68.375,35.236
				c0,0,1.105-0.503,1.24-1.341c0.135-0.839-0.57-1.61-0.57-1.61"/>
			<path clip-path="url(#SVGID_6_)" fill="none" stroke="#9B7BB6" stroke-width="0.201" stroke-miterlimit="10" d="M76.641,31.463
				c0,0,0.703,0.956,1.963,0.553c1.256-0.402,1.105-1.559,1.105-1.559"/>
			<path clip-path="url(#SVGID_6_)" fill="none" stroke="#9B7BB6" stroke-width="0.201" stroke-miterlimit="10" d="M77.496,32.167
				c0,0-1.107,0-1.459,1.056c-0.352,1.057,0.453,1.811,0.453,1.811"/>
			<path clip-path="url(#SVGID_6_)" fill="none" stroke="#9B7BB6" stroke-width="0.201" stroke-miterlimit="10" d="M103.355,28.118
				c0,0-2.34,1.207-3.547,0.201s-0.73-3.093-0.73-3.093"/>
			<path clip-path="url(#SVGID_6_)" fill="none" stroke="#9B7BB6" stroke-width="0.201" stroke-miterlimit="10" d="M88.541,23.213
				c0,0,0.969-0.132,1.07,1.305c0.1,1.437-1.674,1.889-1.674,1.889"/>
			<path clip-path="url(#SVGID_6_)" fill="none" stroke="#9B7BB6" stroke-width="0.201" stroke-miterlimit="10" d="M93.361,32.862
				c0,0-1.393-0.232-1.955,0.264c-0.562,0.497-0.814,1.26-0.814,1.26"/>
			<path clip-path="url(#SVGID_6_)" fill="none" stroke="#9B7BB6" stroke-width="0.201" stroke-miterlimit="10" d="M93.094,21.604
				c0,0-0.252,1.107-1.006,1.61c-0.756,0.503-1.938,0.628-1.938,0.628"/>
			<path clip-path="url(#SVGID_6_)" fill="none" stroke="#9B7BB6" stroke-width="0.201" stroke-miterlimit="10" d="M105.043,27.652
				c0,0-0.67-0.089-1.598,0.398c-0.926,0.486-0.502,2.189-0.502,2.189"/>
			<path clip-path="url(#SVGID_6_)" fill="none" stroke="#9B7BB6" stroke-width="0.201" stroke-miterlimit="10" d="M96.111,28.897
				c0,0-0.604-0.956-1.785-0.88c-1.184,0.075-1.609,0.981-1.609,0.981"/>
			<path clip-path="url(#SVGID_6_)" fill="none" stroke="#9B7BB6" stroke-width="0.201" stroke-miterlimit="10" d="M91.559,26.231
				c0,0,1.232-0.126,1.836,0.377s0.529,1.509,0.529,1.509"/>
			<path clip-path="url(#SVGID_6_)" fill="none" stroke="#9B7BB6" stroke-width="0.201" stroke-miterlimit="10" d="M91.402,33.026
				c0,0,0.068-1.009-0.838-1.785c-0.904-0.776-2.514-0.724-2.514-0.724"/>
			<path clip-path="url(#SVGID_6_)" fill="none" stroke="#9B7BB6" stroke-width="0.201" stroke-miterlimit="10" d="M101.143,38.682
				c0,0,0.1,1.207-0.881,1.71s-2.584-0.461-2.584-0.461"/>
			<path clip-path="url(#SVGID_6_)" fill="none" stroke="#9B7BB6" stroke-width="0.201" stroke-miterlimit="10" d="M101.066,35.512
				c0,0-1.283,0.101-1.787-0.478c-0.502-0.578-0.25-1.987-0.25-1.987"/>
			<path clip-path="url(#SVGID_6_)" fill="none" stroke="#9B7BB6" stroke-width="0.201" stroke-miterlimit="10" d="M105.016,37.854
				c0,0-0.713-0.908-0.273-2.046c0.438-1.138,1.555-1.363,1.555-1.363"/>
			<path clip-path="url(#SVGID_6_)" fill="none" stroke="#9B7BB6" stroke-width="0.201" stroke-miterlimit="10" d="M95.15,39.557
				c0,0-0.85-1.121-2.592-1.143c-1.742-0.021-2.531,1.063-2.531,1.063"/>
			<path clip-path="url(#SVGID_6_)" fill="none" stroke="#9B7BB6" stroke-width="0.201" stroke-miterlimit="10" d="M99.432,40.694
				c0,0-0.578,1.434-1.912,1.559"/>
			<path clip-path="url(#SVGID_6_)" fill="none" stroke="#9B7BB6" stroke-width="0.201" stroke-miterlimit="10" d="M99.154,34.858
				c0,0-0.83-0.302-1.91,0.88c-1.082,1.182-0.58,2.742-0.58,2.742"/>
			<path clip-path="url(#SVGID_6_)" fill="none" stroke="#9B7BB6" stroke-width="0.201" stroke-miterlimit="10" d="M92.213,23.129
				c0,0,0.504,1.509,1.477,1.777c0.971,0.269,1.844-0.603,1.844-0.603"/>
			<path clip-path="url(#SVGID_6_)" fill="none" stroke="#9B7BB6" stroke-width="0.201" stroke-miterlimit="10" d="M100.027,28.495
				c0,0,0.703,1.476,0.268,2.347c-0.436,0.872-2.08,0.571-2.08,0.571"/>
			<path clip-path="url(#SVGID_6_)" fill="none" stroke="#9B7BB6" stroke-width="0.201" stroke-miterlimit="10" d="M103.85,35.236
				c0,0-1.107-0.503-1.24-1.341c-0.135-0.839,0.568-1.61,0.568-1.61"/>
			<path clip-path="url(#SVGID_6_)" fill="none" stroke="#9B7BB6" stroke-width="0.201" stroke-miterlimit="10" d="M96.59,33.525
				c0,0-0.705,0.956-1.963,0.553c-1.256-0.402-1.105-1.559-1.105-1.559"/>
			<path clip-path="url(#SVGID_6_)" fill="none" stroke="#9B7BB6" stroke-width="0.201" stroke-miterlimit="10" d="M91.76,35.387
				c0,0,1.107,0,1.459,1.056c0.352,1.057-0.453,1.811-0.453,1.811"/>
		</g>
		<path clip-path="url(#SVGID_2_)" fill="#D0D2D3" d="M72.762,30.605c0,1.592-1.289,2.882-2.883,2.882
			c-1.59,0-2.881-1.29-2.881-2.882c0-1.592,1.291-2.882,2.881-2.882C71.473,27.723,72.762,29.013,72.762,30.605"/>
		<polyline clip-path="url(#SVGID_2_)" fill="none" stroke="#D0D2D3" stroke-miterlimit="10" points="64.078,98.82 75.078,79.903 
			74.994,64.903 69.494,52.903 69.713,32.57 		"/>
		<polyline clip-path="url(#SVGID_2_)" fill="none" stroke="#33006F" stroke-miterlimit="10" points="83.328,82.153 85.744,80.32 
			86.828,83.236 89.91,80.57 		"/>
		
			<line clip-path="url(#SVGID_2_)" fill="none" stroke="#A6A8AB" stroke-miterlimit="10" x1="67.41" y1="101.654" x2="114.66" y2="101.654"/>
		<rect x="58.912" y="98.32" clip-path="url(#SVGID_2_)" fill="#D0D2D3" width="11" height="6"/>
		<path clip-path="url(#SVGID_2_)" fill="none" stroke="#BBBDBF" stroke-miterlimit="10" d="M115.41,102.654
			c0,0,7.084,13,9.418,15.25c2.332,2.25,7.082,3,7.082,3"/>
		<path clip-path="url(#SVGID_2_)" fill="none" stroke="#BBBDBF" stroke-miterlimit="10" d="M114.91,103.07
			c0,0,9.5,37.918,13.918,40.168"/>
		<path clip-path="url(#SVGID_2_)" fill="#E0C3B0" d="M134.078,144.57l-27.936-12.916l-8.41-6.455c0,0-1.223-2.811-2.543-4.375
			c-1.32-1.565-17.018-6.97-17.018-6.97l-4.844-1.026c0,0-4.623-1.678-5.207-1.248c-0.629,0.464-1.324,1.957-1.25,2.764
			c0.072,0.807,1.467,2.055,1.467,2.055l2.445,1.075l6.949,1.884l2.566,1.172l-10.639-1.979c0,0-0.734-0.44-1.613-0.88
			c-0.881-0.44-2.055,2.053-1.541,2.787c0.514,0.732,1.688,1.906,1.688,1.906l7.484,2.422l5.355,0.953l-6.162-0.074l-6.824-2.346
			c0,0,0.367-0.295-0.588-0.367c-0.953-0.073-1.172,3.153-0.586,3.74c0.586,0.588,2.494,1.76,2.494,1.76l6.898,3.154l3.521,0.66
			l-4.988-0.365l-4.771-1.468c0,0-1.467-1.026-1.98-0.807s-0.439,2.2-0.439,2.714c0,0.513,2.42,2.273,2.42,2.273l5.65,1.32
			l6.529,1.1l9.389,0.955l2.348,1.394l4.693,3.153l20.566,21.66l11,0.875l6.375-12.75L134.078,144.57z"/>
		<polygon clip-path="url(#SVGID_2_)" fill="#E0C3B0" points="93.527,118.06 89.027,115.322 83.941,111.996 79.346,111.703 
			78.369,115.419 81.986,116.886 89.811,121.385 95.891,121.883 		"/>
		<path clip-path="url(#SVGID_2_)" fill="none" stroke="#BBBDBF" stroke-miterlimit="10" d="M115.828,107.07
			c0,0-2.625,5.875-9.125,4.75"/>
		
			<line clip-path="url(#SVGID_2_)" fill="none" stroke="#BBBDBF" stroke-miterlimit="10" x1="134.703" y1="146.695" x2="100.328" y2="133.695"/>
		
			<line clip-path="url(#SVGID_2_)" fill="none" stroke="#BBBDBF" stroke-miterlimit="10" x1="133.244" y1="158.779" x2="104.576" y2="139.82"/>
		<g clip-path="url(#SVGID_2_)">
			<defs>
				<rect id="SVGID_7_" x="102.133" y="107.987" width="9.58" height="9.041"/>
			</defs>
			<clipPath id="SVGID_8_">
				<use xlink:href="#SVGID_7_"  overflow="visible"/>
			</clipPath>
			<polygon clip-path="url(#SVGID_8_)" fill="#F1F1F2" points="106.842,109.882 108.395,108.162 108.277,110.478 111.713,110.181 
				108.871,111.914 110.592,113.466 108.277,113.348 108.709,117.028 106.842,113.943 105.287,115.664 105.406,113.348 
				102.133,113.537 104.811,111.914 103.09,110.359 105.406,110.478 105.119,107.987 			"/>
		</g>
		<g clip-path="url(#SVGID_2_)">
			<defs>
				<rect id="SVGID_9_" x="95.924" y="129.695" width="9.58" height="9.041"/>
			</defs>
			<clipPath id="SVGID_10_">
				<use xlink:href="#SVGID_9_"  overflow="visible"/>
			</clipPath>
			<polygon clip-path="url(#SVGID_10_)" fill="#E6E7E8" points="100.633,131.591 102.188,129.871 102.068,132.187 105.506,131.89 
				102.664,133.622 104.385,135.174 102.068,135.056 102.5,138.736 100.633,135.652 99.08,137.372 99.197,135.056 95.924,135.246 
				98.604,133.622 96.883,132.068 99.197,132.187 98.91,129.695 			"/>
		</g>
		<g clip-path="url(#SVGID_2_)">
			<defs>
				<rect id="SVGID_11_" x="100.105" y="136.284" width="8.516" height="8.462"/>
			</defs>
			<clipPath id="SVGID_12_">
				<use xlink:href="#SVGID_11_"  overflow="visible"/>
			</clipPath>
			<polygon clip-path="url(#SVGID_12_)" fill="#E6E7E8" points="106.572,139.951 108.621,141.033 106.348,141.488 107.48,144.746 
				105.104,142.417 104.02,144.467 103.566,142.193 100.105,143.517 102.637,140.949 100.586,139.865 102.859,139.412 
				101.873,136.285 104.104,138.482 105.188,136.432 105.643,138.705 107.986,137.814 			"/>
		</g>
		<g clip-path="url(#SVGID_2_)">
			<defs>
				<rect id="SVGID_13_" x="126.34" y="114.003" width="9.582" height="11.691"/>
			</defs>
			<clipPath id="SVGID_14_">
				<use xlink:href="#SVGID_13_"  overflow="visible"/>
			</clipPath>
			<polygon clip-path="url(#SVGID_14_)" fill="#F1F1F2" points="131.049,118.55 132.604,116.829 132.484,119.144 135.922,118.847 
				133.08,120.58 134.801,122.132 132.484,122.015 132.916,125.695 131.049,122.61 129.496,124.33 129.615,122.015 126.34,122.204 
				129.02,120.58 127.299,119.026 129.615,119.144 127.613,114.003 			"/>
		</g>
		<path clip-path="url(#SVGID_2_)" fill="#A6A8AB" d="M117.16,102.07c0,1.381-1.119,2.5-2.5,2.5s-2.5-1.119-2.5-2.5
			s1.119-2.5,2.5-2.5S117.16,100.689,117.16,102.07"/>
		<path clip-path="url(#SVGID_2_)" fill="#BBBDBF" d="M132.793,120.545c0,0.847-0.688,1.534-1.535,1.534
			c-0.846,0-1.533-0.688-1.533-1.534s0.688-1.534,1.533-1.534C132.105,119.011,132.793,119.699,132.793,120.545"/>
		<path clip-path="url(#SVGID_2_)" fill="#BBBDBF" d="M102.248,133.683c0,0.847-0.686,1.533-1.533,1.533
			c-0.846,0-1.533-0.687-1.533-1.533c0-0.848,0.688-1.534,1.533-1.534C101.562,132.149,102.248,132.835,102.248,133.683"/>
		<path clip-path="url(#SVGID_2_)" fill="#BBBDBF" d="M106.125,140.296c0,0.847-0.688,1.533-1.533,1.533
			c-0.848,0-1.533-0.687-1.533-1.533c0-0.848,0.686-1.534,1.533-1.534C105.438,138.762,106.125,139.449,106.125,140.296"/>
		<path clip-path="url(#SVGID_2_)" fill="#BBBDBF" d="M108.539,111.845c0,0.848-0.688,1.534-1.535,1.534
			c-0.846,0-1.533-0.687-1.533-1.534c0-0.847,0.688-1.533,1.533-1.533C107.852,110.312,108.539,110.999,108.539,111.845"/>
	</g>
	<path fill="#86754D" d="M29.422,172.164c0.594-0.09,1.178-0.135,1.754-0.135c0.529,0,0.984,0.045,1.369,0.135
		c0.383,0.09,0.699,0.232,0.945,0.428s0.426,0.442,0.543,0.742c0.117,0.301,0.176,0.657,0.176,1.071c0,0.816-0.24,1.413-0.719,1.791
		c-0.48,0.378-1.236,0.567-2.27,0.567h-0.414v2.016h-1.385V172.164z M31.41,175.656c0.252,0,0.467-0.021,0.645-0.062
		c0.176-0.042,0.318-0.113,0.428-0.212c0.107-0.099,0.186-0.228,0.232-0.387c0.049-0.159,0.072-0.355,0.072-0.59
		c0-0.456-0.1-0.78-0.301-0.972c-0.201-0.192-0.557-0.288-1.066-0.288c-0.096,0-0.203,0.006-0.32,0.018
		c-0.117,0.013-0.215,0.024-0.293,0.036v2.412c0.084,0.012,0.182,0.022,0.293,0.031S31.314,175.656,31.41,175.656z"/>
	<path fill="#86754D" d="M36.773,178.887c-0.316,0-0.658-0.027-1.021-0.081c-0.363-0.055-0.715-0.136-1.057-0.243l0.018-1.152
		c0.139,0.048,0.287,0.092,0.445,0.131c0.16,0.039,0.322,0.073,0.486,0.104c0.166,0.03,0.326,0.054,0.482,0.072
		c0.154,0.018,0.303,0.026,0.439,0.026c0.744,0,1.117-0.267,1.117-0.801c0-0.138-0.027-0.255-0.082-0.351
		c-0.053-0.097-0.133-0.179-0.238-0.248c-0.105-0.068-0.229-0.131-0.373-0.185s-0.307-0.107-0.486-0.162
		c-0.264-0.071-0.502-0.155-0.715-0.252c-0.213-0.096-0.396-0.224-0.549-0.382c-0.154-0.159-0.271-0.353-0.355-0.581
		c-0.084-0.228-0.127-0.51-0.127-0.846c0-0.294,0.053-0.56,0.158-0.797c0.105-0.236,0.258-0.439,0.459-0.607
		s0.445-0.295,0.732-0.383c0.289-0.087,0.613-0.13,0.973-0.13c0.258,0,0.523,0.02,0.797,0.059s0.576,0.101,0.914,0.185l-0.01,1.125
		c-0.264-0.072-0.541-0.131-0.832-0.176s-0.543-0.067-0.752-0.067c-0.33,0-0.584,0.065-0.76,0.198
		c-0.178,0.132-0.266,0.323-0.266,0.575c0,0.139,0.027,0.256,0.084,0.352c0.059,0.096,0.141,0.182,0.248,0.256
		c0.107,0.075,0.24,0.145,0.396,0.207c0.156,0.063,0.332,0.128,0.531,0.194c0.252,0.084,0.48,0.177,0.684,0.278
		c0.203,0.103,0.379,0.229,0.527,0.378c0.146,0.15,0.258,0.329,0.336,0.536s0.117,0.457,0.117,0.751
		c0,0.637-0.201,1.131-0.607,1.485C38.084,178.709,37.512,178.887,36.773,178.887z"/>
	<path fill="#86754D" d="M39.889,172.119h4.23v1.144h-2.846v1.602h2.547v1.134h-2.547v1.639h2.926v1.143h-4.311V172.119z"/>
	<path fill="#86754D" d="M47.664,178.869c-0.486,0-0.896-0.056-1.232-0.166c-0.336-0.111-0.609-0.277-0.818-0.5
		c-0.211-0.222-0.363-0.502-0.455-0.842c-0.094-0.339-0.141-0.739-0.141-1.201v-4.041h1.387v3.996c0,0.564,0.098,0.971,0.293,1.22
		s0.518,0.373,0.967,0.373c0.451,0,0.773-0.123,0.969-0.369c0.193-0.245,0.291-0.653,0.291-1.224v-3.996h1.387v4.041
		c0,0.462-0.047,0.862-0.141,1.201c-0.092,0.34-0.244,0.621-0.453,0.847c-0.211,0.225-0.484,0.392-0.82,0.499
		C48.561,178.815,48.15,178.869,47.664,178.869z"/>
	<path fill="#86754D" d="M53.055,178.896c-0.516,0-1.064-0.036-1.646-0.108v-6.65c0.396-0.03,0.74-0.055,1.035-0.072
		c0.293-0.019,0.559-0.027,0.791-0.027c0.602,0,1.113,0.064,1.535,0.193c0.424,0.13,0.77,0.332,1.039,0.607
		c0.271,0.276,0.469,0.631,0.594,1.062c0.127,0.432,0.189,0.951,0.189,1.557c0,0.612-0.066,1.136-0.197,1.57
		c-0.133,0.436-0.34,0.791-0.621,1.067c-0.283,0.275-0.646,0.479-1.094,0.607S53.691,178.896,53.055,178.896z M53.541,177.771
		c0.301,0,0.555-0.039,0.762-0.117c0.205-0.078,0.373-0.207,0.498-0.387c0.127-0.181,0.219-0.419,0.275-0.716
		s0.086-0.664,0.086-1.103c0-0.432-0.029-0.795-0.086-1.089s-0.152-0.531-0.283-0.711c-0.133-0.18-0.307-0.309-0.523-0.387
		c-0.215-0.078-0.482-0.117-0.801-0.117c-0.229,0-0.459,0.018-0.693,0.054v4.519c0.156,0.018,0.295,0.031,0.414,0.04
		C53.311,177.766,53.428,177.771,53.541,177.771z"/>
	<path fill="#86754D" d="M60.066,178.869c-1.896,0-2.844-1.137-2.844-3.411c0-2.286,0.947-3.429,2.844-3.429
		c1.895,0,2.844,1.143,2.844,3.429C62.91,177.732,61.961,178.869,60.066,178.869z M60.066,177.726c0.258,0,0.477-0.039,0.656-0.117
		s0.328-0.207,0.441-0.387c0.113-0.181,0.197-0.414,0.248-0.702s0.076-0.643,0.076-1.062s-0.025-0.775-0.076-1.066
		s-0.135-0.527-0.248-0.711c-0.113-0.183-0.262-0.314-0.441-0.396s-0.398-0.122-0.656-0.122s-0.477,0.041-0.658,0.122
		c-0.18,0.081-0.326,0.213-0.439,0.396c-0.115,0.184-0.197,0.42-0.248,0.711s-0.076,0.646-0.076,1.066
		c0,0.414,0.025,0.766,0.076,1.054c0.051,0.287,0.133,0.521,0.248,0.701c0.113,0.181,0.26,0.311,0.439,0.392
		C59.59,177.685,59.809,177.726,60.066,177.726z"/>
	<path fill="#86754D" d="M65.502,172.119h1.152l2.465,3.627l0.414,0.738h0.072v-4.365h1.234v6.66h-1.152l-2.457-3.618l-0.424-0.756
		h-0.08v4.374h-1.225V172.119z"/>
	<path fill="#86754D" d="M71.982,172.119h4.23v1.144h-2.846v1.602h2.547v1.134h-2.547v1.639h2.926v1.143h-4.311V172.119z"/>
	<path fill="#86754D" d="M79.541,176.484c-0.078,0.006-0.156,0.011-0.234,0.014c-0.076,0.003-0.158,0.004-0.242,0.004
		c-0.023,0-0.059,0-0.104,0s-0.094,0-0.148,0s-0.105-0.001-0.152-0.004c-0.049-0.003-0.084-0.005-0.109-0.005v2.286h-1.385v-6.615
		c0.281-0.048,0.57-0.082,0.863-0.104c0.295-0.021,0.592-0.031,0.891-0.031c1.062,0,1.834,0.179,2.314,0.535
		c0.479,0.357,0.719,0.932,0.719,1.724c0,0.973-0.396,1.623-1.188,1.953l1.395,2.538h-1.484L79.541,176.484z M79.154,175.431
		c0.258,0,0.475-0.021,0.648-0.063s0.314-0.107,0.424-0.198c0.107-0.09,0.186-0.207,0.232-0.351
		c0.049-0.144,0.072-0.321,0.072-0.531s-0.023-0.389-0.072-0.535c-0.047-0.147-0.125-0.266-0.232-0.355
		c-0.109-0.09-0.25-0.154-0.424-0.193s-0.387-0.059-0.639-0.059c-0.084,0-0.186,0.006-0.303,0.018
		c-0.117,0.013-0.221,0.024-0.311,0.036v2.188c0.084,0.012,0.182,0.022,0.289,0.031S79.053,175.431,79.154,175.431z"/>
	<path fill="#86754D" d="M82.152,172.119h1.402l1.189,4.05l0.297,1.351h0.098l0.316-1.351l1.178-4.05h1.369l-1.971,6.66h-1.891
		L82.152,172.119z"/>
	<path fill="#86754D" d="M91.016,178.869c-1.896,0-2.844-1.137-2.844-3.411c0-2.286,0.947-3.429,2.844-3.429
		s2.844,1.143,2.844,3.429C93.859,177.732,92.912,178.869,91.016,178.869z M91.016,177.726c0.258,0,0.477-0.039,0.658-0.117
		c0.18-0.078,0.326-0.207,0.439-0.387c0.115-0.181,0.197-0.414,0.248-0.702s0.076-0.643,0.076-1.062s-0.025-0.775-0.076-1.066
		s-0.133-0.527-0.248-0.711c-0.113-0.183-0.26-0.314-0.439-0.396c-0.182-0.081-0.4-0.122-0.658-0.122s-0.477,0.041-0.656,0.122
		s-0.328,0.213-0.441,0.396c-0.113,0.184-0.197,0.42-0.248,0.711s-0.076,0.646-0.076,1.066c0,0.414,0.025,0.766,0.076,1.054
		c0.051,0.287,0.135,0.521,0.248,0.701c0.113,0.181,0.262,0.311,0.441,0.392S90.758,177.726,91.016,177.726z"/>
	<path fill="#86754D" d="M97.344,178.869c-0.486,0-0.898-0.056-1.234-0.166c-0.336-0.111-0.607-0.277-0.818-0.5
		c-0.209-0.222-0.361-0.502-0.455-0.842c-0.092-0.339-0.139-0.739-0.139-1.201v-4.041h1.387v3.996c0,0.564,0.098,0.971,0.291,1.22
		c0.195,0.249,0.518,0.373,0.969,0.373c0.449,0,0.771-0.123,0.967-0.369c0.195-0.245,0.293-0.653,0.293-1.224v-3.996h1.387v4.041
		c0,0.462-0.047,0.862-0.141,1.201c-0.094,0.34-0.244,0.621-0.455,0.847c-0.209,0.225-0.482,0.392-0.818,0.499
		C98.24,178.815,97.83,178.869,97.344,178.869z"/>
	<path fill="#86754D" d="M102.887,178.887c-0.318,0-0.658-0.027-1.021-0.081c-0.363-0.055-0.715-0.136-1.057-0.243l0.018-1.152
		c0.139,0.048,0.287,0.092,0.445,0.131s0.32,0.073,0.486,0.104c0.164,0.03,0.326,0.054,0.48,0.072
		c0.156,0.018,0.305,0.026,0.441,0.026c0.744,0,1.117-0.267,1.117-0.801c0-0.138-0.027-0.255-0.082-0.351
		c-0.053-0.097-0.133-0.179-0.238-0.248c-0.105-0.068-0.229-0.131-0.373-0.185s-0.307-0.107-0.486-0.162
		c-0.264-0.071-0.502-0.155-0.715-0.252c-0.213-0.096-0.396-0.224-0.549-0.382c-0.154-0.159-0.271-0.353-0.355-0.581
		c-0.084-0.228-0.127-0.51-0.127-0.846c0-0.294,0.053-0.56,0.158-0.797c0.104-0.236,0.258-0.439,0.459-0.607
		s0.445-0.295,0.732-0.383c0.289-0.087,0.613-0.13,0.973-0.13c0.258,0,0.523,0.02,0.797,0.059c0.271,0.039,0.576,0.101,0.912,0.185
		l-0.008,1.125c-0.264-0.072-0.541-0.131-0.832-0.176s-0.543-0.067-0.752-0.067c-0.33,0-0.584,0.065-0.762,0.198
		c-0.176,0.132-0.264,0.323-0.264,0.575c0,0.139,0.027,0.256,0.084,0.352s0.141,0.182,0.248,0.256
		c0.107,0.075,0.24,0.145,0.396,0.207c0.156,0.063,0.332,0.128,0.531,0.194c0.252,0.084,0.479,0.177,0.684,0.278
		c0.203,0.103,0.379,0.229,0.525,0.378c0.148,0.15,0.26,0.329,0.338,0.536s0.117,0.457,0.117,0.751c0,0.637-0.203,1.131-0.607,1.485
		C104.197,178.709,103.625,178.887,102.887,178.887z"/>
	<path fill="#86754D" d="M109.502,178.887c-0.318,0-0.658-0.027-1.021-0.081c-0.363-0.055-0.715-0.136-1.057-0.243l0.018-1.152
		c0.139,0.048,0.287,0.092,0.445,0.131s0.32,0.073,0.486,0.104c0.164,0.03,0.326,0.054,0.48,0.072
		c0.156,0.018,0.305,0.026,0.441,0.026c0.744,0,1.117-0.267,1.117-0.801c0-0.138-0.027-0.255-0.082-0.351
		c-0.053-0.097-0.133-0.179-0.238-0.248c-0.105-0.068-0.229-0.131-0.373-0.185s-0.307-0.107-0.486-0.162
		c-0.264-0.071-0.502-0.155-0.715-0.252c-0.213-0.096-0.396-0.224-0.549-0.382c-0.154-0.159-0.271-0.353-0.355-0.581
		c-0.084-0.228-0.127-0.51-0.127-0.846c0-0.294,0.053-0.56,0.158-0.797c0.104-0.236,0.258-0.439,0.459-0.607
		s0.445-0.295,0.732-0.383c0.289-0.087,0.613-0.13,0.973-0.13c0.258,0,0.523,0.02,0.797,0.059c0.271,0.039,0.576,0.101,0.912,0.185
		l-0.008,1.125c-0.264-0.072-0.541-0.131-0.832-0.176s-0.543-0.067-0.752-0.067c-0.33,0-0.584,0.065-0.762,0.198
		c-0.176,0.132-0.264,0.323-0.264,0.575c0,0.139,0.027,0.256,0.084,0.352s0.141,0.182,0.248,0.256
		c0.107,0.075,0.24,0.145,0.396,0.207c0.156,0.063,0.332,0.128,0.531,0.194c0.252,0.084,0.479,0.177,0.684,0.278
		c0.203,0.103,0.379,0.229,0.525,0.378c0.148,0.15,0.26,0.329,0.338,0.536s0.117,0.457,0.117,0.751c0,0.637-0.203,1.131-0.607,1.485
		C110.812,178.709,110.24,178.887,109.502,178.887z"/>
	<path fill="#86754D" d="M114.227,176.556l-2.312-4.438h1.539l1.242,2.61l0.18,0.54h0.08l0.189-0.54l1.242-2.61h1.521l-2.295,4.419
		v2.241h-1.387V176.556z"/>
	<path fill="#86754D" d="M120.041,178.887c-0.318,0-0.658-0.027-1.021-0.081c-0.363-0.055-0.715-0.136-1.057-0.243l0.018-1.152
		c0.139,0.048,0.287,0.092,0.445,0.131s0.32,0.073,0.486,0.104c0.164,0.03,0.326,0.054,0.48,0.072
		c0.156,0.018,0.305,0.026,0.441,0.026c0.744,0,1.117-0.267,1.117-0.801c0-0.138-0.027-0.255-0.082-0.351
		c-0.053-0.097-0.133-0.179-0.238-0.248c-0.105-0.068-0.229-0.131-0.373-0.185s-0.307-0.107-0.486-0.162
		c-0.264-0.071-0.502-0.155-0.715-0.252c-0.213-0.096-0.396-0.224-0.549-0.382c-0.154-0.159-0.271-0.353-0.355-0.581
		c-0.084-0.228-0.127-0.51-0.127-0.846c0-0.294,0.053-0.56,0.158-0.797c0.104-0.236,0.258-0.439,0.459-0.607
		s0.445-0.295,0.732-0.383c0.289-0.087,0.613-0.13,0.973-0.13c0.258,0,0.523,0.02,0.797,0.059c0.271,0.039,0.576,0.101,0.912,0.185
		l-0.008,1.125c-0.264-0.072-0.541-0.131-0.832-0.176s-0.543-0.067-0.752-0.067c-0.33,0-0.584,0.065-0.762,0.198
		c-0.176,0.132-0.264,0.323-0.264,0.575c0,0.139,0.027,0.256,0.084,0.352s0.141,0.182,0.248,0.256
		c0.107,0.075,0.24,0.145,0.396,0.207c0.156,0.063,0.332,0.128,0.531,0.194c0.252,0.084,0.479,0.177,0.684,0.278
		c0.203,0.103,0.379,0.229,0.525,0.378c0.148,0.15,0.26,0.329,0.338,0.536s0.117,0.457,0.117,0.751c0,0.637-0.203,1.131-0.607,1.485
		C121.352,178.709,120.779,178.887,120.041,178.887z"/>
	<path fill="#86754D" d="M124.406,173.28h-1.674v-1.161h4.76v1.161h-1.691v5.499h-1.395V173.28z"/>
	<path fill="#86754D" d="M128.213,172.119h4.23v1.144H129.6v1.602h2.547v1.134H129.6v1.639h2.924v1.143h-4.311V172.119z"/>
	<path fill="#86754D" d="M133.396,172.119h1.943l1.225,3.483l0.289,1.17h0.062l0.287-1.17l1.225-3.483h1.953v6.66h-1.287v-4.968
		h-0.055l-0.404,1.332l-1.17,3.32h-1.17l-1.17-3.32l-0.414-1.332h-0.055v4.968h-1.26V172.119z"/>
</g>
</svg>
