<?xml version="1.0" encoding="utf-8"?>
<!-- Generator: Adobe Illustrator 16.0.0, SVG Export Plug-In . SVG Version: 6.00 Build 0)  -->
<!DOCTYPE svg PUBLIC "-//W3C//DTD SVG 1.1//EN" "http://www.w3.org/Graphics/SVG/1.1/DTD/svg11.dtd">
<svg version="1.1" id="Layer_1" xmlns="http://www.w3.org/2000/svg" xmlns:xlink="http://www.w3.org/1999/xlink" x="0px" y="0px"
	 width="351px" height="351px" viewBox="0 0 351 351" enable-background="new 0 0 351 351" xml:space="preserve">
<g>
	<defs>
		<rect id="SVGID_1_" x="-64" y="-103.872" width="484.532" height="592.872"/>
	</defs>
	<clipPath id="SVGID_2_">
		<use xlink:href="#SVGID_1_"  overflow="visible"/>
	</clipPath>
	
		<circle clip-path="url(#SVGID_2_)" fill="none" stroke="#231F20" stroke-width="4" stroke-miterlimit="10" cx="175.892" cy="176.4" r="171"/>
	
		<circle clip-path="url(#SVGID_2_)" fill="none" stroke="#231F20" stroke-width="4" stroke-miterlimit="10" cx="175.892" cy="176.4" r="159.667"/>
	
		<rect x="41.913" y="133.263" transform="matrix(0.7072 0.707 -0.707 0.7072 133.1269 18.76)" clip-path="url(#SVGID_2_)" fill="#231F20" width="3.999" height="73.71"/>
	
		<rect x="64.244" y="150.947" transform="matrix(0.6983 0.7158 -0.7158 0.6983 133.1804 -10.1093)" clip-path="url(#SVGID_2_)" fill="#231F20" width="28.679" height="4"/>
	
		<rect x="305.397" y="133.263" transform="matrix(-0.7072 0.707 -0.707 -0.7072 645.0659 73.1055)" clip-path="url(#SVGID_2_)" fill="#231F20" width="3.999" height="73.71"/>
	
		<rect x="258.385" y="150.947" transform="matrix(-0.6983 0.7158 -0.7158 -0.6983 572.6545 64.5498)" clip-path="url(#SVGID_2_)" fill="#231F20" width="28.68" height="4"/>
	
		<rect x="280.589" y="126.353" transform="matrix(-0.7071 0.7071 -0.7071 -0.7071 614.4956 119.0662)" clip-path="url(#SVGID_2_)" fill="#231F20" width="4" height="120.892"/>
	<polygon clip-path="url(#SVGID_2_)" fill="#231F20" points="208.368,178.892 242.682,144.079 239.818,141.286 205.506,176.099 	"/>
	
		<rect x="67.263" y="126.354" transform="matrix(0.7071 0.7071 -0.7071 0.7071 152.3736 5.7363)" clip-path="url(#SVGID_2_)" fill="#231F20" width="4" height="120.891"/>
	<polygon clip-path="url(#SVGID_2_)" fill="#231F20" points="134.517,169.927 109.168,144.079 112.033,141.286 137.379,167.134 	"/>
	<polygon clip-path="url(#SVGID_2_)" fill="#231F20" points="55.661,158.854 35.658,139.334 38.435,136.457 58.438,155.976 	"/>
	
		<rect x="25.947" y="134.656" transform="matrix(0.7071 0.7071 -0.7071 0.7071 114.1039 24.1113)" clip-path="url(#SVGID_2_)" fill="#231F20" width="4" height="30.27"/>
	<polygon clip-path="url(#SVGID_2_)" fill="#231F20" points="296.202,158.65 316.001,139.335 313.224,136.456 293.426,155.771 	"/>
	
		<rect x="321.711" y="134.656" transform="matrix(-0.7071 0.7071 -0.7071 -0.7071 658.5275 26.8115)" clip-path="url(#SVGID_2_)" fill="#231F20" width="4" height="30.27"/>
	
		<line clip-path="url(#SVGID_2_)" fill="none" stroke="#231F20" stroke-width="2" stroke-miterlimit="10" x1="42.347" y1="211.433" x2="61.473" y2="211.433"/>
	
		<line clip-path="url(#SVGID_2_)" fill="none" stroke="#231F20" stroke-width="2" stroke-miterlimit="10" x1="56.221" y1="198.558" x2="75.347" y2="198.558"/>
	
		<line clip-path="url(#SVGID_2_)" fill="none" stroke="#231F20" stroke-width="2" stroke-miterlimit="10" x1="70.903" y1="185.683" x2="90.029" y2="185.683"/>
	
		<line clip-path="url(#SVGID_2_)" fill="none" stroke="#231F20" stroke-width="2" stroke-miterlimit="10" x1="82.153" y1="172.808" x2="101.279" y2="172.808"/>
	
		<line clip-path="url(#SVGID_2_)" fill="none" stroke="#231F20" stroke-width="2" stroke-miterlimit="10" x1="31.653" y1="224.308" x2="50.779" y2="224.308"/>
	
		<line clip-path="url(#SVGID_2_)" fill="none" stroke="#231F20" stroke-width="2" stroke-miterlimit="10" x1="308.29" y1="211.433" x2="289.164" y2="211.433"/>
	
		<line clip-path="url(#SVGID_2_)" fill="none" stroke="#231F20" stroke-width="2" stroke-miterlimit="10" x1="294.415" y1="198.558" x2="275.289" y2="198.558"/>
	
		<line clip-path="url(#SVGID_2_)" fill="none" stroke="#231F20" stroke-width="2" stroke-miterlimit="10" x1="279.734" y1="185.683" x2="260.607" y2="185.683"/>
	
		<line clip-path="url(#SVGID_2_)" fill="none" stroke="#231F20" stroke-width="2" stroke-miterlimit="10" x1="268.484" y1="172.808" x2="249.357" y2="172.808"/>
	
		<line clip-path="url(#SVGID_2_)" fill="none" stroke="#231F20" stroke-width="2" stroke-miterlimit="10" x1="318.984" y1="224.308" x2="299.857" y2="224.308"/>
	<polyline clip-path="url(#SVGID_2_)" fill="none" stroke="#231F20" stroke-width="2" stroke-miterlimit="10" points="
		266.157,159.224 271.703,165.224 277.251,159.224 282.796,165.224 288.345,159.224 293.899,165.224 299.452,159.224 	"/>
	<polyline clip-path="url(#SVGID_2_)" fill="none" stroke="#231F20" stroke-width="2" stroke-miterlimit="10" points="
		52.137,159.224 57.683,165.224 63.23,159.224 68.776,165.224 74.325,159.224 79.879,165.224 85.432,159.224 	"/>
	<polygon clip-path="url(#SVGID_2_)" fill="#231F20" points="109.885,260.938 120.913,256.085 134.623,262.119 135.253,262.119 
		148.964,256.085 162.675,262.119 163.07,262.119 176.781,256.085 190.491,262.119 190.908,262.119 204.619,256.085 218.33,262.119 
		218.633,262.119 232.344,256.085 246.055,262.119 247.086,262.119 243.998,253.648 243.063,251.081 237.31,235.297 
		234.776,234.477 236.774,233.83 232.266,221.461 227.804,233.698 230.209,234.477 227.159,235.465 224.942,241.547 
		217.923,222.292 214.162,221.075 217.128,220.114 210.434,201.748 203.81,219.917 207.382,221.075 202.853,222.542 
		194.437,245.631 192.965,249.666 190.989,255.084 190.815,254.604 189.985,252.328 184.88,238.326 182.633,237.597 
		184.406,237.023 180.406,226.051 176.448,236.906 178.583,237.597 175.877,238.474 170.952,251.98 170.413,250.501 
		164.356,233.887 161.691,233.023 163.794,232.343 159.046,219.322 154.351,232.202 156.884,233.023 153.673,234.064 
		148.945,247.032 147.389,242.765 137.301,215.09 132.861,213.652 136.363,212.517 128.456,190.83 120.635,212.285 124.853,213.652 
		119.505,215.384 110.93,238.906 109.492,234.961 107.246,234.233 109.018,233.659 105.018,222.688 101.061,233.542 
		103.195,234.233 100.489,235.109 95.46,248.904 94.582,251.315 93.532,254.195 94.048,253.968 	"/>
	<path clip-path="url(#SVGID_2_)" fill="none" stroke="#231F20" stroke-width="2" stroke-miterlimit="10" d="M225.996,240.12
		c0,0,36.442,0.598,49.287,6.871s12.845,10.454,8.961,17.624c-3.883,7.169-7.169,13.74,10.755,15.234"/>
	<path clip-path="url(#SVGID_2_)" fill="none" stroke="#231F20" stroke-width="2" stroke-miterlimit="10" d="M235.788,245.978
		c0,0,13.336,0,19.652,2.808s11.23,5.264,3.158,12.984c-8.071,7.721-23.513,13.335-27.724,23.162
		c-4.212,9.826,11.229,24.565,29.127,25.969"/>
	<path clip-path="url(#SVGID_2_)" fill="none" stroke="#231F20" stroke-width="2" stroke-miterlimit="10" d="M252.06,244.543
		c0,0,10,1.75,15.25,3.5"/>
	<path clip-path="url(#SVGID_2_)" fill="none" stroke="#231F20" stroke-width="2" stroke-miterlimit="10" d="M281.123,258.168
		c0.688-5-9.562-7.875-9.562-7.875"/>
	<path clip-path="url(#SVGID_2_)" fill="none" stroke="#231F20" stroke-width="2" stroke-miterlimit="10" d="M279.77,263.043
		c0,0-2.037,2-2.124,4.625"/>
	<path clip-path="url(#SVGID_2_)" fill="none" stroke="#231F20" stroke-width="2" stroke-miterlimit="10" d="M275.521,274.168
		c0,0-1.212,12.25,12.913,11"/>
	<path clip-path="url(#SVGID_2_)" fill="none" stroke="#231F20" stroke-width="2" stroke-miterlimit="10" d="M266.441,263.043
		c4.008-2.875,0-10.625,0-10.625s7.743,1.633,6.993,7.566"/>
	<path clip-path="url(#SVGID_2_)" fill="none" stroke="#231F20" stroke-width="2" stroke-miterlimit="10" d="M261.476,267.668
		c0,0-8.041,3.5-12.541,8.75"/>
	<path clip-path="url(#SVGID_2_)" fill="none" stroke="#231F20" stroke-width="2" stroke-miterlimit="10" d="M241.935,282.918
		c0,0-4.75,8,0,12"/>
	<path clip-path="url(#SVGID_2_)" fill="none" stroke="#231F20" stroke-width="2" stroke-miterlimit="10" d="M247.406,300.668
		c0,0,4.652,6,13.091,7"/>
	<path clip-path="url(#SVGID_2_)" fill="none" stroke="#231F20" stroke-width="2" stroke-miterlimit="10" d="M269.964,267.668
		c0,0-6.015,7.84-3.522,12.045"/>
	<path clip-path="url(#SVGID_2_)" fill="none" stroke="#231F20" stroke-width="2" stroke-miterlimit="10" d="M269.964,285.258
		c0,0,1.598,9.91,8.16,9.66"/>
	<path clip-path="url(#SVGID_2_)" fill="none" stroke="#231F20" stroke-width="2" stroke-miterlimit="10" d="M252.06,292.668
		c-5.625-6.5,4.819-16.25,4.819-16.25s1.154,16.265,9.563,19.75"/>
	<path clip-path="url(#SVGID_2_)" fill="none" stroke="#231F20" stroke-width="2" stroke-miterlimit="10" d="M120.913,238.162
		c0,0-36.443,0.598-49.288,6.871c-12.844,6.273-12.844,10.454-8.961,17.624c3.883,7.169,7.169,13.74-10.754,15.234"/>
	<path clip-path="url(#SVGID_2_)" fill="none" stroke="#231F20" stroke-width="2" stroke-miterlimit="10" d="M111.12,244.02
		c0,0-13.336,0-19.652,2.808c-6.317,2.808-11.231,5.264-3.159,12.984s23.513,13.335,27.724,23.162
		c4.212,9.826-11.229,24.565-29.127,25.969"/>
	<path clip-path="url(#SVGID_2_)" fill="none" stroke="#231F20" stroke-width="2" stroke-miterlimit="10" d="M94.848,242.585
		c0,0-10,1.75-15.25,3.5"/>
	<path clip-path="url(#SVGID_2_)" fill="none" stroke="#231F20" stroke-width="2" stroke-miterlimit="10" d="M65.785,256.21
		c-0.688-5,9.563-7.875,9.563-7.875"/>
	<path clip-path="url(#SVGID_2_)" fill="none" stroke="#231F20" stroke-width="2" stroke-miterlimit="10" d="M67.138,261.085
		c0,0,2.038,2,2.124,4.625"/>
	<path clip-path="url(#SVGID_2_)" fill="none" stroke="#231F20" stroke-width="2" stroke-miterlimit="10" d="M71.387,272.21
		c0,0,1.211,12.25-12.914,11"/>
	<path clip-path="url(#SVGID_2_)" fill="none" stroke="#231F20" stroke-width="2" stroke-miterlimit="10" d="M80.466,261.085
		c-4.007-2.875,0-10.625,0-10.625s-7.743,1.633-6.993,7.566"/>
	<path clip-path="url(#SVGID_2_)" fill="none" stroke="#231F20" stroke-width="2" stroke-miterlimit="10" d="M85.432,265.71
		c0,0,8.041,3.5,12.541,8.75"/>
	<path clip-path="url(#SVGID_2_)" fill="none" stroke="#231F20" stroke-width="2" stroke-miterlimit="10" d="M104.973,280.96
		c0,0,4.75,8,0,12"/>
	<path clip-path="url(#SVGID_2_)" fill="none" stroke="#231F20" stroke-width="2" stroke-miterlimit="10" d="M99.501,298.71
		c0,0-4.652,6-13.09,7"/>
	<path clip-path="url(#SVGID_2_)" fill="none" stroke="#231F20" stroke-width="2" stroke-miterlimit="10" d="M76.944,265.71
		c0,0,6.015,7.84,3.522,12.045"/>
	<path clip-path="url(#SVGID_2_)" fill="none" stroke="#231F20" stroke-width="2" stroke-miterlimit="10" d="M76.944,283.3
		c0,0-1.598,9.91-8.16,9.66"/>
	<path clip-path="url(#SVGID_2_)" fill="none" stroke="#231F20" stroke-width="2" stroke-miterlimit="10" d="M94.848,290.71
		c5.625-6.5-4.819-16.25-4.819-16.25s-1.154,16.265-9.563,19.75"/>
	<polyline clip-path="url(#SVGID_2_)" fill="none" stroke="#231F20" stroke-miterlimit="10" points="145.273,268.559 
		155.651,272.559 166.03,268.559 176.406,272.559 186.782,268.559 197.161,272.559 207.544,268.559 217.922,272.559 
		228.309,268.559 238.695,272.559 	"/>
	<polyline clip-path="url(#SVGID_2_)" fill="none" stroke="#231F20" stroke-miterlimit="10" points="121.649,281.796 
		132.81,285.796 143.975,281.796 155.136,285.796 166.304,281.796 177.473,285.796 	"/>
	<polyline clip-path="url(#SVGID_2_)" fill="none" stroke="#231F20" stroke-miterlimit="10" points="168.202,291.965 
		173.919,293.965 179.639,291.965 185.36,293.965 	"/>
	<polyline clip-path="url(#SVGID_2_)" fill="none" stroke="#231F20" stroke-miterlimit="10" points="108.154,309.9 113.871,311.9 
		119.591,309.9 125.312,311.9 	"/>
	<polyline clip-path="url(#SVGID_2_)" fill="none" stroke="#231F20" stroke-miterlimit="10" points="212.755,303.168 
		218.473,305.168 224.192,303.168 229.913,305.168 	"/>
	<polygon clip-path="url(#SVGID_2_)" points="251.222,133.557 258.577,133.557 258.577,126.851 264.375,126.851 264.375,133.557 
		271.73,133.557 271.73,139.355 264.375,139.355 264.375,146.061 258.577,146.061 258.577,139.355 251.222,139.355 	"/>
	<polygon clip-path="url(#SVGID_2_)" points="81.448,133.557 88.803,133.557 88.803,126.851 94.601,126.851 94.601,133.557 
		101.956,133.557 101.956,139.355 94.601,139.355 94.601,146.061 88.803,146.061 88.803,139.355 81.448,139.355 	"/>
	
		<line clip-path="url(#SVGID_2_)" fill="none" stroke="#231F20" stroke-width="3" stroke-miterlimit="10" x1="176.086" y1="61.285" x2="176.086" y2="70.518"/>
	
		<line clip-path="url(#SVGID_2_)" fill="none" stroke="#231F20" stroke-width="3" stroke-miterlimit="10" x1="176.086" y1="46.49" x2="176.086" y2="55.723"/>
	
		<line clip-path="url(#SVGID_2_)" fill="none" stroke="#231F20" stroke-width="3" stroke-miterlimit="10" x1="176.086" y1="32.951" x2="176.086" y2="42.184"/>
	
		<line clip-path="url(#SVGID_2_)" fill="none" stroke="#231F20" stroke-width="3" stroke-miterlimit="10" x1="207.238" y1="66.876" x2="198.9" y2="75.213"/>
	
		<line clip-path="url(#SVGID_2_)" fill="none" stroke="#231F20" stroke-width="3" stroke-miterlimit="10" x1="218.972" y1="55.144" x2="210.635" y2="63.48"/>
	
		<line clip-path="url(#SVGID_2_)" fill="none" stroke="#231F20" stroke-width="3" stroke-miterlimit="10" x1="230.294" y1="43.821" x2="221.957" y2="52.158"/>
	
		<line clip-path="url(#SVGID_2_)" fill="none" stroke="#231F20" stroke-width="3" stroke-miterlimit="10" x1="218.188" y1="84.587" x2="207.66" y2="89.896"/>
	
		<line clip-path="url(#SVGID_2_)" fill="none" stroke="#231F20" stroke-width="3" stroke-miterlimit="10" x1="233.003" y1="77.115" x2="222.476" y2="82.424"/>
	
		<line clip-path="url(#SVGID_2_)" fill="none" stroke="#231F20" stroke-width="3" stroke-miterlimit="10" x1="247.301" y1="69.905" x2="236.772" y2="75.215"/>
	
		<line clip-path="url(#SVGID_2_)" fill="none" stroke="#231F20" stroke-width="3" stroke-miterlimit="10" x1="133.596" y1="84.587" x2="144.124" y2="89.896"/>
	
		<line clip-path="url(#SVGID_2_)" fill="none" stroke="#231F20" stroke-width="3" stroke-miterlimit="10" x1="118.781" y1="77.115" x2="129.309" y2="82.424"/>
	
		<line clip-path="url(#SVGID_2_)" fill="none" stroke="#231F20" stroke-width="3" stroke-miterlimit="10" x1="104.484" y1="69.905" x2="115.012" y2="75.215"/>
	
		<line clip-path="url(#SVGID_2_)" fill="none" stroke="#231F20" stroke-width="3" stroke-miterlimit="10" x1="147.129" y1="66.876" x2="155.467" y2="75.213"/>
	
		<line clip-path="url(#SVGID_2_)" fill="none" stroke="#231F20" stroke-width="3" stroke-miterlimit="10" x1="135.396" y1="55.144" x2="143.733" y2="63.48"/>
	
		<line clip-path="url(#SVGID_2_)" fill="none" stroke="#231F20" stroke-width="3" stroke-miterlimit="10" x1="124.074" y1="43.821" x2="132.411" y2="52.158"/>
	<path clip-path="url(#SVGID_2_)" fill="none" stroke="#000000" stroke-width="3" stroke-miterlimit="10" d="M162.125,115.7
		c-3.007-3.684-4.688-8.468-4.369-13.589c0.674-10.786,9.962-18.982,20.746-18.309c10.786,0.672,18.983,9.961,18.31,20.746
		c-0.325,5.225-2.674,9.842-6.234,13.139"/>
	<path clip-path="url(#SVGID_2_)" fill="#231F20" d="M136.333,185.815l6.469,1.46l11.676,6.17l14.322,3.936h14.698l7.484-1.65
		l13.622-1.195l6.917-1.953l4.633-1.322l8.95,0.544l8.952,0.516l9.568,0.063l1.836-0.443l-8.321-2.733l-14.299-2.551l-6.015-0.987
		l-5.57-0.994l-6.974-1.743l-5.351-7.25l-1.201-2.305l0.08-4.295l-10.343-13.616l-0.115-3.393l1.688-4.05l2.597-2.083l0.433-1.573
		l-3.491-0.236l-0.073-0.59l4.781-3.213l-0.209-1.505l-4.637,0.345l-0.12-0.554l5.019-3.198l0.579-1.9l-9.26,1.91l-1.388-1.079
		l5.717-5.5l-0.609-1.663l-12.545,5.139l-2.225-0.199l9.879-8.798l0.367-2.568l-11.276,6.353l-6.574,3.653l-1.282-0.97l8.106-9.809
		l0.016-2.864l-21.663,18.832l-0.62-0.465l3.528-5.432l0.079-3.775l-15.333,24.691l-3.736,7.474l12.314,13.833l0.069,2.401
		l-8.763-1.392l-5.654,1.664l-8.987,1.063l-2.923,0.712l-3.539,1.884l4.078-0.012c0,0,7.379,1.049,7.547,1.146
		c0.167,0.096,1.259,2.011,1.259,2.011l-6.187,1.284l-4.915,2.561l6.27-0.387l4.46,0.284L136.333,185.815z"/>
</g>
</svg>
