<?xml version="1.0" encoding="utf-8"?>
<!-- Generator: Adobe Illustrator 16.0.0, SVG Export Plug-In . SVG Version: 6.00 Build 0)  -->
<!DOCTYPE svg PUBLIC "-//W3C//DTD SVG 1.1//EN" "http://www.w3.org/Graphics/SVG/1.1/DTD/svg11.dtd">
<svg version="1.1" id="Layer_1" xmlns="http://www.w3.org/2000/svg" xmlns:xlink="http://www.w3.org/1999/xlink" x="0px" y="0px"
	 width="350px" height="350.695px" viewBox="0 0 350 350.695" enable-background="new 0 0 350 350.695" xml:space="preserve">
<g>
	<defs>
		<rect id="SVGID_1_" x="-70" y="-62" width="484.532" height="781.79"/>
	</defs>
	<clipPath id="SVGID_2_">
		<use xlink:href="#SVGID_1_"  overflow="visible"/>
	</clipPath>
	
		<circle clip-path="url(#SVGID_2_)" fill="none" stroke="#231F20" stroke-width="4" stroke-miterlimit="10" cx="174.572" cy="175.02" r="171"/>
	
		<circle clip-path="url(#SVGID_2_)" fill="none" stroke="#231F20" stroke-width="4" stroke-miterlimit="10" cx="174.572" cy="175.02" r="159.668"/>
	
		<line clip-path="url(#SVGID_2_)" fill="none" stroke="#231F20" stroke-width="3" stroke-miterlimit="10" x1="174.627" y1="51.961" x2="174.627" y2="61.194"/>
	
		<line clip-path="url(#SVGID_2_)" fill="none" stroke="#231F20" stroke-width="3" stroke-miterlimit="10" x1="174.627" y1="37.167" x2="174.627" y2="46.399"/>
	
		<line clip-path="url(#SVGID_2_)" fill="none" stroke="#231F20" stroke-width="3" stroke-miterlimit="10" x1="174.627" y1="23.627" x2="174.627" y2="32.86"/>
	
		<line clip-path="url(#SVGID_2_)" fill="none" stroke="#231F20" stroke-width="3" stroke-miterlimit="10" x1="174.627" y1="204" x2="174.627" y2="213.233"/>
	
		<line clip-path="url(#SVGID_2_)" fill="none" stroke="#231F20" stroke-width="3" stroke-miterlimit="10" x1="205.779" y1="63.208" x2="197.441" y2="71.543"/>
	
		<line clip-path="url(#SVGID_2_)" fill="none" stroke="#231F20" stroke-width="3" stroke-miterlimit="10" x1="217.513" y1="51.473" x2="209.176" y2="59.811"/>
	
		<line clip-path="url(#SVGID_2_)" fill="none" stroke="#231F20" stroke-width="3" stroke-miterlimit="10" x1="228.835" y1="40.151" x2="220.498" y2="48.489"/>
	
		<line clip-path="url(#SVGID_2_)" fill="none" stroke="#231F20" stroke-width="3" stroke-miterlimit="10" x1="216.729" y1="80.917" x2="206.201" y2="86.227"/>
	
		<line clip-path="url(#SVGID_2_)" fill="none" stroke="#231F20" stroke-width="3" stroke-miterlimit="10" x1="231.544" y1="73.446" x2="221.017" y2="78.754"/>
	
		<line clip-path="url(#SVGID_2_)" fill="none" stroke="#231F20" stroke-width="3" stroke-miterlimit="10" x1="245.842" y1="66.235" x2="235.313" y2="71.545"/>
	
		<line clip-path="url(#SVGID_2_)" fill="none" stroke="#231F20" stroke-width="3" stroke-miterlimit="10" x1="132.137" y1="80.917" x2="142.665" y2="86.227"/>
	
		<line clip-path="url(#SVGID_2_)" fill="none" stroke="#231F20" stroke-width="3" stroke-miterlimit="10" x1="117.322" y1="73.446" x2="127.85" y2="78.754"/>
	
		<line clip-path="url(#SVGID_2_)" fill="none" stroke="#231F20" stroke-width="3" stroke-miterlimit="10" x1="103.025" y1="66.235" x2="113.553" y2="71.545"/>
	
		<line clip-path="url(#SVGID_2_)" fill="none" stroke="#231F20" stroke-width="3" stroke-miterlimit="10" x1="145.67" y1="63.208" x2="154.008" y2="71.543"/>
	
		<line clip-path="url(#SVGID_2_)" fill="none" stroke="#231F20" stroke-width="3" stroke-miterlimit="10" x1="133.937" y1="51.473" x2="142.274" y2="59.811"/>
	
		<line clip-path="url(#SVGID_2_)" fill="none" stroke="#231F20" stroke-width="3" stroke-miterlimit="10" x1="122.615" y1="40.151" x2="130.952" y2="48.489"/>
	<polygon clip-path="url(#SVGID_2_)" fill="#231F20" points="260.31,178.625 264.333,177.493 175.576,88.735 172.997,91.313 	"/>
	<polygon clip-path="url(#SVGID_2_)" fill="#231F20" points="88.866,178.506 176.872,90.043 174.262,87.497 86.256,175.959 	"/>
	
		<line clip-path="url(#SVGID_2_)" fill="none" stroke="#231F20" stroke-width="2" stroke-miterlimit="10" x1="112.363" y1="154.016" x2="129.8" y2="154.016"/>
	
		<line clip-path="url(#SVGID_2_)" fill="none" stroke="#231F20" stroke-width="2" stroke-miterlimit="10" x1="122.845" y1="142.278" x2="140.282" y2="142.278"/>
	
		<line clip-path="url(#SVGID_2_)" fill="none" stroke="#231F20" stroke-width="2" stroke-miterlimit="10" x1="134.67" y1="130.542" x2="152.107" y2="130.542"/>
	
		<line clip-path="url(#SVGID_2_)" fill="none" stroke="#231F20" stroke-width="2" stroke-miterlimit="10" x1="236.957" y1="154.016" x2="219.52" y2="154.016"/>
	
		<line clip-path="url(#SVGID_2_)" fill="none" stroke="#231F20" stroke-width="2" stroke-miterlimit="10" x1="224.964" y1="142.278" x2="207.527" y2="142.278"/>
	
		<line clip-path="url(#SVGID_2_)" fill="none" stroke="#231F20" stroke-width="2" stroke-miterlimit="10" x1="213.138" y1="130.542" x2="195.701" y2="130.542"/>
	<polyline clip-path="url(#SVGID_2_)" fill="none" stroke="#231F20" stroke-width="2" stroke-miterlimit="10" points="
		148.463,114.426 157.18,120.426 165.899,114.426 174.621,120.426 183.34,114.426 192.066,120.426 200.791,114.426 	"/>
	
		<rect x="252.859" y="77.267" transform="matrix(-0.7072 0.707 -0.707 -0.7072 530.6895 51.495)" clip-path="url(#SVGID_2_)" fill="#231F20" width="3.647" height="116.722"/>
	
		<rect x="192.492" y="100.64" transform="matrix(-0.6983 0.7158 -0.7158 -0.6983 422.459 26.8784)" clip-path="url(#SVGID_2_)" fill="#231F20" width="26.146" height="3.647"/>
	<polygon clip-path="url(#SVGID_2_)" fill="#231F20" points="316.055,164.534 320.247,163.569 268.353,111.674 265.774,114.252 	"/>
	
		<rect x="246.139" y="119.243" transform="matrix(-0.6984 0.7158 -0.7158 -0.6984 526.8888 20.081)" clip-path="url(#SVGID_2_)" fill="#231F20" width="26.147" height="3.648"/>
	
		<rect x="315.702" y="109.282" transform="matrix(-0.7071 0.7071 -0.7071 -0.7071 632.8373 -5.3437)" clip-path="url(#SVGID_2_)" fill="#231F20" width="3.646" height="38.222"/>
	
		<rect x="283.088" y="121.161" transform="matrix(-0.6983 0.7158 -0.7158 -0.6983 591.0094 -3.1174)" clip-path="url(#SVGID_2_)" fill="#231F20" width="26.146" height="3.646"/>
	
		<rect x="97.256" y="78.22" transform="matrix(0.7072 0.707 -0.707 0.7072 123.2641 -31.0141)" clip-path="url(#SVGID_2_)" fill="#231F20" width="3.647" height="110.212"/>
	
		<rect x="132.822" y="100.64" transform="matrix(0.6983 0.7158 -0.7158 0.6983 117.3503 -73.5177)" clip-path="url(#SVGID_2_)" fill="#231F20" width="26.147" height="3.648"/>
	
		<rect x="58.816" y="103.122" transform="matrix(0.7072 0.707 -0.707 0.7072 114.4108 -2.8437)" clip-path="url(#SVGID_2_)" fill="#231F20" width="3.647" height="67.198"/>
	
		<rect x="79.174" y="119.243" transform="matrix(0.6983 0.7158 -0.7158 0.6983 114.4826 -29.5065)" clip-path="url(#SVGID_2_)" fill="#231F20" width="26.147" height="3.648"/>
	
		<rect x="30.735" y="108.713" transform="matrix(0.707 0.7072 -0.7072 0.707 101.3192 14.9992)" clip-path="url(#SVGID_2_)" fill="#231F20" width="3.648" height="42.115"/>
	
		<rect x="42.226" y="121.161" transform="matrix(0.6983 0.7158 -0.7158 0.6983 104.7107 -2.4813)" clip-path="url(#SVGID_2_)" fill="#231F20" width="26.146" height="3.646"/>
	<path clip-path="url(#SVGID_2_)" fill="none" stroke="#010101" stroke-width="3" stroke-miterlimit="10" d="M160.212,102.364
		c-3.231-3.49-5.206-8.16-5.206-13.291c0-10.807,8.76-19.566,19.565-19.566c10.806,0,19.566,8.76,19.566,19.566
		c0,5.234-2.057,9.99-5.404,13.5"/>
	<polygon clip-path="url(#SVGID_2_)" fill="#231F20" points="132.334,203.262 135.82,204.741 139.308,203.262 136.659,203.262 	"/>
	<polygon clip-path="url(#SVGID_2_)" fill="#231F20" points="263.052,206.026 264.327,205.563 261.961,205.563 	"/>
	<polygon clip-path="url(#SVGID_2_)" fill="#231F20" points="136.659,203.262 139.307,203.262 146.318,200.288 153.326,203.262 
		154.384,203.262 152.538,197.831 151.978,196.186 148.538,186.067 147.024,185.542 148.218,185.127 145.522,177.198 
		142.855,185.043 144.293,185.542 142.469,186.176 141.144,190.075 136.947,177.729 134.698,176.95 136.472,176.334 
		132.468,164.561 128.507,176.208 130.643,176.95 127.935,177.889 122.903,192.692 122.023,195.278 120.951,198.432 
		132.334,203.262 	"/>
	<polygon clip-path="url(#SVGID_2_)" fill="#231F20" points="80.728,203.262 82.891,203.262 94.711,198.247 106.531,203.262 
		106.651,203.262 108.694,203.262 120.515,198.247 120.697,198.325 120.241,196.985 117.189,188.008 115.845,187.542 
		116.905,187.174 114.513,180.139 112.146,187.098 113.422,187.542 111.805,188.104 108.861,196.762 108.538,195.815 
		104.916,185.163 103.323,184.61 104.58,184.174 101.741,175.825 98.934,184.083 100.448,184.61 98.528,185.278 95.702,193.59 
		94.771,190.856 88.738,173.114 86.084,172.192 88.177,171.463 83.45,157.559 78.773,171.315 81.295,172.192 78.098,173.301 
		72.97,188.381 72.111,185.852 70.767,185.387 71.827,185.018 69.436,177.983 67.069,184.942 68.345,185.387 66.727,185.948 
		63.72,194.79 63.195,196.336 61.573,201.106 62.17,201.106 68.908,198.247 	"/>
	<polygon clip-path="url(#SVGID_2_)" fill="#231F20" points="221.062,201.418 221.945,199.194 222.509,197.772 222.55,197.667 
		217.583,183.069 215.537,182.366 217.154,181.809 216.615,180.225 213.497,171.151 209.874,181.694 211.828,182.366 
		209.351,183.217 205.379,194.774 204.713,192.836 203.672,192.479 204.494,192.196 202.641,186.805 200.808,192.139 
		201.796,192.479 200.542,192.909 198.213,199.686 197.997,200.319 210.825,205.764 	"/>
	<polygon clip-path="url(#SVGID_2_)" fill="#231F20" points="223.727,200.288 236.157,205.563 237.1,205.563 249.53,200.288 
		261.961,205.563 264.328,205.563 275.39,201.549 285.333,205.235 283.833,201.374 283.817,201.415 283.705,201.131 283.172,199.79 
		279.896,191.536 278.454,191.106 279.591,190.766 277.024,184.297 274.485,190.698 275.854,191.106 274.118,191.622 
		270.958,199.586 270.611,198.713 266.724,188.917 265.014,188.409 266.363,188.006 263.316,180.331 260.303,187.924 
		261.929,188.409 259.868,189.022 256.834,196.668 255.835,194.153 249.361,177.834 246.512,176.987 248.759,176.317 
		243.685,163.53 238.665,176.18 241.372,176.987 237.94,178.008 232.438,191.877 231.514,189.551 230.072,189.122 231.21,188.784 
		228.643,182.315 226.103,188.713 227.473,189.122 225.736,189.639 222.55,197.667 223.478,200.393 	"/>
	<polygon clip-path="url(#SVGID_2_)" fill="#231F20" points="221.945,199.194 221.062,201.418 223.479,200.393 222.551,197.667 
		222.508,197.772 	"/>
	<polygon clip-path="url(#SVGID_2_)" fill="#FFFFFF" points="120.842,198.752 120.951,198.432 120.697,198.325 120.738,198.444 	"/>
	<path clip-path="url(#SVGID_2_)" fill="none" stroke="#231F20" stroke-width="2" stroke-miterlimit="10" d="M64.323,193.981
		c0,0-18.06-2.305-25.488,3.166c-7.428,5.471-7.18,10.195-5.199,16.414c1.98,6.217,19.065,14.424-5.991,28.873"/>
	<path clip-path="url(#SVGID_2_)" fill="none" stroke="#231F20" stroke-width="2" stroke-miterlimit="10" d="M62.323,200.063
		c0,0-11.027-2.031-12.513,4.104c-1.486,6.135,22.533,8.871,22.037,28.766c-0.495,19.896-20.716,33.156-29.671,33.488"/>
	<path clip-path="url(#SVGID_2_)" fill="none" stroke="#231F20" stroke-width="2" stroke-miterlimit="10" d="M57.015,196.54
		c0,0-5.884-0.496-9.021,2.156"/>
	<path clip-path="url(#SVGID_2_)" fill="none" stroke="#231F20" stroke-width="2" stroke-miterlimit="10" d="M44.505,203.172
		c0,0-0.803,6.68,3.489,9.309"/>
	<path clip-path="url(#SVGID_2_)" fill="none" stroke="#231F20" stroke-width="2" stroke-miterlimit="10" d="M52.504,216.104
		c0,0,7.515,2.984,10.169,9.617"/>
	<path clip-path="url(#SVGID_2_)" fill="none" stroke="#231F20" stroke-width="2" stroke-miterlimit="10" d="M62.845,233.172
		c0,0,2.695,9.459-5.83,17.418"/>
	<path clip-path="url(#SVGID_2_)" fill="none" stroke="#231F20" stroke-width="2" stroke-miterlimit="10" d="M50.739,254.85
		c0,0-5.238,5.486-11.997,6.582"/>
	<path clip-path="url(#SVGID_2_)" fill="none" stroke="#231F20" stroke-width="2" stroke-miterlimit="10" d="M52.51,231.69
		c1.049-7.959-6.291-13.838-6.291-13.838s2.885,10.834-1.714,15.32"/>
	<path clip-path="url(#SVGID_2_)" fill="none" stroke="#231F20" stroke-width="2" stroke-miterlimit="10" d="M56.001,238.653
		c0,0-2.147,7.957-9.782,11.938"/>
	<path clip-path="url(#SVGID_2_)" fill="none" stroke="#231F20" stroke-width="2" stroke-miterlimit="10" d="M43.268,241.881
		c0,0-8.635,10.254-10.277,8.709"/>
	<path clip-path="url(#SVGID_2_)" fill="none" stroke="#231F20" stroke-width="2" stroke-miterlimit="10" d="M38.742,201.514
		c0,0-3.145,7.01,0,10.967"/>
	<path clip-path="url(#SVGID_2_)" fill="none" stroke="#231F20" stroke-width="2" stroke-miterlimit="10" d="M280.805,195.625
		c0,0,17.877-2.232,25.377,3.268s7.25,10.25,5.25,16.5s-19.25,14.5,6.048,29.025"/>
	<path clip-path="url(#SVGID_2_)" fill="none" stroke="#231F20" stroke-width="2" stroke-miterlimit="10" d="M284.76,204.157
		c0,0,8.906-2.406,10.342,1.793c2.052,6.006-22.75,8.918-22.25,28.918s20.917,33.328,29.958,33.664"/>
	<path clip-path="url(#SVGID_2_)" fill="none" stroke="#231F20" stroke-width="2" stroke-miterlimit="10" d="M287.826,198.284
		c0,0,5.941-0.5,9.108,2.166"/>
	<path clip-path="url(#SVGID_2_)" fill="none" stroke="#231F20" stroke-width="2" stroke-miterlimit="10" d="M300.457,204.95
		c0,0,0.812,6.715-3.522,9.357"/>
	<path clip-path="url(#SVGID_2_)" fill="none" stroke="#231F20" stroke-width="2" stroke-miterlimit="10" d="M292.38,217.95
		c0,0-7.587,3-10.267,9.668"/>
	<path clip-path="url(#SVGID_2_)" fill="none" stroke="#231F20" stroke-width="2" stroke-miterlimit="10" d="M281.94,235.108
		c0,0-2.721,9.51,5.886,17.51"/>
	<path clip-path="url(#SVGID_2_)" fill="none" stroke="#231F20" stroke-width="2" stroke-miterlimit="10" d="M294.163,256.901
		c0,0,5.289,5.514,12.113,6.615"/>
	<path clip-path="url(#SVGID_2_)" fill="none" stroke="#231F20" stroke-width="2" stroke-miterlimit="10" d="M292.375,233.618
		c-1.059-8,6.351-13.91,6.351-13.91s-2.911,10.891,1.732,15.4"/>
	<path clip-path="url(#SVGID_2_)" fill="none" stroke="#231F20" stroke-width="2" stroke-miterlimit="10" d="M288.85,240.618
		c0,0,2.168,8,9.876,12"/>
	<path clip-path="url(#SVGID_2_)" fill="none" stroke="#231F20" stroke-width="2" stroke-miterlimit="10" d="M301.706,243.862
		c0,0,8.719,10.309,10.376,8.756"/>
	<path clip-path="url(#SVGID_2_)" fill="none" stroke="#231F20" stroke-width="2" stroke-miterlimit="10" d="M306.276,203.284
		c0,0,3.175,7.047,0,11.023"/>
	<path clip-path="url(#SVGID_2_)" fill="none" stroke="#231F20" stroke-width="2" stroke-miterlimit="10" d="M246.512,172.02
		c7.31,0,7.31,6,14.62,6c7.308,0,7.308-6,14.616-6c7.311,0,7.311,6,14.622,6c7.308,0,7.308-6,14.615-6c7.314,0,7.314,6,14.627,6
		c7.314,0,7.314-6,14.627-6"/>
	
		<line clip-path="url(#SVGID_2_)" fill="none" stroke="#231F20" stroke-width="2" stroke-miterlimit="10" x1="266.522" y1="145.823" x2="249.086" y2="145.823"/>
	
		<line clip-path="url(#SVGID_2_)" fill="none" stroke="#231F20" stroke-width="2" stroke-miterlimit="10" x1="254.255" y1="134.084" x2="236.818" y2="134.084"/>
	
		<line clip-path="url(#SVGID_2_)" fill="none" stroke="#231F20" stroke-width="2" stroke-miterlimit="10" x1="242.263" y1="122.346" x2="224.826" y2="122.346"/>
	
		<line clip-path="url(#SVGID_2_)" fill="none" stroke="#231F20" stroke-width="2" stroke-miterlimit="10" x1="230.437" y1="110.608" x2="213" y2="110.608"/>
	
		<line clip-path="url(#SVGID_2_)" fill="none" stroke="#231F20" stroke-width="2" stroke-miterlimit="10" x1="276.309" y1="157.559" x2="258.872" y2="157.559"/>
	
		<line clip-path="url(#SVGID_2_)" fill="none" stroke="#231F20" stroke-width="2" stroke-miterlimit="10" x1="327.879" y1="139.293" x2="317.941" y2="139.293"/>
	
		<line clip-path="url(#SVGID_2_)" fill="none" stroke="#231F20" stroke-width="2" stroke-miterlimit="10" x1="320.285" y1="131.7" x2="310.349" y2="131.7"/>
	
		<line clip-path="url(#SVGID_2_)" fill="none" stroke="#231F20" stroke-width="2" stroke-miterlimit="10" x1="313.817" y1="124.106" x2="303.881" y2="124.106"/>
	
		<line clip-path="url(#SVGID_2_)" fill="none" stroke="#231F20" stroke-width="2" stroke-miterlimit="10" x1="32.635" y1="139.477" x2="22.698" y2="139.477"/>
	
		<line clip-path="url(#SVGID_2_)" fill="none" stroke="#231F20" stroke-width="2" stroke-miterlimit="10" x1="40.56" y1="131.883" x2="30.623" y2="131.883"/>
	
		<line clip-path="url(#SVGID_2_)" fill="none" stroke="#231F20" stroke-width="2" stroke-miterlimit="10" x1="46.886" y1="124.29" x2="36.949" y2="124.29"/>
	
		<line clip-path="url(#SVGID_2_)" fill="none" stroke="#231F20" stroke-width="2" stroke-miterlimit="10" x1="84.616" y1="145.823" x2="102.053" y2="145.823"/>
	
		<line clip-path="url(#SVGID_2_)" fill="none" stroke="#231F20" stroke-width="2" stroke-miterlimit="10" x1="96.884" y1="134.084" x2="114.321" y2="134.084"/>
	
		<line clip-path="url(#SVGID_2_)" fill="none" stroke="#231F20" stroke-width="2" stroke-miterlimit="10" x1="108.876" y1="122.346" x2="126.313" y2="122.346"/>
	
		<line clip-path="url(#SVGID_2_)" fill="none" stroke="#231F20" stroke-width="2" stroke-miterlimit="10" x1="120.703" y1="110.608" x2="138.14" y2="110.608"/>
	
		<line clip-path="url(#SVGID_2_)" fill="none" stroke="#231F20" stroke-width="2" stroke-miterlimit="10" x1="74.831" y1="157.559" x2="92.268" y2="157.559"/>
	<polyline clip-path="url(#SVGID_2_)" fill="none" stroke="#231F20" stroke-width="2" stroke-miterlimit="10" points="
		66.62,129.883 74.716,133.883 82.808,129.883 90.907,133.883 99.005,129.883 	"/>
	<polyline clip-path="url(#SVGID_2_)" fill="none" stroke="#231F20" stroke-width="2" stroke-miterlimit="10" points="
		250.779,129.883 258.875,133.883 266.967,129.883 275.065,133.883 283.164,129.883 	"/>
	<polygon clip-path="url(#SVGID_2_)" fill="#010101" points="236.818,100.249 244.174,100.249 244.174,93.542 249.972,93.542 
		249.972,100.249 257.327,100.249 257.327,106.045 249.972,106.045 249.972,112.752 244.174,112.752 244.174,106.045 
		236.818,106.045 	"/>
	<polygon clip-path="url(#SVGID_2_)" fill="#010101" points="91.8,100.249 99.155,100.249 99.155,93.542 104.953,93.542 
		104.953,100.249 112.308,100.249 112.308,106.045 104.953,106.045 104.953,112.752 99.155,112.752 99.155,106.045 91.8,106.045 	
		"/>
</g>
<g>
	<defs>
		<rect id="SVGID_3_" x="15.269" y="164.131" width="69.136" height="18.766"/>
	</defs>
	<clipPath id="SVGID_4_">
		<use xlink:href="#SVGID_3_"  overflow="visible"/>
	</clipPath>
	<path clip-path="url(#SVGID_4_)" fill="none" stroke="#231F20" stroke-width="2" stroke-miterlimit="10" d="M1,172.02
		c7.31,0,7.31,6,14.62,6c7.308,0,7.308-6,14.616-6c7.311,0,7.311,6,14.621,6c7.309,0,7.309-6,14.618-6c7.313,0,7.313,6,14.626,6
		c7.314,0,7.314-6,14.627-6"/>
</g>
<g>
	<defs>
		<rect id="SVGID_5_" x="15.269" y="150.387" width="53.638" height="18.764"/>
	</defs>
	<clipPath id="SVGID_6_">
		<use xlink:href="#SVGID_5_"  overflow="visible"/>
	</clipPath>
	<path clip-path="url(#SVGID_6_)" fill="none" stroke="#231F20" stroke-width="2" stroke-miterlimit="10" d="M1,158.274
		c7.31,0,7.31,6,14.62,6c7.308,0,7.308-6,14.616-6c7.311,0,7.311,6,14.621,6c7.309,0,7.309-6,14.617-6c7.314,0,7.314,6,14.627,6
		c7.314,0,7.314-6,14.627-6"/>
</g>
<g>
	<defs>
		<rect id="SVGID_7_" x="279.146" y="150.387" width="53.12" height="18.764"/>
	</defs>
	<clipPath id="SVGID_8_">
		<use xlink:href="#SVGID_7_"  overflow="visible"/>
	</clipPath>
	<path clip-path="url(#SVGID_8_)" fill="none" stroke="#231F20" stroke-width="2" stroke-miterlimit="10" d="M274.88,158.274
		c7.31,0,7.31,6,14.62,6c7.308,0,7.308-6,14.616-6c7.311,0,7.311,6,14.622,6c7.308,0,7.308-6,14.615-6c7.314,0,7.314,6,14.627,6
		c7.314,0,7.314-6,14.627-6"/>
</g>
<g>
	<defs>
		<rect id="SVGID_9_" x="-70" y="-62" width="484.532" height="781.79"/>
	</defs>
	<clipPath id="SVGID_10_">
		<use xlink:href="#SVGID_9_"  overflow="visible"/>
	</clipPath>
	<polyline clip-path="url(#SVGID_10_)" fill="none" stroke="#231F20" stroke-width="3" stroke-miterlimit="10" points="
		58.824,270.481 70.427,274.481 82.033,270.481 93.637,274.481 105.247,270.481 116.858,274.481 	"/>
	<polyline clip-path="url(#SVGID_10_)" fill="none" stroke="#231F20" stroke-width="3" stroke-miterlimit="10" points="
		67.867,207.629 79.47,211.629 91.076,207.629 102.68,211.629 114.29,207.629 125.9,211.629 	"/>
	<polyline clip-path="url(#SVGID_10_)" fill="none" stroke="#231F20" stroke-width="3" stroke-miterlimit="10" points="
		238.573,275.836 250.177,279.836 261.782,275.836 273.387,279.836 284.997,275.836 296.607,279.836 	"/>
	<polyline clip-path="url(#SVGID_10_)" fill="none" stroke="#231F20" stroke-width="3" stroke-miterlimit="10" points="
		178.51,305.502 190.112,309.502 201.719,305.502 213.322,309.502 224.933,305.502 236.544,309.502 	"/>
	<polyline clip-path="url(#SVGID_10_)" fill="none" stroke="#231F20" stroke-width="3" stroke-miterlimit="10" points="
		201.42,238.618 213.022,242.618 224.629,238.618 236.232,242.618 247.843,238.618 259.454,242.618 	"/>
	<polyline clip-path="url(#SVGID_10_)" fill="none" stroke="#231F20" stroke-width="3" stroke-miterlimit="10" points="
		79.272,293.731 90.875,297.731 102.481,293.731 114.084,297.731 125.695,293.731 137.306,297.731 	"/>
	<polyline clip-path="url(#SVGID_10_)" fill="none" stroke="#231F20" stroke-width="3" stroke-miterlimit="10" points="
		199.817,211.042 211.421,215.042 223.026,211.042 234.63,215.042 246.241,211.042 257.852,215.042 	"/>
	<polygon clip-path="url(#SVGID_10_)" fill="#231F20" points="148,210.1 140.873,210.313 132.706,212.821 127.062,216.426 
		123.684,221.333 122.646,226.94 122.646,233.692 124.423,240.481 125.965,250.448 126.146,261.135 123.271,267.145 
		122.082,276.713 122.421,285.157 129.606,285.499 129.94,283.502 126.146,279.268 135.846,254.25 137.554,251.196 141,250.168 
		141.713,253.081 140.192,258.674 137.049,263.706 136.032,268.854 139.301,275.975 142.222,284.303 148.878,284.303 
		147.901,280.958 145.721,278.581 144.169,274.561 144.926,268.897 149.069,262.323 151.571,258.723 153.146,255.286 
		160.827,255.286 163.178,262.575 164.96,271.704 165.16,278.432 164.752,282.426 172.103,282.827 172.103,280.584 169.657,278.36 
		170.277,272.518 170.517,266.336 168.95,259.532 168.708,255.28 172.103,252.739 177.97,254.057 179.092,258.286 180.648,266.241 
		181.541,272.6 180.797,279.012 182.036,281.741 185.899,282.897 188.649,282.596 186.746,277.231 185.891,275.887 187.01,274.819 
		186.409,271.159 186.084,262.782 186.72,253.043 187.865,243.803 190.526,239.922 192.371,233.604 192.12,224.549 191.576,215.729 
		191.679,210.467 189.253,202.965 186.336,197.297 185.125,194.227 185.568,191.319 188.138,189.231 189.331,186.157 
		193.991,181.079 194.769,179.131 185.528,183.305 188.236,179.752 194.024,174.963 199.302,170.547 201.508,164.485 
		204.561,156.362 204.814,149.42 200.938,147.241 194.102,142.178 191.721,140.583 192.739,143.317 192.062,144.508 
		196.475,149.397 198.953,156.725 197.763,162.375 194.992,166.975 193.428,169.772 193.014,161.438 191.552,159.358 
		191.531,166.667 188.99,174.075 183.776,178.952 184.308,171.311 184.105,167.549 182.186,173.065 179.992,180.803 
		177.256,183.995 172.41,183.756 168.671,180.178 165.966,174.083 163.729,168.405 164.583,178.135 161.467,175.704 
		158.847,170.274 156.987,164.053 156.493,165.959 156.217,170.114 153.38,164.625 151.858,158.622 153.101,153.778 156.9,147.752 
		156.001,146.661 156.64,142.967 156.217,141.436 152.39,147.424 148.438,151.793 147.604,161.04 148.312,167.348 154.279,174.651 
		161.349,179.903 164.752,183.766 155.876,179.842 157.337,183.444 160.805,188.475 164.545,191.424 166.325,194.1 165.786,199.991 
		164.316,204.729 162.734,208.567 153.917,210.307 	"/>
	<polygon clip-path="url(#SVGID_10_)" fill="#AEAEAE" points="376.026,580.018 375.272,577.825 376.02,580.02 	"/>
</g>
</svg>
