<?xml version="1.0" encoding="utf-8"?>
<!-- Generator: Adobe Illustrator 16.0.0, SVG Export Plug-In . SVG Version: 6.00 Build 0)  -->
<!DOCTYPE svg PUBLIC "-//W3C//DTD SVG 1.1//EN" "http://www.w3.org/Graphics/SVG/1.1/DTD/svg11.dtd">
<svg version="1.1" id="Layer_1" xmlns="http://www.w3.org/2000/svg" xmlns:xlink="http://www.w3.org/1999/xlink" x="0px" y="0px"
	 width="350px" height="350.695px" viewBox="0 0 350 350.695" enable-background="new 0 0 350 350.695" xml:space="preserve">
<circle fill="none" stroke="#231F20" stroke-width="4" stroke-miterlimit="10" cx="175.723" cy="175.51" r="171"/>
<circle fill="none" stroke="#231F20" stroke-width="4" stroke-miterlimit="10" cx="175.723" cy="175.511" r="159.668"/>
<line fill="none" stroke="#231F20" stroke-width="3" stroke-miterlimit="10" x1="175.777" y1="52.453" x2="175.777" y2="61.686"/>
<line fill="none" stroke="#231F20" stroke-width="3" stroke-miterlimit="10" x1="175.777" y1="37.658" x2="175.777" y2="46.891"/>
<line fill="none" stroke="#231F20" stroke-width="3" stroke-miterlimit="10" x1="175.777" y1="24.119" x2="175.777" y2="33.352"/>
<path fill="none" stroke="#231F20" stroke-width="3" stroke-miterlimit="10" d="M175.777,213.725"/>
<line fill="none" stroke="#231F20" stroke-width="3" stroke-miterlimit="10" x1="206.93" y1="63.699" x2="198.592" y2="72.036"/>
<line fill="none" stroke="#231F20" stroke-width="3" stroke-miterlimit="10" x1="218.663" y1="51.966" x2="210.326" y2="60.302"/>
<line fill="none" stroke="#231F20" stroke-width="3" stroke-miterlimit="10" x1="229.984" y1="40.644" x2="221.648" y2="48.98"/>
<line fill="none" stroke="#231F20" stroke-width="3" stroke-miterlimit="10" x1="217.879" y1="81.409" x2="207.352" y2="86.718"/>
<line fill="none" stroke="#231F20" stroke-width="3" stroke-miterlimit="10" x1="232.693" y1="73.938" x2="222.167" y2="79.247"/>
<line fill="none" stroke="#231F20" stroke-width="3" stroke-miterlimit="10" x1="246.992" y1="66.727" x2="236.464" y2="72.037"/>
<line fill="none" stroke="#231F20" stroke-width="3" stroke-miterlimit="10" x1="133.288" y1="81.409" x2="143.815" y2="86.718"/>
<line fill="none" stroke="#231F20" stroke-width="3" stroke-miterlimit="10" x1="118.472" y1="73.938" x2="129" y2="79.247"/>
<line fill="none" stroke="#231F20" stroke-width="3" stroke-miterlimit="10" x1="104.175" y1="66.727" x2="114.703" y2="72.037"/>
<line fill="none" stroke="#231F20" stroke-width="3" stroke-miterlimit="10" x1="146.82" y1="63.699" x2="155.158" y2="72.036"/>
<line fill="none" stroke="#231F20" stroke-width="3" stroke-miterlimit="10" x1="135.087" y1="51.966" x2="143.424" y2="60.302"/>
<line fill="none" stroke="#231F20" stroke-width="3" stroke-miterlimit="10" x1="123.765" y1="40.644" x2="132.102" y2="48.98"/>
<polygon fill="#231F20" points="261.46,179.118 265.482,177.984 176.727,89.227 174.147,91.805 "/>
<polygon fill="#231F20" points="90.016,178.998 178.021,90.536 175.412,87.99 87.406,176.451 "/>
<line fill="none" stroke="#231F20" stroke-width="2" stroke-miterlimit="10" x1="113.513" y1="154.508" x2="130.95" y2="154.508"/>
<line fill="none" stroke="#231F20" stroke-width="2" stroke-miterlimit="10" x1="123.996" y1="142.771" x2="141.433" y2="142.771"/>
<line fill="none" stroke="#231F20" stroke-width="2" stroke-miterlimit="10" x1="135.821" y1="131.033" x2="153.258" y2="131.033"/>
<line fill="none" stroke="#231F20" stroke-width="2" stroke-miterlimit="10" x1="238.107" y1="154.508" x2="220.67" y2="154.508"/>
<line fill="none" stroke="#231F20" stroke-width="2" stroke-miterlimit="10" x1="226.113" y1="142.771" x2="208.678" y2="142.771"/>
<line fill="none" stroke="#231F20" stroke-width="2" stroke-miterlimit="10" x1="214.288" y1="131.033" x2="196.852" y2="131.033"/>
<polyline fill="none" stroke="#231F20" stroke-width="2" stroke-miterlimit="10" points="149.614,114.917 158.331,120.917 
	167.05,114.917 175.771,120.917 184.49,114.917 193.217,120.917 201.941,114.917 "/>
<rect x="254.014" y="77.773" transform="matrix(-0.707 0.7072 -0.7072 -0.707 532.9855 51.4372)" fill="#231F20" width="3.647" height="116.72"/>
<rect x="193.629" y="101.147" transform="matrix(-0.6984 0.7157 -0.7157 -0.6984 424.7618 26.9476)" fill="#231F20" width="26.148" height="3.646"/>
<polygon fill="#231F20" points="317.205,165.026 321.397,164.061 269.503,112.167 266.925,114.745 "/>
<rect x="247.285" y="119.72" transform="matrix(-0.6984 0.7157 -0.7157 -0.6984 529.1818 20.0926)" fill="#231F20" width="26.145" height="3.648"/>
<rect x="316.848" y="109.762" transform="matrix(-0.707 0.7072 -0.7072 -0.707 635.1057 -5.3971)" fill="#231F20" width="3.647" height="38.22"/>
<rect x="284.237" y="121.651" transform="matrix(-0.6984 0.7158 -0.7158 -0.6984 593.3173 -3.0984)" fill="#231F20" width="26.15" height="3.648"/>
<rect x="98.398" y="78.712" transform="matrix(0.7071 0.7071 -0.7071 0.7071 123.9768 -31.6733)" fill="#231F20" width="3.647" height="110.21"/>
<rect x="133.984" y="101.13" transform="matrix(0.6984 0.7157 -0.7157 0.6984 118.0382 -74.199)" fill="#231F20" width="26.146" height="3.648"/>
<rect x="59.96" y="103.613" transform="matrix(0.7071 0.7071 -0.7071 0.7071 115.1188 -3.4991)" fill="#231F20" width="3.646" height="67.197"/>
<rect x="80.335" y="119.737" transform="matrix(0.6984 0.7157 -0.7157 0.6984 115.1742 -30.1898)" fill="#231F20" width="26.146" height="3.648"/>
<rect x="31.892" y="109.209" transform="matrix(0.707 0.7072 -0.7072 0.707 101.9974 14.3201)" fill="#231F20" width="3.647" height="42.114"/>
<rect x="43.366" y="121.658" transform="matrix(0.6984 0.7157 -0.7157 0.6984 105.3997 -3.1522)" fill="#231F20" width="26.147" height="3.648"/>
<path fill="none" stroke="#010101" stroke-width="3" stroke-miterlimit="10" d="M161.363,102.855
	c-3.231-3.489-5.206-8.159-5.206-13.291c0-10.807,8.76-19.565,19.565-19.565c10.805,0,19.564,8.76,19.564,19.565
	c0,5.233-2.059,9.99-5.404,13.501"/>
<polygon fill="#231F20" points="224.877,200.135 237.779,205.815 250.68,200.135 264.134,206.055 264.282,206.055 276.54,201.444 
	286.273,205.184 284.984,201.865 284.967,201.907 284.855,201.624 284.322,200.282 281.046,192.027 279.604,191.596 
	280.741,191.258 278.175,184.789 275.636,191.189 277.005,191.596 275.27,192.113 272.107,200.078 271.762,199.205 267.874,189.409 
	266.164,188.9 267.514,188.499 264.467,180.822 261.453,188.417 263.079,188.9 261.02,189.51 257.984,197.16 256.986,194.644 
	250.512,178.326 247.662,177.478 249.909,176.809 244.835,164.022 239.814,176.672 242.521,177.478 239.09,178.5 233.587,192.369 
	232.664,190.043 231.223,189.614 232.361,189.275 229.793,182.805 227.253,189.206 228.623,189.614 226.887,190.131 223.659,198.26 
	223.096,199.685 222.502,201.181 "/>
<path fill="#231F20" d="M247.938,286.704l-0.076-0.098l-10.256-8.127l-0.076-0.039l-18.199-6.153l-6.947-6.478l-5.177-7.865
	l-0.126-0.101l-12.885-5.01l-0.076-0.017l-23.037-1.758l-15.703-3.455l-7.474-4.021l-11.995-9.935l10.318-2.74l0.036-0.489
	l-13.06-5.597l-6.261-5.139l-0.134-0.058l-3.917-0.479l-9.168-10.406l-0.332-0.046l-1.867,1.202l-0.117,0.203l-0.309,5.844
	l1.725,4.375l-1.615-0.262l-4.821-2.594l-0.38,0.229l0.033,4.368l0.055,0.16l4.455,5.688l2.687,7.925l2.839,14.771l3.967,6.649
	l1.388,5.558l0.043,0.09l16.169,22.158l4.416,11.836l2.908,7.864l-0.107,10.804l-3.622,2.344l-0.093,0.1l-1.331,2.611l0.231,0.377
	h11.243l0.255-0.293l-1.027-7.518l0.7-8.162l-1.001-8.312l-0.283-8.036l2.372-5.512l13.171,2.373l0.098-0.002l18.874-4.053
	l8.606,11.605l8.783,5.955l5.087,9.477l-1.569,7.279l-3.59,2.328l-0.098,0.113l-1.034,2.385l0.237,0.361h9.613l0.257-0.258v-4.99
	l2.438-8.092v-0.15l-1.022-3.264l-0.587-6.922l-3.51-12.255l3.306-4.596l7.991,7.688l9.811,4.694l14.719,2.019l9.371,4.877
	l0.357-0.334L247.938,286.704z M128.849,226.09l-3.196-0.57l-1.41-1.994l2.505,0.645L128.849,226.09z"/>
<path fill="none" stroke="#231F20" stroke-width="2" stroke-miterlimit="10" d="M65.39,195.431c0,0-15.248-1.935-22.748,3.565
	s-7.25,10.25-5.25,16.5s19.25,14.5-6.047,29.025"/>
<path fill="none" stroke="#231F20" stroke-width="2" stroke-miterlimit="10" d="M66.884,202.222c0,0-11.661-2.334-13.161,3.833
	s22.75,8.917,22.25,28.917S55.056,268.3,46.015,268.635"/>
<path fill="none" stroke="#231F20" stroke-width="2" stroke-miterlimit="10" d="M60.998,198.389c0,0-5.941-0.5-9.108,2.167"/>
<path fill="none" stroke="#231F20" stroke-width="2" stroke-miterlimit="10" d="M48.367,205.055c0,0-0.811,6.715,3.523,9.355"/>
<path fill="none" stroke="#231F20" stroke-width="2" stroke-miterlimit="10" d="M56.444,218.055c0,0,7.587,3,10.267,9.667"/>
<path fill="none" stroke="#231F20" stroke-width="2" stroke-miterlimit="10" d="M66.884,235.212c0,0,2.721,9.512-5.886,17.512"/>
<path fill="none" stroke="#231F20" stroke-width="2" stroke-miterlimit="10" d="M54.661,257.005c0,0-5.289,5.517-12.113,6.615"/>
<path fill="none" stroke="#231F20" stroke-width="2" stroke-miterlimit="10" d="M56.449,233.722c1.059-8-6.351-13.909-6.351-13.909
	s2.912,10.891-1.732,15.397"/>
<path fill="none" stroke="#231F20" stroke-width="2" stroke-miterlimit="10" d="M59.975,240.722c0,0-2.168,8-9.876,12"/>
<path fill="none" stroke="#231F20" stroke-width="2" stroke-miterlimit="10" d="M47.118,243.967c0,0-8.719,10.311-10.376,8.757"/>
<path fill="none" stroke="#231F20" stroke-width="2" stroke-miterlimit="10" d="M42.548,203.389c0,0-3.175,7.047,0,11.021"/>
<path fill="none" stroke="#231F20" stroke-width="2" stroke-miterlimit="10" d="M284.585,195.818c0,0,15.248-1.935,22.748,3.565
	s7.25,10.25,5.25,16.5s-19.25,14.5,6.047,29.025"/>
<path fill="none" stroke="#231F20" stroke-width="2" stroke-miterlimit="10" d="M283.091,202.609c0,0,11.661-2.334,13.161,3.833
	s-22.75,8.917-22.25,28.917s20.917,33.329,29.958,33.664"/>
<path fill="none" stroke="#231F20" stroke-width="2" stroke-miterlimit="10" d="M288.977,198.776c0,0,5.941-0.5,9.108,2.166"/>
<path fill="none" stroke="#231F20" stroke-width="2" stroke-miterlimit="10" d="M301.607,205.442c0,0,0.812,6.715-3.522,9.355"/>
<path fill="none" stroke="#231F20" stroke-width="2" stroke-miterlimit="10" d="M293.529,218.442c0,0-7.586,3-10.266,9.667"/>
<path fill="none" stroke="#231F20" stroke-width="2" stroke-miterlimit="10" d="M283.091,235.599c0,0-2.721,9.511,5.886,17.511"/>
<path fill="none" stroke="#231F20" stroke-width="2" stroke-miterlimit="10" d="M295.312,257.392c0,0,5.289,5.515,12.112,6.613"/>
<path fill="none" stroke="#231F20" stroke-width="2" stroke-miterlimit="10" d="M293.525,234.109
	c-1.061-8,6.351-13.909,6.351-13.909s-2.911,10.891,1.731,15.399"/>
<path fill="none" stroke="#231F20" stroke-width="2" stroke-miterlimit="10" d="M290,241.109c0,0,2.168,8,9.876,12"/>
<path fill="none" stroke="#231F20" stroke-width="2" stroke-miterlimit="10" d="M302.855,244.354c0,0,8.72,10.309,10.377,8.755"/>
<path fill="none" stroke="#231F20" stroke-width="2" stroke-miterlimit="10" d="M307.427,203.776c0,0,3.175,7.047,0,11.021"/>
<path fill="none" stroke="#231F20" stroke-width="2" stroke-miterlimit="10" d="M247.662,172.51c7.311,0,7.311,6,14.62,6
	c7.308,0,7.308-6,14.616-6c7.311,0,7.311,6,14.621,6c7.309,0,7.309-6,14.614-6c7.314,0,7.314,6,14.627,6c7.314,0,7.314-6,14.627-6"
	/>
<line fill="none" stroke="#231F20" stroke-width="2" stroke-miterlimit="10" x1="267.673" y1="146.314" x2="250.236" y2="146.314"/>
<line fill="none" stroke="#231F20" stroke-width="2" stroke-miterlimit="10" x1="255.404" y1="134.576" x2="237.969" y2="134.576"/>
<line fill="none" stroke="#231F20" stroke-width="2" stroke-miterlimit="10" x1="243.413" y1="122.838" x2="225.977" y2="122.838"/>
<line fill="none" stroke="#231F20" stroke-width="2" stroke-miterlimit="10" x1="231.587" y1="111.101" x2="214.15" y2="111.101"/>
<line fill="none" stroke="#231F20" stroke-width="2" stroke-miterlimit="10" x1="277.459" y1="158.052" x2="260.021" y2="158.052"/>
<line fill="none" stroke="#231F20" stroke-width="2" stroke-miterlimit="10" x1="329.029" y1="139.785" x2="319.092" y2="139.785"/>
<line fill="none" stroke="#231F20" stroke-width="2" stroke-miterlimit="10" x1="321.436" y1="132.191" x2="311.499" y2="132.191"/>
<line fill="none" stroke="#231F20" stroke-width="2" stroke-miterlimit="10" x1="314.968" y1="124.597" x2="305.031" y2="124.597"/>
<line fill="none" stroke="#231F20" stroke-width="2" stroke-miterlimit="10" x1="33.785" y1="140.813" x2="23.848" y2="140.813"/>
<line fill="none" stroke="#231F20" stroke-width="2" stroke-miterlimit="10" x1="41.71" y1="133.219" x2="31.773" y2="133.219"/>
<line fill="none" stroke="#231F20" stroke-width="2" stroke-miterlimit="10" x1="48.036" y1="125.625" x2="38.099" y2="125.625"/>
<line fill="none" stroke="#231F20" stroke-width="2" stroke-miterlimit="10" x1="85.767" y1="146.314" x2="103.204" y2="146.314"/>
<line fill="none" stroke="#231F20" stroke-width="2" stroke-miterlimit="10" x1="98.034" y1="134.576" x2="115.471" y2="134.576"/>
<line fill="none" stroke="#231F20" stroke-width="2" stroke-miterlimit="10" x1="110.027" y1="122.838" x2="127.464" y2="122.838"/>
<line fill="none" stroke="#231F20" stroke-width="2" stroke-miterlimit="10" x1="121.853" y1="111.101" x2="139.29" y2="111.101"/>
<line fill="none" stroke="#231F20" stroke-width="2" stroke-miterlimit="10" x1="75.981" y1="158.052" x2="93.418" y2="158.052"/>
<polyline fill="none" stroke="#231F20" stroke-width="2" stroke-miterlimit="10" points="67.771,130.375 75.867,134.375 
	83.958,130.375 92.058,134.375 100.155,130.375 "/>
<polyline fill="none" stroke="#231F20" stroke-width="2" stroke-miterlimit="10" points="251.93,130.375 260.025,134.375 
	268.117,130.375 276.216,134.375 284.314,130.375 "/>
<polygon fill="#231F20" points="237.969,100.74 245.324,100.74 245.324,94.034 251.122,94.034 251.122,100.74 258.479,100.74 
	258.479,106.538 251.122,106.538 251.122,113.244 245.324,113.244 245.324,106.538 237.969,106.538 "/>
<polygon fill="#231F20" points="92.95,100.74 100.305,100.74 100.305,94.034 106.103,94.034 106.103,100.74 113.458,100.74 
	113.458,106.538 106.103,106.538 106.103,113.244 100.305,113.244 100.305,106.538 92.95,106.538 "/>
<line fill="none" x1="-70.75" y1="-21.25" x2="413.782" y2="-21.25"/>
<g>
	<g>
		<g>
			<defs>
				<rect id="SVGID_1_" x="16.419" y="164.625" width="69.136" height="18.767"/>
			</defs>
			<clipPath id="SVGID_2_">
				<use xlink:href="#SVGID_1_"  overflow="visible"/>
			</clipPath>
			<path clip-path="url(#SVGID_2_)" fill="none" stroke="#231F20" stroke-width="2" stroke-miterlimit="10" d="M2.15,172.51
				c7.31,0,7.31,6,14.62,6c7.308,0,7.308-6,14.616-6c7.311,0,7.311,6,14.621,6c7.309,0,7.309-6,14.618-6c7.313,0,7.313,6,14.626,6
				c7.314,0,7.314-6,14.627-6"/>
		</g>
	</g>
</g>
<g>
	<g>
		<g>
			<defs>
				<rect id="SVGID_3_" x="16.419" y="150.878" width="53.638" height="18.767"/>
			</defs>
			<clipPath id="SVGID_4_">
				<use xlink:href="#SVGID_3_"  overflow="visible"/>
			</clipPath>
			<path clip-path="url(#SVGID_4_)" fill="none" stroke="#231F20" stroke-width="2" stroke-miterlimit="10" d="M2.15,158.767
				c7.31,0,7.31,6,14.62,6c7.308,0,7.308-6,14.616-6c7.311,0,7.311,6,14.621,6c7.309,0,7.309-6,14.617-6c7.314,0,7.314,6,14.627,6
				c7.314,0,7.314-6,14.627-6"/>
		</g>
	</g>
</g>
<g>
	<g>
		<g>
			<defs>
				<rect id="SVGID_5_" x="280.297" y="150.878" width="53.12" height="18.767"/>
			</defs>
			<clipPath id="SVGID_6_">
				<use xlink:href="#SVGID_5_"  overflow="visible"/>
			</clipPath>
			<path clip-path="url(#SVGID_6_)" fill="none" stroke="#231F20" stroke-width="2" stroke-miterlimit="10" d="M276.029,158.767
				c7.311,0,7.311,6,14.621,6c7.308,0,7.308-6,14.615-6c7.312,0,7.312,6,14.621,6s7.31-6,14.615-6c7.314,0,7.314,6,14.627,6
				c7.314,0,7.314-6,14.627-6"/>
		</g>
	</g>
</g>
<polyline fill="none" stroke="#231F20" stroke-width="3" stroke-miterlimit="10" points="146.347,211.725 158.423,215.725 
	170.494,211.725 182.568,215.725 194.646,211.725 206.723,215.725 218.805,211.725 230.889,215.725 "/>
<polyline fill="none" stroke="#231F20" stroke-width="3" stroke-miterlimit="10" points="154.582,229.472 166.185,233.472 
	177.79,229.472 189.395,233.472 201.005,229.472 212.615,233.472 "/>
<polyline fill="none" stroke="#231F20" stroke-width="3" stroke-miterlimit="10" points="212.711,248.472 224.312,252.472 
	235.92,248.472 247.523,252.472 259.134,248.472 270.745,252.472 "/>
<polyline fill="none" stroke="#231F20" stroke-width="3" stroke-miterlimit="10" points="59.975,270.972 71.578,274.972 
	83.184,270.972 94.788,274.972 106.397,270.972 118.009,274.972 "/>
<polyline fill="none" stroke="#231F20" stroke-width="3" stroke-miterlimit="10" points="234.725,270.972 246.326,274.972 
	257.934,270.972 269.536,274.972 281.146,270.972 292.758,274.972 "/>
<polyline fill="none" stroke="#231F20" stroke-width="3" stroke-miterlimit="10" points="80.422,294.222 92.025,298.221 
	103.631,294.222 115.235,298.221 126.845,294.222 138.456,298.221 "/>
<line fill="none" x1="-70.75" y1="-21.25" x2="413.782" y2="-21.25"/>
<line fill="none" x1="-70.75" y1="-21.25" x2="413.782" y2="-21.25"/>
<polygon fill="#231F20" points="135.725,203.766 137.138,203.766 136.952,204.306 137.971,204.755 148.468,200.135 161.369,205.815 
	174.271,200.135 187.173,205.815 200.074,200.135 212.975,205.815 225.877,200.135 227.354,200.785 227.182,200.288 
	226.581,198.541 222.889,187.794 221.264,187.236 222.545,186.796 219.65,178.375 216.788,186.707 218.332,187.236 216.374,187.91 
	214.952,192.051 210.447,178.94 208.034,178.113 209.938,177.458 205.641,164.955 201.389,177.325 203.682,178.113 200.775,179.111 
	195.373,194.83 194.43,197.577 193.161,201.266 193.05,200.938 192.518,199.389 189.241,189.856 187.799,189.361 188.938,188.971 
	186.369,181.5 183.829,188.891 185.199,189.361 183.463,189.958 180.303,199.153 179.956,198.145 176.068,186.834 174.359,186.247 
	175.708,185.784 172.661,176.919 169.648,185.688 171.273,186.247 169.212,186.956 166.179,195.784 165.18,192.879 158.705,174.039 
	155.856,173.059 158.103,172.287 153.03,157.521 148.01,172.128 150.717,173.059 147.285,174.239 141.782,190.251 140.859,187.565 
	139.417,187.072 140.555,186.68 137.988,179.21 135.448,186.6 136.817,187.072 135.08,187.667 131.853,197.059 131.29,198.7 
	130.36,201.406 "/>
<g>
	<polygon fill="#231F20" points="137.971,204.755 148.468,200.135 161.172,205.728 159.323,200.288 158.728,198.541 
		155.075,187.794 153.467,187.236 154.735,186.796 151.872,178.375 149.04,186.707 150.567,187.236 148.63,187.91 147.223,192.051 
		142.765,178.94 140.376,178.113 142.261,177.458 138.01,164.955 133.803,177.325 136.072,178.113 133.196,179.111 127.852,194.83 
		126.917,197.577 126.233,199.59 	"/>
	<polygon fill="#231F20" points="71.058,198.02 83.96,203.698 96.862,198.02 109.763,203.698 122.665,198.02 124.893,199.001 
		121.784,189.856 120.356,189.361 121.481,188.971 118.942,181.5 116.429,188.891 117.784,189.361 116.067,189.958 112.939,199.153 
		112.597,198.145 108.75,186.834 107.059,186.247 108.394,185.784 105.38,176.919 102.398,185.688 104.007,186.247 101.967,186.956 
		98.966,195.784 97.978,192.879 91.572,174.039 88.753,173.059 90.976,172.287 85.956,157.521 80.989,172.128 83.667,173.059 
		80.271,174.239 74.827,190.251 73.914,187.565 72.487,187.072 73.613,186.68 71.073,179.21 68.56,186.6 69.915,187.072 
		68.197,187.667 65.004,197.059 64.447,198.7 63.555,201.322 	"/>
</g>
</svg>
