<?xml version="1.0" encoding="utf-8"?>
<!-- Generator: Adobe Illustrator 16.0.0, SVG Export Plug-In . SVG Version: 6.00 Build 0)  -->
<!DOCTYPE svg PUBLIC "-//W3C//DTD SVG 1.1//EN" "http://www.w3.org/Graphics/SVG/1.1/DTD/svg11.dtd">
<svg version="1.1" id="Layer_1" xmlns="http://www.w3.org/2000/svg" xmlns:xlink="http://www.w3.org/1999/xlink" x="0px" y="0px"
	 width="350px" height="350.695px" viewBox="0 0 350 350.695" enable-background="new 0 0 350 350.695" xml:space="preserve">
<circle fill="none" stroke="#231F20" stroke-width="4" stroke-miterlimit="10" cx="174.571" cy="174.899" r="170.999"/>
<circle fill="none" stroke="#231F20" stroke-width="4" stroke-miterlimit="10" cx="174.571" cy="174.899" r="159.667"/>
<line fill="none" stroke="#231F20" stroke-width="3" stroke-miterlimit="10" x1="174.627" y1="51.841" x2="174.627" y2="61.075"/>
<line fill="none" stroke="#231F20" stroke-width="3" stroke-miterlimit="10" x1="174.627" y1="37.045" x2="174.627" y2="46.279"/>
<line fill="none" stroke="#231F20" stroke-width="3" stroke-miterlimit="10" x1="174.627" y1="23.507" x2="174.627" y2="32.741"/>
<line fill="none" stroke="#231F20" stroke-width="3" stroke-miterlimit="10" x1="205.779" y1="63.086" x2="197.441" y2="71.424"/>
<line fill="none" stroke="#231F20" stroke-width="3" stroke-miterlimit="10" x1="217.512" y1="51.354" x2="209.176" y2="59.691"/>
<line fill="none" stroke="#231F20" stroke-width="3" stroke-miterlimit="10" x1="228.834" y1="40.032" x2="220.498" y2="48.369"/>
<line fill="none" stroke="#231F20" stroke-width="3" stroke-miterlimit="10" x1="216.729" y1="80.797" x2="206.201" y2="86.106"/>
<line fill="none" stroke="#231F20" stroke-width="3" stroke-miterlimit="10" x1="231.543" y1="73.326" x2="221.016" y2="78.635"/>
<line fill="none" stroke="#231F20" stroke-width="3" stroke-miterlimit="10" x1="245.842" y1="66.116" x2="235.312" y2="71.425"/>
<line fill="none" stroke="#231F20" stroke-width="3" stroke-miterlimit="10" x1="132.137" y1="80.797" x2="142.665" y2="86.106"/>
<line fill="none" stroke="#231F20" stroke-width="3" stroke-miterlimit="10" x1="117.322" y1="73.326" x2="127.85" y2="78.635"/>
<line fill="none" stroke="#231F20" stroke-width="3" stroke-miterlimit="10" x1="103.025" y1="66.116" x2="113.553" y2="71.425"/>
<line fill="none" stroke="#231F20" stroke-width="3" stroke-miterlimit="10" x1="145.67" y1="63.086" x2="154.008" y2="71.424"/>
<line fill="none" stroke="#231F20" stroke-width="3" stroke-miterlimit="10" x1="133.937" y1="51.354" x2="142.274" y2="59.691"/>
<line fill="none" stroke="#231F20" stroke-width="3" stroke-miterlimit="10" x1="122.615" y1="40.032" x2="130.952" y2="48.369"/>
<polygon fill="#231F20" points="260.309,178.506 264.332,177.372 175.576,88.615 172.996,91.193 "/>
<polygon fill="#231F20" points="88.866,178.385 176.871,89.924 174.262,87.377 86.256,175.838 "/>
<line fill="none" stroke="#231F20" stroke-width="2" stroke-miterlimit="10" x1="112.363" y1="153.897" x2="129.8" y2="153.897"/>
<line fill="none" stroke="#231F20" stroke-width="2" stroke-miterlimit="10" x1="122.845" y1="142.159" x2="140.282" y2="142.159"/>
<line fill="none" stroke="#231F20" stroke-width="2" stroke-miterlimit="10" x1="134.67" y1="130.42" x2="152.107" y2="130.42"/>
<line fill="none" stroke="#231F20" stroke-width="2" stroke-miterlimit="10" x1="236.957" y1="153.897" x2="219.52" y2="153.897"/>
<line fill="none" stroke="#231F20" stroke-width="2" stroke-miterlimit="10" x1="224.963" y1="142.159" x2="207.527" y2="142.159"/>
<line fill="none" stroke="#231F20" stroke-width="2" stroke-miterlimit="10" x1="213.137" y1="130.42" x2="195.701" y2="130.42"/>
<polyline fill="none" stroke="#231F20" stroke-width="2" stroke-miterlimit="10" points="148.463,114.305 157.18,120.305 
	165.899,114.305 174.621,120.305 183.34,114.305 192.066,120.305 200.791,114.305 "/>
<rect x="252.86" y="77.148" transform="matrix(-0.7071 0.7071 -0.7071 -0.7071 530.5886 51.2377)" fill="#231F20" width="3.646" height="116.72"/>
<rect x="192.491" y="100.52" transform="matrix(-0.6984 0.7157 -0.7157 -0.6984 422.3756 26.6874)" fill="#231F20" width="26.146" height="3.648"/>
<polygon fill="#231F20" points="316.055,164.414 320.246,163.449 268.352,111.555 265.773,114.133 "/>
<rect x="246.14" y="119.122" transform="matrix(-0.6984 0.7157 -0.7157 -0.6984 526.8077 19.8902)" fill="#231F20" width="26.146" height="3.648"/>
<rect x="315.702" y="109.163" transform="matrix(-0.707 0.7072 -0.7072 -0.707 632.7278 -5.6068)" fill="#231F20" width="3.647" height="38.222"/>
<rect x="283.088" y="121.04" transform="matrix(-0.6983 0.7158 -0.7158 -0.6983 590.9192 -3.329)" fill="#231F20" width="26.146" height="3.648"/>
<rect x="97.256" y="78.1" transform="matrix(0.7072 0.707 -0.707 0.7072 123.1798 -31.049)" fill="#231F20" width="3.647" height="110.212"/>
<rect x="132.822" y="100.52" transform="matrix(0.6984 0.7157 -0.7157 0.6984 117.26 -73.5531)" fill="#231F20" width="26.146" height="3.648"/>
<rect x="58.815" y="103.002" transform="matrix(0.7071 0.7071 -0.7071 0.7071 114.3523 -2.8687)" fill="#231F20" width="3.647" height="67.199"/>
<rect x="79.175" y="119.122" transform="matrix(0.6984 0.7157 -0.7157 0.6984 114.3885 -29.544)" fill="#231F20" width="26.145" height="3.648"/>
<rect x="30.735" y="108.593" transform="matrix(0.7072 0.707 -0.707 0.7072 101.1909 14.938)" fill="#231F20" width="3.647" height="42.115"/>
<rect x="42.226" y="121.04" transform="matrix(0.6983 0.7158 -0.7158 0.6983 104.6247 -2.5176)" fill="#231F20" width="26.146" height="3.647"/>
<path fill="none" stroke="#010101" stroke-width="3" stroke-miterlimit="10" d="M160.212,102.243
	c-3.231-3.488-5.206-8.158-5.206-13.291c0-10.805,8.76-19.564,19.564-19.564c10.807,0,19.566,8.76,19.566,19.564
	c0,5.236-2.057,9.99-5.404,13.502"/>
<polygon fill="#231F20" points="81.81,203.084 94.711,197.407 107.612,203.084 120.515,197.407 123.917,198.905 123.875,198.777 
	120.633,189.245 119.207,188.749 120.332,188.358 117.792,180.889 115.278,188.278 116.633,188.749 114.917,189.346 111.79,198.542 
	111.446,197.534 107.601,186.223 105.909,185.635 107.244,185.172 104.229,176.308 101.248,185.077 102.855,185.635 
	100.816,186.344 97.815,195.172 96.828,192.268 90.42,173.427 87.602,172.448 89.826,171.674 84.806,156.911 79.838,171.517 
	82.518,172.448 79.122,173.627 73.676,189.64 72.764,186.954 71.336,186.459 72.462,186.068 69.922,178.599 67.41,185.989 
	68.765,186.459 67.046,187.056 63.853,196.446 63.295,198.088 62.581,200.192 68.909,197.407 "/>
<polygon fill="#231F20" points="146.318,199.524 159.219,205.203 172.122,199.524 185.021,205.203 197.924,199.524 210.824,205.203 
	223.727,199.524 236.629,205.203 249.529,199.524 262.98,205.444 263.135,205.444 275.389,200.833 285.123,204.573 283.834,201.253 
	283.816,201.295 283.705,201.012 283.172,199.67 279.895,191.416 278.453,190.985 279.59,190.647 277.023,184.176 274.484,190.578 
	275.854,190.985 274.117,191.501 270.957,199.465 270.609,198.592 266.723,188.796 265.014,188.289 266.363,187.887 263.316,180.21 
	260.303,187.803 261.928,188.289 259.867,188.901 256.834,196.547 255.836,194.032 249.359,177.713 246.512,176.866 
	248.758,176.198 243.684,163.411 238.664,176.061 241.371,176.866 237.939,177.887 232.436,191.756 231.514,189.43 230.072,189.002 
	231.211,188.664 228.643,182.194 226.102,188.593 227.473,189.002 225.734,189.518 224.023,193.834 221.738,187.182 
	220.113,186.625 221.395,186.184 218.5,177.764 215.637,186.094 217.182,186.625 215.223,187.297 213.801,191.438 209.297,178.33 
	206.883,177.501 208.787,176.846 204.49,164.343 200.238,176.712 202.531,177.501 199.625,178.5 194.223,194.217 193.279,196.964 
	192.01,200.655 191.898,200.327 191.367,198.778 188.09,189.246 186.648,188.75 187.785,188.358 185.219,180.889 182.678,188.278 
	184.049,188.75 182.312,189.346 179.15,198.542 178.805,197.534 174.918,186.223 173.209,185.634 174.557,185.171 171.51,176.307 
	168.498,185.077 170.124,185.634 168.062,186.343 165.029,195.171 164.03,192.268 157.555,173.426 154.706,172.448 156.953,171.674 
	151.88,156.911 146.86,171.518 149.567,172.448 146.134,173.627 143.059,182.577 141.615,178.33 139.227,177.501 141.111,176.846 
	136.86,164.343 132.653,176.712 134.922,177.501 132.046,178.5 126.701,194.217 125.767,196.964 124.953,199.36 135.821,204.143 "/>
<polygon fill="#FFFFFF" points="124.513,200.655 124.953,199.36 123.917,198.905 124.401,200.327 "/>
<polygon fill="#FFFFFF" points="227.793,203.459 227.33,203.459 227.545,204.084 "/>
<path fill="none" stroke="#231F20" stroke-width="2" stroke-miterlimit="10" d="M65.781,192.592c0,0-16.79,0.295-24.29,5.795
	s-7.25,10.25-5.25,16.5s19.25,14.5-6.047,29.023"/>
<path fill="none" stroke="#231F20" stroke-width="2" stroke-miterlimit="10" d="M63.364,198.86c0,0-9.875,1.19-10.792,6.584
	c-1.063,6.256,22.75,8.916,22.25,28.916s-20.916,33.33-29.958,33.664"/>
<path fill="none" stroke="#231F20" stroke-width="2" stroke-miterlimit="10" d="M58.368,196.797c0,0-5.928,0.639-8.53,3.856"/>
<path fill="none" stroke="#231F20" stroke-width="2" stroke-miterlimit="10" d="M47.216,204.444c0,0-0.811,6.715,3.523,9.356"/>
<path fill="none" stroke="#231F20" stroke-width="2" stroke-miterlimit="10" d="M55.293,217.444c0,0,7.587,3,10.267,9.666"/>
<path fill="none" stroke="#231F20" stroke-width="2" stroke-miterlimit="10" d="M65.733,234.6c0,0,2.721,9.51-5.886,17.51"/>
<path fill="none" stroke="#231F20" stroke-width="2" stroke-miterlimit="10" d="M53.511,256.393c0,0-5.289,5.515-12.113,6.615"/>
<path fill="none" stroke="#231F20" stroke-width="2" stroke-miterlimit="10" d="M55.299,233.11c1.059-8-6.351-13.908-6.351-13.908
	s2.912,10.89-1.732,15.398"/>
<path fill="none" stroke="#231F20" stroke-width="2" stroke-miterlimit="10" d="M58.824,240.11c0,0-2.168,8-9.876,12"/>
<path fill="none" stroke="#231F20" stroke-width="2" stroke-miterlimit="10" d="M45.968,243.356c0,0-8.719,10.308-10.376,8.754"/>
<path fill="none" stroke="#231F20" stroke-width="2" stroke-miterlimit="10" d="M41.397,202.778c0,0-3.175,7.047,0,11.022"/>
<path fill="none" stroke="#231F20" stroke-width="2" stroke-miterlimit="10" d="M281.197,195.581c0,0,17.484-2.308,24.984,3.192
	s7.25,10.25,5.25,16.5s-19.25,14.5,6.047,29.024"/>
<path fill="none" stroke="#231F20" stroke-width="2" stroke-miterlimit="10" d="M284.416,203.393c0,0,9.186-3.729,10.686,2.438
	s-22.75,8.917-22.25,28.917s20.916,33.329,29.957,33.664"/>
<path fill="none" stroke="#231F20" stroke-width="2" stroke-miterlimit="10" d="M287.826,198.483c0,0,5.941-0.5,9.107,2.166"/>
<path fill="none" stroke="#231F20" stroke-width="2" stroke-miterlimit="10" d="M300.457,204.831c0,0,0.811,6.715-3.523,9.356"/>
<path fill="none" stroke="#231F20" stroke-width="2" stroke-miterlimit="10" d="M292.379,217.831c0,0-7.586,3-10.266,9.666"/>
<path fill="none" stroke="#231F20" stroke-width="2" stroke-miterlimit="10" d="M281.939,234.987c0,0-2.721,9.51,5.887,17.51"/>
<path fill="none" stroke="#231F20" stroke-width="2" stroke-miterlimit="10" d="M294.162,256.78c0,0,5.289,5.515,12.113,6.615"/>
<path fill="none" stroke="#231F20" stroke-width="2" stroke-miterlimit="10" d="M292.375,233.497c-1.059-8,6.35-13.908,6.35-13.908
	s-2.91,10.89,1.732,15.398"/>
<path fill="none" stroke="#231F20" stroke-width="2" stroke-miterlimit="10" d="M288.85,240.497c0,0,2.168,8,9.875,12"/>
<path fill="none" stroke="#231F20" stroke-width="2" stroke-miterlimit="10" d="M301.705,243.743c0,0,8.719,10.308,10.377,8.754"/>
<path fill="none" stroke="#231F20" stroke-width="2" stroke-miterlimit="10" d="M306.275,203.165c0,0,3.176,7.047,0,11.022"/>
<path fill="none" stroke="#231F20" stroke-width="2" stroke-miterlimit="10" d="M246.512,171.901c7.309,0,7.309,6,14.619,6
	c7.309,0,7.309-6,14.617-6c7.311,0,7.311,6,14.621,6c7.309,0,7.309-6,14.615-6c7.314,0,7.314,6,14.627,6c7.314,0,7.314-6,14.627-6"
	/>
<line fill="none" stroke="#231F20" stroke-width="2" stroke-miterlimit="10" x1="266.521" y1="145.702" x2="249.086" y2="145.702"/>
<line fill="none" stroke="#231F20" stroke-width="2" stroke-miterlimit="10" x1="254.254" y1="133.964" x2="236.818" y2="133.964"/>
<line fill="none" stroke="#231F20" stroke-width="2" stroke-miterlimit="10" x1="242.262" y1="122.227" x2="224.826" y2="122.227"/>
<line fill="none" stroke="#231F20" stroke-width="2" stroke-miterlimit="10" x1="230.436" y1="110.489" x2="213" y2="110.489"/>
<line fill="none" stroke="#231F20" stroke-width="2" stroke-miterlimit="10" x1="276.309" y1="157.44" x2="258.871" y2="157.44"/>
<line fill="none" stroke="#231F20" stroke-width="2" stroke-miterlimit="10" x1="327.879" y1="139.172" x2="317.941" y2="139.172"/>
<line fill="none" stroke="#231F20" stroke-width="2" stroke-miterlimit="10" x1="320.285" y1="131.579" x2="310.348" y2="131.579"/>
<line fill="none" stroke="#231F20" stroke-width="2" stroke-miterlimit="10" x1="313.816" y1="123.985" x2="303.881" y2="123.985"/>
<line fill="none" stroke="#231F20" stroke-width="2" stroke-miterlimit="10" x1="32.635" y1="139.356" x2="22.698" y2="139.356"/>
<line fill="none" stroke="#231F20" stroke-width="2" stroke-miterlimit="10" x1="40.56" y1="131.762" x2="30.623" y2="131.762"/>
<line fill="none" stroke="#231F20" stroke-width="2" stroke-miterlimit="10" x1="46.886" y1="124.168" x2="36.949" y2="124.168"/>
<line fill="none" stroke="#231F20" stroke-width="2" stroke-miterlimit="10" x1="84.616" y1="145.702" x2="102.053" y2="145.702"/>
<line fill="none" stroke="#231F20" stroke-width="2" stroke-miterlimit="10" x1="96.884" y1="133.964" x2="114.321" y2="133.964"/>
<line fill="none" stroke="#231F20" stroke-width="2" stroke-miterlimit="10" x1="108.876" y1="122.227" x2="126.313" y2="122.227"/>
<line fill="none" stroke="#231F20" stroke-width="2" stroke-miterlimit="10" x1="120.703" y1="110.489" x2="138.14" y2="110.489"/>
<line fill="none" stroke="#231F20" stroke-width="2" stroke-miterlimit="10" x1="74.831" y1="157.44" x2="92.268" y2="157.44"/>
<polyline fill="none" stroke="#231F20" stroke-width="2" stroke-miterlimit="10" points="66.62,129.762 74.716,133.762 
	82.808,129.762 90.907,133.762 99.005,129.762 "/>
<polyline fill="none" stroke="#231F20" stroke-width="2" stroke-miterlimit="10" points="250.779,129.762 258.875,133.762 
	266.967,129.762 275.064,133.762 283.164,129.762 "/>
<polygon fill="#010101" points="236.818,100.127 244.174,100.127 244.174,93.422 249.971,93.422 249.971,100.127 257.326,100.127 
	257.326,105.926 249.971,105.926 249.971,112.631 244.174,112.631 244.174,105.926 236.818,105.926 "/>
<polygon fill="#010101" points="91.8,100.127 99.155,100.127 99.155,93.422 104.953,93.422 104.953,100.127 112.308,100.127 
	112.308,105.926 104.953,105.926 104.953,112.631 99.155,112.631 99.155,105.926 91.8,105.926 "/>
<g>
	<defs>
		<rect id="SVGID_1_" x="15.269" y="164.012" width="69.136" height="18.765"/>
	</defs>
	<clipPath id="SVGID_2_">
		<use xlink:href="#SVGID_1_"  overflow="visible"/>
	</clipPath>
	<path clip-path="url(#SVGID_2_)" fill="none" stroke="#231F20" stroke-width="2" stroke-miterlimit="10" d="M1,171.901
		c7.31,0,7.31,6,14.62,6c7.308,0,7.308-6,14.616-6c7.311,0,7.311,6,14.621,6c7.309,0,7.309-6,14.618-6c7.313,0,7.313,6,14.626,6
		c7.314,0,7.314-6,14.627-6"/>
</g>
<g>
	<defs>
		<rect id="SVGID_3_" x="15.269" y="150.266" width="53.638" height="18.765"/>
	</defs>
	<clipPath id="SVGID_4_">
		<use xlink:href="#SVGID_3_"  overflow="visible"/>
	</clipPath>
	<path clip-path="url(#SVGID_4_)" fill="none" stroke="#231F20" stroke-width="2" stroke-miterlimit="10" d="M1,158.155
		c7.31,0,7.31,6,14.62,6c7.308,0,7.308-6,14.616-6c7.311,0,7.311,6,14.621,6c7.309,0,7.309-6,14.617-6c7.314,0,7.314,6,14.627,6
		c7.314,0,7.314-6,14.627-6"/>
</g>
<g>
	<defs>
		<rect id="SVGID_5_" x="279.146" y="150.266" width="53.119" height="18.765"/>
	</defs>
	<clipPath id="SVGID_6_">
		<use xlink:href="#SVGID_5_"  overflow="visible"/>
	</clipPath>
	<path clip-path="url(#SVGID_6_)" fill="none" stroke="#231F20" stroke-width="2" stroke-miterlimit="10" d="M274.879,158.155
		c7.311,0,7.311,6,14.621,6c7.307,0,7.307-6,14.615-6c7.311,0,7.311,6,14.623,6c7.307,0,7.307-6,14.615-6c7.314,0,7.314,6,14.627,6
		c7.314,0,7.314-6,14.627-6"/>
</g>
<polyline fill="none" stroke="#231F20" stroke-width="3" stroke-miterlimit="10" points="58.824,270.36 70.427,274.36 
	82.033,270.36 93.637,274.36 105.247,270.36 116.858,274.36 "/>
<polyline fill="none" stroke="#231F20" stroke-width="3" stroke-miterlimit="10" points="158.45,310.383 170.053,314.383 
	181.658,310.383 193.262,314.383 204.873,310.383 216.484,314.383 "/>
<polyline fill="none" stroke="#231F20" stroke-width="3" stroke-miterlimit="10" points="79.272,293.61 90.875,297.61 
	102.481,293.61 114.084,297.61 125.695,293.61 137.306,297.61 "/>
<polygon fill="#231F20" points="173.633,211.717 152.658,210.834 140.53,213.133 129.688,217.338 121.922,218.719 115.982,218.375 
	114.979,216.442 112.304,215.493 107.955,219.668 106.479,220.157 104.425,220.211 103.159,221.598 104.184,223.602 
	104.948,226.615 102.686,234.912 99.939,239.211 98.758,242.061 99.181,245.163 101.048,248.036 106.156,247.764 115.168,242.963 
	120.266,242.12 125.268,243.85 128.865,247.581 132.241,253.627 135.414,259.459 138.688,261.939 145.869,263.137 146.407,274.881 
	144.684,286.258 142.983,289.756 143.158,291.492 148.074,291.492 149.337,288.95 149.706,284.92 150.005,279.831 152.174,272.458 
	153.56,271.398 156.46,279.822 157.368,286.434 156.166,290.489 154.346,292.432 154.626,294.273 159.247,294.891 161.112,291.805 
	160.841,287.249 160.471,278.043 161.222,274.408 161.087,260.156 163.578,257.305 174.107,260.309 184.043,261.868 194.23,260.891 
	201.469,258.576 208.162,259.618 215.283,264.336 216.77,269.122 215.029,277.024 211.396,283.368 206.523,291.911 205.953,294.891 
	210.938,294.891 213.918,291.624 215.857,286.734 222.807,275.446 225.945,271.01 226.689,265.99 226.859,259.594 227.766,258.12 
	230.109,262.367 234.994,273.305 237.121,280.391 235.34,290.635 235.59,294.891 239.834,294.891 242.117,292.994 242.201,288.035 
	242.873,273.225 242.531,264.68 241.826,259.372 240.633,218.799 238.479,214.057 228.227,210.422 193.01,212.051 "/>
<polyline fill="none" stroke="#231F20" stroke-width="3" stroke-miterlimit="10" points="249.639,275.717 261.639,279.717 
	273.648,275.717 285.656,279.717 "/>
<polyline fill="none" stroke="#231F20" stroke-width="3" stroke-miterlimit="10" points="68.247,207.508 80.247,211.508 
	92.256,207.508 104.264,211.508 "/>
<polyline fill="none" stroke="#231F20" stroke-width="3" stroke-miterlimit="10" points="246.998,212.969 255.572,216.969 
	264.152,212.969 272.73,216.969 "/>
<polyline fill="none" stroke="#231F20" stroke-width="3" stroke-miterlimit="10" points="226.279,301.383 234.854,305.383 
	243.434,301.383 252.012,305.383 "/>
</svg>
