<?xml version="1.0" encoding="utf-8"?>
<!-- Generator: Adobe Illustrator 16.0.0, SVG Export Plug-In . SVG Version: 6.00 Build 0)  -->
<!DOCTYPE svg PUBLIC "-//W3C//DTD SVG 1.1//EN" "http://www.w3.org/Graphics/SVG/1.1/DTD/svg11.dtd">
<svg version="1.1" id="Layer_1" xmlns="http://www.w3.org/2000/svg" xmlns:xlink="http://www.w3.org/1999/xlink" x="0px" y="0px"
	 width="350px" height="350.695px" viewBox="0 0 350 350.695" enable-background="new 0 0 350 350.695" xml:space="preserve">
<circle fill="none" stroke="#231F20" stroke-width="4" stroke-miterlimit="10" cx="174.572" cy="174.034" r="171"/>
<circle fill="none" stroke="#231F20" stroke-width="4" stroke-miterlimit="10" cx="174.572" cy="174.034" r="159.668"/>
<line fill="none" stroke="#231F20" stroke-width="3" stroke-miterlimit="10" x1="174.627" y1="50.975" x2="174.627" y2="60.208"/>
<line fill="none" stroke="#231F20" stroke-width="3" stroke-miterlimit="10" x1="174.627" y1="36.178" x2="174.627" y2="45.413"/>
<line fill="none" stroke="#231F20" stroke-width="3" stroke-miterlimit="10" x1="174.627" y1="22.641" x2="174.627" y2="31.874"/>
<line fill="none" stroke="#231F20" stroke-width="3" stroke-miterlimit="10" x1="205.779" y1="62.219" x2="197.441" y2="70.557"/>
<line fill="none" stroke="#231F20" stroke-width="3" stroke-miterlimit="10" x1="217.513" y1="50.487" x2="209.176" y2="58.825"/>
<line fill="none" stroke="#231F20" stroke-width="3" stroke-miterlimit="10" x1="228.835" y1="39.165" x2="220.498" y2="47.502"/>
<line fill="none" stroke="#231F20" stroke-width="3" stroke-miterlimit="10" x1="216.729" y1="79.93" x2="206.201" y2="85.239"/>
<line fill="none" stroke="#231F20" stroke-width="3" stroke-miterlimit="10" x1="231.544" y1="72.459" x2="221.017" y2="77.768"/>
<line fill="none" stroke="#231F20" stroke-width="3" stroke-miterlimit="10" x1="245.842" y1="65.249" x2="235.313" y2="70.557"/>
<line fill="none" stroke="#231F20" stroke-width="3" stroke-miterlimit="10" x1="132.137" y1="79.93" x2="142.665" y2="85.239"/>
<line fill="none" stroke="#231F20" stroke-width="3" stroke-miterlimit="10" x1="117.322" y1="72.459" x2="127.85" y2="77.768"/>
<line fill="none" stroke="#231F20" stroke-width="3" stroke-miterlimit="10" x1="103.025" y1="65.249" x2="113.553" y2="70.557"/>
<line fill="none" stroke="#231F20" stroke-width="3" stroke-miterlimit="10" x1="145.67" y1="62.219" x2="154.008" y2="70.557"/>
<line fill="none" stroke="#231F20" stroke-width="3" stroke-miterlimit="10" x1="133.937" y1="50.487" x2="142.274" y2="58.825"/>
<line fill="none" stroke="#231F20" stroke-width="3" stroke-miterlimit="10" x1="122.615" y1="39.165" x2="130.952" y2="47.502"/>
<polygon fill="#231F20" points="260.31,177.639 264.333,176.504 175.576,87.749 172.997,90.327 "/>
<polygon fill="#231F20" points="88.866,177.518 176.872,89.057 174.262,86.51 86.256,174.973 "/>
<line fill="none" stroke="#231F20" stroke-width="2" stroke-miterlimit="10" x1="112.363" y1="153.03" x2="129.8" y2="153.03"/>
<line fill="none" stroke="#231F20" stroke-width="2" stroke-miterlimit="10" x1="122.845" y1="141.292" x2="140.282" y2="141.292"/>
<line fill="none" stroke="#231F20" stroke-width="2" stroke-miterlimit="10" x1="134.67" y1="129.553" x2="152.107" y2="129.553"/>
<line fill="none" stroke="#231F20" stroke-width="2" stroke-miterlimit="10" x1="236.957" y1="153.03" x2="219.52" y2="153.03"/>
<line fill="none" stroke="#231F20" stroke-width="2" stroke-miterlimit="10" x1="224.964" y1="141.292" x2="207.527" y2="141.292"/>
<line fill="none" stroke="#231F20" stroke-width="2" stroke-miterlimit="10" x1="213.138" y1="129.553" x2="195.701" y2="129.553"/>
<polyline fill="none" stroke="#231F20" stroke-width="2" stroke-miterlimit="10" points="148.463,113.438 157.18,119.438 
	165.899,113.438 174.621,119.438 183.34,113.438 192.066,119.438 200.791,113.438 "/>
<rect x="252.859" y="76.28" transform="matrix(-0.7072 0.707 -0.707 -0.7072 529.9921 49.8111)" fill="#231F20" width="3.647" height="116.722"/>
<rect x="192.492" y="99.654" transform="matrix(-0.6983 0.7158 -0.7158 -0.6983 421.753 25.2033)" fill="#231F20" width="26.146" height="3.647"/>
<polygon fill="#231F20" points="316.055,163.547 320.247,162.581 268.353,110.688 265.774,113.266 "/>
<rect x="246.14" y="118.256" transform="matrix(-0.6984 0.7157 -0.7157 -0.6984 526.1874 18.4182)" fill="#231F20" width="26.146" height="3.648"/>
<rect x="315.702" y="108.296" transform="matrix(-0.7071 0.7071 -0.7071 -0.7071 632.1399 -7.0275)" fill="#231F20" width="3.646" height="38.222"/>
<rect x="283.088" y="120.173" transform="matrix(-0.6983 0.7158 -0.7158 -0.6983 590.3027 -4.7941)" fill="#231F20" width="26.146" height="3.648"/>
<rect x="97.256" y="77.233" transform="matrix(0.7072 0.707 -0.707 0.7072 122.5667 -31.3028)" fill="#231F20" width="3.647" height="110.212"/>
<rect x="132.822" y="99.653" transform="matrix(0.6983 0.7158 -0.7158 0.6983 116.6443 -73.8153)" fill="#231F20" width="26.147" height="3.648"/>
<rect x="58.816" y="102.136" transform="matrix(0.7072 0.707 -0.707 0.7072 113.7135 -3.1324)" fill="#231F20" width="3.647" height="67.198"/>
<rect x="79.175" y="118.256" transform="matrix(0.6984 0.7157 -0.7157 0.6984 113.7681 -29.8055)" fill="#231F20" width="26.145" height="3.648"/>
<rect x="30.735" y="107.725" transform="matrix(0.7072 0.707 -0.707 0.7072 100.5778 14.6841)" fill="#231F20" width="3.647" height="42.115"/>
<rect x="42.226" y="120.173" transform="matrix(0.6983 0.7158 -0.7158 0.6983 104.004 -2.7792)" fill="#231F20" width="26.146" height="3.647"/>
<path fill="none" stroke="#010101" stroke-width="3" stroke-miterlimit="10" d="M160.212,101.375
	c-3.231-3.488-5.206-8.158-5.206-13.289c0-10.807,8.76-19.566,19.565-19.566c10.806,0,19.566,8.76,19.566,19.566
	c0,5.234-2.057,9.988-5.404,13.5"/>
<polygon fill="#231F20" points="146.318,197.608 159.219,203.288 172.121,197.608 185.022,203.288 197.924,197.608 210.825,203.288 
	223.727,197.608 236.629,203.288 249.529,197.608 263.052,203.559 275.39,198.917 284.645,202.475 283.834,200.385 283.816,200.428 
	283.705,200.145 283.173,198.803 279.896,190.547 278.454,190.118 279.591,189.78 277.024,183.311 274.484,189.711 275.854,190.118 
	274.118,190.635 270.958,198.598 270.61,197.725 266.724,187.93 265.014,187.42 266.363,187.02 263.316,179.342 260.303,186.936 
	261.929,187.42 259.868,188.036 256.835,195.68 255.836,193.165 249.36,176.848 246.512,176 248.759,175.331 243.685,162.543 
	238.665,175.194 241.372,176 237.939,177.022 232.437,190.889 231.514,188.563 230.072,188.135 231.211,187.795 228.643,181.327 
	226.103,187.727 227.473,188.135 225.735,188.651 224.023,192.967 221.738,186.317 220.113,185.758 221.395,185.317 
	218.501,176.897 215.638,185.227 217.182,185.758 215.224,186.43 213.801,190.571 209.297,177.463 206.883,176.633 208.787,175.979 
	204.49,163.477 200.239,175.846 202.532,176.633 199.625,177.633 194.223,193.352 193.279,196.098 192.011,199.788 191.899,199.459 
	191.367,197.911 188.09,188.377 186.648,187.881 187.786,187.491 185.219,180.022 182.679,187.413 184.049,187.881 182.312,188.479 
	179.151,197.674 178.806,196.667 174.919,185.356 173.209,184.768 174.558,184.305 171.511,175.44 168.498,184.209 170.123,184.768 
	168.062,185.477 165.029,194.305 164.03,191.401 157.555,172.559 154.706,171.581 156.953,170.807 151.88,156.043 146.86,170.651 
	149.567,171.581 146.134,172.76 143.059,181.709 141.615,177.463 139.227,176.633 141.111,175.979 136.86,163.477 132.653,175.846 
	134.922,176.633 132.046,177.633 126.701,193.352 125.767,196.098 125.263,197.581 135.821,202.229 "/>
<polygon fill="#231F20" points="81.81,201.17 94.711,195.491 107.612,201.17 120.515,195.491 123.499,196.805 120.633,188.377 
	119.207,187.881 120.332,187.491 117.792,180.022 115.278,187.413 116.633,187.881 114.917,188.479 111.79,197.674 111.446,196.667 
	107.601,185.356 105.909,184.768 107.244,184.305 104.229,175.44 101.248,184.209 102.855,184.768 100.816,185.477 97.815,194.305 
	96.828,191.401 90.42,172.559 87.602,171.581 89.826,170.807 84.806,156.043 79.838,170.651 82.518,171.581 79.122,172.76 
	73.676,188.772 72.764,186.086 71.336,185.592 72.462,185.202 69.922,177.731 67.41,185.122 68.765,185.592 67.046,186.188 
	63.853,195.581 63.295,197.221 63,198.092 68.909,195.491 "/>
<polygon fill="#FFFFFF" points="124.402,199.459 124.513,199.788 125.263,197.581 123.499,196.805 123.875,197.911 "/>
<polygon fill="#FFFFFF" points="227.793,202.592 227.331,202.592 227.545,203.217 "/>
<path fill="none" stroke="#231F20" stroke-width="2" stroke-miterlimit="10" d="M65.733,190.971c0,0-16.742-1.951-24.242,3.549
	s-7.25,10.25-5.25,16.5s19.25,14.5-6.048,29.023"/>
<path fill="none" stroke="#231F20" stroke-width="2" stroke-miterlimit="10" d="M63.167,197.061c0,0-9.969-1.172-10.594,4.516
	c-0.693,6.309,22.75,8.916,22.25,28.916s-20.917,33.33-29.958,33.664"/>
<path fill="none" stroke="#231F20" stroke-width="2" stroke-miterlimit="10" d="M59.847,193.911c0,0-5.941-0.5-9.108,2.166"/>
<path fill="none" stroke="#231F20" stroke-width="2" stroke-miterlimit="10" d="M47.216,200.577c0,0-0.811,6.713,3.523,9.357"/>
<path fill="none" stroke="#231F20" stroke-width="2" stroke-miterlimit="10" d="M55.293,213.577c0,0,7.587,3,10.267,9.666"/>
<path fill="none" stroke="#231F20" stroke-width="2" stroke-miterlimit="10" d="M65.733,230.733c0,0,2.721,9.51-5.886,17.51"/>
<path fill="none" stroke="#231F20" stroke-width="2" stroke-miterlimit="10" d="M53.511,252.526c0,0-5.289,5.514-12.113,6.615"/>
<path fill="none" stroke="#231F20" stroke-width="2" stroke-miterlimit="10" d="M55.299,229.243c1.059-8-6.351-13.908-6.351-13.908
	s2.912,10.891-1.732,15.398"/>
<path fill="none" stroke="#231F20" stroke-width="2" stroke-miterlimit="10" d="M58.824,236.243c0,0-2.168,8-9.876,12"/>
<path fill="none" stroke="#231F20" stroke-width="2" stroke-miterlimit="10" d="M45.968,239.489c0,0-8.719,10.307-10.376,8.754"/>
<path fill="none" stroke="#231F20" stroke-width="2" stroke-miterlimit="10" d="M41.397,198.911c0,0-3.175,7.047,0,11.023"/>
<path fill="none" stroke="#231F20" stroke-width="2" stroke-miterlimit="10" d="M279.739,192.139c0,0,18.943-2.732,26.443,2.768
	s7.25,10.25,5.25,16.5s-19.25,14.5,6.048,29.023"/>
<path fill="none" stroke="#231F20" stroke-width="2" stroke-miterlimit="10" d="M282.572,198.889c0,0,11.029-3.094,12.529,3.074
	c1.5,6.166-22.75,8.916-22.25,28.916s20.917,33.33,29.958,33.664"/>
<path fill="none" stroke="#231F20" stroke-width="2" stroke-miterlimit="10" d="M287.826,194.297c0,0,5.941-0.5,9.108,2.166"/>
<path fill="none" stroke="#231F20" stroke-width="2" stroke-miterlimit="10" d="M300.457,200.963c0,0,0.812,6.713-3.522,9.357"/>
<path fill="none" stroke="#231F20" stroke-width="2" stroke-miterlimit="10" d="M292.38,213.963c0,0-7.587,3-10.267,9.666"/>
<path fill="none" stroke="#231F20" stroke-width="2" stroke-miterlimit="10" d="M281.94,231.12c0,0-2.721,9.51,5.886,17.51"/>
<path fill="none" stroke="#231F20" stroke-width="2" stroke-miterlimit="10" d="M294.163,252.913c0,0,5.289,5.514,12.113,6.615"/>
<path fill="none" stroke="#231F20" stroke-width="2" stroke-miterlimit="10" d="M292.375,229.629
	c-1.059-8,6.351-13.908,6.351-13.908s-2.911,10.891,1.732,15.398"/>
<path fill="none" stroke="#231F20" stroke-width="2" stroke-miterlimit="10" d="M288.85,236.629c0,0,2.168,8,9.876,12"/>
<path fill="none" stroke="#231F20" stroke-width="2" stroke-miterlimit="10" d="M301.706,239.875c0,0,8.719,10.307,10.376,8.754"/>
<path fill="none" stroke="#231F20" stroke-width="2" stroke-miterlimit="10" d="M306.276,199.297c0,0,3.175,7.047,0,11.023"/>
<path fill="none" stroke="#231F20" stroke-width="2" stroke-miterlimit="10" d="M246.512,171.034c7.31,0,7.31,6,14.62,6
	c7.308,0,7.308-6,14.616-6c7.311,0,7.311,6,14.622,6c7.308,0,7.308-6,14.615-6c7.314,0,7.314,6,14.627,6c7.314,0,7.314-6,14.627-6"
	/>
<line fill="none" stroke="#231F20" stroke-width="2" stroke-miterlimit="10" x1="266.522" y1="144.834" x2="249.086" y2="144.834"/>
<line fill="none" stroke="#231F20" stroke-width="2" stroke-miterlimit="10" x1="254.255" y1="133.098" x2="236.818" y2="133.098"/>
<line fill="none" stroke="#231F20" stroke-width="2" stroke-miterlimit="10" x1="242.263" y1="121.36" x2="224.826" y2="121.36"/>
<line fill="none" stroke="#231F20" stroke-width="2" stroke-miterlimit="10" x1="230.437" y1="109.622" x2="213" y2="109.622"/>
<line fill="none" stroke="#231F20" stroke-width="2" stroke-miterlimit="10" x1="276.309" y1="156.573" x2="258.872" y2="156.573"/>
<line fill="none" stroke="#231F20" stroke-width="2" stroke-miterlimit="10" x1="327.879" y1="138.305" x2="317.941" y2="138.305"/>
<line fill="none" stroke="#231F20" stroke-width="2" stroke-miterlimit="10" x1="320.285" y1="130.711" x2="310.349" y2="130.711"/>
<line fill="none" stroke="#231F20" stroke-width="2" stroke-miterlimit="10" x1="313.817" y1="123.118" x2="303.881" y2="123.118"/>
<line fill="none" stroke="#231F20" stroke-width="2" stroke-miterlimit="10" x1="84.616" y1="144.834" x2="102.053" y2="144.834"/>
<line fill="none" stroke="#231F20" stroke-width="2" stroke-miterlimit="10" x1="96.884" y1="133.098" x2="114.321" y2="133.098"/>
<line fill="none" stroke="#231F20" stroke-width="2" stroke-miterlimit="10" x1="108.876" y1="121.36" x2="126.313" y2="121.36"/>
<line fill="none" stroke="#231F20" stroke-width="2" stroke-miterlimit="10" x1="120.703" y1="109.622" x2="138.14" y2="109.622"/>
<line fill="none" stroke="#231F20" stroke-width="2" stroke-miterlimit="10" x1="74.831" y1="156.573" x2="92.268" y2="156.573"/>
<polyline fill="none" stroke="#231F20" stroke-width="2" stroke-miterlimit="10" points="66.62,128.895 74.716,132.895 
	82.808,128.895 90.907,132.895 99.005,128.895 "/>
<polyline fill="none" stroke="#231F20" stroke-width="2" stroke-miterlimit="10" points="250.779,128.895 258.875,132.895 
	266.967,128.895 275.065,132.895 283.164,128.895 "/>
<polygon fill="#010101" points="236.818,99.26 244.174,99.26 244.174,92.555 249.972,92.555 249.972,99.26 257.327,99.26 
	257.327,105.059 249.972,105.059 249.972,111.764 244.174,111.764 244.174,105.059 236.818,105.059 "/>
<polygon fill="#010101" points="91.8,99.26 99.155,99.26 99.155,92.555 104.953,92.555 104.953,99.26 112.308,99.26 
	112.308,105.059 104.953,105.059 104.953,111.764 99.155,111.764 99.155,105.059 91.8,105.059 "/>
<g>
	<defs>
		<rect id="SVGID_1_" x="15.269" y="163.145" width="69.136" height="18.766"/>
	</defs>
	<clipPath id="SVGID_2_">
		<use xlink:href="#SVGID_1_"  overflow="visible"/>
	</clipPath>
	<path clip-path="url(#SVGID_2_)" fill="none" stroke="#231F20" stroke-width="2" stroke-miterlimit="10" d="M1,171.034
		c7.31,0,7.31,6,14.62,6c7.308,0,7.308-6,14.616-6c7.311,0,7.311,6,14.621,6c7.309,0,7.309-6,14.618-6c7.313,0,7.313,6,14.626,6
		c7.314,0,7.314-6,14.627-6"/>
</g>
<g>
	<defs>
		<rect id="SVGID_3_" x="15.269" y="149.399" width="53.638" height="18.766"/>
	</defs>
	<clipPath id="SVGID_4_">
		<use xlink:href="#SVGID_3_"  overflow="visible"/>
	</clipPath>
	<path clip-path="url(#SVGID_4_)" fill="none" stroke="#231F20" stroke-width="2" stroke-miterlimit="10" d="M1,157.288
		c7.31,0,7.31,6,14.62,6c7.308,0,7.308-6,14.616-6c7.311,0,7.311,6,14.621,6c7.309,0,7.309-6,14.617-6c7.314,0,7.314,6,14.627,6
		c7.314,0,7.314-6,14.627-6"/>
</g>
<g>
	<defs>
		<rect id="SVGID_5_" x="279.146" y="149.399" width="53.12" height="18.766"/>
	</defs>
	<clipPath id="SVGID_6_">
		<use xlink:href="#SVGID_5_"  overflow="visible"/>
	</clipPath>
	<path clip-path="url(#SVGID_6_)" fill="none" stroke="#231F20" stroke-width="2" stroke-miterlimit="10" d="M274.88,157.288
		c7.31,0,7.31,6,14.62,6c7.308,0,7.308-6,14.616-6c7.311,0,7.311,6,14.622,6c7.308,0,7.308-6,14.615-6c7.314,0,7.314,6,14.627,6
		c7.314,0,7.314-6,14.627-6"/>
</g>
<polyline fill="none" stroke="#231F20" stroke-width="2" stroke-miterlimit="10" points="77.771,214.338 84.706,216.635 
	91.641,214.338 98.577,216.635 105.51,214.338 112.449,216.635 119.393,214.338 126.336,216.635 "/>
<polyline fill="none" stroke="#231F20" stroke-width="2" stroke-miterlimit="10" points="215.834,225.432 224.28,228.344 
	232.729,225.432 241.176,228.344 249.628,225.432 258.08,228.344 "/>
<polyline fill="none" stroke="#231F20" stroke-width="2" stroke-miterlimit="10" points="228.354,211.168 237.592,214.352 
	246.831,211.168 256.067,214.352 265.312,211.168 274.554,214.352 "/>
<polyline fill="none" stroke="#231F20" stroke-width="2" stroke-miterlimit="10" points="63.828,269.493 75.431,273.493 
	87.037,269.493 98.64,273.493 110.251,269.493 121.862,273.493 "/>
<polyline fill="none" stroke="#231F20" stroke-width="2" stroke-miterlimit="10" points="225.665,274.139 237.269,278.139 
	248.875,274.139 260.478,278.139 272.089,274.139 283.699,278.139 "/>
<polyline fill="none" stroke="#231F20" stroke-width="2" stroke-miterlimit="10" points="64.318,203.641 75.921,207.641 
	87.527,203.641 99.13,207.641 110.741,203.641 122.353,207.641 "/>
<polygon fill="#231F20" points="63.312,197.954 62.713,197.954 63.079,196.045 63.74,196.12 "/>
<path d="M229.301,258.495c-1.975,1.742-3.593,1.203-5.479-0.424c-15.563-13.436-31.2-26.789-46.816-40.168
	c-1.036-0.887-2.078-1.764-3.375-2.865c-1.094,0.898-2.141,1.729-3.153,2.598c-15.454,13.242-30.904,26.49-46.356,39.734
	c-0.72,0.617-1.392,1.549-2.215,1.723c-1.065,0.225-2.739,0.232-3.263-0.402c-0.534-0.645-0.164-2.23,0.147-3.307
	c0.173-0.602,1.025-1.014,1.585-1.492c16.492-14.139,32.983-28.277,49.481-42.41c3.728-3.193,3.744-3.186,7.582,0.098
	c6.546,5.598,13.085,11.205,20.158,17.266v-19.518h10.18v4.934c0,6.959-0.096,13.922,0.082,20.879c0.035,1.35,0.796,3.057,1.8,3.947
	c6.457,5.727,13.076,11.271,19.643,16.877V258.495z"/>
<path d="M133.074,312.711V273.29c0-5.906-0.053-11.814,0.051-17.719c0.018-1.025,0.397-2.393,1.118-3.008
	c12.982-11.092,26.043-22.092,39.328-33.314c4.24,3.568,8.414,7.078,12.581,10.594c8.704,7.346,17.438,14.658,26.061,22.096
	c0.959,0.828,1.808,2.395,1.815,3.623c0.113,18.564,0.077,37.127,0.071,55.691c0,0.412-0.062,0.824-0.112,1.459H133.074z
	 M153.474,277.264h17.333v-17.336h-17.333V277.264z M193.619,260.018h-17.323v17.332h17.323V260.018z M153.465,300.045h17.333
	v-17.318h-17.333V300.045z M176.238,300.022h17.438v-17.27h-17.438V300.022z"/>
</svg>
