<?xml version="1.0" encoding="utf-8"?>
<!-- Generator: Adobe Illustrator 21.1.0, SVG Export Plug-In . SVG Version: 6.00 Build 0)  -->
<svg version="1.1" id="Layer_1" xmlns="http://www.w3.org/2000/svg" xmlns:xlink="http://www.w3.org/1999/xlink" x="0px" y="0px"
	 viewBox="0 0 304.7 303.3" style="enable-background:new 0 0 304.7 303.3;" xml:space="preserve">
<style type="text/css">
	.st0{fill:none;stroke:#231F20;stroke-width:3.3567;stroke-miterlimit:10;}
	.st1{fill:none;stroke:#231F20;stroke-width:2.5176;stroke-miterlimit:10;}
	.st2{fill:#231F20;}
	.st3{fill:none;stroke:#231F20;stroke-width:1.6784;stroke-miterlimit:10;}
	.st4{fill:none;stroke:#010101;stroke-width:2.5176;stroke-miterlimit:10;}
	.st5{fill:#010101;}
	.st6{clip-path:url(#SVGID_2_);}
	.st7{clip-path:url(#SVGID_4_);}
	.st8{clip-path:url(#SVGID_6_);}
</style>
<g>
	<circle class="st0" cx="151.8" cy="151.2" r="143.5"/>
	<circle class="st0" cx="151.8" cy="151.2" r="134"/>
	<g>
		<line class="st1" x1="151.9" y1="47.9" x2="151.9" y2="55.6"/>
		<line class="st1" x1="151.9" y1="35.5" x2="151.9" y2="43.2"/>
		<line class="st1" x1="151.9" y1="24.1" x2="151.9" y2="31.9"/>
	</g>
	<g>
		<line class="st1" x1="178" y1="57.3" x2="171" y2="64.3"/>
		<line class="st1" x1="187.9" y1="47.5" x2="180.9" y2="54.5"/>
		<line class="st1" x1="197.4" y1="38" x2="190.4" y2="45"/>
	</g>
	<g>
		<line class="st1" x1="187.2" y1="72.2" x2="178.4" y2="76.7"/>
		<line class="st1" x1="199.6" y1="65.9" x2="190.8" y2="70.4"/>
		<line class="st1" x1="211.6" y1="59.9" x2="202.8" y2="64.3"/>
	</g>
	<g>
		<line class="st1" x1="116.2" y1="72.2" x2="125.1" y2="76.7"/>
		<line class="st1" x1="103.8" y1="65.9" x2="112.6" y2="70.4"/>
		<line class="st1" x1="91.8" y1="59.9" x2="100.6" y2="64.3"/>
	</g>
	<g>
		<line class="st1" x1="127.6" y1="57.3" x2="134.6" y2="64.3"/>
		<line class="st1" x1="117.7" y1="47.5" x2="124.7" y2="54.5"/>
		<line class="st1" x1="108.2" y1="38" x2="115.2" y2="45"/>
	</g>
	<g>
		<g>
			<polygon class="st2" points="223.8,154.2 227.2,153.2 152.7,78.8 150.5,80.9 			"/>
			<polygon class="st2" points="79.9,154.1 153.8,79.9 151.6,77.7 77.7,152 			"/>
			<line class="st3" x1="99.6" y1="133.5" x2="114.3" y2="133.5"/>
			<line class="st3" x1="108.4" y1="123.7" x2="123.1" y2="123.7"/>
			<line class="st3" x1="118.3" y1="113.8" x2="133" y2="113.8"/>
			<line class="st3" x1="204.2" y1="133.5" x2="189.6" y2="133.5"/>
			<line class="st3" x1="194.1" y1="123.7" x2="179.5" y2="123.7"/>
			<line class="st3" x1="184.2" y1="113.8" x2="169.6" y2="113.8"/>
		</g>
		<g>
			<polyline class="st3" points="129.9,100.3 137.2,105.4 144.6,100.3 151.9,105.4 159.2,100.3 166.5,105.4 173.8,100.3 			"/>
		</g>
	</g>
	<g>
		
			<rect x="217.5" y="69.1" transform="matrix(0.7072 -0.707 0.707 0.7072 -19.3614 189.4707)" class="st2" width="3.1" height="98"/>
		
			<rect x="166.9" y="88.7" transform="matrix(0.6983 -0.7158 0.7158 0.6983 -10.9695 154.5304)" class="st2" width="21.9" height="3.1"/>
	</g>
	<g>
		<polygon class="st2" points="270.6,142.4 274.1,141.6 230.5,98 228.4,100.2 		"/>
		
			<rect x="211.9" y="104.4" transform="matrix(0.6984 -0.7157 0.7157 0.6984 -8.567 191.4521)" class="st2" width="21.9" height="3.1"/>
	</g>
	<g>
		<rect x="270.3" y="96" transform="matrix(0.7072 -0.707 0.707 0.7072 0.3737 224.9798)" class="st2" width="3.1" height="32.1"/>
		
			<rect x="242.9" y="106" transform="matrix(0.6983 -0.7158 0.7158 0.6983 -0.36 214.1433)" class="st2" width="21.9" height="3.1"/>
	</g>
	<g>
		
			<rect x="42.2" y="114.6" transform="matrix(0.707 -0.7072 0.7072 0.707 -56.2365 96.6076)" class="st2" width="92.5" height="3.1"/>
		
			<rect x="126.2" y="79.3" transform="matrix(0.7158 -0.6983 0.6983 0.7158 -26.7294 114.885)" class="st2" width="3.1" height="21.9"/>
	</g>
	<g>
		<rect x="28" y="117.5" transform="matrix(0.707 -0.7072 0.7072 0.707 -67.7022 74.6302)" class="st2" width="56.4" height="3.1"/>
		
			<rect x="81.2" y="94.9" transform="matrix(0.7157 -0.6984 0.6984 0.7157 -50.4283 87.8896)" class="st2" width="3.1" height="21.9"/>
	</g>
	<g>
		
			<rect x="15" y="111.7" transform="matrix(0.7071 -0.7072 0.7072 0.7071 -70.4787 56.255)" class="st2" width="35.3" height="3.1"/>
		
			<rect x="50.2" y="96.5" transform="matrix(0.7158 -0.6983 0.6983 0.7158 -60.3633 66.6868)" class="st2" width="3.1" height="21.9"/>
	</g>
	<path class="st4" d="M139.8,90.2c-2.7-2.9-4.4-6.8-4.4-11.2c0-9.1,7.4-16.4,16.4-16.4c9.1,0,16.4,7.4,16.4,16.4
		c0,4.4-1.7,8.4-4.5,11.3"/>
	<g>
		<polygon class="st2" points="128.1,171 139,175.7 149.8,171 160.6,175.7 171.4,171 182.3,175.7 193.1,171 203.9,175.7 214.7,171 
			226.1,175.9 236.4,172 244.2,175 243.5,173.3 243.5,173.3 243.4,173.1 243,172 240.2,165 239,164.7 240,164.4 237.8,159 
			235.7,164.3 236.8,164.7 235.4,165.1 232.7,171.8 232.4,171 229.2,162.8 227.7,162.4 228.9,162.1 226.3,155.6 223.8,162 
			225.1,162.4 223.4,162.9 220.9,169.3 220,167.2 214.6,153.5 212.2,152.8 214.1,152.3 209.8,141.5 205.6,152.1 207.9,152.8 
			205,153.7 200.4,165.3 199.6,163.4 198.4,163 199.4,162.7 197.2,157.3 195.1,162.7 196.2,163 194.8,163.4 193.3,167.1 
			191.4,161.5 190.1,161 191.1,160.6 188.7,153.6 186.3,160.6 187.6,161 185.9,161.6 184.8,165 181,154 178.9,153.3 180.5,152.8 
			176.9,142.3 173.4,152.7 175.3,153.3 172.9,154.2 168.3,167.4 167.5,169.7 166.5,172.8 166.4,172.5 165.9,171.2 163.2,163.2 
			162,162.8 162.9,162.5 160.8,156.2 158.6,162.4 159.8,162.8 158.3,163.3 155.7,171 155.4,170.2 152.1,160.7 150.7,160.2 
			151.8,159.8 149.3,152.3 146.7,159.7 148.1,160.2 146.4,160.8 143.8,168.2 143,165.7 137.6,149.9 135.2,149.1 137,148.5 
			132.8,136.1 128.6,148.3 130.9,149.1 128,150.1 125.4,157.6 124.2,154 122.2,153.3 123.8,152.8 120.2,142.3 116.7,152.7 
			118.6,153.3 116.1,154.2 111.7,167.4 110.9,169.7 110.5,170.9 119.3,174.8 		"/>
		<polygon class="st2" points="74,173.9 84.8,169.2 95.6,173.9 106.5,169.2 109,170.3 106.6,163.2 105.4,162.8 106.3,162.5 
			104.2,156.2 102.1,162.4 103.2,162.8 101.8,163.3 99.1,171 98.9,170.2 95.6,160.7 94.2,160.2 95.3,159.8 92.8,152.3 90.3,159.7 
			91.7,160.2 89.9,160.8 87.4,168.2 86.6,165.7 81.2,149.9 78.9,149.1 80.7,148.5 76.5,136.1 72.3,148.3 74.6,149.1 71.7,150.1 
			67.2,163.5 66.4,161.3 65.2,160.9 66.1,160.5 64,154.3 61.9,160.5 63,160.9 61.6,161.4 58.9,169.2 58.5,170.6 58.2,171.4 
			63.2,169.2 		"/>
	</g>
	<g>
		<path class="st3" d="M60.5,165.4c0,0-14-1.6-20.3,3s-6.1,8.6-4.4,13.8c1.7,5.2,16.2,12.2-5.1,24.4"/>
		<path class="st3" d="M58.3,170.5c0,0-8.4-1-8.9,3.8c-0.6,5.3,19.1,7.5,18.7,24.3s-17.6,28-25.1,28.3"/>
		<path class="st3" d="M55.6,167.8c0,0-5-0.4-7.6,1.8"/>
		<path class="st3" d="M45,173.4c0,0-0.7,5.6,3,7.9"/>
		<path class="st3" d="M51.7,184.4c0,0,6.4,2.5,8.6,8.1"/>
		<path class="st3" d="M60.5,198.7c0,0,2.3,8-4.9,14.7"/>
		<path class="st3" d="M50.2,217c0,0-4.4,4.6-10.2,5.6"/>
		<path class="st3" d="M51.7,197.5c0.9-6.7-5.3-11.7-5.3-11.7s2.4,9.1-1.5,12.9"/>
		<path class="st3" d="M54.7,203.4c0,0-1.8,6.7-8.3,10.1"/>
		<path class="st3" d="M43.9,206.1c0,0-7.3,8.6-8.7,7.3"/>
		<path class="st3" d="M40.1,172c0,0-2.7,5.9,0,9.3"/>
	</g>
	<g>
		<path class="st3" d="M240.1,166.4c0,0,15.9-2.3,22.2,2.3c6.3,4.6,6.1,8.6,4.4,13.8c-1.7,5.2-16.2,12.2,5.1,24.4"/>
		<path class="st3" d="M242.5,172c0,0,9.3-2.6,10.5,2.6c1.3,5.2-19.1,7.5-18.7,24.3c0.4,16.8,17.6,28,25.1,28.3"/>
		<path class="st3" d="M246.9,168.2c0,0,5-0.4,7.6,1.8"/>
		<path class="st3" d="M257.5,173.8c0,0,0.7,5.6-3,7.9"/>
		<path class="st3" d="M250.7,184.7c0,0-6.4,2.5-8.6,8.1"/>
		<path class="st3" d="M241.9,199.1c0,0-2.3,8,4.9,14.7"/>
		<path class="st3" d="M252.2,217.4c0,0,4.4,4.6,10.2,5.6"/>
		<path class="st3" d="M250.7,197.8c-0.9-6.7,5.3-11.7,5.3-11.7s-2.4,9.1,1.5,12.9"/>
		<path class="st3" d="M247.7,203.7c0,0,1.8,6.7,8.3,10.1"/>
		<path class="st3" d="M258.5,206.4c0,0,7.3,8.6,8.7,7.3"/>
		<path class="st3" d="M262.4,172.4c0,0,2.7,5.9,0,9.3"/>
	</g>
	<g>
		<path class="st3" d="M212.2,148.6c6.1,0,6.1,5,12.3,5c6.1,0,6.1-5,12.3-5c6.1,0,6.1,5,12.3,5c6.1,0,6.1-5,12.3-5
			c6.1,0,6.1,5,12.3,5c6.1,0,6.1-5,12.3-5"/>
	</g>
	<g>
		<line class="st3" x1="229" y1="126.7" x2="214.4" y2="126.7"/>
		<line class="st3" x1="218.7" y1="116.8" x2="204.1" y2="116.8"/>
		<line class="st3" x1="208.6" y1="107" x2="194" y2="107"/>
		<line class="st3" x1="198.7" y1="97.1" x2="184.1" y2="97.1"/>
		<line class="st3" x1="237.2" y1="136.5" x2="222.6" y2="136.5"/>
	</g>
	<line class="st3" x1="280.5" y1="121.2" x2="272.1" y2="121.2"/>
	<line class="st3" x1="274.1" y1="114.8" x2="265.8" y2="114.8"/>
	<line class="st3" x1="268.7" y1="108.4" x2="260.3" y2="108.4"/>
	<g>
		<line class="st3" x1="76.3" y1="126.7" x2="91" y2="126.7"/>
		<line class="st3" x1="86.6" y1="116.8" x2="101.3" y2="116.8"/>
		<line class="st3" x1="96.7" y1="107" x2="111.3" y2="107"/>
		<line class="st3" x1="106.6" y1="97.1" x2="121.3" y2="97.1"/>
		<line class="st3" x1="68.1" y1="136.5" x2="82.8" y2="136.5"/>
	</g>
	<g>
		<polyline class="st3" points="61.2,113.3 68,116.6 74.8,113.3 81.6,116.6 88.4,113.3 		"/>
	</g>
	<g>
		<polyline class="st3" points="215.8,113.3 222.6,116.6 229.4,113.3 236.2,116.6 243,113.3 		"/>
	</g>
	<g>
		<path class="st3" d="M8.3,6"/>
	</g>
	<g>
		<path class="st3" d="M8.3,6"/>
	</g>
	<g>
		<path class="st5" d="M204.1,88.4h6.2v-5.6h4.9v5.6h6.2v4.9h-6.2v5.6h-4.9v-5.6h-6.2V88.4z"/>
	</g>
	<g>
		<path class="st5" d="M82.4,88.4h6.2v-5.6h4.9v5.6h6.2v4.9h-6.2v5.6h-4.9v-5.6h-6.2V88.4z"/>
	</g>
	<g>
		<defs>
			<rect id="SVGID_1_" x="18.1" y="142" width="58" height="15.7"/>
		</defs>
		<clipPath id="SVGID_2_">
			<use xlink:href="#SVGID_1_"  style="overflow:visible;"/>
		</clipPath>
		<g class="st6">
			<path class="st3" d="M6.2,148.6c6.1,0,6.1,5,12.3,5c6.1,0,6.1-5,12.3-5c6.1,0,6.1,5,12.3,5c6.1,0,6.1-5,12.3-5
				c6.1,0,6.1,5,12.3,5c6.1,0,6.1-5,12.3-5"/>
		</g>
	</g>
	<g>
		<defs>
			<rect id="SVGID_3_" x="18.1" y="130.5" width="45" height="15.7"/>
		</defs>
		<clipPath id="SVGID_4_">
			<use xlink:href="#SVGID_3_"  style="overflow:visible;"/>
		</clipPath>
		<g class="st7">
			<path class="st3" d="M6.2,137.1c6.1,0,6.1,5,12.3,5c6.1,0,6.1-5,12.3-5c6.1,0,6.1,5,12.3,5c6.1,0,6.1-5,12.3-5
				c6.1,0,6.1,5,12.3,5c6.1,0,6.1-5,12.3-5"/>
		</g>
	</g>
	<g>
		<defs>
			<rect id="SVGID_5_" x="239.6" y="130.5" width="44.6" height="15.7"/>
		</defs>
		<clipPath id="SVGID_6_">
			<use xlink:href="#SVGID_5_"  style="overflow:visible;"/>
		</clipPath>
		<g class="st8">
			<path class="st3" d="M236,137.1c6.1,0,6.1,5,12.3,5c6.1,0,6.1-5,12.3-5c6.1,0,6.1,5,12.3,5c6.1,0,6.1-5,12.3-5
				c6.1,0,6.1,5,12.3,5c6.1,0,6.1-5,12.3-5"/>
		</g>
	</g>
	<g>
		<defs>
			<rect id="SVGID_7_" x="239.6" y="130.5" width="46.6" height="15.7"/>
		</defs>
		<clipPath id="SVGID_8_">
			<use xlink:href="#SVGID_7_"  style="overflow:visible;"/>
		</clipPath>
	</g>
	<g>
		<polyline class="st3" points="70.6,185 76.4,186.9 82.2,185 88.1,186.9 93.9,185 99.7,186.9 105.5,185 111.4,186.9 		"/>
	</g>
	<g>
		<polyline class="st3" points="186.5,194.3 193.5,196.7 200.6,194.3 207.7,196.7 214.8,194.3 221.9,196.7 		"/>
	</g>
	<g>
		<polyline class="st3" points="197,182.3 204.7,185 212.5,182.3 220.2,185 228,182.3 235.7,185 		"/>
	</g>
	<g>
		<polyline class="st3" points="58.9,231.3 68.6,234.6 78.4,231.3 88.1,234.6 97.9,231.3 107.6,234.6 		"/>
	</g>
	<g>
		<polyline class="st3" points="194.7,235.2 204.4,238.5 214.2,235.2 223.9,238.5 233.7,235.2 243.4,238.5 		"/>
	</g>
	<g>
		<polyline class="st3" points="59.3,176 69,179.4 78.8,176 88.5,179.4 98.3,176 108,179.4 		"/>
	</g>
	<polygon class="st2" points="58.5,171.2 58,171.2 58.3,169.6 58.8,169.7 	"/>
	<g>
		<path d="M197.8,222c-1.7,1.5-3,1-4.6-0.4c-13.1-11.3-26.2-22.5-39.3-33.7c-0.9-0.7-1.7-1.5-2.8-2.4c-0.9,0.8-1.8,1.5-2.6,2.2
			c-13,11.1-25.9,22.2-38.9,33.3c-0.6,0.5-1.2,1.3-1.9,1.4c-0.9,0.2-2.3,0.2-2.7-0.3c-0.4-0.5-0.1-1.9,0.1-2.8
			c0.1-0.5,0.9-0.8,1.3-1.3c13.8-11.9,27.7-23.7,41.5-35.6c3.1-2.7,3.1-2.7,6.4,0.1c5.5,4.7,11,9.4,16.9,14.5c0-5.8,0-11,0-16.4
			c2.9,0,5.5,0,8.5,0c0,1.4,0,2.8,0,4.1c0,5.8-0.1,11.7,0.1,17.5c0,1.1,0.7,2.6,1.5,3.3c5.4,4.8,11,9.5,16.5,14.2
			C197.8,220.6,197.8,221.3,197.8,222z"/>
		<path d="M117,267.5c0-11.2,0-22.1,0-33.1c0-5,0-9.9,0-14.9c0-0.9,0.3-2,0.9-2.5c10.9-9.3,21.9-18.5,33-28c3.6,3,7.1,5.9,10.6,8.9
			c7.3,6.2,14.6,12.3,21.9,18.5c0.8,0.7,1.5,2,1.5,3c0.1,15.6,0.1,31.2,0.1,46.7c0,0.3-0.1,0.7-0.1,1.2
			C162.4,267.5,139.9,267.5,117,267.5z M134.1,237.8c5,0,9.8,0,14.5,0c0-5,0-9.8,0-14.5c-5,0-9.7,0-14.5,0
			C134.1,228.1,134.1,232.9,134.1,237.8z M167.8,237.9c0-5,0-9.8,0-14.5c-5,0-9.8,0-14.5,0c0,5,0,9.7,0,14.5
			C158.2,237.9,162.9,237.9,167.8,237.9z M134.1,256.9c5,0,9.8,0,14.5,0c0-5,0-9.8,0-14.5c-5,0-9.7,0-14.5,0
			C134.1,247.3,134.1,252,134.1,256.9z M153.2,256.9c5.1,0,9.9,0,14.6,0c0-5,0-9.7,0-14.5c-4.9,0-9.7,0-14.6,0
			C153.2,247.3,153.2,252,153.2,256.9z"/>
	</g>
</g>
</svg>
