<?xml version="1.0" encoding="utf-8"?>
<!-- Generator: Adobe Illustrator 21.1.0, SVG Export Plug-In . SVG Version: 6.00 Build 0)  -->
<svg version="1.1" id="Layer_1" xmlns="http://www.w3.org/2000/svg" xmlns:xlink="http://www.w3.org/1999/xlink" x="0px" y="0px"
	 viewBox="0 0 304.7 303.3" style="enable-background:new 0 0 304.7 303.3;" xml:space="preserve">
<style type="text/css">
	.st0{fill:none;stroke:#231F20;stroke-width:3.3538;stroke-miterlimit:10;}
	.st1{fill:none;stroke:#231F20;stroke-width:2.5153;stroke-miterlimit:10;}
	.st2{fill:#231F20;}
	.st3{fill:none;stroke:#231F20;stroke-width:1.6769;stroke-miterlimit:10;}
	.st4{fill:none;stroke:#010101;stroke-width:2.5153;stroke-miterlimit:10;}
	.st5{fill:none;}
	.st6{fill:#010101;}
	.st7{clip-path:url(#SVGID_2_);}
	.st8{clip-path:url(#SVGID_4_);}
	.st9{clip-path:url(#SVGID_6_);}
</style>
<g>
	<circle class="st0" cx="152.3" cy="150.7" r="143.4"/>
	<circle class="st0" cx="152.3" cy="150.7" r="133.9"/>
	<line class="st1" x1="152.3" y1="47.6" x2="152.3" y2="55.3"/>
	<line class="st1" x1="152.3" y1="35.2" x2="152.3" y2="42.9"/>
	<line class="st1" x1="152.3" y1="23.8" x2="152.3" y2="31.5"/>
	<g>
		<line class="st1" x1="178.4" y1="57" x2="171.4" y2="64"/>
		<line class="st1" x1="188.3" y1="47.1" x2="181.3" y2="54.1"/>
		<line class="st1" x1="197.8" y1="37.7" x2="190.8" y2="44.6"/>
	</g>
	<g>
		<line class="st1" x1="187.6" y1="71.8" x2="178.8" y2="76.3"/>
		<line class="st1" x1="200" y1="65.6" x2="191.2" y2="70"/>
		<line class="st1" x1="212" y1="59.5" x2="203.2" y2="64"/>
	</g>
	<g>
		<line class="st1" x1="116.7" y1="71.8" x2="125.5" y2="76.3"/>
		<line class="st1" x1="104.3" y1="65.6" x2="113.1" y2="70"/>
		<line class="st1" x1="92.3" y1="59.5" x2="101.1" y2="64"/>
	</g>
	<g>
		<line class="st1" x1="128" y1="57" x2="135" y2="64"/>
		<line class="st1" x1="118.2" y1="47.1" x2="125.2" y2="54.1"/>
		<line class="st1" x1="108.7" y1="37.7" x2="115.7" y2="44.6"/>
	</g>
	<g>
		<g>
			<polygon class="st2" points="224.2,153.8 227.5,152.8 153.1,78.4 151,80.6 			"/>
			<polygon class="st2" points="80.4,153.7 154.2,79.5 152,77.4 78.2,151.5 			"/>
			<line class="st3" x1="100.1" y1="133.1" x2="114.7" y2="133.1"/>
			<line class="st3" x1="108.9" y1="123.3" x2="123.5" y2="123.3"/>
			<line class="st3" x1="118.8" y1="113.4" x2="133.4" y2="113.4"/>
			<line class="st3" x1="204.6" y1="133.1" x2="190" y2="133.1"/>
			<line class="st3" x1="194.5" y1="123.3" x2="179.9" y2="123.3"/>
			<line class="st3" x1="184.6" y1="113.4" x2="170" y2="113.4"/>
		</g>
		<g>
			<polyline class="st3" points="130.4,99.9 137.7,105 145,99.9 152.3,105 159.6,99.9 166.9,105 174.3,99.9 			"/>
		</g>
	</g>
	<g>
		
			<rect x="217.9" y="68.8" transform="matrix(0.7072 -0.707 0.707 0.7072 -18.9661 189.6187)" class="st2" width="3.1" height="97.9"/>
		
			<rect x="167.3" y="88.4" transform="matrix(0.6983 -0.7158 0.7158 0.6983 -10.5752 154.7093)" class="st2" width="21.9" height="3.1"/>
	</g>
	<g>
		<polygon class="st2" points="270.9,141.9 274.4,141.1 230.9,97.6 228.7,99.8 		"/>
		
			<rect x="212.3" y="104" transform="matrix(0.6983 -0.7158 0.7158 0.6983 -8.1705 191.6103)" class="st2" width="21.9" height="3.1"/>
	</g>
	<g>
		
			<rect x="270.6" y="95.6" transform="matrix(0.7071 -0.7071 0.7071 0.7071 0.7614 225.1216)" class="st2" width="3.1" height="32"/>
		
			<rect x="243.3" y="105.6" transform="matrix(0.6983 -0.7158 0.7158 0.6983 2.416760e-02 214.2688)" class="st2" width="21.9" height="3.1"/>
	</g>
	<g>
		
			<rect x="42.8" y="114.2" transform="matrix(0.7071 -0.7072 0.7072 0.7071 -55.8084 96.8356)" class="st2" width="92.4" height="3.1"/>
		
			<rect x="126.7" y="78.9" transform="matrix(0.7158 -0.6983 0.6983 0.7158 -26.3351 115.0988)" class="st2" width="3.1" height="21.9"/>
	</g>
	<g>
		
			<rect x="28.6" y="117.1" transform="matrix(0.7071 -0.7071 0.7071 0.7071 -67.2591 74.8656)" class="st2" width="56.3" height="3.1"/>
		
			<rect x="81.7" y="94.5" transform="matrix(0.7158 -0.6983 0.6983 0.7158 -50.0126 88.1198)" class="st2" width="3.1" height="21.9"/>
	</g>
	<g>
		
			<rect x="15.5" y="111.3" transform="matrix(0.7071 -0.7071 0.7071 0.7071 -70.0344 56.5132)" class="st2" width="35.3" height="3.1"/>
		
			<rect x="50.7" y="96.1" transform="matrix(0.7158 -0.6983 0.6983 0.7158 -59.9403 66.9428)" class="st2" width="3.1" height="21.9"/>
	</g>
	<path class="st4" d="M140.2,89.8c-2.7-2.9-4.4-6.8-4.4-11.1c0-9.1,7.3-16.4,16.4-16.4c9.1,0,16.4,7.3,16.4,16.4
		c0,4.4-1.7,8.4-4.5,11.3"/>
	<polygon class="st5" points="226.5,176.4 226.5,176.3 226.4,176.3 	"/>
	<polygon class="st2" points="129.6,161.1 131.2,160.6 129.9,160.1 132.3,153.1 134.7,160.2 133.6,160.6 135,161 138,170 
		138.5,171.5 140,175.9 150.2,171.4 161,176.1 171.8,171.4 182.7,176.1 191.5,172.3 192,171 192.5,169.8 193.7,166.6 191.8,161 
		190.5,160.6 191.5,160.2 189.1,153.1 186.7,160.1 188,160.6 186.4,161.1 185.2,164.6 181.4,153.6 179.4,152.9 181,152.4 
		177.4,141.9 173.8,152.3 175.7,152.9 173.3,153.8 168.7,166.9 168,169.2 166.9,172.3 166.8,172.1 166.4,170.8 163.6,162.8 
		162.4,162.3 163.3,162 161.2,155.8 159.1,162 160.2,162.3 158.8,162.8 156.1,170.6 155.8,169.7 152.6,160.2 151.1,159.7 
		152.3,159.3 149.7,151.9 147.2,159.3 148.5,159.7 146.8,160.3 144.3,167.7 143.4,165.3 138,149.5 135.6,148.7 137.5,148 
		133.2,135.7 129,147.9 131.3,148.7 128.4,149.7 125.8,157.2 128.4,164.6 	"/>
	<polygon class="st2" points="117.9,174.4 119.7,175.2 119.9,174.4 	"/>
	<polygon class="st2" points="115,170.2 115.5,168.8 118.2,160.9 119.7,160.4 118.5,160 120.6,153.8 122.8,160.1 121.8,160.4 
		123,160.8 123.8,163.1 125.8,157.2 124.6,153.6 122.6,152.9 124.2,152.4 120.7,141.9 117.1,152.3 119,152.9 116.6,153.8 
		112.1,166.9 111.4,169.2 110.7,171.2 114.1,172.8 	"/>
	<polygon class="st2" points="74.5,174.4 85.3,169.6 96.1,174.4 106.9,169.6 109.8,170.9 109.8,170.8 107,162.8 105.8,162.3 
		106.8,162 104.7,155.8 102.6,162 103.7,162.3 102.3,162.8 99.6,170.6 99.3,169.7 96.1,160.2 94.7,159.7 95.8,159.3 93.3,151.9 
		90.8,159.3 92.1,159.7 90.4,160.3 87.9,167.7 87.1,165.3 81.7,149.5 79.4,148.7 81.2,148 77,135.7 72.8,147.9 75.1,148.7 
		72.2,149.7 67.7,163.1 66.9,160.8 65.7,160.4 66.7,160.1 64.5,153.8 62.4,160 63.6,160.4 62.1,160.9 59.4,168.8 59,170.2 
		58.4,171.9 63.7,169.6 	"/>
	<polygon class="st2" points="123,160.8 121.8,160.4 122.8,160.1 120.6,153.8 118.5,160 119.7,160.4 118.2,160.9 115.5,168.8 
		115,170.2 114.1,172.8 117.9,174.4 119.9,174.4 119.7,175.2 119.8,175.3 128.6,171.4 139.4,176.1 140,175.9 138.5,171.5 138,170 
		135,161 133.6,160.6 134.7,160.2 132.3,153.1 129.9,160.1 131.2,160.6 129.6,161.1 128.4,164.6 125.8,157.2 123.8,163.1 	"/>
	<polygon class="st2" points="195.4,171.5 195.7,172.4 204.3,176.1 215.1,171.4 226.4,176.3 226.5,176.3 236.8,172.5 245,175.6 
		243.9,172.8 243.9,172.9 243.8,172.6 243.3,171.5 240.6,164.6 239.4,164.2 240.3,163.9 238.2,158.5 236,163.9 237.2,164.2 
		235.7,164.7 233.1,171.3 232.8,170.6 229.5,162.4 228.1,162 229.2,161.6 226.7,155.2 224.2,161.6 225.5,162 223.8,162.5 
		221.2,168.9 220.4,166.8 215,153.1 212.6,152.4 214.5,151.8 210.2,141.1 206,151.7 208.3,152.4 205.4,153.2 200.8,164.9 200,162.9 
		198.8,162.6 199.8,162.3 197.6,156.9 195.5,162.2 196.6,162.6 195.2,163 193.7,166.6 194.9,170 	"/>
	<polygon class="st2" points="192,171 191.5,172.3 193.5,171.4 195.7,172.4 195.4,171.5 194.9,170 193.7,166.6 192.5,169.8 	"/>
	<path class="st2" d="M212.8,244L212.8,244l-8.7-6.9l-0.1,0l-15.3-5.2l-5.8-5.4l-4.3-6.6l-0.1-0.1l-10.8-4.2l-0.1,0l-19.3-1.5
		l-13.2-2.9l-6.3-3.4l-10.1-8.3l8.7-2.3l0-0.4l-10.9-4.7l-5.2-4.3l-0.1,0l-3.3-0.4l-7.7-8.7l-0.3,0l-1.6,1l-0.1,0.2l-0.3,4.9
		l1.4,3.7l-1.4-0.2l-4-2.2l-0.3,0.2l0,3.7l0,0.1l3.7,4.8l2.3,6.6l2.4,12.4l3.3,5.6l1.2,4.7l0,0.1l13.6,18.6l3.7,9.9l2.4,6.6
		l-0.1,9.1l-3,2l-0.1,0.1l-1.1,2.2l0.2,0.3h9.4l0.2-0.2l-0.9-6.3l0.6-6.8l-0.8-7l-0.2-6.7l2-4.6l11,2l0.1,0l15.8-3.4l7.2,9.7l7.4,5
		l4.3,7.9l-1.3,6.1l-3,2l-0.1,0.1l-0.9,2l0.2,0.3h8.1l0.2-0.2v-4.2l2-6.8v-0.1l-0.9-2.7l-0.5-5.8l-2.9-10.3l2.8-3.9l6.7,6.4l8.2,3.9
		l12.3,1.7l7.9,4.1l0.3-0.3L212.8,244z M113,193.1l-2.7-0.5l-1.2-1.7l2.1,0.5L113,193.1z"/>
	<g>
		<path class="st3" d="M61.4,164.6c0,0-14.7-2.3-20.7,4.7c-5.1,5.9-6,9.8-4.3,15c1.7,5.2,16.1,12.2-5.1,24.3"/>
		<path class="st3" d="M59.4,170.6c0,0-8.2,2.3-8.3,6.5c-0.1,5.3,18,6.7,17.6,23.5s-17.5,27.9-25.1,28.2"/>
		<path class="st3" d="M54.7,167.9c-2.6,0.7-4.4,0.6-6.6,4.2"/>
		<path class="st3" d="M45.5,175.5c0,0-0.7,5.6,3,7.8"/>
		<path class="st3" d="M52.3,186.4c0,0,6.4,2.5,8.6,8.1"/>
		<path class="st3" d="M61,200.8c0,0,2.3,8-4.9,14.7"/>
		<path class="st3" d="M50.8,219.1c0,0-4.4,4.6-10.2,5.5"/>
		<path class="st3" d="M52.3,199.5c0.9-6.7-5.3-11.7-5.3-11.7s2.4,9.1-1.5,12.9"/>
		<path class="st3" d="M55.2,205.4c0,0-1.8,6.7-8.3,10.1"/>
		<path class="st3" d="M44.4,208.1c0,0-7.3,8.6-8.7,7.3"/>
		<path class="st3" d="M40.6,174.1c0,0-2.7,5.9,0,9.2"/>
	</g>
	<g>
		<path class="st3" d="M239.9,167.5c0,0,16.4-1.3,22.7,3.3c6.3,4.6,6.1,8.6,4.4,13.8s-16.1,12.2,5.1,24.3"/>
		<path class="st3" d="M242.3,173.5c0,0,9.8-2,11,3.2c1.3,5.2-19.1,7.5-18.7,24.2s17.5,27.9,25.1,28.2"/>
		<path class="st3" d="M247.2,170.2c0,0,5-0.4,7.6,1.8"/>
		<path class="st3" d="M257.8,175.8c0,0,0.7,5.6-3,7.8"/>
		<path class="st3" d="M251,186.7c0,0-6.4,2.5-8.6,8.1"/>
		<path class="st3" d="M242.3,201.1c0,0-2.3,8,4.9,14.7"/>
		<path class="st3" d="M252.5,219.4c0,0,4.4,4.6,10.2,5.5"/>
		<path class="st3" d="M251,199.9c-0.9-6.7,5.3-11.7,5.3-11.7s-2.4,9.1,1.5,12.9"/>
		<path class="st3" d="M248.1,205.7c0,0,1.8,6.7,8.3,10.1"/>
		<path class="st3" d="M258.9,208.5c0,0,7.3,8.6,8.7,7.3"/>
		<path class="st3" d="M262.7,174.4c0,0,2.7,5.9,0,9.2"/>
	</g>
	<g>
		<path class="st3" d="M212.6,148.2c6.1,0,6.1,5,12.3,5c6.1,0,6.1-5,12.3-5c6.1,0,6.1,5,12.3,5c6.1,0,6.1-5,12.3-5
			c6.1,0,6.1,5,12.3,5c6.1,0,6.1-5,12.3-5"/>
	</g>
	<g>
		<line class="st3" x1="229.4" y1="126.3" x2="214.7" y2="126.3"/>
		<line class="st3" x1="219.1" y1="116.4" x2="204.5" y2="116.4"/>
		<line class="st3" x1="209" y1="106.6" x2="194.4" y2="106.6"/>
		<line class="st3" x1="199.1" y1="96.7" x2="184.5" y2="96.7"/>
		<line class="st3" x1="237.6" y1="136.1" x2="223" y2="136.1"/>
	</g>
	<line class="st3" x1="280.8" y1="120.8" x2="272.5" y2="120.8"/>
	<line class="st3" x1="274.4" y1="114.4" x2="266.1" y2="114.4"/>
	<line class="st3" x1="269" y1="108" x2="260.7" y2="108"/>
	<g>
		<line class="st3" x1="76.8" y1="126.3" x2="91.5" y2="126.3"/>
		<line class="st3" x1="87.1" y1="116.4" x2="101.8" y2="116.4"/>
		<line class="st3" x1="97.2" y1="106.6" x2="111.8" y2="106.6"/>
		<line class="st3" x1="107.1" y1="96.7" x2="121.7" y2="96.7"/>
		<line class="st3" x1="68.6" y1="136.1" x2="83.3" y2="136.1"/>
	</g>
	<g>
		<polyline class="st3" points="61.8,112.9 68.5,116.2 75.3,112.9 82.1,116.2 88.9,112.9 		"/>
	</g>
	<g>
		<polyline class="st3" points="216.2,112.9 222.9,116.2 229.7,112.9 236.5,116.2 243.3,112.9 		"/>
	</g>
	<g>
		<path class="st3" d="M8.3,6"/>
	</g>
	<g>
		<path class="st3" d="M8.3,6"/>
	</g>
	<g>
		<path class="st6" d="M204.5,88h6.2v-5.6h4.9V88h6.2v4.9h-6.2v5.6h-4.9v-5.6h-6.2V88z"/>
	</g>
	<g>
		<path class="st6" d="M82.9,88H89v-5.6h4.9V88h6.2v4.9h-6.2v5.6H89v-5.6h-6.2V88z"/>
	</g>
	<g>
		<defs>
			<rect id="SVGID_1_" x="18.7" y="141.6" width="58" height="15.7"/>
		</defs>
		<clipPath id="SVGID_2_">
			<use xlink:href="#SVGID_1_"  style="overflow:visible;"/>
		</clipPath>
		<g class="st7">
			<path class="st3" d="M6.7,148.2c6.1,0,6.1,5,12.3,5c6.1,0,6.1-5,12.3-5c6.1,0,6.1,5,12.3,5c6.1,0,6.1-5,12.3-5
				c6.1,0,6.1,5,12.3,5c6.1,0,6.1-5,12.3-5"/>
		</g>
	</g>
	<g>
		<defs>
			<rect id="SVGID_3_" x="18.7" y="130.1" width="45" height="15.7"/>
		</defs>
		<clipPath id="SVGID_4_">
			<use xlink:href="#SVGID_3_"  style="overflow:visible;"/>
		</clipPath>
		<g class="st8">
			<path class="st3" d="M6.7,136.7c6.1,0,6.1,5,12.3,5c6.1,0,6.1-5,12.3-5c6.1,0,6.1,5,12.3,5c6.1,0,6.1-5,12.3-5
				c6.1,0,6.1,5,12.3,5c6.1,0,6.1-5,12.3-5"/>
		</g>
	</g>
	<g>
		<defs>
			<rect id="SVGID_5_" x="239.9" y="130.1" width="44.5" height="15.7"/>
		</defs>
		<clipPath id="SVGID_6_">
			<use xlink:href="#SVGID_5_"  style="overflow:visible;"/>
		</clipPath>
		<g class="st9">
			<path class="st3" d="M236.4,136.7c6.1,0,6.1,5,12.3,5c6.1,0,6.1-5,12.3-5c6.1,0,6.1,5,12.3,5c6.1,0,6.1-5,12.3-5
				c6.1,0,6.1,5,12.3,5c6.1,0,6.1-5,12.3-5"/>
		</g>
	</g>
	<g>
		<defs>
			<rect id="SVGID_7_" x="239.9" y="130.1" width="46.5" height="15.7"/>
		</defs>
		<clipPath id="SVGID_8_">
			<use xlink:href="#SVGID_7_"  style="overflow:visible;"/>
		</clipPath>
	</g>
	<g>
		<polyline class="st1" points="127.6,181.1 137.8,184.5 147.9,181.1 158,184.5 168.1,181.1 178.3,184.5 188.4,181.1 198.5,184.5 		
			"/>
	</g>
	<g>
		<polyline class="st1" points="134.5,196 144.3,199.3 154,196 163.7,199.3 173.5,196 183.2,199.3 		"/>
	</g>
	<g>
		<polyline class="st1" points="183.3,211.9 193,215.3 202.7,211.9 212.5,215.3 222.2,211.9 231.9,215.3 		"/>
	</g>
	<g>
		<polyline class="st1" points="55.2,230.8 65,234.1 74.7,230.8 84.4,234.1 94.1,230.8 103.9,234.1 		"/>
	</g>
	<g>
		<polyline class="st1" points="201.7,230.8 211.5,234.1 221.2,230.8 230.9,234.1 240.7,230.8 250.4,234.1 		"/>
	</g>
	<g>
		<polyline class="st1" points="72.4,250.3 82.1,253.6 91.8,250.3 101.6,253.6 111.3,250.3 121,253.6 		"/>
	</g>
</g>
</svg>
