<?xml version="1.0" encoding="utf-8"?>
<!-- Generator: Adobe Illustrator 21.1.0, SVG Export Plug-In . SVG Version: 6.00 Build 0)  -->
<svg version="1.1" id="Layer_1" xmlns="http://www.w3.org/2000/svg" xmlns:xlink="http://www.w3.org/1999/xlink" x="0px" y="0px"
	 viewBox="0 0 304.7 303.3" style="enable-background:new 0 0 304.7 303.3;" xml:space="preserve">
<style type="text/css">
	.st0{fill:none;stroke:#231F20;stroke-width:3.3853;stroke-miterlimit:10;}
	.st1{fill:none;stroke:#231F20;stroke-width:2.5389;stroke-miterlimit:10;}
	.st2{fill:#231F20;}
	.st3{fill:none;stroke:#231F20;stroke-width:1.6926;stroke-miterlimit:10;}
	.st4{fill:none;stroke:#010101;stroke-width:2.5389;stroke-miterlimit:10;}
	.st5{fill:none;}
	.st6{fill:#FFFFFF;}
	.st7{fill:#010101;}
	.st8{clip-path:url(#SVGID_2_);}
	.st9{clip-path:url(#SVGID_4_);}
	.st10{clip-path:url(#SVGID_6_);}
</style>
<circle class="st0" cx="153.1" cy="152.4" r="144.7"/>
<circle class="st0" cx="153.1" cy="152.4" r="135.1"/>
<line class="st1" x1="153.1" y1="48.2" x2="153.1" y2="56.1"/>
<line class="st1" x1="153.1" y1="35.7" x2="153.1" y2="43.5"/>
<line class="st1" x1="153.1" y1="24.3" x2="153.1" y2="32.1"/>
<line class="st1" x1="153.1" y1="176.9" x2="153.1" y2="184.7"/>
<g>
	<line class="st1" x1="179.5" y1="57.8" x2="172.4" y2="64.8"/>
	<line class="st1" x1="189.4" y1="47.8" x2="182.3" y2="54.9"/>
	<line class="st1" x1="199" y1="38.2" x2="191.9" y2="45.3"/>
</g>
<g>
	<line class="st1" x1="188.7" y1="72.7" x2="179.8" y2="77.2"/>
	<line class="st1" x1="201.3" y1="66.4" x2="192.4" y2="70.9"/>
	<line class="st1" x1="213.4" y1="60.3" x2="204.5" y2="64.8"/>
</g>
<g>
	<line class="st1" x1="117.1" y1="72.7" x2="126.1" y2="77.2"/>
	<line class="st1" x1="104.6" y1="66.4" x2="113.5" y2="70.9"/>
	<line class="st1" x1="92.5" y1="60.3" x2="101.4" y2="64.8"/>
</g>
<g>
	<line class="st1" x1="128.6" y1="57.8" x2="135.6" y2="64.8"/>
	<line class="st1" x1="118.7" y1="47.8" x2="125.7" y2="54.9"/>
	<line class="st1" x1="109.1" y1="38.2" x2="116.1" y2="45.3"/>
</g>
<g>
	<g>
		<polygon class="st2" points="225.6,155.4 229,154.5 153.9,79.4 151.7,81.5 		"/>
		<polygon class="st2" points="80.5,155.3 155,80.5 152.8,78.3 78.3,153.2 		"/>
		<line class="st3" x1="100.4" y1="134.6" x2="115.2" y2="134.6"/>
		<line class="st3" x1="109.3" y1="124.7" x2="124" y2="124.7"/>
		<line class="st3" x1="119.3" y1="114.7" x2="134" y2="114.7"/>
		<line class="st3" x1="205.9" y1="134.6" x2="191.1" y2="134.6"/>
		<line class="st3" x1="195.7" y1="124.7" x2="180.9" y2="124.7"/>
		<line class="st3" x1="185.7" y1="114.7" x2="170.9" y2="114.7"/>
	</g>
	<g>
		<polyline class="st3" points="131,101.1 138.3,106.2 145.7,101.1 153.1,106.2 160.5,101.1 167.9,106.2 175.2,101.1 		"/>
	</g>
</g>
<g>
	
		<rect x="219.3" y="69.7" transform="matrix(0.7072 -0.707 0.707 0.7072 -19.5002 191.0107)" class="st2" width="3.1" height="98.8"/>
	
		<rect x="168.2" y="89.4" transform="matrix(0.6983 -0.7158 0.7158 0.6983 -11.0373 155.7731)" class="st2" width="22.1" height="3.1"/>
</g>
<g>
	<polygon class="st2" points="272.8,143.5 276.3,142.7 232.4,98.8 230.2,101 	"/>
	
		<rect x="213.6" y="105.2" transform="matrix(0.6984 -0.7158 0.7158 0.6984 -8.6124 193.0142)" class="st2" width="22.1" height="3.1"/>
</g>
<g>
	<rect x="272.5" y="96.8" transform="matrix(0.7072 -0.707 0.707 0.7072 0.4021 226.8216)" class="st2" width="3.1" height="32.3"/>
	
		<rect x="244.9" y="106.8" transform="matrix(0.6983 -0.7158 0.7158 0.6983 -0.3379 215.8919)" class="st2" width="22.1" height="3.1"/>
</g>
<g>
	
		<rect x="42.5" y="115.6" transform="matrix(0.707 -0.7072 0.7072 0.707 -56.6889 97.3595)" class="st2" width="93.3" height="3.1"/>
	
		<rect x="127.2" y="79.9" transform="matrix(0.7158 -0.6983 0.6983 0.7158 -26.9311 115.7924)" class="st2" width="3.1" height="22.1"/>
</g>
<g>
	<rect x="28.2" y="118.4" transform="matrix(0.707 -0.7072 0.7072 0.707 -68.2519 75.195)" class="st2" width="56.9" height="3.1"/>
	
		<rect x="81.8" y="95.7" transform="matrix(0.7158 -0.6984 0.6984 0.7158 -50.8309 88.5646)" class="st2" width="3.1" height="22.1"/>
</g>
<g>
	<rect x="15" y="112.5" transform="matrix(0.7072 -0.707 0.707 0.7072 -71.0421 56.6456)" class="st2" width="35.6" height="3.1"/>
	
		<rect x="50.6" y="97.3" transform="matrix(0.7158 -0.6983 0.6983 0.7158 -60.8508 67.1853)" class="st2" width="3.1" height="22.1"/>
</g>
<path class="st4" d="M140.9,90.9c-2.7-3-4.4-6.9-4.4-11.2c0-9.1,7.4-16.6,16.6-16.6c9.1,0,16.6,7.4,16.6,16.6
	c0,4.4-1.7,8.5-4.6,11.4"/>
<polygon class="st5" points="74.5,176.7 75.5,176.3 73.6,176.3 "/>
<polygon class="st2" points="117.3,176.3 120.3,177.5 123.2,176.3 121,176.3 "/>
<polygon class="st2" points="227.9,178.6 229,178.2 227,178.2 "/>
<polygon class="st5" points="205.6,178.4 206,178.2 205.2,178.2 "/>
<polygon class="st5" points="95.5,176.3 96.4,176.7 97.3,176.3 95.6,176.3 "/>
<polygon class="st2" points="121,176.3 123.2,176.3 129.1,173.8 135.1,176.3 136,176.3 134.4,171.7 133.9,170.3 131,161.7 
	129.7,161.3 130.7,160.9 128.5,154.2 126.2,160.9 127.4,161.3 125.9,161.8 124.8,165.1 121.2,154.7 119.3,154 120.8,153.5 
	117.4,143.5 114.1,153.4 115.9,154 113.6,154.8 109.3,167.3 108.6,169.5 107.7,172.2 117.3,176.3 "/>
<polygon class="st2" points="73.6,176.3 75.5,176.3 85.5,172 95.5,176.3 95.6,176.3 97.3,176.3 107.3,172 107.5,172.1 107.1,171 
	104.5,163.4 103.4,163 104.2,162.7 102.2,156.7 100.2,162.6 101.3,163 99.9,163.5 97.4,170.8 97.2,170 94.1,161 92.8,160.5 
	93.8,160.1 91.4,153.1 89,160.1 90.3,160.5 88.7,161.1 86.3,168.1 85.5,165.8 80.4,150.8 78.2,150 79.9,149.4 75.9,137.6 72,149.3 
	74.1,150 71.4,150.9 67.1,163.7 66.3,161.6 65.2,161.2 66.1,160.8 64.1,154.9 62.1,160.8 63.2,161.2 61.8,161.6 59.2,169.1 
	58.8,170.4 57.4,174.5 57.9,174.5 63.6,172 "/>
<polygon class="st2" points="192.4,174.7 193.1,172.8 193.6,171.6 193.7,171.6 189.5,159.2 187.7,158.6 189.1,158.1 188.6,156.8 
	186,149.1 182.9,158 184.6,158.6 182.5,159.3 179.1,169.1 178.6,167.5 177.7,167.2 178.4,166.9 176.8,162.4 175.3,166.9 
	176.1,167.2 175,167.5 173.1,173.3 172.9,173.8 183.7,178.4 "/>
<polygon class="st2" points="194.7,173.8 205.2,178.2 206,178.2 216.5,173.8 227,178.2 229,178.2 238.4,174.8 246.8,178 
	245.5,174.7 245.5,174.7 245.4,174.5 245,173.3 242.2,166.4 241,166 241.9,165.7 239.8,160.2 237.6,165.7 238.8,166 237.3,166.4 
	234.6,173.2 234.3,172.4 231,164.1 229.6,163.7 230.7,163.4 228.2,156.9 225.6,163.3 227,163.7 225.2,164.2 222.7,170.7 
	221.8,168.6 216.3,154.8 213.9,154.1 215.8,153.5 211.5,142.7 207.3,153.4 209.6,154.1 206.7,154.9 202,166.7 201.2,164.7 
	200,164.3 201,164 198.8,158.6 196.7,164 197.8,164.3 196.4,164.8 193.7,171.6 194.4,173.9 "/>
<polygon class="st2" points="193.1,172.8 192.4,174.7 194.4,173.9 193.7,171.6 193.6,171.6 "/>
<polygon class="st6" points="107.6,172.5 107.7,172.2 107.5,172.1 107.5,172.2 "/>
<g>
	<path class="st3" d="M59.7,168.4c0,0-15.3-2-21.6,2.7c-6.3,4.6-6.1,8.6-4.4,13.9c1.7,5.3,16.1,12.2-5.1,24.4"/>
	<path class="st3" d="M58.1,173.6c0,0-9.3-1.7-10.6,3.5c-1.3,5.2,19.1,7.5,18.7,24.3c-0.4,16.8-17.5,28.1-25.1,28.3"/>
	<path class="st3" d="M53.6,170.6c0,0-5-0.4-7.6,1.8"/>
	<path class="st3" d="M43,176.2c0,0-0.7,5.7,3,7.9"/>
	<path class="st3" d="M49.7,187.2c0,0,6.4,2.5,8.6,8.1"/>
	<path class="st3" d="M58.5,201.6c0,0,2.3,8-4.9,14.7"/>
	<path class="st3" d="M48.3,219.9c0,0-4.4,4.6-10.2,5.6"/>
	<path class="st3" d="M49.8,200.3c0.9-6.7-5.3-11.7-5.3-11.7s2.4,9.2-1.5,13"/>
	<path class="st3" d="M52.7,206.2c0,0-1.8,6.7-8.3,10.1"/>
	<path class="st3" d="M41.9,209c0,0-7.3,8.7-8.7,7.4"/>
	<path class="st3" d="M38.1,174.8c0,0-2.7,5.9,0,9.3"/>
</g>
<g>
	<path class="st3" d="M243,169.8c0,0,15.1-1.9,21.5,2.8s6.1,8.7,4.4,14s-16.3,12.3,5.1,24.6"/>
	<path class="st3" d="M246.3,177c0,0,7.5-2,8.8,1.5c1.7,5.1-19.3,7.5-18.8,24.5s17.7,28.2,25.4,28.5"/>
	<path class="st3" d="M248.9,172.1c0,0,5-0.4,7.7,1.8"/>
	<path class="st3" d="M259.6,177.7c0,0,0.7,5.7-3,7.9"/>
	<path class="st3" d="M252.8,188.7c0,0-6.4,2.5-8.7,8.2"/>
	<path class="st3" d="M243.9,203.2c0,0-2.3,8,5,14.8"/>
	<path class="st3" d="M254.3,221.7c0,0,4.5,4.7,10.3,5.6"/>
	<path class="st3" d="M252.8,202c-0.9-6.8,5.4-11.8,5.4-11.8s-2.5,9.2,1.5,13"/>
	<path class="st3" d="M249.8,207.9c0,0,1.8,6.8,8.4,10.2"/>
	<path class="st3" d="M260.6,210.6c0,0,7.4,8.7,8.8,7.4"/>
	<path class="st3" d="M264.5,176.3c0,0,2.7,6,0,9.3"/>
</g>
<g>
	<path class="st3" d="M213.9,149.8c6.2,0,6.2,5.1,12.4,5.1c6.2,0,6.2-5.1,12.4-5.1c6.2,0,6.2,5.1,12.4,5.1c6.2,0,6.2-5.1,12.4-5.1
		c6.2,0,6.2,5.1,12.4,5.1c6.2,0,6.2-5.1,12.4-5.1"/>
</g>
<g>
	<line class="st3" x1="230.9" y1="127.7" x2="216.1" y2="127.7"/>
	<line class="st3" x1="220.5" y1="117.7" x2="205.7" y2="117.7"/>
	<line class="st3" x1="210.3" y1="107.8" x2="195.6" y2="107.8"/>
	<line class="st3" x1="200.3" y1="97.9" x2="185.6" y2="97.9"/>
	<line class="st3" x1="239.2" y1="137.6" x2="224.4" y2="137.6"/>
</g>
<line class="st3" x1="282.8" y1="122.1" x2="274.4" y2="122.1"/>
<line class="st3" x1="276.4" y1="115.7" x2="268" y2="115.7"/>
<line class="st3" x1="270.9" y1="109.3" x2="262.5" y2="109.3"/>
<line class="st3" x1="32.9" y1="122.3" x2="24.5" y2="122.3"/>
<line class="st3" x1="39.6" y1="115.9" x2="31.2" y2="115.9"/>
<line class="st3" x1="45" y1="109.5" x2="36.6" y2="109.5"/>
<g>
	<line class="st3" x1="76.9" y1="127.7" x2="91.7" y2="127.7"/>
	<line class="st3" x1="87.3" y1="117.7" x2="102.1" y2="117.7"/>
	<line class="st3" x1="97.5" y1="107.8" x2="112.2" y2="107.8"/>
	<line class="st3" x1="107.5" y1="97.9" x2="122.2" y2="97.9"/>
	<line class="st3" x1="68.6" y1="137.6" x2="83.4" y2="137.6"/>
</g>
<g>
	<polyline class="st3" points="61.7,114.2 68.5,117.6 75.4,114.2 82.2,117.6 89.1,114.2 	"/>
</g>
<g>
	<polyline class="st3" points="217.5,114.2 224.4,117.6 231.2,114.2 238.1,117.6 245,114.2 	"/>
</g>
<g>
	<path class="st3" d="M8.3,6"/>
</g>
<g>
	<path class="st7" d="M205.7,89.1h6.2v-5.7h4.9v5.7h6.2V94h-6.2v5.7H212V94h-6.2V89.1z"/>
</g>
<g>
	<path class="st7" d="M83,89.1h6.2v-5.7h4.9v5.7h6.2V94h-6.2v5.7h-4.9V94H83V89.1z"/>
</g>
<g>
	<defs>
		<rect id="SVGID_1_" x="18.2" y="143.2" width="58.5" height="15.9"/>
	</defs>
	<clipPath id="SVGID_2_">
		<use xlink:href="#SVGID_1_"  style="overflow:visible;"/>
	</clipPath>
	<g class="st8">
		<path class="st3" d="M6.2,149.8c6.2,0,6.2,5.1,12.4,5.1c6.2,0,6.2-5.1,12.4-5.1c6.2,0,6.2,5.1,12.4,5.1c6.2,0,6.2-5.1,12.4-5.1
			c6.2,0,6.2,5.1,12.4,5.1c6.2,0,6.2-5.1,12.4-5.1"/>
	</g>
</g>
<g>
	<defs>
		<rect id="SVGID_3_" x="18.2" y="131.5" width="45.4" height="15.9"/>
	</defs>
	<clipPath id="SVGID_4_">
		<use xlink:href="#SVGID_3_"  style="overflow:visible;"/>
	</clipPath>
	<g class="st9">
		<path class="st3" d="M6.2,138.2c6.2,0,6.2,5.1,12.4,5.1c6.2,0,6.2-5.1,12.4-5.1c6.2,0,6.2,5.1,12.4,5.1c6.2,0,6.2-5.1,12.4-5.1
			c6.2,0,6.2,5.1,12.4,5.1c6.2,0,6.2-5.1,12.4-5.1"/>
	</g>
</g>
<g>
	<defs>
		<rect id="SVGID_5_" x="241.6" y="131.5" width="45" height="15.9"/>
	</defs>
	<clipPath id="SVGID_6_">
		<use xlink:href="#SVGID_5_"  style="overflow:visible;"/>
	</clipPath>
	<g class="st10">
		<path class="st3" d="M237.9,138.2c6.2,0,6.2,5.1,12.4,5.1c6.2,0,6.2-5.1,12.4-5.1c6.2,0,6.2,5.1,12.4,5.1c6.2,0,6.2-5.1,12.4-5.1
			c6.2,0,6.2,5.1,12.4,5.1c6.2,0,6.2-5.1,12.4-5.1"/>
	</g>
</g>
<g>
	<defs>
		<rect id="SVGID_7_" x="241.6" y="131.5" width="47" height="15.9"/>
	</defs>
	<clipPath id="SVGID_8_">
		<use xlink:href="#SVGID_7_"  style="overflow:visible;"/>
	</clipPath>
</g>
<g>
	<polyline class="st1" points="55.1,233.2 64.9,236.6 74.7,233.2 84.6,236.6 94.4,233.2 104.2,236.6 	"/>
</g>
<g>
	<polyline class="st1" points="62.7,180 72.6,183.4 82.4,180 92.2,183.4 102,180 111.9,183.4 	"/>
</g>
<g>
	<polyline class="st1" points="207.2,237.7 217,241.1 226.9,237.7 236.7,241.1 246.5,237.7 256.3,241.1 	"/>
</g>
<g>
	<polyline class="st1" points="156.4,262.8 166.2,266.2 176,262.8 185.8,266.2 195.7,262.8 205.5,266.2 	"/>
</g>
<g>
	<polyline class="st1" points="175.8,206.2 185.6,209.6 195.4,206.2 205.2,209.6 215.1,206.2 224.9,209.6 	"/>
</g>
<g>
	<polyline class="st1" points="72.4,252.9 82.2,256.2 92,252.9 101.9,256.2 111.7,252.9 121.5,256.2 	"/>
</g>
<g>
	<polyline class="st1" points="174.4,182.9 184.2,186.3 194.1,182.9 203.9,186.3 213.7,182.9 223.5,186.3 	"/>
</g>
<polygon class="st2" points="130.6,182.1 124.5,182.3 117.6,184.4 112.8,187.4 110,191.6 109.1,196.3 109.1,202 110.6,207.8 
	111.9,216.2 112.1,225.3 109.6,230.4 108.6,238.4 108.9,245.6 115,245.9 115.3,244.2 112.1,240.6 120.3,219.4 121.7,216.9 
	124.6,216 125.2,218.5 124,223.2 121.3,227.4 120.4,231.8 123.2,237.8 125.7,244.9 131.3,244.9 130.5,242 128.6,240 127.3,236.6 
	128,231.8 131.5,226.3 133.6,223.2 134.9,220.3 141.4,220.3 143.4,226.5 144.9,234.2 145.1,239.9 144.7,243.3 151,243.6 151,241.7 
	148.9,239.8 149.4,234.9 149.6,229.7 148.3,223.9 148.1,220.3 151,218.2 155.9,219.3 156.9,222.9 158.2,229.6 159,235 158.3,240.4 
	159.4,242.7 162.6,243.7 165,243.4 163.4,238.9 162.6,237.8 163.6,236.8 163.1,233.7 162.8,226.7 163.3,218.4 164.3,210.6 
	166.6,207.3 168.1,202 167.9,194.3 167.4,186.8 167.5,182.4 165.5,176 163,171.2 162,168.6 162.4,166.2 164.5,164.4 165.5,161.8 
	169.5,157.5 170.1,155.9 162.3,159.4 164.6,156.4 169.5,152.3 174,148.6 175.8,143.5 178.4,136.6 178.6,130.7 175.4,128.9 
	169.6,124.6 167.6,123.2 168.4,125.6 167.9,126.6 171.6,130.7 173.7,136.9 172.7,141.7 170.3,145.6 169,147.9 168.7,140.9 
	167.4,139.1 167.4,145.3 165.3,151.6 160.8,155.7 161.3,149.2 161.1,146.1 159.5,150.7 157.6,157.3 155.3,160 151.2,159.8 
	148.1,156.8 145.8,151.6 143.9,146.8 144.6,155 142,153 139.7,148.4 138.2,143.1 137.8,144.7 137.5,148.2 135.1,143.6 133.8,138.5 
	134.9,134.4 138.1,129.3 137.3,128.4 137.9,125.3 137.5,124 134.3,129 130.9,132.7 130.2,140.6 130.8,145.9 135.9,152.1 
	141.9,156.5 144.7,159.8 137.2,156.5 138.5,159.5 141.4,163.8 144.6,166.3 146.1,168.5 145.6,173.5 144.4,177.5 143,180.8 
	135.6,182.3 "/>
</svg>
