<?xml version="1.0" encoding="utf-8"?>
<!-- Generator: Adobe Illustrator 21.1.0, SVG Export Plug-In . SVG Version: 6.00 Build 0)  -->
<svg version="1.1" id="Layer_1" xmlns="http://www.w3.org/2000/svg" xmlns:xlink="http://www.w3.org/1999/xlink" x="0px" y="0px"
	 viewBox="0 0 304.7 303.3" style="enable-background:new 0 0 304.7 303.3;" xml:space="preserve">
<style type="text/css">
	.st0{fill:none;stroke:#231F20;stroke-width:3.3567;stroke-miterlimit:10;}
	.st1{fill:#231F20;}
	.st2{fill:none;stroke:#231F20;stroke-width:1.6784;stroke-miterlimit:10;}
	.st3{fill:none;}
	.st4{fill:#010101;}
	.st5{fill:none;stroke:#231F20;stroke-width:2.5175;stroke-miterlimit:10;}
	.st6{fill:none;stroke:#010101;stroke-width:2.5175;stroke-miterlimit:10;}
</style>
<g>
	<circle class="st0" cx="153.9" cy="151.2" r="143.5"/>
	<circle class="st0" cx="153.9" cy="151.2" r="134"/>
	<g>
		
			<rect x="12.2" y="144.2" transform="matrix(0.7071 -0.7071 0.7071 0.7071 -90.5249 73.2477)" class="st1" width="61.9" height="3.4"/>
		
			<rect x="70.6" y="119.5" transform="matrix(0.7158 -0.6983 0.6983 0.7158 -71.2852 87.8255)" class="st1" width="3.4" height="24.1"/>
	</g>
	<g>
		
			<rect x="262.6" y="115" transform="matrix(0.7071 -0.7071 0.7071 0.7071 -25.7634 229.5888)" class="st1" width="3.4" height="61.9"/>
		
			<rect x="223.1" y="129.8" transform="matrix(0.6983 -0.7158 0.7158 0.6983 -23.1709 207.9904)" class="st1" width="24.1" height="3.4"/>
	</g>
	<g>
		
			<rect x="241.8" y="109.2" transform="matrix(0.7071 -0.7071 0.7071 0.7071 -41.7577 218.9736)" class="st1" width="3.4" height="101.4"/>
		<polygon class="st1" points="181.2,153.3 210,124 207.6,121.7 178.8,150.9 		"/>
	</g>
	<g>
		
			<rect x="13.7" y="158.2" transform="matrix(0.7071 -0.7071 0.7071 0.7071 -94.1914 92.3877)" class="st1" width="101.4" height="3.4"/>
		<polygon class="st1" points="119.2,145.7 97.9,124 100.3,121.7 121.6,143.4 		"/>
	</g>
	<g>
		<polygon class="st1" points="53,136.4 36.2,120.1 38.6,117.6 55.3,134 		"/>
		
			<rect x="17.1" y="127.2" transform="matrix(0.7071 -0.7071 0.7071 0.7071 -82.385 58.7733)" class="st1" width="25.4" height="3.4"/>
	</g>
	<g>
		<polygon class="st1" points="254.9,136.3 271.5,120.1 269.2,117.6 252.5,133.9 		"/>
		
			<rect x="276.3" y="116.1" transform="matrix(0.7071 -0.7071 0.7071 0.7071 -9.6882 234.2843)" class="st1" width="3.4" height="25.4"/>
	</g>
	<line class="st2" x1="41.8" y1="180.6" x2="57.9" y2="180.6"/>
	<line class="st2" x1="53.5" y1="169.8" x2="69.5" y2="169.8"/>
	<line class="st2" x1="65.8" y1="159" x2="81.9" y2="159"/>
	<line class="st2" x1="75.2" y1="148.2" x2="91.3" y2="148.2"/>
	<line class="st2" x1="32.9" y1="191.4" x2="48.9" y2="191.4"/>
	<line class="st2" x1="265" y1="180.6" x2="249" y2="180.6"/>
	<line class="st2" x1="253.4" y1="169.8" x2="237.3" y2="169.8"/>
	<line class="st2" x1="241.1" y1="159" x2="225" y2="159"/>
	<line class="st2" x1="231.6" y1="148.2" x2="215.6" y2="148.2"/>
	<line class="st2" x1="274" y1="191.4" x2="257.9" y2="191.4"/>
	<g>
		<polyline class="st2" points="229.7,136.8 234.3,141.8 239,136.8 243.6,141.8 248.3,136.8 252.9,141.8 257.6,136.8 		"/>
	</g>
	<g>
		<polyline class="st2" points="50.1,136.8 54.7,141.8 59.4,136.8 64,141.8 68.7,136.8 73.3,141.8 78,136.8 		"/>
	</g>
	<polygon class="st3" points="166.2,223.1 166.3,223.2 166.5,223.1 	"/>
	<polygon class="st3" points="189.6,223.2 189.8,223.1 189.5,223.1 	"/>
	<polygon class="st3" points="143.1,223.1 142.8,223.1 143,223.2 	"/>
	<polygon class="st3" points="119.3,223.1 119.5,223.2 119.8,223.1 	"/>
	<polygon class="st1" points="98.5,222.1 107.8,218 119.3,223.1 119.8,223.1 131.3,218 142.8,223.1 143.1,223.1 154.7,218 
		166.2,223.1 166.5,223.1 178,218 189.5,223.1 189.8,223.1 201.3,218 212.8,223.1 213.7,223.1 211.1,216 210.3,213.8 205.4,200.6 
		203.3,199.9 205,199.4 201.2,189 197.5,199.2 199.5,199.9 196.9,200.7 195.1,205.8 189.2,189.7 186,188.7 188.5,187.8 182.9,172.4 
		177.3,187.7 180.3,188.7 176.5,189.9 169.5,209.3 168.2,212.6 166.6,217.2 166.4,216.8 165.7,214.9 161.5,203.1 159.6,202.5 
		161.1,202 157.7,192.8 154.4,201.9 156.2,202.5 153.9,203.3 149.8,214.6 149.3,213.4 144.2,199.4 142,198.7 143.8,198.1 
		139.8,187.2 135.8,198 138,198.7 135.3,199.6 131.3,210.4 130,206.9 121.5,183.6 117.8,182.4 120.7,181.5 114.1,163.3 107.5,181.3 
		111.1,182.4 106.6,183.9 99.4,203.6 98.2,200.3 96.3,199.7 97.8,199.2 94.4,190 91.1,199.1 92.9,199.7 90.6,200.4 86.4,212 
		85.7,214 84.8,216.5 85.2,216.3 	"/>
	<g>
		<path class="st2" d="M196,204.6c0,0,30.6,0.5,41.4,5.8c10.8,5.3,10.8,8.8,7.5,14.8c-3.3,6-6,11.5,9,12.8"/>
		<path class="st2" d="M204.2,209.6c0,0,11.2,0,16.5,2.4c5.3,2.4,9.4,4.4,2.7,10.9S203.6,234,200,242.2c-3.5,8.2,9.4,20.6,24.4,21.8
			"/>
		<path class="st2" d="M217.8,208.4c0,0,8.4,1.5,12.8,2.9"/>
		<path class="st2" d="M242.2,219.8c0.6-4.2-8-6.6-8-6.6"/>
		<path class="st2" d="M241.1,223.9c0,0-1.7,1.7-1.8,3.9"/>
		<path class="st2" d="M237.5,233.2c0,0-1,10.3,10.8,9.2"/>
		<path class="st2" d="M229.9,223.9c3.4-2.4,0-8.9,0-8.9s6.5,1.4,5.9,6.3"/>
		<path class="st2" d="M225.7,227.8c0,0-6.7,2.9-10.5,7.3"/>
		<path class="st2" d="M209.3,240.6c0,0-4,6.7,0,10.1"/>
		<path class="st2" d="M213.9,255.4c0,0,3.9,5,11,5.9"/>
		<path class="st2" d="M232.9,227.8c0,0-5,6.6-3,10.1"/>
		<path class="st2" d="M232.9,242.5c0,0,1.3,8.3,6.8,8.1"/>
		<path class="st2" d="M217.8,248.7c-4.7-5.5,4-13.6,4-13.6s1,13.6,8,16.6"/>
	</g>
	<g>
		<path class="st2" d="M107.8,203c0,0-30.6,0.5-41.4,5.8c-10.8,5.3-10.8,8.8-7.5,14.8c3.3,6,6,11.5-9,12.8"/>
		<path class="st2" d="M99.6,207.9c0,0-11.2,0-16.5,2.4c-5.3,2.4-9.4,4.4-2.7,10.9c6.8,6.5,19.7,11.2,23.3,19.4
			c3.5,8.2-9.4,20.6-24.4,21.8"/>
		<path class="st2" d="M85.9,206.7c0,0-8.4,1.5-12.8,2.9"/>
		<path class="st2" d="M61.5,218.1c-0.6-4.2,8-6.6,8-6.6"/>
		<path class="st2" d="M62.6,222.2c0,0,1.7,1.7,1.8,3.9"/>
		<path class="st2" d="M66.2,231.6c0,0,1,10.3-10.8,9.2"/>
		<path class="st2" d="M73.8,222.2c-3.4-2.4,0-8.9,0-8.9s-6.5,1.4-5.9,6.3"/>
		<path class="st2" d="M78,226.1c0,0,6.7,2.9,10.5,7.3"/>
		<path class="st2" d="M94.4,238.9c0,0,4,6.7,0,10.1"/>
		<path class="st2" d="M89.8,253.8c0,0-3.9,5-11,5.9"/>
		<path class="st2" d="M70.9,226.1c0,0,5,6.6,3,10.1"/>
		<path class="st2" d="M70.9,240.9c0,0-1.3,8.3-6.8,8.1"/>
		<path class="st2" d="M85.9,247.1c4.7-5.5-4-13.6-4-13.6s-1,13.6-8,16.6"/>
	</g>
	<g>
		<polyline class="st2" points="128.2,228.5 136.9,231.9 145.6,228.5 154.3,231.9 163,228.5 171.8,231.9 180.5,228.5 189.2,231.9 
			197.9,228.5 206.6,231.9 		"/>
	</g>
	<g>
		<polyline class="st2" points="108.3,273.2 117,276.5 125.7,273.2 134.4,276.5 143.1,273.2 151.8,276.5 160.5,273.2 169.2,276.5 
			177.9,273.2 186.7,276.5 		"/>
	</g>
	<g>
		<polyline class="st2" points="108.4,239.6 117.8,243 127.1,239.6 136.5,243 145.9,239.6 155.2,243 		"/>
	</g>
	<g>
		<polyline class="st2" points="150.6,254.3 160,257.7 169.4,254.3 178.7,257.7 188.1,254.3 197.5,257.7 		"/>
	</g>
	<g>
		<polyline class="st2" points="164.3,243.1 169.1,244.8 173.9,243.1 178.7,244.8 		"/>
	</g>
	<g>
		<polyline class="st2" points="97.1,263.2 101.9,264.9 106.7,263.2 111.5,264.9 		"/>
	</g>
	<g>
		<polyline class="st2" points="192,265.8 196.8,267.5 201.6,265.8 206.4,267.5 		"/>
	</g>
	<g>
		<polyline class="st2" points="113.7,253 118.5,254.6 123.3,253 128.1,254.6 		"/>
	</g>
	<g>
		<polyline class="st2" points="100.6,227 105.4,228.7 110.2,227 115,228.7 		"/>
	</g>
	<g>
		<path class="st4" d="M217.1,94.4h6.2v-5.6h4.9v5.6h6.2v4.9h-6.2v5.6h-4.9v-5.6h-6.2V94.4z"/>
	</g>
	<g>
		<path class="st4" d="M74.7,94.4h6.2v-5.6h4.9v5.6h6.2v4.9h-6.2v5.6h-4.9v-5.6h-6.2V94.4z"/>
	</g>
	<g>
		<line class="st5" x1="154.1" y1="56.2" x2="154.1" y2="64"/>
		<line class="st5" x1="154.1" y1="43.8" x2="154.1" y2="51.6"/>
		<line class="st5" x1="154.1" y1="32.5" x2="154.1" y2="40.2"/>
	</g>
	<g>
		<line class="st5" x1="177.6" y1="62.6" x2="170.6" y2="69.6"/>
		<line class="st5" x1="187.4" y1="52.7" x2="180.4" y2="59.7"/>
		<line class="st5" x1="196.9" y1="43.2" x2="189.9" y2="50.2"/>
	</g>
	<g>
		<line class="st5" x1="188.2" y1="74.8" x2="179.3" y2="79.3"/>
		<line class="st5" x1="200.6" y1="68.6" x2="191.8" y2="73"/>
		<line class="st5" x1="212.6" y1="62.5" x2="203.8" y2="67"/>
	</g>
	<g>
		<line class="st5" x1="120.9" y1="75.8" x2="129.8" y2="80.3"/>
		<line class="st5" x1="108.5" y1="69.5" x2="117.3" y2="74"/>
		<line class="st5" x1="96.5" y1="63.5" x2="105.3" y2="67.9"/>
	</g>
	<g>
		<line class="st5" x1="132.3" y1="61.8" x2="139.3" y2="68.8"/>
		<line class="st5" x1="122.4" y1="51.9" x2="129.4" y2="58.9"/>
		<line class="st5" x1="112.9" y1="42.4" x2="119.9" y2="49.4"/>
	</g>
	<path class="st6" d="M142.4,100.2c-2.5-3.1-3.9-7.1-3.7-11.4c0.6-9.1,8.4-15.9,17.4-15.4c9.1,0.6,15.9,8.4,15.4,17.4
		c-0.3,4.4-2.2,8.3-5.2,11"/>
	<path class="st1" d="M120.7,159.1l5.4,1.2l9.8,5.2l12,3.3h12.3l6.3-1.4l11.4-1l5.8-1.6l3.9-1.1l7.5,0.5l7.5,0.4l8,0.1l1.5-0.4
		l-7-2.3l-12-2.1l-5-0.8l-4.7-0.8l-5.9-1.5l-4.5-6.1l-1-1.9l0.1-3.6l-8.7-11.4l-0.1-2.8l1.4-3.4l2.2-1.7l0.4-1.3l-2.9-0.2l-0.1-0.5
		l4-2.7l-0.2-1.3l-3.9,0.3l-0.1-0.5l4.2-2.7l0.5-1.6l-7.8,1.6l-1.2-0.9l4.8-4.6l-0.5-1.4l-10.5,4.3L152,114l8.3-7.4l0.3-2.2
		l-9.5,5.3l-5.5,3.1l-1.1-0.8l6.8-8.2l0-2.4l-18.2,15.8l-0.5-0.4l3-4.6l0.1-3.2l-12.9,20.7l-3.1,6.3l10.3,11.6l0.1,2l-7.4-1.2
		L118,150l-7.5,0.9l-2.5,0.6l-3,1.6l3.4,0c0,0,6.2,0.9,6.3,1c0.1,0.1,1.1,1.7,1.1,1.7l-5.2,1.1l-4.1,2.1l5.3-0.3l3.7,0.2
		L120.7,159.1z"/>
</g>
</svg>
