<?xml version="1.0" encoding="utf-8"?>
<!-- Generator: Adobe Illustrator 21.1.0, SVG Export Plug-In . SVG Version: 6.00 Build 0)  -->
<svg version="1.1" id="Layer_1" xmlns="http://www.w3.org/2000/svg" xmlns:xlink="http://www.w3.org/1999/xlink" x="0px" y="0px"
	 viewBox="0 0 288 288" style="enable-background:new 0 0 288 288;" xml:space="preserve">
<style type="text/css">
	.st0{fill:none;}
	.st1{fill:none;stroke:#FFFFFF;stroke-width:3.0297;stroke-miterlimit:10;}
	.st2{fill:none;stroke:#FFFFFF;stroke-width:2.7263;stroke-miterlimit:10;}
	.st3{fill:#4b2e83;}
</style>
<circle class="st0" cx="143.8" cy="143.7" r="123.4"/>
<circle class="st1" cx="143.8" cy="144.5" r="120.9"/>
<path class="st2" d="M143.6,23.1c-67,0-121.3,54.3-121.3,121.3c0,67,54.3,121.3,121.3,121.3c67,0,121.3-54.3,121.3-121.3
	C264.9,77.4,210.6,23.1,143.6,23.1z M143.6,253.3c-60.1,0-108.8-48.7-108.8-108.8c0-60.1,48.7-108.8,108.8-108.8
	c60.1,0,108.8,48.7,108.8,108.8C252.4,204.5,203.7,253.3,143.6,253.3z"/>
<g>
	<ellipse class="st1" cx="143.8" cy="107.3" rx="36" ry="40.3"/>
	<path class="st1" d="M211.2,214.3c0-0.1,0-0.2,0-0.4l1.4-24.4c0-18.1-11.4-35.3-33.7-39.8c-9.1,5.1-21.1,14.1-35.1,14.1
		s-27.3-9-36.4-14.1C85.1,154.2,75,171.9,75,189.5v24.4c0,0.1,0,0.2,0,0.4H211.2z"/>
</g>
<g>
	<path class="st3" d="M156.6,172.4c0,0.4,0,6,0,6.5c0.4,0,4.5,0,4.5,0l-5.1,18.9c0,0-6.2-25-6.3-25.3c-0.3,0-6.2,0-6.6,0
		c-0.1,0.3-6.8,25.3-6.8,25.3l-4.7-18.9c0,0,4.3,0,4.7,0c0-0.4,0-6,0-6.5c-0.5,0-18.5,0-19,0c0,0.4,0,6,0,6.5c0.4,0,4.2,0,4.2,0
		s7.3,29,7.3,29.4c0.3,0,9.8,0,10.2,0c0.1-0.3,4.9-18.5,4.9-18.5s4.5,18.1,4.6,18.5c0.3,0,9.8,0,10.2,0c0.1-0.3,7.7-29.4,7.7-29.4
		s3.8,0,4.2,0c0-0.4,0-6,0-6.5C170.4,172.4,157.1,172.4,156.6,172.4z"/>
</g>
</svg>
