<?xml version="1.0" encoding="utf-8"?>
<!-- Generator: Adobe Illustrator 16.0.0, SVG Export Plug-In . SVG Version: 6.00 Build 0)  -->
<!DOCTYPE svg PUBLIC "-//W3C//DTD SVG 1.1//EN" "http://www.w3.org/Graphics/SVG/1.1/DTD/svg11.dtd">
<svg version="1.1" id="Layer_1" xmlns="http://www.w3.org/2000/svg" xmlns:xlink="http://www.w3.org/1999/xlink" x="0px" y="0px"
	 width="32.2px" height="127px" viewBox="0 0 32.2 127" enable-background="new 0 0 32.2 127" xml:space="preserve">
<path opacity="0.5" fill="#231F20" stroke="#231F20" stroke-width="1.2" stroke-miterlimit="10" d="M9.44,114.41h2.395l3.733,3.732
	c0.082,0.082,0.19,0.126,0.303,0.126c0.056,0,0.109-0.011,0.163-0.032c0.16-0.067,0.265-0.224,0.265-0.396v-12.86
	c0-0.172-0.104-0.329-0.265-0.394c-0.161-0.069-0.344-0.031-0.466,0.092l-3.733,3.731H9.44c-0.237,0-0.429,0.193-0.429,0.43v5.145
	C9.011,114.219,9.203,114.41,9.44,114.41z M9.867,109.266h2.144c0.115,0,0.223-0.044,0.304-0.125l3.125-3.125v10.789l-3.125-3.126
	c-0.081-0.079-0.188-0.125-0.304-0.125H9.867V109.266z"/>
<path opacity="0.5" fill="#231F20" stroke="#231F20" stroke-width="1.2" stroke-miterlimit="10" d="M19.042,113.642
	c0.083,0.085,0.193,0.126,0.303,0.126s0.219-0.041,0.304-0.126l1.625-1.626l1.627,1.626c0.081,0.085,0.192,0.126,0.303,0.126
	c0.109,0,0.22-0.041,0.303-0.126c0.167-0.167,0.167-0.438,0-0.605l-1.626-1.626l1.626-1.625c0.167-0.167,0.167-0.438,0-0.607
	c-0.167-0.166-0.439-0.166-0.605,0l-1.627,1.626l-1.625-1.626c-0.168-0.166-0.439-0.166-0.606,0c-0.167,0.169-0.167,0.44,0,0.607
	l1.626,1.625l-1.626,1.626C18.875,113.203,18.875,113.475,19.042,113.642z"/>
<path opacity="0.5" fill="#231F20" stroke="#231F20" stroke-width="1.2" stroke-miterlimit="10" d="M8.988,82.464h2.256l3.519,3.519
	c0.077,0.077,0.179,0.118,0.284,0.118c0.052,0,0.104-0.011,0.154-0.031c0.152-0.062,0.25-0.209,0.25-0.372v-12.12
	c0-0.163-0.098-0.311-0.25-0.375c-0.151-0.062-0.324-0.027-0.438,0.089l-3.519,3.518H8.988c-0.223,0-0.406,0.182-0.406,0.403v4.848
	C8.582,82.282,8.765,82.464,8.988,82.464z M9.392,77.616h2.02c0.106,0,0.209-0.041,0.286-0.118l2.944-2.946v10.17l-2.944-2.948
	c-0.077-0.074-0.18-0.116-0.286-0.116h-2.02V77.616z"/>
<path opacity="0.5" fill="#231F20" stroke="#231F20" stroke-width="1.2" stroke-miterlimit="10" d="M18.232,81.252
	c-0.223,0-0.403,0.182-0.403,0.405c0,0.223,0.181,0.402,0.403,0.402c1.338,0,2.424-1.085,2.424-2.423
	c0-1.337-1.086-2.425-2.424-2.425c-0.223,0-0.403,0.181-0.403,0.404c0,0.223,0.181,0.404,0.403,0.404
	c0.891,0,1.617,0.724,1.617,1.616C19.849,80.527,19.123,81.252,18.232,81.252z"/>
<path opacity="0.5" fill="#231F20" stroke="#231F20" stroke-width="1.2" stroke-miterlimit="10" d="M18.298,85.697
	c3.186,0,5.774-2.589,5.774-5.771c0-3.184-2.589-5.774-5.774-5.774c-0.289,0-0.524,0.234-0.524,0.524
	c0,0.293,0.235,0.526,0.524,0.526c2.604,0,4.725,2.12,4.725,4.724c0,2.605-2.12,4.724-4.725,4.724c-0.289,0-0.524,0.233-0.524,0.525
	C17.773,85.464,18.009,85.697,18.298,85.697z"/>
<circle opacity="0.5" fill="none" stroke="#231F20" stroke-width="2" stroke-miterlimit="10" cx="15.951" cy="15.501" r="14.103"/>
<g opacity="0.5">
	<rect x="11.646" y="8.586" fill="#231F20" width="2.536" height="13.83"/>
	<rect x="17.774" y="8.586" fill="#231F20" width="2.536" height="13.83"/>
</g>
<circle opacity="0.5" fill="none" stroke="#231F20" stroke-width="2" stroke-miterlimit="10" cx="15.951" cy="47.008" r="14.103"/>
<polygon opacity="0.5" fill="#231F20" points="13.538,42.896 20.201,47.343 13.538,51.789 "/>
<circle fill="none" stroke="#FFFFFF" stroke-width="2" stroke-miterlimit="10" cx="15.575" cy="15" r="14.103"/>
<g>
	<rect x="11.27" y="8.085" fill="#FFFFFF" width="2.536" height="13.83"/>
	<rect x="17.398" y="8.085" fill="#FFFFFF" width="2.536" height="13.83"/>
</g>
<circle fill="none" stroke="#FFFFFF" stroke-width="2" stroke-miterlimit="10" cx="15.575" cy="46.507" r="14.103"/>
<circle opacity="0.5" fill="none" stroke="#231F20" stroke-width="2" stroke-miterlimit="10" cx="15.951" cy="79.271" r="14.103"/>
<circle opacity="0.5" fill="none" stroke="#231F20" stroke-width="2" stroke-miterlimit="10" cx="15.951" cy="110.778" r="14.103"/>
<circle fill="none" stroke="#FFFFFF" stroke-width="2" stroke-miterlimit="10" cx="15.575" cy="78.77" r="14.104"/>
<circle fill="none" stroke="#FFFFFF" stroke-width="2" stroke-miterlimit="10" cx="15.575" cy="110.277" r="14.103"/>
<polygon fill="#FFFFFF" points="13.162,42.395 19.825,46.842 13.162,51.288 "/>
<g>
	<path fill="#FFFFFF" stroke="#FFFFFF" stroke-width="1.2" stroke-miterlimit="10" d="M8.97,113.862h2.395l3.732,3.731
		c0.082,0.083,0.191,0.127,0.304,0.127c0.056,0,0.109-0.012,0.163-0.033c0.16-0.067,0.264-0.223,0.264-0.396v-12.86
		c0-0.171-0.104-0.329-0.264-0.395c-0.16-0.068-0.344-0.031-0.467,0.093l-3.732,3.731H8.97c-0.237,0-0.428,0.192-0.428,0.43v5.144
		C8.542,113.671,8.734,113.862,8.97,113.862z M9.399,108.718h2.143c0.115,0,0.222-0.044,0.304-0.124l3.125-3.126v10.789
		l-3.125-3.127c-0.082-0.079-0.189-0.125-0.304-0.125H9.399V108.718z"/>
	<path fill="#FFFFFF" stroke="#FFFFFF" stroke-width="1.2" stroke-miterlimit="10" d="M18.573,113.094
		c0.083,0.083,0.193,0.126,0.304,0.126c0.108,0,0.218-0.043,0.302-0.126l1.625-1.626l1.628,1.626
		c0.081,0.083,0.192,0.126,0.302,0.126s0.221-0.043,0.304-0.126c0.167-0.166,0.167-0.438,0-0.605l-1.627-1.627l1.627-1.625
		c0.167-0.167,0.167-0.438,0-0.606c-0.168-0.167-0.439-0.167-0.605,0l-1.628,1.625l-1.625-1.625c-0.167-0.167-0.438-0.167-0.605,0
		c-0.168,0.168-0.168,0.439,0,0.606l1.627,1.625l-1.627,1.627C18.405,112.655,18.405,112.928,18.573,113.094z"/>
</g>
<g>
	<path fill="#FFFFFF" stroke="#FFFFFF" stroke-width="1.2" stroke-miterlimit="10" d="M8.546,81.948h2.256l3.518,3.519
		c0.078,0.076,0.181,0.116,0.285,0.116c0.053,0,0.104-0.01,0.154-0.03c0.151-0.062,0.249-0.209,0.249-0.372V73.062
		c0-0.164-0.098-0.312-0.249-0.376c-0.151-0.061-0.325-0.027-0.439,0.089l-3.518,3.518H8.546c-0.224,0-0.405,0.182-0.405,0.404
		v4.847C8.141,81.766,8.323,81.948,8.546,81.948z M8.949,77.1h2.021c0.107,0,0.209-0.042,0.286-0.118l2.945-2.947v10.17
		l-2.945-2.946c-0.076-0.075-0.179-0.117-0.286-0.117H8.949V77.1z"/>
	<path fill="#FFFFFF" stroke="#FFFFFF" stroke-width="1.2" stroke-miterlimit="10" d="M17.79,80.736
		c-0.222,0-0.403,0.181-0.403,0.404c0,0.223,0.182,0.402,0.403,0.402c1.337,0,2.424-1.086,2.424-2.423
		c0-1.336-1.087-2.424-2.424-2.424c-0.222,0-0.403,0.181-0.403,0.403c0,0.224,0.182,0.405,0.403,0.405
		c0.892,0,1.617,0.723,1.617,1.615C19.407,80.011,18.681,80.736,17.79,80.736z"/>
	<path fill="#FFFFFF" stroke="#FFFFFF" stroke-width="1.2" stroke-miterlimit="10" d="M17.876,84.833
		c3.088,0,5.603-2.515,5.603-5.603c0-3.09-2.515-5.604-5.603-5.604c-0.28,0-0.51,0.229-0.51,0.511c0,0.281,0.229,0.51,0.51,0.51
		c2.527,0,4.585,2.056,4.585,4.583c0,2.529-2.058,4.584-4.585,4.584c-0.28,0-0.51,0.229-0.51,0.509
		C17.366,84.604,17.595,84.833,17.876,84.833z"/>
</g>
</svg>
